<svg width="466" height="429" viewBox="0 0 466 429" fill="none" xmlns="http://www.w3.org/2000/svg">
<path d="M304.359 188.084C318.278 174.165 318.278 151.597 304.359 137.678C290.439 123.758 267.872 123.758 253.952 137.678C240.033 151.597 240.033 174.165 253.952 188.084C267.872 202.003 290.439 202.003 304.359 188.084Z" fill="#ABE7FD"/>
<path d="M280.8 168.437H265.185L261.642 178.1H258.595L271.612 143.704H274.377L287.392 178.1H284.369L280.802 168.437H280.8ZM266.082 165.981H279.878L272.98 147.248L266.082 165.981Z" fill="white"/>
<path d="M295.99 178.1H293.084V143.704H295.99V178.1Z" fill="white"/>
<path d="M352.3 165.913H313.609C313.402 165.913 313.235 166.08 313.235 166.288C313.235 166.495 313.402 166.662 313.609 166.662H351.926V215.255C351.926 215.461 352.093 215.63 352.3 215.63H393.024L419.168 241.773C419.314 241.919 419.55 241.919 419.697 241.773C419.843 241.627 419.843 241.39 419.697 241.244L393.443 214.99C393.373 214.92 393.278 214.881 393.177 214.881H352.673V166.288C352.673 166.082 352.506 165.913 352.299 165.913H352.3Z" fill="black"/>
<path d="M358.756 214.089C359.4 217.635 357.046 221.031 353.5 221.674C349.954 222.317 346.558 219.964 345.915 216.418C345.271 212.872 347.625 209.476 351.171 208.833C354.717 208.189 358.113 210.543 358.756 214.089Z" fill="white"/>
<path d="M352.323 208.355C348.519 208.355 345.423 211.452 345.423 215.255C345.423 219.059 348.519 222.155 352.323 222.155C356.127 222.155 359.223 219.059 359.223 215.255C359.223 211.452 356.127 208.355 352.323 208.355ZM352.323 221.407C348.931 221.407 346.171 218.647 346.171 215.255C346.171 211.863 348.931 209.104 352.323 209.104C355.715 209.104 358.474 211.863 358.474 215.255C358.474 218.647 355.715 221.407 352.323 221.407Z" fill="black"/>
<path d="M430.96 238.79C432.465 245.167 428.516 251.557 422.139 253.062C415.762 254.567 409.372 250.618 407.867 244.241C406.362 237.864 410.311 231.474 416.688 229.969C423.066 228.464 429.455 232.413 430.96 238.79Z" fill="white"/>
<path d="M419.432 229.273C412.683 229.273 407.194 234.762 407.194 241.511C407.194 248.259 412.685 253.749 419.432 253.749C426.179 253.749 431.67 248.259 431.67 241.511C431.67 234.762 426.18 229.273 419.432 229.273ZM419.432 253.001C413.097 253.001 407.942 247.846 407.942 241.511C407.942 235.176 413.097 230.021 419.432 230.021C425.767 230.021 430.923 235.176 430.923 241.511C430.923 247.846 425.769 253.001 419.432 253.001Z" fill="black"/>
<path d="M393.212 95.8783C393.113 95.8783 393.018 95.9175 392.946 95.9872L334.163 154.771H313.608C313.4 154.771 313.233 154.937 313.233 155.145C313.233 155.353 313.4 155.519 313.608 155.519H334.318C334.416 155.519 334.511 155.48 334.583 155.41L393.212 96.7817L416.222 119.792V156.838C416.222 157.043 416.388 157.212 416.596 157.212C416.803 157.212 416.97 157.045 416.97 156.838V119.637C416.97 119.538 416.931 119.443 416.861 119.371L393.477 95.9872C393.407 95.9175 393.312 95.8783 393.212 95.8783Z" fill="black"/>
<path d="M423.85 149.027C427.875 153.052 427.875 159.577 423.85 163.602C419.826 167.626 413.301 167.626 409.276 163.602C405.251 159.577 405.251 153.052 409.276 149.027C413.301 145.003 419.826 145.003 423.85 149.027Z" fill="white"/>
<path d="M416.562 145.637C410.674 145.637 405.884 150.427 405.884 156.315C405.884 162.203 410.674 166.993 416.562 166.993C422.45 166.993 427.24 162.203 427.24 156.315C427.24 150.427 422.45 145.637 416.562 145.637ZM416.562 166.246C411.086 166.246 406.631 161.791 406.631 156.315C406.631 150.839 411.086 146.384 416.562 146.384C422.038 146.384 426.494 150.839 426.494 156.315C426.494 161.791 422.038 166.246 416.562 166.246Z" fill="black"/>
<path d="M407.47 81.9901C415.344 89.8645 415.344 102.632 407.47 110.506C399.595 118.381 386.828 118.38 378.954 110.506C371.079 102.632 371.079 89.8645 378.954 81.9901C386.828 74.1156 399.595 74.1156 407.47 81.9901Z" fill="#ABE7FD"/>
<path d="M396.017 84.9872C396.017 85.0995 396.007 85.21 395.993 85.3189C397.09 85.5843 398.123 86.013 399.065 86.5761C399.133 86.4893 399.206 86.4042 399.286 86.3243C400.362 85.2492 402.097 85.2373 403.16 86.3005C404.223 87.3637 404.213 89.0972 403.136 90.174C403.056 90.254 402.971 90.3271 402.884 90.3952C403.447 91.3359 403.874 92.3702 404.142 93.4675C404.25 93.4539 404.361 93.4436 404.473 93.4436C405.986 93.4351 407.205 94.6532 407.195 96.1655C407.187 97.6778 405.953 98.9112 404.441 98.9197C404.329 98.9197 404.218 98.9129 404.109 98.8993C403.83 99.9999 403.39 101.038 402.815 101.987C402.901 102.055 402.985 102.125 403.065 102.205C404.128 103.268 404.118 105.001 403.041 106.078C401.966 107.153 400.231 107.165 399.167 106.102C399.087 106.022 399.018 105.939 398.95 105.852C398.002 106.427 396.963 106.867 395.862 107.146C395.874 107.255 395.882 107.366 395.882 107.478C395.874 108.991 394.641 110.224 393.128 110.232C391.616 110.241 390.398 109.023 390.406 107.511C390.406 107.398 390.417 107.288 390.43 107.179C389.333 106.913 388.3 106.486 387.358 105.922C387.29 106.008 387.217 106.093 387.137 106.173C386.062 107.249 384.326 107.26 383.263 106.197C382.2 105.134 382.21 103.401 383.287 102.324C383.367 102.244 383.452 102.171 383.539 102.103C382.976 101.162 382.549 100.127 382.282 99.0302C382.173 99.0439 382.062 99.0541 381.95 99.0541C380.438 99.0626 379.22 97.8445 379.228 96.3322C379.237 94.8199 380.47 93.5865 381.982 93.578C382.095 93.578 382.205 93.5848 382.314 93.5984C382.593 92.4978 383.034 91.4601 383.609 90.5108C383.522 90.4428 383.438 90.373 383.358 90.2931C382.295 89.2299 382.305 87.4964 383.382 86.4196C384.457 85.3444 386.193 85.3325 387.256 86.3957C387.336 86.4757 387.406 86.5591 387.474 86.6458C388.421 86.0708 389.461 85.6302 390.561 85.3512C390.549 85.2424 390.541 85.1318 390.541 85.0195C390.549 83.5072 391.783 82.2738 393.295 82.2653C394.807 82.2568 396.025 83.4748 396.017 84.9872ZM388.125 96.2795C388.108 99.0881 390.371 101.352 393.181 101.335C395.99 101.318 398.281 99.0285 398.298 96.2182C398.315 93.4096 396.053 91.1471 393.242 91.1624C390.434 91.1794 388.142 93.4692 388.125 96.2795Z" fill="white"/>
<path d="M200.162 161.849C195.904 161.849 192.44 158.386 192.44 154.128C192.44 149.87 195.904 146.406 200.162 146.406C204.42 146.406 207.884 149.87 207.884 154.128C207.884 158.386 204.42 161.849 200.162 161.849ZM200.162 147.155C196.317 147.155 193.189 150.283 193.189 154.128C193.189 157.972 196.317 161.101 200.162 161.101C204.007 161.101 207.135 157.972 207.135 154.128C207.135 150.283 204.007 147.155 200.162 147.155Z" fill="#ABE7FD"/>
<path d="M243.381 172.999H218.374C218.275 172.999 218.18 172.96 218.109 172.89L205.746 160.527C205.6 160.381 205.6 160.145 205.746 159.998C205.893 159.852 206.129 159.852 206.276 159.998L218.527 172.25H243.379C243.587 172.25 243.754 172.417 243.754 172.624C243.754 172.832 243.587 172.999 243.379 172.999H243.381Z" fill="#ABE7FD"/>
<path d="M279.878 126.724C279.671 126.724 279.504 126.557 279.504 126.35V78.5559C279.504 78.3501 279.671 78.1816 279.878 78.1816C280.086 78.1816 280.252 78.3484 280.252 78.5559V126.35C280.252 126.556 280.086 126.724 279.878 126.724Z" fill="black"/>
<path d="M279.878 88.7935C285.532 88.7935 290.115 84.21 290.115 78.5559C290.115 72.9019 285.532 68.3184 279.878 68.3184C274.224 68.3184 269.64 72.9019 269.64 78.5559C269.64 84.21 274.224 88.7935 279.878 88.7935Z" fill="#ABE7FD"/>
<path d="M97.1427 180.223C97.0474 180.223 96.9505 180.187 96.8773 180.114C96.731 179.967 96.731 179.731 96.8773 179.585L146.247 130.215C146.316 130.146 146.412 130.106 146.512 130.106H184.206L214.914 99.3988C215.06 99.2525 215.297 99.2525 215.443 99.3988C215.589 99.5451 215.589 99.7815 215.443 99.9278L184.625 130.746C184.555 130.816 184.46 130.855 184.359 130.855H146.665L97.4047 180.115C97.3315 180.189 97.2362 180.224 97.1393 180.224L97.1427 180.223Z" fill="#ABE7FD"/>
<path d="M95.6655 192.204C100.058 190.385 102.145 185.349 100.325 180.956C98.5053 176.563 93.469 174.476 89.076 176.296C84.683 178.116 82.5969 183.152 84.4166 187.545C86.2362 191.938 91.2725 194.024 95.6655 192.204Z" fill="#ABE7FD"/>
<path d="M250.16 134.371C250.065 134.371 249.968 134.335 249.895 134.262L215.838 100.205H118.935C118.727 100.205 118.561 100.038 118.561 99.8303C118.561 99.6228 118.727 99.4561 118.935 99.4561H215.993C216.091 99.4561 216.187 99.4952 216.258 99.5649L250.424 133.731C250.57 133.877 250.57 134.114 250.424 134.26C250.351 134.333 250.256 134.369 250.159 134.369L250.16 134.371Z" fill="black"/>
<path d="M119.891 131.227C137.262 131.227 151.345 117.145 151.345 99.7728C151.345 82.401 137.262 68.3184 119.891 68.3184C102.519 68.3184 88.4363 82.401 88.4363 99.7728C88.4363 117.145 102.519 131.227 119.891 131.227Z" fill="#ABE7FD"/>
<path d="M221.147 101.067C221.926 97.7669 219.882 94.4603 216.582 93.6814C213.282 92.9025 209.975 94.9463 209.196 98.2464C208.418 101.546 210.461 104.853 213.761 105.632C217.062 106.411 220.368 104.367 221.147 101.067Z" fill="white"/>
<path d="M215.179 106.175C211.588 106.175 208.666 103.252 208.666 99.6612C208.666 96.07 211.588 93.1475 215.179 93.1475C218.77 93.1475 221.693 96.07 221.693 99.6612C221.693 103.252 218.77 106.175 215.179 106.175ZM215.179 93.8943C212 93.8943 209.414 96.48 209.414 99.6595C209.414 102.839 212.002 105.425 215.179 105.425C218.357 105.425 220.944 102.839 220.944 99.6595C220.944 96.48 218.359 93.8943 215.179 93.8943Z" fill="black"/>
<path d="M124.547 115.705C124.547 115.547 124.533 115.392 124.513 115.239C126.053 114.866 127.502 114.266 128.822 113.477C128.917 113.599 129.019 113.718 129.132 113.83C130.641 115.339 133.073 115.355 134.563 113.863C136.054 112.373 136.04 109.94 134.531 108.431C134.419 108.319 134.3 108.217 134.177 108.121C134.968 106.801 135.567 105.352 135.94 103.812C136.093 103.831 136.248 103.845 136.406 103.846C138.527 103.86 140.237 102.15 140.223 100.029C140.21 97.9076 138.481 96.1775 136.358 96.1639C136.2 96.1639 136.045 96.1741 135.892 96.1928C135.501 94.6482 134.883 93.192 134.077 91.8634C134.198 91.7698 134.315 91.6695 134.427 91.5572C135.918 90.067 135.904 87.6343 134.395 86.1254C132.886 84.6164 130.453 84.6011 128.963 86.0931C128.853 86.2036 128.752 86.321 128.657 86.4435C127.327 85.6371 125.871 85.0196 124.326 84.6284C124.343 84.4753 124.355 84.3204 124.355 84.1622C124.343 82.0409 122.613 80.3108 120.49 80.2989C118.368 80.2853 116.659 81.995 116.672 84.1163C116.672 84.2745 116.686 84.4293 116.706 84.5824C115.167 84.955 113.717 85.5555 112.397 86.3448C112.302 86.2223 112.2 86.1033 112.088 85.991C110.579 84.4821 108.146 84.4667 106.656 85.9587C105.166 87.4489 105.179 89.8815 106.688 91.3905C106.801 91.5027 106.92 91.6048 107.042 91.7001C106.251 93.0202 105.652 94.4696 105.28 96.0091C105.127 95.9904 104.972 95.9768 104.814 95.9751C102.692 95.9615 100.983 97.6711 100.996 99.7925C101.008 101.914 102.738 103.644 104.861 103.658C105.019 103.658 105.174 103.647 105.327 103.629C105.719 105.173 106.336 106.629 107.142 107.958C107.022 108.052 106.904 108.152 106.794 108.264C105.304 109.754 105.317 112.187 106.826 113.696C108.335 115.205 110.768 115.22 112.258 113.728C112.368 113.618 112.469 113.499 112.564 113.378C113.894 114.184 115.351 114.802 116.894 115.193C116.876 115.346 116.865 115.501 116.865 115.659C116.876 117.781 118.607 119.511 120.728 119.523C122.849 119.534 124.559 117.826 124.545 115.705H124.547ZM113.478 99.8673C113.454 95.9275 116.628 92.7531 120.568 92.7769C124.508 92.8007 127.72 96.0142 127.743 99.9524C127.767 103.892 124.593 107.067 120.653 107.043C116.713 107.019 113.501 103.806 113.478 99.8673Z" fill="white"/>
<path d="M223.189 362.437H424.777C429.519 362.437 433.363 358.593 433.363 353.851V221.323C433.363 216.581 429.519 212.737 424.777 212.737L223.189 212.737C218.448 212.737 214.604 216.581 214.604 221.323L214.604 353.851C214.604 358.593 218.448 362.437 223.189 362.437Z" fill="white"/>
<path d="M425.087 362.938H222.186C217.271 362.938 213.273 358.945 213.273 354.036V220.817C213.273 215.908 217.271 211.914 222.186 211.914H425.087C430.002 211.914 434 215.908 434 220.817V354.035C434 358.944 430.002 362.936 425.087 362.936V362.938ZM222.186 212.459C217.573 212.459 213.818 216.208 213.818 220.817V354.035C213.818 358.642 217.572 362.392 222.186 362.392H425.087C429.7 362.392 433.455 358.644 433.455 354.035V220.817C433.455 216.209 429.702 212.459 425.087 212.459H222.186Z" fill="black"/>
<path d="M433.267 231.471H214.845C214.695 231.471 214.574 231.35 214.574 231.2C214.574 231.05 214.695 230.929 214.845 230.929H433.268C433.419 230.929 433.54 231.05 433.54 231.2C433.54 231.35 433.419 231.471 433.268 231.471H433.267Z" fill="black"/>
<path d="M416.74 225.342C418.563 225.342 420.04 223.864 420.04 222.042C420.04 220.219 418.563 218.741 416.74 218.741C414.917 218.741 413.44 220.219 413.44 222.042C413.44 223.864 414.917 225.342 416.74 225.342Z" fill="#ABE7FD"/>
<path d="M405.832 225.342C407.655 225.342 409.133 223.864 409.133 222.042C409.133 220.219 407.655 218.741 405.832 218.741C404.01 218.741 402.532 220.219 402.532 222.042C402.532 223.864 404.01 225.342 405.832 225.342Z" fill="#ABE7FD"/>
<path d="M394.924 225.614C392.955 225.614 391.352 224.011 391.352 222.042C391.352 220.073 392.955 218.471 394.924 218.471C396.893 218.471 398.495 220.073 398.495 222.042C398.495 224.011 396.893 225.614 394.924 225.614ZM394.924 219.013C393.253 219.013 391.895 220.372 391.895 222.042C391.895 223.713 393.253 225.071 394.924 225.071C396.594 225.071 397.953 223.713 397.953 222.042C397.953 220.372 396.594 219.013 394.924 219.013Z" fill="black"/>
<path d="M355.38 339.181H344.449C340.548 339.181 337.375 336.008 337.375 332.107V306.36C337.375 306.211 337.495 306.088 337.646 306.088C337.796 306.088 337.917 306.209 337.917 306.36V332.107C337.917 335.709 340.847 338.639 344.449 338.639H355.38C365.354 338.639 373.467 330.526 373.467 320.552C373.467 317.799 371.596 315.444 368.915 314.826C368.799 314.798 368.714 314.699 368.706 314.58C368.697 314.461 368.767 314.351 368.88 314.308C374.978 311.965 379.076 306.002 379.076 299.467C379.076 291.544 373.164 284.773 365.323 283.719C365.198 283.701 365.101 283.602 365.09 283.476C365.078 283.35 365.154 283.233 365.272 283.192C369.476 281.768 372.301 277.829 372.301 273.391C372.301 262.531 363.803 253.754 352.954 253.41C352.807 253.405 352.691 253.285 352.691 253.138V249.516C352.691 243.772 348.019 239.1 342.275 239.1C336.531 239.1 331.859 243.772 331.859 249.516V331.433C331.859 331.582 331.738 331.704 331.588 331.704C331.437 331.704 331.316 331.583 331.316 331.433V249.516C331.316 243.474 336.233 238.558 342.275 238.558C348.317 238.558 353.234 243.474 353.234 249.516V252.878C358.479 253.111 363.375 255.312 367.045 259.092C370.784 262.944 372.843 268.022 372.843 273.393C372.843 277.728 370.283 281.611 366.377 283.344C373.992 284.846 379.62 291.608 379.62 299.468C379.62 305.966 375.701 311.919 369.792 314.52C372.311 315.431 374.011 317.811 374.011 320.553C374.011 330.825 365.653 339.183 355.381 339.183L355.38 339.181Z" fill="black"/>
<path d="M368.977 314.833H358.912C358.762 314.833 358.641 314.713 358.641 314.562C358.641 314.412 358.762 314.291 358.912 314.291H368.977C369.127 314.291 369.248 314.412 369.248 314.562C369.248 314.713 369.127 314.833 368.977 314.833Z" fill="black"/>
<path d="M346.16 326.927C346.009 326.927 345.889 326.806 345.889 326.655V302.648C345.889 302.577 345.917 302.508 345.968 302.456L365.166 283.257C365.273 283.151 365.444 283.151 365.55 283.257C365.656 283.363 365.656 283.535 365.55 283.641L346.43 302.761V326.655C346.43 326.805 346.309 326.927 346.159 326.927H346.16Z" fill="black"/>
<path d="M341.369 291.467C341.3 291.467 341.23 291.441 341.177 291.388C341.071 291.282 341.071 291.111 341.177 291.005L352.69 279.491V253.139C352.69 252.99 352.811 252.868 352.961 252.868C353.112 252.868 353.233 252.989 353.233 253.139V279.603C353.233 279.675 353.204 279.744 353.154 279.796L341.561 291.388C341.508 291.441 341.439 291.467 341.369 291.467Z" fill="black"/>
<path d="M342.111 272.367C341.961 272.367 341.84 272.246 341.84 272.095V253.139C341.84 252.99 341.961 252.868 342.111 252.868H352.962C353.113 252.868 353.234 252.989 353.234 253.139C353.234 253.29 353.113 253.411 352.962 253.411H342.382V272.095C342.382 272.245 342.261 272.367 342.111 272.367Z" fill="black"/>
<path d="M344.113 275.694C345.219 274.588 345.219 272.795 344.113 271.689C343.008 270.583 341.214 270.583 340.109 271.689C339.003 272.795 339.003 274.588 340.109 275.694C341.214 276.8 343.007 276.8 344.113 275.694Z" fill="#ABE7FD"/>
<path d="M342.511 292.89C342.64 291.331 341.481 289.963 339.923 289.834C338.364 289.705 336.996 290.864 336.867 292.423C336.738 293.982 337.897 295.35 339.456 295.479C341.014 295.608 342.382 294.449 342.511 292.89Z" fill="white"/>
<path d="M339.694 295.762C337.982 295.762 336.591 294.37 336.591 292.659C336.591 290.948 337.982 289.556 339.694 289.556C341.405 289.556 342.797 290.948 342.797 292.659C342.797 294.37 341.405 295.762 339.694 295.762ZM339.694 290.098C338.282 290.098 337.133 291.247 337.133 292.659C337.133 294.07 338.282 295.219 339.694 295.219C341.105 295.219 342.254 294.07 342.254 292.659C342.254 291.247 341.105 290.098 339.694 290.098Z" fill="black"/>
<path d="M339.648 306.459C340.754 305.354 340.754 303.561 339.648 302.455C338.542 301.349 336.749 301.349 335.643 302.455C334.537 303.561 334.537 305.354 335.643 306.459C336.749 307.565 338.542 307.565 339.648 306.459Z" fill="#ABE7FD"/>
<path d="M357.278 317.34C358.817 317.061 359.838 315.587 359.559 314.048C359.28 312.509 357.806 311.488 356.267 311.767C354.728 312.046 353.707 313.52 353.986 315.059C354.265 316.598 355.739 317.619 357.278 317.34Z" fill="white"/>
<path d="M356.771 317.663C355.06 317.663 353.668 316.271 353.668 314.56C353.668 312.849 355.06 311.457 356.771 311.457C358.482 311.457 359.874 312.849 359.874 314.56C359.874 316.271 358.482 317.663 356.771 317.663ZM356.771 312.001C355.359 312.001 354.21 313.15 354.21 314.561C354.21 315.973 355.359 317.122 356.771 317.122C358.183 317.122 359.332 315.973 359.332 314.561C359.332 313.15 358.183 312.001 356.771 312.001Z" fill="black"/>
<path d="M348.977 329.469C349.168 327.916 348.064 326.503 346.512 326.312C344.96 326.121 343.547 327.224 343.355 328.776C343.164 330.329 344.268 331.742 345.82 331.933C347.372 332.124 348.785 331.021 348.977 329.469Z" fill="white"/>
<path d="M346.16 332.218C344.449 332.218 343.057 330.826 343.057 329.115C343.057 327.404 344.449 326.012 346.16 326.012C347.871 326.012 349.263 327.404 349.263 329.115C349.263 330.826 347.871 332.218 346.16 332.218ZM346.16 326.555C344.749 326.555 343.6 327.704 343.6 329.116C343.6 330.528 344.749 331.677 346.16 331.677C347.572 331.677 348.721 330.528 348.721 329.116C348.721 327.704 347.572 326.555 346.16 326.555Z" fill="black"/>
<path d="M309.298 339.18H298.366C288.094 339.18 279.737 330.822 279.737 320.55C279.737 317.809 281.437 315.428 283.956 314.517C278.047 311.916 274.128 305.964 274.128 299.465C274.128 291.605 279.754 284.843 287.371 283.341C283.465 281.608 280.905 277.724 280.905 273.39C280.905 268.019 282.963 262.941 286.703 259.089C290.371 255.308 295.268 253.108 300.514 252.875V249.513C300.514 243.471 305.429 238.555 311.473 238.555C317.516 238.555 322.431 243.471 322.431 249.513V333.437C322.431 333.586 322.31 333.708 322.16 333.708C322.01 333.708 321.889 333.588 321.889 333.437V249.515C321.889 243.771 317.216 239.098 311.473 239.098C305.729 239.098 301.056 243.771 301.056 249.515V253.137C301.056 253.283 300.941 253.403 300.794 253.408C289.945 253.753 281.447 262.53 281.447 273.39C281.447 277.828 284.271 281.767 288.475 283.191C288.595 283.231 288.67 283.348 288.658 283.474C288.646 283.6 288.549 283.7 288.425 283.717C280.584 284.771 274.671 291.542 274.671 299.465C274.671 305.999 278.769 311.964 284.868 314.306C284.979 314.349 285.049 314.459 285.042 314.579C285.033 314.697 284.948 314.797 284.832 314.824C282.152 315.443 280.281 317.797 280.281 320.55C280.281 330.524 288.395 338.637 298.368 338.637H309.299C312.9 338.637 315.831 335.707 315.831 332.106V306.358C315.831 306.209 315.952 306.087 316.102 306.087C316.252 306.087 316.373 306.208 316.373 306.358V332.106C316.373 336.006 313.2 339.18 309.299 339.18H309.298Z" fill="black"/>
<path d="M294.834 314.832H284.77C284.619 314.832 284.498 314.711 284.498 314.56C284.498 314.41 284.619 314.289 284.77 314.289H294.834C294.985 314.289 295.106 314.41 295.106 314.56C295.106 314.711 294.985 314.832 294.834 314.832Z" fill="black"/>
<path d="M307.585 326.925C307.435 326.925 307.314 326.804 307.314 326.653V302.759L288.194 283.639C288.088 283.533 288.088 283.361 288.194 283.255C288.3 283.149 288.472 283.149 288.578 283.255L307.777 302.454C307.827 302.505 307.855 302.574 307.855 302.647V326.653C307.855 326.803 307.735 326.925 307.584 326.925H307.585Z" fill="black"/>
<path d="M312.376 291.465C312.307 291.465 312.237 291.439 312.184 291.386L300.591 279.794C300.541 279.743 300.512 279.674 300.512 279.601V253.137C300.512 252.988 300.633 252.866 300.784 252.866C300.934 252.866 301.055 252.987 301.055 253.137V279.489L312.568 291.003C312.674 291.109 312.674 291.28 312.568 291.386C312.515 291.439 312.446 291.465 312.376 291.465Z" fill="black"/>
<path d="M311.634 272.365C311.484 272.365 311.363 272.244 311.363 272.093V253.409H300.783C300.633 253.409 300.512 253.288 300.512 253.137C300.512 252.987 300.633 252.866 300.783 252.866H311.634C311.785 252.866 311.906 252.987 311.906 253.137V272.093C311.906 272.243 311.785 272.365 311.634 272.365Z" fill="black"/>
<path d="M311.982 276.496C313.534 276.305 314.637 274.891 314.446 273.339C314.255 271.787 312.842 270.683 311.29 270.875C309.737 271.066 308.634 272.479 308.825 274.031C309.016 275.584 310.43 276.687 311.982 276.496Z" fill="#ABE7FD"/>
<path d="M316.056 294.66C317.162 293.554 317.162 291.761 316.056 290.655C314.95 289.549 313.157 289.549 312.051 290.655C310.945 291.761 310.945 293.554 312.051 294.66C313.157 295.766 314.95 295.766 316.056 294.66Z" fill="white"/>
<path d="M314.053 295.759C312.342 295.759 310.95 294.367 310.95 292.656C310.95 290.945 312.342 289.553 314.053 289.553C315.764 289.553 317.156 290.945 317.156 292.656C317.156 294.367 315.764 295.759 314.053 295.759ZM314.053 290.095C312.642 290.095 311.493 291.244 311.493 292.656C311.493 294.067 312.642 295.216 314.053 295.216C315.465 295.216 316.614 294.067 316.614 292.656C316.614 291.244 315.465 290.095 314.053 290.095Z" fill="black"/>
<path d="M318.919 304.627C319.016 303.066 317.83 301.722 316.269 301.625C314.708 301.528 313.364 302.714 313.267 304.275C313.17 305.836 314.356 307.18 315.917 307.277C317.478 307.375 318.822 306.188 318.919 304.627Z" fill="#ABE7FD"/>
<path d="M299.727 315.205C300.086 313.683 299.143 312.158 297.621 311.798C296.099 311.439 294.574 312.382 294.214 313.904C293.855 315.426 294.798 316.951 296.32 317.311C297.842 317.67 299.367 316.727 299.727 315.205Z" fill="white"/>
<path d="M296.975 317.661C295.263 317.661 293.872 316.269 293.872 314.558C293.872 312.847 295.263 311.455 296.975 311.455C298.686 311.455 300.078 312.847 300.078 314.558C300.078 316.269 298.686 317.661 296.975 317.661ZM296.975 311.999C295.563 311.999 294.414 313.148 294.414 314.559C294.414 315.971 295.563 317.12 296.975 317.12C298.386 317.12 299.535 315.971 299.535 314.559C299.535 313.148 298.386 311.999 296.975 311.999Z" fill="black"/>
<path d="M309.588 331.121C310.694 330.015 310.694 328.222 309.588 327.116C308.482 326.01 306.689 326.01 305.583 327.116C304.478 328.222 304.478 330.015 305.583 331.121C306.689 332.226 308.482 332.226 309.588 331.121Z" fill="white"/>
<path d="M307.586 332.219C305.875 332.219 304.483 330.827 304.483 329.116C304.483 327.405 305.875 326.013 307.586 326.013C309.297 326.013 310.689 327.405 310.689 329.116C310.689 330.827 309.297 332.219 307.586 332.219ZM307.586 326.556C306.174 326.556 305.025 327.705 305.025 329.117C305.025 330.529 306.174 331.678 307.586 331.678C308.997 331.678 310.146 330.529 310.146 329.117C310.146 327.705 308.997 326.556 307.586 326.556Z" fill="black"/>
<path d="M380.585 350.083H338.53C338.459 350.083 338.39 350.054 338.338 350.004L321.966 333.632C321.86 333.526 321.86 333.354 321.966 333.248C322.072 333.142 322.243 333.142 322.349 333.248L338.643 349.542H380.585C380.735 349.542 380.856 349.662 380.856 349.813C380.856 349.963 380.735 350.084 380.585 350.084V350.083Z" fill="black"/>
<path d="M382.682 351.861C381.376 351.861 380.313 350.798 380.313 349.492C380.313 348.187 381.376 347.124 382.682 347.124C383.987 347.124 385.05 348.187 385.05 349.492C385.05 350.798 383.987 351.861 382.682 351.861ZM382.682 347.666C381.675 347.666 380.856 348.485 380.856 349.492C380.856 350.5 381.675 351.318 382.682 351.318C383.689 351.318 384.508 350.5 384.508 349.492C384.508 348.485 383.689 347.666 382.682 347.666Z" fill="black"/>
<path d="M362.419 350.083C362.35 350.083 362.28 350.057 362.227 350.004C362.121 349.898 362.121 349.727 362.227 349.621L371.522 340.325C371.573 340.274 371.642 340.246 371.715 340.246H390.366C390.517 340.246 390.637 340.367 390.637 340.517C390.637 340.668 390.517 340.789 390.366 340.789H371.828L362.611 350.005C362.558 350.058 362.489 350.084 362.419 350.084V350.083Z" fill="black"/>
<path d="M392.556 342.884C391.25 342.884 390.187 341.821 390.187 340.516C390.187 339.21 391.25 338.147 392.556 338.147C393.861 338.147 394.924 339.21 394.924 340.516C394.924 341.821 393.861 342.884 392.556 342.884ZM392.556 338.689C391.548 338.689 390.73 339.507 390.73 340.515C390.73 341.522 391.548 342.34 392.556 342.34C393.563 342.34 394.381 341.522 394.381 340.515C394.381 339.507 393.562 338.689 392.556 338.689Z" fill="black"/>
<path d="M91.1372 353.913C115.881 353.913 135.94 333.863 135.94 309.13C135.94 284.397 115.881 264.347 91.1372 264.347C66.3933 264.347 46.3345 284.397 46.3345 309.13C46.3345 333.863 66.3933 353.913 91.1372 353.913Z" fill="white"/>
<path d="M91.1373 354.306C66.216 354.306 45.9426 334.04 45.9426 309.129C45.9426 284.218 66.2178 263.952 91.1373 263.952C116.057 263.952 136.332 284.218 136.332 309.129C136.332 334.04 116.057 354.306 91.1373 354.306ZM91.1373 264.738C66.6489 264.738 46.7265 284.651 46.7265 309.129C46.7265 333.607 66.6489 353.52 91.1373 353.52C115.626 353.52 135.548 333.607 135.548 309.129C135.548 284.651 115.626 264.738 91.1373 264.738Z" fill="black"/>
<path d="M93.4163 337.732C93.4074 337.732 93.3967 337.732 93.3878 337.732C72.4463 336.216 67.5134 325.716 67.3139 325.271C67.2248 325.073 67.3139 324.841 67.5116 324.752C67.7094 324.663 67.941 324.752 68.03 324.948C68.0781 325.053 73.0129 335.47 93.4448 336.948C93.6604 336.965 93.8243 337.152 93.8082 337.369C93.794 337.576 93.6212 337.732 93.4163 337.732Z" fill="black"/>
<path d="M37.2516 399.293C37.1964 399.293 37.1412 399.283 37.0895 399.258C36.8918 399.169 36.8045 398.935 36.8953 398.738L62.0732 343.349C62.1622 343.152 62.3956 343.064 62.5934 343.155C62.7911 343.244 62.8784 343.478 62.7875 343.675L37.6097 399.064C37.5438 399.208 37.4013 399.293 37.2516 399.293Z" fill="black"/>
<path d="M38.9432 403.065C38.9459 401.286 37.5054 399.841 35.7255 399.839C33.9456 399.836 32.5005 401.276 32.4977 403.054C32.4949 404.833 33.9355 406.278 35.7154 406.28C37.4952 406.283 38.9404 404.843 38.9432 403.065Z" fill="black"/>
<path d="M145.024 399.293C144.874 399.293 144.732 399.208 144.666 399.064L119.488 343.675C119.399 343.477 119.486 343.246 119.682 343.155C119.878 343.066 120.112 343.153 120.202 343.349L145.38 398.738C145.469 398.935 145.382 399.167 145.186 399.258C145.133 399.281 145.077 399.293 145.024 399.293Z" fill="black"/>
<path d="M146.546 406.299C148.326 406.296 149.767 404.852 149.764 403.073C149.761 401.294 148.316 399.854 146.536 399.857C144.756 399.86 143.315 401.304 143.318 403.083C143.321 404.862 144.766 406.302 146.546 406.299Z" fill="black"/>
<path d="M188.348 406.538H137.117C130.26 406.538 125.541 399.656 128.016 393.264L156.808 318.874H209.92L181.207 393.059L190.092 402.504C191.529 404.033 190.444 406.538 188.348 406.538Z" fill="white"/>
<path d="M188.348 406.932H137.118C133.767 406.932 130.637 405.282 128.743 402.519C126.851 399.758 126.443 396.245 127.651 393.123L156.443 318.734C156.502 318.582 156.646 318.482 156.81 318.482H209.922C210.052 318.482 210.173 318.547 210.246 318.653C210.319 318.76 210.335 318.896 210.289 319.017L181.666 392.972L190.381 402.237C191.154 403.061 191.357 404.215 190.908 405.252C190.459 406.289 189.479 406.934 188.35 406.934L188.348 406.932ZM157.077 319.266L128.383 393.407C127.252 396.33 127.619 399.489 129.391 402.075C131.164 404.664 133.98 406.148 137.119 406.148H188.35C189.162 406.148 189.866 405.685 190.188 404.94C190.511 404.195 190.365 403.367 189.809 402.776L180.925 393.33C180.821 393.22 180.789 393.061 180.844 392.92L209.35 319.27H157.081L157.077 319.266Z" fill="black"/>
<path d="M181.106 393.372H136.264C136.047 393.372 135.873 393.195 135.873 392.98C135.873 392.764 136.049 392.588 136.264 392.588H181.106C181.324 392.588 181.498 392.764 181.498 392.98C181.498 393.195 181.322 393.372 181.106 393.372Z" fill="black"/>
<path d="M185.319 289.389L184.299 297.443C184.299 297.443 114.393 298.658 114.698 297.443C115.002 296.228 117.731 284.308 119.027 284.493C120.32 284.679 185.319 289.389 185.319 289.389Z" fill="white"/>
<path d="M85.6822 294.92L80.4856 309.997C76.6002 321.27 84.9785 333.014 96.9074 333.014H171.119L204.13 400.596C206.067 404.56 210.093 407.074 214.505 407.074H268.314C269.835 407.074 270.469 405.128 269.238 404.232L254.854 393.764L223.399 320.051C216.894 304.811 201.917 294.922 185.341 294.922H85.6822V294.92Z" fill="white"/>
<path d="M268.315 407.465H214.507C209.977 407.465 205.765 404.835 203.779 400.766L170.877 333.405H96.9091C91.0926 333.405 85.8211 330.69 82.4452 325.954C79.071 321.223 78.2231 315.36 80.1168 309.866L85.3134 294.791C85.3686 294.632 85.5165 294.525 85.6839 294.525H185.346C202.108 294.525 217.188 304.484 223.764 319.894L255.177 393.507L269.473 403.913C270.173 404.422 270.453 405.284 270.186 406.107C269.917 406.93 269.185 407.463 268.317 407.463L268.315 407.465ZM85.9619 295.313L80.8579 310.124C79.0479 315.374 79.8602 320.979 83.0847 325.5C86.311 330.025 91.3509 332.621 96.9091 332.621H171.121C171.27 332.621 171.408 332.706 171.473 332.842L204.485 400.424C206.341 404.226 210.276 406.683 214.507 406.683H268.315C268.948 406.683 269.309 406.262 269.438 405.869C269.566 405.475 269.521 404.923 269.01 404.552L254.626 394.084C254.569 394.043 254.525 393.986 254.496 393.92L223.041 320.207C216.588 305.086 201.791 295.315 185.344 295.315H85.9619V295.313Z" fill="black"/>
<path d="M254.856 394.155H209.92C209.703 394.155 209.528 393.979 209.528 393.763C209.528 393.547 209.704 393.371 209.92 393.371H254.856C255.074 393.371 255.248 393.547 255.248 393.763C255.248 393.979 255.072 394.155 254.856 394.155Z" fill="black"/>
<path d="M163.5 246.049L162.874 238.102L144.081 234.063L116.999 288.574L150.112 287.455L163.5 246.049Z" fill="white"/>
<path d="M141.908 291.22L162.962 237.879C162.962 237.879 194.027 254.555 182.918 291.22H141.906H141.908Z" fill="#ABE7FD"/>
<path d="M161.923 283.748C161.875 283.748 161.827 283.739 161.779 283.721C161.578 283.641 161.478 283.413 161.558 283.211L171.198 258.791C171.278 258.589 171.506 258.49 171.707 258.57C171.908 258.65 172.008 258.878 171.928 259.079L162.288 283.5C162.228 283.655 162.08 283.749 161.923 283.749V283.748Z" fill="black"/>
<path d="M144.081 234.063L109.597 321.429L86.304 319.798C80.76 319.409 76.9066 314.12 78.241 308.727C79.4452 303.86 81.2499 297.907 83.8384 292.299C87.6989 283.929 97.3492 264.978 105.154 250.907C112.638 237.418 128.149 230.288 143.167 233.835C143.472 233.907 143.777 233.983 144.081 234.063Z" fill="#ABE7FD"/>
<path d="M221.594 290.87H177.801L192.352 250.857H236.145L221.594 290.87Z" fill="black"/>
<path d="M164.563 286.092H223.491L221.594 291.219H162.354L164.563 286.092Z" fill="black"/>
<path d="M122.7 270.914L132.006 248.14L106.55 256.176L99.0165 275.386C96.02 283.027 101.621 291.296 109.83 291.353C121.804 291.435 136.697 291.524 148.009 291.514C149.212 283.527 152.885 275.528 155.036 271.356C138.526 271.117 122.7 270.916 122.7 270.916V270.914Z" fill="#ABE7FD"/>
<path d="M128.58 271.306H122.7C122.57 271.306 122.447 271.241 122.374 271.134C122.301 271.025 122.286 270.888 122.336 270.767L131.643 247.992C131.725 247.791 131.955 247.696 132.154 247.777C132.355 247.858 132.452 248.088 132.37 248.288L123.284 270.523H128.58C128.798 270.523 128.972 270.699 128.972 270.915C128.972 271.13 128.796 271.306 128.58 271.306Z" fill="black"/>
<path d="M179.389 271.79C174.508 271.655 164.998 271.498 155.034 271.354C152.884 275.526 149.21 283.525 148.008 291.511C157.293 291.5 164.166 291.424 165.034 291.219C167.829 290.56 167.773 287.412 167.773 287.412C171.862 286.63 169.594 283.354 169.594 283.354C175.817 279.96 170.321 277.637 170.321 277.637L179.624 276.409C180.657 276.272 181.475 275.463 181.619 274.432C181.812 273.062 180.773 271.829 179.389 271.792V271.79Z" fill="white"/>
<path d="M122.619 291.775C117.499 291.775 112.994 291.766 109.827 291.744C105.781 291.716 102.161 289.779 99.893 286.43C97.6269 283.083 97.1744 279.005 98.6495 275.242L106.183 256.033C106.262 255.831 106.49 255.732 106.693 255.81C106.894 255.888 106.994 256.116 106.916 256.319L99.3817 275.529C98.001 279.048 98.425 282.86 100.545 285.99C102.665 289.122 106.05 290.934 109.834 290.959C118.616 291.019 137.702 290.975 151.636 290.943C156.714 290.93 161.125 290.921 164.139 290.918C164.356 290.918 164.531 291.092 164.531 291.31C164.531 291.527 164.356 291.702 164.139 291.703C161.126 291.707 156.715 291.718 151.638 291.728C142.725 291.75 131.705 291.775 122.621 291.775H122.619Z" fill="black"/>
<path d="M116.999 271.682C116.788 271.682 116.616 271.517 116.607 271.305C116.598 271.087 116.767 270.906 116.984 270.897L121.039 270.738C121.039 270.738 121.05 270.738 121.055 270.738C121.265 270.738 121.44 270.904 121.447 271.116C121.456 271.333 121.287 271.515 121.069 271.524L117.015 271.682C117.015 271.682 117.004 271.682 116.999 271.682Z" fill="black"/>
<path d="M152.545 197.566C150.388 198.603 148.752 200.668 148.237 203.005C147.974 204.206 147.99 205.453 147.749 206.657C147.509 207.863 146.937 209.094 145.861 209.686C145.321 209.982 144.701 210.094 144.135 210.334C142.998 210.821 142.098 211.906 141.992 213.137C141.885 214.368 142.676 215.663 143.867 215.99C143.616 217.081 144.035 218.296 144.903 219.001C145.77 219.707 147.046 219.867 148.061 219.4C148.476 221.77 150.543 223.603 152.836 224.333C155.128 225.064 157.613 224.862 159.981 224.429C164.465 223.608 168.842 221.95 172.498 219.226C173.444 218.522 174.352 217.731 174.967 216.726C175.582 215.721 175.87 214.466 175.509 213.343C176.936 212.082 178.307 210.646 178.92 208.843C179.535 207.04 179.198 204.796 177.682 203.643C176.456 202.711 174.737 202.649 173.504 201.728C172.434 200.928 171.903 199.62 171.233 198.464C170.396 197.018 169.241 195.706 167.748 194.953C165.928 194.032 163.695 194.137 161.882 195.022C160.897 195.503 160.309 196.212 159.529 196.934C158.775 197.632 157.565 196.896 156.632 196.822C155.235 196.709 153.808 196.957 152.543 197.565L152.545 197.566Z" fill="black"/>
<path d="M162.039 237.792L160.324 237.024L164.453 226.986C164.453 226.986 166.01 213.626 153.321 219.872L146.353 234.525L145.181 234.288C145.181 234.288 153.419 247.088 162.039 237.794V237.792Z" fill="white"/>
<path d="M155.41 241.559C151.206 241.559 147.709 238.07 146.141 236.204C146.002 236.039 146.024 235.791 146.189 235.65C146.355 235.511 146.603 235.533 146.743 235.698C149.173 238.59 154.047 242.937 159.372 239.552C159.556 239.436 159.798 239.489 159.914 239.673C160.03 239.856 159.976 240.099 159.793 240.214C158.284 241.173 156.807 241.559 155.41 241.559Z" fill="black"/>
<path d="M162.039 238.186C161.986 238.186 161.93 238.175 161.879 238.152L160.163 237.384C159.969 237.297 159.88 237.072 159.96 236.876L164.068 226.889C164.122 226.325 164.517 221.299 161.783 219.37C160.015 218.123 157.268 218.39 153.616 220.164L146.706 234.692C146.629 234.854 146.451 234.945 146.273 234.908L144.776 234.605C144.564 234.562 144.427 234.356 144.47 234.142C144.513 233.93 144.719 233.791 144.933 233.835L146.129 234.078L152.966 219.703C153.003 219.623 153.067 219.558 153.148 219.519C157.138 217.554 160.197 217.289 162.237 218.728C165.5 221.034 164.872 226.786 164.843 227.03C164.84 227.066 164.831 227.101 164.816 227.133L160.831 236.821L162.199 237.434C162.397 237.523 162.486 237.755 162.397 237.952C162.331 238.098 162.189 238.184 162.039 238.184V238.186Z" fill="black"/>
<path d="M157.636 221.797C158.681 223.505 160.092 225.021 161.849 225.981C163.605 226.942 165.727 227.309 167.655 226.769C170.883 225.866 173.003 222.604 173.555 219.299C174.107 215.994 173.388 212.624 172.643 209.358C172.643 209.358 170.445 204.621 166.5 203.57C166.942 210.896 153.686 207.541 158.574 217.17C158.574 217.17 155.87 214.778 154.457 215.161C152.932 215.576 151.849 217.183 152.011 218.756C152.174 220.327 153.474 221.683 155.019 222.018C155.892 222.208 156.72 222.296 157.634 221.797H157.636Z" fill="white"/>
<path d="M165.795 227.41C164.407 227.41 162.971 227.042 161.661 226.325C160.065 225.454 158.629 224.066 157.489 222.301C156.547 222.697 155.683 222.563 154.936 222.401C153.192 222.021 151.799 220.504 151.623 218.795C151.439 217.01 152.64 215.248 154.356 214.781C155.298 214.525 156.62 215.239 157.587 215.905C157.046 214.441 156.957 213.223 157.309 212.205C157.931 210.42 159.807 209.556 161.622 208.721C164.022 207.616 166.288 206.572 166.108 203.594C166.101 203.467 166.154 203.346 166.251 203.266C166.347 203.186 166.479 203.159 166.6 203.191C170.676 204.276 172.904 208.991 172.997 209.193C173.008 209.218 173.018 209.244 173.024 209.271C173.692 212.207 174.526 215.859 173.94 219.363C173.295 223.222 170.868 226.277 167.758 227.147C167.127 227.323 166.464 227.41 165.791 227.41H165.795ZM157.635 221.403C157.767 221.403 157.897 221.471 157.97 221.59C159.066 223.382 160.473 224.781 162.037 225.636C163.803 226.602 165.812 226.876 167.549 226.39C170.756 225.493 172.682 222.15 173.168 219.233C173.724 215.898 172.922 212.348 172.27 209.487C172.071 209.079 170.141 205.284 166.901 204.107C166.803 207.199 164.234 208.382 161.952 209.433C160.21 210.235 158.563 210.994 158.052 212.464C157.662 213.584 157.947 215.066 158.925 216.992C159.011 217.16 158.964 217.365 158.815 217.48C158.665 217.596 158.457 217.589 158.314 217.464C157.329 216.593 155.439 215.302 154.56 215.54C153.228 215.902 152.259 217.327 152.403 218.715C152.546 220.097 153.68 221.325 155.104 221.635C156.014 221.832 156.689 221.866 157.446 221.453C157.505 221.421 157.571 221.405 157.634 221.405L157.635 221.403Z" fill="black"/>
<path d="M156.982 220.122C156.912 220.122 156.843 220.104 156.78 220.066C156.075 219.642 155.444 219.113 154.908 218.492C154.767 218.328 154.785 218.08 154.949 217.938C155.113 217.797 155.361 217.815 155.503 217.979C155.986 218.538 156.551 219.014 157.185 219.393C157.37 219.505 157.431 219.746 157.32 219.931C157.247 220.054 157.117 220.122 156.983 220.122H156.982Z" fill="black"/>
</svg>
