<svg width="21" height="21" viewBox="0 0 21 21" fill="none" xmlns="http://www.w3.org/2000/svg">
<path d="M9.66875 13.0812L8.05 14.7C7.70875 15.0412 7.16625 15.0412 6.81625 14.7087C6.72 14.6125 6.62375 14.525 6.5275 14.4287C5.62625 13.5187 4.8125 12.565 4.08625 11.5675C3.36875 10.57 2.79125 9.5725 2.37125 8.58375C1.96 7.58625 1.75 6.6325 1.75 5.7225C1.75 5.1275 1.855 4.55875 2.065 4.03375C2.275 3.5 2.6075 3.01 3.07125 2.5725C3.63125 2.02125 4.24375 1.75 4.89125 1.75C5.13625 1.75 5.38125 1.8025 5.6 1.9075C5.8275 2.0125 6.02875 2.17 6.18625 2.3975L8.21625 5.25875C8.37375 5.4775 8.4875 5.67875 8.56625 5.87125C8.645 6.055 8.68875 6.23875 8.68875 6.405C8.68875 6.615 8.6275 6.825 8.505 7.02625C8.39125 7.2275 8.225 7.4375 8.015 7.6475L7.35 8.33875C7.25375 8.435 7.21 8.54875 7.21 8.68875C7.21 8.75875 7.21875 8.82 7.23625 8.89C7.2625 8.96 7.28875 9.0125 7.30625 9.065C7.46375 9.35375 7.735 9.73 8.12 10.185C8.51375 10.64 8.93375 11.1037 9.38875 11.5675C9.47625 11.655 9.5725 11.7425 9.66 11.83C10.01 12.1712 10.0188 12.7312 9.66875 13.0812Z" fill="#858585"/>
<path d="M19.2237 16.0388C19.2237 16.2838 19.18 16.5375 19.0925 16.7825C19.0662 16.8525 19.04 16.9225 19.005 16.9925C18.8562 17.3075 18.6637 17.605 18.41 17.885C17.9812 18.3575 17.5087 18.6988 16.975 18.9175C16.9662 18.9175 16.9575 18.9263 16.9487 18.9263C16.4325 19.1363 15.8725 19.25 15.2687 19.25C14.3762 19.25 13.4225 19.04 12.4162 18.6113C11.41 18.1825 10.4037 17.605 9.40621 16.8788C9.06496 16.625 8.72371 16.3713 8.39996 16.1L11.2612 13.2388C11.5062 13.4225 11.725 13.5625 11.9087 13.6588C11.9525 13.6763 12.005 13.7025 12.0662 13.7288C12.1362 13.755 12.2062 13.7638 12.285 13.7638C12.4337 13.7638 12.5475 13.7113 12.6437 13.615L13.3087 12.9588C13.5275 12.74 13.7375 12.5738 13.9387 12.4688C14.14 12.3463 14.3412 12.285 14.56 12.285C14.7262 12.285 14.9012 12.32 15.0937 12.3988C15.2862 12.4775 15.4875 12.5913 15.7062 12.74L18.6025 14.7963C18.83 14.9538 18.9875 15.1375 19.0837 15.3563C19.1712 15.575 19.2237 15.7938 19.2237 16.0388Z" fill="#858585"/>
</svg>
