<svg width="279" height="53" viewBox="0 0 279 53" fill="none" xmlns="http://www.w3.org/2000/svg">
<rect width="279" height="53" rx="20" fill="white"/>
<path d="M25.36 32.192C24.7627 32.192 24.1867 32.128 23.632 32C23.0773 31.8827 22.5867 31.6907 22.16 31.424C21.7333 31.1467 21.3973 30.8 21.152 30.384C20.9067 29.9573 20.784 29.4507 20.784 28.864C20.784 28.8 20.784 28.7413 20.784 28.688C20.7947 28.624 20.8 28.5707 20.8 28.528H22.592C22.592 28.56 22.5867 28.608 22.576 28.672C22.576 28.736 22.576 28.7893 22.576 28.832C22.576 29.2267 22.6933 29.5627 22.928 29.84C23.1627 30.1173 23.488 30.3253 23.904 30.464C24.3307 30.6027 24.816 30.672 25.36 30.672C25.6587 30.672 25.9467 30.656 26.224 30.624C26.5013 30.5813 26.752 30.5227 26.976 30.448C27.2107 30.3627 27.4133 30.2613 27.584 30.144C27.7547 30.016 27.888 29.8667 27.984 29.696C28.08 29.5253 28.128 29.328 28.128 29.104C28.128 28.7627 28.0267 28.48 27.824 28.256C27.632 28.032 27.3653 27.8453 27.024 27.696C26.6933 27.5467 26.3147 27.4133 25.888 27.296C25.472 27.1787 25.04 27.0613 24.592 26.944C24.144 26.8267 23.7067 26.688 23.28 26.528C22.864 26.368 22.4853 26.176 22.144 25.952C21.8133 25.7173 21.5467 25.4293 21.344 25.088C21.152 24.736 21.056 24.3093 21.056 23.808C21.056 23.328 21.1573 22.9013 21.36 22.528C21.5627 22.1547 21.856 21.8453 22.24 21.6C22.624 21.344 23.0827 21.152 23.616 21.024C24.1493 20.896 24.752 20.832 25.424 20.832C26 20.832 26.544 20.896 27.056 21.024C27.568 21.1413 28.016 21.328 28.4 21.584C28.784 21.84 29.0827 22.1653 29.296 22.56C29.52 22.9547 29.632 23.424 29.632 23.968V24.16H27.856V23.952C27.856 23.6107 27.7547 23.3227 27.552 23.088C27.3493 22.8533 27.0667 22.672 26.704 22.544C26.3413 22.416 25.92 22.352 25.44 22.352C24.8747 22.352 24.4 22.4107 24.016 22.528C23.632 22.6347 23.3387 22.7893 23.136 22.992C22.944 23.184 22.848 23.4187 22.848 23.696C22.848 24.0053 22.9493 24.2613 23.152 24.464C23.3547 24.656 23.6213 24.8213 23.952 24.96C24.2933 25.0987 24.672 25.2267 25.088 25.344C25.5147 25.4507 25.9467 25.568 26.384 25.696C26.832 25.8133 27.264 25.952 27.68 26.112C28.1067 26.272 28.4853 26.4693 28.816 26.704C29.1573 26.9387 29.4293 27.232 29.632 27.584C29.8347 27.9253 29.936 28.3467 29.936 28.848C29.936 29.6373 29.7387 30.2827 29.344 30.784C28.9493 31.2747 28.4053 31.632 27.712 31.856C27.0293 32.08 26.2453 32.192 25.36 32.192ZM35.2788 32.192C34.4148 32.192 33.6894 32.0373 33.1028 31.728C32.5268 31.408 32.0894 30.9227 31.7908 30.272C31.4921 29.6213 31.3428 28.7947 31.3428 27.792C31.3428 26.7787 31.4921 25.952 31.7908 25.312C32.0894 24.6613 32.5321 24.1813 33.1188 23.872C33.7054 23.552 34.4361 23.392 35.3108 23.392C36.1108 23.392 36.7774 23.5467 37.3108 23.856C37.8548 24.1547 38.2654 24.6133 38.5428 25.232C38.8201 25.8507 38.9588 26.6293 38.9588 27.568V28.208H33.0548C33.0761 28.8053 33.1668 29.3067 33.3268 29.712C33.4868 30.1067 33.7268 30.4 34.0468 30.592C34.3774 30.7733 34.7934 30.864 35.2948 30.864C35.6041 30.864 35.8814 30.8267 36.1268 30.752C36.3721 30.6667 36.5801 30.5493 36.7508 30.4C36.9214 30.24 37.0548 30.0533 37.1508 29.84C37.2468 29.616 37.2948 29.3653 37.2948 29.088H38.9268C38.9268 29.5893 38.8414 30.032 38.6708 30.416C38.5001 30.8 38.2494 31.1253 37.9188 31.392C37.5988 31.648 37.2148 31.8453 36.7668 31.984C36.3188 32.1227 35.8228 32.192 35.2788 32.192ZM33.0868 26.992H37.2148C37.2148 26.576 37.1668 26.2293 37.0708 25.952C36.9854 25.664 36.8574 25.4293 36.6868 25.248C36.5161 25.0667 36.3134 24.9387 36.0788 24.864C35.8441 24.7787 35.5774 24.736 35.2788 24.736C34.8308 24.736 34.4468 24.816 34.1268 24.976C33.8174 25.136 33.5774 25.3867 33.4068 25.728C33.2361 26.0587 33.1294 26.48 33.0868 26.992ZM42.7781 32.192C42.5115 32.192 42.2235 32.16 41.9141 32.096C41.6048 32.032 41.3115 31.9147 41.0341 31.744C40.7675 31.5733 40.5488 31.3387 40.3781 31.04C40.2075 30.7307 40.1221 30.3307 40.1221 29.84C40.1221 29.264 40.2555 28.7893 40.5221 28.416C40.7888 28.0427 41.1621 27.7493 41.6421 27.536C42.1221 27.3227 42.6928 27.1733 43.3541 27.088C44.0261 27.0027 44.7568 26.96 45.5461 26.96V26.128C45.5461 25.8507 45.4981 25.6053 45.4021 25.392C45.3168 25.1787 45.1515 25.0133 44.9061 24.896C44.6715 24.7787 44.3301 24.72 43.8821 24.72C43.4341 24.72 43.0821 24.7787 42.8261 24.896C42.5808 25.0027 42.4048 25.1413 42.2981 25.312C42.2021 25.472 42.1541 25.648 42.1541 25.84V26.08H40.5541C40.5435 26.0267 40.5381 25.9733 40.5381 25.92C40.5381 25.8667 40.5381 25.8027 40.5381 25.728C40.5381 25.2267 40.6768 24.8053 40.9541 24.464C41.2421 24.112 41.6421 23.8453 42.1541 23.664C42.6661 23.4827 43.2581 23.392 43.9301 23.392C44.6555 23.392 45.2581 23.4987 45.7381 23.712C46.2288 23.9147 46.5968 24.208 46.8421 24.592C47.0875 24.976 47.2101 25.44 47.2101 25.984V30.256C47.2101 30.4587 47.2581 30.6027 47.3541 30.688C47.4608 30.7733 47.5835 30.816 47.7221 30.816H48.2981V31.936C48.1701 31.9893 48.0101 32.0427 47.8181 32.096C47.6261 32.1493 47.4021 32.176 47.1461 32.176C46.8581 32.176 46.6128 32.1227 46.4101 32.016C46.2181 31.92 46.0581 31.7813 45.9301 31.6C45.8128 31.408 45.7328 31.1947 45.6901 30.96H45.5941C45.4021 31.2053 45.1675 31.424 44.8901 31.616C44.6235 31.7973 44.3141 31.936 43.9621 32.032C43.6101 32.1387 43.2155 32.192 42.7781 32.192ZM43.2421 30.816C43.5728 30.816 43.8768 30.768 44.1541 30.672C44.4421 30.5653 44.6875 30.4213 44.8901 30.24C45.0928 30.048 45.2528 29.824 45.3701 29.568C45.4875 29.3013 45.5461 29.0133 45.5461 28.704V28.144C44.8101 28.144 44.1648 28.1867 43.6101 28.272C43.0555 28.3573 42.6235 28.5173 42.3141 28.752C42.0048 28.976 41.8501 29.2907 41.8501 29.696C41.8501 29.9413 41.9035 30.1493 42.0101 30.32C42.1168 30.48 42.2768 30.6027 42.4901 30.688C42.7035 30.7733 42.9541 30.816 43.2421 30.816ZM49.447 32V23.584H50.823L50.967 24.784H51.079C51.271 24.4747 51.4897 24.2187 51.735 24.016C51.991 23.8133 52.2737 23.6587 52.583 23.552C52.903 23.4453 53.2443 23.392 53.607 23.392C54.1297 23.392 54.583 23.4987 54.967 23.712C55.3617 23.9253 55.6603 24.2827 55.863 24.784H55.975C56.167 24.4853 56.391 24.2347 56.647 24.032C56.903 23.8187 57.191 23.6587 57.511 23.552C57.8417 23.4453 58.1937 23.392 58.567 23.392C59.0683 23.392 59.511 23.4827 59.895 23.664C60.279 23.8347 60.583 24.128 60.807 24.544C61.031 24.9493 61.143 25.4933 61.143 26.176V32H59.479V26.48C59.479 26.16 59.4417 25.8987 59.367 25.696C59.2923 25.4827 59.191 25.3173 59.063 25.2C58.935 25.072 58.7803 24.9813 58.599 24.928C58.4177 24.8747 58.2203 24.848 58.007 24.848C57.655 24.848 57.3403 24.944 57.063 25.136C56.7857 25.3173 56.5617 25.5733 56.391 25.904C56.2203 26.2347 56.135 26.624 56.135 27.072V32H54.471V26.48C54.471 26.16 54.4337 25.8987 54.359 25.696C54.2843 25.4827 54.183 25.3173 54.055 25.2C53.927 25.072 53.7723 24.9813 53.591 24.928C53.4097 24.8747 53.2177 24.848 53.015 24.848C52.663 24.848 52.343 24.944 52.055 25.136C51.767 25.3173 51.5377 25.5733 51.367 25.904C51.1963 26.2347 51.111 26.624 51.111 27.072V32H49.447ZM63.2126 32V20.432H64.8766V32H63.2126ZM70.5131 32.192C69.6491 32.192 68.9238 32.0373 68.3371 31.728C67.7611 31.408 67.3238 30.9227 67.0251 30.272C66.7265 29.6213 66.5771 28.7947 66.5771 27.792C66.5771 26.7787 66.7265 25.952 67.0251 25.312C67.3238 24.6613 67.7665 24.1813 68.3531 23.872C68.9398 23.552 69.6705 23.392 70.5451 23.392C71.3451 23.392 72.0118 23.5467 72.5451 23.856C73.0891 24.1547 73.4998 24.6133 73.7771 25.232C74.0545 25.8507 74.1931 26.6293 74.1931 27.568V28.208H68.2891C68.3105 28.8053 68.4011 29.3067 68.5611 29.712C68.7211 30.1067 68.9611 30.4 69.2811 30.592C69.6118 30.7733 70.0278 30.864 70.5291 30.864C70.8385 30.864 71.1158 30.8267 71.3611 30.752C71.6065 30.6667 71.8145 30.5493 71.9851 30.4C72.1558 30.24 72.2891 30.0533 72.3851 29.84C72.4811 29.616 72.5291 29.3653 72.5291 29.088H74.1611C74.1611 29.5893 74.0758 30.032 73.9051 30.416C73.7345 30.8 73.4838 31.1253 73.1531 31.392C72.8331 31.648 72.4491 31.8453 72.0011 31.984C71.5531 32.1227 71.0571 32.192 70.5131 32.192ZM68.3211 26.992H72.4491C72.4491 26.576 72.4011 26.2293 72.3051 25.952C72.2198 25.664 72.0918 25.4293 71.9211 25.248C71.7505 25.0667 71.5478 24.9387 71.3131 24.864C71.0785 24.7787 70.8118 24.736 70.5131 24.736C70.0651 24.736 69.6811 24.816 69.3611 24.976C69.0518 25.136 68.8118 25.3867 68.6411 25.728C68.4705 26.0587 68.3638 26.48 68.3211 26.992ZM78.9885 32.192C78.4018 32.192 77.8845 32.128 77.4365 32C76.9885 31.872 76.6152 31.696 76.3165 31.472C76.0178 31.248 75.7885 30.9813 75.6285 30.672C75.4792 30.352 75.4045 30 75.4045 29.616C75.4045 29.5627 75.4045 29.5147 75.4045 29.472C75.4152 29.4293 75.4205 29.392 75.4205 29.36H77.0685C77.0685 29.392 77.0685 29.424 77.0685 29.456C77.0685 29.4773 77.0685 29.504 77.0685 29.536C77.0685 29.8667 77.1592 30.1333 77.3405 30.336C77.5218 30.528 77.7618 30.6667 78.0605 30.752C78.3698 30.8267 78.7058 30.864 79.0685 30.864C79.3885 30.864 79.6818 30.8267 79.9485 30.752C80.2258 30.6667 80.4498 30.544 80.6205 30.384C80.8018 30.224 80.8925 30.0213 80.8925 29.776C80.8925 29.456 80.7805 29.2107 80.5565 29.04C80.3325 28.8693 80.0392 28.736 79.6765 28.64C79.3138 28.5333 78.9352 28.4213 78.5405 28.304C78.1885 28.208 77.8365 28.1067 77.4845 28C77.1432 27.8827 76.8338 27.7333 76.5565 27.552C76.2792 27.3707 76.0552 27.1413 75.8845 26.864C75.7138 26.5867 75.6285 26.24 75.6285 25.824C75.6285 25.4293 75.7138 25.0827 75.8845 24.784C76.0552 24.4853 76.2898 24.2347 76.5885 24.032C76.8978 23.8293 77.2605 23.6747 77.6765 23.568C78.1032 23.4613 78.5672 23.408 79.0685 23.408C79.5912 23.408 80.0552 23.4667 80.4605 23.584C80.8658 23.6907 81.2072 23.8453 81.4845 24.048C81.7725 24.2507 81.9912 24.496 82.1405 24.784C82.2898 25.0613 82.3645 25.36 82.3645 25.68C82.3645 25.744 82.3592 25.8133 82.3485 25.888C82.3485 25.952 82.3485 25.9947 82.3485 26.016H80.7165V25.872C80.7165 25.6587 80.6578 25.4667 80.5405 25.296C80.4232 25.1253 80.2365 24.9867 79.9805 24.88C79.7352 24.7733 79.4045 24.72 78.9885 24.72C78.7112 24.72 78.4658 24.7467 78.2525 24.8C78.0392 24.8427 77.8632 24.9067 77.7245 24.992C77.5858 25.0773 77.4792 25.1787 77.4045 25.296C77.3405 25.4133 77.3085 25.5467 77.3085 25.696C77.3085 25.9413 77.3938 26.1333 77.5645 26.272C77.7458 26.4 77.9805 26.512 78.2685 26.608C78.5565 26.6933 78.8658 26.7893 79.1965 26.896C79.5805 27.0027 79.9698 27.1147 80.3645 27.232C80.7592 27.3387 81.1218 27.4773 81.4525 27.648C81.7938 27.8187 82.0658 28.0533 82.2685 28.352C82.4818 28.6507 82.5885 29.0507 82.5885 29.552C82.5885 30.0107 82.4978 30.4107 82.3165 30.752C82.1352 31.0933 81.8792 31.3707 81.5485 31.584C81.2285 31.7867 80.8498 31.936 80.4125 32.032C79.9752 32.1387 79.5005 32.192 78.9885 32.192ZM87.3791 32.192C86.7925 32.192 86.2751 32.128 85.8271 32C85.3791 31.872 85.0058 31.696 84.7071 31.472C84.4085 31.248 84.1791 30.9813 84.0191 30.672C83.8698 30.352 83.7951 30 83.7951 29.616C83.7951 29.5627 83.7951 29.5147 83.7951 29.472C83.8058 29.4293 83.8111 29.392 83.8111 29.36H85.4591C85.4591 29.392 85.4591 29.424 85.4591 29.456C85.4591 29.4773 85.4591 29.504 85.4591 29.536C85.4591 29.8667 85.5498 30.1333 85.7311 30.336C85.9125 30.528 86.1525 30.6667 86.4511 30.752C86.7605 30.8267 87.0965 30.864 87.4591 30.864C87.7791 30.864 88.0725 30.8267 88.3391 30.752C88.6165 30.6667 88.8405 30.544 89.0111 30.384C89.1925 30.224 89.2831 30.0213 89.2831 29.776C89.2831 29.456 89.1711 29.2107 88.9471 29.04C88.7231 28.8693 88.4298 28.736 88.0671 28.64C87.7045 28.5333 87.3258 28.4213 86.9311 28.304C86.5791 28.208 86.2271 28.1067 85.8751 28C85.5338 27.8827 85.2245 27.7333 84.9471 27.552C84.6698 27.3707 84.4458 27.1413 84.2751 26.864C84.1045 26.5867 84.0191 26.24 84.0191 25.824C84.0191 25.4293 84.1045 25.0827 84.2751 24.784C84.4458 24.4853 84.6805 24.2347 84.9791 24.032C85.2885 23.8293 85.6511 23.6747 86.0671 23.568C86.4938 23.4613 86.9578 23.408 87.4591 23.408C87.9818 23.408 88.4458 23.4667 88.8511 23.584C89.2565 23.6907 89.5978 23.8453 89.8751 24.048C90.1631 24.2507 90.3818 24.496 90.5311 24.784C90.6805 25.0613 90.7551 25.36 90.7551 25.68C90.7551 25.744 90.7498 25.8133 90.7391 25.888C90.7391 25.952 90.7391 25.9947 90.7391 26.016H89.1071V25.872C89.1071 25.6587 89.0485 25.4667 88.9311 25.296C88.8138 25.1253 88.6271 24.9867 88.3711 24.88C88.1258 24.7733 87.7951 24.72 87.3791 24.72C87.1018 24.72 86.8565 24.7467 86.6431 24.8C86.4298 24.8427 86.2538 24.9067 86.1151 24.992C85.9765 25.0773 85.8698 25.1787 85.7951 25.296C85.7311 25.4133 85.6991 25.5467 85.6991 25.696C85.6991 25.9413 85.7845 26.1333 85.9551 26.272C86.1365 26.4 86.3711 26.512 86.6591 26.608C86.9471 26.6933 87.2565 26.7893 87.5871 26.896C87.9711 27.0027 88.3605 27.1147 88.7551 27.232C89.1498 27.3387 89.5125 27.4773 89.8431 27.648C90.1845 27.8187 90.4565 28.0533 90.6591 28.352C90.8725 28.6507 90.9791 29.0507 90.9791 29.552C90.9791 30.0107 90.8885 30.4107 90.7071 30.752C90.5258 31.0933 90.2698 31.3707 89.9391 31.584C89.6191 31.7867 89.2405 31.936 88.8031 32.032C88.3658 32.1387 87.8911 32.192 87.3791 32.192ZM100.171 32.192C99.6163 32.192 99.115 32.08 98.667 31.856C98.219 31.632 97.851 31.296 97.563 30.848H97.451L97.307 32H95.947V20.432H97.611V24.608H97.707C97.8883 24.3307 98.1017 24.1013 98.347 23.92C98.603 23.7387 98.891 23.6053 99.211 23.52C99.531 23.4347 99.8777 23.392 100.251 23.392C100.891 23.392 101.456 23.5467 101.947 23.856C102.438 24.1653 102.816 24.64 103.083 25.28C103.36 25.92 103.499 26.7467 103.499 27.76C103.499 28.7947 103.366 29.6373 103.099 30.288C102.832 30.9387 102.448 31.4187 101.947 31.728C101.456 32.0373 100.864 32.192 100.171 32.192ZM99.707 30.752C100.187 30.752 100.576 30.656 100.875 30.464C101.184 30.272 101.414 29.9733 101.563 29.568C101.712 29.152 101.787 28.6133 101.787 27.952V27.664C101.787 27.0027 101.712 26.464 101.563 26.048C101.424 25.632 101.2 25.328 100.891 25.136C100.582 24.9333 100.176 24.832 99.675 24.832C99.3657 24.832 99.083 24.8853 98.827 24.992C98.571 25.0987 98.3523 25.2693 98.171 25.504C97.9897 25.728 97.851 26.0213 97.755 26.384C97.659 26.7467 97.611 27.184 97.611 27.696V27.92C97.611 28.528 97.6803 29.0453 97.819 29.472C97.9683 29.888 98.1977 30.208 98.507 30.432C98.8163 30.6453 99.2163 30.752 99.707 30.752ZM107.853 32.192C107.042 32.192 106.386 31.9787 105.885 31.552C105.383 31.1147 105.133 30.3733 105.133 29.328V23.584H106.797V29.072C106.797 29.392 106.834 29.6587 106.909 29.872C106.994 30.0853 107.111 30.256 107.261 30.384C107.41 30.512 107.586 30.6027 107.789 30.656C107.991 30.7093 108.215 30.736 108.461 30.736C108.845 30.736 109.191 30.6453 109.501 30.464C109.821 30.272 110.077 30.0107 110.269 29.68C110.461 29.3387 110.557 28.9493 110.557 28.512V23.584H112.221V32H110.861L110.717 30.8H110.605C110.402 31.1093 110.162 31.3653 109.885 31.568C109.607 31.7707 109.298 31.9253 108.957 32.032C108.626 32.1387 108.258 32.192 107.853 32.192ZM117.473 32.192C116.886 32.192 116.369 32.128 115.921 32C115.473 31.872 115.1 31.696 114.801 31.472C114.502 31.248 114.273 30.9813 114.113 30.672C113.964 30.352 113.889 30 113.889 29.616C113.889 29.5627 113.889 29.5147 113.889 29.472C113.9 29.4293 113.905 29.392 113.905 29.36H115.553C115.553 29.392 115.553 29.424 115.553 29.456C115.553 29.4773 115.553 29.504 115.553 29.536C115.553 29.8667 115.644 30.1333 115.825 30.336C116.006 30.528 116.246 30.6667 116.545 30.752C116.854 30.8267 117.19 30.864 117.553 30.864C117.873 30.864 118.166 30.8267 118.433 30.752C118.71 30.6667 118.934 30.544 119.105 30.384C119.286 30.224 119.377 30.0213 119.377 29.776C119.377 29.456 119.265 29.2107 119.041 29.04C118.817 28.8693 118.524 28.736 118.161 28.64C117.798 28.5333 117.42 28.4213 117.025 28.304C116.673 28.208 116.321 28.1067 115.969 28C115.628 27.8827 115.318 27.7333 115.041 27.552C114.764 27.3707 114.54 27.1413 114.369 26.864C114.198 26.5867 114.113 26.24 114.113 25.824C114.113 25.4293 114.198 25.0827 114.369 24.784C114.54 24.4853 114.774 24.2347 115.073 24.032C115.382 23.8293 115.745 23.6747 116.161 23.568C116.588 23.4613 117.052 23.408 117.553 23.408C118.076 23.408 118.54 23.4667 118.945 23.584C119.35 23.6907 119.692 23.8453 119.969 24.048C120.257 24.2507 120.476 24.496 120.625 24.784C120.774 25.0613 120.849 25.36 120.849 25.68C120.849 25.744 120.844 25.8133 120.833 25.888C120.833 25.952 120.833 25.9947 120.833 26.016H119.201V25.872C119.201 25.6587 119.142 25.4667 119.025 25.296C118.908 25.1253 118.721 24.9867 118.465 24.88C118.22 24.7733 117.889 24.72 117.473 24.72C117.196 24.72 116.95 24.7467 116.737 24.8C116.524 24.8427 116.348 24.9067 116.209 24.992C116.07 25.0773 115.964 25.1787 115.889 25.296C115.825 25.4133 115.793 25.5467 115.793 25.696C115.793 25.9413 115.878 26.1333 116.049 26.272C116.23 26.4 116.465 26.512 116.753 26.608C117.041 26.6933 117.35 26.7893 117.681 26.896C118.065 27.0027 118.454 27.1147 118.849 27.232C119.244 27.3387 119.606 27.4773 119.937 27.648C120.278 27.8187 120.55 28.0533 120.753 28.352C120.966 28.6507 121.073 29.0507 121.073 29.552C121.073 30.0107 120.982 30.4107 120.801 30.752C120.62 31.0933 120.364 31.3707 120.033 31.584C119.713 31.7867 119.334 31.936 118.897 32.032C118.46 32.1387 117.985 32.192 117.473 32.192ZM122.76 22.128V20.432H124.424V22.128H122.76ZM122.76 32V23.584H124.424V32H122.76ZM126.572 32V23.584H127.948L128.092 24.784H128.204C128.407 24.4747 128.647 24.2187 128.924 24.016C129.201 23.8133 129.505 23.6587 129.836 23.552C130.177 23.4453 130.551 23.392 130.956 23.392C131.489 23.392 131.959 23.488 132.364 23.68C132.769 23.8613 133.084 24.16 133.308 24.576C133.543 24.992 133.66 25.552 133.66 26.256V32H131.996V26.512C131.996 26.192 131.953 25.9253 131.868 25.712C131.793 25.4987 131.681 25.328 131.532 25.2C131.383 25.072 131.207 24.9813 131.004 24.928C130.801 24.8747 130.577 24.848 130.332 24.848C129.948 24.848 129.596 24.944 129.276 25.136C128.967 25.3173 128.716 25.5733 128.524 25.904C128.332 26.2347 128.236 26.624 128.236 27.072V32H126.572ZM139.232 32.192C138.368 32.192 137.643 32.0373 137.056 31.728C136.48 31.408 136.043 30.9227 135.744 30.272C135.445 29.6213 135.296 28.7947 135.296 27.792C135.296 26.7787 135.445 25.952 135.744 25.312C136.043 24.6613 136.485 24.1813 137.072 23.872C137.659 23.552 138.389 23.392 139.264 23.392C140.064 23.392 140.731 23.5467 141.264 23.856C141.808 24.1547 142.219 24.6133 142.496 25.232C142.773 25.8507 142.912 26.6293 142.912 27.568V28.208H137.008C137.029 28.8053 137.12 29.3067 137.28 29.712C137.44 30.1067 137.68 30.4 138 30.592C138.331 30.7733 138.747 30.864 139.248 30.864C139.557 30.864 139.835 30.8267 140.08 30.752C140.325 30.6667 140.533 30.5493 140.704 30.4C140.875 30.24 141.008 30.0533 141.104 29.84C141.2 29.616 141.248 29.3653 141.248 29.088H142.88C142.88 29.5893 142.795 30.032 142.624 30.416C142.453 30.8 142.203 31.1253 141.872 31.392C141.552 31.648 141.168 31.8453 140.72 31.984C140.272 32.1227 139.776 32.192 139.232 32.192ZM137.04 26.992H141.168C141.168 26.576 141.12 26.2293 141.024 25.952C140.939 25.664 140.811 25.4293 140.64 25.248C140.469 25.0667 140.267 24.9387 140.032 24.864C139.797 24.7787 139.531 24.736 139.232 24.736C138.784 24.736 138.4 24.816 138.08 24.976C137.771 25.136 137.531 25.3867 137.36 25.728C137.189 26.0587 137.083 26.48 137.04 26.992ZM147.707 32.192C147.121 32.192 146.603 32.128 146.155 32C145.707 31.872 145.334 31.696 145.035 31.472C144.737 31.248 144.507 30.9813 144.347 30.672C144.198 30.352 144.123 30 144.123 29.616C144.123 29.5627 144.123 29.5147 144.123 29.472C144.134 29.4293 144.139 29.392 144.139 29.36H145.787C145.787 29.392 145.787 29.424 145.787 29.456C145.787 29.4773 145.787 29.504 145.787 29.536C145.787 29.8667 145.878 30.1333 146.059 30.336C146.241 30.528 146.481 30.6667 146.779 30.752C147.089 30.8267 147.425 30.864 147.787 30.864C148.107 30.864 148.401 30.8267 148.667 30.752C148.945 30.6667 149.169 30.544 149.339 30.384C149.521 30.224 149.611 30.0213 149.611 29.776C149.611 29.456 149.499 29.2107 149.275 29.04C149.051 28.8693 148.758 28.736 148.395 28.64C148.033 28.5333 147.654 28.4213 147.259 28.304C146.907 28.208 146.555 28.1067 146.203 28C145.862 27.8827 145.553 27.7333 145.275 27.552C144.998 27.3707 144.774 27.1413 144.603 26.864C144.433 26.5867 144.347 26.24 144.347 25.824C144.347 25.4293 144.433 25.0827 144.603 24.784C144.774 24.4853 145.009 24.2347 145.307 24.032C145.617 23.8293 145.979 23.6747 146.395 23.568C146.822 23.4613 147.286 23.408 147.787 23.408C148.31 23.408 148.774 23.4667 149.179 23.584C149.585 23.6907 149.926 23.8453 150.203 24.048C150.491 24.2507 150.71 24.496 150.859 24.784C151.009 25.0613 151.083 25.36 151.083 25.68C151.083 25.744 151.078 25.8133 151.067 25.888C151.067 25.952 151.067 25.9947 151.067 26.016H149.435V25.872C149.435 25.6587 149.377 25.4667 149.259 25.296C149.142 25.1253 148.955 24.9867 148.699 24.88C148.454 24.7733 148.123 24.72 147.707 24.72C147.43 24.72 147.185 24.7467 146.971 24.8C146.758 24.8427 146.582 24.9067 146.443 24.992C146.305 25.0773 146.198 25.1787 146.123 25.296C146.059 25.4133 146.027 25.5467 146.027 25.696C146.027 25.9413 146.113 26.1333 146.283 26.272C146.465 26.4 146.699 26.512 146.987 26.608C147.275 26.6933 147.585 26.7893 147.915 26.896C148.299 27.0027 148.689 27.1147 149.083 27.232C149.478 27.3387 149.841 27.4773 150.171 27.648C150.513 27.8187 150.785 28.0533 150.987 28.352C151.201 28.6507 151.307 29.0507 151.307 29.552C151.307 30.0107 151.217 30.4107 151.035 30.752C150.854 31.0933 150.598 31.3707 150.267 31.584C149.947 31.7867 149.569 31.936 149.131 32.032C148.694 32.1387 148.219 32.192 147.707 32.192ZM156.098 32.192C155.511 32.192 154.994 32.128 154.546 32C154.098 31.872 153.725 31.696 153.426 31.472C153.127 31.248 152.898 30.9813 152.738 30.672C152.589 30.352 152.514 30 152.514 29.616C152.514 29.5627 152.514 29.5147 152.514 29.472C152.525 29.4293 152.53 29.392 152.53 29.36H154.178C154.178 29.392 154.178 29.424 154.178 29.456C154.178 29.4773 154.178 29.504 154.178 29.536C154.178 29.8667 154.269 30.1333 154.45 30.336C154.631 30.528 154.871 30.6667 155.17 30.752C155.479 30.8267 155.815 30.864 156.178 30.864C156.498 30.864 156.791 30.8267 157.058 30.752C157.335 30.6667 157.559 30.544 157.73 30.384C157.911 30.224 158.002 30.0213 158.002 29.776C158.002 29.456 157.89 29.2107 157.666 29.04C157.442 28.8693 157.149 28.736 156.786 28.64C156.423 28.5333 156.045 28.4213 155.65 28.304C155.298 28.208 154.946 28.1067 154.594 28C154.253 27.8827 153.943 27.7333 153.666 27.552C153.389 27.3707 153.165 27.1413 152.994 26.864C152.823 26.5867 152.738 26.24 152.738 25.824C152.738 25.4293 152.823 25.0827 152.994 24.784C153.165 24.4853 153.399 24.2347 153.698 24.032C154.007 23.8293 154.37 23.6747 154.786 23.568C155.213 23.4613 155.677 23.408 156.178 23.408C156.701 23.408 157.165 23.4667 157.57 23.584C157.975 23.6907 158.317 23.8453 158.594 24.048C158.882 24.2507 159.101 24.496 159.25 24.784C159.399 25.0613 159.474 25.36 159.474 25.68C159.474 25.744 159.469 25.8133 159.458 25.888C159.458 25.952 159.458 25.9947 159.458 26.016H157.826V25.872C157.826 25.6587 157.767 25.4667 157.65 25.296C157.533 25.1253 157.346 24.9867 157.09 24.88C156.845 24.7733 156.514 24.72 156.098 24.72C155.821 24.72 155.575 24.7467 155.362 24.8C155.149 24.8427 154.973 24.9067 154.834 24.992C154.695 25.0773 154.589 25.1787 154.514 25.296C154.45 25.4133 154.418 25.5467 154.418 25.696C154.418 25.9413 154.503 26.1333 154.674 26.272C154.855 26.4 155.09 26.512 155.378 26.608C155.666 26.6933 155.975 26.7893 156.306 26.896C156.69 27.0027 157.079 27.1147 157.474 27.232C157.869 27.3387 158.231 27.4773 158.562 27.648C158.903 27.8187 159.175 28.0533 159.378 28.352C159.591 28.6507 159.698 29.0507 159.698 29.552C159.698 30.0107 159.607 30.4107 159.426 30.752C159.245 31.0933 158.989 31.3707 158.658 31.584C158.338 31.7867 157.959 31.936 157.522 32.032C157.085 32.1387 156.61 32.192 156.098 32.192ZM164.666 32V23.584H166.042L166.186 24.784H166.298C166.49 24.4747 166.708 24.2187 166.954 24.016C167.21 23.8133 167.492 23.6587 167.802 23.552C168.122 23.4453 168.463 23.392 168.826 23.392C169.348 23.392 169.802 23.4987 170.186 23.712C170.58 23.9253 170.879 24.2827 171.082 24.784H171.194C171.386 24.4853 171.61 24.2347 171.866 24.032C172.122 23.8187 172.41 23.6587 172.73 23.552C173.06 23.4453 173.412 23.392 173.786 23.392C174.287 23.392 174.73 23.4827 175.114 23.664C175.498 23.8347 175.802 24.128 176.026 24.544C176.25 24.9493 176.362 25.4933 176.362 26.176V32H174.698V26.48C174.698 26.16 174.66 25.8987 174.586 25.696C174.511 25.4827 174.41 25.3173 174.282 25.2C174.154 25.072 173.999 24.9813 173.818 24.928C173.636 24.8747 173.439 24.848 173.226 24.848C172.874 24.848 172.559 24.944 172.282 25.136C172.004 25.3173 171.78 25.5733 171.61 25.904C171.439 26.2347 171.354 26.624 171.354 27.072V32H169.69V26.48C169.69 26.16 169.652 25.8987 169.578 25.696C169.503 25.4827 169.402 25.3173 169.274 25.2C169.146 25.072 168.991 24.9813 168.81 24.928C168.628 24.8747 168.436 24.848 168.234 24.848C167.882 24.848 167.562 24.944 167.274 25.136C166.986 25.3173 166.756 25.5733 166.586 25.904C166.415 26.2347 166.33 26.624 166.33 27.072V32H164.666ZM180.559 32.192C180.293 32.192 180.005 32.16 179.695 32.096C179.386 32.032 179.093 31.9147 178.815 31.744C178.549 31.5733 178.33 31.3387 178.159 31.04C177.989 30.7307 177.903 30.3307 177.903 29.84C177.903 29.264 178.037 28.7893 178.303 28.416C178.57 28.0427 178.943 27.7493 179.423 27.536C179.903 27.3227 180.474 27.1733 181.135 27.088C181.807 27.0027 182.538 26.96 183.327 26.96V26.128C183.327 25.8507 183.279 25.6053 183.183 25.392C183.098 25.1787 182.933 25.0133 182.687 24.896C182.453 24.7787 182.111 24.72 181.663 24.72C181.215 24.72 180.863 24.7787 180.607 24.896C180.362 25.0027 180.186 25.1413 180.079 25.312C179.983 25.472 179.935 25.648 179.935 25.84V26.08H178.335C178.325 26.0267 178.319 25.9733 178.319 25.92C178.319 25.8667 178.319 25.8027 178.319 25.728C178.319 25.2267 178.458 24.8053 178.735 24.464C179.023 24.112 179.423 23.8453 179.935 23.664C180.447 23.4827 181.039 23.392 181.711 23.392C182.437 23.392 183.039 23.4987 183.519 23.712C184.01 23.9147 184.378 24.208 184.623 24.592C184.869 24.976 184.991 25.44 184.991 25.984V30.256C184.991 30.4587 185.039 30.6027 185.135 30.688C185.242 30.7733 185.365 30.816 185.503 30.816H186.079V31.936C185.951 31.9893 185.791 32.0427 185.599 32.096C185.407 32.1493 185.183 32.176 184.927 32.176C184.639 32.176 184.394 32.1227 184.191 32.016C183.999 31.92 183.839 31.7813 183.711 31.6C183.594 31.408 183.514 31.1947 183.471 30.96H183.375C183.183 31.2053 182.949 31.424 182.671 31.616C182.405 31.7973 182.095 31.936 181.743 32.032C181.391 32.1387 180.997 32.192 180.559 32.192ZM181.023 30.816C181.354 30.816 181.658 30.768 181.935 30.672C182.223 30.5653 182.469 30.4213 182.671 30.24C182.874 30.048 183.034 29.824 183.151 29.568C183.269 29.3013 183.327 29.0133 183.327 28.704V28.144C182.591 28.144 181.946 28.1867 181.391 28.272C180.837 28.3573 180.405 28.5173 180.095 28.752C179.786 28.976 179.631 29.2907 179.631 29.696C179.631 29.9413 179.685 30.1493 179.791 30.32C179.898 30.48 180.058 30.6027 180.271 30.688C180.485 30.7733 180.735 30.816 181.023 30.816ZM187.228 32V23.584H188.604L188.748 24.784H188.86C189.063 24.4747 189.303 24.2187 189.58 24.016C189.858 23.8133 190.162 23.6587 190.492 23.552C190.834 23.4453 191.207 23.392 191.612 23.392C192.146 23.392 192.615 23.488 193.02 23.68C193.426 23.8613 193.74 24.16 193.964 24.576C194.199 24.992 194.316 25.552 194.316 26.256V32H192.652V26.512C192.652 26.192 192.61 25.9253 192.524 25.712C192.45 25.4987 192.338 25.328 192.188 25.2C192.039 25.072 191.863 24.9813 191.66 24.928C191.458 24.8747 191.234 24.848 190.988 24.848C190.604 24.848 190.252 24.944 189.932 25.136C189.623 25.3173 189.372 25.5733 189.18 25.904C188.988 26.2347 188.892 26.624 188.892 27.072V32H187.228ZM198.528 32.192C198.261 32.192 197.973 32.16 197.664 32.096C197.355 32.032 197.061 31.9147 196.784 31.744C196.517 31.5733 196.299 31.3387 196.128 31.04C195.957 30.7307 195.872 30.3307 195.872 29.84C195.872 29.264 196.005 28.7893 196.272 28.416C196.539 28.0427 196.912 27.7493 197.392 27.536C197.872 27.3227 198.443 27.1733 199.104 27.088C199.776 27.0027 200.507 26.96 201.296 26.96V26.128C201.296 25.8507 201.248 25.6053 201.152 25.392C201.067 25.1787 200.901 25.0133 200.656 24.896C200.421 24.7787 200.08 24.72 199.632 24.72C199.184 24.72 198.832 24.7787 198.576 24.896C198.331 25.0027 198.155 25.1413 198.048 25.312C197.952 25.472 197.904 25.648 197.904 25.84V26.08H196.304C196.293 26.0267 196.288 25.9733 196.288 25.92C196.288 25.8667 196.288 25.8027 196.288 25.728C196.288 25.2267 196.427 24.8053 196.704 24.464C196.992 24.112 197.392 23.8453 197.904 23.664C198.416 23.4827 199.008 23.392 199.68 23.392C200.405 23.392 201.008 23.4987 201.488 23.712C201.979 23.9147 202.347 24.208 202.592 24.592C202.837 24.976 202.96 25.44 202.96 25.984V30.256C202.96 30.4587 203.008 30.6027 203.104 30.688C203.211 30.7733 203.333 30.816 203.472 30.816H204.048V31.936C203.92 31.9893 203.76 32.0427 203.568 32.096C203.376 32.1493 203.152 32.176 202.896 32.176C202.608 32.176 202.363 32.1227 202.16 32.016C201.968 31.92 201.808 31.7813 201.68 31.6C201.563 31.408 201.483 31.1947 201.44 30.96H201.344C201.152 31.2053 200.917 31.424 200.64 31.616C200.373 31.7973 200.064 31.936 199.712 32.032C199.36 32.1387 198.965 32.192 198.528 32.192ZM198.992 30.816C199.323 30.816 199.627 30.768 199.904 30.672C200.192 30.5653 200.437 30.4213 200.64 30.24C200.843 30.048 201.003 29.824 201.12 29.568C201.237 29.3013 201.296 29.0133 201.296 28.704V28.144C200.56 28.144 199.915 28.1867 199.36 28.272C198.805 28.3573 198.373 28.5173 198.064 28.752C197.755 28.976 197.6 29.2907 197.6 29.696C197.6 29.9413 197.653 30.1493 197.76 30.32C197.867 30.48 198.027 30.6027 198.24 30.688C198.453 30.7733 198.704 30.816 198.992 30.816ZM206.605 34.912C206.221 34.912 205.858 34.832 205.517 34.672C205.186 34.512 204.92 34.2827 204.717 33.984C204.514 33.6853 204.413 33.3227 204.413 32.896C204.413 32.4267 204.541 32.048 204.797 31.76C205.064 31.4613 205.373 31.2373 205.725 31.088C205.469 30.9707 205.261 30.8 205.101 30.576C204.952 30.352 204.877 30.096 204.877 29.808C204.877 29.4133 205.021 29.0933 205.309 28.848C205.597 28.6027 205.933 28.4427 206.317 28.368C205.944 28.1227 205.65 27.8133 205.437 27.44C205.234 27.0667 205.133 26.6453 205.133 26.176C205.133 25.6107 205.266 25.1253 205.533 24.72C205.8 24.304 206.194 23.9787 206.717 23.744C207.25 23.5093 207.896 23.392 208.653 23.392C208.984 23.392 209.293 23.4187 209.581 23.472C209.88 23.5147 210.146 23.5787 210.381 23.664C210.754 23.472 211.021 23.2427 211.181 22.976C211.341 22.6987 211.437 22.4427 211.469 22.208H213.101C213.101 22.56 213.026 22.88 212.877 23.168C212.738 23.4453 212.541 23.68 212.285 23.872C212.04 24.0533 211.741 24.1813 211.389 24.256C211.656 24.5013 211.853 24.7893 211.981 25.12C212.12 25.44 212.189 25.792 212.189 26.176C212.189 26.7307 212.061 27.216 211.805 27.632C211.549 28.048 211.16 28.3733 210.637 28.608C210.125 28.8427 209.49 28.96 208.733 28.96H207.421C207.165 28.96 206.957 29.0133 206.797 29.12C206.648 29.2267 206.573 29.3867 206.573 29.6C206.573 29.7813 206.648 29.9307 206.797 30.048C206.946 30.1653 207.144 30.224 207.389 30.224H210.941C211.56 30.224 212.072 30.432 212.477 30.848C212.882 31.2533 213.085 31.776 213.085 32.416C213.085 32.8853 212.962 33.3067 212.717 33.68C212.482 34.064 212.146 34.3627 211.709 34.576C211.282 34.8 210.786 34.912 210.221 34.912H206.605ZM207.149 33.68H210.205C210.429 33.68 210.632 33.6373 210.813 33.552C210.994 33.4667 211.138 33.344 211.245 33.184C211.352 33.0347 211.405 32.864 211.405 32.672C211.405 32.352 211.304 32.1013 211.101 31.92C210.909 31.7387 210.669 31.648 210.381 31.648H207.149C206.85 31.648 206.6 31.7493 206.397 31.952C206.194 32.144 206.093 32.384 206.093 32.672C206.093 32.9707 206.189 33.2107 206.381 33.392C206.584 33.584 206.84 33.68 207.149 33.68ZM208.669 27.76C209.298 27.76 209.768 27.6213 210.077 27.344C210.386 27.056 210.541 26.6667 210.541 26.176C210.541 25.6747 210.386 25.2907 210.077 25.024C209.768 24.7467 209.298 24.608 208.669 24.608C208.04 24.608 207.57 24.7467 207.261 25.024C206.952 25.2907 206.797 25.6747 206.797 26.176C206.797 26.496 206.861 26.7787 206.989 27.024C207.128 27.2587 207.336 27.44 207.613 27.568C207.901 27.696 208.253 27.76 208.669 27.76ZM217.857 32.192C216.993 32.192 216.268 32.0373 215.681 31.728C215.105 31.408 214.668 30.9227 214.369 30.272C214.07 29.6213 213.921 28.7947 213.921 27.792C213.921 26.7787 214.07 25.952 214.369 25.312C214.668 24.6613 215.11 24.1813 215.697 23.872C216.284 23.552 217.014 23.392 217.889 23.392C218.689 23.392 219.356 23.5467 219.889 23.856C220.433 24.1547 220.844 24.6133 221.121 25.232C221.398 25.8507 221.537 26.6293 221.537 27.568V28.208H215.633C215.654 28.8053 215.745 29.3067 215.905 29.712C216.065 30.1067 216.305 30.4 216.625 30.592C216.956 30.7733 217.372 30.864 217.873 30.864C218.182 30.864 218.46 30.8267 218.705 30.752C218.95 30.6667 219.158 30.5493 219.329 30.4C219.5 30.24 219.633 30.0533 219.729 29.84C219.825 29.616 219.873 29.3653 219.873 29.088H221.505C221.505 29.5893 221.42 30.032 221.249 30.416C221.078 30.8 220.828 31.1253 220.497 31.392C220.177 31.648 219.793 31.8453 219.345 31.984C218.897 32.1227 218.401 32.192 217.857 32.192ZM215.665 26.992H219.793C219.793 26.576 219.745 26.2293 219.649 25.952C219.564 25.664 219.436 25.4293 219.265 25.248C219.094 25.0667 218.892 24.9387 218.657 24.864C218.422 24.7787 218.156 24.736 217.857 24.736C217.409 24.736 217.025 24.816 216.705 24.976C216.396 25.136 216.156 25.3867 215.985 25.728C215.814 26.0587 215.708 26.48 215.665 26.992ZM223.228 32V23.584H224.604L224.748 24.784H224.86C225.052 24.4747 225.271 24.2187 225.516 24.016C225.772 23.8133 226.055 23.6587 226.364 23.552C226.684 23.4453 227.026 23.392 227.388 23.392C227.911 23.392 228.364 23.4987 228.748 23.712C229.143 23.9253 229.442 24.2827 229.644 24.784H229.756C229.948 24.4853 230.172 24.2347 230.428 24.032C230.684 23.8187 230.972 23.6587 231.292 23.552C231.623 23.4453 231.975 23.392 232.348 23.392C232.85 23.392 233.292 23.4827 233.676 23.664C234.06 23.8347 234.364 24.128 234.588 24.544C234.812 24.9493 234.924 25.4933 234.924 26.176V32H233.26V26.48C233.26 26.16 233.223 25.8987 233.148 25.696C233.074 25.4827 232.972 25.3173 232.844 25.2C232.716 25.072 232.562 24.9813 232.38 24.928C232.199 24.8747 232.002 24.848 231.788 24.848C231.436 24.848 231.122 24.944 230.844 25.136C230.567 25.3173 230.343 25.5733 230.172 25.904C230.002 26.2347 229.916 26.624 229.916 27.072V32H228.252V26.48C228.252 26.16 228.215 25.8987 228.14 25.696C228.066 25.4827 227.964 25.3173 227.836 25.2C227.708 25.072 227.554 24.9813 227.372 24.928C227.191 24.8747 226.999 24.848 226.796 24.848C226.444 24.848 226.124 24.944 225.836 25.136C225.548 25.3173 225.319 25.5733 225.148 25.904C224.978 26.2347 224.892 26.624 224.892 27.072V32H223.228ZM240.482 32.192C239.618 32.192 238.893 32.0373 238.306 31.728C237.73 31.408 237.293 30.9227 236.994 30.272C236.695 29.6213 236.546 28.7947 236.546 27.792C236.546 26.7787 236.695 25.952 236.994 25.312C237.293 24.6613 237.735 24.1813 238.322 23.872C238.909 23.552 239.639 23.392 240.514 23.392C241.314 23.392 241.981 23.5467 242.514 23.856C243.058 24.1547 243.469 24.6133 243.746 25.232C244.023 25.8507 244.162 26.6293 244.162 27.568V28.208H238.258C238.279 28.8053 238.37 29.3067 238.53 29.712C238.69 30.1067 238.93 30.4 239.25 30.592C239.581 30.7733 239.997 30.864 240.498 30.864C240.807 30.864 241.085 30.8267 241.33 30.752C241.575 30.6667 241.783 30.5493 241.954 30.4C242.125 30.24 242.258 30.0533 242.354 29.84C242.45 29.616 242.498 29.3653 242.498 29.088H244.13C244.13 29.5893 244.045 30.032 243.874 30.416C243.703 30.8 243.453 31.1253 243.122 31.392C242.802 31.648 242.418 31.8453 241.97 31.984C241.522 32.1227 241.026 32.192 240.482 32.192ZM238.29 26.992H242.418C242.418 26.576 242.37 26.2293 242.274 25.952C242.189 25.664 242.061 25.4293 241.89 25.248C241.719 25.0667 241.517 24.9387 241.282 24.864C241.047 24.7787 240.781 24.736 240.482 24.736C240.034 24.736 239.65 24.816 239.33 24.976C239.021 25.136 238.781 25.3867 238.61 25.728C238.439 26.0587 238.333 26.48 238.29 26.992ZM245.853 32V23.584H247.229L247.373 24.784H247.485C247.688 24.4747 247.928 24.2187 248.205 24.016C248.483 23.8133 248.787 23.6587 249.117 23.552C249.459 23.4453 249.832 23.392 250.237 23.392C250.771 23.392 251.24 23.488 251.645 23.68C252.051 23.8613 252.365 24.16 252.589 24.576C252.824 24.992 252.941 25.552 252.941 26.256V32H251.277V26.512C251.277 26.192 251.235 25.9253 251.149 25.712C251.075 25.4987 250.963 25.328 250.813 25.2C250.664 25.072 250.488 24.9813 250.285 24.928C250.083 24.8747 249.859 24.848 249.613 24.848C249.229 24.848 248.877 24.944 248.557 25.136C248.248 25.3173 247.997 25.5733 247.805 25.904C247.613 26.2347 247.517 26.624 247.517 27.072V32H245.853ZM257.121 32.192C256.641 32.192 256.262 32.1013 255.985 31.92C255.718 31.728 255.526 31.488 255.409 31.2C255.302 30.9013 255.249 30.5867 255.249 30.256V24.96H254.193V23.584H255.281L255.585 21.232H256.913V23.584H258.433V24.96H256.913V30.064C256.913 30.3093 256.966 30.496 257.073 30.624C257.18 30.752 257.356 30.816 257.601 30.816H258.433V31.936C258.326 31.9787 258.193 32.016 258.033 32.048C257.884 32.0907 257.729 32.1227 257.569 32.144C257.409 32.176 257.26 32.192 257.121 32.192Z" fill="#9F9F9F"/>
</svg>
