<svg width="68" height="68" viewBox="0 0 68 68" fill="none" xmlns="http://www.w3.org/2000/svg">
<circle opacity="0.5" cx="34" cy="34" r="34" fill="white"/>
<circle cx="34" cy="34" r="25" fill="white"/>
<path d="M44.3552 43.7107H43.6677V30.9922C43.6677 30.6362 43.3791 30.3477 43.0231 30.3477H40.4451C40.0891 30.3477 39.8005 30.6362 39.8005 30.9922V43.7107H38.5115V35.289C38.5115 34.933 38.2229 34.6445 37.867 34.6445H35.2889C34.9329 34.6445 34.6444 34.933 34.6444 35.289V43.7107H33.3553V37.6522C33.3553 37.2963 33.0667 37.0077 32.7108 37.0077H30.1327C29.7768 37.0077 29.4882 37.2963 29.4882 37.6522V43.7107H28.1991V39.1991C28.1991 38.8431 27.9106 38.5546 27.5546 38.5546H24.9765C24.6206 38.5546 24.332 38.8431 24.332 39.1991V43.7107H23.6445C23.2886 43.7107 23 43.9993 23 44.3553C23 44.7112 23.2886 44.9998 23.6445 44.9998H44.3552C44.7111 44.9998 44.9997 44.7112 44.9997 44.3553C44.9997 43.9993 44.7111 43.7107 44.3552 43.7107Z" fill="url(#paint0_linear_133_2528)"/>
<path d="M23.6445 36.8489C27.6671 36.8489 32.0293 35.4043 35.9276 32.781C38.9807 30.7265 41.5258 28.1019 43.1067 25.4143L43.7326 27.7504C43.8098 28.0384 44.1824 28.2871 44.522 28.2061C44.8682 28.1235 45.0698 27.7606 44.9777 27.4167L43.9223 23.4779C43.8301 23.1341 43.4769 22.93 43.1329 23.0221L39.194 24.0776C38.8502 24.1697 38.6462 24.5231 38.7383 24.8669C38.8305 25.2108 39.1837 25.4149 39.5277 25.3226L42.0652 24.6427C40.5903 27.2056 38.1528 29.7299 35.208 31.7115C31.5201 34.1932 27.4135 35.5599 23.6445 35.5599C23.2886 35.5599 23 35.8485 23 36.2044C23 36.5604 23.2886 36.8489 23.6445 36.8489Z" fill="url(#paint1_linear_133_2528)"/>
<defs>
<linearGradient id="paint0_linear_133_2528" x1="41.2452" y1="52.8791" x2="17.6264" y2="41.6249" gradientUnits="userSpaceOnUse">
<stop stop-color="#FA781A"/>
<stop offset="1" stop-color="#FAA41A"/>
</linearGradient>
<linearGradient id="paint1_linear_133_2528" x1="41.2455" y1="44.2964" x2="18.1369" y2="32.6464" gradientUnits="userSpaceOnUse">
<stop stop-color="#FA781A"/>
<stop offset="1" stop-color="#FAA41A"/>
</linearGradient>
</defs>
</svg>
