<svg width="49" height="49" viewBox="0 0 49 49" fill="none" xmlns="http://www.w3.org/2000/svg">
<rect x="0.5" y="0.5" width="48" height="48" rx="7.5" fill="#E1FFFA" stroke="#91F2E2"/>
<path d="M34.364 18.713L25.1647 9.08449C24.9912 8.90283 24.7508 8.80005 24.4996 8.80005C24.2483 8.80005 24.008 8.90283 23.8344 9.08449L14.6352 18.713C14.3808 18.9793 14.3097 19.3716 14.4545 19.7102C14.5993 20.0488 14.9321 20.2684 15.3004 20.2684H17.8062L16.8336 24.2199V27.3211H19.751C19.4537 26.666 19.2867 25.9397 19.2867 25.1747C19.2867 22.3003 21.6252 19.9618 24.4996 19.9618C27.374 19.9618 29.7125 22.3003 29.7125 25.1747C29.7125 25.9397 29.5455 26.666 29.2481 27.3211H32.1656V24.2199L31.1929 20.2684H33.6988C34.0671 20.2684 34.3998 20.0488 34.5446 19.7102C34.6894 19.3715 34.6183 18.9792 34.364 18.713Z" fill="#7BF2DE"/>
<path d="M24.4995 28.5479C26.3624 28.5479 27.8726 27.0377 27.8726 25.1748C27.8726 23.3119 26.3624 21.8018 24.4995 21.8018C22.6366 21.8018 21.1265 23.3119 21.1265 25.1748C21.1265 27.0377 22.6366 28.5479 24.4995 28.5479Z" fill="#7BF2DE"/>
<path d="M35.79 22.477C34.7893 22.5066 34.0059 23.354 34.0059 24.3551V27.321C34.0059 28.3372 33.1822 29.1609 32.166 29.1609H27.854C26.9467 29.9254 25.7765 30.3874 24.5 30.3874C23.2235 30.3874 22.0533 29.9254 21.146 29.1609H16.834C15.8178 29.1609 14.9941 28.3372 14.9941 27.321V24.3159C14.9941 23.2829 14.1384 22.4461 13.0986 22.4769C12.0979 22.5066 11.3145 23.354 11.3145 24.3551V27.2597C11.3145 30.3419 13.8131 32.8406 16.8953 32.8406H18.9805V40.1999H30.0195V32.8406H32.1047C35.1869 32.8406 37.6855 30.3419 37.6855 27.2597V24.3159C37.6855 23.2829 36.8298 22.4461 35.79 22.477Z" fill="#7BF2DE"/>
<path d="M31.8604 34.6805V40.2H34.9268C35.2094 40.2 35.4764 40.07 35.6509 39.8475C35.8252 39.625 35.8876 39.3347 35.8201 39.0602L34.6328 34.2371C33.8436 34.5238 32.9927 34.6805 32.1057 34.6805H31.8604Z" fill="#7BF2DE"/>
<path d="M16.8963 34.6804C16.0094 34.6804 15.1584 34.5238 14.3692 34.2371L13.1819 39.0602C13.1144 39.3347 13.1768 39.625 13.3512 39.8475C13.5256 40.07 13.7926 40.1999 14.0753 40.1999H17.1417V34.6804H16.8963Z" fill="#7BF2DE"/>
</svg>
