<svg width="82" height="82" viewBox="0 0 82 82" fill="none" xmlns="http://www.w3.org/2000/svg">
<path d="M41 82C32.891 82 24.9641 79.5954 18.2216 75.0903C11.4792 70.5851 6.22415 64.1818 3.12096 56.69C0.0177646 49.1983 -0.794172 40.9545 0.787822 33.0013C2.36982 25.0481 6.27469 17.7426 12.0086 12.0086C17.7426 6.27469 25.0481 2.36982 33.0013 0.787822C40.9545 -0.794172 49.1983 0.0177646 56.69 3.12096C64.1818 6.22415 70.5851 11.4792 75.0903 18.2216C79.5954 24.9641 82 32.891 82 41C82 51.8739 77.6804 62.3024 69.9914 69.9914C62.3024 77.6804 51.8739 82 41 82Z" fill="white"/>
<path d="M41 40C42.6569 40 44 38.6569 44 37C44 35.3431 42.6569 34 41 34C39.3431 34 38 35.3431 38 37C38 38.6569 39.3431 40 41 40Z" fill="#BBB9FA"/>
<path d="M36 45V46H46V45C46 42.2431 43.7578 40 41 40C38.2422 40 36 42.2431 36 45Z" fill="#BBB9FA"/>
<path d="M42.1733 21.0875L42.1725 30.4898C42.6545 30.6488 45.7252 30.8089 48.4585 33.5422C51.1797 36.2634 51.3499 39.3404 51.5108 39.8282L60.9131 39.8274C60.653 38.8786 61.1163 32.8312 55.1428 26.8578C49.5922 21.3071 42.6493 21.218 42.1733 21.0875Z" fill="#BBB9FA"/>
<path d="M26.8581 26.8578C23.2722 30.4436 21.4185 35.1242 21.1436 39.8282H30.5702C30.8255 37.5315 31.785 35.2996 33.5424 33.5421C36.2807 30.8039 39.3371 30.652 39.8284 30.4898L39.8284 21.0867C38.8815 21.3463 32.8434 20.8724 26.8581 26.8578Z" fill="#BBB9FA"/>
<path d="M26.8579 55.1424C30.444 58.7284 35.1244 60.5818 39.8283 60.8566L39.8283 51.4302C37.5317 51.1749 35.2997 50.2154 33.5423 48.458C31.7849 46.7006 30.8254 44.4686 30.5701 42.172H21.1437C21.4185 46.8759 23.2719 51.5563 26.8579 55.1424Z" fill="#BBB9FA"/>
<path d="M51.5106 42.1715C51.3549 42.6433 51.1821 45.7337 48.4583 48.4575C46.7009 50.215 44.4689 51.1745 42.1723 51.4298L42.1723 60.8564C46.8763 60.5814 51.5568 58.7278 55.1427 55.1419C60.7045 49.5801 60.7835 42.6467 60.9138 42.1715L51.5106 42.1715Z" fill="#BBB9FA"/>
</svg>
