<svg width="82" height="83" viewBox="0 0 82 83" fill="none" xmlns="http://www.w3.org/2000/svg">
<path d="M41 82.5C32.891 82.5 24.9641 80.0954 18.2216 75.5903C11.4792 71.0851 6.22415 64.6818 3.12096 57.19C0.0177646 49.6983 -0.794172 41.4545 0.787822 33.5013C2.36982 25.5481 6.27469 18.2426 12.0086 12.5086C17.7426 6.77469 25.0481 2.86982 33.0013 1.28782C40.9545 -0.294172 49.1983 0.517765 56.69 3.62096C64.1818 6.72415 70.5851 11.9792 75.0903 18.7216C79.5954 25.4641 82 33.391 82 41.5C82 52.3739 77.6804 62.8024 69.9914 70.4914C62.3024 78.1804 51.8739 82.5 41 82.5Z" fill="white"/>
<path d="M40.1909 37.7824V41.1904H35.3177C35.1358 41.1898 34.9581 41.2456 34.8092 41.3501C34.6603 41.4546 34.5474 41.6028 34.4862 41.7741C34.4249 41.9454 34.4183 42.1315 34.4672 42.3068C34.5161 42.482 34.6181 42.6378 34.7592 42.7527C35.1459 43.0643 35.4407 43.4753 35.6118 43.9416C35.7829 44.4079 35.8239 44.9119 35.7305 45.3997C35.6228 45.9422 35.3571 46.4407 34.9667 46.8325C34.5764 47.2243 34.0789 47.4918 33.5368 47.6016C33.1233 47.6978 32.6935 47.7005 32.2788 47.6095C31.8642 47.5184 31.4751 47.3359 31.1399 47.0752C30.8048 46.8146 30.5321 46.4824 30.3418 46.1029C30.1515 45.7234 30.0483 45.3061 30.0398 44.8817C30.0395 44.4727 30.1301 44.0688 30.3051 43.6992C30.4801 43.3296 30.7351 43.0035 31.0517 42.7446C31.1911 42.6289 31.2913 42.473 31.3387 42.2981C31.386 42.1232 31.3781 41.938 31.316 41.7678C31.254 41.5976 31.1408 41.4508 30.992 41.3474C30.8433 41.244 30.6662 41.1892 30.485 41.1904H24.001V37.1429C24.0049 33.9237 25.2854 30.8375 27.5617 28.5612C29.838 26.2849 32.9242 25.0044 36.1434 25.0005H40.1909V30.2055C39.2821 29.7262 38.2386 29.5665 37.2281 29.7522C36.1326 29.9384 35.1481 30.532 34.4719 31.4138C33.7958 32.2956 33.4781 33.4005 33.5826 34.5068C33.6871 35.613 34.206 36.6389 35.0353 37.3785C35.8645 38.1182 36.9428 38.5169 38.0538 38.4948C38.8142 38.4384 39.5487 38.1936 40.1909 37.7824Z" fill="#91F2E2"/>
<path d="M36.8719 42.8096H40.1909V47.6261C40.2041 47.7998 40.2686 47.9656 40.3763 48.1026C40.484 48.2395 40.63 48.3414 40.7957 48.3952C40.9614 48.449 41.1394 48.4523 41.307 48.4047C41.4746 48.3571 41.6243 48.2608 41.737 48.1279C42.0122 47.8124 42.3518 47.5595 42.7331 47.3863C43.1143 47.2132 43.5282 47.1238 43.9469 47.1242C44.6527 47.1023 45.3405 47.3495 45.8709 47.8157C46.4013 48.2819 46.7347 48.9322 46.8037 49.635C46.8726 50.3377 46.6719 51.0405 46.2422 51.6008C45.8125 52.1612 45.1859 52.5373 44.4893 52.653C43.989 52.75 43.472 52.7135 42.9902 52.5473C42.5085 52.381 42.0791 52.0908 41.7451 51.7059C41.6289 51.5676 41.4729 51.4685 41.2984 51.4219C41.124 51.3752 40.9393 51.3834 40.7696 51.4453C40.6 51.5071 40.4534 51.6197 40.3499 51.7677C40.2463 51.9157 40.1908 52.0919 40.1909 52.2726V58.9995H36.1434C32.9242 58.9955 29.838 57.715 27.5617 55.4387C25.2854 53.1624 24.0049 50.0762 24.001 46.857V42.8096H28.9389C28.5965 43.4465 28.4184 44.1588 28.4208 44.8819C28.4295 45.5464 28.5862 46.2006 28.8794 46.7969C29.1727 47.3932 29.5953 47.9166 30.1163 48.3291C30.6373 48.7416 31.2438 49.0328 31.8915 49.1814C32.5392 49.33 33.2119 49.3324 33.8606 49.1884C34.7172 49.0138 35.5028 48.5892 36.1181 47.9682C36.7333 47.3472 37.1506 46.5576 37.3172 45.6995C37.5091 44.7137 37.3516 43.6919 36.8719 42.8096Z" fill="#91F2E2"/>
<path d="M58.0004 42.8095V46.857C57.9965 50.0761 56.716 53.1623 54.4397 55.4386C52.1634 57.7149 49.0772 58.9954 45.858 58.9994H41.8105V53.7943C42.7193 54.2737 43.7628 54.4333 44.7733 54.2476C45.8688 54.0614 46.8533 53.4679 47.5295 52.5861C48.2056 51.7042 48.5233 50.5994 48.4188 49.4931C48.3143 48.3868 47.7954 47.361 46.9661 46.6213C46.1369 45.8817 45.0586 45.4829 43.9476 45.5051C43.202 45.5033 42.4676 45.6869 41.8105 46.0394V42.8095H46.6837C46.8648 42.8104 47.0418 42.7552 47.1902 42.6514C47.3386 42.5476 47.4512 42.4003 47.5125 42.2299C47.5737 42.0594 47.5806 41.8742 47.5322 41.6996C47.4838 41.5251 47.3825 41.3698 47.2423 41.2553C46.9246 40.9968 46.6684 40.671 46.492 40.3014C46.3156 39.9318 46.2235 39.5277 46.2223 39.1182C46.2323 38.6935 46.3368 38.2764 46.5282 37.8971C46.7195 37.5178 46.993 37.1859 47.3286 36.9254C47.6642 36.665 48.0536 36.4826 48.4686 36.3914C48.8835 36.3002 49.3135 36.3026 49.7274 36.3983C50.2695 36.508 50.7669 36.7756 51.1573 37.1674C51.5476 37.5592 51.8134 38.0577 51.9211 38.6001C52.0145 39.088 51.9735 39.592 51.8023 40.0583C51.6312 40.5246 51.3365 40.9355 50.9497 41.2472C50.809 41.3622 50.7072 41.518 50.6585 41.6931C50.6098 41.8683 50.6165 42.0542 50.6777 42.2254C50.7389 42.3966 50.8516 42.5447 51.0003 42.6492C51.149 42.7538 51.3265 42.8098 51.5083 42.8095H58.0004Z" fill="#91F2E2"/>
<path d="M53.0622 41.1904C53.5381 40.3068 53.6953 39.2863 53.5074 38.3005C53.3409 37.4423 52.9236 36.6528 52.3084 36.0317C51.6931 35.4107 50.9075 34.9861 50.0509 34.8116C49.4018 34.668 48.7288 34.6707 48.0808 34.8194C47.4329 34.9681 46.8261 35.2592 46.3046 35.6715C45.783 36.0837 45.3597 36.6069 45.0654 37.203C44.7711 37.7992 44.6132 38.4533 44.603 39.1181C44.6034 39.8418 44.7843 40.5541 45.1292 41.1904H41.8102V36.3982C41.811 36.2326 41.7652 36.0701 41.6781 35.9292C41.591 35.7883 41.4662 35.6747 41.3177 35.6014C41.1692 35.528 41.0032 35.4977 40.8384 35.5141C40.6736 35.5305 40.5167 35.5928 40.3855 35.6939C39.7266 36.2871 38.9222 36.695 38.0542 36.8758C37.631 36.8825 37.2118 36.7937 36.8277 36.6162C36.4435 36.4386 36.1043 36.1768 35.8352 35.8502C35.5661 35.5235 35.3741 35.1405 35.2734 34.7294C35.1726 34.3184 35.1658 33.8899 35.2533 33.4759C35.3763 32.9371 35.6567 32.4471 36.0589 32.068C36.461 31.6889 36.9667 31.4379 37.5118 31.3469C38.0121 31.2513 38.5287 31.2884 39.0102 31.4546C39.4917 31.6208 39.9212 31.9102 40.256 32.294C40.373 32.4321 40.5296 32.5309 40.7047 32.5769C40.8797 32.6229 41.0647 32.6139 41.2345 32.5511C41.4042 32.4884 41.5506 32.3748 41.6536 32.226C41.7566 32.0772 41.8113 31.9003 41.8102 31.7193V25.0005H45.8577C49.0769 25.0044 52.1631 26.2849 54.4394 28.5612C56.7157 30.8375 57.9962 33.9237 58.0001 37.1429V41.1904H53.0622Z" fill="#91F2E2"/>
</svg>
