<svg width="284" height="175" viewBox="0 0 284 175" fill="none" xmlns="http://www.w3.org/2000/svg">
<path d="M262.533 166.967C262.454 166.833 262.366 166.709 262.274 166.587C263.39 165.494 264.318 164.255 265.044 162.917C265.185 162.973 265.329 163.022 265.48 163.062C267.5 163.586 269.562 162.374 270.085 160.354C270.608 158.334 269.396 156.271 267.376 155.747C267.225 155.708 267.075 155.681 266.925 155.662C266.941 154.14 266.732 152.605 266.288 151.107C266.427 151.046 266.565 150.98 266.698 150.901C268.497 149.844 269.097 147.527 268.039 145.729C266.981 143.93 264.665 143.329 262.867 144.386C262.733 144.465 262.608 144.553 262.488 144.645C261.394 143.528 260.155 142.599 258.817 141.874C258.872 141.732 258.923 141.588 258.961 141.437C259.485 139.418 258.272 137.355 256.253 136.83C254.233 136.306 252.171 137.519 251.647 139.538C251.608 139.689 251.582 139.839 251.562 139.99C250.04 139.973 248.506 140.181 247.008 140.626C246.947 140.486 246.881 140.349 246.802 140.215C245.744 138.417 243.429 137.815 241.63 138.873C239.832 139.93 239.231 142.246 240.289 144.045C240.368 144.179 240.456 144.304 240.548 144.425C239.432 145.518 238.504 146.758 237.779 148.095C237.637 148.039 237.493 147.99 237.343 147.95C235.323 147.426 233.261 148.639 232.737 150.658C232.214 152.678 233.427 154.741 235.446 155.265C235.597 155.304 235.748 155.331 235.898 155.351C235.882 156.872 236.09 158.407 236.535 159.906C236.395 159.966 236.258 160.033 236.124 160.111C234.326 161.168 233.725 163.485 234.784 165.283C235.842 167.082 238.157 167.683 239.956 166.626C240.089 166.547 240.215 166.459 240.335 166.367C241.428 167.484 242.667 168.413 244.005 169.139C243.95 169.28 243.9 169.424 243.861 169.575C243.338 171.594 244.55 173.658 246.57 174.182C248.59 174.706 250.652 173.493 251.175 171.474C251.214 171.323 251.241 171.173 251.261 171.023C252.782 171.04 254.316 170.831 255.814 170.386C255.875 170.526 255.942 170.663 256.02 170.797C257.078 172.596 259.394 173.197 261.192 172.14C262.991 171.082 263.591 168.766 262.533 166.967ZM245.364 159.062C243.399 155.72 244.514 151.421 247.854 149.457C251.193 147.493 255.494 148.609 257.459 151.951C259.423 155.292 258.308 159.592 254.969 161.555C251.629 163.519 247.329 162.403 245.364 159.062Z" fill="#91F2E2"/>
<path d="M276.605 135.284C276.572 135.183 276.534 135.088 276.491 134.995C277.391 134.441 278.189 133.762 278.868 132.987C278.952 133.045 279.04 133.1 279.133 133.149C280.387 133.797 281.929 133.306 282.577 132.052C283.225 130.797 282.733 129.255 281.48 128.607C281.386 128.559 281.291 128.519 281.195 128.483C281.434 127.482 281.526 126.438 281.456 125.382C281.557 125.363 281.658 125.34 281.758 125.307C283.102 124.879 283.846 123.441 283.417 122.096C282.989 120.751 281.551 120.007 280.207 120.436C280.106 120.468 280.01 120.507 279.917 120.55C279.364 119.649 278.685 118.85 277.911 118.172C277.969 118.087 278.024 117.999 278.071 117.905C278.719 116.651 278.228 115.109 276.974 114.461C275.72 113.812 274.178 114.303 273.531 115.558C273.482 115.651 273.443 115.746 273.407 115.843C272.405 115.604 271.361 115.512 270.307 115.58C270.288 115.48 270.264 115.378 270.232 115.279C269.804 113.933 268.366 113.19 267.022 113.619C265.677 114.047 264.934 115.485 265.362 116.83C265.395 116.93 265.434 117.026 265.476 117.119C264.576 117.673 263.778 118.352 263.099 119.125C263.015 119.068 262.927 119.013 262.833 118.964C261.578 118.316 260.037 118.807 259.389 120.061C258.741 121.316 259.233 122.857 260.486 123.506C260.58 123.554 260.675 123.594 260.771 123.63C260.533 124.631 260.441 125.675 260.51 126.731C260.409 126.75 260.308 126.773 260.208 126.805C258.864 127.234 258.12 128.671 258.549 130.017C258.978 131.362 260.415 132.106 261.759 131.677C261.86 131.645 261.956 131.606 262.049 131.563C262.602 132.464 263.281 133.262 264.055 133.941C263.997 134.026 263.942 134.114 263.895 134.208C263.247 135.462 263.738 137.004 264.992 137.652C266.246 138.301 267.788 137.81 268.435 136.555C268.484 136.461 268.524 136.367 268.56 136.27C269.561 136.509 270.605 136.601 271.659 136.533C271.678 136.633 271.702 136.735 271.734 136.834C272.163 138.179 273.6 138.923 274.944 138.494C276.289 138.066 277.032 136.628 276.604 135.283L276.605 135.284ZM266.461 127.497C265.666 124.998 267.045 122.328 269.543 121.533C272.04 120.737 274.71 122.118 275.506 124.616C276.301 127.115 274.922 129.785 272.424 130.58C269.927 131.376 267.257 129.995 266.461 127.497Z" fill="#91F2E2"/>
<path d="M220.891 146.31H225.714C228.133 146.31 230.094 148.271 230.094 150.69C230.094 153.108 228.133 155.069 225.714 155.069H135.506C133.088 155.069 131.127 153.108 131.127 150.69C131.127 148.271 133.088 146.31 135.506 146.31H220.891Z" fill="white"/>
<path d="M225.714 155.279H135.506C132.976 155.279 130.918 153.22 130.918 150.691C130.918 148.161 132.977 146.103 135.506 146.103H139.945C140.06 146.103 140.153 146.195 140.153 146.311C140.153 146.427 140.059 146.52 139.945 146.52H135.506C133.206 146.52 131.335 148.39 131.335 150.691C131.335 152.991 133.207 154.862 135.506 154.862H225.714C228.015 154.862 229.885 152.991 229.885 150.691C229.885 148.39 228.014 146.52 225.714 146.52H220.89C220.774 146.52 220.682 146.427 220.682 146.311C220.682 146.195 220.775 146.103 220.89 146.103H225.714C228.245 146.103 230.302 148.161 230.302 150.691C230.302 153.22 228.244 155.279 225.714 155.279Z" fill="black"/>
<path d="M224.485 128.801H136.736V146.321H224.485V128.801Z" fill="white"/>
<path d="M224.485 146.529H136.736C136.621 146.529 136.528 146.436 136.528 146.321V128.801C136.528 128.685 136.621 128.592 136.736 128.592C136.851 128.592 136.945 128.685 136.945 128.801V146.112H224.276V128.801C224.276 128.685 224.37 128.592 224.485 128.592C224.599 128.592 224.693 128.685 224.693 128.801V146.321C224.693 146.436 224.599 146.529 224.485 146.529Z" fill="black"/>
<path d="M269.578 119.529L91.7152 119.2L90.1802 120.915V123.031C90.1802 126.217 92.7573 128.801 95.9364 128.801H265.286C268.465 128.801 271.042 126.217 271.042 123.031V120.915L269.578 119.529Z" fill="white"/>
<path d="M265.285 129.009H95.9363C92.6471 129.009 89.9714 126.327 89.9714 123.03V120.915C89.9714 120.864 89.9904 120.815 90.0245 120.776L91.5596 119.06C91.5994 119.016 91.6554 118.991 91.7151 118.991L269.578 119.32C269.631 119.32 269.682 119.341 269.721 119.377L271.185 120.763C271.227 120.802 271.25 120.857 271.25 120.915V123.03C271.25 126.327 268.575 129.009 265.285 129.009ZM90.3886 120.995V123.029C90.3886 126.097 92.8775 128.591 95.9363 128.591H265.285C268.344 128.591 270.833 126.096 270.833 123.029V121.004L269.495 119.736L91.809 119.408L90.3896 120.995H90.3886Z" fill="black"/>
<path d="M95.4462 12.7706H265.776C268.682 12.7706 271.042 15.1306 271.042 18.0367V120.915H90.1802V18.0367C90.1802 15.1306 92.5401 12.7706 95.4462 12.7706Z" fill="white"/>
<path d="M271.042 121.124H90.18C90.0644 121.124 89.9714 121.031 89.9714 120.915V18.0369C89.9714 15.018 92.4271 12.5623 95.4461 12.5623H265.776C268.795 12.5623 271.25 15.018 271.25 18.0369V120.915C271.25 121.031 271.156 121.124 271.042 121.124ZM90.3886 120.706H270.832V18.0369C270.832 15.2484 268.563 12.9794 265.775 12.9794H95.4461C92.6575 12.9794 90.3886 15.2484 90.3886 18.0369V120.706Z" fill="black"/>
<path d="M96.3573 49.7384C96.2416 49.7384 96.1487 49.6455 96.1487 49.5298V19.4905C96.1487 19.0847 96.4786 18.7548 96.8844 18.7548H183.662C183.778 18.7548 183.871 18.8477 183.871 18.9634C183.871 19.079 183.777 19.1719 183.662 19.1719H96.8844C96.709 19.1719 96.5659 19.3142 96.5659 19.4905V49.5298C96.5659 49.6455 96.472 49.7384 96.3573 49.7384Z" fill="black"/>
<path d="M264.864 114.931H127.329C127.213 114.931 127.12 114.838 127.12 114.723C127.12 114.607 127.214 114.514 127.329 114.514H264.655V19.4905C264.655 19.3151 264.512 19.1719 264.337 19.1719H238.662C238.546 19.1719 238.453 19.079 238.453 18.9634C238.453 18.8477 238.547 18.7548 238.662 18.7548H264.337C264.742 18.7548 265.072 19.0847 265.072 19.4905V114.722C265.072 114.838 264.978 114.93 264.864 114.93V114.931Z" fill="black"/>
<path d="M131.017 66.305C141.939 66.305 150.792 57.4622 150.792 46.554C150.792 35.6459 141.939 26.8031 131.017 26.8031C120.095 26.8031 111.241 35.6459 111.241 46.554C111.241 57.4622 120.095 66.305 131.017 66.305Z" fill="#91F2E2"/>
<mask id="mask0_127_403" style="mask-type:luminance" maskUnits="userSpaceOnUse" x="112" y="30" width="23" height="24">
<path d="M131.105 49.773C135.457 45.4204 135.457 38.3635 131.105 34.0109C126.752 29.6583 119.695 29.6583 115.342 34.0109C110.99 38.3635 110.99 45.4204 115.342 49.773C119.695 54.1256 126.752 54.1256 131.105 49.773Z" fill="white"/>
</mask>
<g mask="url(#mask0_127_403)">
<path d="M123.224 32.394C119.911 32.394 117.167 35.76 116.95 40.0883L116.257 53.9417H130.19L129.497 40.0883C129.281 35.76 126.536 32.3931 123.223 32.3931L123.224 32.394Z" fill="white"/>
<path d="M130.191 54.1501H116.258C116.201 54.1501 116.146 54.1264 116.107 54.0857C116.068 54.0449 116.047 53.988 116.05 53.9311L116.743 40.0777C116.965 35.6517 119.811 32.1843 123.225 32.1843C126.638 32.1843 129.485 35.6517 129.706 40.0777L130.399 53.9311C130.402 53.988 130.381 54.0439 130.342 54.0857C130.304 54.1274 130.249 54.1501 130.192 54.1501H130.191ZM116.477 53.733H129.972L129.29 40.0985C129.08 35.8954 126.415 32.6025 123.225 32.6025C120.034 32.6025 117.37 35.8954 117.159 40.0985L116.478 53.733H116.477Z" fill="black"/>
<path d="M133.057 50.6074C132.574 48.9358 131.222 47.6577 129.527 47.2671L125.941 46.4412V41.9128H120.506V46.4412L116.92 47.2671C115.224 47.6577 113.873 48.9358 113.39 50.6074L112.021 57.8342H134.424L133.056 50.6074H133.057Z" fill="white"/>
<path d="M134.425 58.0428H112.023C111.961 58.0428 111.902 58.0153 111.863 57.9669C111.823 57.9186 111.807 57.856 111.819 57.7953L113.187 50.5685C113.695 48.8068 115.107 47.4709 116.874 47.0641L120.298 46.2753V41.9128C120.298 41.7971 120.392 41.7042 120.506 41.7042H125.942C126.058 41.7042 126.151 41.7971 126.151 41.9128V46.2753L129.575 47.0641C131.342 47.4709 132.754 48.8068 133.257 50.5495C133.259 50.5562 133.261 50.5628 133.262 50.5685L134.63 57.7953C134.641 57.856 134.625 57.9195 134.586 57.9669C134.546 58.0153 134.487 58.0428 134.425 58.0428ZM112.275 57.6246H134.173L132.854 50.6548C132.39 49.0619 131.098 47.8426 129.481 47.4699L125.895 46.6441C125.8 46.6223 125.733 46.5379 125.733 46.4412V42.1214H120.714V46.4412C120.714 46.5388 120.647 46.6223 120.552 46.6441L116.966 47.4699C115.346 47.8435 114.052 49.0676 113.59 50.6642L112.273 57.6246H112.275Z" fill="black"/>
<path d="M127.777 38.3868C127.579 38.3375 127.379 38.3565 127.193 38.4276C127.035 35.9121 125.319 34.2064 123.225 34.2064C121.13 34.2064 119.414 35.9121 119.257 38.4276C119.071 38.3565 118.87 38.3375 118.673 38.3868C118.085 38.5328 117.748 39.2136 117.92 39.9067C118.093 40.5998 118.709 41.0435 119.297 40.8975C119.392 40.8738 119.479 40.8349 119.559 40.7866C120.165 42.644 121.578 44.0662 123.225 44.0662C124.872 44.0662 126.285 42.644 126.89 40.7866C126.971 40.8359 127.058 40.8748 127.153 40.8975C127.741 41.0435 128.357 40.5998 128.53 39.9067C128.702 39.2136 128.365 38.5328 127.777 38.3868Z" fill="white"/>
<path d="M123.224 44.2733C121.64 44.2733 120.141 42.9961 119.437 41.0723C119.407 41.0828 119.376 41.0913 119.346 41.0998C119.001 41.1852 118.641 41.1093 118.33 40.8865C118.03 40.6703 117.812 40.3404 117.716 39.9573C117.62 39.5742 117.659 39.1808 117.823 38.8489C117.993 38.5057 118.276 38.2696 118.622 38.1843C118.768 38.1482 118.918 38.1416 119.069 38.1634C119.325 35.7352 121.039 33.9982 123.224 33.9982C125.408 33.9982 127.123 35.7352 127.38 38.1634C127.53 38.1416 127.681 38.1482 127.827 38.1843C128.172 38.2696 128.456 38.5057 128.625 38.8489C128.79 39.1798 128.827 39.5733 128.733 39.9573C128.533 40.7613 127.802 41.2743 127.103 41.0998C127.072 41.0922 127.042 41.0828 127.012 41.0723C126.307 42.9971 124.808 44.2733 123.225 44.2733H123.224ZM119.558 40.5764C119.583 40.5764 119.608 40.5812 119.63 40.5897C119.69 40.6115 119.737 40.6599 119.756 40.7206C120.368 42.596 121.762 43.8561 123.224 43.8561C124.686 43.8561 126.08 42.596 126.691 40.7206C126.711 40.6599 126.758 40.6115 126.817 40.5897C126.877 40.5679 126.943 40.5745 126.998 40.6077C127.065 40.6485 127.134 40.6779 127.203 40.695C127.679 40.8125 128.183 40.4371 128.327 39.8568C128.398 39.5695 128.371 39.2775 128.251 39.0347C128.136 38.8034 127.95 38.6451 127.727 38.5901C127.579 38.5531 127.42 38.5645 127.268 38.6232C127.206 38.647 127.136 38.6403 127.08 38.6043C127.024 38.5683 126.989 38.5076 126.984 38.4412C126.838 36.1088 125.257 34.4163 123.225 34.4163C121.193 34.4163 119.611 36.1088 119.465 38.4412C119.462 38.5076 119.426 38.5673 119.37 38.6033C119.314 38.6394 119.244 38.647 119.182 38.6223C119.029 38.5635 118.871 38.5521 118.723 38.5891C118.499 38.6451 118.312 38.8025 118.199 39.0338C118.078 39.2765 118.052 39.5686 118.123 39.8558C118.194 40.1431 118.355 40.3887 118.574 40.547C118.784 40.6978 119.023 40.75 119.246 40.694C119.317 40.6769 119.383 40.6485 119.451 40.6068C119.484 40.5869 119.521 40.5764 119.559 40.5764H119.558Z" fill="black"/>
<path d="M119.189 39.0585C121.174 38.6849 123.243 36.9176 124.484 35.3247C124.727 36.7384 125.979 38.391 127.29 38.9713C127.29 38.9713 127.915 33.3421 123.224 33.5232C118.532 33.7043 119.189 39.0576 119.189 39.0576V39.0585Z" fill="white"/>
<path d="M119.189 39.2673C119.146 39.2673 119.102 39.2531 119.066 39.2275C119.02 39.1934 118.989 39.1422 118.982 39.0844C118.977 39.0455 118.867 38.1201 119.073 37.0117C119.094 36.8989 119.202 36.8221 119.317 36.8448C119.429 36.8657 119.504 36.9747 119.483 37.0885C119.348 37.8195 119.359 38.4737 119.378 38.8056C121.309 38.3391 123.231 36.5936 124.319 35.1979C124.37 35.1325 124.455 35.104 124.534 35.1239C124.614 35.1438 124.675 35.2093 124.689 35.2908C124.904 36.5414 125.973 38.0044 127.103 38.6444C127.118 38.2623 127.115 37.5692 126.965 36.824C126.942 36.7111 127.016 36.6011 127.128 36.5784C127.241 36.5556 127.351 36.6286 127.374 36.7415C127.613 37.9219 127.503 38.9526 127.498 38.9952C127.491 39.0616 127.453 39.1204 127.395 39.1536C127.337 39.1868 127.267 39.1905 127.206 39.1631C125.976 38.6188 124.783 37.1672 124.378 35.7876C123.164 37.2307 121.194 38.8938 119.227 39.2645C119.214 39.2673 119.202 39.2683 119.189 39.2683L119.189 39.2673Z" fill="black"/>
</g>
<mask id="mask1_127_403" style="mask-type:luminance" maskUnits="userSpaceOnUse" x="127" y="34" width="23" height="24">
<path d="M138.642 57.0044C144.89 57.0044 149.954 51.9609 149.954 45.7395C149.954 39.518 144.89 34.4745 138.642 34.4745C132.394 34.4745 127.33 39.518 127.33 45.7395C127.33 51.9609 132.394 57.0044 138.642 57.0044Z" fill="white"/>
</mask>
<g mask="url(#mask1_127_403)">
<path d="M148.623 54.5473C148.132 52.8577 146.761 51.5663 145.04 51.171L141.4 50.3366V45.7589H135.883V50.3366L132.243 51.171C130.522 51.5654 129.151 52.8577 128.66 54.5473L127.272 61.8519H150.011L148.623 54.5473Z" fill="white"/>
<path d="M150.011 62.0606H127.272C127.209 62.0606 127.15 62.0331 127.111 61.9847C127.071 61.9364 127.055 61.8738 127.066 61.8131L128.455 54.5086C128.971 52.7289 130.403 51.3797 132.197 50.9682L135.674 50.1708V45.76C135.674 45.6443 135.768 45.5514 135.883 45.5514H141.4C141.516 45.5514 141.609 45.6443 141.609 45.76V50.1708L145.087 50.9682C146.88 51.3797 148.311 52.7289 148.823 54.4887C148.825 54.4953 148.827 54.5019 148.828 54.5076L150.217 61.8122C150.228 61.8729 150.212 61.9364 150.173 61.9838C150.133 62.0322 150.074 62.0596 150.011 62.0596V62.0606ZM127.524 61.6434H149.759L148.419 54.5958C147.948 52.9849 146.636 51.7513 144.993 51.3749L141.353 50.5406C141.258 50.5188 141.191 50.4344 141.191 50.3377V45.9686H136.091V50.3377C136.091 50.4353 136.023 50.5188 135.928 50.5406L132.288 51.3749C130.642 51.7523 129.328 52.9906 128.86 54.6053L127.523 61.6425L127.524 61.6434Z" fill="black"/>
<path d="M143.219 42.2801C143.02 42.2308 142.819 42.2498 142.632 42.3209C142.474 39.8036 140.749 38.0959 138.643 38.0959C136.537 38.0959 134.813 39.8036 134.654 42.3209C134.468 42.2498 134.266 42.2308 134.067 42.2801C133.477 42.4262 133.137 43.1079 133.311 43.8019C133.484 44.496 134.103 44.9397 134.694 44.7937C134.79 44.77 134.877 44.7311 134.959 44.6818C135.567 46.5411 136.988 47.9643 138.643 47.9643C140.299 47.9643 141.719 46.5411 142.328 44.6818C142.408 44.7311 142.496 44.77 142.592 44.7937C143.183 44.9397 143.803 44.496 143.977 43.8019C144.15 43.1079 143.812 42.4271 143.22 42.2801H143.219Z" fill="white"/>
<path d="M138.642 48.173C137.051 48.173 135.545 46.8949 134.836 44.9682C134.806 44.9786 134.775 44.9881 134.743 44.9957C134.041 45.1692 133.308 44.6563 133.107 43.8522C133.002 43.4303 133.06 42.9894 133.268 42.6433C133.442 42.3551 133.707 42.1541 134.015 42.0773C134.162 42.0413 134.315 42.0346 134.466 42.0564C134.722 39.6254 136.445 37.8865 138.641 37.8865C140.837 37.8865 142.56 39.6254 142.818 42.0564C142.969 42.0346 143.121 42.0403 143.268 42.0773C143.576 42.1532 143.842 42.3551 144.015 42.6433C144.223 42.9894 144.283 43.4294 144.176 43.8522C143.975 44.6563 143.242 45.1692 142.54 44.9957C142.509 44.9881 142.478 44.9786 142.447 44.9682C141.739 46.8949 140.232 48.173 138.641 48.173H138.642ZM134.958 44.4723C134.982 44.4723 135.007 44.4771 135.031 44.4856C135.09 44.5074 135.137 44.5558 135.157 44.6164C135.772 46.4938 137.172 47.7558 138.643 47.7558C140.114 47.7558 141.515 46.4947 142.129 44.6164C142.149 44.5558 142.196 44.5074 142.256 44.4856C142.315 44.4628 142.382 44.4695 142.437 44.5027C142.504 44.5434 142.573 44.5728 142.642 44.5899C143.121 44.7084 143.628 44.332 143.774 43.7508C143.852 43.4351 143.81 43.1098 143.66 42.8586C143.543 42.6652 143.37 42.5324 143.17 42.4822C143.02 42.4452 142.86 42.4566 142.707 42.5153C142.645 42.539 142.575 42.5315 142.519 42.4954C142.463 42.4594 142.428 42.3997 142.423 42.3333C142.276 39.998 140.686 38.3037 138.642 38.3037C136.598 38.3037 135.009 39.998 134.862 42.3333C134.858 42.3997 134.822 42.4594 134.766 42.4954C134.71 42.5315 134.641 42.539 134.579 42.5153C134.426 42.4566 134.265 42.4452 134.117 42.4822C133.917 42.5315 133.743 42.6652 133.626 42.8586C133.475 43.1098 133.434 43.4351 133.513 43.7508C133.658 44.332 134.165 44.7084 134.644 44.5899C134.714 44.5728 134.781 44.5434 134.85 44.5027C134.884 44.4828 134.921 44.4723 134.959 44.4723H134.958Z" fill="black"/>
<path d="M138.642 48.1727C136.99 48.1727 135.431 46.796 134.759 44.7461C134.723 44.6361 134.782 44.5186 134.892 44.4825C135.002 44.4465 135.12 44.5062 135.156 44.6162C135.771 46.4936 137.172 47.7556 138.642 47.7556C140.113 47.7556 141.514 46.4945 142.129 44.6162C142.165 44.5072 142.282 44.4475 142.392 44.4825C142.501 44.5186 142.561 44.6361 142.526 44.7461C141.855 46.796 140.294 48.1727 138.642 48.1727Z" fill="black"/>
<path d="M134.481 37.3734C133.477 38.568 133.456 40.5165 134.424 42.2639C134.755 42.6508 135.085 43.0376 135.416 43.4245C135.405 40.6028 135.875 39.8433 136.331 39.7039C137.085 39.4745 137.977 40.8815 139.61 40.8465C139.86 40.8408 140.417 40.8218 140.757 40.4416C141.051 40.1135 141.007 39.7125 141.095 39.7039C141.241 39.6897 141.505 40.4577 142.011 43.4245C142.337 43.0348 142.664 42.6451 142.99 42.2554C143.169 41.5784 143.333 40.69 143.344 39.6432C143.359 38.2286 143.089 37.0671 142.835 36.2726C142.621 36.7988 142.255 37.4331 141.626 37.6398C140.307 38.0741 139.318 36.1408 137.206 36.1455C136.205 36.1474 135.137 36.593 134.48 37.3743L134.481 37.3734Z" fill="white"/>
<path d="M135.415 43.6335C135.356 43.6335 135.297 43.6079 135.257 43.5605L134.265 42.3999C134.256 42.3895 134.248 42.3781 134.242 42.3658C133.237 40.552 133.268 38.4926 134.321 37.2401C134.995 36.438 136.101 35.9383 137.207 35.9364H137.214C138.342 35.9364 139.146 36.4456 139.856 36.8959C140.499 37.3036 141.006 37.6251 141.562 37.4421C142.001 37.2979 142.364 36.8779 142.643 36.1943C142.676 36.1128 142.76 36.0587 142.844 36.0644C142.932 36.0672 143.008 36.126 143.035 36.2095C143.391 37.3254 143.566 38.4812 143.553 39.6465C143.544 40.5425 143.423 41.4385 143.193 42.3099C143.186 42.3393 143.171 42.3668 143.151 42.3905L142.172 43.5595C142.12 43.6221 142.035 43.6477 141.958 43.6269C141.879 43.605 141.82 43.5406 141.806 43.46C141.476 41.5286 141.266 40.6316 141.139 40.2154C141.091 40.333 141.022 40.461 140.914 40.5814C140.506 41.0365 139.859 41.0507 139.616 41.0555C138.652 41.0735 137.945 40.6364 137.376 40.2837C136.966 40.0296 136.641 39.8276 136.393 39.9035C136.102 39.9916 135.615 40.5672 135.625 43.423C135.625 43.5102 135.571 43.5889 135.489 43.6193C135.466 43.6278 135.441 43.6325 135.416 43.6325L135.415 43.6335ZM141.134 39.4929C141.354 39.4929 141.577 39.7347 142.141 42.9461L142.801 42.1572C143.014 41.3333 143.127 40.4875 143.135 39.6408C143.145 38.6993 143.028 37.7625 142.786 36.8504C142.492 37.3634 142.125 37.6943 141.691 37.8374C140.948 38.0821 140.308 37.6772 139.63 37.2477C138.968 36.8286 138.219 36.3536 137.212 36.3536H137.206C136.22 36.3555 135.236 36.7983 134.639 37.5084C133.7 38.6254 133.682 40.4856 134.594 42.1449L135.21 42.8645C135.252 40.7833 135.593 39.711 136.27 39.5052C136.699 39.3753 137.114 39.6323 137.594 39.93C138.144 40.2704 138.767 40.6563 139.605 40.6392C139.8 40.6354 140.315 40.6241 140.602 40.3036C140.746 40.1424 140.79 39.9547 140.822 39.8172C140.851 39.6892 140.892 39.5147 141.076 39.4977C141.096 39.4958 141.115 39.4939 141.134 39.4939V39.4929Z" fill="black"/>
</g>
<mask id="mask2_127_403" style="mask-type:luminance" maskUnits="userSpaceOnUse" x="119" y="41" width="24" height="24">
<path d="M131.017 64.1401C137.157 64.1401 142.134 59.1692 142.134 53.0373C142.134 46.9054 137.157 41.9344 131.017 41.9344C124.877 41.9344 119.9 46.9054 119.9 53.0373C119.9 59.1692 124.877 64.1401 131.017 64.1401Z" fill="white"/>
</mask>
<g mask="url(#mask2_127_403)">
<path d="M137.026 47.7798C137.191 47.4821 137.287 47.1407 137.287 46.7767C137.287 45.6341 136.36 44.7078 135.215 44.7078C135.002 44.7078 134.796 44.74 134.602 44.7998C134.612 44.7116 134.619 44.6225 134.619 44.5314C134.619 43.2789 133.603 42.2644 132.349 42.2644C131.314 42.2644 130.441 42.9575 130.169 43.9047C129.817 43.5605 129.335 43.3481 128.802 43.3481C127.778 43.3481 126.939 44.1332 126.853 45.1335C126.547 44.9372 126.184 44.8216 125.795 44.8216C124.713 44.8216 123.837 45.6967 123.837 46.7767C123.837 47.3911 124.121 47.9391 124.565 48.2975C123.56 48.5544 122.815 49.4628 122.815 50.5465C122.815 51.4112 123.29 52.164 123.99 52.5642C123.893 52.7784 123.837 53.0164 123.837 53.2677C123.837 54.2073 124.599 54.9677 125.539 54.9677C125.733 54.9677 125.919 54.9336 126.092 54.8739C126.066 54.9914 126.051 55.1128 126.051 55.2389C126.051 56.1472 126.787 56.883 127.697 56.883C128.606 56.883 129.342 56.1472 129.342 55.2389C129.342 54.3306 131.102 54.0603 131.102 55.109C131.102 56.1577 131.954 57.0081 133.003 57.0081C134.053 57.0081 134.904 56.1577 134.904 55.109C134.904 54.8995 134.869 54.6975 134.806 54.5088C134.839 54.5107 134.871 54.5136 134.904 54.5136C135.907 54.5136 136.72 53.701 136.72 52.6998C136.72 52.6599 136.716 52.6211 136.714 52.5822C136.745 52.5831 136.775 52.5869 136.805 52.5869C138.138 52.5869 139.217 51.5079 139.217 50.1777C139.217 48.9223 138.255 47.8917 137.027 47.7798H137.026Z" fill="white"/>
<path d="M133.002 57.2169C131.839 57.2169 130.893 56.2716 130.893 55.1092C130.893 54.9546 130.843 54.8361 130.744 54.7574C130.65 54.6825 130.512 54.6417 130.353 54.6417C129.965 54.6417 129.55 54.8816 129.55 55.2391C129.55 56.2602 128.719 57.0917 127.696 57.0917C126.673 57.0917 125.841 56.2612 125.841 55.2391C125.841 55.2097 125.841 55.1803 125.843 55.1509C125.741 55.167 125.64 55.1755 125.539 55.1755C124.485 55.1755 123.627 54.3194 123.627 53.2669C123.627 53.0555 123.662 52.8488 123.73 52.6487C123.032 52.1803 122.605 51.3905 122.605 50.5457C122.605 49.5113 123.233 48.5954 124.169 48.2085C123.821 47.816 123.627 47.3106 123.627 46.7768C123.627 45.5831 124.599 44.6122 125.794 44.6122C126.106 44.6122 126.412 44.6795 126.693 44.8085C126.92 43.8508 127.792 43.1378 128.802 43.1378C129.264 43.1378 129.706 43.2829 130.075 43.5503C130.461 42.6562 131.357 42.0541 132.349 42.0541C133.716 42.0541 134.828 43.1644 134.828 44.5297C134.955 44.5079 135.085 44.4975 135.214 44.4975C136.472 44.4975 137.495 45.5196 137.495 46.7749C137.495 47.0622 137.44 47.3467 137.335 47.6131C138.544 47.8587 139.424 48.913 139.424 50.1759C139.424 51.5783 138.314 52.7274 136.925 52.7909C136.879 53.8064 136.079 54.6294 135.073 54.7138C135.098 54.8437 135.111 54.9755 135.111 55.1073C135.111 56.2697 134.165 57.215 133.001 57.215L133.002 57.2169ZM130.353 54.2245C130.925 54.2245 131.309 54.5801 131.309 55.1092C131.309 56.0412 132.068 56.7997 133.001 56.7997C133.934 56.7997 134.694 56.0412 134.694 55.1092C134.694 54.929 134.665 54.7498 134.606 54.5754C134.584 54.5099 134.596 54.4379 134.638 54.3829C134.68 54.3279 134.747 54.2966 134.815 54.3013L134.848 54.3032C134.866 54.3042 134.884 54.3061 134.902 54.3061C135.788 54.3061 136.509 53.5855 136.509 52.7009C136.509 52.6743 136.507 52.6487 136.505 52.6241L136.503 52.5966C136.499 52.5378 136.521 52.4799 136.562 52.4382C136.603 52.3965 136.662 52.3737 136.718 52.3756L136.763 52.3785C136.776 52.3785 136.789 52.3804 136.803 52.3804C138.017 52.3804 139.006 51.3934 139.006 50.1797C139.006 49.0353 138.146 48.0938 137.005 47.9895C136.935 47.9829 136.873 47.9411 136.84 47.8795C136.806 47.8169 136.807 47.742 136.841 47.6804C136.995 47.4054 137.076 47.0935 137.076 46.7787C137.076 45.7528 136.24 44.9184 135.213 44.9184C135.025 44.9184 134.839 44.9459 134.661 45.0009C134.593 45.0218 134.52 45.0066 134.465 44.9621C134.411 44.9165 134.383 44.8473 134.391 44.7772C134.402 44.6842 134.408 44.6065 134.408 44.5325C134.408 43.3976 133.483 42.4741 132.346 42.4741C131.433 42.4741 130.619 43.0866 130.367 43.9627C130.347 44.0329 130.291 44.0879 130.22 44.1068C130.148 44.1258 130.073 44.1059 130.02 44.0547C129.691 43.7342 129.257 43.5569 128.799 43.5569C127.899 43.5569 127.135 44.2576 127.057 45.1517C127.051 45.2247 127.007 45.2892 126.942 45.3214C126.876 45.3536 126.799 45.3489 126.737 45.31C126.454 45.128 126.127 45.0313 125.792 45.0313C124.827 45.0313 124.042 45.8144 124.042 46.7778C124.042 47.3068 124.279 47.8018 124.693 48.1355C124.754 48.1848 124.782 48.2654 124.766 48.3422C124.749 48.419 124.69 48.4806 124.613 48.4996C123.675 48.7395 123.02 49.5805 123.02 50.5467C123.02 51.3033 123.43 52.0068 124.09 52.3832C124.184 52.4363 124.221 52.553 124.176 52.6506C124.087 52.8469 124.041 53.0545 124.041 53.2669C124.041 54.089 124.712 54.7584 125.536 54.7584C125.699 54.7584 125.862 54.7309 126.021 54.6759C126.093 54.6512 126.172 54.6673 126.228 54.7185C126.284 54.7688 126.308 54.8465 126.291 54.9205C126.267 55.0276 126.254 55.1357 126.254 55.2391C126.254 56.0308 126.899 56.6746 127.692 56.6746C128.484 56.6746 129.129 56.0308 129.129 55.2391C129.129 54.6123 129.763 54.2245 130.349 54.2245H130.353Z" fill="black"/>
<path d="M137.305 58.3906L131.017 56.9447L124.729 58.3906C123.037 58.7794 121.69 60.0527 121.208 61.7177L119.844 68.917H142.19L140.825 61.7177C140.343 60.0527 138.995 58.7794 137.305 58.3906Z" fill="white"/>
<path d="M142.19 69.1259H119.844C119.781 69.1259 119.722 69.0984 119.684 69.0501C119.644 69.0017 119.628 68.9391 119.639 68.8785L121.003 61.6791C121.511 59.9241 122.919 58.5929 124.682 58.1871L130.97 56.7412C131.001 56.7345 131.033 56.7345 131.064 56.7412L137.352 58.1871C139.116 58.5929 140.524 59.9232 141.026 61.6602L142.396 68.8785C142.407 68.9391 142.391 69.0027 142.351 69.0501C142.311 69.0975 142.252 69.1259 142.191 69.1259H142.19ZM120.096 68.7087H141.939L140.621 61.7569C140.165 60.1849 138.874 58.9655 137.259 58.5939L131.018 57.1584L124.777 58.5939C123.161 58.9655 121.871 60.1849 121.41 61.7759L120.097 68.7087H120.096Z" fill="black"/>
<path d="M128.338 57.937L129.177 53.0569H132.857L133.686 57.882L128.338 57.937Z" fill="white"/>
<path d="M135.558 49.5437C135.36 49.4944 135.16 49.5133 134.974 49.5844C134.817 47.0785 133.106 45.3794 131.016 45.3794C128.926 45.3794 127.215 47.0785 127.058 49.5844C126.873 49.5133 126.672 49.4944 126.475 49.5437C125.888 49.6897 125.553 50.3667 125.724 51.0579C125.896 51.7481 126.511 52.19 127.097 52.0449C127.192 52.0212 127.279 51.9833 127.36 51.934C127.964 53.7848 129.374 55.2013 131.016 55.2013C132.658 55.2013 134.068 53.7848 134.672 51.934C134.753 51.9833 134.84 52.0212 134.934 52.0449C135.521 52.1909 136.135 51.7491 136.307 51.0579C136.478 50.3676 136.143 49.6897 135.556 49.5437H135.558Z" fill="white"/>
<path d="M127.059 49.5845C126.874 49.5134 126.673 49.4945 126.476 49.5438C125.889 49.6898 125.554 50.3668 125.725 51.058C125.897 51.7482 126.512 52.19 127.098 52.045C127.193 52.0213 127.28 51.9833 127.361 51.934C127.965 53.7848 129.375 55.2014 131.017 55.2014C132.659 55.2014 134.069 53.7848 134.673 51.934C134.754 51.9833 134.841 52.0213 134.935 52.045C135.522 52.191 136.136 51.7492 136.308 51.058C136.479 50.3677 136.144 49.6898 135.557 49.5438C135.359 49.4945 135.159 49.5134 134.974 49.5845H127.057H127.059Z" fill="white"/>
<path d="M131.017 55.4095C129.438 55.4095 127.942 54.1371 127.239 52.2209C127.209 52.2313 127.179 52.2399 127.148 52.2474C126.452 52.4191 125.722 51.9089 125.523 51.1087C125.428 50.7266 125.466 50.3341 125.63 50.0041C125.799 49.6628 126.082 49.4276 126.426 49.3414C126.656 49.2845 126.901 49.3006 127.133 49.3897C127.241 49.4305 127.295 49.5518 127.254 49.659C127.213 49.7661 127.092 49.8202 126.984 49.7794C126.832 49.7216 126.673 49.7092 126.526 49.7462C126.304 49.8012 126.118 49.9586 126.003 50.189C125.884 50.4308 125.856 50.7209 125.927 51.0073C126.071 51.5856 126.574 51.9601 127.048 51.8416C127.117 51.8246 127.184 51.7961 127.252 51.7544C127.306 51.7212 127.373 51.7146 127.433 51.7373C127.493 51.7591 127.539 51.8075 127.559 51.8682C128.169 53.736 129.559 54.9914 131.017 54.9914C132.475 54.9914 133.865 53.736 134.475 51.8682C134.495 51.8075 134.541 51.7591 134.601 51.7373C134.661 51.7155 134.727 51.7212 134.782 51.7544C134.848 51.7952 134.917 51.8246 134.986 51.8416C135.459 51.9601 135.962 51.5847 136.107 51.0073C136.178 50.7209 136.151 50.4308 136.031 50.189C135.917 49.9586 135.731 49.8012 135.507 49.7462C135.358 49.7092 135.204 49.7206 135.049 49.7794C134.942 49.8202 134.821 49.7671 134.78 49.659C134.739 49.5518 134.793 49.4305 134.901 49.3897C135.133 49.3015 135.377 49.2845 135.608 49.3414C135.952 49.4267 136.235 49.6618 136.404 50.0041C136.568 50.3341 136.605 50.7266 136.51 51.1087C136.311 51.9099 135.582 52.42 134.884 52.2474C134.854 52.2399 134.824 52.2313 134.794 52.2209C134.091 54.138 132.596 55.4095 131.017 55.4095Z" fill="black"/>
<path d="M127.059 49.5844C129.038 49.2127 131.036 48.0806 132.274 46.4944C132.516 47.9033 133.667 49.006 134.975 49.5844H127.059Z" fill="white"/>
<path d="M134.975 49.7929C134.947 49.7929 134.919 49.7872 134.891 49.7749C133.517 49.1672 132.527 48.1308 132.168 46.9494C130.92 48.3717 129.056 49.4213 127.097 49.7891C126.983 49.811 126.874 49.736 126.854 49.6223C126.833 49.5094 126.907 49.4004 127.02 49.3786C129.029 49.0012 130.932 47.8748 132.109 46.3654C132.16 46.3 132.245 46.2706 132.324 46.2914C132.404 46.3113 132.466 46.3768 132.479 46.4583C132.689 47.6738 133.653 48.7708 135.059 49.3928C135.164 49.4393 135.212 49.5625 135.165 49.6678C135.131 49.7455 135.054 49.792 134.975 49.792L134.975 49.7929Z" fill="black"/>
<path d="M133.628 57.7539C133.529 57.7539 133.44 57.6818 133.422 57.5804L132.88 54.4268C132.86 54.3131 132.937 54.2059 133.051 54.186C133.165 54.1661 133.273 54.2429 133.292 54.3567L133.834 57.5102C133.854 57.624 133.777 57.7311 133.663 57.751C133.651 57.7529 133.64 57.7539 133.627 57.7539H133.628Z" fill="black"/>
<path d="M128.406 57.7538C128.394 57.7538 128.382 57.7529 128.37 57.751C128.256 57.731 128.18 57.6239 128.199 57.5101L128.736 54.386C128.756 54.2722 128.862 54.1963 128.976 54.2153C129.09 54.2352 129.166 54.3424 129.147 54.4561L128.61 57.5803C128.593 57.6817 128.505 57.7538 128.405 57.7538H128.406Z" fill="black"/>
</g>
<path d="M257.711 58.8328H174.289V108.058H257.711V58.8328Z" fill="white"/>
<path d="M257.711 108.371H174.288C174.116 108.371 173.976 108.231 173.976 108.058V58.8332C173.976 58.6606 174.116 58.5203 174.288 58.5203H257.711C257.883 58.5203 258.023 58.6606 258.023 58.8332V108.058C258.023 108.231 257.883 108.371 257.711 108.371ZM174.601 107.745H257.398V59.146H174.601V107.745Z" fill="#91F2E2"/>
<path d="M208.996 79.5182H181.593C181.477 79.5182 181.385 79.4252 181.385 79.3096C181.385 79.1939 181.478 79.101 181.593 79.101H208.972L227.529 74.7717L243.857 67.9915L249.981 60.7704C250.056 60.6822 250.187 60.6718 250.275 60.7457C250.363 60.8206 250.374 60.9524 250.299 61.0396L244.143 68.2987C244.121 68.3243 244.094 68.3442 244.064 68.3565L227.674 75.1624C227.664 75.1671 227.652 75.1699 227.642 75.1728L209.044 79.5115C209.029 79.5153 209.013 79.5172 208.997 79.5172L208.996 79.5182Z" fill="black"/>
<path d="M208.805 81.4129C209.946 81.4129 210.871 80.4709 210.871 79.3089C210.871 78.1469 209.946 77.205 208.805 77.205C207.664 77.205 206.739 78.1469 206.739 79.3089C206.739 80.4709 207.664 81.4129 208.805 81.4129Z" fill="#91F2E2"/>
<path d="M227.593 77.0742C228.734 77.0742 229.659 76.1323 229.659 74.9703C229.659 73.8083 228.734 72.8663 227.593 72.8663C226.452 72.8663 225.527 73.8083 225.527 74.9703C225.527 76.1323 226.452 77.0742 227.593 77.0742Z" fill="#91F2E2"/>
<path d="M243.9 70.2684C245.041 70.2684 245.966 69.3265 245.966 68.1645C245.966 67.0025 245.041 66.0605 243.9 66.0605C242.759 66.0605 241.834 67.0025 241.834 68.1645C241.834 69.3265 242.759 70.2684 243.9 70.2684Z" fill="#91F2E2"/>
<path d="M191.714 81.4074C192.855 81.4074 193.78 80.4654 193.78 79.3034C193.78 78.1414 192.855 77.1995 191.714 77.1995C190.573 77.1995 189.648 78.1414 189.648 79.3034C189.648 80.4654 190.573 81.4074 191.714 81.4074Z" fill="#91F2E2"/>
<path d="M249.199 99.6886C249.17 99.6886 249.14 99.6829 249.113 99.6697L238.604 94.8777L221.749 92.7823C221.741 92.7823 221.735 92.7804 221.727 92.7785L203.129 88.4397L185.567 83.4553L180.585 82.3612C180.472 82.3365 180.401 82.2256 180.426 82.1127C180.45 81.9999 180.562 81.9297 180.674 81.9535L185.668 83.0505L203.233 88.0358L221.81 92.3689L238.686 94.4671C238.707 94.47 238.728 94.4757 238.747 94.4842L249.284 99.2894C249.39 99.3378 249.435 99.4611 249.388 99.5663C249.353 99.6431 249.277 99.6886 249.198 99.6886H249.199Z" fill="black"/>
<path d="M221.965 94.6796C223.106 94.6796 224.031 93.7376 224.031 92.5756C224.031 91.4136 223.106 90.4717 221.965 90.4717C220.824 90.4717 219.899 91.4136 219.899 92.5756C219.899 93.7376 220.824 94.6796 221.965 94.6796Z" fill="white"/>
<path d="M221.965 94.888C220.711 94.888 219.691 93.8507 219.691 92.5755C219.691 91.3002 220.711 90.2629 221.965 90.2629C223.22 90.2629 224.24 91.3002 224.24 92.5755C224.24 93.8507 223.22 94.888 221.965 94.888ZM221.965 90.6801C220.941 90.6801 220.108 91.5306 220.108 92.5755C220.108 93.6203 220.941 94.4708 221.965 94.4708C222.989 94.4708 223.823 93.6203 223.823 92.5755C223.823 91.5306 222.989 90.6801 221.965 90.6801Z" fill="black"/>
<path d="M203.177 90.3411C204.318 90.3411 205.243 89.3991 205.243 88.2371C205.243 87.0751 204.318 86.1332 203.177 86.1332C202.036 86.1332 201.111 87.0751 201.111 88.2371C201.111 89.3991 202.036 90.3411 203.177 90.3411Z" fill="white"/>
<path d="M203.177 90.5502C201.922 90.5502 200.902 89.513 200.902 88.2377C200.902 86.9624 201.922 85.9252 203.177 85.9252C204.431 85.9252 205.451 86.9624 205.451 88.2377C205.451 89.513 204.431 90.5502 203.177 90.5502ZM203.177 86.3414C202.153 86.3414 201.319 87.1919 201.319 88.2368C201.319 89.2816 202.153 90.1321 203.177 90.1321C204.201 90.1321 205.034 89.2816 205.034 88.2368C205.034 87.1919 204.201 86.3414 203.177 86.3414Z" fill="black"/>
<path d="M186.827 85.5639C187.968 85.5639 188.893 84.6219 188.893 83.4599C188.893 82.2979 187.968 81.356 186.827 81.356C185.685 81.356 184.76 82.2979 184.76 83.4599C184.76 84.6219 185.685 85.5639 186.827 85.5639Z" fill="white"/>
<path d="M186.827 85.7725C185.572 85.7725 184.552 84.7353 184.552 83.46C184.552 82.1847 185.572 81.1475 186.827 81.1475C188.081 81.1475 189.101 82.1847 189.101 83.46C189.101 84.7353 188.081 85.7725 186.827 85.7725ZM186.827 81.5646C185.803 81.5646 184.969 82.4151 184.969 83.46C184.969 84.5049 185.803 85.3554 186.827 85.3554C187.851 85.3554 188.684 84.5049 188.684 83.46C188.684 82.4151 187.851 81.5646 186.827 81.5646Z" fill="black"/>
<path d="M238.661 96.7787C239.803 96.7787 240.728 95.8367 240.728 94.6747C240.728 93.5128 239.803 92.5708 238.661 92.5708C237.52 92.5708 236.595 93.5128 236.595 94.6747C236.595 95.8367 237.52 96.7787 238.661 96.7787Z" fill="white"/>
<path d="M238.661 96.9876C237.407 96.9876 236.387 95.9503 236.387 94.6751C236.387 93.3998 237.407 92.3625 238.661 92.3625C239.916 92.3625 240.936 93.3998 240.936 94.6751C240.936 95.9503 239.916 96.9876 238.661 96.9876ZM238.661 92.7797C237.637 92.7797 236.804 93.6302 236.804 94.6751C236.804 95.7199 237.637 96.5704 238.661 96.5704C239.685 96.5704 240.519 95.7199 240.519 94.6751C240.519 93.6302 239.685 92.7797 238.661 92.7797Z" fill="black"/>
<path d="M231.892 30.3779C233.753 18.2132 225.389 6.84098 213.21 4.9773C201.031 3.11363 189.649 11.4642 187.787 23.6289C185.926 35.7936 194.29 47.1658 206.469 49.0295C218.648 50.8932 230.03 42.5426 231.892 30.3779Z" fill="white"/>
<path d="M209.87 49.4995C208.74 49.4995 207.596 49.4141 206.445 49.2378C200.5 48.3276 195.264 45.1598 191.703 40.3166C188.142 35.4735 186.682 29.5362 187.59 23.5979C189.466 11.3392 200.979 2.89501 213.252 4.7733C225.525 6.65253 233.983 18.1545 232.107 30.4132C230.406 41.5217 220.791 49.4995 209.871 49.4995H209.87ZM209.827 4.92974C199.107 4.92974 189.672 12.7586 188.003 23.6614C187.11 29.4897 188.544 35.317 192.039 40.0701C195.534 44.8232 200.673 47.9322 206.508 48.8263C207.637 48.9988 208.76 49.0832 209.87 49.0832C220.59 49.0832 230.025 41.2543 231.694 30.3516C233.536 18.3205 225.235 7.03179 213.189 5.18764C212.06 5.01507 210.936 4.93069 209.827 4.93069V4.92974Z" fill="black"/>
<path d="M209.771 26.8225L207.883 1.30677C209.924 1.11146 212.021 1.1636 214.139 1.48787C224.19 3.02672 231.947 10.2782 234.609 19.4297L209.771 26.8225Z" fill="#91F2E2"/>
<path d="M186.173 23.3755C185.212 29.7812 186.919 36.2153 190.685 41.2567C195.387 37.7096 209.849 26.7651 209.849 26.7651C209.849 26.7651 190.104 23.9814 186.173 23.3755Z" fill="white"/>
<path d="M190.685 41.4652C190.675 41.4652 190.665 41.4652 190.655 41.4634C190.6 41.4558 190.551 41.4264 190.518 41.3818C186.677 36.24 185.019 29.6655 185.968 23.3442C185.976 23.2892 186.006 23.2399 186.05 23.2067C186.095 23.1735 186.151 23.1602 186.206 23.1688C190.09 23.7671 209.681 26.53 209.878 26.5575C209.962 26.5688 210.03 26.6305 210.051 26.712C210.072 26.7936 210.042 26.8798 209.975 26.931C209.831 27.0401 195.46 37.9163 190.811 41.4226C190.775 41.4501 190.73 41.4643 190.686 41.4643L190.685 41.4652ZM186.35 23.6135C185.494 29.6921 187.084 35.9925 190.728 40.9637C195.084 37.6764 206.985 28.6709 209.323 26.9016C206.288 26.4731 190.284 24.2117 186.35 23.6135Z" fill="black"/>
<path d="M266.622 5.36531C267.772 5.36531 268.703 4.4348 268.703 3.28697C268.703 2.13913 267.772 1.20862 266.622 1.20862C265.473 1.20862 264.541 2.13913 264.541 3.28697C264.541 4.4348 265.473 5.36531 266.622 5.36531Z" fill="white"/>
<path d="M224.856 9.77754C224.777 9.77754 224.7 9.73108 224.666 9.65428C224.618 9.54904 224.666 9.42578 224.771 9.37837L238.855 3.09687C238.881 3.08455 238.911 3.07886 238.94 3.07886H249.798C249.914 3.07886 250.007 3.17178 250.007 3.28745C250.007 3.40312 249.913 3.49604 249.798 3.49604H238.985L224.942 9.75953C224.914 9.77185 224.885 9.77754 224.856 9.77754Z" fill="black"/>
<path d="M235.836 46.7621H227.727C227.689 46.7621 227.652 46.7517 227.619 46.7318L213.768 38.3899C213.669 38.3302 213.637 38.2022 213.697 38.1036C213.756 38.005 213.884 37.9727 213.983 38.0325L227.785 46.344H235.836C235.952 46.344 236.044 46.4369 236.044 46.5526C236.044 46.6682 235.951 46.7612 235.836 46.7612V46.7621Z" fill="black"/>
<path d="M238.984 44.3486H258.99C259.87 44.3486 260.583 45.0621 260.583 45.9421V47.1662C260.583 48.0463 259.87 48.7597 258.99 48.7597H238.984C238.104 48.7597 237.39 48.0463 237.39 47.1662V45.9421C237.39 45.0621 238.104 44.3486 238.984 44.3486Z" stroke="#91F2E2"/>
<path d="M257.093 0.5H277.099C277.979 0.5 278.693 1.21344 278.693 2.09352V3.31758C278.693 4.19765 277.979 4.9111 277.099 4.9111H257.093C256.213 4.9111 255.5 4.19765 255.5 3.31758V2.09352C255.5 1.21344 256.213 0.5 257.093 0.5Z" stroke="#91F2E2"/>
<path d="M157.635 34.6962C157.657 34.6115 157.68 34.547 157.699 34.5H162.3C162.32 34.547 162.342 34.6115 162.365 34.6962C162.444 34.9931 162.5 35.4311 162.5 35.9345V37.0655C162.5 37.5689 162.444 38.0069 162.365 38.3038C162.342 38.3885 162.32 38.453 162.3 38.5H157.699C157.68 38.453 157.657 38.3885 157.635 38.3038C157.555 38.0069 157.5 37.5689 157.5 37.0655V35.9345C157.5 35.4311 157.555 34.9931 157.635 34.6962ZM162.249 34.4045C162.249 34.4042 162.251 34.4065 162.255 34.4123C162.251 34.4077 162.249 34.4048 162.249 34.4045ZM162.249 38.5955C162.249 38.5952 162.251 38.5923 162.255 38.5877C162.251 38.5935 162.249 38.5958 162.249 38.5955ZM157.75 38.5955C157.75 38.5958 157.748 38.5935 157.744 38.5877C157.748 38.5923 157.75 38.5952 157.75 38.5955ZM157.744 34.4123C157.748 34.4065 157.75 34.4042 157.75 34.4045C157.75 34.4048 157.748 34.4077 157.744 34.4123Z" stroke="#91F2E2"/>
<path d="M175.403 37.1296H165.541C165.425 37.1296 165.332 37.0367 165.332 36.921C165.332 36.8053 165.426 36.7124 165.541 36.7124H175.365L191.641 30.5513C191.749 30.5105 191.869 30.5646 191.91 30.6727C191.951 30.7808 191.897 30.9012 191.789 30.9419L175.477 37.1163C175.453 37.1248 175.428 37.1296 175.403 37.1296Z" fill="black"/>
<path fill-rule="evenodd" clip-rule="evenodd" d="M157.95 81.2797H119.005V101.644H157.95V81.2797ZM158.45 80.7797V102.144H118.505V80.7797H158.45Z" fill="black"/>
<path d="M132.208 93.597C132.157 93.597 132.107 93.579 132.067 93.5411C131.982 93.4624 131.977 93.3306 132.055 93.2462L138.24 86.5674C138.319 86.4821 138.468 86.4821 138.546 86.5674L142.369 90.6957L161.358 70.1891C161.436 70.1047 161.568 70.099 161.653 70.1777C161.737 70.2564 161.743 70.3882 161.664 70.4726L142.523 91.1451C142.444 91.2304 142.295 91.2304 142.217 91.1451L138.394 87.0169L132.363 93.5307C132.322 93.5752 132.266 93.597 132.209 93.597H132.208Z" fill="#91F2E2"/>
<path d="M161.823 72.506L161.405 72.5069L161.402 70.4494L159.349 70.604L159.319 70.1868L161.818 70L161.823 72.506Z" fill="#91F2E2"/>
<path d="M76.7537 14.4172H70.2086C70.0929 14.4172 70 14.3243 70 14.2086C70 14.0929 70.0939 14 70.2086 14H76.7537C76.8694 14 76.9623 14.0929 76.9623 14.2086C76.9623 14.3243 76.8684 14.4172 76.7537 14.4172Z" fill="black"/>
<path d="M60.7909 14.4172H31.2086C31.0929 14.4172 31 14.3243 31 14.2086C31 14.0929 31.0939 14 31.2086 14H60.7909C60.9066 14 60.9995 14.0929 60.9995 14.2086C60.9995 14.3243 60.9056 14.4172 60.7909 14.4172Z" fill="black"/>
<path d="M76.6579 23.4172H51.2086C51.0929 23.4172 51 23.3243 51 23.2086C51 23.0929 51.0939 23 51.2086 23H76.6579C76.7736 23 76.8665 23.0929 76.8665 23.2086C76.8665 23.3243 76.7726 23.4172 76.6579 23.4172Z" fill="black"/>
<path d="M44.8421 23.4172H31.2086C31.0929 23.4172 31 23.3243 31 23.2086C31 23.0929 31.0939 23 31.2086 23H44.8421C44.9577 23 45.0506 23.0929 45.0506 23.2086C45.0506 23.3243 44.9568 23.4172 44.8421 23.4172Z" fill="black"/>
<path d="M34.2748 8.08756C32.5795 8.08756 31.2009 6.70989 31.2009 5.0165C31.2009 3.3231 32.5795 1.94543 34.2748 1.94543C35.9701 1.94543 37.3487 3.3231 37.3487 5.0165C37.3487 6.70989 35.9701 8.08756 34.2748 8.08756ZM34.2748 2.36357C32.8099 2.36357 31.6181 3.5535 31.6181 5.01744C31.6181 6.48139 32.8099 7.67037 34.2748 7.67037C35.7397 7.67037 36.9316 6.48044 36.9316 5.01744C36.9316 3.55445 35.7397 2.36357 34.2748 2.36357Z" fill="black"/>
<path d="M42.6376 8.08768C40.9423 8.08768 39.5637 6.71002 39.5637 5.01662C39.5637 3.32322 40.9423 1.94556 42.6376 1.94556C44.3329 1.94556 45.7115 3.32322 45.7115 5.01662C45.7115 6.71002 44.3329 8.08768 42.6376 8.08768ZM42.6376 2.36369C41.1727 2.36369 39.9809 3.55362 39.9809 5.01757C39.9809 6.48151 41.1727 7.67049 42.6376 7.67049C44.1025 7.67049 45.2943 6.48056 45.2943 5.01757C45.2943 3.55457 44.1025 2.36369 42.6376 2.36369Z" fill="black"/>
<path d="M50.9992 8.08768C49.3039 8.08768 47.9253 6.71002 47.9253 5.01662C47.9253 3.32322 49.3039 1.94556 50.9992 1.94556C52.6945 1.94556 54.0731 3.32322 54.0731 5.01662C54.0731 6.71002 52.6945 8.08768 50.9992 8.08768ZM50.9992 2.36369C49.5343 2.36369 48.3425 3.55362 48.3425 5.01757C48.3425 6.48151 49.5343 7.67049 50.9992 7.67049C52.4641 7.67049 53.6559 6.48056 53.6559 5.01757C53.6559 3.55457 52.4641 2.36369 50.9992 2.36369Z" fill="black"/>
<path d="M124.569 101.877H88.9588C88.7478 101.877 88.5368 101.823 88.3632 101.704C87.9557 101.424 87.8144 100.923 87.9755 100.491C88.3954 99.6104 89.2633 99.3005 90.546 99.3005H126.905L126.433 100.584C126.142 101.362 125.399 101.877 124.569 101.877Z" fill="black"/>
<path d="M125.949 101.877L132.69 84.9538C132.857 84.5337 132.805 84.0584 132.551 83.6841C132.298 83.3098 131.876 83.0862 131.424 83.0862H109.538C108.219 83.0862 107.044 83.917 106.604 85.1607L100.687 101.877H125.95H125.949Z" fill="black"/>
<path d="M119.886 89.8212C120.343 89.8212 120.713 89.4506 120.713 88.9935C120.713 88.5364 120.343 88.1658 119.886 88.1658C119.429 88.1658 119.059 88.5364 119.059 88.9935C119.059 89.4506 119.429 89.8212 119.886 89.8212Z" fill="#91F2E2"/>
<path d="M38.0734 140.147C54.1392 140.147 67.163 127.118 67.163 111.046C67.163 94.9737 54.1392 81.9446 38.0734 81.9446C22.0077 81.9446 8.98389 94.9737 8.98389 111.046C8.98389 127.118 22.0077 140.147 38.0734 140.147Z" fill="white"/>
<path d="M38.0724 140.376C21.9061 140.376 8.75415 127.219 8.75415 111.046C8.75415 94.8731 21.9061 81.7158 38.0724 81.7158C54.2387 81.7158 67.3906 94.8731 67.3906 111.046C67.3906 127.219 54.2387 140.376 38.0724 140.376ZM38.0724 82.1744C22.1587 82.1744 9.21254 95.1268 9.21254 111.046C9.21254 126.965 22.1587 139.918 38.0724 139.918C53.9861 139.918 66.9322 126.965 66.9322 111.046C66.9322 95.1268 53.985 82.1744 38.0724 82.1744Z" fill="black"/>
<path d="M38.8155 133.136C38.8104 133.136 38.8041 133.136 38.7989 133.136C25.2177 132.152 22.0214 125.342 21.8915 125.053C21.8395 124.937 21.8915 124.802 22.0069 124.75C22.1223 124.698 22.2574 124.75 22.3094 124.865C22.3405 124.933 25.5482 131.715 38.8322 132.678C38.958 132.688 39.0525 132.797 39.0442 132.923C39.0359 133.043 38.9351 133.135 38.8166 133.135L38.8155 133.136Z" fill="black"/>
<path d="M3.08703 169.611C3.0548 169.611 3.02362 169.605 2.99244 169.59C2.87706 169.538 2.82613 169.402 2.87914 169.287L19.2263 133.294C19.2783 133.179 19.4144 133.128 19.5298 133.181C19.6452 133.233 19.6961 133.369 19.6431 133.484L3.29491 169.477C3.25645 169.561 3.1733 169.611 3.08599 169.611H3.08703Z" fill="black"/>
<path d="M2.09238 174.185C3.24796 174.185 4.18475 173.248 4.18475 172.092C4.18475 170.936 3.24796 169.999 2.09238 169.999C0.936789 169.999 0 170.936 0 172.092C0 173.248 0.936789 174.185 2.09238 174.185Z" fill="black"/>
<path d="M73.0596 169.611C72.9723 169.611 72.8891 169.561 72.8507 169.477L56.5035 133.484C56.4516 133.369 56.5025 133.234 56.6168 133.181C56.7312 133.128 56.8673 133.178 56.9203 133.294L73.2675 169.286C73.3195 169.402 73.2685 169.537 73.1542 169.59C73.123 169.605 73.0918 169.611 73.0596 169.611Z" fill="black"/>
<path d="M74.0543 174.185C75.2099 174.185 76.1467 173.248 76.1467 172.092C76.1467 170.936 75.2099 169.999 74.0543 169.999C72.8987 169.999 71.9619 170.936 71.9619 172.092C71.9619 173.248 72.8987 174.185 74.0543 174.185Z" fill="black"/>
<path d="M74.0544 174.299C72.8372 174.299 71.8477 173.309 71.8477 172.092C71.8477 170.874 72.8372 169.884 74.0544 169.884C75.2716 169.884 76.2611 170.874 76.2611 172.092C76.2611 173.309 75.2716 174.299 74.0544 174.299ZM74.0544 170.114C72.964 170.114 72.0763 171.002 72.0763 172.093C72.0763 173.184 72.963 174.072 74.0544 174.072C75.1458 174.072 76.0324 173.185 76.0324 172.093C76.0324 171.001 75.1458 170.114 74.0544 170.114Z" fill="#91F2E2"/>
<path d="M154.809 169.611C154.723 169.611 154.639 169.561 154.601 169.478L125.023 105.188C124.97 105.072 125.02 104.937 125.135 104.884C125.251 104.831 125.386 104.881 125.439 104.996L155.017 169.286C155.07 169.402 155.02 169.537 154.904 169.59C154.873 169.605 154.841 169.611 154.809 169.611Z" fill="black"/>
<path d="M155.803 174.185C156.958 174.185 157.895 173.248 157.895 172.092C157.895 170.936 156.958 169.999 155.803 169.999C154.647 169.999 153.71 170.936 153.71 172.092C153.71 173.248 154.647 174.185 155.803 174.185Z" fill="black"/>
<path d="M131.095 101.957H69.9539V104.817H131.095V101.957Z" fill="white"/>
<path d="M131.095 105.047H69.9538C69.827 105.047 69.7251 104.945 69.7251 104.818V101.958C69.7251 101.831 69.828 101.729 69.9538 101.729H131.095C131.222 101.729 131.324 101.831 131.324 101.958V104.818C131.324 104.945 131.221 105.047 131.095 105.047ZM70.1825 104.589H130.867V102.186H70.1825V104.589Z" fill="black"/>
<path d="M76.5718 46.8912C74.5938 44.8573 71.6075 45.3221 69.1576 46.0906C66.2991 46.9859 63.6777 48.4739 60.8764 49.5179C59.549 50.0118 58.1822 50.3914 56.7727 50.5578C55.4994 50.7075 54.2084 50.6857 52.9351 50.5547C50.3334 50.2853 47.8076 49.5491 45.3119 48.7942C42.8048 48.0361 40.2967 47.2334 37.7126 46.7779C34.9883 46.2975 32.2338 46.2881 29.5365 46.9474C24.0368 48.2909 18.8012 52.0437 16.4001 57.2586C14.0936 62.2676 14.4127 68.1636 17.2369 72.8939C18.612 75.1982 20.5225 77.1521 22.7906 78.585C25.255 80.1427 28.0657 81.1316 30.8836 81.8252C36.5339 83.2155 42.5065 83.2331 48.1735 81.924C53.5151 80.6907 58.5231 78.2637 62.7993 74.8322C66.85 71.5816 70.2188 67.4949 72.6105 62.8821C73.1105 61.9192 73.5627 60.9324 73.9732 59.9279C75.7964 57.9449 77.6081 55.6728 78.1538 52.9754C78.5759 50.8853 78.0915 48.451 76.5729 46.8902L76.5718 46.8912Z" fill="black"/>
<path d="M56.8817 66.4155L61.5415 60.4644C61.8689 60.0464 64.3656 59.1708 64.7554 59.5317L67.1087 64.2775C67.4423 64.5864 67.4964 65.0949 67.2355 65.4671L63.8085 70.3597C63.2254 71.1926 62.2317 71.6366 61.2234 71.5118C59.9408 71.3538 58.2101 70.7195 56.8058 68.6959C56.3266 68.0044 56.362 67.0768 56.8817 66.4145V66.4155Z" fill="white"/>
<path d="M56.3403 67.2507C56.2904 67.2507 56.2394 67.234 56.1968 67.1997C56.0981 67.1207 56.0825 66.9761 56.1625 66.8773L61.8035 59.875C61.8825 59.7762 62.027 59.7606 62.1257 59.8406C62.2245 59.9197 62.2401 60.0642 62.16 60.163L56.519 67.1654C56.4733 67.2215 56.4078 67.2507 56.3403 67.2507Z" fill="black"/>
<path d="M63.3409 71.1967C63.2941 71.1967 63.2473 71.1821 63.2068 71.153C63.1049 71.0792 63.082 70.9356 63.1558 70.8327L67.5485 64.7828C67.6233 64.6809 67.7657 64.657 67.8686 64.7319C67.9705 64.8057 67.9934 64.9492 67.9196 65.0521L63.5269 71.102C63.4822 71.1634 63.4126 71.1967 63.3419 71.1967H63.3409Z" fill="black"/>
<path d="M64.4135 57.5646C64.4135 57.5646 64.1972 56.5736 63.2212 56.532C62.2597 56.4904 61.3866 57.3493 61.2536 58.3018C61.1205 59.2554 61.6922 60.2453 62.556 60.6685C63.0435 60.9077 63.5206 61.0793 64.1328 60.9171C64.5018 62.0786 65.1161 63.1808 66.0152 64.0044C66.9143 64.828 68.1138 65.3531 69.332 65.3146C71.3704 65.2501 73.0979 63.628 73.9045 61.7542C74.7111 59.8803 74.7755 57.7819 74.8109 55.7428C74.8109 55.7428 71.8849 58.0076 67.7531 55.0897C67.1035 57.0093 66.0713 58.0252 64.4145 57.5646H64.4135Z" fill="white"/>
<path d="M69.2073 65.5441C68.0306 65.5441 66.8176 65.0492 65.8613 64.1726C65.0443 63.4249 64.3968 62.3944 63.981 61.183C63.3657 61.2818 62.874 61.078 62.4562 60.8731C61.4843 60.3969 60.8835 59.3019 61.0269 58.2693C61.1818 57.1588 62.189 56.2562 63.2305 56.3019C64.0444 56.3373 64.456 56.956 64.5974 57.374C65.9487 57.6912 66.8841 56.9383 67.5348 55.0146C67.5577 54.9459 67.6117 54.8929 67.6803 54.87C67.749 54.8482 67.8238 54.8596 67.883 54.9002C71.8308 57.688 74.6404 55.5803 74.6685 55.5595C74.7381 55.5054 74.8327 55.4971 74.9106 55.5355C74.9896 55.5751 75.0385 55.6562 75.0374 55.7445C75.0063 57.5768 74.9668 59.8572 74.1124 61.8433C73.1727 64.028 71.2986 65.4797 69.3372 65.5421C69.2935 65.5441 69.2488 65.5441 69.2052 65.5441H69.2073ZM64.1338 60.688C64.2315 60.688 64.3209 60.7504 64.3521 60.8482C64.7398 62.0679 65.3686 63.1015 66.1701 63.8357C67.0754 64.6644 68.2229 65.1168 69.3247 65.0856C71.3537 65.0211 72.9815 63.3199 73.6935 61.6634C74.4491 59.9061 74.5396 57.8679 74.5728 56.1553C73.6508 56.6523 71.1167 57.6069 67.8674 55.4461C67.117 57.4374 65.9351 58.2246 64.351 57.7847C64.27 57.7619 64.2076 57.6964 64.1889 57.6132C64.1806 57.5778 63.9924 56.7927 63.2108 56.7594C62.4104 56.7345 61.6017 57.4603 61.4801 58.3327C61.3627 59.175 61.8574 60.0703 62.6568 60.4613C63.1671 60.7119 63.5632 60.8315 64.0746 60.6953C64.0943 60.6901 64.1141 60.688 64.1328 60.688H64.1338Z" fill="black"/>
<path d="M63.9102 59.8274C63.8146 59.8274 63.7262 59.7682 63.694 59.6725C63.5256 59.1786 63.167 58.7491 62.7117 58.4943C62.6015 58.4319 62.562 58.2926 62.6234 58.1824C62.6847 58.0722 62.825 58.0337 62.9352 58.094C63.4871 58.4028 63.9216 58.9248 64.1264 59.5238C64.1669 59.6434 64.1035 59.7734 63.984 59.815C63.959 59.8233 63.9341 59.8274 63.9102 59.8274Z" fill="black"/>
<path d="M74.6955 56.0537C74.6113 56.0537 74.5303 56.0069 74.4908 55.9269C74.4346 55.8135 74.4804 55.6763 74.5937 55.6201C75.1404 55.3487 75.6113 54.94 75.9574 54.4367C76.0291 54.3328 76.1715 54.3057 76.2755 54.3785C76.3794 54.4503 76.4054 54.5927 76.3337 54.6967C75.9439 55.2634 75.4127 55.7241 74.7964 56.0298C74.7631 56.0464 74.7288 56.0537 74.6945 56.0537H74.6955Z" fill="black"/>
<path d="M57.6635 141.376L42.6853 168.3C41.2166 170.939 43.125 174.185 46.1445 174.185H89.0606C89.9909 174.185 90.4191 173.027 89.7123 172.422L77.5874 162.027L90.0657 139.798L57.6635 141.376Z" fill="white"/>
<path d="M89.0595 174.414H46.1434C44.6435 174.414 43.2943 173.641 42.5335 172.348C41.7736 171.054 41.7549 169.499 42.4846 168.187L57.4639 141.265C57.5023 141.196 57.5741 141.151 57.6531 141.147L90.0542 139.569C90.1384 139.565 90.2164 139.606 90.26 139.677C90.3037 139.747 90.3058 139.837 90.2652 139.91L77.8794 161.975L89.8609 172.247C90.2559 172.586 90.3952 173.121 90.2143 173.609C90.0335 174.098 89.5803 174.414 89.0595 174.414ZM57.8017 141.598L42.8848 168.411C42.2352 169.579 42.2518 170.964 42.9285 172.116C43.6051 173.268 44.8078 173.957 46.1434 173.957H89.0595C89.4566 173.957 89.6946 173.696 89.785 173.451C89.8755 173.207 89.864 172.854 89.5626 172.595L77.4376 162.201C77.3545 162.13 77.3337 162.01 77.3867 161.915L89.6624 140.047L57.8007 141.598H57.8017Z" fill="black"/>
<path d="M57.2227 164.76C52.9631 164.76 49.1422 164.347 45.6206 163.511C45.4979 163.482 45.421 163.358 45.4511 163.236C45.4802 163.113 45.6039 163.037 45.7266 163.066C50.166 164.121 55.0929 164.496 60.789 164.211C65.8479 163.959 70.9505 163.219 75.8857 162.503C76.0115 162.484 76.1269 162.571 76.1456 162.696C76.1632 162.821 76.077 162.937 75.9522 162.955C71.0066 163.672 65.8926 164.415 60.8119 164.668C59.5812 164.729 58.3858 164.76 57.2227 164.76Z" fill="black"/>
<path d="M79.3629 137.647L96.3077 169.88C97.6995 172.527 100.444 174.185 103.433 174.185H134.772C135.648 174.185 136.04 173.084 135.361 172.53L122.118 161.714L112.425 141.977L79.3618 137.646L79.3629 137.647Z" fill="white"/>
<path d="M134.772 174.414H103.433C100.349 174.414 97.5403 172.717 96.1049 169.987L79.1601 137.754C79.1206 137.678 79.1258 137.587 79.1746 137.517C79.2235 137.446 79.3066 137.408 79.3918 137.422L112.455 141.752C112.531 141.762 112.598 141.81 112.631 141.878L122.301 161.57L135.506 172.354C135.891 172.669 136.032 173.175 135.865 173.644C135.698 174.113 135.27 174.415 134.772 174.415V174.414ZM79.7702 137.932L96.5092 169.773C97.8657 172.353 100.518 173.956 103.432 173.956H134.771C135.137 173.956 135.353 173.715 135.433 173.489C135.513 173.263 135.498 172.94 135.216 172.708L121.972 161.892C121.946 161.872 121.926 161.846 121.912 161.817L112.273 142.19L79.7702 137.932Z" fill="black"/>
<path d="M103.658 164.558C100.11 164.558 96.5612 164.371 93.0229 163.999C92.8972 163.986 92.8057 163.873 92.8192 163.748C92.8327 163.622 92.9439 163.531 93.0707 163.544C102.496 164.537 112.008 164.199 121.34 162.54C121.465 162.517 121.583 162.602 121.605 162.725C121.627 162.85 121.545 162.969 121.42 162.991C115.548 164.035 109.605 164.558 103.657 164.558H103.658Z" fill="black"/>
<path d="M52.3125 146.941C52.3125 146.941 83.0495 156.12 114.028 142.828C114.028 142.828 105.999 127.784 99.3187 116.617C95.1589 109.664 87.6542 105.411 79.5549 105.411H27.812L24.3403 112.191C20.4653 119.76 25.4119 128.862 33.8698 129.718C44.6529 130.809 54.4038 131.452 62.106 131.209L52.3135 146.941H52.3125Z" fill="#91F2E2"/>
<path d="M84.7011 148.989C84.6658 148.989 84.6294 148.98 84.5961 148.963C84.4839 148.904 84.4392 148.766 84.4974 148.654C87.3745 143.077 89.6467 137.173 91.2495 131.104C92.3784 126.833 93.4084 121.33 91.3441 116.652C89.9658 113.527 87.2259 110.776 82.9684 108.24C82.8592 108.175 82.8239 108.035 82.8884 107.926C82.9528 107.817 83.0931 107.781 83.2023 107.846C87.544 110.433 90.3442 113.252 91.763 116.467C93.8845 121.275 92.8388 126.878 91.6923 131.222C90.0812 137.321 87.7966 143.258 84.9038 148.864C84.8633 148.943 84.7832 148.988 84.7001 148.988L84.7011 148.989Z" fill="black"/>
<path d="M62.3606 131.341C62.2369 131.341 62.1351 131.243 62.132 131.119C62.1278 130.992 62.2276 130.887 62.3544 130.883L68.7926 130.693C68.9163 130.693 69.0244 130.789 69.0286 130.916C69.0328 131.043 68.933 131.148 68.8062 131.152L62.3679 131.341H62.3606Z" fill="black"/>
<path d="M27.811 105.41H54.1721L58.1313 97.5194C58.1313 97.5194 63.3284 102.869 69.9538 101.956C76.5791 101.043 83.8281 95.3264 90.0658 95.3836C90.0658 95.3836 91.8692 95.7673 92.8442 97.2636C93.8191 98.761 95.2442 98.5364 95.4885 97.5839C95.7327 96.6314 94.1289 93.9246 94.1289 93.9246C94.1289 93.9246 94.9667 95.1496 96.1111 97.2127C96.9957 98.8068 97.9675 97.1035 97.9675 97.1035C97.9675 97.1035 99.4695 96.1125 99.0413 93.7063C99.0413 93.7063 99.5994 92.9597 99.3167 91.9281C99.034 90.8966 96.0851 85.193 87.9245 86.2557C82.5829 86.9514 77.4491 88.2325 74.5398 89.0352C72.9484 89.4741 71.2541 88.8481 70.3321 87.4786C69.5588 86.3306 68.7033 84.8301 68.1524 83.1736C66.6681 78.7136 64.8231 67.7598 58.5429 67.7536C53.8104 67.7484 49.6329 68.9993 38.5182 86.2557C30.841 98.1745 27.8121 105.411 27.8121 105.411L27.811 105.41Z" fill="white"/>
<path d="M27.8111 105.64C27.782 105.64 27.7519 105.635 27.7227 105.622C27.6063 105.574 27.5512 105.439 27.6001 105.323C27.6302 105.25 30.7257 97.9317 38.325 86.1324C49.4354 68.8833 53.7106 67.5253 58.517 67.5253H58.5429C63.9761 67.5305 66.1589 75.3335 67.6026 80.4975C67.8854 81.5092 68.1296 82.3827 68.3697 83.1023C68.8292 84.4832 69.5537 85.913 70.5224 87.3522C71.3903 88.6416 72.9796 89.2302 74.4795 88.8163C77.1446 88.0811 82.4312 86.7418 87.8955 86.0305C95.9448 84.9824 99.1265 90.3699 99.5382 91.8693C99.7939 92.8 99.4311 93.5185 99.2835 93.7598C99.6463 96.0111 98.4041 97.0686 98.1401 97.2651C98.0195 97.4606 97.5653 98.1261 96.95 98.1261H96.9448C96.5519 98.1241 96.2047 97.8547 95.9116 97.3275C95.8378 97.1944 95.765 97.0655 95.6943 96.9397C95.7474 97.2111 95.7588 97.4544 95.7099 97.6447C95.5862 98.1251 95.2006 98.4745 94.7017 98.5566C93.972 98.6773 93.2039 98.2416 92.6509 97.392C91.7923 96.0745 90.2352 95.6627 90.0377 95.6149C86.7178 95.592 83.0101 97.2703 79.4179 98.8915C76.2923 100.303 73.0607 101.761 69.984 102.186C64.1029 102.999 59.2841 98.9102 58.1958 97.9015L54.3759 105.515C54.3197 105.629 54.1825 105.674 54.0682 105.617C53.9549 105.56 53.9092 105.423 53.9663 105.31L57.9255 97.4201C57.9588 97.3535 58.0222 97.3078 58.095 97.2963C58.1677 97.2849 58.2426 97.3098 58.2935 97.3629C58.3444 97.4159 63.4896 102.617 69.9206 101.732C72.9329 101.317 76.1333 99.872 79.2287 98.4745C82.874 96.8284 86.6346 95.1261 90.0658 95.1573C90.0814 95.1573 90.096 95.1594 90.1115 95.1625C90.1885 95.1792 92.0189 95.5837 93.0344 97.1424C93.5656 97.9577 94.2059 98.175 94.6268 98.1053C94.948 98.0523 95.1871 97.8381 95.2661 97.5313C95.4272 96.9043 94.5333 95.0606 93.9315 94.0457C93.8681 93.9397 93.9013 93.8024 94.0053 93.7359C94.1092 93.6693 94.2475 93.6984 94.3171 93.8003C94.3254 93.8128 95.1736 95.0586 96.3107 97.1071C96.4531 97.3629 96.6787 97.6686 96.9458 97.6707H96.9489C97.3023 97.6707 97.6599 97.184 97.768 96.9958C97.7857 96.9646 97.8106 96.9386 97.8408 96.9189C97.8959 96.8814 99.2097 95.9705 98.8158 93.7525C98.8043 93.6901 98.8199 93.6256 98.8573 93.5757C98.8771 93.5497 99.3428 92.8988 99.0954 91.9951C98.7295 90.662 95.5977 85.494 87.9537 86.4891C82.5175 87.1973 77.2538 88.5303 74.6001 89.2624C72.911 89.7283 71.1201 89.0648 70.142 87.6122C69.1504 86.1387 68.4072 84.6714 67.9353 83.252C67.692 82.5221 67.4467 81.6434 67.1619 80.6264C65.7545 75.5956 63.6279 67.9942 58.5419 67.989H58.518C53.8572 67.989 49.6963 69.3305 38.7095 86.3872C31.131 98.1532 28.0522 105.434 28.0221 105.506C27.9857 105.593 27.9005 105.646 27.8111 105.646V105.64Z" fill="black"/>
<path d="M98.0196 97.2316C98.0196 97.2316 98.0123 97.2316 98.0081 97.2316C97.8813 97.2253 97.7846 97.1182 97.7909 96.9914C97.8709 95.3619 97.2483 93.6815 96.1257 92.4971C96.0384 92.4056 96.0426 92.26 96.134 92.1737C96.2255 92.0864 96.371 92.0905 96.4573 92.182C97.6641 93.4548 98.3335 95.261 98.2472 97.0132C98.241 97.1359 98.1401 97.2305 98.0185 97.2305L98.0196 97.2316Z" fill="black"/>
<path d="M99.0549 94.0288C98.9593 94.0288 98.8699 93.9674 98.8377 93.8718C98.4146 92.5969 97.6714 91.4406 96.6871 90.5276C96.5946 90.4413 96.5894 90.2967 96.6746 90.2042C96.7609 90.1116 96.9053 90.1064 96.9979 90.1917C98.0383 91.1567 98.8252 92.3796 99.2721 93.7272C99.3116 93.8468 99.2472 93.9768 99.1266 94.0173C99.1027 94.0257 99.0788 94.0288 99.0549 94.0288Z" fill="black"/>
<path d="M83.5632 97.0488C83.4572 97.0488 83.3626 96.975 83.3397 96.8679L81.3066 87.4229C81.2795 87.2991 81.3585 87.1775 81.4822 87.1504C81.6049 87.1234 81.7275 87.2024 81.7546 87.3262L83.7877 96.7712C83.8147 96.8949 83.7357 97.0166 83.612 97.0436C83.5954 97.0468 83.5798 97.0488 83.5632 97.0488Z" fill="black"/>
<path d="M57.4796 97.3544C57.4151 97.3544 57.3507 97.3273 57.3049 97.2743C53.327 92.6178 50.6235 86.9745 49.4863 80.9548C49.4624 80.83 49.5445 80.7105 49.6693 80.6876C49.793 80.6647 49.9135 80.7458 49.9364 80.8696C51.0579 86.8102 53.7272 92.3797 57.6531 96.9769C57.7352 97.0726 57.7238 97.2171 57.6282 97.2993C57.5845 97.3357 57.5326 97.3544 57.4796 97.3544Z" fill="black"/>
</svg>
