<svg width="466" height="428" viewBox="0 0 466 428" fill="none" xmlns="http://www.w3.org/2000/svg">
<path d="M421.221 357.246C421.099 357.036 420.961 356.842 420.818 356.653C422.559 354.947 424.008 353.013 425.139 350.925C425.36 351.013 425.585 351.09 425.82 351.152C428.972 351.97 432.19 350.078 433.006 346.926C433.823 343.774 431.931 340.555 428.779 339.737C428.544 339.676 428.309 339.635 428.075 339.604C428.1 337.229 427.775 334.833 427.081 332.496C427.298 332.401 427.513 332.297 427.721 332.175C430.528 330.525 431.465 326.91 429.813 324.103C428.162 321.297 424.549 320.359 421.742 322.008C421.534 322.131 421.338 322.269 421.15 322.412C419.444 320.669 417.511 319.219 415.423 318.087C415.509 317.867 415.587 317.642 415.648 317.407C416.465 314.255 414.572 311.036 411.421 310.217C408.269 309.399 405.051 311.292 404.234 314.443C404.174 314.678 404.132 314.912 404.101 315.147C401.726 315.121 399.332 315.446 396.995 316.14C396.9 315.923 396.796 315.708 396.674 315.5C395.022 312.693 391.409 311.755 388.602 313.404C385.796 315.054 384.859 318.669 386.51 321.476C386.633 321.684 386.771 321.88 386.914 322.069C385.173 323.775 383.724 325.709 382.592 327.796C382.372 327.709 382.147 327.632 381.912 327.57C378.76 326.752 375.542 328.644 374.725 331.796C373.909 334.947 375.801 338.167 378.953 338.985C379.188 339.046 379.423 339.087 379.657 339.118C379.632 341.493 379.957 343.888 380.651 346.226C380.434 346.321 380.219 346.424 380.01 346.547C377.204 348.197 376.267 351.812 377.918 354.618C379.57 357.425 383.183 358.363 385.989 356.713C386.198 356.591 386.393 356.453 386.581 356.31C388.287 358.053 390.221 359.503 392.309 360.634C392.223 360.855 392.145 361.08 392.084 361.315C391.267 364.467 393.16 367.686 396.311 368.504C399.463 369.323 402.681 367.43 403.497 364.279C403.558 364.043 403.6 363.81 403.631 363.574C406.005 363.601 408.399 363.275 410.737 362.582C410.832 362.799 410.935 363.014 411.058 363.222C412.709 366.029 416.323 366.967 419.129 365.317C421.936 363.668 422.873 360.053 421.221 357.246ZM394.429 344.909C391.363 339.695 393.103 332.985 398.314 329.921C403.526 326.857 410.237 328.598 413.303 333.812C416.368 339.026 414.628 345.736 409.417 348.801C404.206 351.865 397.495 350.123 394.429 344.909Z" fill="#91F2E2"/>
<path d="M443.18 307.804C443.13 307.647 443.069 307.498 443.002 307.353C444.407 306.489 445.652 305.429 446.712 304.22C446.843 304.311 446.981 304.397 447.126 304.472C449.082 305.484 451.489 304.718 452.5 302.76C453.51 300.803 452.744 298.397 450.788 297.385C450.642 297.309 450.494 297.247 450.343 297.191C450.716 295.628 450.859 293.999 450.751 292.353C450.908 292.323 451.066 292.286 451.222 292.236C453.32 291.567 454.48 289.324 453.811 287.224C453.142 285.125 450.899 283.965 448.801 284.634C448.644 284.684 448.495 284.745 448.35 284.811C447.486 283.406 446.426 282.16 445.219 281.1C445.309 280.969 445.395 280.831 445.469 280.685C446.479 278.727 445.713 276.321 443.757 275.309C441.8 274.297 439.394 275.064 438.383 277.021C438.308 277.168 438.246 277.316 438.189 277.467C436.627 277.094 434.998 276.95 433.353 277.057C433.323 276.9 433.286 276.742 433.236 276.586C432.567 274.487 430.324 273.327 428.226 273.995C426.128 274.664 424.968 276.907 425.637 279.007C425.687 279.164 425.747 279.313 425.814 279.458C424.41 280.322 423.164 281.382 422.105 282.589C421.973 282.499 421.835 282.413 421.689 282.337C419.731 281.325 417.326 282.092 416.315 284.049C415.305 286.007 416.071 288.413 418.027 289.425C418.173 289.5 418.321 289.562 418.472 289.618C418.1 291.181 417.956 292.81 418.064 294.457C417.907 294.486 417.749 294.523 417.593 294.574C415.495 295.242 414.335 297.485 415.004 299.585C415.673 301.684 417.916 302.844 420.014 302.176C420.171 302.125 420.32 302.065 420.465 301.998C421.329 303.404 422.389 304.65 423.596 305.709C423.506 305.841 423.42 305.978 423.346 306.125C422.336 308.082 423.102 310.488 425.058 311.5C427.016 312.512 429.421 311.746 430.432 309.788C430.507 309.642 430.569 309.494 430.626 309.343C432.188 309.716 433.817 309.859 435.462 309.753C435.492 309.909 435.529 310.068 435.579 310.223C436.248 312.323 438.491 313.483 440.589 312.814C442.687 312.145 443.847 309.902 443.179 307.803L443.18 307.804ZM427.351 295.652C426.11 291.753 428.263 287.587 432.16 286.346C436.057 285.104 440.224 287.258 441.465 291.157C442.707 295.056 440.554 299.222 436.656 300.464C432.759 301.705 428.593 299.551 427.351 295.652Z" fill="#91F2E2"/>
<path d="M356.239 325.01H363.766C367.54 325.01 370.6 328.07 370.6 331.844C370.6 335.619 367.54 338.679 363.766 338.679H222.996C219.222 338.679 216.162 335.619 216.162 331.844C216.162 328.07 219.222 325.01 222.996 325.01H356.239Z" fill="white"/>
<path d="M363.766 339.006H222.996C219.047 339.006 215.836 335.794 215.836 331.846C215.836 327.899 219.049 324.687 222.996 324.687H229.922C230.103 324.687 230.248 324.832 230.248 325.012C230.248 325.193 230.101 325.338 229.922 325.338H222.996C219.407 325.338 216.487 328.257 216.487 331.846C216.487 335.436 219.408 338.355 222.996 338.355H363.766C367.355 338.355 370.274 335.436 370.274 331.846C370.274 328.257 367.354 325.338 363.766 325.338H356.238C356.057 325.338 355.912 325.193 355.912 325.012C355.912 324.832 356.059 324.687 356.238 324.687H363.766C367.715 324.687 370.925 327.899 370.925 331.846C370.925 335.794 367.713 339.006 363.766 339.006Z" fill="black"/>
<path d="M361.847 297.688H224.915V325.027H361.847V297.688Z" fill="white"/>
<path d="M361.847 325.353H224.915C224.735 325.353 224.59 325.208 224.59 325.027V297.687C224.59 297.507 224.736 297.362 224.915 297.362C225.094 297.362 225.241 297.507 225.241 297.687V324.702H361.521V297.687C361.521 297.507 361.668 297.362 361.847 297.362C362.026 297.362 362.172 297.507 362.172 297.687V325.027C362.172 325.208 362.026 325.353 361.847 325.353Z" fill="black"/>
<path d="M432.215 283.218L154.66 282.705L152.265 285.382V288.683C152.265 293.656 156.286 297.687 161.247 297.687H425.517C430.478 297.687 434.499 293.656 434.499 288.683V285.382L432.215 283.218Z" fill="white"/>
<path d="M425.517 298.012H161.247C156.115 298.012 151.939 293.826 151.939 288.682V285.381C151.939 285.301 151.969 285.224 152.022 285.164L154.418 282.487C154.48 282.417 154.567 282.379 154.66 282.379L432.215 282.892C432.298 282.892 432.378 282.925 432.438 282.981L434.723 285.144C434.788 285.205 434.825 285.291 434.825 285.381V288.682C434.825 293.826 430.649 298.012 425.517 298.012ZM152.59 285.505V288.68C152.59 293.467 156.474 297.36 161.247 297.36H425.517C430.29 297.36 434.174 293.465 434.174 288.68V285.52L432.086 283.542L154.807 283.03L152.592 285.505H152.59Z" fill="black"/>
<path d="M160.483 116.622H426.282C430.817 116.622 434.499 120.305 434.499 124.84V285.381H152.265V124.84C152.265 120.305 155.948 116.622 160.483 116.622Z" fill="white"/>
<path d="M434.499 285.707H152.265C152.084 285.707 151.939 285.562 151.939 285.382V124.841C151.939 120.129 155.771 116.297 160.482 116.297H426.282C430.993 116.297 434.825 120.129 434.825 124.841V285.382C434.825 285.562 434.678 285.707 434.499 285.707ZM152.59 285.056H434.172V124.841C434.172 120.489 430.632 116.948 426.28 116.948H160.482C156.131 116.948 152.59 120.489 152.59 124.841V285.056Z" fill="black"/>
<path d="M161.904 174.31C161.724 174.31 161.579 174.165 161.579 173.984V127.108C161.579 126.475 162.094 125.96 162.727 125.96H298.143C298.324 125.96 298.469 126.105 298.469 126.285C298.469 126.466 298.322 126.611 298.143 126.611H162.727C162.453 126.611 162.23 126.833 162.23 127.108V173.984C162.23 174.165 162.083 174.31 161.904 174.31Z" fill="black"/>
<path d="M424.858 276.044H210.235C210.054 276.044 209.909 275.899 209.909 275.718C209.909 275.538 210.056 275.393 210.235 275.393H424.533V127.108C424.533 126.834 424.309 126.611 424.036 126.611H383.97C383.789 126.611 383.644 126.466 383.644 126.285C383.644 126.105 383.791 125.96 383.97 125.96H424.036C424.669 125.96 425.184 126.475 425.184 127.108V275.717C425.184 275.897 425.037 276.042 424.858 276.042V276.044Z" fill="black"/>
<path d="M215.99 200.162C233.033 200.162 246.85 186.363 246.85 169.341C246.85 152.319 233.033 138.52 215.99 138.52C198.947 138.52 185.13 152.319 185.13 169.341C185.13 186.363 198.947 200.162 215.99 200.162Z" fill="#91F2E2"/>
<mask id="mask0_765_5215" style="mask-type:luminance" maskUnits="userSpaceOnUse" x="186" y="144" width="36" height="36">
<path d="M216.127 174.364C222.919 167.572 222.919 156.56 216.127 149.768C209.335 142.975 198.323 142.975 191.53 149.768C184.738 156.56 184.738 167.572 191.53 174.364C198.323 181.157 209.335 181.157 216.127 174.364Z" fill="white"/>
</mask>
<g mask="url(#mask0_765_5215)">
<path d="M203.829 147.245C198.659 147.245 194.377 152.497 194.039 159.252L192.957 180.87H214.7L213.618 159.252C213.281 152.497 208.997 147.243 203.828 147.243L203.829 147.245Z" fill="white"/>
<path d="M214.701 181.195H192.959C192.87 181.195 192.784 181.158 192.723 181.094C192.663 181.03 192.63 180.942 192.635 180.853L193.716 159.235C194.062 152.328 198.504 146.917 203.831 146.917C209.157 146.917 213.6 152.328 213.945 159.235L215.027 180.853C215.031 180.942 214.999 181.029 214.938 181.094C214.877 181.159 214.792 181.195 214.703 181.195H214.701ZM193.3 180.544H214.359L213.296 159.267C212.967 152.708 208.81 147.569 203.831 147.569C198.852 147.569 194.694 152.708 194.366 159.267L193.302 180.544H193.3Z" fill="black"/>
<path d="M219.174 175.666C218.419 173.058 216.311 171.063 213.666 170.454L208.07 169.165V162.099H199.587V169.165L193.991 170.454C191.346 171.063 189.238 173.058 188.483 175.666L186.348 186.944H221.308L219.173 175.666H219.174Z" fill="white"/>
<path d="M221.309 187.27H186.351C186.253 187.27 186.161 187.227 186.1 187.151C186.038 187.076 186.013 186.978 186.031 186.884L188.166 175.606C188.959 172.857 191.162 170.772 193.92 170.138L199.263 168.907V162.099C199.263 161.918 199.409 161.773 199.588 161.773H208.071C208.251 161.773 208.396 161.918 208.396 162.099V168.907L213.739 170.138C216.497 170.772 218.7 172.857 219.486 175.577C219.489 175.587 219.492 175.597 219.493 175.606L221.628 186.884C221.646 186.978 221.621 187.077 221.559 187.151C221.497 187.227 221.405 187.27 221.309 187.27ZM186.743 186.617H220.915L218.857 175.741C218.132 173.255 216.117 171.352 213.593 170.771L207.997 169.482C207.849 169.448 207.744 169.316 207.744 169.165V162.424H199.912V169.165C199.912 169.318 199.807 169.448 199.659 169.482L194.064 170.771C191.535 171.354 189.517 173.264 188.795 175.756L186.74 186.617H186.743Z" fill="black"/>
<path d="M210.934 156.595C210.625 156.518 210.313 156.548 210.023 156.659C209.776 152.734 207.099 150.072 203.831 150.072C200.562 150.072 197.884 152.734 197.639 156.659C197.349 156.548 197.035 156.518 196.727 156.595C195.81 156.823 195.285 157.885 195.553 158.967C195.822 160.049 196.784 160.741 197.701 160.513C197.849 160.476 197.985 160.416 198.111 160.34C199.056 163.239 201.261 165.458 203.831 165.458C206.401 165.458 208.605 163.239 209.551 160.34C209.677 160.417 209.813 160.478 209.961 160.513C210.878 160.741 211.84 160.049 212.109 158.967C212.378 157.885 211.852 156.823 210.934 156.595Z" fill="white"/>
<path d="M203.829 165.782C201.358 165.782 199.019 163.789 197.92 160.787C197.873 160.803 197.825 160.816 197.778 160.83C197.239 160.963 196.677 160.844 196.192 160.497C195.724 160.159 195.384 159.645 195.234 159.047C195.085 158.449 195.146 157.835 195.402 157.317C195.666 156.782 196.109 156.413 196.647 156.28C196.875 156.224 197.111 156.213 197.346 156.247C197.745 152.458 200.42 149.748 203.829 149.748C207.238 149.748 209.913 152.458 210.314 156.247C210.55 156.213 210.785 156.224 211.013 156.28C211.551 156.413 211.994 156.782 212.259 157.317C212.515 157.834 212.574 158.448 212.426 159.047C212.114 160.301 210.974 161.102 209.882 160.83C209.835 160.818 209.788 160.803 209.74 160.787C208.641 163.79 206.302 165.782 203.831 165.782H203.829ZM198.109 160.013C198.148 160.013 198.186 160.02 198.222 160.034C198.315 160.068 198.387 160.143 198.419 160.238C199.373 163.164 201.548 165.131 203.829 165.131C206.111 165.131 208.286 163.164 209.24 160.238C209.271 160.143 209.344 160.068 209.437 160.034C209.53 160 209.634 160.01 209.72 160.062C209.823 160.125 209.931 160.171 210.039 160.198C210.782 160.381 211.568 159.795 211.793 158.89C211.904 158.442 211.862 157.986 211.674 157.607C211.495 157.246 211.205 156.999 210.856 156.913C210.625 156.856 210.378 156.873 210.14 156.965C210.044 157.002 209.934 156.992 209.847 156.935C209.76 156.879 209.705 156.784 209.697 156.681C209.47 153.041 207.002 150.4 203.831 150.4C200.66 150.4 198.192 153.041 197.964 156.681C197.958 156.784 197.902 156.878 197.815 156.934C197.728 156.99 197.62 157.002 197.522 156.964C197.284 156.872 197.037 156.854 196.806 156.912C196.457 156.999 196.165 157.245 195.988 157.606C195.8 157.984 195.758 158.44 195.869 158.888C195.98 159.337 196.232 159.72 196.573 159.967C196.9 160.202 197.273 160.284 197.623 160.196C197.732 160.17 197.836 160.125 197.942 160.06C197.994 160.029 198.052 160.013 198.111 160.013H198.109Z" fill="black"/>
<path d="M197.533 157.645C200.63 157.062 203.859 154.304 205.795 151.818C206.174 154.024 208.129 156.603 210.175 157.508C210.175 157.508 211.15 148.724 203.829 149.007C196.508 149.289 197.533 157.643 197.533 157.643V157.645Z" fill="white"/>
<path d="M197.534 157.971C197.466 157.971 197.398 157.948 197.341 157.909C197.269 157.855 197.221 157.775 197.21 157.685C197.202 157.624 197.031 156.18 197.352 154.451C197.384 154.275 197.553 154.155 197.732 154.19C197.908 154.223 198.025 154.393 197.992 154.571C197.781 155.711 197.799 156.732 197.828 157.25C200.841 156.522 203.841 153.798 205.538 151.62C205.618 151.518 205.75 151.474 205.874 151.505C205.998 151.536 206.095 151.638 206.115 151.765C206.451 153.717 208.12 156 209.882 156.999C209.906 156.402 209.902 155.321 209.668 154.158C209.632 153.982 209.746 153.81 209.922 153.775C210.098 153.739 210.27 153.853 210.305 154.029C210.678 155.871 210.507 157.479 210.499 157.546C210.487 157.65 210.428 157.741 210.338 157.793C210.248 157.845 210.138 157.851 210.044 157.808C208.125 156.959 206.262 154.693 205.63 152.541C203.736 154.793 200.662 157.388 197.593 157.966C197.572 157.971 197.553 157.972 197.532 157.972L197.534 157.971Z" fill="black"/>
</g>
<mask id="mask1_765_5215" style="mask-type:luminance" maskUnits="userSpaceOnUse" x="210" y="150" width="36" height="36">
<path d="M227.889 185.649C237.639 185.649 245.542 177.779 245.542 168.07C245.542 158.362 237.639 150.491 227.889 150.491C218.14 150.491 210.236 158.362 210.236 168.07C210.236 177.779 218.14 185.649 227.889 185.649Z" fill="white"/>
</mask>
<g mask="url(#mask1_765_5215)">
<path d="M243.465 181.815C242.699 179.179 240.559 177.164 237.874 176.547L232.194 175.245V168.101H223.584V175.245L217.904 176.547C215.218 177.162 213.079 179.179 212.312 181.815L210.146 193.214H245.631L243.465 181.815Z" fill="white"/>
<path d="M245.631 193.54H210.146C210.049 193.54 209.957 193.497 209.895 193.422C209.833 193.346 209.807 193.248 209.825 193.154L211.993 181.755C212.798 178.978 215.032 176.872 217.831 176.23L223.258 174.986V168.103C223.258 167.922 223.405 167.777 223.584 167.777H232.194C232.374 167.777 232.519 167.922 232.519 168.103V174.986L237.946 176.23C240.744 176.872 242.978 178.978 243.777 181.724C243.78 181.734 243.783 181.745 243.785 181.754L245.952 193.152C245.97 193.247 245.945 193.346 245.883 193.42C245.821 193.496 245.729 193.538 245.631 193.538V193.54ZM210.54 192.889H245.238L243.147 181.891C242.412 179.377 240.364 177.452 237.8 176.865L232.12 175.563C231.972 175.529 231.867 175.397 231.867 175.246V168.428H223.908V175.246C223.908 175.399 223.803 175.529 223.655 175.563L217.975 176.865C215.406 177.454 213.355 179.386 212.625 181.906L210.538 192.887L210.54 192.889Z" fill="black"/>
<path d="M235.032 162.672C234.721 162.595 234.407 162.625 234.116 162.736C233.869 158.807 231.177 156.143 227.891 156.143C224.605 156.143 221.914 158.807 221.666 162.736C221.375 162.625 221.06 162.595 220.751 162.672C219.829 162.9 219.299 163.964 219.57 165.047C219.841 166.13 220.807 166.822 221.729 166.594C221.878 166.557 222.014 166.497 222.141 166.42C223.091 169.321 225.308 171.542 227.891 171.542C230.474 171.542 232.691 169.321 233.641 166.42C233.767 166.497 233.904 166.557 234.054 166.594C234.975 166.822 235.943 166.13 236.214 165.047C236.484 163.964 235.956 162.901 235.033 162.672H235.032Z" fill="white"/>
<path d="M227.89 171.868C225.407 171.868 223.056 169.873 221.95 166.867C221.903 166.883 221.854 166.898 221.805 166.91C220.709 167.181 219.565 166.38 219.252 165.125C219.087 164.467 219.179 163.779 219.503 163.239C219.774 162.789 220.188 162.476 220.669 162.356C220.898 162.299 221.137 162.289 221.372 162.323C221.773 158.529 224.461 155.816 227.888 155.816C231.315 155.816 234.003 158.529 234.406 162.323C234.642 162.289 234.879 162.298 235.108 162.356C235.589 162.474 236.004 162.789 236.274 163.239C236.598 163.779 236.692 164.466 236.526 165.125C236.212 166.38 235.067 167.181 233.972 166.91C233.923 166.898 233.876 166.883 233.827 166.867C232.722 169.873 230.371 171.868 227.888 171.868H227.89ZM222.14 166.093C222.178 166.093 222.217 166.101 222.254 166.114C222.347 166.148 222.42 166.223 222.451 166.318C223.411 169.248 225.596 171.217 227.891 171.217C230.186 171.217 232.373 169.249 233.331 166.318C233.363 166.223 233.435 166.148 233.528 166.114C233.621 166.078 233.725 166.089 233.811 166.14C233.916 166.204 234.024 166.25 234.132 166.277C234.879 166.462 235.671 165.874 235.897 164.967C236.02 164.474 235.955 163.967 235.72 163.575C235.538 163.273 235.267 163.066 234.955 162.987C234.721 162.93 234.472 162.948 234.233 163.039C234.136 163.076 234.027 163.064 233.94 163.008C233.852 162.952 233.798 162.859 233.79 162.755C233.561 159.111 231.08 156.467 227.89 156.467C224.7 156.467 222.22 159.111 221.99 162.755C221.984 162.859 221.928 162.952 221.841 163.008C221.754 163.064 221.646 163.076 221.549 163.039C221.31 162.948 221.06 162.93 220.827 162.987C220.515 163.064 220.245 163.273 220.063 163.575C219.826 163.967 219.762 164.474 219.885 164.967C220.111 165.874 220.903 166.462 221.65 166.277C221.76 166.25 221.865 166.204 221.973 166.14C222.024 166.109 222.082 166.093 222.141 166.093H222.14Z" fill="black"/>
<path d="M227.89 171.868C225.312 171.868 222.878 169.719 221.829 166.52C221.773 166.349 221.866 166.165 222.038 166.109C222.209 166.053 222.393 166.146 222.449 166.318C223.409 169.247 225.595 171.217 227.89 171.217C230.184 171.217 232.371 169.249 233.33 166.318C233.386 166.148 233.57 166.054 233.741 166.109C233.911 166.165 234.005 166.349 233.95 166.52C232.902 169.719 230.467 171.868 227.89 171.868Z" fill="black"/>
<path d="M221.396 155.015C219.829 156.879 219.796 159.92 221.307 162.647C221.823 163.251 222.338 163.854 222.855 164.458C222.838 160.055 223.572 158.87 224.284 158.652C225.46 158.294 226.851 160.49 229.4 160.435C229.789 160.426 230.659 160.396 231.191 159.803C231.649 159.291 231.58 158.665 231.717 158.652C231.945 158.63 232.356 159.828 233.147 164.458C233.656 163.85 234.166 163.242 234.675 162.634C234.953 161.577 235.209 160.191 235.227 158.557C235.251 156.35 234.829 154.537 234.432 153.297C234.098 154.119 233.527 155.108 232.546 155.431C230.488 156.109 228.945 153.092 225.648 153.099C224.087 153.102 222.42 153.798 221.394 155.017L221.396 155.015Z" fill="white"/>
<path d="M222.854 164.784C222.761 164.784 222.669 164.744 222.607 164.67L221.059 162.859C221.045 162.843 221.033 162.825 221.022 162.806C219.454 159.975 219.503 156.761 221.147 154.807C222.199 153.555 223.924 152.775 225.649 152.772H225.661C227.422 152.772 228.676 153.567 229.783 154.27C230.786 154.906 231.578 155.408 232.446 155.122C233.131 154.897 233.698 154.242 234.133 153.175C234.185 153.048 234.315 152.963 234.447 152.972C234.584 152.977 234.703 153.068 234.744 153.199C235.3 154.94 235.573 156.744 235.553 158.562C235.539 159.96 235.349 161.359 234.991 162.718C234.979 162.764 234.957 162.807 234.926 162.844L233.398 164.668C233.316 164.766 233.185 164.806 233.063 164.773C232.941 164.739 232.849 164.639 232.827 164.513C232.312 161.499 231.983 160.099 231.785 159.45C231.711 159.633 231.603 159.833 231.434 160.021C230.798 160.731 229.789 160.753 229.409 160.761C227.905 160.789 226.802 160.107 225.914 159.556C225.273 159.16 224.767 158.845 224.38 158.963C223.925 159.101 223.165 159.999 223.181 164.455C223.181 164.591 223.097 164.714 222.97 164.762C222.933 164.775 222.894 164.782 222.856 164.782L222.854 164.784ZM231.778 158.322C232.121 158.322 232.469 158.7 233.349 163.711L234.379 162.48C234.712 161.194 234.888 159.874 234.901 158.553C234.916 157.084 234.734 155.622 234.357 154.199C233.896 154.999 233.324 155.516 232.648 155.739C231.488 156.121 230.489 155.489 229.431 154.819C228.398 154.165 227.229 153.423 225.658 153.423H225.648C224.109 153.426 222.575 154.117 221.642 155.226C220.178 156.969 220.149 159.872 221.573 162.461L222.533 163.584C222.6 160.336 223.131 158.663 224.187 158.342C224.858 158.139 225.504 158.54 226.254 159.004C227.112 159.536 228.085 160.138 229.392 160.111C229.696 160.105 230.499 160.088 230.948 159.587C231.172 159.336 231.24 159.043 231.291 158.828C231.337 158.629 231.4 158.356 231.687 158.33C231.718 158.327 231.748 158.324 231.778 158.324V158.322Z" fill="black"/>
</g>
<mask id="mask2_765_5215" style="mask-type:luminance" maskUnits="userSpaceOnUse" x="198" y="162" width="36" height="35">
<path d="M215.99 196.785C225.571 196.785 233.338 189.028 233.338 179.459C233.338 169.89 225.571 162.133 215.99 162.133C206.409 162.133 198.642 169.89 198.642 179.459C198.642 189.028 206.409 196.785 215.99 196.785Z" fill="white"/>
</mask>
<g mask="url(#mask2_765_5215)">
<path d="M225.368 171.255C225.626 170.791 225.775 170.258 225.775 169.69C225.775 167.907 224.328 166.461 222.542 166.461C222.209 166.461 221.888 166.512 221.585 166.605C221.601 166.467 221.612 166.328 221.612 166.186C221.612 164.232 220.025 162.648 218.069 162.648C216.454 162.648 215.092 163.73 214.668 165.208C214.117 164.671 213.366 164.34 212.534 164.34C210.936 164.34 209.627 165.565 209.492 167.126C209.016 166.819 208.449 166.639 207.841 166.639C206.153 166.639 204.786 168.005 204.786 169.69C204.786 170.649 205.23 171.504 205.922 172.063C204.354 172.464 203.192 173.881 203.192 175.573C203.192 176.922 203.932 178.097 205.025 178.721C204.873 179.056 204.786 179.427 204.786 179.819C204.786 181.285 205.975 182.472 207.443 182.472C207.745 182.472 208.035 182.419 208.306 182.325C208.264 182.509 208.24 182.698 208.24 182.895C208.24 184.313 209.39 185.461 210.809 185.461C212.228 185.461 213.378 184.313 213.378 182.895C213.378 181.478 216.124 181.056 216.124 182.692C216.124 184.329 217.452 185.656 219.09 185.656C220.728 185.656 222.057 184.329 222.057 182.692C222.057 182.365 222.002 182.05 221.903 181.756C221.955 181.759 222.005 181.763 222.057 181.763C223.622 181.763 224.89 180.495 224.89 178.933C224.89 178.871 224.884 178.81 224.881 178.749C224.929 178.751 224.976 178.757 225.023 178.757C227.102 178.757 228.788 177.073 228.788 174.997C228.788 173.038 227.286 171.43 225.37 171.255H225.368Z" fill="white"/>
<path d="M219.089 185.981C217.273 185.981 215.797 184.506 215.797 182.692C215.797 182.451 215.718 182.266 215.564 182.143C215.418 182.026 215.202 181.963 214.955 181.963C214.35 181.963 213.702 182.337 213.702 182.895C213.702 184.489 212.404 185.786 210.807 185.786C209.211 185.786 207.913 184.49 207.913 182.895C207.913 182.849 207.913 182.803 207.916 182.757C207.758 182.783 207.6 182.796 207.441 182.796C205.798 182.796 204.459 181.46 204.459 179.817C204.459 179.487 204.513 179.165 204.62 178.853C203.529 178.122 202.864 176.889 202.864 175.571C202.864 173.957 203.843 172.528 205.305 171.924C204.762 171.311 204.459 170.523 204.459 169.69C204.459 167.827 205.975 166.312 207.839 166.312C208.326 166.312 208.804 166.417 209.244 166.618C209.597 165.124 210.958 164.011 212.534 164.011C213.255 164.011 213.944 164.237 214.52 164.655C215.123 163.259 216.522 162.32 218.069 162.32C220.203 162.32 221.937 164.052 221.937 166.183C222.135 166.149 222.338 166.133 222.541 166.133C224.503 166.133 226.099 167.728 226.099 169.687C226.099 170.135 226.013 170.579 225.849 170.995C227.737 171.378 229.11 173.023 229.11 174.994C229.11 177.182 227.377 178.976 225.21 179.075C225.139 180.659 223.89 181.944 222.32 182.075C222.359 182.278 222.379 182.484 222.379 182.689C222.379 184.503 220.903 185.978 219.087 185.978L219.089 185.981ZM214.955 181.312C215.847 181.312 216.446 181.867 216.446 182.692C216.446 184.147 217.631 185.33 219.087 185.33C220.543 185.33 221.728 184.147 221.728 182.692C221.728 182.411 221.682 182.132 221.591 181.859C221.557 181.757 221.576 181.645 221.641 181.559C221.706 181.473 221.811 181.424 221.918 181.432L221.968 181.435C221.996 181.436 222.024 181.439 222.052 181.439C223.436 181.439 224.56 180.315 224.56 178.934C224.56 178.893 224.557 178.853 224.554 178.814L224.551 178.771C224.545 178.68 224.579 178.589 224.643 178.524C224.707 178.459 224.8 178.424 224.887 178.427L224.957 178.431C224.977 178.431 224.998 178.434 225.019 178.434C226.914 178.434 228.457 176.894 228.457 175C228.457 173.214 227.115 171.745 225.336 171.582C225.226 171.572 225.128 171.507 225.077 171.41C225.025 171.313 225.026 171.196 225.08 171.1C225.319 170.671 225.445 170.184 225.445 169.693C225.445 168.092 224.141 166.79 222.538 166.79C222.245 166.79 221.955 166.833 221.676 166.918C221.571 166.951 221.458 166.927 221.372 166.858C221.287 166.787 221.243 166.679 221.256 166.569C221.273 166.424 221.281 166.303 221.281 166.187C221.281 164.416 219.839 162.975 218.065 162.975C216.64 162.975 215.369 163.931 214.975 165.298C214.944 165.408 214.857 165.494 214.746 165.523C214.635 165.553 214.517 165.522 214.435 165.442C213.922 164.942 213.244 164.665 212.53 164.665C211.126 164.665 209.933 165.758 209.812 167.154C209.801 167.268 209.733 167.368 209.631 167.418C209.529 167.469 209.408 167.461 209.312 167.401C208.869 167.117 208.36 166.966 207.836 166.966C206.332 166.966 205.107 168.188 205.107 169.691C205.107 170.517 205.476 171.289 206.122 171.81C206.218 171.887 206.261 172.013 206.235 172.132C206.209 172.252 206.117 172.348 205.997 172.378C204.534 172.752 203.512 174.065 203.512 175.573C203.512 176.753 204.151 177.851 205.181 178.438C205.327 178.521 205.385 178.703 205.315 178.856C205.176 179.162 205.105 179.486 205.105 179.817C205.105 181.1 206.151 182.145 207.437 182.145C207.691 182.145 207.946 182.102 208.194 182.016C208.307 181.978 208.43 182.003 208.517 182.083C208.604 182.161 208.643 182.282 208.616 182.398C208.578 182.565 208.558 182.734 208.558 182.895C208.558 184.13 209.565 185.135 210.802 185.135C212.038 185.135 213.045 184.13 213.045 182.895C213.045 181.917 214.033 181.312 214.949 181.312H214.955Z" fill="black"/>
<path d="M225.803 187.814L215.99 185.557L206.178 187.814C203.538 188.42 201.436 190.407 200.684 193.005L198.555 204.24H233.426L231.297 193.005C230.544 190.407 228.441 188.42 225.803 187.814Z" fill="white"/>
<path d="M233.426 204.566H198.555C198.457 204.566 198.366 204.523 198.305 204.448C198.243 204.372 198.218 204.275 198.236 204.18L200.365 192.945C201.156 190.207 203.353 188.129 206.105 187.496L215.918 185.24C215.965 185.229 216.016 185.229 216.065 185.24L225.877 187.496C228.629 188.129 230.826 190.205 231.611 192.916L233.747 204.18C233.765 204.275 233.74 204.374 233.678 204.448C233.615 204.522 233.524 204.566 233.428 204.566H233.426ZM198.949 203.915H233.034L230.977 193.067C230.266 190.614 228.252 188.711 225.731 188.131L215.992 185.891L206.253 188.131C203.732 188.711 201.718 190.614 200.999 193.096L198.95 203.915H198.949Z" fill="black"/>
<path d="M211.811 187.105L213.119 179.489H218.863L220.156 187.019L211.811 187.105Z" fill="white"/>
<path d="M223.076 174.007C222.768 173.93 222.456 173.96 222.166 174.071C221.92 170.16 219.25 167.509 215.989 167.509C212.728 167.509 210.057 170.16 209.813 174.071C209.523 173.96 209.211 173.93 208.903 174.007C207.987 174.235 207.463 175.291 207.731 176.37C207.999 177.447 208.959 178.137 209.874 177.91C210.022 177.873 210.158 177.814 210.283 177.737C211.226 180.625 213.426 182.836 215.989 182.836C218.551 182.836 220.752 180.625 221.694 177.737C221.82 177.814 221.956 177.873 222.102 177.91C223.018 178.138 223.977 177.449 224.245 176.37C224.513 175.293 223.989 174.235 223.073 174.007H223.076Z" fill="white"/>
<path d="M209.815 174.071C209.525 173.96 209.212 173.93 208.905 174.007C207.989 174.235 207.465 175.292 207.733 176.37C208.001 177.447 208.961 178.137 209.875 177.91C210.023 177.873 210.159 177.814 210.285 177.737C211.228 180.626 213.428 182.836 215.99 182.836C218.553 182.836 220.753 180.626 221.696 177.737C221.822 177.814 221.958 177.873 222.104 177.91C223.02 178.138 223.979 177.449 224.247 176.37C224.514 175.293 223.991 174.235 223.075 174.007C222.767 173.93 222.455 173.96 222.165 174.071H209.812H209.815Z" fill="white"/>
<path d="M215.99 183.161C213.527 183.161 211.192 181.176 210.096 178.186C210.048 178.202 210.001 178.215 209.954 178.227C208.866 178.495 207.728 177.699 207.418 176.45C207.27 175.854 207.329 175.241 207.583 174.726C207.848 174.194 208.289 173.827 208.826 173.692C209.186 173.603 209.568 173.628 209.93 173.767C210.099 173.831 210.183 174.02 210.118 174.188C210.054 174.355 209.865 174.439 209.698 174.376C209.46 174.285 209.212 174.266 208.983 174.324C208.635 174.41 208.345 174.655 208.166 175.015C207.98 175.392 207.937 175.845 208.048 176.292C208.273 177.194 209.057 177.779 209.797 177.594C209.905 177.567 210.01 177.523 210.115 177.458C210.199 177.406 210.304 177.395 210.398 177.431C210.491 177.465 210.563 177.54 210.594 177.635C211.546 180.55 213.715 182.509 215.99 182.509C218.266 182.509 220.435 180.55 221.387 177.635C221.418 177.54 221.49 177.465 221.583 177.431C221.676 177.397 221.78 177.406 221.866 177.458C221.969 177.521 222.076 177.567 222.184 177.594C222.922 177.779 223.708 177.193 223.933 176.292C224.044 175.845 224.002 175.392 223.815 175.015C223.637 174.655 223.347 174.41 222.998 174.324C222.765 174.266 222.524 174.284 222.283 174.376C222.116 174.439 221.927 174.356 221.863 174.188C221.799 174.02 221.884 173.831 222.051 173.767C222.413 173.63 222.795 173.603 223.155 173.692C223.692 173.825 224.133 174.192 224.397 174.726C224.653 175.241 224.711 175.854 224.563 176.45C224.252 177.7 223.115 178.496 222.026 178.227C221.978 178.215 221.931 178.202 221.885 178.186C220.787 181.177 218.454 183.161 215.99 183.161Z" fill="black"/>
<path d="M209.815 174.071C212.903 173.491 216.02 171.724 217.952 169.249C218.33 171.447 220.126 173.168 222.168 174.071H209.815Z" fill="white"/>
<path d="M222.168 174.396C222.124 174.396 222.079 174.387 222.036 174.368C219.892 173.42 218.348 171.803 217.787 169.959C215.84 172.178 212.931 173.816 209.874 174.39C209.695 174.424 209.526 174.308 209.494 174.13C209.461 173.954 209.577 173.784 209.754 173.75C212.888 173.161 215.857 171.403 217.695 169.048C217.775 168.946 217.907 168.9 218.031 168.932C218.155 168.963 218.251 169.065 218.272 169.193C218.599 171.089 220.104 172.801 222.298 173.772C222.462 173.844 222.536 174.037 222.464 174.201C222.411 174.322 222.291 174.395 222.166 174.395L222.168 174.396Z" fill="black"/>
<path d="M220.065 186.819C219.91 186.819 219.772 186.707 219.744 186.548L218.898 181.627C218.867 181.45 218.987 181.283 219.164 181.251C219.343 181.22 219.511 181.34 219.54 181.518L220.386 186.439C220.417 186.616 220.298 186.784 220.12 186.815C220.101 186.818 220.083 186.819 220.064 186.819H220.065Z" fill="black"/>
<path d="M211.915 186.819C211.898 186.819 211.878 186.818 211.859 186.815C211.682 186.784 211.563 186.617 211.593 186.439L212.43 181.564C212.461 181.386 212.627 181.268 212.806 181.298C212.984 181.329 213.102 181.496 213.072 181.673L212.235 186.549C212.208 186.707 212.071 186.819 211.914 186.819H211.915Z" fill="black"/>
</g>
<path d="M413.696 188.502H283.516V265.318H413.696V188.502Z" fill="white"/>
<path d="M413.696 265.807H283.516C283.246 265.807 283.027 265.588 283.027 265.318V188.502C283.027 188.233 283.246 188.014 283.516 188.014H413.696C413.965 188.014 414.184 188.233 414.184 188.502V265.318C414.184 265.588 413.965 265.807 413.696 265.807ZM284.004 264.83H413.207V188.991H284.004V264.83Z" fill="#91F2E2"/>
<path d="M337.676 220.782H294.915C294.734 220.782 294.589 220.637 294.589 220.456C294.589 220.276 294.736 220.131 294.915 220.131H337.639L366.598 213.375L392.078 202.794L401.634 191.526C401.751 191.388 401.955 191.372 402.093 191.487C402.231 191.604 402.247 191.81 402.13 191.946L392.523 203.274C392.489 203.314 392.448 203.345 392.4 203.364L366.824 213.985C366.808 213.992 366.79 213.996 366.774 214.001L337.752 220.771C337.728 220.777 337.703 220.78 337.678 220.78L337.676 220.782Z" fill="black"/>
<path d="M337.379 223.738C339.159 223.738 340.603 222.268 340.603 220.455C340.603 218.641 339.159 217.171 337.379 217.171C335.598 217.171 334.155 218.641 334.155 220.455C334.155 222.268 335.598 223.738 337.379 223.738Z" fill="#91F2E2"/>
<path d="M366.697 216.968C368.477 216.968 369.921 215.498 369.921 213.685C369.921 211.871 368.477 210.401 366.697 210.401C364.916 210.401 363.473 211.871 363.473 213.685C363.473 215.498 364.916 216.968 366.697 216.968Z" fill="#91F2E2"/>
<path d="M392.144 206.348C393.925 206.348 395.368 204.878 395.368 203.064C395.368 201.251 393.925 199.781 392.144 199.781C390.364 199.781 388.92 201.251 388.92 203.064C388.92 204.878 390.364 206.348 392.144 206.348Z" fill="#91F2E2"/>
<path d="M310.708 223.73C312.488 223.73 313.932 222.26 313.932 220.447C313.932 218.634 312.488 217.164 310.708 217.164C308.927 217.164 307.484 218.634 307.484 220.447C307.484 222.26 308.927 223.73 310.708 223.73Z" fill="#91F2E2"/>
<path d="M400.414 252.258C400.368 252.258 400.322 252.249 400.279 252.228L383.881 244.751L357.578 241.481C357.566 241.481 357.556 241.478 357.544 241.475L328.522 234.704L301.115 226.926L293.342 225.219C293.166 225.18 293.055 225.007 293.093 224.831C293.132 224.655 293.306 224.545 293.481 224.582L301.274 226.294L328.683 234.074L357.673 240.836L384.008 244.11C384.04 244.114 384.073 244.123 384.103 244.137L400.547 251.635C400.711 251.711 400.782 251.903 400.708 252.067C400.653 252.187 400.535 252.258 400.412 252.258H400.414Z" fill="black"/>
<path d="M357.916 244.441C359.696 244.441 361.14 242.971 361.14 241.158C361.14 239.344 359.696 237.875 357.916 237.875C356.135 237.875 354.692 239.344 354.692 241.158C354.692 242.971 356.135 244.441 357.916 244.441Z" fill="white"/>
<path d="M357.915 244.766C355.958 244.766 354.366 243.147 354.366 241.157C354.366 239.167 355.958 237.548 357.915 237.548C359.873 237.548 361.465 239.167 361.465 241.157C361.465 243.147 359.873 244.766 357.915 244.766ZM357.915 238.199C356.317 238.199 355.017 239.527 355.017 241.157C355.017 242.788 356.317 244.115 357.915 244.115C359.513 244.115 360.814 242.788 360.814 241.157C360.814 239.527 359.513 238.199 357.915 238.199Z" fill="black"/>
<path d="M328.596 237.67C330.376 237.67 331.82 236.2 331.82 234.387C331.82 232.574 330.376 231.104 328.596 231.104C326.815 231.104 325.372 232.574 325.372 234.387C325.372 236.2 326.815 237.67 328.596 237.67Z" fill="white"/>
<path d="M328.596 237.997C326.638 237.997 325.046 236.378 325.046 234.388C325.046 232.398 326.638 230.779 328.596 230.779C330.553 230.779 332.145 232.398 332.145 234.388C332.145 236.378 330.553 237.997 328.596 237.997ZM328.596 231.429C326.998 231.429 325.697 232.756 325.697 234.387C325.697 236.017 326.998 237.344 328.596 237.344C330.194 237.344 331.494 236.017 331.494 234.387C331.494 232.756 330.194 231.429 328.596 231.429Z" fill="black"/>
<path d="M303.081 230.216C304.862 230.216 306.305 228.746 306.305 226.933C306.305 225.12 304.862 223.65 303.081 223.65C301.301 223.65 299.857 225.12 299.857 226.933C299.857 228.746 301.301 230.216 303.081 230.216Z" fill="white"/>
<path d="M303.082 230.542C301.124 230.542 299.532 228.923 299.532 226.933C299.532 224.943 301.124 223.324 303.082 223.324C305.039 223.324 306.631 224.943 306.631 226.933C306.631 228.923 305.039 230.542 303.082 230.542ZM303.082 223.975C301.484 223.975 300.183 225.302 300.183 226.933C300.183 228.563 301.484 229.891 303.082 229.891C304.679 229.891 305.98 228.563 305.98 226.933C305.98 225.302 304.679 223.975 303.082 223.975Z" fill="black"/>
<path d="M383.97 247.717C385.75 247.717 387.194 246.247 387.194 244.434C387.194 242.62 385.75 241.15 383.97 241.15C382.189 241.15 380.746 242.62 380.746 244.434C380.746 246.247 382.189 247.717 383.97 247.717Z" fill="white"/>
<path d="M383.969 248.043C382.012 248.043 380.42 246.424 380.42 244.434C380.42 242.444 382.012 240.825 383.969 240.825C385.927 240.825 387.519 242.444 387.519 244.434C387.519 246.424 385.927 248.043 383.969 248.043ZM383.969 241.476C382.371 241.476 381.071 242.803 381.071 244.434C381.071 246.064 382.371 247.392 383.969 247.392C385.567 247.392 386.868 246.064 386.868 244.434C386.868 242.803 385.567 241.476 383.969 241.476Z" fill="black"/>
<path d="M373.406 144.099C376.311 125.116 363.258 107.369 344.253 104.461C325.247 101.553 307.485 114.584 304.58 133.567C301.676 152.55 314.728 170.296 333.733 173.204C352.739 176.113 370.501 163.082 373.406 144.099Z" fill="white"/>
<path d="M339.04 173.938C337.277 173.938 335.492 173.805 333.696 173.53C324.419 172.109 316.249 167.166 310.691 159.608C305.134 152.05 302.856 142.785 304.273 133.519C307.201 114.389 325.166 101.212 344.318 104.143C363.47 107.075 376.669 125.024 373.741 144.154C371.087 161.489 356.084 173.938 339.042 173.938H339.04ZM338.974 104.387C322.246 104.387 307.522 116.604 304.917 133.618C303.524 142.713 305.761 151.806 311.215 159.224C316.669 166.641 324.688 171.492 333.794 172.888C335.556 173.157 337.309 173.288 339.04 173.288C355.769 173.288 370.492 161.072 373.098 144.058C375.971 125.283 363.017 107.667 344.22 104.789C342.458 104.52 340.705 104.388 338.974 104.388V104.387Z" fill="black"/>
<path d="M338.887 138.55L335.941 98.7328C339.125 98.428 342.398 98.5094 345.703 99.0154C361.387 101.417 373.493 112.733 377.646 127.014L338.887 138.55Z" fill="#91F2E2"/>
<path d="M302.062 133.171C300.562 143.167 303.225 153.208 309.102 161.075C316.439 155.54 339.008 138.461 339.008 138.461C339.008 138.461 308.197 134.117 302.062 133.171Z" fill="white"/>
<path d="M309.102 161.4C309.088 161.4 309.071 161.4 309.057 161.397C308.971 161.385 308.894 161.34 308.842 161.27C302.848 153.246 300.26 142.987 301.741 133.122C301.755 133.037 301.801 132.96 301.87 132.908C301.94 132.856 302.027 132.835 302.113 132.849C308.175 133.782 338.746 138.094 339.054 138.137C339.184 138.154 339.29 138.251 339.323 138.378C339.356 138.505 339.31 138.64 339.205 138.72C338.98 138.89 316.554 155.862 309.299 161.334C309.243 161.377 309.173 161.399 309.104 161.399L309.102 161.4ZM302.338 133.543C301.002 143.028 303.483 152.86 309.169 160.618C315.968 155.488 334.539 141.435 338.187 138.674C333.451 138.005 308.477 134.476 302.338 133.543Z" fill="black"/>
<path d="M427.602 105.067C429.396 105.067 430.85 103.615 430.85 101.823C430.85 100.032 429.396 98.5801 427.602 98.5801C425.809 98.5801 424.354 100.032 424.354 101.823C424.354 103.615 425.809 105.067 427.602 105.067Z" fill="white"/>
<path d="M362.426 111.951C362.302 111.951 362.182 111.879 362.129 111.759C362.055 111.595 362.129 111.402 362.293 111.328L384.271 101.526C384.313 101.507 384.358 101.498 384.404 101.498H401.349C401.529 101.498 401.674 101.643 401.674 101.824C401.674 102.004 401.528 102.149 401.349 102.149H384.474L362.56 111.923C362.517 111.942 362.471 111.951 362.426 111.951Z" fill="black"/>
<path d="M379.561 169.666H366.907C366.848 169.666 366.79 169.65 366.739 169.619L345.123 156.601C344.969 156.508 344.919 156.308 345.012 156.154C345.105 156.001 345.305 155.95 345.459 156.043L366.997 169.014H379.561C379.741 169.014 379.886 169.159 379.886 169.339C379.886 169.52 379.74 169.665 379.561 169.665V169.666Z" fill="black"/>
<path d="M384.473 165.619H415.692C417.22 165.619 418.459 166.858 418.459 168.386V170.296C418.459 171.824 417.22 173.063 415.692 173.063H384.473C382.944 173.063 381.706 171.824 381.706 170.296V168.386C381.706 166.858 382.944 165.619 384.473 165.619Z" stroke="#91F2E2"/>
<path d="M412.733 97.1943H443.952C445.48 97.1943 446.719 98.4331 446.719 99.9613V101.871C446.719 103.4 445.48 104.638 443.952 104.638H412.733C411.205 104.638 409.966 103.4 409.966 101.871V99.9613C409.966 98.4331 411.205 97.1943 412.733 97.1943Z" stroke="#91F2E2"/>
<path d="M257.454 150.256C257.455 150.254 257.456 150.253 257.457 150.251H264.979C264.98 150.253 264.981 150.254 264.983 150.256C265.041 150.348 265.112 150.515 265.179 150.765C265.312 151.258 265.4 151.967 265.4 152.77V154.535C265.4 155.338 265.312 156.047 265.179 156.54C265.112 156.79 265.041 156.956 264.983 157.048C264.981 157.05 264.98 157.052 264.979 157.053H257.457C257.456 157.052 257.455 157.05 257.454 157.048C257.395 156.956 257.324 156.79 257.257 156.54C257.124 156.047 257.037 155.338 257.037 154.535V152.77C257.037 151.967 257.124 151.258 257.257 150.765C257.324 150.515 257.395 150.348 257.454 150.256ZM264.942 150.203C264.943 150.203 264.945 150.205 264.949 150.21C264.945 150.206 264.942 150.203 264.942 150.203ZM264.942 157.101C264.942 157.101 264.945 157.098 264.949 157.095C264.945 157.1 264.943 157.102 264.942 157.101ZM257.494 157.101C257.494 157.102 257.491 157.1 257.487 157.095C257.492 157.098 257.494 157.101 257.494 157.101ZM257.487 150.21C257.491 150.205 257.494 150.203 257.494 150.203C257.494 150.203 257.492 150.206 257.487 150.21Z" stroke="#91F2E2"/>
<path d="M285.254 154.635H269.865C269.684 154.635 269.539 154.49 269.539 154.309C269.539 154.129 269.686 153.984 269.865 153.984H285.195L310.593 144.369C310.762 144.306 310.95 144.39 311.014 144.559C311.077 144.727 310.993 144.915 310.824 144.979L285.369 154.614C285.332 154.627 285.294 154.635 285.254 154.635Z" fill="black"/>
<path fill-rule="evenodd" clip-rule="evenodd" d="M258.019 223.531H197.246V255.31H258.019V223.531ZM258.799 222.75V256.09H196.466V222.75H258.799Z" fill="black"/>
<path d="M217.849 242.752C217.769 242.752 217.691 242.724 217.629 242.665C217.497 242.542 217.488 242.336 217.611 242.204L227.262 231.782C227.385 231.649 227.617 231.649 227.74 231.782L233.706 238.224L263.338 206.224C263.459 206.092 263.666 206.083 263.798 206.206C263.93 206.329 263.938 206.534 263.816 206.666L233.946 238.926C233.823 239.059 233.591 239.059 233.468 238.926L227.502 232.483L218.09 242.648C218.027 242.718 217.939 242.752 217.851 242.752H217.849Z" fill="#91F2E2"/>
<path d="M264.063 209.84L263.412 209.841L263.406 206.631L260.203 206.872L260.155 206.221L264.055 205.929L264.063 209.84Z" fill="#91F2E2"/>
<path d="M131.312 119.193H121.098C120.918 119.193 120.773 119.048 120.773 118.867C120.773 118.687 120.919 118.542 121.098 118.542H131.312C131.493 118.542 131.638 118.687 131.638 118.867C131.638 119.048 131.491 119.193 131.312 119.193Z" fill="black"/>
<path d="M106.403 119.193H60.2393C60.0588 119.193 59.9138 119.048 59.9138 118.867C59.9138 118.687 60.0603 118.542 60.2393 118.542H106.403C106.583 118.542 106.728 118.687 106.728 118.867C106.728 119.048 106.582 119.193 106.403 119.193Z" fill="black"/>
<path d="M131.163 133.236H91.4493C91.2688 133.236 91.1238 133.091 91.1238 132.911C91.1238 132.73 91.2703 132.585 91.4493 132.585H131.163C131.343 132.585 131.488 132.73 131.488 132.911C131.488 133.091 131.342 133.236 131.163 133.236Z" fill="black"/>
<path d="M81.5143 133.236H60.2393C60.0588 133.236 59.9138 133.091 59.9138 132.911C59.9138 132.73 60.0603 132.585 60.2393 132.585H81.5143C81.6948 132.585 81.8398 132.73 81.8398 132.911C81.8398 133.091 81.6934 133.236 81.5143 133.236Z" fill="black"/>
<path d="M65.0241 109.315C62.3786 109.315 60.2273 107.165 60.2273 104.522C60.2273 101.88 62.3786 99.73 65.0241 99.73C67.6696 99.73 69.8209 101.88 69.8209 104.522C69.8209 107.165 67.6696 109.315 65.0241 109.315ZM65.0241 100.382C62.7382 100.382 60.8783 102.239 60.8783 104.524C60.8783 106.808 62.7382 108.664 65.0241 108.664C67.3101 108.664 69.1699 106.807 69.1699 104.524C69.1699 102.241 67.3101 100.382 65.0241 100.382Z" fill="black"/>
<path d="M78.0744 109.315C75.4289 109.315 73.2776 107.165 73.2776 104.522C73.2776 101.88 75.4289 99.73 78.0744 99.73C80.7199 99.73 82.8712 101.88 82.8712 104.522C82.8712 107.165 80.7199 109.315 78.0744 109.315ZM78.0744 100.382C75.7885 100.382 73.9286 102.239 73.9286 104.524C73.9286 106.808 75.7885 108.664 78.0744 108.664C80.3604 108.664 82.2202 106.807 82.2202 104.524C82.2202 102.241 80.3604 100.382 78.0744 100.382Z" fill="black"/>
<path d="M91.1223 109.315C88.4768 109.315 86.3254 107.165 86.3254 104.522C86.3254 101.88 88.4768 99.73 91.1223 99.73C93.7678 99.73 95.9191 101.88 95.9191 104.522C95.9191 107.165 93.7678 109.315 91.1223 109.315ZM91.1223 100.382C88.8363 100.382 86.9765 102.239 86.9765 104.524C86.9765 106.808 88.8363 108.664 91.1223 108.664C93.4082 108.664 95.2681 106.807 95.2681 104.524C95.2681 102.241 93.4082 100.382 91.1223 100.382Z" fill="black"/>
<path d="M205.928 255.675H150.359C150.03 255.675 149.7 255.591 149.429 255.404C148.794 254.968 148.573 254.186 148.824 253.512C149.48 252.138 150.834 251.654 152.836 251.654H209.574L208.838 253.657C208.384 254.87 207.224 255.675 205.928 255.675Z" fill="black"/>
<path d="M208.082 255.675L218.6 229.265C218.862 228.61 218.78 227.868 218.385 227.284C217.989 226.7 217.33 226.351 216.625 226.351H182.473C180.415 226.351 178.58 227.648 177.894 229.588L168.66 255.675H208.083H208.082Z" fill="black"/>
<path d="M198.621 236.862C199.334 236.862 199.912 236.283 199.912 235.57C199.912 234.857 199.334 234.278 198.621 234.278C197.908 234.278 197.33 234.857 197.33 235.57C197.33 236.283 197.908 236.862 198.621 236.862Z" fill="#91F2E2"/>
<path d="M70.9523 315.396C96.0229 315.396 116.347 295.064 116.347 269.983C116.347 244.902 96.0229 224.57 70.9523 224.57C45.8818 224.57 25.5581 244.902 25.5581 269.983C25.5581 295.064 45.8818 315.396 70.9523 315.396Z" fill="white"/>
<path d="M70.9503 315.753C45.7228 315.753 25.1992 295.221 25.1992 269.983C25.1992 244.745 45.7228 224.213 70.9503 224.213C96.1778 224.213 116.701 244.745 116.701 269.983C116.701 295.221 96.1778 315.753 70.9503 315.753ZM70.9503 224.929C46.117 224.929 25.9145 245.141 25.9145 269.983C25.9145 294.825 46.117 315.037 70.9503 315.037C95.7836 315.037 115.986 294.825 115.986 269.983C115.986 245.141 95.782 224.929 70.9503 224.929Z" fill="black"/>
<path d="M72.1101 304.454C72.102 304.454 72.0923 304.454 72.0842 304.454C50.8907 302.919 45.9029 292.292 45.7002 291.841C45.6191 291.661 45.7002 291.45 45.8802 291.368C46.0603 291.287 46.2711 291.368 46.3522 291.547C46.4009 291.654 51.4065 302.237 72.1361 303.74C72.3323 303.754 72.48 303.925 72.467 304.121C72.454 304.309 72.2967 304.452 72.1118 304.452L72.1101 304.454Z" fill="black"/>
<path d="M16.3559 361.373C16.3056 361.373 16.257 361.363 16.2083 361.34C16.0283 361.259 15.9488 361.047 16.0315 360.867L41.5412 304.7C41.6223 304.52 41.8348 304.441 42.0149 304.523C42.1949 304.605 42.2744 304.817 42.1917 304.997L16.6803 361.164C16.6203 361.295 16.4906 361.373 16.3543 361.373H16.3559Z" fill="black"/>
<path d="M14.8037 368.511C16.607 368.511 18.0689 367.049 18.0689 365.245C18.0689 363.441 16.607 361.979 14.8037 361.979C13.0004 361.979 11.5386 363.441 11.5386 365.245C11.5386 367.049 13.0004 368.511 14.8037 368.511Z" fill="black"/>
<path d="M125.548 361.373C125.412 361.373 125.282 361.295 125.222 361.164L99.7125 304.997C99.6314 304.817 99.7108 304.606 99.8893 304.523C100.068 304.441 100.28 304.52 100.363 304.7L125.873 360.867C125.954 361.047 125.874 361.258 125.696 361.34C125.647 361.363 125.598 361.373 125.548 361.373Z" fill="black"/>
<path d="M127.1 368.511C128.903 368.511 130.365 367.049 130.365 365.245C130.365 363.441 128.903 361.979 127.1 361.979C125.297 361.979 123.835 363.441 123.835 365.245C123.835 367.049 125.297 368.511 127.1 368.511Z" fill="black"/>
<path d="M127.1 368.689C125.201 368.689 123.656 367.144 123.656 365.244C123.656 363.344 125.201 361.799 127.1 361.799C128.999 361.799 130.544 363.344 130.544 365.244C130.544 367.144 128.999 368.689 127.1 368.689ZM127.1 362.157C125.399 362.157 124.013 363.543 124.013 365.245C124.013 366.948 125.397 368.333 127.1 368.333C128.803 368.333 130.187 366.949 130.187 365.245C130.187 363.542 128.803 362.157 127.1 362.157Z" fill="#91F2E2"/>
<path d="M253.118 361.373C252.983 361.373 252.853 361.295 252.793 361.165L206.637 260.84C206.554 260.66 206.632 260.449 206.812 260.367C206.992 260.284 207.203 260.362 207.285 260.542L253.442 360.866C253.525 361.047 253.447 361.257 253.267 361.34C253.218 361.363 253.168 361.373 253.118 361.373Z" fill="black"/>
<path d="M254.668 368.511C256.472 368.511 257.933 367.049 257.933 365.245C257.933 363.441 256.472 361.979 254.668 361.979C252.865 361.979 251.403 363.441 251.403 365.245C251.403 367.049 252.865 368.511 254.668 368.511Z" fill="black"/>
<path d="M216.113 255.798H120.701V260.262H216.113V255.798Z" fill="white"/>
<path d="M216.113 260.621H120.702C120.504 260.621 120.345 260.462 120.345 260.264V255.8C120.345 255.602 120.505 255.443 120.702 255.443H216.113C216.311 255.443 216.47 255.602 216.47 255.8V260.264C216.47 260.462 216.309 260.621 216.113 260.621ZM121.058 259.905H215.756V256.155H121.058V259.905Z" fill="black"/>
<path d="M131.029 169.868C127.942 166.694 123.282 167.42 119.459 168.619C114.998 170.016 110.908 172.338 106.536 173.967C104.465 174.738 102.332 175.33 100.132 175.59C98.1454 175.824 96.1308 175.79 94.1438 175.585C90.0839 175.165 86.1423 174.016 82.2478 172.838C78.3355 171.655 74.4215 170.402 70.3892 169.691C66.1378 168.942 61.8394 168.927 57.6302 169.956C49.0481 172.052 40.8779 177.909 37.131 186.047C33.5317 193.863 34.0297 203.064 38.4367 210.445C40.5827 214.041 43.564 217.09 47.1032 219.326C50.9491 221.757 55.3351 223.3 59.7324 224.383C68.5498 226.552 77.87 226.58 86.7133 224.537C95.0489 222.612 102.864 218.825 109.537 213.47C115.858 208.398 121.115 202.02 124.847 194.822C125.627 193.319 126.333 191.78 126.974 190.212C129.819 187.118 132.646 183.572 133.498 179.363C134.156 176.101 133.4 172.302 131.03 169.867L131.029 169.868Z" fill="black"/>
<path d="M100.302 200.337L107.574 191.05C108.085 190.398 111.981 189.032 112.589 189.595L116.261 197.001C116.782 197.483 116.866 198.276 116.459 198.857L111.112 206.492C110.202 207.792 108.651 208.485 107.078 208.29C105.076 208.043 102.375 207.053 100.184 203.896C99.4361 202.817 99.4913 201.369 100.302 200.336V200.337Z" fill="white"/>
<path d="M99.4574 201.639C99.3795 201.639 99.3 201.613 99.2335 201.56C99.0794 201.436 99.0551 201.211 99.18 201.057L107.983 190.13C108.106 189.975 108.331 189.951 108.486 190.076C108.64 190.199 108.664 190.425 108.539 190.579L99.7363 201.506C99.665 201.594 99.5628 201.639 99.4574 201.639Z" fill="black"/>
<path d="M110.382 207.798C110.309 207.798 110.236 207.775 110.172 207.73C110.013 207.615 109.978 207.391 110.093 207.23L116.948 197.789C117.064 197.63 117.287 197.593 117.447 197.71C117.606 197.825 117.642 198.049 117.527 198.21L110.672 207.651C110.602 207.746 110.494 207.798 110.383 207.798H110.382Z" fill="black"/>
<path d="M112.056 186.524C112.056 186.524 111.718 184.977 110.195 184.912C108.695 184.847 107.332 186.188 107.125 187.674C106.917 189.162 107.809 190.707 109.157 191.367C109.918 191.741 110.662 192.008 111.618 191.755C112.194 193.568 113.152 195.288 114.555 196.573C115.958 197.858 117.83 198.678 119.731 198.618C122.912 198.517 125.608 195.986 126.866 193.061C128.125 190.137 128.226 186.863 128.281 183.681C128.281 183.681 123.715 187.215 117.267 182.662C116.253 185.657 114.643 187.242 112.057 186.524H112.056Z" fill="white"/>
<path d="M119.536 198.976C117.7 198.976 115.807 198.204 114.315 196.836C113.04 195.669 112.029 194.061 111.381 192.171C110.42 192.325 109.653 192.007 109.001 191.687C107.484 190.944 106.547 189.235 106.771 187.624C107.012 185.891 108.584 184.482 110.209 184.554C111.479 184.609 112.122 185.574 112.342 186.227C114.451 186.722 115.911 185.547 116.926 182.545C116.962 182.438 117.046 182.355 117.153 182.319C117.26 182.285 117.377 182.303 117.47 182.366C123.63 186.717 128.014 183.428 128.058 183.395C128.167 183.311 128.315 183.298 128.436 183.358C128.559 183.419 128.636 183.546 128.634 183.684C128.585 186.543 128.524 190.102 127.19 193.201C125.724 196.61 122.8 198.876 119.739 198.973C119.671 198.976 119.601 198.976 119.533 198.976H119.536ZM111.619 191.398C111.771 191.398 111.911 191.496 111.96 191.648C112.565 193.552 113.546 195.164 114.797 196.31C116.209 197.603 118 198.309 119.719 198.261C122.886 198.16 125.426 195.505 126.537 192.92C127.716 190.178 127.857 186.997 127.909 184.325C126.47 185.101 122.516 186.59 117.445 183.218C116.274 186.326 114.43 187.554 111.958 186.868C111.831 186.832 111.734 186.73 111.705 186.6C111.692 186.545 111.398 185.32 110.179 185.268C108.93 185.229 107.668 186.361 107.478 187.723C107.295 189.037 108.067 190.434 109.314 191.044C110.11 191.436 110.728 191.622 111.526 191.41C111.557 191.401 111.588 191.398 111.617 191.398H111.619Z" fill="black"/>
<path d="M111.27 190.056C111.121 190.056 110.983 189.963 110.933 189.814C110.67 189.043 110.111 188.373 109.4 187.975C109.228 187.878 109.167 187.66 109.262 187.488C109.358 187.316 109.577 187.256 109.749 187.351C110.61 187.832 111.288 188.647 111.608 189.582C111.671 189.768 111.572 189.971 111.386 190.036C111.347 190.049 111.308 190.056 111.27 190.056Z" fill="black"/>
<path d="M128.101 184.166C127.969 184.166 127.843 184.093 127.781 183.968C127.694 183.792 127.765 183.577 127.942 183.49C128.795 183.066 129.53 182.429 130.07 181.643C130.182 181.481 130.404 181.439 130.566 181.552C130.729 181.664 130.769 181.887 130.657 182.049C130.049 182.933 129.22 183.652 128.258 184.129C128.206 184.155 128.153 184.166 128.099 184.166H128.101Z" fill="black"/>
<path d="M101.522 317.311L78.1487 359.326C75.8568 363.444 78.8348 368.51 83.5469 368.51H150.517C151.969 368.51 152.637 366.702 151.534 365.758L132.613 349.537L152.086 314.849L101.522 317.311Z" fill="white"/>
<path d="M150.516 368.867H83.5452C81.2046 368.867 79.0992 367.662 77.9119 365.643C76.7262 363.625 76.697 361.197 77.8357 359.151L101.211 317.138C101.271 317.03 101.383 316.961 101.506 316.954L152.068 314.491C152.199 314.486 152.321 314.549 152.389 314.66C152.457 314.77 152.461 314.91 152.397 315.023L133.069 349.457L151.766 365.486C152.383 366.015 152.6 366.849 152.318 367.611C152.036 368.374 151.328 368.867 150.516 368.867ZM101.738 317.658L78.4602 359.5C77.4464 361.322 77.4723 363.483 78.5283 365.281C79.5842 367.079 81.4609 368.153 83.5452 368.153H150.516C151.135 368.153 151.507 367.746 151.648 367.365C151.789 366.983 151.771 366.433 151.301 366.029L132.38 349.809C132.25 349.699 132.218 349.51 132.3 349.363L151.457 315.237L101.736 317.658H101.738Z" fill="black"/>
<path d="M100.834 353.802C94.1872 353.802 88.2246 353.158 82.7292 351.853C82.5378 351.808 82.4178 351.615 82.4648 351.423C82.5102 351.232 82.7033 351.113 82.8947 351.159C89.8224 352.804 97.5108 353.39 106.4 352.945C114.294 352.553 122.257 351.397 129.958 350.279C130.154 350.25 130.334 350.386 130.363 350.581C130.391 350.776 130.256 350.958 130.062 350.985C122.344 352.105 114.364 353.263 106.435 353.658C104.515 353.754 102.649 353.802 100.834 353.802Z" fill="black"/>
<path d="M135.384 311.492L161.827 361.791C163.998 365.922 168.281 368.509 172.946 368.509H221.85C223.217 368.509 223.829 366.792 222.77 365.927L202.103 349.048L186.978 318.249L135.383 311.491L135.384 311.492Z" fill="white"/>
<path d="M221.85 368.868H172.945C168.133 368.868 163.75 366.219 161.51 361.958L135.068 311.66C135.006 311.541 135.014 311.398 135.09 311.29C135.167 311.179 135.296 311.119 135.429 311.14L187.025 317.899C187.143 317.914 187.247 317.988 187.299 318.095L202.388 348.824L222.995 365.653C223.597 366.145 223.816 366.933 223.556 367.665C223.295 368.397 222.627 368.869 221.85 368.869V368.868ZM136.02 311.937L162.141 361.626C164.258 365.652 168.397 368.152 172.944 368.152H221.848C222.419 368.152 222.756 367.776 222.881 367.424C223.006 367.071 222.983 366.567 222.542 366.205L201.876 349.327C201.835 349.295 201.805 349.254 201.782 349.209L186.741 318.582L136.02 311.937Z" fill="black"/>
<path d="M173.297 353.486C167.76 353.486 162.222 353.196 156.701 352.615C156.504 352.594 156.362 352.419 156.383 352.222C156.404 352.026 156.577 351.885 156.775 351.904C171.484 353.454 186.327 352.927 200.89 350.338C201.084 350.303 201.269 350.434 201.303 350.627C201.337 350.822 201.209 351.007 201.015 351.041C191.852 352.67 182.577 353.486 173.296 353.486H173.297Z" fill="black"/>
<path d="M93.1719 325.997C93.1719 325.997 141.137 340.32 189.479 319.579C189.479 319.579 176.95 296.102 166.525 278.676C160.034 267.826 148.323 261.189 135.684 261.189H54.939L49.5214 271.769C43.4745 283.581 51.1937 297.784 64.3922 299.12C81.2192 300.822 96.4355 301.827 108.455 301.447L93.1736 325.997H93.1719Z" fill="#91F2E2"/>
<path d="M143.714 329.192C143.659 329.192 143.603 329.179 143.551 329.151C143.375 329.06 143.306 328.844 143.397 328.669C147.886 319.967 151.432 310.753 153.933 301.283C155.695 294.619 157.302 286.031 154.081 278.731C151.93 273.855 147.654 269.561 141.011 265.603C140.84 265.503 140.785 265.284 140.886 265.113C140.986 264.943 141.205 264.888 141.375 264.988C148.151 269.025 152.52 273.425 154.735 278.442C158.045 285.945 156.413 294.688 154.624 301.466C152.11 310.985 148.545 320.249 144.031 328.997C143.967 329.12 143.843 329.19 143.713 329.19L143.714 329.192Z" fill="black"/>
<path d="M108.852 301.652C108.659 301.652 108.5 301.499 108.495 301.304C108.489 301.106 108.644 300.942 108.842 300.936L118.889 300.641C119.082 300.641 119.251 300.79 119.257 300.988C119.264 301.186 119.108 301.35 118.91 301.356L108.863 301.652H108.852Z" fill="black"/>
<path d="M54.9375 261.188H96.0739L102.252 248.875C102.252 248.875 110.362 257.224 120.701 255.799C131.04 254.374 142.352 245.453 152.086 245.542C152.086 245.542 154.9 246.141 156.422 248.476C157.943 250.812 160.167 250.462 160.548 248.976C160.929 247.489 158.426 243.265 158.426 243.265C158.426 243.265 159.734 245.177 161.52 248.396C162.9 250.884 164.417 248.226 164.417 248.226C164.417 248.226 166.76 246.679 166.092 242.925C166.092 242.925 166.963 241.759 166.522 240.15C166.081 238.54 161.479 229.64 148.745 231.298C140.409 232.383 132.398 234.383 127.858 235.635C125.374 236.32 122.73 235.343 121.292 233.206C120.085 231.415 118.75 229.073 117.89 226.488C115.574 219.529 112.695 202.435 102.895 202.425C95.5094 202.417 88.9905 204.369 71.6461 231.298C59.6657 249.897 54.9391 261.19 54.9391 261.19L54.9375 261.188Z" fill="white"/>
<path d="M54.9376 261.547C54.8922 261.547 54.8452 261.538 54.7998 261.519C54.6181 261.443 54.5321 261.233 54.6084 261.052C54.6554 260.938 59.4858 249.518 71.3445 231.105C88.6824 204.188 95.3538 202.068 102.854 202.068H102.895C111.373 202.076 114.779 214.253 117.032 222.311C117.474 223.89 117.855 225.253 118.229 226.376C118.946 228.531 120.077 230.762 121.589 233.008C122.943 235.02 125.423 235.939 127.764 235.293C131.923 234.146 140.172 232.056 148.699 230.946C161.26 229.31 166.225 237.717 166.868 240.057C167.267 241.51 166.701 242.631 166.47 243.007C167.036 246.52 165.098 248.171 164.686 248.477C164.498 248.782 163.789 249.821 162.829 249.821H162.821C162.208 249.818 161.666 249.397 161.208 248.575C161.093 248.367 160.98 248.166 160.869 247.969C160.952 248.393 160.97 248.773 160.894 249.07C160.701 249.819 160.099 250.365 159.32 250.493C158.182 250.681 156.983 250.001 156.12 248.675C154.78 246.619 152.35 245.977 152.042 245.902C146.862 245.866 141.076 248.486 135.47 251.015C130.593 253.217 125.55 255.494 120.748 256.156C111.571 257.425 104.051 251.044 102.353 249.47L96.392 261.352C96.3044 261.529 96.0903 261.6 95.9118 261.511C95.735 261.422 95.6637 261.207 95.7529 261.032L101.931 248.719C101.983 248.615 102.082 248.544 102.196 248.526C102.309 248.508 102.426 248.547 102.505 248.63C102.585 248.713 110.614 256.829 120.649 255.448C125.35 254.801 130.344 252.545 135.175 250.365C140.863 247.796 146.732 245.14 152.086 245.188C152.11 245.188 152.133 245.191 152.157 245.196C152.277 245.222 155.134 245.854 156.719 248.286C157.547 249.558 158.547 249.897 159.204 249.789C159.705 249.706 160.078 249.371 160.201 248.893C160.453 247.914 159.058 245.037 158.118 243.454C158.019 243.288 158.071 243.074 158.234 242.97C158.396 242.866 158.612 242.912 158.72 243.071C158.733 243.09 160.057 245.034 161.831 248.231C162.053 248.63 162.405 249.107 162.822 249.11H162.827C163.379 249.11 163.937 248.351 164.105 248.057C164.133 248.008 164.172 247.968 164.219 247.937C164.305 247.879 166.355 246.457 165.74 242.996C165.723 242.899 165.747 242.798 165.805 242.72C165.836 242.68 166.563 241.664 166.177 240.254C165.606 238.173 160.719 230.109 148.79 231.661C140.307 232.766 132.093 234.847 127.952 235.989C125.316 236.716 122.521 235.681 120.995 233.414C119.448 231.115 118.288 228.825 117.551 226.61C117.172 225.471 116.789 224.1 116.345 222.513C114.148 214.662 110.83 202.8 102.893 202.792H102.856C95.5826 202.792 89.0896 204.885 71.9447 231.502C60.1184 249.863 55.314 261.225 55.2669 261.337C55.2101 261.474 55.0771 261.556 54.9376 261.556V261.547Z" fill="black"/>
<path d="M164.498 248.425C164.498 248.425 164.487 248.425 164.48 248.425C164.282 248.415 164.131 248.248 164.141 248.05C164.266 245.508 163.294 242.885 161.543 241.037C161.406 240.894 161.413 240.667 161.556 240.532C161.698 240.396 161.925 240.403 162.06 240.545C163.943 242.532 164.988 245.35 164.853 248.084C164.843 248.276 164.686 248.424 164.496 248.424L164.498 248.425Z" fill="black"/>
<path d="M166.113 243.428C165.964 243.428 165.825 243.332 165.774 243.183C165.114 241.193 163.955 239.389 162.418 237.964C162.274 237.829 162.266 237.604 162.399 237.459C162.534 237.315 162.759 237.307 162.903 237.44C164.527 238.946 165.755 240.854 166.452 242.957C166.514 243.144 166.414 243.346 166.225 243.41C166.188 243.423 166.151 243.428 166.113 243.428Z" fill="black"/>
<path d="M141.939 248.14C141.773 248.14 141.626 248.025 141.59 247.857L138.417 233.118C138.375 232.925 138.499 232.736 138.692 232.693C138.883 232.651 139.074 232.774 139.117 232.968L142.289 247.706C142.331 247.9 142.208 248.089 142.015 248.132C141.989 248.137 141.965 248.14 141.939 248.14Z" fill="black"/>
<path d="M101.235 248.616C101.135 248.616 101.034 248.574 100.963 248.491C94.7552 241.225 90.5363 232.418 88.7618 223.025C88.7245 222.83 88.8527 222.643 89.0473 222.608C89.2403 222.572 89.4285 222.698 89.4642 222.892C91.2143 232.162 95.3797 240.853 101.506 248.027C101.634 248.176 101.616 248.402 101.467 248.53C101.399 248.587 101.318 248.616 101.235 248.616Z" fill="black"/>
</svg>
