<svg width="82" height="83" viewBox="0 0 82 83" fill="none" xmlns="http://www.w3.org/2000/svg">
<path d="M41 82.5C32.891 82.5 24.9641 80.0954 18.2216 75.5903C11.4792 71.0851 6.22415 64.6818 3.12096 57.19C0.0177646 49.6983 -0.794172 41.4545 0.787822 33.5013C2.36982 25.5481 6.27469 18.2426 12.0086 12.5086C17.7426 6.77469 25.0481 2.86982 33.0013 1.28782C40.9545 -0.294172 49.1983 0.517765 56.69 3.62096C64.1818 6.72415 70.5851 11.9792 75.0903 18.7216C79.5954 25.4641 82 33.391 82 41.5C82 52.3739 77.6804 62.8024 69.9914 70.4914C62.3024 78.1804 51.8739 82.5 41 82.5Z" fill="white"/>
<path d="M41.0003 44.9315L36.499 40.4302L38.2162 38.713L41.0003 41.4972L45.892 36.6055C44.5979 35.4312 42.8812 34.7146 41.0003 34.7146C36.9831 34.7146 33.7148 37.9829 33.7148 42.0001C33.7148 46.0173 36.9831 49.2856 41.0003 49.2856C45.0176 49.2856 48.2858 46.0173 48.2858 42.0001C48.2858 40.7438 47.9662 39.5607 47.4039 38.5279L41.0003 44.9315Z" fill="#F9DC95"/>
<path d="M55.5715 28.6432C52.2238 28.6432 49.5002 25.9196 49.5002 22.5719V21.3577H32.5007V22.5719C32.5007 25.9196 29.7772 28.6432 26.4295 28.6432H24.001V40.0554C24.001 45.1336 25.5957 49.9769 28.6126 54.0617C33.619 60.8402 40.8008 62.5463 41.0005 62.6421C41.2981 62.4993 48.2762 60.9831 53.3883 54.0617C56.4053 49.9769 58 45.1336 58 40.0554V28.6432H55.5715ZM49.1747 36.7569C50.1488 38.2704 50.7145 40.0703 50.7145 41.9999C50.7145 47.3562 46.3568 51.7139 41.0005 51.7139C35.6441 51.7139 31.2865 47.3562 31.2865 41.9999C31.2865 36.6436 35.6441 32.2859 41.0005 32.2859C43.551 32.2859 45.8745 33.2745 47.6096 34.8879L49.8559 32.6416L51.5731 34.3588L49.1747 36.7569Z" fill="#F9DC95"/>
</svg>
