<svg width="27" height="27" viewBox="0 0 27 27" fill="none" xmlns="http://www.w3.org/2000/svg">
<path fill-rule="evenodd" clip-rule="evenodd" d="M0.633299 3.03202C0 4.25117 0 5.85286 0 9.05625V17.9438C0 21.1471 0 22.7488 0.633299 23.968C1.16697 24.9953 2.00465 25.833 3.03202 26.3667C4.25117 27 5.85286 27 9.05625 27H11.25V17.2501H7.875V13.5001H11.25V10.5001C11.25 7.12509 13.425 5.25009 16.5 5.25009C17.475 5.25009 18.525 5.40009 19.5 5.55009V9.00009H17.775C16.125 9.00009 15.75 9.82509 15.75 10.8751V13.5001H19.35L18.75 17.2501H15.75V27H17.9438C21.1471 27 22.7488 27 23.968 26.3667C24.9953 25.833 25.833 24.9953 26.3667 23.968C27 22.7488 27 21.1471 27 17.9438V9.05625C27 5.85286 27 4.25117 26.3667 3.03202C25.833 2.00465 24.9953 1.16697 23.968 0.633299C22.7488 0 21.1471 0 17.9438 0H9.05625C5.85286 0 4.25117 0 3.03202 0.633299C2.00465 1.16697 1.16697 2.00465 0.633299 3.03202Z" fill="#494949"/>
</svg>
