<svg width="82" height="82" viewBox="0 0 82 82" fill="none" xmlns="http://www.w3.org/2000/svg">
<path d="M41 82C32.891 82 24.9641 79.5954 18.2216 75.0903C11.4792 70.5851 6.22415 64.1818 3.12096 56.69C0.0177646 49.1983 -0.794172 40.9545 0.787822 33.0013C2.36982 25.0481 6.27469 17.7426 12.0086 12.0086C17.7426 6.27469 25.0481 2.36982 33.0013 0.787822C40.9545 -0.794172 49.1983 0.0177646 56.69 3.12096C64.1818 6.22415 70.5851 11.4792 75.0903 18.2216C79.5954 24.9641 82 32.891 82 41C82 51.8739 77.6804 62.3024 69.9914 69.9914C62.3024 77.6804 51.8739 82 41 82Z" fill="white"/>
<path fill-rule="evenodd" clip-rule="evenodd" d="M36.2681 27.0011H44.7332C45.0824 27.0018 45.4171 27.1407 45.664 27.3875C45.9109 27.6343 46.0499 27.9688 46.0506 28.3178V29.642C46.05 29.9163 45.964 30.1836 45.8045 30.4068C45.645 30.63 45.4199 30.798 45.1604 30.8875V40.1042C45.1537 40.5537 45.2717 40.9962 45.5013 41.3827L53.4717 55.1807C54.9761 57.785 53.0842 61 50.112 61H30.8889C27.9184 61 26.022 57.7895 27.5293 55.1807L35.4996 41.3827C35.7293 40.9962 35.8473 40.5536 35.8406 40.1041V30.8875C35.5811 30.798 35.356 30.63 35.1965 30.4068C35.037 30.1836 34.951 29.9163 34.9504 29.642V28.3183C34.9511 27.9693 35.0901 27.6347 35.337 27.388C35.5839 27.1412 35.9189 27.0018 36.2681 27.0011ZM38.1387 15C38.6156 15 39.0817 15.1413 39.4782 15.4061C39.8747 15.6709 40.1838 16.0473 40.3663 16.4876C40.5487 16.928 40.5965 17.4125 40.5035 17.88C40.4104 18.3475 40.1808 18.7769 39.8436 19.1139C39.5064 19.4509 39.0768 19.6804 38.6091 19.7734C38.1414 19.8664 37.6566 19.8187 37.216 19.6363C36.7755 19.4539 36.3989 19.145 36.134 18.7487C35.869 18.3524 35.7276 17.8865 35.7276 17.4099C35.7277 16.7707 35.9817 16.1578 36.4339 15.7059C36.886 15.2539 37.4993 15 38.1387 15ZM43.601 20.6324C43.923 20.6324 44.2378 20.7278 44.5055 20.9066C44.7732 21.0854 44.9819 21.3396 45.1051 21.6369C45.2284 21.9343 45.2606 22.2614 45.1978 22.5771C45.1349 22.8927 44.9799 23.1827 44.7522 23.4102C44.5245 23.6378 44.2344 23.7928 43.9186 23.8555C43.6028 23.9183 43.2754 23.8861 42.978 23.7629C42.6805 23.6397 42.4262 23.4311 42.2473 23.1635C42.0685 22.8959 41.973 22.5813 41.973 22.2595C41.973 21.828 42.1445 21.4142 42.4498 21.1091C42.755 20.804 43.1693 20.6325 43.601 20.6324ZM43.8371 30.9587H37.1636V40.1041C37.1692 40.7861 36.9888 41.4567 36.6418 42.0439L33.3763 47.6976C38.8752 45.9012 41.0683 51.0886 47.9938 48.336L47.5238 47.5224L46.81 46.2866H45.5041C45.3286 46.2866 45.1603 46.2169 45.0363 46.093C44.9122 45.969 44.8425 45.8008 44.8425 45.6254C44.8425 45.4501 44.9122 45.2819 45.0363 45.1579C45.1603 45.0339 45.3286 44.9642 45.5041 44.9642H46.0458L45.2151 43.5257H42.6566C42.4811 43.5257 42.3129 43.456 42.1888 43.332C42.0647 43.208 41.995 43.0398 41.995 42.8645C41.995 42.6891 42.0647 42.5209 42.1888 42.3969C42.3129 42.2729 42.4811 42.2033 42.6566 42.2033H44.4514L44.3592 42.0437C44.127 41.6493 43.9682 41.2161 43.8908 40.7651H42.9212C42.7457 40.7651 42.5775 40.6954 42.4534 40.5714C42.3293 40.4474 42.2596 40.2793 42.2596 40.1039C42.2596 39.9285 42.3293 39.7604 42.4534 39.6364C42.5775 39.5124 42.7457 39.4427 42.9212 39.4427H43.8374V37.7794H41.4105C41.2351 37.7794 41.0668 37.7098 40.9428 37.5858C40.8187 37.4618 40.749 37.2936 40.749 37.1183C40.749 36.9429 40.8187 36.7747 40.9428 36.6507C41.0668 36.5267 41.2351 36.4571 41.4105 36.4571H43.8371V34.7936H42.9212C42.7457 34.7936 42.5775 34.7239 42.4534 34.5999C42.3293 34.4759 42.2596 34.3078 42.2596 34.1324C42.2596 33.9571 42.3293 33.7889 42.4534 33.6649C42.5775 33.5409 42.7457 33.4712 42.9212 33.4712H43.8374L43.8371 30.9587Z" fill="#F5A9F1"/>
</svg>
