<svg width="168" height="66" viewBox="0 0 168 66" fill="none" xmlns="http://www.w3.org/2000/svg">
<path d="M0 32.404C2.1121 32.404 3.82504 30.661 3.82504 28.5118V0.0478516H0V32.404Z" fill="#3E3E3E"/>
<path d="M62.7571 3.8922C61.9444 5.1254 61.5051 6.5198 61.4423 8.07648H59.1471V12.1634H61.395V32.4043C63.6131 32.4043 65.4114 30.5744 65.4114 28.3174V12.1634H70.3835V8.07648H65.5544C65.6182 6.90819 66.1048 5.95241 67.0132 5.206C67.9227 4.46064 69.0451 4.12042 70.3835 4.18427V0C68.7889 0 67.3239 0.340227 65.9855 1.02068C64.647 1.70218 63.5709 2.65901 62.7571 3.89115V3.8922Z" fill="#3E3E3E"/>
<path d="M85.8515 9.38159C84.9955 10.3185 84.0356 11.782 83.4276 12.9063L83.1992 12.7451C82.4348 12.3892 81.7445 12.2112 81.1458 12.2112C79.866 12.2112 78.8166 12.6708 77.9874 13.5701C77.0944 14.5447 76.652 15.669 76.652 16.9336V28.2229C76.652 29.3755 76.1921 30.4244 75.4463 31.1739C74.7004 31.9329 73.6696 32.4009 72.5369 32.4009V16.9336C72.5369 15.1812 72.97 13.5701 73.8537 12.1181C74.7282 10.6567 75.935 9.52292 77.4627 8.70847C78.6047 8.15573 79.8382 7.88354 81.1458 7.88354C82.1951 7.88354 83.1992 8.08035 84.156 8.46455C84.7085 8.68962 85.2702 8.98902 85.8504 9.38264L85.8515 9.38159Z" fill="#3E3E3E"/>
<path d="M102.206 9.04937C100.723 8.43382 99.17 8.125 97.5445 8.125C95.9191 8.125 94.3646 8.43382 92.8831 9.04937C91.4006 9.66597 90.1167 10.5411 89.0344 11.677C87.9182 12.8128 87.0499 14.1339 86.4274 15.6425C85.8061 17.151 85.4954 18.7317 85.4954 20.3857C85.4954 22.0398 85.8061 23.6142 86.4274 25.106C87.0499 26.5978 87.9171 27.9116 89.0344 29.0474C90.1496 30.1833 91.4407 31.0668 92.9068 31.6991C94.3728 32.3314 95.9201 32.6475 97.5456 32.6475C99.7122 32.6475 101.705 32.0959 103.522 30.9935C105.339 29.8912 106.869 28.3178 108.112 26.2733C106.278 25.1688 103.943 25.2672 102.272 26.6145C100.904 27.7179 99.3285 28.2686 97.5445 28.2686C95.7606 28.2686 94.1969 27.7336 92.8584 26.6627C92.1249 26.0785 91.4788 25.3656 90.9212 24.5219C90.3636 23.6781 90.0848 22.8678 90.0848 22.089H109.45C109.545 21.4399 109.593 20.8233 109.593 20.2402C109.593 16.9971 108.413 14.1423 106.055 11.677C104.97 10.5411 103.687 9.66597 102.206 9.04937ZM90.0858 18.3433C90.0858 17.2724 90.4274 16.2591 91.1136 15.3022C91.7987 14.3465 92.7154 13.5749 93.8635 12.9908C95.0106 12.4066 96.238 12.1156 97.5456 12.1156C98.8532 12.1156 100.079 12.4077 101.228 12.9908C102.375 13.5749 103.291 14.3454 103.978 15.3022C104.663 16.2591 105.005 17.2735 105.005 18.3433H90.0868H90.0858Z" fill="#3E3E3E"/>
<path d="M130.943 14.0358C130.448 12.8529 129.772 11.8228 128.911 10.9466C128.018 10.039 126.991 9.33337 125.827 8.83088C124.664 8.32839 123.443 8.07715 122.17 8.07715C121.213 8.07715 120.24 8.32002 119.253 8.8068C118.264 9.29359 117.467 9.91019 116.862 10.6555V8.66129H112.702V32.405H116.862V17.8087C116.862 17.1272 117.005 16.4551 117.292 15.7893C117.579 15.1256 117.962 14.5488 118.44 14.062C119.493 12.9911 120.735 12.4561 122.17 12.4561C123.605 12.4561 124.879 12.9754 125.899 14.0128C126.952 15.0837 127.477 16.3473 127.477 17.8077V28.1223C127.477 30.4871 129.361 32.4039 131.685 32.4039V17.8077C131.685 16.4771 131.438 15.2209 130.943 14.0369V14.0358Z" fill="#3E3E3E"/>
<path d="M48.4209 8.58967C47.1226 8.22432 45.779 8.07462 44.4344 8.09346C40.7606 8.14999 37.4921 9.63966 35.0065 12.3845C33.1465 14.4363 32.0138 16.9184 31.0941 19.0833C30.698 20.0014 30.2659 20.9195 29.7772 21.7821C28.3595 24.3113 26.481 26.5034 23.7742 27.7314C23.3319 27.9376 22.872 28.1156 22.4029 28.2559C20.5243 28.8086 18.4986 28.8369 16.6211 28.2841C14.7425 27.7408 13.4267 26.5694 12.4041 24.8923C12.082 24.3584 11.796 23.7963 11.5481 23.2153L29.2062 17.3759C29.8266 17.1707 30.1939 16.4997 30.0066 15.8632C29.7474 14.9828 29.3729 14.1443 28.913 13.3424C28.4881 12.6012 27.9809 11.9103 27.4028 11.2853C26.1415 9.92127 24.5386 8.84405 22.8298 8.15313C22.0315 7.8307 21.1971 7.60353 20.3463 7.47896C18.2795 7.17641 16.1355 7.4465 14.189 8.20861C13.4092 8.51429 12.6582 8.89849 11.9534 9.35596C11.5028 9.64908 11.0718 9.97256 10.6633 10.3233C9.43909 11.3816 8.48128 12.619 7.80022 14.0333C7.08213 15.4664 6.65827 16.9938 6.52041 18.6238C6.4237 19.8486 6.50395 21.0566 6.76423 22.249C6.8023 22.4542 8.72716 32.5082 19.014 32.6328L19.0079 32.6286C19.4461 32.6474 19.8844 32.6516 20.3226 32.6296C23.2506 32.4799 25.9758 31.3744 28.3328 29.6314C31.0303 27.655 33.166 24.2537 34.6948 20.6662C35.487 18.8017 36.4438 16.6756 37.8892 15.0917C39.6845 13.087 42.2626 11.9155 44.9323 11.9626C47.0773 12.0003 49.1956 12.8336 50.8252 14.249C52.4826 15.6821 53.2645 18.1181 53.2645 20.2914C53.2645 24.9572 49.5269 28.7604 44.9416 28.7604C42.7945 28.7604 40.7945 27.9387 39.2863 26.5118C37.88 25.1813 35.7874 24.93 34.0683 25.7999C36.1403 30.025 40.311 32.6485 44.9416 32.6485C51.6349 32.6485 57.0854 27.1022 57.0854 20.2914C57.0854 17.0032 55.7685 13.893 53.5772 11.6538C52.1781 10.2207 50.4188 9.14345 48.4209 8.59071V8.58967Z" fill="#3E3E3E"/>
<path d="M132.734 5.44196V0.152344H134.083L135.108 3.36004C135.139 3.45257 135.17 3.55795 135.201 3.67619C135.232 3.79442 135.26 3.90751 135.286 4.01546C135.317 4.12341 135.34 4.21851 135.355 4.30076H135.417C135.427 4.22365 135.445 4.13112 135.471 4.02317C135.497 3.91522 135.522 3.80213 135.548 3.6839C135.579 3.56566 135.61 3.45514 135.64 3.35233L136.674 0.152344H138V5.44196H137.144V2.5427C137.144 2.34736 137.147 2.1443 137.152 1.93354C137.157 1.72278 137.162 1.53515 137.167 1.37065C137.172 1.20616 137.175 1.10077 137.175 1.05451H137.113C137.103 1.11106 137.077 1.20873 137.036 1.34752C137 1.48117 136.962 1.62511 136.92 1.77933C136.879 1.93354 136.841 2.0672 136.805 2.18029L135.733 5.44196H134.97L133.898 2.188C133.867 2.09033 133.834 1.97467 133.798 1.84101C133.762 1.70736 133.726 1.57113 133.69 1.43234C133.654 1.29354 133.623 1.1676 133.597 1.05451H133.535C133.541 1.17788 133.543 1.32953 133.543 1.50945C133.548 1.68937 133.553 1.87186 133.559 2.05691C133.564 2.23683 133.566 2.39876 133.566 2.5427V5.44196H132.734Z" fill="#858585"/>
<path d="M129.308 5.44196V0.892582H127.557V0.152344H131.937V0.892582H130.171V5.44196H129.308Z" fill="#858585"/>
<path d="M3.92 63V59.01L0.14 53.396H1.666L4.592 57.834H4.662L7.574 53.396H9.03L5.264 59.01V63H3.92ZM11.8377 63.168C11.091 63.168 10.461 63.0327 9.94766 62.762C9.44366 62.482 9.05632 62.0573 8.78566 61.488C8.52432 60.9187 8.39366 60.1953 8.39366 59.318C8.39366 58.4313 8.52432 57.708 8.78566 57.148C9.05632 56.5787 9.44366 56.1587 9.94766 55.888C10.461 55.608 11.091 55.468 11.8377 55.468C12.5843 55.468 13.2097 55.608 13.7137 55.888C14.227 56.1587 14.6143 56.5787 14.8757 57.148C15.137 57.708 15.2677 58.4313 15.2677 59.318C15.2677 60.1953 15.137 60.9187 14.8757 61.488C14.6143 62.0573 14.227 62.482 13.7137 62.762C13.2097 63.0327 12.5843 63.168 11.8377 63.168ZM11.8377 62.132C12.3137 62.132 12.7103 62.0387 13.0277 61.852C13.345 61.6653 13.583 61.376 13.7417 60.984C13.9097 60.5827 13.9937 60.0787 13.9937 59.472V59.164C13.9937 58.548 13.9097 58.044 13.7417 57.652C13.583 57.26 13.345 56.9707 13.0277 56.784C12.7103 56.5973 12.3137 56.504 11.8377 56.504C11.3617 56.504 10.9603 56.5973 10.6337 56.784C10.3163 56.9707 10.0783 57.26 9.91966 57.652C9.76099 58.044 9.68166 58.548 9.68166 59.164V59.472C9.68166 60.0787 9.76099 60.5827 9.91966 60.984C10.0783 61.376 10.3163 61.6653 10.6337 61.852C10.9603 62.0387 11.3617 62.132 11.8377 62.132ZM19.08 63.168C18.3707 63.168 17.8014 62.986 17.372 62.622C16.9427 62.258 16.728 61.6233 16.728 60.718V55.636H17.96V60.55C17.96 60.858 17.9974 61.11 18.072 61.306C18.1467 61.502 18.254 61.656 18.394 61.768C18.534 61.88 18.6974 61.9593 18.884 62.006C19.08 62.0527 19.29 62.076 19.514 62.076C19.8687 62.076 20.1954 61.992 20.494 61.824C20.7927 61.656 21.0354 61.4133 21.222 61.096C21.418 60.7693 21.516 60.3913 21.516 59.962V55.636H22.748V63H21.754L21.642 61.894H21.544C21.348 62.1927 21.124 62.4353 20.872 62.622C20.6294 62.8087 20.354 62.944 20.046 63.028C19.7474 63.1213 19.4254 63.168 19.08 63.168ZM24.6594 63V55.636H25.6534L25.7654 56.854H25.8634C25.938 56.6207 26.0407 56.4013 26.1714 56.196C26.302 55.9813 26.4794 55.8087 26.7034 55.678C26.9274 55.538 27.2027 55.468 27.5294 55.468C27.6694 55.468 27.7954 55.482 27.9074 55.51C28.0287 55.5287 28.1174 55.552 28.1734 55.58V56.714H27.7114C27.394 56.714 27.1187 56.77 26.8854 56.882C26.6614 56.9847 26.4747 57.134 26.3254 57.33C26.176 57.526 26.064 57.7593 25.9894 58.03C25.924 58.3007 25.8914 58.59 25.8914 58.898V63H24.6594ZM34.4661 63.168C33.8595 63.168 33.3368 63.0327 32.8981 62.762C32.4688 62.4913 32.1328 62.0713 31.8901 61.502C31.6568 60.9233 31.5401 60.1767 31.5401 59.262C31.5401 58.394 31.6615 57.68 31.9041 57.12C32.1468 56.56 32.4828 56.1447 32.9121 55.874C33.3415 55.6033 33.8408 55.468 34.4101 55.468C34.7368 55.468 35.0401 55.5053 35.3201 55.58C35.6001 55.6547 35.8475 55.7713 36.0621 55.93C36.2861 56.0887 36.4821 56.2987 36.6501 56.56H36.7341V52.878H37.9661V63H36.9721L36.8601 61.95H36.7621C36.5101 62.3607 36.1835 62.6687 35.7821 62.874C35.3808 63.07 34.9421 63.168 34.4661 63.168ZM34.7601 62.09C35.2268 62.09 35.6048 61.9873 35.8941 61.782C36.1835 61.5767 36.3935 61.278 36.5241 60.886C36.6641 60.494 36.7341 60.0087 36.7341 59.43V59.206C36.7341 58.702 36.6828 58.2773 36.5801 57.932C36.4775 57.5867 36.3375 57.3113 36.1601 57.106C35.9828 56.9007 35.7775 56.756 35.5441 56.672C35.3108 56.588 35.0635 56.546 34.8021 56.546C34.3448 56.546 33.9715 56.6393 33.6821 56.826C33.3928 57.0033 33.1781 57.288 33.0381 57.68C32.8981 58.0627 32.8281 58.562 32.8281 59.178V59.472C32.8281 60.1067 32.9028 60.62 33.0521 61.012C33.2015 61.3947 33.4161 61.67 33.6961 61.838C33.9855 62.006 34.3401 62.09 34.7601 62.09ZM39.9035 54.25V52.878H41.1355V54.25H39.9035ZM39.9035 63V55.636H41.1355V63H39.9035ZM44.294 65.548C43.9394 65.548 43.6127 65.4733 43.314 65.324C43.0154 65.184 42.7774 64.9787 42.6 64.708C42.4227 64.4373 42.334 64.1153 42.334 63.742C42.334 63.3313 42.446 62.9907 42.67 62.72C42.9034 62.4493 43.1787 62.2487 43.496 62.118C43.2627 62.006 43.0807 61.852 42.95 61.656C42.8194 61.4507 42.754 61.2267 42.754 60.984C42.754 60.6573 42.8707 60.382 43.104 60.158C43.3467 59.934 43.6407 59.7847 43.986 59.71C43.6687 59.5047 43.4167 59.2433 43.23 58.926C43.0527 58.5993 42.964 58.24 42.964 57.848C42.964 57.3813 43.0714 56.9707 43.286 56.616C43.51 56.2613 43.846 55.9813 44.294 55.776C44.7514 55.5707 45.3067 55.468 45.96 55.468C46.2587 55.468 46.5387 55.4913 46.8 55.538C47.0614 55.5753 47.2947 55.6407 47.5 55.734C47.8267 55.5847 48.0694 55.3933 48.228 55.16C48.396 54.9267 48.4987 54.6887 48.536 54.446H49.754C49.754 54.726 49.6887 54.992 49.558 55.244C49.4367 55.4867 49.2687 55.692 49.054 55.86C48.8394 56.0187 48.578 56.126 48.27 56.182C48.5034 56.406 48.676 56.658 48.788 56.938C48.9094 57.218 48.97 57.5213 48.97 57.848C48.97 58.3147 48.858 58.73 48.634 59.094C48.4194 59.4487 48.0927 59.7287 47.654 59.934C47.2154 60.1393 46.6647 60.242 46.002 60.242H44.854C44.602 60.242 44.3967 60.2933 44.238 60.396C44.0794 60.4893 44 60.6433 44 60.858C44 61.0447 44.0794 61.1987 44.238 61.32C44.3967 61.432 44.602 61.488 44.854 61.488H47.85C48.3914 61.488 48.8347 61.67 49.18 62.034C49.5254 62.3887 49.698 62.846 49.698 63.406C49.698 63.8073 49.5954 64.1667 49.39 64.484C49.194 64.8107 48.914 65.0673 48.55 65.254C48.1954 65.45 47.78 65.548 47.304 65.548H44.294ZM44.644 64.61H47.29C47.5047 64.61 47.7007 64.5633 47.878 64.47C48.0554 64.386 48.1954 64.2647 48.298 64.106C48.4007 63.9473 48.452 63.7747 48.452 63.588C48.452 63.2707 48.3587 63.0187 48.172 62.832C47.9854 62.6453 47.752 62.552 47.472 62.552H44.644C44.3454 62.552 44.0934 62.6547 43.888 62.86C43.6827 63.056 43.58 63.2987 43.58 63.588C43.58 63.896 43.6827 64.1433 43.888 64.33C44.0934 64.5167 44.3454 64.61 44.644 64.61ZM45.974 59.318C46.5714 59.318 47.0147 59.1873 47.304 58.926C47.5934 58.6647 47.738 58.3053 47.738 57.848C47.738 57.4 47.5934 57.0453 47.304 56.784C47.0147 56.5227 46.5714 56.392 45.974 56.392C45.3767 56.392 44.9287 56.5227 44.63 56.784C44.3407 57.0453 44.196 57.4 44.196 57.848C44.196 58.1373 44.2614 58.394 44.392 58.618C44.5227 58.842 44.7187 59.0147 44.98 59.136C45.2414 59.2573 45.5727 59.318 45.974 59.318ZM50.8273 54.25V52.878H52.0593V54.25H50.8273ZM50.8273 63V55.636H52.0593V63H50.8273ZM55.6939 63.168C55.3112 63.168 55.0125 63.098 54.7979 62.958C54.5832 62.8087 54.4292 62.6173 54.3359 62.384C54.2425 62.1413 54.1959 61.8847 54.1959 61.614V56.672H53.2439V55.636H54.2239L54.4479 53.578H55.4279V55.636H56.8139V56.672H55.4279V61.432C55.4279 61.6653 55.4699 61.8427 55.5539 61.964C55.6379 62.076 55.7965 62.132 56.0299 62.132H56.8139V62.944C56.7205 62.9907 56.6085 63.028 56.4779 63.056C56.3472 63.084 56.2119 63.1073 56.0719 63.126C55.9412 63.154 55.8152 63.168 55.6939 63.168ZM59.9761 63.168C59.7054 63.168 59.4348 63.1353 59.1641 63.07C58.8934 63.0047 58.6414 62.8973 58.4081 62.748C58.1748 62.5987 57.9881 62.3933 57.8481 62.132C57.7081 61.8613 57.6381 61.5253 57.6381 61.124C57.6381 60.62 57.7594 60.2047 58.0021 59.878C58.2448 59.5513 58.5808 59.2993 59.0101 59.122C59.4488 58.9353 59.9668 58.8093 60.5641 58.744C61.1614 58.6693 61.8101 58.632 62.5101 58.632V57.792C62.5101 57.5213 62.4634 57.288 62.3701 57.092C62.2768 56.896 62.1088 56.7467 61.8661 56.644C61.6328 56.532 61.2968 56.476 60.8581 56.476C60.4381 56.476 60.1021 56.532 59.8501 56.644C59.6074 56.7467 59.4348 56.882 59.3321 57.05C59.2388 57.218 59.1921 57.4047 59.1921 57.61V57.82H58.0021C57.9928 57.7733 57.9881 57.7267 57.9881 57.68C57.9881 57.6333 57.9881 57.5773 57.9881 57.512C57.9881 57.064 58.1094 56.6907 58.3521 56.392C58.6041 56.084 58.9541 55.8553 59.4021 55.706C59.8501 55.5473 60.3634 55.468 60.9421 55.468C61.5581 55.468 62.0714 55.5567 62.4821 55.734C62.9021 55.9113 63.2148 56.1633 63.4201 56.49C63.6348 56.8167 63.7421 57.2087 63.7421 57.666V61.656C63.7421 61.8333 63.7841 61.9593 63.8681 62.034C63.9521 62.0993 64.0548 62.132 64.1761 62.132H64.7221V62.944C64.5914 63 64.4468 63.0467 64.2881 63.084C64.1294 63.1307 63.9474 63.154 63.7421 63.154C63.4994 63.154 63.2988 63.1027 63.1401 63C62.9814 62.9067 62.8601 62.776 62.7761 62.608C62.6921 62.4307 62.6361 62.2347 62.6081 62.02H62.5101C62.3421 62.2533 62.1274 62.4587 61.8661 62.636C61.6141 62.804 61.3294 62.9347 61.0121 63.028C60.6948 63.1213 60.3494 63.168 59.9761 63.168ZM60.2841 62.132C60.5828 62.132 60.8628 62.0853 61.1241 61.992C61.3948 61.8987 61.6328 61.768 61.8381 61.6C62.0434 61.4227 62.2068 61.2127 62.3281 60.97C62.4494 60.7273 62.5101 60.4613 62.5101 60.172V59.556C61.7541 59.556 61.1101 59.598 60.5781 59.682C60.0461 59.766 59.6354 59.9153 59.3461 60.13C59.0661 60.3447 58.9261 60.648 58.9261 61.04C58.9261 61.292 58.9821 61.4973 59.0941 61.656C59.2061 61.8147 59.3648 61.936 59.5701 62.02C59.7754 62.0947 60.0134 62.132 60.2841 62.132ZM65.757 63V52.878H66.989V63H65.757ZM74.4033 63.168C73.8993 63.168 73.456 63.1167 73.0733 63.014C72.6907 62.9113 72.3733 62.762 72.1213 62.566C71.8693 62.37 71.678 62.1367 71.5473 61.866C71.4167 61.5953 71.3513 61.2873 71.3513 60.942C71.3513 60.8953 71.3513 60.8533 71.3513 60.816C71.3513 60.7693 71.356 60.732 71.3653 60.704H72.5833C72.574 60.7413 72.5693 60.774 72.5693 60.802C72.5693 60.83 72.5693 60.858 72.5693 60.886C72.5787 61.2127 72.6627 61.4693 72.8213 61.656C72.9893 61.8427 73.218 61.9733 73.5073 62.048C73.7967 62.1227 74.1187 62.16 74.4733 62.16C74.7813 62.16 75.066 62.1227 75.3273 62.048C75.5887 61.964 75.794 61.8427 75.9433 61.684C76.102 61.516 76.1813 61.306 76.1813 61.054C76.1813 60.746 76.0787 60.5127 75.8733 60.354C75.6773 60.186 75.416 60.0553 75.0893 59.962C74.7627 59.8687 74.422 59.7707 74.0673 59.668C73.7687 59.584 73.47 59.4907 73.1713 59.388C72.8727 59.2853 72.602 59.1593 72.3593 59.01C72.126 58.8607 71.9347 58.6693 71.7853 58.436C71.6453 58.1933 71.5753 57.89 71.5753 57.526C71.5753 57.1993 71.6407 56.91 71.7713 56.658C71.9113 56.406 72.1073 56.1913 72.3593 56.014C72.6113 55.8367 72.9147 55.706 73.2693 55.622C73.6333 55.5287 74.0347 55.482 74.4733 55.482C74.94 55.482 75.346 55.5333 75.6913 55.636C76.046 55.7387 76.34 55.8833 76.5733 56.07C76.8067 56.2567 76.9793 56.4713 77.0913 56.714C77.2033 56.9473 77.2593 57.1993 77.2593 57.47C77.2593 57.526 77.2593 57.582 77.2593 57.638C77.2593 57.6847 77.2547 57.722 77.2453 57.75H76.0413V57.596C76.0413 57.4093 75.99 57.232 75.8873 57.064C75.794 56.8867 75.626 56.7467 75.3833 56.644C75.15 56.532 74.8233 56.476 74.4033 56.476C74.1327 56.476 73.8993 56.4993 73.7033 56.546C73.5073 56.5833 73.344 56.6487 73.2133 56.742C73.0827 56.826 72.9847 56.9287 72.9193 57.05C72.854 57.162 72.8213 57.2927 72.8213 57.442C72.8213 57.6847 72.9007 57.8713 73.0593 58.002C73.218 58.1327 73.428 58.24 73.6893 58.324C73.96 58.408 74.2493 58.5013 74.5573 58.604C74.884 58.6973 75.2153 58.7953 75.5513 58.898C75.8967 58.9913 76.2093 59.1127 76.4893 59.262C76.7787 59.4113 77.0073 59.6167 77.1753 59.878C77.3527 60.13 77.4413 60.466 77.4413 60.886C77.4413 61.278 77.3667 61.6187 77.2173 61.908C77.068 62.1973 76.8533 62.4353 76.5733 62.622C76.3027 62.8087 75.9807 62.944 75.6073 63.028C75.2433 63.1213 74.842 63.168 74.4033 63.168ZM81.988 63.168C81.2414 63.168 80.6114 63.0327 80.098 62.762C79.594 62.482 79.2067 62.0573 78.936 61.488C78.6747 60.9187 78.544 60.1953 78.544 59.318C78.544 58.4313 78.6747 57.708 78.936 57.148C79.2067 56.5787 79.594 56.1587 80.098 55.888C80.6114 55.608 81.2414 55.468 81.988 55.468C82.7347 55.468 83.36 55.608 83.864 55.888C84.3774 56.1587 84.7647 56.5787 85.026 57.148C85.2874 57.708 85.418 58.4313 85.418 59.318C85.418 60.1953 85.2874 60.9187 85.026 61.488C84.7647 62.0573 84.3774 62.482 83.864 62.762C83.36 63.0327 82.7347 63.168 81.988 63.168ZM81.988 62.132C82.464 62.132 82.8607 62.0387 83.178 61.852C83.4954 61.6653 83.7334 61.376 83.892 60.984C84.06 60.5827 84.144 60.0787 84.144 59.472V59.164C84.144 58.548 84.06 58.044 83.892 57.652C83.7334 57.26 83.4954 56.9707 83.178 56.784C82.8607 56.5973 82.464 56.504 81.988 56.504C81.512 56.504 81.1107 56.5973 80.784 56.784C80.4667 56.9707 80.2287 57.26 80.07 57.652C79.9114 58.044 79.832 58.548 79.832 59.164V59.472C79.832 60.0787 79.9114 60.5827 80.07 60.984C80.2287 61.376 80.4667 61.6653 80.784 61.852C81.1107 62.0387 81.512 62.132 81.988 62.132ZM86.9484 63V52.878H88.1804V63H86.9484ZM92.375 63.168C91.6656 63.168 91.0963 62.986 90.667 62.622C90.2376 62.258 90.023 61.6233 90.023 60.718V55.636H91.255V60.55C91.255 60.858 91.2923 61.11 91.367 61.306C91.4416 61.502 91.549 61.656 91.689 61.768C91.829 61.88 91.9923 61.9593 92.179 62.006C92.375 62.0527 92.585 62.076 92.809 62.076C93.1636 62.076 93.4903 61.992 93.789 61.824C94.0876 61.656 94.3303 61.4133 94.517 61.096C94.713 60.7693 94.811 60.3913 94.811 59.962V55.636H96.043V63H95.049L94.937 61.894H94.839C94.643 62.1927 94.419 62.4353 94.167 62.622C93.9243 62.8087 93.649 62.944 93.341 63.028C93.0423 63.1213 92.7203 63.168 92.375 63.168ZM99.6763 63.168C99.2936 63.168 98.9949 63.098 98.7803 62.958C98.5656 62.8087 98.4116 62.6173 98.3183 62.384C98.2249 62.1413 98.1783 61.8847 98.1783 61.614V56.672H97.2263V55.636H98.2063L98.4303 53.578H99.4103V55.636H100.796V56.672H99.4103V61.432C99.4103 61.6653 99.4523 61.8427 99.5363 61.964C99.6203 62.076 99.7789 62.132 100.012 62.132H100.796V62.944C100.703 62.9907 100.591 63.028 100.46 63.056C100.33 63.084 100.194 63.1073 100.054 63.126C99.9236 63.154 99.7976 63.168 99.6763 63.168ZM102.111 54.25V52.878H103.343V54.25H102.111ZM102.111 63V55.636H103.343V63H102.111ZM108.279 63.168C107.532 63.168 106.902 63.0327 106.389 62.762C105.885 62.482 105.498 62.0573 105.227 61.488C104.966 60.9187 104.835 60.1953 104.835 59.318C104.835 58.4313 104.966 57.708 105.227 57.148C105.498 56.5787 105.885 56.1587 106.389 55.888C106.902 55.608 107.532 55.468 108.279 55.468C109.026 55.468 109.651 55.608 110.155 55.888C110.668 56.1587 111.056 56.5787 111.317 57.148C111.578 57.708 111.709 58.4313 111.709 59.318C111.709 60.1953 111.578 60.9187 111.317 61.488C111.056 62.0573 110.668 62.482 110.155 62.762C109.651 63.0327 109.026 63.168 108.279 63.168ZM108.279 62.132C108.755 62.132 109.152 62.0387 109.469 61.852C109.786 61.6653 110.024 61.376 110.183 60.984C110.351 60.5827 110.435 60.0787 110.435 59.472V59.164C110.435 58.548 110.351 58.044 110.183 57.652C110.024 57.26 109.786 56.9707 109.469 56.784C109.152 56.5973 108.755 56.504 108.279 56.504C107.803 56.504 107.402 56.5973 107.075 56.784C106.758 56.9707 106.52 57.26 106.361 57.652C106.202 58.044 106.123 58.548 106.123 59.164V59.472C106.123 60.0787 106.202 60.5827 106.361 60.984C106.52 61.376 106.758 61.6653 107.075 61.852C107.402 62.0387 107.803 62.132 108.279 62.132ZM113.239 63V55.636H114.233L114.345 56.742H114.443C114.639 56.4433 114.859 56.2007 115.101 56.014C115.353 55.8273 115.629 55.692 115.927 55.608C116.235 55.5147 116.562 55.468 116.907 55.468C117.374 55.468 117.78 55.5473 118.125 55.706C118.48 55.8647 118.755 56.1213 118.951 56.476C119.157 56.8307 119.259 57.3113 119.259 57.918V63H118.027V58.086C118.027 57.778 117.985 57.526 117.901 57.33C117.827 57.134 117.719 56.98 117.579 56.868C117.449 56.756 117.285 56.6767 117.089 56.63C116.903 56.5833 116.693 56.56 116.459 56.56C116.114 56.56 115.787 56.644 115.479 56.812C115.171 56.98 114.924 57.2227 114.737 57.54C114.56 57.8573 114.471 58.2353 114.471 58.674V63H113.239ZM124.054 65.422V55.636H125.034L125.16 56.686H125.258C125.51 56.2753 125.832 55.972 126.224 55.776C126.616 55.5707 127.059 55.468 127.554 55.468C128.17 55.468 128.693 55.6033 129.122 55.874C129.551 56.1447 129.883 56.5693 130.116 57.148C130.349 57.7173 130.466 58.4593 130.466 59.374C130.466 60.2327 130.345 60.9467 130.102 61.516C129.869 62.076 129.537 62.4913 129.108 62.762C128.679 63.0327 128.179 63.168 127.61 63.168C127.293 63.168 126.994 63.1307 126.714 63.056C126.434 62.9813 126.182 62.8647 125.958 62.706C125.734 62.538 125.538 62.328 125.37 62.076H125.286V65.422H124.054ZM127.218 62.09C127.675 62.09 128.049 62.0013 128.338 61.824C128.627 61.6373 128.842 61.3527 128.982 60.97C129.122 60.578 129.192 60.0787 129.192 59.472V59.178C129.192 58.534 129.117 58.0207 128.968 57.638C128.819 57.246 128.599 56.966 128.31 56.798C128.03 56.63 127.68 56.546 127.26 56.546C126.803 56.546 126.425 56.6487 126.126 56.854C125.837 57.05 125.622 57.3487 125.482 57.75C125.351 58.1513 125.286 58.6413 125.286 59.22V59.43C125.286 59.9433 125.333 60.3727 125.426 60.718C125.529 61.054 125.669 61.3247 125.846 61.53C126.033 61.7353 126.243 61.88 126.476 61.964C126.709 62.048 126.957 62.09 127.218 62.09ZM133.845 63.168C133.575 63.168 133.304 63.1353 133.033 63.07C132.763 63.0047 132.511 62.8973 132.277 62.748C132.044 62.5987 131.857 62.3933 131.717 62.132C131.577 61.8613 131.507 61.5253 131.507 61.124C131.507 60.62 131.629 60.2047 131.871 59.878C132.114 59.5513 132.45 59.2993 132.879 59.122C133.318 58.9353 133.836 58.8093 134.433 58.744C135.031 58.6693 135.679 58.632 136.379 58.632V57.792C136.379 57.5213 136.333 57.288 136.239 57.092C136.146 56.896 135.978 56.7467 135.735 56.644C135.502 56.532 135.166 56.476 134.727 56.476C134.307 56.476 133.971 56.532 133.719 56.644C133.477 56.7467 133.304 56.882 133.201 57.05C133.108 57.218 133.061 57.4047 133.061 57.61V57.82H131.871C131.862 57.7733 131.857 57.7267 131.857 57.68C131.857 57.6333 131.857 57.5773 131.857 57.512C131.857 57.064 131.979 56.6907 132.221 56.392C132.473 56.084 132.823 55.8553 133.271 55.706C133.719 55.5473 134.233 55.468 134.811 55.468C135.427 55.468 135.941 55.5567 136.351 55.734C136.771 55.9113 137.084 56.1633 137.289 56.49C137.504 56.8167 137.611 57.2087 137.611 57.666V61.656C137.611 61.8333 137.653 61.9593 137.737 62.034C137.821 62.0993 137.924 62.132 138.045 62.132H138.591V62.944C138.461 63 138.316 63.0467 138.157 63.084C137.999 63.1307 137.817 63.154 137.611 63.154C137.369 63.154 137.168 63.1027 137.009 63C136.851 62.9067 136.729 62.776 136.645 62.608C136.561 62.4307 136.505 62.2347 136.477 62.02H136.379C136.211 62.2533 135.997 62.4587 135.735 62.636C135.483 62.804 135.199 62.9347 134.881 63.028C134.564 63.1213 134.219 63.168 133.845 63.168ZM134.153 62.132C134.452 62.132 134.732 62.0853 134.993 61.992C135.264 61.8987 135.502 61.768 135.707 61.6C135.913 61.4227 136.076 61.2127 136.197 60.97C136.319 60.7273 136.379 60.4613 136.379 60.172V59.556C135.623 59.556 134.979 59.598 134.447 59.682C133.915 59.766 133.505 59.9153 133.215 60.13C132.935 60.3447 132.795 60.648 132.795 61.04C132.795 61.292 132.851 61.4973 132.963 61.656C133.075 61.8147 133.234 61.936 133.439 62.02C133.645 62.0947 133.883 62.132 134.153 62.132ZM139.626 63V55.636H140.62L140.732 56.854H140.83C140.905 56.6207 141.007 56.4013 141.138 56.196C141.269 55.9813 141.446 55.8087 141.67 55.678C141.894 55.538 142.169 55.468 142.496 55.468C142.636 55.468 142.762 55.482 142.874 55.51C142.995 55.5287 143.084 55.552 143.14 55.58V56.714H142.678C142.361 56.714 142.085 56.77 141.852 56.882C141.628 56.9847 141.441 57.134 141.292 57.33C141.143 57.526 141.031 57.7593 140.956 58.03C140.891 58.3007 140.858 58.59 140.858 58.898V63H139.626ZM145.997 63.168C145.614 63.168 145.315 63.098 145.101 62.958C144.886 62.8087 144.732 62.6173 144.639 62.384C144.545 62.1413 144.499 61.8847 144.499 61.614V56.672H143.547V55.636H144.527L144.751 53.578H145.731V55.636H147.117V56.672H145.731V61.432C145.731 61.6653 145.773 61.8427 145.857 61.964C145.941 62.076 146.099 62.132 146.333 62.132H147.117V62.944C147.023 62.9907 146.911 63.028 146.781 63.056C146.65 63.084 146.515 63.1073 146.375 63.126C146.244 63.154 146.118 63.168 145.997 63.168ZM148.431 63V55.636H149.425L149.537 56.742H149.635C149.831 56.4433 150.05 56.2007 150.293 56.014C150.545 55.8273 150.82 55.692 151.119 55.608C151.427 55.5147 151.754 55.468 152.099 55.468C152.566 55.468 152.972 55.5473 153.317 55.706C153.672 55.8647 153.947 56.1213 154.143 56.476C154.348 56.8307 154.451 57.3113 154.451 57.918V63H153.219V58.086C153.219 57.778 153.177 57.526 153.093 57.33C153.018 57.134 152.911 56.98 152.771 56.868C152.64 56.756 152.477 56.6767 152.281 56.63C152.094 56.5833 151.884 56.56 151.651 56.56C151.306 56.56 150.979 56.644 150.671 56.812C150.363 56.98 150.116 57.2227 149.929 57.54C149.752 57.8573 149.663 58.2353 149.663 58.674V63H148.431ZM159.26 63.168C158.532 63.168 157.916 63.0327 157.412 62.762C156.917 62.482 156.539 62.0573 156.278 61.488C156.026 60.9187 155.9 60.1953 155.9 59.318C155.9 58.4313 156.026 57.708 156.278 57.148C156.539 56.5787 156.922 56.1587 157.426 55.888C157.93 55.608 158.56 55.468 159.316 55.468C160.006 55.468 160.585 55.6033 161.052 55.874C161.518 56.1353 161.868 56.532 162.102 57.064C162.344 57.5867 162.466 58.2447 162.466 59.038V59.626H157.174C157.192 60.214 157.276 60.6993 157.426 61.082C157.584 61.4553 157.818 61.7307 158.126 61.908C158.434 62.076 158.821 62.16 159.288 62.16C159.605 62.16 159.88 62.1227 160.114 62.048C160.356 61.964 160.557 61.8473 160.716 61.698C160.884 61.5487 161.01 61.3713 161.094 61.166C161.178 60.9607 161.224 60.7367 161.234 60.494H162.438C162.428 60.886 162.354 61.25 162.214 61.586C162.074 61.9127 161.868 62.1927 161.598 62.426C161.327 62.6593 160.996 62.8413 160.604 62.972C160.212 63.1027 159.764 63.168 159.26 63.168ZM157.202 58.702H161.192C161.192 58.2913 161.145 57.946 161.052 57.666C160.958 57.386 160.823 57.1573 160.646 56.98C160.478 56.8027 160.277 56.6767 160.044 56.602C159.82 56.518 159.563 56.476 159.274 56.476C158.844 56.476 158.48 56.5553 158.182 56.714C157.883 56.8727 157.654 57.1153 157.496 57.442C157.337 57.7687 157.239 58.1887 157.202 58.702ZM163.989 63V55.636H164.983L165.095 56.854H165.193C165.268 56.6207 165.371 56.4013 165.501 56.196C165.632 55.9813 165.809 55.8087 166.033 55.678C166.257 55.538 166.533 55.468 166.859 55.468C166.999 55.468 167.125 55.482 167.237 55.51C167.359 55.5287 167.447 55.552 167.503 55.58V56.714H167.041C166.724 56.714 166.449 56.77 166.215 56.882C165.991 56.9847 165.805 57.134 165.655 57.33C165.506 57.526 165.394 57.7593 165.319 58.03C165.254 58.3007 165.221 58.59 165.221 58.898V63H163.989Z" fill="#858585"/>
</svg>
