<svg width="27" height="28" viewBox="0 0 27 28" fill="none" xmlns="http://www.w3.org/2000/svg">
<path fill-rule="evenodd" clip-rule="evenodd" d="M0.633299 3.03202C0 4.25117 0 5.85286 0 9.05625V17.9438C0 21.1471 0 22.7488 0.633299 23.968C1.16697 24.9953 2.00465 25.833 3.03202 26.3667C4.25117 27 5.85286 27 9.05625 27H10.1209C10.1229 26.7807 10.1425 24.523 10.1357 23.364C6.38059 24.1795 5.5883 21.554 5.5883 21.554C4.9742 19.9951 4.08909 19.5799 4.08909 19.5799C2.86336 18.742 4.18191 18.7586 4.18191 18.7586C5.53692 18.8547 6.24965 20.1501 6.24965 20.1501C7.45383 22.2129 9.40969 21.617 10.1788 21.2722C10.3014 20.3995 10.6495 19.8045 11.0357 19.4672C8.0381 19.1266 4.88635 17.968 4.88635 12.7949C4.88635 11.3214 5.41261 10.1164 6.27617 9.1724C6.13694 8.83096 5.67366 7.45854 6.40794 5.59964C6.40794 5.59964 7.54168 5.23665 10.1208 6.98366C11.1973 6.68448 12.3526 6.53448 13.5004 6.52951C14.6466 6.53448 15.8019 6.68448 16.8801 6.98366C19.4575 5.23665 20.5888 5.59964 20.5888 5.59964C21.3255 7.45854 20.8623 8.83096 20.723 9.1724C21.5882 10.1164 22.1112 11.3214 22.1112 12.7949C22.1112 17.9812 18.9545 19.1224 15.9469 19.4564C16.4317 19.8733 16.8635 20.6971 16.8635 21.9568C16.8635 23.5735 16.8787 26.7388 16.88 27H17.9438C21.1471 27 22.7488 27 23.968 26.3667C24.9953 25.833 25.833 24.9953 26.3667 23.968C27 22.7488 27 21.1471 27 17.9438V9.05625C27 5.85286 27 4.25117 26.3667 3.03202C25.833 2.00465 24.9953 1.16697 23.968 0.633299C22.7488 0 21.1471 0 17.9438 0H9.05625C5.85286 0 4.25117 0 3.03202 0.633299C2.00465 1.16697 1.16697 2.00465 0.633299 3.03202Z" fill="#494949"/>
<path fill-rule="evenodd" clip-rule="evenodd" d="M10.1208 27.0172C10.1208 27.0172 10.1429 24.583 10.1357 23.364C6.38059 24.1795 5.5883 21.554 5.5883 21.554C4.9742 19.9951 4.08909 19.5799 4.08909 19.5799C2.86336 18.742 4.18191 18.7586 4.18191 18.7586C5.53692 18.8547 6.24965 20.1501 6.24965 20.1501C7.45383 22.2129 9.40969 21.617 10.1788 21.2722C10.3014 20.3995 10.6495 19.8045 11.0357 19.4672C8.0381 19.1266 4.88635 17.968 4.88635 12.7949C4.88635 11.3214 5.41261 10.1164 6.27617 9.1724C6.13694 8.83096 5.67366 7.45854 6.40794 5.59964C6.40794 5.59964 7.54168 5.23665 10.1208 6.98366C11.1973 6.68448 12.3526 6.53448 13.5004 6.52951C14.6466 6.53448 15.8019 6.68448 16.8801 6.98366C19.4575 5.23665 20.5888 5.59964 20.5888 5.59964C21.3255 7.45854 20.8623 8.83096 20.723 9.1724C21.5882 10.1164 22.1112 11.3214 22.1112 12.7949C22.1112 17.9812 18.9545 19.1224 15.9469 19.4564C16.4317 19.8733 16.8635 20.6971 16.8635 21.9568C16.8635 23.6439 16.8801 27.0172 16.8801 27.0172H10.1208Z" fill="white"/>
</svg>
