<svg width="11" height="11" viewBox="0 0 11 11" fill="none" xmlns="http://www.w3.org/2000/svg">
<path d="M4.37459 1.63317C4.76118 0.588423 6.23884 0.588423 6.62543 1.63317L7.25317 3.32961C7.37472 3.65807 7.63369 3.91705 7.96216 4.03859L9.6586 4.66634C10.7033 5.05293 10.7033 6.53059 9.6586 6.91718L7.96216 7.54492C7.63369 7.66647 7.37472 7.92544 7.25317 8.25391L6.62543 9.95035C6.23884 10.9951 4.76118 10.9951 4.37459 9.95035L3.74685 8.25391C3.6253 7.92544 3.36633 7.66647 3.03786 7.54492L1.34142 6.91718C0.296675 6.53059 0.296675 5.05293 1.34142 4.66634L3.03786 4.03859C3.36633 3.91705 3.6253 3.65807 3.74685 3.32961L4.37459 1.63317Z" fill="url(#paint0_linear_2_640)"/>
<defs>
<linearGradient id="paint0_linear_2_640" x1="8.75529" y1="16.0493" x2="-3.07442" y2="12.2951" gradientUnits="userSpaceOnUse">
<stop stop-color="#FA781A"/>
<stop offset="1" stop-color="#FAA41A"/>
</linearGradient>
</defs>
</svg>
