<svg width="121" height="30" viewBox="0 0 121 30" fill="none" xmlns="http://www.w3.org/2000/svg">
<path d="M0 29.7752C1.94073 29.7752 3.51467 28.1736 3.51467 26.1988V0.0444336H0V29.7752Z" fill="#010101"/>
<path d="M57.6652 3.57639C56.9185 4.70952 56.5148 5.99078 56.4571 7.42115H54.3481V11.1764H56.4137V29.775C58.4517 29.775 60.1042 28.0936 60.1042 26.0197V11.1764H64.6729V7.42115H60.2356C60.2942 6.34765 60.7413 5.46943 61.576 4.78359C62.4117 4.0987 63.443 3.78608 64.6729 3.84476V0C63.2076 0 61.8615 0.312621 60.6316 0.937864C59.4018 1.56407 58.413 2.44325 57.6652 3.57542V3.57639Z" fill="#010101"/>
<path d="M78.8856 8.62064C78.0991 9.48155 77.2171 10.8263 76.6584 11.8594L76.4486 11.7113C75.7462 11.3842 75.1119 11.2207 74.5617 11.2207C73.3858 11.2207 72.4216 11.643 71.6596 12.4692C70.8391 13.3648 70.4326 14.3979 70.4326 15.5599V25.9331C70.4326 26.9922 70.0101 27.956 69.3247 28.6447C68.6394 29.3421 67.6922 29.7721 66.6514 29.7721V15.5599C66.6514 13.9496 67.0493 12.4692 67.8614 11.1351C68.6649 9.79224 69.7737 8.75049 71.1775 8.00213C72.2268 7.49424 73.3602 7.24414 74.5617 7.24414C75.526 7.24414 76.4486 7.42498 77.3277 7.778C77.8354 7.98481 78.3515 8.25992 78.8847 8.6216L78.8856 8.62064Z" fill="#010101"/>
<path d="M93.9128 8.3147C92.5506 7.7491 91.1232 7.46533 89.6296 7.46533C88.136 7.46533 86.7076 7.7491 85.3464 8.3147C83.9842 8.88127 82.8044 9.68542 81.81 10.7291C80.7843 11.7728 79.9865 12.9867 79.4146 14.3728C78.8436 15.7589 78.5581 17.2114 78.5581 18.7312C78.5581 20.2511 78.8436 21.6978 79.4146 23.0685C79.9865 24.4392 80.7834 25.6464 81.81 26.6901C82.8347 27.7338 84.0211 28.5456 85.3681 29.1266C86.7152 29.7076 88.137 29.9981 89.6305 29.9981C91.6214 29.9981 93.4524 29.4912 95.1219 28.4783C96.7913 27.4654 98.1979 26.0196 99.3399 24.141C97.6544 23.1262 95.5085 23.2166 93.9733 24.4546C92.716 25.4685 91.2688 25.9744 89.6296 25.9744C87.9904 25.9744 86.5536 25.4829 85.3237 24.4989C84.6497 23.9621 84.056 23.3071 83.5437 22.5318C83.0313 21.7564 82.7751 21.0119 82.7751 20.2963H100.569C100.657 19.6999 100.7 19.1333 100.7 18.5975C100.7 15.6175 99.6159 12.9944 97.4492 10.7291C96.4529 9.68542 95.2741 8.88127 93.9128 8.3147ZM82.7761 16.8545C82.7761 15.8705 83.0899 14.9394 83.7205 14.0602C84.35 13.182 85.1923 12.473 86.2473 11.9363C87.3013 11.3995 88.4291 11.1321 89.6305 11.1321C90.832 11.1321 91.9589 11.4005 93.0138 11.9363C94.0678 12.473 94.9101 13.181 95.5406 14.0602C96.1702 14.9394 96.485 15.8715 96.485 16.8545H82.777H82.7761Z" fill="#010101"/>
<path d="M120.318 12.8971C119.864 11.8101 119.243 10.8636 118.451 10.0585C117.631 9.2245 116.687 8.57617 115.617 8.11445C114.548 7.65273 113.427 7.42188 112.257 7.42188C111.378 7.42188 110.483 7.64504 109.577 8.09233C108.668 8.53962 107.936 9.10618 107.38 9.79106V7.95862H103.557V29.7757H107.38V16.3638C107.38 15.7376 107.511 15.1201 107.775 14.5083C108.039 13.8984 108.391 13.3684 108.83 12.9211C109.797 11.9371 110.938 11.4455 112.257 11.4455C113.576 11.4455 114.746 11.9227 115.684 12.8759C116.651 13.8599 117.134 15.021 117.134 16.3628V25.8406C117.134 28.0135 118.865 29.7748 121 29.7748V16.3628C121 15.1403 120.773 13.986 120.318 12.898V12.8971Z" fill="#010101"/>
<path d="M44.4921 7.89338C43.2991 7.55767 42.0646 7.42012 40.829 7.43743C37.4533 7.48938 34.4501 8.85818 32.1662 11.3803C30.4571 13.2657 29.4163 15.5463 28.5712 17.5356C28.2072 18.3792 27.8102 19.2228 27.3612 20.0154C26.0585 22.3394 24.3324 24.3536 21.8453 25.4819C21.4388 25.6714 21.0162 25.8349 20.5852 25.9638C18.859 26.4717 16.9977 26.4977 15.2725 25.9898C13.5464 25.4906 12.3373 24.4142 11.3977 22.8732C11.1018 22.3826 10.839 21.8661 10.6112 21.3322L26.8365 15.9667C27.4066 15.7782 27.744 15.1616 27.572 14.5767C27.3338 13.7678 26.9897 12.9973 26.5671 12.2605C26.1767 11.5794 25.7107 10.9446 25.1794 10.3703C24.0204 9.11693 22.5476 8.12712 20.9775 7.49226C20.2439 7.19599 19.4773 6.98726 18.6955 6.87279C16.7964 6.5948 14.8263 6.84297 13.0378 7.54324C12.3213 7.82412 11.6312 8.17714 10.9836 8.5975C10.5696 8.86683 10.1735 9.16406 9.79822 9.4863C8.67329 10.4588 7.79321 11.5958 7.16741 12.8953C6.50758 14.2122 6.11811 15.6156 5.99144 17.1133C5.90258 18.2387 5.97632 19.3488 6.21548 20.4444C6.25046 20.6329 8.01914 29.8711 17.4713 29.9856L17.4656 29.9817C17.8683 29.9991 18.2711 30.0029 18.6738 29.9827C21.3641 29.8452 23.8682 28.8294 26.034 27.2278C28.5126 25.4117 30.475 22.2865 31.8798 18.99C32.6077 17.2768 33.4868 15.3232 34.815 13.8678C36.4645 12.0258 38.8335 10.9494 41.2866 10.9927C43.2575 11.0273 45.2039 11.793 46.7013 13.0935C48.2242 14.4103 48.9427 16.6487 48.9427 18.6456C48.9427 22.9329 45.5083 26.4275 41.2951 26.4275C39.3222 26.4275 37.4845 25.6724 36.0987 24.3613C34.8065 23.1387 32.8837 22.9079 31.3041 23.7072C33.2079 27.5895 37.0402 30 41.2951 30C47.4453 30 52.4535 24.9038 52.4535 18.6456C52.4535 15.6243 51.2435 12.7664 49.23 10.7089C47.9444 9.39204 46.3279 8.40223 44.4921 7.89434V7.89338Z" fill="#FAA41A"/>
</svg>
