<svg width="49" height="49" viewBox="0 0 49 49" fill="none" xmlns="http://www.w3.org/2000/svg">
<rect x="0.5" y="0.5" width="48" height="48" rx="7.5" fill="#E4F8FF" stroke="#ABE7FD"/>
<path d="M28.7467 21.1575L27.0432 22.861C27.9929 24.6979 26.5799 26.9901 24.5026 26.9623C22.9376 26.9623 21.6644 25.6892 21.6644 24.1242C21.6369 22.047 23.929 20.6337 25.7659 21.5836L27.7339 19.6156C27.9032 19.4462 28.133 19.351 28.3725 19.351H34.556C33.1562 7.17641 15.8445 7.18532 14.4492 19.351H20.2586L21.9621 17.6475C21.0124 15.8107 22.4254 13.5184 24.5027 13.5461C26.0677 13.5461 27.3409 14.8193 27.3409 16.3843C27.3685 18.4615 25.0763 19.8747 23.2394 18.9248L21.2715 20.8929C21.1021 21.0622 20.8724 21.1574 20.6328 21.1574H14.4499C14.6776 23.6807 15.8516 26.0345 17.751 27.7213C18.7854 28.6775 19.4564 29.9623 19.6621 31.3415C19.6643 31.3412 29.3399 31.3412 29.3433 31.3415C29.5488 29.9626 30.2199 28.6776 31.2544 27.7213C33.1538 26.0345 34.3279 23.6807 34.5555 21.1574H28.7467V21.1575Z" fill="#7FD9F9"/>
<path d="M19.7305 34.1797C19.7305 36.5028 21.399 38.4425 23.6004 38.866C23.5106 40.2654 25.497 40.2646 25.4069 38.866C27.6082 38.4425 29.2768 36.5028 29.2768 34.1797V33.1479H19.7305V34.1797Z" fill="#7FD9F9"/>
<path d="M25.5342 16.3843C25.5342 15.8154 25.0714 15.3525 24.5025 15.3525C23.1357 15.4044 23.1361 17.3643 24.5025 17.416C25.0714 17.4159 25.5342 16.9531 25.5342 16.3843Z" fill="#7FD9F9"/>
<path d="M23.4717 24.1242C23.4717 24.693 23.9346 25.1559 24.5034 25.1559C25.8702 25.104 25.8699 23.1442 24.5034 23.0925C23.9346 23.0925 23.4717 23.5553 23.4717 24.1242Z" fill="#7FD9F9"/>
</svg>
