<svg width="82" height="83" viewBox="0 0 82 83" fill="none" xmlns="http://www.w3.org/2000/svg">
<path d="M41 82.5C32.891 82.5 24.9641 80.0954 18.2216 75.5903C11.4792 71.0851 6.22415 64.6818 3.12096 57.19C0.0177646 49.6983 -0.794172 41.4545 0.787822 33.5013C2.36982 25.5481 6.27469 18.2426 12.0086 12.5086C17.7426 6.77469 25.0481 2.86982 33.0013 1.28782C40.9545 -0.294172 49.1983 0.517765 56.69 3.62096C64.1818 6.72415 70.5851 11.9792 75.0903 18.7216C79.5954 25.4641 82 33.391 82 41.5C82 52.3739 77.6804 62.8024 69.9914 70.4914C62.3024 78.1804 51.8739 82.5 41 82.5Z" fill="white"/>
<path d="M49.3194 29.5574C46.3451 27.1387 42.4478 26.2089 38.621 27.0071C33.65 28.0428 29.7278 32.1188 28.8618 37.1477C28.1365 41.3598 29.5254 45.6181 32.5759 48.5408C34.1987 50.0935 35.1852 52.1712 35.4575 54.3586H40.183V48.9501L35.8335 42.4258L33.6116 40.2038C33.1618 39.7541 33.1618 39.0254 33.6116 38.5756C34.0614 38.1258 34.79 38.1258 35.2398 38.5756L36.7286 40.0644L38.2174 38.5756C38.6672 38.1258 39.3959 38.1258 39.8456 38.5756L41.3344 40.0644L42.8232 38.5756C43.273 38.1258 44.0017 38.1258 44.4515 38.5756L45.9403 40.0644L47.4291 38.5756C47.8788 38.1258 48.6075 38.1258 49.0573 38.5756C49.5071 39.0254 49.5071 39.7541 49.0573 40.2038L46.8353 42.4258L42.4859 48.9501V54.3586H47.1454C47.2797 52.2899 48.2618 50.2638 50.0153 48.6137C52.5476 46.2289 54.0004 42.8666 54.0004 39.3897C54.0004 35.5596 52.2945 31.976 49.3194 29.5574Z" fill="#ABE7FD"/>
<path d="M43.6381 41.0181L42.1493 42.5069C41.6995 42.9566 40.9708 42.9566 40.521 42.5069L39.0322 41.0181L38.2109 41.8394L41.3352 46.5259L44.4594 41.8394L43.6381 41.0181Z" fill="#ABE7FD"/>
<path d="M35.5771 57.8898C35.5771 59.7945 37.1268 61.3442 39.0315 61.3442H43.6373C45.542 61.3442 47.0917 59.7945 47.0917 57.8898V56.6616H35.5771V57.8898Z" fill="#ABE7FD"/>
</svg>
