<svg width="27" height="27" viewBox="0 0 27 27" fill="none" xmlns="http://www.w3.org/2000/svg">
<g clip-path="url(#clip0_2_3580)">
<path fill-rule="evenodd" clip-rule="evenodd" d="M0.648558 3.03202C0.0152588 4.25117 0.0152588 5.85286 0.0152588 9.05625V17.9438C0.0152588 21.1471 0.0152588 22.7488 0.648558 23.968C1.18223 24.9953 2.01991 25.833 3.04728 26.3667C4.26643 27 5.86812 27 9.07151 27H17.959C21.1624 27 22.7641 27 23.9832 26.3667C25.0106 25.833 25.8483 24.9953 26.382 23.968C27.0153 22.7488 27.0153 21.1471 27.0153 17.9438V9.05625C27.0153 5.85286 27.0153 4.25117 26.382 3.03202C25.8483 2.00465 25.0106 1.16697 23.9832 0.633299C22.7641 0 21.1624 0 17.959 0H9.07151C5.86812 0 4.26643 0 3.04728 0.633299C2.01991 1.16697 1.18223 2.00465 0.648558 3.03202ZM9.45217 3.74111C10.4994 3.69345 10.834 3.68179 13.5004 3.68179H13.4973C16.1645 3.68179 16.4979 3.69345 17.5452 3.74111C18.5904 3.78898 19.3042 3.95445 19.9301 4.19725C20.5764 4.44782 21.1226 4.78327 21.6687 5.32941C22.2148 5.87513 22.5502 6.42291 22.8018 7.06866C23.0432 7.69293 23.2089 8.40638 23.258 9.45161C23.305 10.4989 23.3173 10.8335 23.3173 13.5C23.3173 16.1664 23.305 16.5002 23.258 17.5475C23.2089 18.5923 23.0432 19.306 22.8018 19.9305C22.5502 20.576 22.2148 21.1238 21.6687 21.6695C21.1232 22.2157 20.5762 22.5519 19.9307 22.8027C19.3061 23.0455 18.5918 23.211 17.5466 23.2588C16.4994 23.3065 16.1658 23.3182 13.4992 23.3182C10.833 23.3182 10.4986 23.3065 9.45135 23.2588C8.40636 23.211 7.69272 23.0455 7.06806 22.8027C6.42274 22.5519 5.87498 22.2157 5.32948 21.6695C4.78356 21.1238 4.44812 20.576 4.19715 19.9303C3.95456 19.306 3.78909 18.5925 3.74102 17.5473C3.69357 16.5 3.68171 16.1664 3.68171 13.5C3.68171 10.8335 3.69398 10.4987 3.74082 9.45141C3.78786 8.40659 3.95354 7.69293 4.19694 7.06845C4.44852 6.42291 4.78397 5.87513 5.33009 5.32941C5.8758 4.78347 6.42356 4.44802 7.06929 4.19725C7.69354 3.95445 8.40697 3.78898 9.45217 3.74111ZM13.1732 5.45101C12.9747 5.45093 12.7907 5.45084 12.6197 5.45111V5.44866C10.7899 5.4507 10.4389 5.46298 9.53317 5.50388C8.57592 5.54786 8.05619 5.70741 7.71011 5.84241C7.25194 6.02077 6.92468 6.2335 6.58105 6.57713C6.23742 6.92077 6.0243 7.24804 5.84635 7.70622C5.71196 8.05232 5.55201 8.57186 5.50824 9.52913C5.4612 10.5641 5.45179 10.8734 5.45179 13.4953C5.45179 16.1171 5.4612 16.428 5.50824 17.463C5.55181 18.4203 5.71196 18.9399 5.84635 19.2855C6.0247 19.7439 6.23742 20.0704 6.58105 20.414C6.92468 20.7577 7.25194 20.9704 7.71011 21.1483C8.05639 21.2827 8.57592 21.4427 9.53317 21.4869C10.5681 21.5339 10.8788 21.5441 13.5004 21.5441C16.1218 21.5441 16.4327 21.5339 17.4677 21.4869C18.4249 21.4431 18.9448 21.2835 19.2905 21.1485C19.7489 20.9706 20.0751 20.7579 20.4187 20.4142C20.7624 20.0708 20.9755 19.7445 21.1534 19.2864C21.2878 18.9407 21.4478 18.4211 21.4916 17.4639C21.5386 16.4289 21.5488 16.118 21.5488 13.4977C21.5488 10.8775 21.5386 10.5666 21.4916 9.53159C21.448 8.57432 21.2878 8.05477 21.1534 7.70909C20.9751 7.25091 20.7624 6.92363 20.4187 6.58C20.0753 6.23636 19.7487 6.02363 19.2905 5.84568C18.9444 5.71129 18.4249 5.55134 17.4677 5.50757C16.4325 5.46052 16.1218 5.45111 13.5004 5.45111C13.3871 5.45111 13.2781 5.45106 13.1732 5.45101ZM17.563 8.25911C17.563 7.60845 18.0907 7.08134 18.7411 7.08134V7.08093C19.3915 7.08093 19.9193 7.60866 19.9193 8.25911C19.9193 8.90956 19.3915 9.43729 18.7411 9.43729C18.0907 9.43729 17.563 8.90956 17.563 8.25911ZM8.45852 13.5C8.45852 10.7156 10.7159 8.45804 13.5002 8.45793C16.2846 8.45793 18.5415 10.7155 18.5415 13.5C18.5415 16.2845 16.2848 18.541 13.5004 18.541C10.716 18.541 8.45852 16.2845 8.45852 13.5ZM16.773 13.5C16.773 11.6924 15.3077 10.2272 13.5004 10.2272C11.6929 10.2272 10.2278 11.6924 10.2278 13.5C10.2278 15.3073 11.6929 16.7727 13.5004 16.7727C15.3077 16.7727 16.773 15.3073 16.773 13.5Z" fill="url(#paint0_radial_2_3580)"/>
<path fill-rule="evenodd" clip-rule="evenodd" d="M0.648558 3.03202C0.0152588 4.25117 0.0152588 5.85286 0.0152588 9.05625V17.9438C0.0152588 21.1471 0.0152588 22.7488 0.648558 23.968C1.18223 24.9953 2.01991 25.833 3.04728 26.3667C4.26643 27 5.86812 27 9.07151 27H17.959C21.1624 27 22.7641 27 23.9832 26.3667C25.0106 25.833 25.8483 24.9953 26.382 23.968C27.0153 22.7488 27.0153 21.1471 27.0153 17.9438V9.05625C27.0153 5.85286 27.0153 4.25117 26.382 3.03202C25.8483 2.00465 25.0106 1.16697 23.9832 0.633299C22.7641 0 21.1624 0 17.959 0H9.07151C5.86812 0 4.26643 0 3.04728 0.633299C2.01991 1.16697 1.18223 2.00465 0.648558 3.03202ZM9.45217 3.74111C10.4994 3.69345 10.834 3.68179 13.5004 3.68179H13.4973C16.1645 3.68179 16.4979 3.69345 17.5452 3.74111C18.5904 3.78898 19.3042 3.95445 19.9301 4.19725C20.5764 4.44782 21.1226 4.78327 21.6687 5.32941C22.2148 5.87513 22.5502 6.42291 22.8018 7.06866C23.0432 7.69293 23.2089 8.40638 23.258 9.45161C23.305 10.4989 23.3173 10.8335 23.3173 13.5C23.3173 16.1664 23.305 16.5002 23.258 17.5475C23.2089 18.5923 23.0432 19.306 22.8018 19.9305C22.5502 20.576 22.2148 21.1238 21.6687 21.6695C21.1232 22.2157 20.5762 22.5519 19.9307 22.8027C19.3061 23.0455 18.5918 23.211 17.5466 23.2588C16.4994 23.3065 16.1658 23.3182 13.4992 23.3182C10.833 23.3182 10.4986 23.3065 9.45135 23.2588C8.40636 23.211 7.69272 23.0455 7.06806 22.8027C6.42274 22.5519 5.87498 22.2157 5.32948 21.6695C4.78356 21.1238 4.44812 20.576 4.19715 19.9303C3.95456 19.306 3.78909 18.5925 3.74102 17.5473C3.69357 16.5 3.68171 16.1664 3.68171 13.5C3.68171 10.8335 3.69398 10.4987 3.74082 9.45141C3.78786 8.40659 3.95354 7.69293 4.19694 7.06845C4.44852 6.42291 4.78397 5.87513 5.33009 5.32941C5.8758 4.78347 6.42356 4.44802 7.06929 4.19725C7.69354 3.95445 8.40697 3.78898 9.45217 3.74111ZM13.1732 5.45101C12.9747 5.45093 12.7907 5.45084 12.6197 5.45111V5.44866C10.7899 5.4507 10.4389 5.46298 9.53317 5.50388C8.57592 5.54786 8.05619 5.70741 7.71011 5.84241C7.25194 6.02077 6.92468 6.2335 6.58105 6.57713C6.23742 6.92077 6.0243 7.24804 5.84635 7.70622C5.71196 8.05232 5.55201 8.57186 5.50824 9.52913C5.4612 10.5641 5.45179 10.8734 5.45179 13.4953C5.45179 16.1171 5.4612 16.428 5.50824 17.463C5.55181 18.4203 5.71196 18.9399 5.84635 19.2855C6.0247 19.7439 6.23742 20.0704 6.58105 20.414C6.92468 20.7577 7.25194 20.9704 7.71011 21.1483C8.05639 21.2827 8.57592 21.4427 9.53317 21.4869C10.5681 21.5339 10.8788 21.5441 13.5004 21.5441C16.1218 21.5441 16.4327 21.5339 17.4677 21.4869C18.4249 21.4431 18.9448 21.2835 19.2905 21.1485C19.7489 20.9706 20.0751 20.7579 20.4187 20.4142C20.7624 20.0708 20.9755 19.7445 21.1534 19.2864C21.2878 18.9407 21.4478 18.4211 21.4916 17.4639C21.5386 16.4289 21.5488 16.118 21.5488 13.4977C21.5488 10.8775 21.5386 10.5666 21.4916 9.53159C21.448 8.57432 21.2878 8.05477 21.1534 7.70909C20.9751 7.25091 20.7624 6.92363 20.4187 6.58C20.0753 6.23636 19.7487 6.02363 19.2905 5.84568C18.9444 5.71129 18.4249 5.55134 17.4677 5.50757C16.4325 5.46052 16.1218 5.45111 13.5004 5.45111C13.3871 5.45111 13.2781 5.45106 13.1732 5.45101ZM17.563 8.25911C17.563 7.60845 18.0907 7.08134 18.7411 7.08134V7.08093C19.3915 7.08093 19.9193 7.60866 19.9193 8.25911C19.9193 8.90956 19.3915 9.43729 18.7411 9.43729C18.0907 9.43729 17.563 8.90956 17.563 8.25911ZM8.45852 13.5C8.45852 10.7156 10.7159 8.45804 13.5002 8.45793C16.2846 8.45793 18.5415 10.7155 18.5415 13.5C18.5415 16.2845 16.2848 18.541 13.5004 18.541C10.716 18.541 8.45852 16.2845 8.45852 13.5ZM16.773 13.5C16.773 11.6924 15.3077 10.2272 13.5004 10.2272C11.6929 10.2272 10.2278 11.6924 10.2278 13.5C10.2278 15.3073 11.6929 16.7727 13.5004 16.7727C15.3077 16.7727 16.773 15.3073 16.773 13.5Z" fill="#494949"/>
</g>
<defs>
<radialGradient id="paint0_radial_2_3580" cx="0" cy="0" r="1" gradientUnits="userSpaceOnUse" gradientTransform="translate(7.18717 29.0796) rotate(-90) scale(26.759 24.888)">
<stop stop-color="#FFDD55"/>
<stop offset="0.1" stop-color="#FFDD55"/>
<stop offset="0.5" stop-color="#FF543E"/>
<stop offset="1" stop-color="#C837AB"/>
</radialGradient>
<clipPath id="clip0_2_3580">
<rect width="27" height="27" fill="white"/>
</clipPath>
</defs>
</svg>
