<svg width="27" height="27" viewBox="0 0 27 27" fill="none" xmlns="http://www.w3.org/2000/svg">
<path fill-rule="evenodd" clip-rule="evenodd" d="M0.633299 3.03202C0 4.25117 0 5.85286 0 9.05625V17.9438C0 21.1471 0 22.7488 0.633299 23.968C1.16697 24.9953 2.00465 25.833 3.03202 26.3667C4.25117 27 5.85286 27 9.05625 27H17.9438C21.1471 27 22.7488 27 23.968 26.3667C24.9953 25.833 25.833 24.9953 26.3667 23.968C27 22.7488 27 21.1471 27 17.9438V9.05625C27 5.85286 27 4.25117 26.3667 3.03202C25.833 2.00465 24.9953 1.16697 23.968 0.633299C22.7488 0 21.1471 0 17.9438 0H9.05625C5.85286 0 4.25117 0 3.03202 0.633299C2.00465 1.16697 1.16697 2.00465 0.633299 3.03202ZM6.06026 8.38468C7.35385 8.38468 8.40251 7.33602 8.40251 6.04244C8.40251 4.74885 7.35385 3.7002 6.06026 3.7002C4.76668 3.7002 3.71802 4.74885 3.71802 6.04244C3.71802 7.33602 4.76668 8.38468 6.06026 8.38468ZM10.5476 10.1157H14.4295V11.894C14.4295 11.894 15.4828 9.78718 18.349 9.78718C20.9057 9.78718 23.0237 11.0467 23.0237 14.8857V22.9812H19.001V15.8667C19.001 13.602 17.7919 13.3529 16.8706 13.3529C14.9585 13.3529 14.6312 15.0022 14.6312 16.1621V22.9812H10.5476V10.1157ZM8.10206 10.1157H4.01847V22.9812H8.10206V10.1157Z" fill="#494949"/>
</svg>
