<svg width="398" height="235" viewBox="0 0 398 235" fill="none" xmlns="http://www.w3.org/2000/svg">
<path d="M296.043 94.3787C306.958 83.4634 306.958 65.7661 296.043 54.8508C285.127 43.9354 267.43 43.9354 256.515 54.8508C245.599 65.7661 245.599 83.4634 256.515 94.3787C267.43 105.294 285.127 105.294 296.043 94.3787Z" fill="#ABE7FD"/>
<path d="M277.569 78.972H265.324L262.545 86.5493H260.156L270.364 59.5767H272.532L282.738 86.5493H280.368L277.57 78.972H277.569ZM266.027 77.0457H276.846L271.436 62.3554L266.027 77.0457Z" fill="white"/>
<path d="M289.48 86.5495H287.201V59.5768H289.48V86.5495Z" fill="white"/>
<path d="M333.637 76.9928H303.296C303.134 76.9928 303.003 77.1235 303.003 77.2863C303.003 77.449 303.134 77.5798 303.296 77.5798H333.344V115.686C333.344 115.848 333.475 115.98 333.637 115.98H365.573L386.074 136.481C386.189 136.596 386.374 136.596 386.489 136.481C386.604 136.366 386.604 136.181 386.489 136.066L365.901 115.478C365.846 115.423 365.771 115.393 365.693 115.393H333.93V77.2863C333.93 77.1249 333.799 76.9928 333.636 76.9928H333.637Z" fill="black"/>
<path d="M338.7 114.771C339.205 117.552 337.359 120.215 334.578 120.719C331.798 121.224 329.134 119.378 328.63 116.598C328.126 113.817 329.971 111.154 332.752 110.649C335.533 110.145 338.196 111.99 338.7 114.771Z" fill="white"/>
<path d="M333.655 110.275C330.672 110.275 328.244 112.703 328.244 115.686C328.244 118.669 330.672 121.097 333.655 121.097C336.638 121.097 339.066 118.669 339.066 115.686C339.066 112.703 336.638 110.275 333.655 110.275ZM333.655 120.51C330.995 120.51 328.831 118.346 328.831 115.686C328.831 113.026 330.995 110.862 333.655 110.862C336.315 110.862 338.479 113.026 338.479 115.686C338.479 118.346 336.315 120.51 333.655 120.51Z" fill="black"/>
<path d="M395.322 134.142C396.502 139.143 393.405 144.153 388.404 145.334C383.403 146.514 378.393 143.417 377.212 138.416C376.032 133.415 379.129 128.405 384.13 127.224C389.131 126.044 394.141 129.141 395.322 134.142Z" fill="white"/>
<path d="M386.281 126.678C380.989 126.678 376.684 130.983 376.684 136.275C376.684 141.567 380.991 145.872 386.281 145.872C391.572 145.872 395.878 141.567 395.878 136.275C395.878 130.983 391.573 126.678 386.281 126.678ZM386.281 145.285C381.313 145.285 377.271 141.243 377.271 136.275C377.271 131.307 381.313 127.265 386.281 127.265C391.249 127.265 395.293 131.307 395.293 136.275C395.293 141.243 391.251 145.285 386.281 145.285Z" fill="black"/>
<path d="M365.72 22.0723C365.642 22.0723 365.568 22.1029 365.512 22.1576L319.414 68.2549H303.295C303.133 68.2549 303.002 68.3856 303.002 68.5483C303.002 68.7111 303.133 68.8418 303.295 68.8418H319.536C319.613 68.8418 319.688 68.8111 319.744 68.7565L365.72 22.7806L383.764 40.8246V69.8757C383.764 70.0371 383.895 70.1692 384.057 70.1692C384.22 70.1692 384.351 70.0385 384.351 69.8757V40.7033C384.351 40.6259 384.32 40.5512 384.265 40.4951L365.928 22.1576C365.873 22.1029 365.799 22.0723 365.72 22.0723Z" fill="black"/>
<path d="M389.746 63.7508C392.902 66.9068 392.902 72.0237 389.746 75.1798C386.59 78.3358 381.473 78.3358 378.317 75.1798C375.161 72.0237 375.161 66.9068 378.317 63.7508C381.473 60.5947 386.59 60.5947 389.746 63.7508Z" fill="white"/>
<path d="M384.031 61.0919C379.414 61.0919 375.657 64.8486 375.657 69.4656C375.657 74.0827 379.414 77.8393 384.031 77.8393C388.648 77.8393 392.404 74.0827 392.404 69.4656C392.404 64.8486 388.648 61.0919 384.031 61.0919ZM384.031 77.2537C379.736 77.2537 376.243 73.7598 376.243 69.4656C376.243 65.1714 379.736 61.6776 384.031 61.6776C388.325 61.6776 391.819 65.1714 391.819 69.4656C391.819 73.7598 388.325 77.2537 384.031 77.2537Z" fill="black"/>
<path d="M376.901 11.1809C383.076 17.356 383.076 27.3677 376.901 33.5427C370.726 39.7178 360.714 39.7178 354.539 33.5427C348.364 27.3677 348.364 17.356 354.539 11.1809C360.714 5.00586 370.726 5.00587 376.901 11.1809Z" fill="#ABE7FD"/>
<path d="M367.919 13.5312C367.919 13.6192 367.911 13.7059 367.901 13.7913C368.761 13.9994 369.571 14.3356 370.31 14.7771C370.363 14.7091 370.421 14.6424 370.483 14.5797C371.327 13.7366 372.687 13.7273 373.521 14.561C374.355 15.3948 374.347 16.7542 373.502 17.5986C373.44 17.6613 373.373 17.7187 373.305 17.772C373.746 18.5097 374.081 19.3208 374.291 20.1813C374.376 20.1706 374.463 20.1626 374.551 20.1626C375.737 20.1559 376.693 21.1111 376.685 22.297C376.679 23.483 375.711 24.4502 374.526 24.4568C374.437 24.4568 374.351 24.4515 374.265 24.4408C374.047 25.3039 373.701 26.1177 373.25 26.8621C373.318 26.9154 373.384 26.9701 373.446 27.0328C374.28 27.8666 374.272 29.226 373.428 30.0704C372.585 30.9135 371.224 30.9228 370.39 30.0891C370.327 30.0264 370.273 29.961 370.219 29.893C369.476 30.3439 368.661 30.6894 367.798 30.9082C367.807 30.9935 367.814 31.0803 367.814 31.1683C367.807 32.3543 366.84 33.3214 365.654 33.3281C364.468 33.3348 363.513 32.3796 363.52 31.1937C363.52 31.1056 363.528 31.0189 363.538 30.9335C362.678 30.7254 361.868 30.3906 361.129 29.9477C361.076 30.0157 361.019 30.0824 360.956 30.1451C360.113 30.9882 358.752 30.9975 357.918 30.1638C357.084 29.33 357.092 27.9706 357.937 27.1262C358 27.0635 358.066 27.0061 358.134 26.9528C357.693 26.2151 357.358 25.404 357.149 24.5435C357.063 24.5542 356.976 24.5622 356.888 24.5622C355.702 24.5689 354.747 23.6137 354.754 22.4278C354.761 21.2418 355.728 20.2747 356.914 20.268C357.002 20.268 357.088 20.2733 357.174 20.284C357.393 19.4209 357.738 18.6071 358.189 17.8627C358.121 17.8094 358.056 17.7547 357.993 17.692C357.159 16.8582 357.167 15.4988 358.012 14.6544C358.855 13.8113 360.215 13.802 361.049 14.6357C361.112 14.6984 361.167 14.7638 361.22 14.8318C361.963 14.3809 362.778 14.0354 363.641 13.8166C363.632 13.7313 363.625 13.6446 363.625 13.5565C363.632 12.3706 364.599 11.4034 365.785 11.3967C366.971 11.39 367.926 12.3452 367.919 13.5312ZM361.731 22.3864C361.718 24.5889 363.492 26.3645 365.696 26.3511C367.898 26.3378 369.695 24.5422 369.708 22.3384C369.722 20.1359 367.947 18.3617 365.744 18.3737C363.541 18.387 361.744 20.1826 361.731 22.3864Z" fill="white"/>
<path d="M214.333 73.8061C210.994 73.8061 208.278 71.09 208.278 67.7509C208.278 64.4119 210.994 61.6958 214.333 61.6958C217.672 61.6958 220.388 64.4119 220.388 67.7509C220.388 71.09 217.672 73.8061 214.333 73.8061ZM214.333 62.2828C211.318 62.2828 208.865 64.736 208.865 67.7509C208.865 70.7658 211.318 73.2191 214.333 73.2191C217.348 73.2191 219.801 70.7658 219.801 67.7509C219.801 64.736 217.348 62.2828 214.333 62.2828Z" fill="#ABE7FD"/>
<path d="M248.225 82.5493H228.614C228.537 82.5493 228.462 82.5187 228.406 82.464L218.712 72.7696C218.597 72.6549 218.597 72.4694 218.712 72.3547C218.827 72.24 219.012 72.24 219.127 72.3547L228.735 81.9624H248.223C248.386 81.9624 248.517 82.0931 248.517 82.2559C248.517 82.4186 248.386 82.5493 248.223 82.5493H248.225Z" fill="#ABE7FD"/>
<path d="M276.845 46.2613C276.682 46.2613 276.552 46.1305 276.552 45.9678V8.48837C276.552 8.32695 276.682 8.19489 276.845 8.19489C277.008 8.19489 277.138 8.32562 277.138 8.48837V45.9678C277.138 46.1292 277.008 46.2613 276.845 46.2613Z" fill="black"/>
<path d="M276.845 16.5165C281.279 16.5165 284.873 12.9221 284.873 8.4883C284.873 4.05447 281.279 0.460144 276.845 0.460144C272.411 0.460144 268.817 4.05447 268.817 8.4883C268.817 12.9221 272.411 16.5165 276.845 16.5165Z" fill="#ABE7FD"/>
<path d="M133.547 88.2131C133.472 88.2131 133.396 88.1851 133.338 88.1277C133.224 88.013 133.224 87.8276 133.338 87.7129L172.053 48.9981C172.108 48.9434 172.183 48.9127 172.261 48.9127H201.821L225.901 24.8323C226.016 24.7175 226.201 24.7175 226.316 24.8323C226.431 24.947 226.431 25.1324 226.316 25.2471L202.149 49.4143C202.094 49.469 202.019 49.4997 201.941 49.4997H172.381L133.752 88.1291C133.695 88.1864 133.62 88.2145 133.544 88.2145L133.547 88.2131Z" fill="#ABE7FD"/>
<path d="M132.388 97.6096C135.833 96.1827 137.469 92.2332 136.042 88.7883C134.615 85.3434 130.666 83.7075 127.221 85.1345C123.776 86.5614 122.14 90.5108 123.567 93.9557C124.994 97.4006 128.943 99.0365 132.388 97.6096Z" fill="#ABE7FD"/>
<path d="M253.541 52.2574C253.466 52.2574 253.39 52.2294 253.333 52.172L226.626 25.4648H150.636C150.473 25.4648 150.342 25.3341 150.342 25.1714C150.342 25.0086 150.473 24.8779 150.636 24.8779H226.747C226.824 24.8779 226.899 24.9086 226.955 24.9632L253.748 51.7558C253.862 51.8705 253.862 52.056 253.748 52.1707C253.69 52.228 253.616 52.2561 253.54 52.2561L253.541 52.2574Z" fill="black"/>
<path d="M151.385 49.7924C165.008 49.7924 176.051 38.749 176.051 25.1263C176.051 11.5035 165.008 0.460144 151.385 0.460144C137.762 0.460144 126.719 11.5035 126.719 25.1263C126.719 38.749 137.762 49.7924 151.385 49.7924Z" fill="#ABE7FD"/>
<path d="M230.789 26.1411C231.4 23.5532 229.797 20.9602 227.209 20.3494C224.621 19.7386 222.028 21.3413 221.417 23.9292C220.807 26.5171 222.409 29.1101 224.997 29.7209C227.585 30.3317 230.178 28.7289 230.789 26.1411Z" fill="white"/>
<path d="M226.109 30.1467C223.293 30.1467 221.001 27.8549 221.001 25.0388C221.001 22.2226 223.293 19.9308 226.109 19.9308C228.925 19.9308 231.217 22.2226 231.217 25.0388C231.217 27.8549 228.925 30.1467 226.109 30.1467ZM226.109 20.5164C223.616 20.5164 221.588 22.5441 221.588 25.0374C221.588 27.5307 223.617 29.5584 226.109 29.5584C228.601 29.5584 230.63 27.5307 230.63 25.0374C230.63 22.5441 228.602 20.5164 226.109 20.5164Z" fill="black"/>
<path d="M155.037 37.6199C155.037 37.4958 155.026 37.3744 155.01 37.2543C156.217 36.9622 157.354 36.4913 158.389 35.8723C158.464 35.9683 158.544 36.0617 158.632 36.1498C159.815 37.333 161.723 37.345 162.891 36.1751C164.06 35.0065 164.049 33.0988 162.866 31.9156C162.778 31.8275 162.685 31.7475 162.589 31.6728C163.209 30.6376 163.678 29.501 163.971 28.2937C164.091 28.3084 164.212 28.319 164.336 28.3204C166 28.331 167.34 26.9903 167.33 25.3268C167.319 23.6633 165.964 22.3066 164.299 22.2959C164.175 22.2959 164.053 22.3039 163.933 22.3186C163.626 21.1073 163.142 19.9654 162.51 18.9235C162.605 18.8501 162.697 18.7714 162.785 18.6834C163.953 17.5148 163.943 15.6071 162.759 14.4238C161.576 13.2406 159.668 13.2285 158.5 14.3985C158.413 14.4852 158.334 14.5772 158.26 14.6733C157.216 14.041 156.075 13.5567 154.863 13.2499C154.877 13.1298 154.886 13.0084 154.886 12.8844C154.877 11.2208 153.52 9.86414 151.855 9.8548C150.191 9.84413 148.851 11.1848 148.861 12.8484C148.861 12.9724 148.872 13.0938 148.888 13.2139C147.681 13.506 146.544 13.9769 145.509 14.5959C145.434 14.4999 145.354 14.4065 145.266 14.3184C144.083 13.1352 142.175 13.1232 141.007 14.2931C139.838 15.4617 139.849 17.3694 141.032 18.5526C141.12 18.6407 141.214 18.7207 141.31 18.7954C140.689 19.8306 140.22 20.9672 139.928 22.1745C139.807 22.1598 139.686 22.1492 139.562 22.1478C137.898 22.1372 136.558 23.4779 136.568 25.1414C136.578 26.8049 137.934 28.1616 139.599 28.1723C139.723 28.1723 139.845 28.1643 139.965 28.1496C140.272 29.3609 140.756 30.5028 141.388 31.5447C141.294 31.6181 141.201 31.6968 141.115 31.7848C139.946 32.9534 139.957 34.8611 141.14 36.0444C142.323 37.2277 144.231 37.2397 145.4 36.0697C145.486 35.983 145.565 35.8896 145.64 35.7949C146.683 36.4272 147.825 36.9115 149.035 37.2183C149.022 37.3384 149.012 37.4598 149.012 37.5838C149.022 39.2474 150.378 40.6041 152.042 40.6134C153.705 40.6228 155.046 39.2834 155.035 37.6199H155.037ZM146.356 25.2001C146.337 22.1105 148.827 19.6212 151.916 19.6399C155.006 19.6585 157.525 22.1785 157.543 25.2668C157.562 28.3564 155.073 30.8457 151.983 30.827C148.893 30.8083 146.375 28.2884 146.356 25.2001Z" fill="white"/>
<path d="M232.391 231.104L390.473 231.104C394.191 231.104 397.206 228.09 397.206 224.371V120.445C397.206 116.726 394.191 113.712 390.473 113.712L232.391 113.712C228.672 113.712 225.658 116.726 225.658 120.445V224.371C225.658 228.09 228.672 231.104 232.391 231.104Z" fill="white"/>
<path d="M390.716 231.497H231.604C227.75 231.497 224.615 228.366 224.615 224.517V120.048C224.615 116.199 227.75 113.066 231.604 113.066H390.716C394.57 113.066 397.705 116.199 397.705 120.048V224.516C397.705 228.365 394.57 231.496 390.716 231.496V231.497ZM231.604 113.494C227.986 113.494 225.042 116.434 225.042 120.048V224.516C225.042 228.129 227.985 231.069 231.604 231.069H390.716C394.334 231.069 397.278 228.13 397.278 224.516V120.048C397.278 116.435 394.335 113.494 390.716 113.494H231.604Z" fill="black"/>
<path d="M397.131 128.403H225.847C225.729 128.403 225.634 128.308 225.634 128.19C225.634 128.072 225.729 127.977 225.847 127.977H397.132C397.25 127.977 397.344 128.072 397.344 128.19C397.344 128.308 397.25 128.403 397.132 128.403H397.131Z" fill="black"/>
<path d="M384.17 123.596C385.6 123.596 386.758 122.437 386.758 121.008C386.758 119.579 385.6 118.42 384.17 118.42C382.741 118.42 381.582 119.579 381.582 121.008C381.582 122.437 382.741 123.596 384.17 123.596Z" fill="#ABE7FD"/>
<path d="M375.617 123.596C377.046 123.596 378.205 122.437 378.205 121.008C378.205 119.579 377.046 118.42 375.617 118.42C374.187 118.42 373.029 119.579 373.029 121.008C373.029 122.437 374.187 123.596 375.617 123.596Z" fill="#ABE7FD"/>
<path d="M367.062 123.809C365.519 123.809 364.262 122.552 364.262 121.008C364.262 119.464 365.519 118.208 367.062 118.208C368.606 118.208 369.863 119.464 369.863 121.008C369.863 122.552 368.606 123.809 367.062 123.809ZM367.062 118.633C365.752 118.633 364.687 119.698 364.687 121.008C364.687 122.318 365.752 123.384 367.062 123.384C368.372 123.384 369.438 122.318 369.438 121.008C369.438 119.698 368.372 118.633 367.062 118.633Z" fill="black"/>
<path d="M336.053 212.868H327.481C324.422 212.868 321.933 210.38 321.933 207.321V187.13C321.933 187.013 322.028 186.917 322.146 186.917C322.264 186.917 322.359 187.012 322.359 187.13V207.321C322.359 210.145 324.657 212.443 327.481 212.443H336.053C343.874 212.443 350.236 206.08 350.236 198.259C350.236 196.1 348.769 194.254 346.667 193.768C346.576 193.747 346.51 193.669 346.503 193.576C346.496 193.482 346.551 193.396 346.639 193.362C351.422 191.526 354.635 186.849 354.635 181.724C354.635 175.511 349.999 170.202 343.85 169.375C343.752 169.361 343.676 169.283 343.667 169.184C343.658 169.086 343.718 168.994 343.81 168.962C347.107 167.845 349.322 164.757 349.322 161.276C349.322 152.76 342.658 145.877 334.15 145.607C334.035 145.603 333.944 145.509 333.944 145.394V142.554C333.944 138.05 330.28 134.386 325.776 134.386C321.272 134.386 317.608 138.05 317.608 142.554V206.792C317.608 206.909 317.513 207.005 317.395 207.005C317.277 207.005 317.183 206.91 317.183 206.792V142.554C317.183 137.816 321.038 133.96 325.776 133.96C330.514 133.96 334.37 137.816 334.37 142.554V145.19C338.483 145.373 342.323 147.099 345.201 150.063C348.133 153.084 349.747 157.066 349.747 161.277C349.747 164.677 347.739 167.722 344.677 169.081C350.648 170.259 355.062 175.561 355.062 181.725C355.062 186.821 351.988 191.489 347.355 193.529C349.33 194.243 350.663 196.11 350.663 198.26C350.663 206.315 344.109 212.869 336.054 212.869L336.053 212.868Z" fill="black"/>
<path d="M346.716 193.775H338.823C338.705 193.775 338.61 193.68 338.61 193.562C338.61 193.444 338.705 193.349 338.823 193.349H346.716C346.833 193.349 346.928 193.444 346.928 193.562C346.928 193.68 346.833 193.775 346.716 193.775Z" fill="black"/>
<path d="M328.823 203.258C328.705 203.258 328.61 203.164 328.61 203.046V184.22C328.61 184.164 328.632 184.109 328.672 184.069L343.727 169.013C343.811 168.93 343.945 168.93 344.028 169.013C344.111 169.096 344.111 169.231 344.028 169.314L329.035 184.308V203.046C329.035 203.163 328.94 203.258 328.822 203.258H328.823Z" fill="black"/>
<path d="M325.066 175.451C325.012 175.451 324.956 175.431 324.915 175.389C324.832 175.306 324.832 175.172 324.915 175.088L333.944 166.06V145.395C333.944 145.278 334.038 145.182 334.156 145.182C334.274 145.182 334.369 145.277 334.369 145.395V166.148C334.369 166.204 334.347 166.258 334.307 166.299L325.217 175.389C325.175 175.431 325.121 175.451 325.066 175.451Z" fill="black"/>
<path d="M325.647 160.473C325.53 160.473 325.435 160.378 325.435 160.26V145.395C325.435 145.278 325.53 145.182 325.647 145.182H334.157C334.275 145.182 334.37 145.277 334.37 145.395C334.37 145.513 334.275 145.608 334.157 145.608H325.86V160.26C325.86 160.377 325.765 160.473 325.647 160.473Z" fill="black"/>
<path d="M327.218 163.082C328.085 162.215 328.085 160.809 327.218 159.942C326.35 159.075 324.944 159.075 324.077 159.942C323.21 160.809 323.21 162.215 324.077 163.082C324.944 163.95 326.35 163.95 327.218 163.082Z" fill="#ABE7FD"/>
<path d="M325.962 176.567C326.063 175.345 325.154 174.272 323.932 174.171C322.709 174.07 321.637 174.979 321.535 176.201C321.434 177.423 322.343 178.496 323.565 178.597C324.788 178.698 325.86 177.789 325.962 176.567Z" fill="white"/>
<path d="M323.752 178.819C322.41 178.819 321.319 177.728 321.319 176.386C321.319 175.044 322.41 173.952 323.752 173.952C325.094 173.952 326.185 175.044 326.185 176.386C326.185 177.728 325.094 178.819 323.752 178.819ZM323.752 174.378C322.645 174.378 321.744 175.279 321.744 176.386C321.744 177.493 322.645 178.394 323.752 178.394C324.859 178.394 325.76 177.493 325.76 176.386C325.76 175.279 324.859 174.378 323.752 174.378Z" fill="black"/>
<path d="M323.716 187.208C324.583 186.341 324.583 184.935 323.716 184.067C322.849 183.2 321.443 183.2 320.576 184.067C319.708 184.935 319.708 186.341 320.576 187.208C321.443 188.075 322.849 188.075 323.716 187.208Z" fill="#ABE7FD"/>
<path d="M337.541 195.74C338.748 195.521 339.549 194.366 339.33 193.159C339.111 191.952 337.955 191.151 336.749 191.37C335.542 191.589 334.741 192.745 334.96 193.951C335.179 195.158 336.335 195.959 337.541 195.74Z" fill="white"/>
<path d="M337.144 195.994C335.802 195.994 334.71 194.902 334.71 193.56C334.71 192.218 335.802 191.127 337.144 191.127C338.486 191.127 339.577 192.218 339.577 193.56C339.577 194.902 338.486 195.994 337.144 195.994ZM337.144 191.553C336.037 191.553 335.136 192.454 335.136 193.561C335.136 194.668 336.037 195.569 337.144 195.569C338.251 195.569 339.152 194.668 339.152 193.561C339.152 192.454 338.251 191.553 337.144 191.553Z" fill="black"/>
<path d="M331.032 205.251C331.181 204.034 330.316 202.926 329.099 202.776C327.882 202.626 326.773 203.491 326.623 204.708C326.474 205.926 327.339 207.034 328.556 207.184C329.773 207.334 330.882 206.468 331.032 205.251Z" fill="white"/>
<path d="M328.823 207.407C327.481 207.407 326.39 206.316 326.39 204.974C326.39 203.632 327.481 202.541 328.823 202.541C330.165 202.541 331.256 203.632 331.256 204.974C331.256 206.316 330.165 207.407 328.823 207.407ZM328.823 202.967C327.716 202.967 326.815 203.868 326.815 204.975C326.815 206.082 327.716 206.983 328.823 206.983C329.93 206.983 330.831 206.082 330.831 204.975C330.831 203.868 329.93 202.967 328.823 202.967Z" fill="black"/>
<path d="M299.916 212.867H291.344C283.288 212.867 276.735 206.313 276.735 198.258C276.735 196.108 278.068 194.241 280.043 193.527C275.409 191.487 272.336 186.819 272.336 181.723C272.336 175.559 276.748 170.256 282.721 169.079C279.658 167.72 277.65 164.674 277.65 161.275C277.65 157.064 279.265 153.082 282.197 150.061C285.074 147.096 288.914 145.371 293.028 145.188V142.552C293.028 137.814 296.882 133.958 301.621 133.958C306.36 133.958 310.215 137.814 310.215 142.552V208.364C310.215 208.481 310.12 208.576 310.002 208.576C309.884 208.576 309.79 208.482 309.79 208.364V142.553C309.79 138.048 306.126 134.384 301.621 134.384C297.117 134.384 293.453 138.048 293.453 142.553V145.393C293.453 145.508 293.362 145.602 293.247 145.606C284.74 145.876 278.076 152.759 278.076 161.275C278.076 164.755 280.291 167.844 283.587 168.961C283.681 168.993 283.74 169.085 283.73 169.183C283.721 169.282 283.645 169.36 283.548 169.374C277.399 170.2 272.762 175.51 272.762 181.723C272.762 186.847 275.976 191.524 280.758 193.361C280.845 193.395 280.901 193.481 280.895 193.575C280.888 193.668 280.821 193.746 280.73 193.767C278.629 194.253 277.161 196.099 277.161 198.258C277.161 206.079 283.524 212.441 291.345 212.441H299.917C302.741 212.441 305.039 210.143 305.039 207.319V187.128C305.039 187.012 305.134 186.916 305.252 186.916C305.37 186.916 305.464 187.011 305.464 187.128V207.319C305.464 210.378 302.976 212.867 299.917 212.867H299.916Z" fill="black"/>
<path d="M288.574 193.773H280.681C280.563 193.773 280.469 193.678 280.469 193.56C280.469 193.442 280.563 193.348 280.681 193.348H288.574C288.692 193.348 288.787 193.442 288.787 193.56C288.787 193.678 288.692 193.773 288.574 193.773Z" fill="black"/>
<path d="M298.573 203.257C298.455 203.257 298.36 203.162 298.36 203.044V184.306L283.367 169.312C283.284 169.229 283.284 169.095 283.367 169.012C283.45 168.928 283.584 168.928 283.667 169.012L298.723 184.067C298.763 184.107 298.785 184.161 298.785 184.218V203.044C298.785 203.161 298.69 203.257 298.572 203.257H298.573Z" fill="black"/>
<path d="M302.33 175.449C302.275 175.449 302.22 175.429 302.179 175.387L293.088 166.297C293.049 166.257 293.026 166.203 293.026 166.146V145.393C293.026 145.276 293.121 145.181 293.239 145.181C293.357 145.181 293.452 145.275 293.452 145.393V166.058L302.48 175.087C302.564 175.17 302.564 175.304 302.48 175.387C302.439 175.429 302.385 175.449 302.33 175.449Z" fill="black"/>
<path d="M301.748 160.471C301.63 160.471 301.535 160.376 301.535 160.258V145.606H293.239C293.121 145.606 293.026 145.511 293.026 145.393C293.026 145.275 293.121 145.181 293.239 145.181H301.748C301.866 145.181 301.961 145.275 301.961 145.393V160.258C301.961 160.375 301.866 160.471 301.748 160.471Z" fill="black"/>
<path d="M302.021 163.711C303.238 163.561 304.103 162.452 303.953 161.235C303.803 160.018 302.695 159.153 301.478 159.303C300.261 159.452 299.395 160.561 299.545 161.778C299.695 162.995 300.804 163.86 302.021 163.711Z" fill="#ABE7FD"/>
<path d="M305.215 177.955C306.083 177.087 306.083 175.681 305.215 174.814C304.348 173.947 302.942 173.947 302.075 174.814C301.208 175.681 301.208 177.087 302.075 177.955C302.942 178.822 304.348 178.822 305.215 177.955Z" fill="white"/>
<path d="M303.645 178.817C302.303 178.817 301.212 177.725 301.212 176.383C301.212 175.041 302.303 173.95 303.645 173.95C304.987 173.95 306.078 175.041 306.078 176.383C306.078 177.725 304.987 178.817 303.645 178.817ZM303.645 174.375C302.538 174.375 301.637 175.276 301.637 176.383C301.637 177.49 302.538 178.391 303.645 178.391C304.752 178.391 305.653 177.49 305.653 176.383C305.653 175.276 304.752 174.375 303.645 174.375Z" fill="black"/>
<path d="M307.461 185.771C307.537 184.547 306.607 183.493 305.383 183.417C304.158 183.341 303.104 184.271 303.028 185.495C302.952 186.719 303.883 187.773 305.107 187.849C306.331 187.926 307.385 186.995 307.461 185.771Z" fill="#ABE7FD"/>
<path d="M292.41 194.066C292.692 192.873 291.953 191.677 290.759 191.395C289.565 191.113 288.369 191.852 288.088 193.046C287.806 194.24 288.545 195.436 289.739 195.717C290.933 195.999 292.129 195.26 292.41 194.066Z" fill="white"/>
<path d="M290.252 195.992C288.91 195.992 287.819 194.901 287.819 193.559C287.819 192.217 288.91 191.125 290.252 191.125C291.594 191.125 292.686 192.217 292.686 193.559C292.686 194.901 291.594 195.992 290.252 195.992ZM290.252 191.552C289.145 191.552 288.244 192.453 288.244 193.56C288.244 194.667 289.145 195.568 290.252 195.568C291.359 195.568 292.26 194.667 292.26 193.56C292.26 192.453 291.359 191.552 290.252 191.552Z" fill="black"/>
<path d="M300.144 206.547C301.011 205.679 301.011 204.273 300.144 203.406C299.277 202.539 297.871 202.539 297.003 203.406C296.136 204.273 296.136 205.679 297.003 206.547C297.871 207.414 299.277 207.414 300.144 206.547Z" fill="white"/>
<path d="M298.573 207.408C297.231 207.408 296.14 206.316 296.14 204.974C296.14 203.632 297.231 202.541 298.573 202.541C299.915 202.541 301.007 203.632 301.007 204.974C301.007 206.316 299.915 207.408 298.573 207.408ZM298.573 202.967C297.466 202.967 296.565 203.868 296.565 204.975C296.565 206.082 297.466 206.983 298.573 206.983C299.68 206.983 300.581 206.082 300.581 204.975C300.581 203.868 299.68 202.967 298.573 202.967Z" fill="black"/>
<path d="M355.818 221.417H322.84C322.784 221.417 322.73 221.394 322.689 221.355L309.85 208.516C309.767 208.433 309.767 208.299 309.85 208.215C309.933 208.132 310.068 208.132 310.151 208.215L322.928 220.992H355.818C355.936 220.992 356.031 221.087 356.031 221.205C356.031 221.323 355.936 221.418 355.818 221.418V221.417Z" fill="black"/>
<path d="M357.463 222.811C356.439 222.811 355.606 221.977 355.606 220.954C355.606 219.93 356.439 219.096 357.463 219.096C358.487 219.096 359.32 219.93 359.32 220.954C359.32 221.977 358.487 222.811 357.463 222.811ZM357.463 219.522C356.673 219.522 356.031 220.164 356.031 220.954C356.031 221.744 356.673 222.385 357.463 222.385C358.253 222.385 358.895 221.744 358.895 220.954C358.895 220.164 358.253 219.522 357.463 219.522Z" fill="black"/>
<path d="M341.573 221.417C341.519 221.417 341.464 221.396 341.422 221.355C341.339 221.272 341.339 221.137 341.422 221.054L348.712 213.765C348.752 213.725 348.806 213.703 348.863 213.703H363.489C363.607 213.703 363.702 213.798 363.702 213.915C363.702 214.033 363.607 214.128 363.489 214.128H348.952L341.724 221.356C341.683 221.397 341.628 221.418 341.573 221.418V221.417Z" fill="black"/>
<path d="M365.206 215.772C364.182 215.772 363.348 214.938 363.348 213.914C363.348 212.891 364.182 212.057 365.206 212.057C366.229 212.057 367.063 212.891 367.063 213.914C367.063 214.938 366.229 215.772 365.206 215.772ZM365.206 212.482C364.416 212.482 363.774 213.124 363.774 213.913C363.774 214.703 364.416 215.345 365.206 215.345C365.995 215.345 366.637 214.703 366.637 213.913C366.637 213.124 365.994 212.482 365.206 212.482Z" fill="black"/>
<path d="M46.0622 192.93C65.466 192.93 81.1958 177.207 81.1958 157.811C81.1958 138.416 65.466 122.693 46.0622 122.693C26.6584 122.693 10.9285 138.416 10.9285 157.811C10.9285 177.207 26.6584 192.93 46.0622 192.93Z" fill="white"/>
<path d="M46.0621 193.238C26.5192 193.238 10.6211 177.346 10.6211 157.811C10.6211 138.276 26.5206 122.384 46.0621 122.384C65.6037 122.384 81.5032 138.276 81.5032 157.811C81.5032 177.346 65.6037 193.238 46.0621 193.238ZM46.0621 123C26.8587 123 11.2358 138.616 11.2358 157.811C11.2358 177.006 26.8587 192.622 46.0621 192.622C65.2656 192.622 80.8885 177.006 80.8885 157.811C80.8885 138.616 65.2656 123 46.0621 123Z" fill="black"/>
<path d="M47.8495 180.241C47.8426 180.241 47.8342 180.241 47.8272 180.241C31.4052 179.052 27.5369 170.818 27.3804 170.469C27.3105 170.314 27.3804 170.132 27.5355 170.063C27.6905 169.993 27.8721 170.063 27.942 170.216C27.9797 170.299 31.8495 178.467 47.8719 179.627C48.0409 179.639 48.1695 179.786 48.1569 179.956C48.1457 180.118 48.0102 180.241 47.8495 180.241Z" fill="black"/>
<path d="M3.80565 228.517C3.76235 228.517 3.71904 228.508 3.67853 228.489C3.52346 228.419 3.455 228.236 3.52625 228.081L23.2704 184.646C23.3402 184.491 23.5232 184.423 23.6783 184.494C23.8333 184.564 23.9018 184.747 23.8306 184.902L4.08646 228.337C4.03477 228.45 3.923 228.517 3.80565 228.517Z" fill="black"/>
<path d="M5.13235 231.474C5.13454 230.079 4.00485 228.946 2.60911 228.944C1.21337 228.942 0.0801334 230.071 0.0779421 231.466C0.0757509 232.861 1.20544 233.993 2.60118 233.996C3.99692 233.998 5.13016 232.869 5.13235 231.474Z" fill="black"/>
<path d="M88.3194 228.516C88.202 228.516 88.0903 228.449 88.0386 228.336L68.2945 184.901C68.2246 184.746 68.2931 184.565 68.4467 184.493C68.6004 184.424 68.7834 184.492 68.8547 184.646L88.5988 228.081C88.6686 228.236 88.6002 228.417 88.4465 228.488C88.4046 228.507 88.3613 228.516 88.3194 228.516Z" fill="black"/>
<path d="M89.5129 234.011C90.9087 234.008 92.0384 232.876 92.0362 231.481C92.034 230.086 90.9007 228.957 89.505 228.959C88.1092 228.961 86.9796 230.094 86.9818 231.489C86.9839 232.884 88.1172 234.013 89.5129 234.011Z" fill="black"/>
<path d="M122.293 234.197H82.1192C76.7421 234.197 73.0414 228.801 74.9819 223.788L97.5605 165.453H139.21L116.694 223.628L123.661 231.035C124.788 232.233 123.938 234.197 122.293 234.197Z" fill="white"/>
<path d="M122.293 234.506H82.1193C79.4915 234.506 77.0369 233.213 75.5519 231.046C74.0682 228.88 73.7483 226.125 74.6955 223.678L97.2741 165.342C97.3202 165.224 97.4334 165.146 97.5619 165.146H139.211C139.313 165.146 139.408 165.196 139.466 165.28C139.523 165.363 139.535 165.47 139.499 165.565L117.053 223.559L123.887 230.825C124.494 231.47 124.653 232.376 124.301 233.189C123.949 234.002 123.181 234.508 122.295 234.508L122.293 234.506ZM97.7715 165.76L75.2697 223.9C74.3826 226.193 74.6703 228.669 76.0604 230.698C77.4504 232.728 79.6591 233.892 82.1206 233.892H122.295C122.932 233.892 123.484 233.528 123.737 232.944C123.989 232.36 123.875 231.711 123.439 231.247L116.472 223.84C116.391 223.753 116.366 223.629 116.409 223.519L138.763 165.763H97.7743L97.7715 165.76Z" fill="black"/>
<path d="M116.615 223.873H81.4504C81.28 223.873 81.1431 223.735 81.1431 223.566C81.1431 223.397 81.2814 223.258 81.4504 223.258H116.615C116.785 223.258 116.922 223.397 116.922 223.566C116.922 223.735 116.784 223.873 116.615 223.873Z" fill="black"/>
<path d="M119.919 142.331L119.118 148.647C119.118 148.647 64.299 149.6 64.5379 148.647C64.7768 147.694 66.917 138.347 67.9327 138.492C68.9469 138.638 119.919 142.331 119.919 142.331Z" fill="white"/>
<path d="M41.7844 146.668L37.7093 158.491C34.6624 167.332 41.2326 176.541 50.5871 176.541H108.783L134.67 229.538C136.188 232.647 139.345 234.618 142.806 234.618H185.001C186.195 234.618 186.692 233.092 185.727 232.389L174.447 224.181L149.78 166.376C144.679 154.425 132.934 146.67 119.935 146.67H41.7844V146.668Z" fill="white"/>
<path d="M185.003 234.925H142.807C139.254 234.925 135.952 232.863 134.394 229.672L108.593 176.848H50.5883C46.027 176.848 41.8932 174.719 39.2459 171.005C36.5999 167.295 35.9349 162.697 37.42 158.389L41.4951 146.567C41.5384 146.443 41.6543 146.359 41.7856 146.359H119.939C133.084 146.359 144.91 154.168 150.066 166.253L174.7 223.979L185.911 232.139C186.46 232.539 186.679 233.215 186.47 233.86C186.259 234.506 185.684 234.923 185.004 234.923L185.003 234.925ZM42.0036 146.977L38.0011 158.591C36.5817 162.708 37.2188 167.104 39.7474 170.649C42.2774 174.198 46.2296 176.233 50.5883 176.233H108.784C108.901 176.233 109.009 176.3 109.061 176.406L134.947 229.404C136.403 232.385 139.489 234.311 142.807 234.311H185.003C185.499 234.311 185.782 233.982 185.883 233.673C185.983 233.364 185.948 232.931 185.548 232.641L174.268 224.432C174.223 224.4 174.188 224.355 174.166 224.303L149.499 166.499C144.439 154.641 132.835 146.978 119.938 146.978H42.0036V146.977Z" fill="black"/>
<path d="M174.448 224.487H139.21C139.039 224.487 138.903 224.349 138.903 224.18C138.903 224.01 139.041 223.872 139.21 223.872H174.448C174.619 223.872 174.756 224.01 174.756 224.18C174.756 224.349 174.617 224.487 174.448 224.487Z" fill="black"/>
<path d="M102.808 108.344L102.317 102.112L87.5803 98.9453L66.3428 141.691L92.3092 140.814L102.808 108.344Z" fill="white"/>
<path d="M85.8759 143.767L102.386 101.937C102.386 101.937 126.747 115.015 118.035 143.767H85.8745H85.8759Z" fill="#ABE7FD"/>
<path d="M101.572 137.907C101.534 137.907 101.496 137.9 101.458 137.886C101.301 137.823 101.222 137.644 101.285 137.487L108.844 118.336C108.907 118.178 109.086 118.1 109.244 118.163C109.402 118.226 109.48 118.405 109.417 118.562L101.858 137.713C101.81 137.834 101.694 137.908 101.572 137.908V137.907Z" fill="black"/>
<path d="M87.5802 98.9451L60.538 167.456L42.272 166.177C37.9245 165.872 34.9027 161.724 35.9491 157.496C36.8935 153.679 38.3086 149.01 40.3385 144.612C43.3659 138.049 50.9335 123.188 57.0539 112.154C62.9228 101.576 75.0866 95.9848 86.8635 98.7663C87.1024 98.8222 87.3413 98.8822 87.5802 98.9451Z" fill="#ABE7FD"/>
<path d="M148.364 143.492H114.023L125.434 112.115H159.775L148.364 143.492Z" fill="black"/>
<path d="M103.642 139.745H149.852L148.365 143.765H101.909L103.642 139.745Z" fill="black"/>
<path d="M70.8128 127.843L78.1108 109.983L58.1488 116.285L52.2408 131.35C49.891 137.341 54.2832 143.826 60.7207 143.871C70.1101 143.935 81.7892 144.005 90.6603 143.997C91.6032 137.734 94.4839 131.461 96.1701 128.189C83.2239 128.002 70.8128 127.844 70.8128 127.844V127.843Z" fill="#ABE7FD"/>
<path d="M75.4245 128.15H70.8129C70.711 128.15 70.6146 128.099 70.5573 128.015C70.5 127.929 70.4888 127.822 70.528 127.727L77.826 109.867C77.8903 109.71 78.0705 109.635 78.2269 109.698C78.3848 109.763 78.4602 109.943 78.396 110.099L71.2712 127.536H75.4245C75.5949 127.536 75.7319 127.674 75.7319 127.843C75.7319 128.012 75.5935 128.15 75.4245 128.15Z" fill="black"/>
<path d="M115.268 128.529C111.44 128.423 103.983 128.3 96.169 128.187C94.4828 131.459 91.6022 137.731 90.6592 143.994C97.9405 143.986 103.33 143.926 104.011 143.765C106.202 143.248 106.159 140.78 106.159 140.78C109.365 140.166 107.587 137.597 107.587 137.597C112.467 134.936 108.157 133.114 108.157 133.114L115.452 132.152C116.262 132.044 116.904 131.41 117.017 130.601C117.168 129.527 116.353 128.56 115.268 128.531V128.529Z" fill="white"/>
<path d="M70.7501 144.201C66.735 144.201 63.202 144.194 60.7181 144.177C57.5454 144.155 54.7067 142.636 52.9283 140.01C51.1513 137.385 50.7964 134.187 51.9532 131.237L57.8612 116.173C57.9226 116.015 58.1015 115.937 58.2607 115.998C58.4186 116.06 58.4968 116.238 58.4353 116.398L52.5273 131.462C51.4447 134.221 51.7771 137.21 53.4396 139.665C55.1021 142.121 57.7564 143.542 60.7237 143.561C67.611 143.609 82.5773 143.574 93.5048 143.549C97.4863 143.539 100.945 143.532 103.309 143.529C103.479 143.529 103.616 143.666 103.616 143.837C103.616 144.007 103.479 144.144 103.309 144.145C100.947 144.148 97.4877 144.156 93.5062 144.165C86.5169 144.182 77.8749 144.201 70.7515 144.201H70.7501Z" fill="black"/>
<path d="M66.3423 128.446C66.1774 128.446 66.0419 128.316 66.0349 128.149C66.0279 127.979 66.1607 127.836 66.3311 127.829L69.5107 127.705C69.5107 127.705 69.5191 127.705 69.5233 127.705C69.6881 127.705 69.8251 127.835 69.8306 128.001C69.8376 128.172 69.7049 128.314 69.5345 128.321L66.3549 128.446C66.3549 128.446 66.3465 128.446 66.3423 128.446Z" fill="black"/>
<path d="M94.2174 70.3245C92.5256 71.1376 91.2431 72.7568 90.8394 74.5896C90.6326 75.5312 90.6452 76.5092 90.4566 77.4535C90.268 78.3993 89.8195 79.3647 88.9757 79.8285C88.5524 80.0604 88.0663 80.1484 87.622 80.337C86.7307 80.7184 86.0252 81.5692 85.9414 82.5345C85.8576 83.4998 86.4779 84.5155 87.4125 84.7725C87.2155 85.6275 87.5438 86.5803 88.2241 87.1335C88.9045 87.6867 89.9048 87.8125 90.7011 87.4464C91.0266 89.3045 92.6471 90.742 94.4451 91.3148C96.243 91.8876 98.1919 91.7297 100.049 91.3902C103.565 90.7462 106.997 89.4456 109.864 87.3095C110.606 86.7577 111.318 86.1374 111.8 85.3495C112.282 84.5616 112.509 83.5767 112.225 82.6966C113.344 81.7075 114.42 80.5815 114.9 79.1677C115.382 77.7539 115.118 75.9937 113.929 75.0898C112.968 74.3591 111.62 74.3102 110.653 73.588C109.814 72.9607 109.397 71.9353 108.872 71.0286C108.216 69.8943 107.31 68.866 106.14 68.2751C104.712 67.5528 102.961 67.6353 101.539 68.3296C100.767 68.7068 100.306 69.2628 99.6937 69.8286C99.1027 70.3762 98.1542 69.7993 97.4221 69.7406C96.3269 69.6526 95.2078 69.8468 94.216 70.3231L94.2174 70.3245Z" fill="black"/>
<path d="M101.662 101.869L100.317 101.267L103.555 93.3947C103.555 93.3947 104.776 82.9184 94.8254 87.8164L89.3616 99.3069L88.4424 99.1211C88.4424 99.1211 94.9022 109.159 101.662 101.87V101.869Z" fill="white"/>
<path d="M96.4644 104.823C93.1674 104.823 90.425 102.086 89.1957 100.624C89.0867 100.494 89.1035 100.3 89.2334 100.189C89.3633 100.08 89.5575 100.097 89.6679 100.227C91.5734 102.494 95.3956 105.903 99.5713 103.249C99.7152 103.158 99.9052 103.2 99.996 103.344C100.087 103.488 100.045 103.678 99.901 103.768C98.7178 104.52 97.5596 104.823 96.4644 104.823Z" fill="black"/>
<path d="M101.662 102.178C101.62 102.178 101.577 102.169 101.536 102.151L100.191 101.549C100.039 101.481 99.969 101.305 100.032 101.151L103.253 93.3192C103.295 92.8763 103.605 88.9354 101.461 87.4224C100.075 86.4445 97.921 86.654 95.0571 88.0454L89.6381 99.4381C89.578 99.5653 89.4383 99.6365 89.2986 99.6072L88.1251 99.3697C87.9588 99.3362 87.8513 99.1741 87.8848 99.0065C87.9183 98.8402 88.0804 98.7313 88.248 98.7662L89.1854 98.9562L94.5472 87.6836C94.5765 87.6208 94.6268 87.5705 94.6897 87.5397C97.819 85.9988 100.218 85.7907 101.817 86.9194C104.377 88.7272 103.883 93.2382 103.861 93.4296C103.858 93.4575 103.851 93.4854 103.84 93.5106L100.715 101.108L101.788 101.588C101.943 101.658 102.013 101.84 101.943 101.995C101.891 102.109 101.78 102.176 101.662 102.176V102.178Z" fill="black"/>
<path d="M98.2091 89.3258C99.0292 90.6656 100.136 91.8544 101.513 92.6074C102.891 93.3604 104.554 93.6482 106.066 93.2249C108.597 92.5166 110.26 89.9587 110.693 87.3672C111.126 84.7757 110.562 82.1326 109.978 79.5718C109.978 79.5718 108.254 75.8571 105.161 75.0329C105.507 80.7774 95.1119 78.1469 98.9454 85.6978C98.9454 85.6978 96.8247 83.8216 95.7168 84.1219C94.521 84.4474 93.6716 85.7075 93.7987 86.9411C93.9259 88.1733 94.9457 89.2364 96.1569 89.4991C96.8414 89.6485 97.4911 89.717 98.2077 89.3258H98.2091Z" fill="white"/>
<path d="M104.608 93.728C103.519 93.728 102.393 93.4388 101.366 92.8772C100.115 92.1941 98.9887 91.1058 98.0946 89.7213C97.3556 90.0315 96.6781 89.9267 96.0927 89.7996C94.725 89.502 93.6326 88.3117 93.4942 86.972C93.3504 85.5722 94.2919 84.1905 95.6373 83.8245C96.3763 83.6233 97.4129 84.1835 98.1715 84.706C97.7468 83.5577 97.6769 82.6021 97.9535 81.8044C98.4411 80.4046 99.9122 79.727 101.336 79.0718C103.218 78.2057 104.995 77.387 104.853 75.0512C104.848 74.952 104.89 74.857 104.965 74.7942C105.041 74.7313 105.144 74.7103 105.239 74.7355C108.435 75.5863 110.183 79.2842 110.256 79.442C110.264 79.4616 110.272 79.4825 110.277 79.5035C110.801 81.8058 111.454 84.6697 110.995 87.4176C110.489 90.4436 108.586 92.8395 106.147 93.5212C105.653 93.6595 105.133 93.728 104.605 93.728H104.608ZM98.2092 89.0172C98.3126 89.0172 98.4146 89.0703 98.4718 89.1639C99.331 90.5693 100.435 91.666 101.661 92.3365C103.046 93.0937 104.622 93.3089 105.984 92.9275C108.498 92.2248 110.008 89.6026 110.39 87.3157C110.826 84.7004 110.197 81.9162 109.686 79.6725C109.529 79.3526 108.016 76.377 105.475 75.4535C105.398 77.8788 103.384 78.8064 101.594 79.6306C100.228 80.2593 98.937 80.8544 98.5361 82.007C98.2301 82.8857 98.4537 84.048 99.2206 85.5582C99.2877 85.6895 99.2514 85.8502 99.134 85.941C99.0167 86.0318 98.8532 86.0262 98.7415 85.9284C97.9689 85.2453 96.4867 84.2324 95.7979 84.4196C94.753 84.7032 93.993 85.8208 94.1061 86.9091C94.2179 87.9932 95.1078 88.9558 96.224 89.1988C96.9379 89.3539 97.4674 89.3804 98.0611 89.0563C98.1072 89.0312 98.1589 89.0186 98.2078 89.0186L98.2092 89.0172Z" fill="black"/>
<path d="M97.6966 88.0123C97.6421 88.0123 97.5876 87.9983 97.5387 87.969C96.9855 87.6365 96.4909 87.2215 96.0704 86.734C95.9601 86.6055 95.974 86.4113 96.1026 86.2995C96.2311 86.1891 96.4253 86.2031 96.537 86.3316C96.9156 86.7703 97.3585 87.1433 97.8558 87.4409C98.0011 87.5289 98.0486 87.7175 97.962 87.8628C97.9047 87.9592 97.8027 88.0123 97.698 88.0123H97.6966Z" fill="black"/>
</svg>
