<svg width="466" height="429" viewBox="0 0 466 429" fill="none" xmlns="http://www.w3.org/2000/svg">
<path d="M442.033 86.4263H342.101V115.047H442.033V86.4263Z" fill="white"/>
<path d="M442.033 115.432H342.101C341.889 115.432 341.718 115.259 341.718 115.049V86.4277C341.718 86.2155 341.891 86.0449 342.101 86.0449H442.033C442.245 86.0449 442.416 86.2172 442.416 86.4277V115.049C442.416 115.261 442.244 115.432 442.033 115.432ZM342.484 114.664H441.648V86.8088H342.484V114.664Z" fill="black"/>
<path d="M118.415 191.081C112.151 191.081 107.052 185.986 107.052 179.723C107.052 179.398 107.07 179.055 107.106 178.682C102.941 177.616 98.961 175.97 95.2685 173.78C95.0318 174.069 94.8004 174.325 94.5707 174.555C90.1404 178.983 82.9312 178.983 78.5027 174.555C76.3571 172.409 75.1739 169.557 75.1739 166.524C75.1739 163.491 76.3554 160.639 78.5027 158.494C78.7323 158.264 78.9881 158.034 79.277 157.796C77.088 154.105 75.4401 150.127 74.3734 145.963C73.9975 146 73.6617 146.017 73.3311 146.017C67.0667 146.017 61.9683 140.922 61.9683 134.66C61.9683 128.397 67.065 123.302 73.3311 123.302C73.6565 123.302 73.9993 123.319 74.3734 123.356C75.4401 119.192 77.088 115.216 79.277 111.523C78.9881 111.287 78.7323 111.055 78.5027 110.826C76.3571 108.68 75.1739 105.828 75.1739 102.795C75.1739 99.762 76.3554 96.9083 78.5027 94.7645C82.9329 90.3359 90.1422 90.3359 94.5707 94.7645C94.8004 94.9942 95.0318 95.25 95.2685 95.5388C98.961 93.3515 102.941 91.7036 107.106 90.6387C107.07 90.2663 107.052 89.9235 107.052 89.5964C107.052 83.3338 112.149 78.2388 118.415 78.2388C124.681 78.2388 129.778 83.3338 129.778 89.5964C129.778 89.9218 129.761 90.2646 129.724 90.6387C133.89 91.7054 137.87 93.3515 141.562 95.5388C141.8 95.25 142.03 94.9942 142.26 94.7645C146.69 90.3359 153.898 90.3359 158.328 94.7645C160.473 96.91 161.657 99.762 161.657 102.795C161.657 105.828 160.475 108.68 158.328 110.826C158.098 111.055 157.842 111.285 157.553 111.523C159.743 115.216 161.39 119.194 162.457 123.356C162.831 123.319 163.174 123.302 163.499 123.302C169.764 123.302 174.862 128.397 174.862 134.66C174.862 140.922 169.765 146.017 163.499 146.017C163.171 146.017 162.833 146 162.457 145.963C161.39 150.129 159.743 154.107 157.553 157.796C157.844 158.034 158.098 158.264 158.328 158.494C160.473 160.639 161.657 163.491 161.657 166.524C161.657 169.557 160.475 172.409 158.328 174.555C153.898 178.983 146.688 178.983 142.26 174.555C142.028 174.323 141.799 174.069 141.562 173.78C137.87 175.968 133.89 177.616 129.724 178.682C129.761 179.056 129.778 179.399 129.778 179.723C129.778 185.986 124.681 191.081 118.415 191.081ZM95.1797 172.897C95.2476 172.897 95.3155 172.914 95.3781 172.952C99.182 175.244 103.299 176.949 107.618 178.019C107.806 178.066 107.929 178.246 107.907 178.437C107.849 178.912 107.822 179.331 107.822 179.723C107.822 185.563 112.574 190.313 118.417 190.313C124.26 190.313 129.012 185.563 129.012 179.723C129.012 179.335 128.985 178.914 128.927 178.437C128.905 178.246 129.028 178.065 129.216 178.019C133.535 176.947 137.654 175.242 141.456 172.952C141.621 172.851 141.835 172.891 141.955 173.044C142.249 173.42 142.528 173.737 142.804 174.014C146.935 178.143 153.657 178.143 157.788 174.014C159.79 172.013 160.891 169.354 160.891 166.524C160.891 163.695 159.79 161.036 157.788 159.035C157.51 158.757 157.202 158.487 156.819 158.187C156.666 158.067 156.628 157.853 156.727 157.688C159.019 153.888 160.726 149.771 161.798 145.453C161.845 145.266 162.024 145.142 162.215 145.165C162.699 145.224 163.108 145.25 163.501 145.25C169.344 145.25 174.097 140.499 174.097 134.66C174.097 128.82 169.344 124.069 163.501 124.069C163.106 124.069 162.699 124.097 162.215 124.155C162.022 124.177 161.843 124.054 161.798 123.866C160.726 119.55 159.02 115.433 156.727 111.631C156.628 111.466 156.666 111.25 156.819 111.132C157.197 110.836 157.513 110.559 157.79 110.284C159.791 108.283 160.893 105.624 160.893 102.795C160.893 99.9656 159.791 97.3067 157.79 95.3056C153.659 91.1764 146.937 91.1764 142.806 95.3056C142.529 95.5823 142.253 95.899 141.957 96.2749C141.837 96.428 141.623 96.4663 141.458 96.3671C137.654 94.0754 133.537 92.3701 129.218 91.2999C129.03 91.2529 128.906 91.0737 128.929 90.8823C128.986 90.4055 129.014 89.9844 129.014 89.5964C129.014 83.7566 124.262 79.0062 118.419 79.0062C112.575 79.0062 107.823 83.7566 107.823 89.5964C107.823 89.9862 107.851 90.4073 107.909 90.8823C107.931 91.0755 107.808 91.2547 107.62 91.2999C103.301 92.3701 99.182 94.0754 95.3799 96.3671C95.2145 96.468 95.0005 96.428 94.8804 96.2749C94.5864 95.899 94.308 95.5823 94.0313 95.3056C89.9003 91.1764 83.1783 91.1764 79.0473 95.3056C77.0462 97.3067 75.9447 99.9656 75.9447 102.795C75.9447 105.624 77.0462 108.283 79.0473 110.284C79.324 110.561 79.6407 110.838 80.0165 111.132C80.1697 111.252 80.208 111.466 80.1088 111.631C77.8153 115.435 76.11 119.55 75.0381 123.866C74.9911 124.054 74.8102 124.177 74.6205 124.155C74.1368 124.096 73.7278 124.069 73.3346 124.069C67.4913 124.069 62.7391 128.82 62.7391 134.66C62.7391 140.499 67.4913 145.25 73.3346 145.25C73.7278 145.25 74.1368 145.222 74.6205 145.165C74.8119 145.14 74.9911 145.266 75.0381 145.453C76.11 149.771 77.8153 153.888 80.1088 157.688C80.208 157.853 80.1697 158.069 80.0165 158.187C79.6389 158.483 79.3222 158.76 79.0456 159.035C77.0445 161.036 75.943 163.695 75.943 166.524C75.943 169.354 77.0445 172.013 79.0456 174.014C83.1766 178.143 89.8985 178.143 94.0295 174.014C94.3062 173.737 94.5846 173.42 94.8787 173.044C94.9535 172.949 95.0666 172.898 95.1815 172.898L95.1797 172.897ZM118.415 155.421C106.962 155.421 97.6437 146.106 97.6437 134.658C97.6437 123.21 106.962 113.895 118.415 113.895C129.869 113.895 139.187 123.21 139.187 134.658C139.187 146.106 129.869 155.421 118.415 155.421ZM118.415 114.661C107.385 114.661 98.4094 123.631 98.4094 134.658C98.4094 145.685 107.383 154.655 118.415 154.655C129.447 154.655 138.421 145.685 138.421 134.658C138.421 123.631 129.447 114.661 118.415 114.661Z" fill="black"/>
<path d="M356.876 353.516H210.087C204.602 353.516 199.897 349.611 198.888 344.222L147.115 67.7154C145.921 61.3397 150.814 55.4478 157.305 55.4478H304.094C309.579 55.4478 314.284 59.3525 315.293 64.7416L367.066 341.248C368.26 347.624 363.367 353.516 356.876 353.516Z" fill="white"/>
<path d="M356.878 353.898H210.089C204.423 353.898 199.556 349.857 198.512 344.291L146.737 67.7843C146.147 64.633 146.982 61.4121 149.031 58.9464C151.079 56.4789 154.094 55.0625 157.303 55.0625H304.092C309.758 55.0625 314.625 59.103 315.669 64.6696L367.442 341.176C368.032 344.327 367.197 347.548 365.149 350.014C363.101 352.481 360.085 353.898 356.876 353.898H356.878ZM157.305 55.8299C154.326 55.8299 151.526 57.1437 149.622 59.4371C147.72 61.7271 146.944 64.7183 147.492 67.6451L199.265 344.152C200.24 349.355 204.792 353.132 210.087 353.132H356.876C359.855 353.132 362.655 351.819 364.559 349.525C366.461 347.235 367.237 344.244 366.689 341.317L314.916 64.8105C313.941 59.6076 309.389 55.8299 304.094 55.8299H157.305Z" fill="black"/>
<path d="M354.694 331.819L306.097 73.4255C305.215 68.7168 301.103 65.3027 296.309 65.3027H280.201L277.371 77.7514C276.64 80.9688 273.778 83.2536 270.477 83.2536H205.093C201.341 83.2536 197.863 81.2873 195.93 78.075L188.244 65.3045H168.02C162.349 65.3045 158.072 70.4534 159.114 76.0269L207.712 334.419C208.594 339.128 212.706 342.542 217.5 342.542H345.788C351.459 342.542 355.736 337.393 354.694 331.819Z" fill="white"/>
<path d="M345.789 342.926H217.5C212.525 342.926 208.25 339.378 207.336 334.491L158.739 76.0975C158.22 73.329 158.954 70.4996 160.754 68.3332C162.553 66.1651 165.201 64.9209 168.02 64.9209H188.244C188.378 64.9209 188.503 64.9905 188.573 65.1071L196.259 77.8777C198.112 80.9576 201.498 82.8717 205.093 82.8717H270.477C273.62 82.8717 276.301 80.7314 276.997 77.6688L279.827 65.2202C279.867 65.0462 280.022 64.9209 280.201 64.9209H296.309C301.284 64.9209 305.557 68.469 306.473 73.3551L355.07 331.747C355.589 334.516 354.854 337.345 353.055 339.512C351.256 341.68 348.606 342.924 345.789 342.924V342.926ZM168.02 65.6883C165.431 65.6883 162.997 66.8315 161.344 68.8222C159.69 70.8129 159.017 73.4126 159.492 75.9548L208.089 334.347C208.937 338.873 212.894 342.156 217.5 342.156H345.789C348.378 342.156 350.812 341.013 352.465 339.023C354.118 337.032 354.792 334.432 354.317 331.89L305.721 73.4978C304.874 68.9718 300.915 65.6883 296.311 65.6883H280.507L277.746 77.8394C276.969 81.2534 273.98 83.6391 270.477 83.6391H205.093C201.23 83.6391 197.593 81.5841 195.601 78.2744L188.028 65.6883H168.022H168.02Z" fill="black"/>
<path d="M439.536 197.609C439.155 197.609 438.782 197.64 438.415 197.687C437.484 193.983 436.01 190.494 434.081 187.311C434.373 187.082 434.656 186.838 434.924 186.57C438.523 182.952 438.506 177.102 434.886 173.505C431.267 169.909 425.415 169.926 421.816 173.544C421.548 173.813 421.306 174.099 421.079 174.391C417.885 172.48 414.386 171.027 410.673 170.119C410.716 169.75 410.746 169.378 410.744 168.998C410.728 163.896 406.58 159.772 401.475 159.788C396.371 159.804 392.245 163.95 392.261 169.052C392.261 169.433 392.292 169.806 392.339 170.173C388.633 171.104 385.142 172.576 381.959 174.506C381.73 174.215 381.486 173.932 381.216 173.664C377.597 170.067 371.745 170.084 368.147 173.702C364.548 177.32 364.565 183.17 368.185 186.767C368.455 187.035 368.74 187.276 369.032 187.504C367.12 190.697 365.667 194.195 364.759 197.905C364.39 197.861 364.017 197.832 363.636 197.834C358.533 197.849 354.407 201.996 354.422 207.098C354.438 212.2 358.586 216.324 363.692 216.308C364.073 216.308 364.445 216.275 364.813 216.23C365.743 219.935 367.216 223.423 369.147 226.606C368.855 226.836 368.571 227.079 368.303 227.347C364.705 230.965 364.722 236.815 368.341 240.412C371.961 244.009 377.813 243.991 381.411 240.374C381.679 240.104 381.921 239.819 382.149 239.526C385.342 241.437 388.841 242.89 392.555 243.798C392.511 244.167 392.482 244.54 392.484 244.919C392.499 250.021 396.648 254.145 401.753 254.129C406.857 254.114 410.982 249.967 410.967 244.865C410.967 244.484 410.936 244.111 410.889 243.744C414.595 242.813 418.086 241.341 421.268 239.411C421.498 239.702 421.741 239.986 422.011 240.254C425.631 243.85 431.483 243.833 435.081 240.215C438.68 236.598 438.662 230.748 435.043 227.151C434.773 226.883 434.488 226.641 434.195 226.413C436.108 223.22 437.561 219.722 438.469 216.012C438.838 216.056 439.21 216.085 439.591 216.084C444.695 216.068 448.821 211.921 448.805 206.819C448.79 201.717 444.641 197.593 439.536 197.609ZM401.663 224.113C392.184 224.14 384.477 216.482 384.45 207.007C384.422 197.533 392.083 189.829 401.562 189.801C411.04 189.773 418.747 197.432 418.775 206.906C418.802 216.381 411.141 224.085 401.663 224.113Z" fill="#ABE7FD"/>
<path d="M310.781 289.8H210.849V318.421H310.781V289.8Z" fill="white"/>
<path d="M310.781 318.805H210.849C210.637 318.805 210.466 318.633 210.466 318.422V289.801C210.466 289.589 210.638 289.418 210.849 289.418H310.781C310.993 289.418 311.164 289.591 311.164 289.801V318.422C311.164 318.635 310.991 318.805 310.781 318.805ZM211.233 318.04H310.398V290.184H211.233V318.04Z" fill="black"/>
<path d="M74.2548 321.191C98.4238 321.191 118.017 301.606 118.017 277.448C118.017 253.29 98.4238 233.706 74.2548 233.706C50.0859 233.706 30.4932 253.29 30.4932 277.448C30.4932 301.606 50.0859 321.191 74.2548 321.191Z" fill="white"/>
<path d="M74.2551 321.575C49.9129 321.575 30.1106 301.78 30.1106 277.448C30.1106 253.117 49.9146 233.321 74.2551 233.321C98.5956 233.321 118.4 253.117 118.4 277.448C118.4 301.78 98.5956 321.575 74.2551 321.575ZM74.2551 234.089C50.3357 234.089 30.8762 253.539 30.8762 277.448C30.8762 301.357 50.3357 320.808 74.2551 320.808C98.1745 320.808 117.634 301.357 117.634 277.448C117.634 253.539 98.1745 234.089 74.2551 234.089Z" fill="black"/>
<path d="M76.4808 305.387C76.4721 305.387 76.4617 305.387 76.453 305.387C55.9982 303.907 51.1798 293.65 50.9849 293.215C50.8979 293.022 50.9849 292.796 51.1781 292.709C51.3712 292.622 51.5975 292.709 51.6845 292.901C51.7314 293.003 56.5515 303.178 76.5087 304.622C76.7192 304.637 76.8793 304.82 76.8637 305.032C76.8497 305.234 76.6809 305.387 76.4808 305.387Z" fill="black"/>
<path d="M21.6209 365.519C21.567 365.519 21.5131 365.509 21.4626 365.485C21.2694 365.398 21.1842 365.17 21.2729 364.977L45.8657 310.875C45.9527 310.682 46.1807 310.597 46.3738 310.686C46.567 310.773 46.6522 311 46.5635 311.194L21.9707 365.295C21.9063 365.436 21.7671 365.519 21.6209 365.519Z" fill="black"/>
<path d="M23.2732 369.203C23.276 367.465 21.8689 366.054 20.1304 366.052C18.3919 366.049 16.9803 367.455 16.9776 369.193C16.9749 370.93 18.382 372.341 20.1205 372.344C21.859 372.347 23.2705 370.94 23.2732 369.203Z" fill="black"/>
<path d="M126.89 365.52C126.744 365.52 126.604 365.436 126.54 365.295L101.947 311.194C101.86 311.001 101.945 310.775 102.137 310.686C102.328 310.599 102.556 310.684 102.645 310.876L127.238 364.977C127.325 365.17 127.239 365.396 127.048 365.485C126.996 365.508 126.942 365.52 126.89 365.52Z" fill="black"/>
<path d="M128.376 372.362C130.115 372.359 131.522 370.948 131.519 369.211C131.517 367.473 130.105 366.067 128.367 366.07C126.628 366.072 125.221 367.483 125.224 369.221C125.226 370.958 126.638 372.365 128.376 372.362Z" fill="black"/>
<path d="M169.207 372.595H119.167C112.469 372.595 107.86 365.873 110.277 359.63L138.4 286.969H190.278L162.233 359.43L170.91 368.656C172.315 370.149 171.255 372.595 169.207 372.595Z" fill="white"/>
<path d="M169.207 372.979H119.167C115.894 372.979 112.836 371.368 110.987 368.669C109.139 365.972 108.74 362.54 109.92 359.492L138.043 286.83C138.101 286.682 138.242 286.585 138.402 286.585H190.279C190.406 286.585 190.525 286.648 190.596 286.752C190.667 286.856 190.683 286.989 190.638 287.107L162.68 359.344L171.192 368.394C171.947 369.198 172.146 370.325 171.707 371.338C171.269 372.351 170.312 372.981 169.209 372.981L169.207 372.979ZM138.663 287.351L110.635 359.768C109.53 362.624 109.889 365.709 111.62 368.235C113.351 370.764 116.103 372.213 119.169 372.213H169.209C170.002 372.213 170.689 371.761 171.004 371.034C171.319 370.306 171.177 369.497 170.634 368.919L161.956 359.693C161.855 359.585 161.824 359.431 161.878 359.293L189.721 287.354H138.666L138.663 287.351Z" fill="black"/>
<path d="M162.133 359.734H118.333C118.121 359.734 117.95 359.562 117.95 359.351C117.95 359.141 118.123 358.968 118.333 358.968H162.133C162.346 358.968 162.516 359.141 162.516 359.351C162.516 359.562 162.344 359.734 162.133 359.734Z" fill="black"/>
<path d="M166.249 258.166L165.252 266.033C165.252 266.033 96.9703 267.219 97.2678 266.033C97.5654 264.846 100.231 253.203 101.496 253.384C102.76 253.565 166.249 258.166 166.249 258.166Z" fill="white"/>
<path d="M68.9268 263.569L63.851 278.296C60.0558 289.307 68.2395 300.778 79.8912 300.778H152.378L184.622 366.79C186.514 370.662 190.446 373.117 194.757 373.117H247.314C248.801 373.117 249.42 371.217 248.218 370.342L234.168 360.117L203.443 288.117C197.09 273.23 182.461 263.571 166.27 263.571H68.9268V263.569Z" fill="white"/>
<path d="M247.316 373.5H194.759C190.334 373.5 186.22 370.931 184.28 366.957L152.142 301.16H79.8931C74.2117 301.16 69.0628 298.509 65.7653 293.883C62.4696 289.262 61.6413 283.535 63.491 278.169L68.5669 263.444C68.6208 263.289 68.7652 263.185 68.9288 263.185H166.275C182.648 263.185 197.377 272.912 203.8 287.964L234.483 359.866L248.448 370.03C249.131 370.528 249.405 371.37 249.144 372.174C248.881 372.978 248.166 373.498 247.318 373.498L247.316 373.5ZM69.2002 263.954L64.2149 278.421C62.4469 283.549 63.2404 289.023 66.39 293.44C69.5413 297.859 74.464 300.395 79.8931 300.395H152.38C152.526 300.395 152.66 300.478 152.725 300.611L184.969 366.623C186.782 370.336 190.626 372.736 194.759 372.736H247.316C247.934 372.736 248.287 372.325 248.413 371.941C248.538 371.556 248.495 371.017 247.995 370.655L233.946 360.43C233.89 360.39 233.846 360.334 233.819 360.27L203.094 288.27C196.791 273.5 182.338 263.955 166.273 263.955H69.2002V263.954Z" fill="black"/>
<path d="M234.17 360.5H190.278C190.066 360.5 189.895 360.327 189.895 360.117C189.895 359.906 190.067 359.734 190.278 359.734H234.17C234.382 359.734 234.553 359.906 234.553 360.117C234.553 360.327 234.381 360.5 234.17 360.5Z" fill="black"/>
<path d="M144.936 215.834L144.325 208.071L125.969 204.126L99.5161 257.37L131.859 256.277L144.936 215.834Z" fill="white"/>
<path d="M123.846 259.955L144.411 207.854C144.411 207.854 174.754 224.143 163.903 259.955H123.844H123.846Z" fill="#ABE7FD"/>
<path d="M143.396 252.656C143.349 252.656 143.302 252.647 143.255 252.629C143.058 252.551 142.961 252.328 143.039 252.132L152.455 228.278C152.533 228.082 152.756 227.984 152.953 228.063C153.149 228.141 153.247 228.364 153.168 228.56L143.753 252.414C143.694 252.565 143.549 252.657 143.396 252.657V252.656Z" fill="black"/>
<path d="M125.969 204.126L92.2861 289.462L69.5343 287.868C64.1191 287.489 60.3553 282.323 61.6586 277.056C62.8349 272.302 64.5976 266.486 67.126 261.008C70.8968 252.833 80.3229 234.322 87.9463 220.579C95.2564 207.403 110.407 200.439 125.076 203.904C125.374 203.973 125.672 204.048 125.969 204.126Z" fill="#ABE7FD"/>
<path d="M201.68 259.614H158.905L173.118 220.532H215.893L201.68 259.614Z" fill="black"/>
<path d="M145.975 254.947H203.534L201.681 259.955H143.817L145.975 254.947Z" fill="black"/>
<path d="M105.084 240.122L114.175 217.876L89.3105 225.726L81.9516 244.489C79.0247 251.953 84.4956 260.03 92.514 260.086C104.209 260.166 118.756 260.253 129.806 260.243C130.981 252.442 134.569 244.629 136.669 240.553C120.543 240.32 105.084 240.124 105.084 240.124V240.122Z" fill="#ABE7FD"/>
<path d="M110.829 240.504H105.085C104.958 240.504 104.838 240.44 104.766 240.335C104.695 240.229 104.681 240.095 104.73 239.977L113.82 217.732C113.9 217.535 114.124 217.443 114.319 217.521C114.516 217.601 114.61 217.826 114.53 218.02L105.655 239.739H110.829C111.041 239.739 111.212 239.911 111.212 240.121C111.212 240.332 111.039 240.504 110.829 240.504Z" fill="black"/>
<path d="M160.456 240.978C155.688 240.845 146.4 240.692 136.667 240.551C134.567 244.627 130.979 252.44 129.804 260.24C138.874 260.23 145.587 260.155 146.435 259.955C149.165 259.311 149.111 256.236 149.111 256.236C153.104 255.473 150.889 252.273 150.889 252.273C156.967 248.958 151.599 246.689 151.599 246.689L160.686 245.49C161.695 245.356 162.494 244.566 162.635 243.558C162.823 242.22 161.808 241.016 160.456 240.979V240.978Z" fill="white"/>
<path d="M105.006 260.497C100.005 260.497 95.6045 260.489 92.5106 260.468C88.5589 260.44 85.023 258.549 82.8079 255.277C80.5945 252.008 80.1525 248.024 81.5933 244.349L88.9522 225.586C89.0287 225.389 89.2514 225.292 89.4498 225.368C89.6464 225.445 89.7439 225.668 89.6673 225.866L82.3085 244.63C80.9599 248.066 81.374 251.79 83.4447 254.847C85.5155 257.906 88.8216 259.676 92.5176 259.701C101.096 259.76 119.738 259.716 133.349 259.685C138.308 259.673 142.617 259.664 145.561 259.66C145.773 259.66 145.944 259.831 145.944 260.043C145.944 260.256 145.773 260.426 145.561 260.428C142.618 260.431 138.31 260.442 133.351 260.452C124.645 260.473 113.881 260.497 105.008 260.497H105.006Z" fill="black"/>
<path d="M99.5162 240.871C99.3109 240.871 99.1421 240.71 99.1334 240.503C99.1247 240.29 99.29 240.113 99.5023 240.104L103.463 239.949C103.463 239.949 103.473 239.949 103.478 239.949C103.684 239.949 103.854 240.111 103.861 240.318C103.87 240.53 103.705 240.708 103.492 240.717L99.5319 240.871C99.5319 240.871 99.5214 240.871 99.5162 240.871Z" fill="black"/>
<path d="M134.236 168.478C132.129 169.491 130.532 171.508 130.029 173.791C129.771 174.964 129.787 176.182 129.552 177.358C129.317 178.536 128.758 179.739 127.707 180.316C127.18 180.605 126.575 180.715 126.021 180.95C124.911 181.425 124.032 182.484 123.928 183.687C123.823 184.889 124.596 186.154 125.76 186.474C125.515 187.539 125.924 188.726 126.771 189.415C127.619 190.104 128.865 190.261 129.856 189.805C130.262 192.119 132.28 193.91 134.52 194.623C136.759 195.337 139.187 195.14 141.499 194.717C145.879 193.915 150.155 192.295 153.725 189.634C154.649 188.947 155.537 188.175 156.137 187.193C156.737 186.212 157.019 184.985 156.666 183.889C158.06 182.657 159.4 181.254 159.998 179.493C160.599 177.732 160.27 175.54 158.789 174.414C157.592 173.504 155.913 173.443 154.708 172.543C153.663 171.762 153.144 170.485 152.49 169.355C151.672 167.942 150.544 166.662 149.086 165.926C147.308 165.026 145.127 165.129 143.356 165.994C142.394 166.463 141.82 167.156 141.057 167.861C140.321 168.543 139.14 167.824 138.228 167.751C136.864 167.641 135.47 167.883 134.234 168.477L134.236 168.478Z" fill="black"/>
<path d="M143.509 207.768L141.834 207.018L145.867 197.212C145.867 197.212 147.388 184.163 134.993 190.264L128.188 204.576L127.043 204.345C127.043 204.345 135.089 216.847 143.509 207.769V207.768Z" fill="white"/>
<path d="M137.034 211.448C132.928 211.448 129.512 208.039 127.981 206.217C127.845 206.055 127.866 205.813 128.028 205.676C128.189 205.54 128.431 205.561 128.569 205.723C130.942 208.547 135.703 212.793 140.904 209.487C141.084 209.374 141.32 209.426 141.433 209.605C141.546 209.784 141.494 210.021 141.315 210.134C139.841 211.07 138.399 211.448 137.034 211.448Z" fill="black"/>
<path d="M143.509 208.151C143.457 208.151 143.403 208.14 143.353 208.118L141.677 207.368C141.487 207.283 141.4 207.063 141.479 206.872L145.491 197.117C145.543 196.565 145.93 191.657 143.259 189.772C141.533 188.554 138.849 188.815 135.282 190.548L128.532 204.739C128.457 204.897 128.283 204.986 128.109 204.949L126.648 204.653C126.441 204.612 126.307 204.41 126.348 204.201C126.39 203.994 126.592 203.858 126.801 203.902L127.968 204.138L134.647 190.097C134.684 190.019 134.746 189.956 134.824 189.918C138.722 187.999 141.71 187.74 143.702 189.146C146.89 191.397 146.276 197.016 146.248 197.254C146.245 197.289 146.236 197.324 146.222 197.355L142.329 206.818L143.666 207.417C143.859 207.504 143.946 207.73 143.859 207.923C143.795 208.066 143.655 208.149 143.509 208.149V208.151Z" fill="black"/>
<path d="M139.208 192.145C140.229 193.813 141.607 195.294 143.323 196.232C145.039 197.17 147.111 197.529 148.994 197.001C152.147 196.119 154.218 192.933 154.757 189.705C155.297 186.477 154.594 183.185 153.866 179.995C153.866 179.995 151.719 175.368 147.867 174.342C148.298 181.497 135.35 178.22 140.125 187.626C140.125 187.626 137.483 185.289 136.104 185.663C134.614 186.068 133.556 187.638 133.714 189.174C133.873 190.709 135.143 192.033 136.652 192.361C137.504 192.547 138.313 192.632 139.206 192.145H139.208Z" fill="white"/>
<path d="M147.177 197.628C145.822 197.628 144.419 197.268 143.14 196.568C141.581 195.717 140.179 194.362 139.065 192.637C138.145 193.024 137.301 192.893 136.572 192.735C134.868 192.364 133.507 190.882 133.335 189.213C133.156 187.469 134.329 185.748 136.004 185.292C136.925 185.042 138.216 185.74 139.161 186.39C138.632 184.96 138.545 183.77 138.889 182.776C139.497 181.033 141.329 180.189 143.102 179.373C145.446 178.294 147.659 177.274 147.484 174.365C147.477 174.241 147.529 174.123 147.623 174.045C147.717 173.966 147.846 173.94 147.964 173.971C151.945 175.031 154.122 179.637 154.213 179.834C154.223 179.858 154.234 179.884 154.239 179.91C154.891 182.778 155.706 186.345 155.133 189.768C154.503 193.537 152.133 196.521 149.095 197.37C148.479 197.543 147.832 197.628 147.174 197.628H147.177ZM139.208 191.76C139.337 191.76 139.464 191.827 139.535 191.943C140.605 193.694 141.98 195.06 143.508 195.895C145.232 196.838 147.195 197.106 148.891 196.631C152.024 195.756 153.905 192.49 154.38 189.641C154.923 186.384 154.14 182.916 153.503 180.121C153.308 179.722 151.423 176.016 148.258 174.866C148.162 177.887 145.653 179.042 143.424 180.069C141.722 180.852 140.114 181.593 139.615 183.029C139.234 184.123 139.512 185.571 140.468 187.452C140.551 187.616 140.506 187.816 140.36 187.929C140.214 188.042 140.01 188.035 139.871 187.913C138.908 187.062 137.062 185.801 136.204 186.034C134.903 186.387 133.956 187.779 134.097 189.135C134.236 190.485 135.345 191.684 136.735 191.987C137.624 192.18 138.284 192.213 139.023 191.809C139.081 191.778 139.145 191.762 139.206 191.762L139.208 191.76Z" fill="black"/>
<path d="M138.569 190.509C138.501 190.509 138.434 190.492 138.373 190.455C137.684 190.041 137.068 189.524 136.544 188.917C136.406 188.757 136.424 188.515 136.584 188.376C136.744 188.238 136.986 188.256 137.125 188.416C137.597 188.962 138.148 189.427 138.768 189.797C138.949 189.907 139.008 190.142 138.9 190.323C138.829 190.443 138.701 190.509 138.571 190.509H138.569Z" fill="black"/>
<path d="M239.67 175.054H211.039C210.827 175.054 210.656 174.882 210.656 174.671C210.656 174.461 210.828 174.288 211.039 174.288H239.286V107.683C239.286 107.47 239.458 107.3 239.669 107.3H274.42C274.632 107.3 274.803 107.472 274.803 107.683C274.803 107.893 274.631 108.065 274.42 108.065H240.051V174.671C240.051 174.883 239.879 175.054 239.669 175.054H239.67Z" fill="black"/>
<path d="M274.422 114.053C277.941 114.053 280.794 111.201 280.794 107.683C280.794 104.164 277.941 101.312 274.422 101.312C270.903 101.312 268.05 104.164 268.05 107.683C268.05 111.201 270.903 114.053 274.422 114.053Z" fill="#ABE7FD"/>
<path d="M211.039 180.906C214.558 180.906 217.411 178.054 217.411 174.536C217.411 171.017 214.558 168.165 211.039 168.165C207.52 168.165 204.667 171.017 204.667 174.536C204.667 178.054 207.52 180.906 211.039 180.906Z" fill="#ABE7FD"/>
<path d="M211.068 124.627C214.549 124.627 217.371 121.804 217.371 118.321C217.371 114.838 214.549 112.015 211.068 112.015C207.588 112.015 204.766 114.838 204.766 118.321C204.766 121.804 207.588 124.627 211.068 124.627Z" fill="#ABE7FD"/>
<path d="M211.068 143.027C214.549 143.027 217.371 140.205 217.371 136.723C217.371 133.241 214.549 130.418 211.068 130.418C207.588 130.418 204.766 133.241 204.766 136.723C204.766 140.205 207.588 143.027 211.068 143.027Z" fill="#ABE7FD"/>
<path d="M211.068 161.427C214.549 161.427 217.371 158.605 217.371 155.123C217.371 151.641 214.549 148.818 211.068 148.818C207.588 148.818 204.766 151.641 204.766 155.123C204.766 158.605 207.588 161.427 211.068 161.427Z" fill="#ABE7FD"/>
<path d="M306.73 259.574C306.518 259.574 306.347 259.402 306.347 259.192V224.839H239.714C239.502 224.839 239.331 224.666 239.331 224.456V195.836C239.331 195.624 239.503 195.454 239.714 195.454C239.924 195.454 240.097 195.626 240.097 195.836V224.071H306.73C306.942 224.071 307.113 224.244 307.113 224.454V259.19C307.113 259.402 306.941 259.573 306.73 259.573V259.574Z" fill="black"/>
<path d="M306.73 265.562C310.25 265.562 313.103 262.71 313.103 259.192C313.103 255.673 310.25 252.821 306.73 252.821C303.211 252.821 300.358 255.673 300.358 259.192C300.358 262.71 303.211 265.562 306.73 265.562Z" fill="#ABE7FD"/>
<path d="M239.848 202.204C243.367 202.204 246.22 199.352 246.22 195.834C246.22 192.316 243.367 189.463 239.848 189.463C236.329 189.463 233.476 192.316 233.476 195.834C233.476 199.352 236.329 202.204 239.848 202.204Z" fill="#ABE7FD"/>
<path d="M288.797 265.433C292.28 265.433 295.104 262.613 295.104 259.134C295.104 255.655 292.28 252.834 288.797 252.834C285.313 252.834 282.489 255.655 282.489 259.134C282.489 262.613 285.313 265.433 288.797 265.433Z" fill="#ABE7FD"/>
<path d="M270.388 265.433C273.872 265.433 276.696 262.613 276.696 259.134C276.696 255.655 273.872 252.834 270.388 252.834C266.904 252.834 264.08 255.655 264.08 259.134C264.08 262.613 266.904 265.433 270.388 265.433Z" fill="#ABE7FD"/>
<path d="M251.98 265.433C255.463 265.433 258.288 262.613 258.288 259.134C258.288 255.655 255.463 252.834 251.98 252.834C248.496 252.834 245.672 255.655 245.672 259.134C245.672 262.613 248.496 265.433 251.98 265.433Z" fill="#ABE7FD"/>
<path d="M263.099 162.673C266.58 162.673 269.402 159.849 269.402 156.367C269.402 152.884 266.58 150.061 263.099 150.061C259.618 150.061 256.797 152.884 256.797 156.367C256.797 159.849 259.618 162.673 263.099 162.673Z" fill="#ABE7FD"/>
<path d="M263.099 181.071C266.58 181.071 269.402 178.248 269.402 174.766C269.402 171.284 266.58 168.462 263.099 168.462C259.618 168.462 256.797 171.284 256.797 174.766C256.797 178.248 259.618 181.071 263.099 181.071Z" fill="#ABE7FD"/>
</svg>
