<svg width="260" height="192" viewBox="0 0 260 192" fill="none" xmlns="http://www.w3.org/2000/svg">
<path d="M255.704 18.8674H195.588V36.0851H255.704V18.8674Z" fill="white"/>
<path d="M255.704 36.3164H195.588C195.46 36.3164 195.357 36.2128 195.357 36.0861V18.8685C195.357 18.7408 195.461 18.6382 195.588 18.6382H255.704C255.832 18.6382 255.934 18.7418 255.934 18.8685V36.0861C255.934 36.2138 255.831 36.3164 255.704 36.3164ZM195.818 35.8548H255.473V19.0977H195.818V35.8548Z" fill="black"/>
<path d="M61.0248 81.8246C57.2563 81.8246 54.1892 78.7596 54.1892 74.9922C54.1892 74.7965 54.1997 74.5902 54.2217 74.3662C51.7156 73.7245 49.3216 72.7343 47.1003 71.4174C46.958 71.5912 46.8187 71.7451 46.6806 71.8832C44.0154 74.5473 39.6786 74.5473 37.0145 71.8832C35.7238 70.5925 35.012 68.8769 35.012 67.0523C35.012 65.2277 35.7227 63.5121 37.0145 62.2214C37.1527 62.0832 37.3065 61.945 37.4803 61.8016C36.1634 59.5813 35.1721 57.1884 34.5305 54.6834C34.3043 54.7054 34.1023 54.7159 33.9034 54.7159C30.135 54.7159 27.0679 51.6508 27.0679 47.8834C27.0679 44.116 30.1339 41.051 33.9034 41.051C34.0992 41.051 34.3054 41.0615 34.5305 41.0835C35.1721 38.5785 36.1634 36.1866 37.4803 33.9653C37.3065 33.8229 37.1527 33.6837 37.0145 33.5455C35.7238 32.2548 35.012 30.5391 35.012 28.7146C35.012 26.89 35.7227 25.1733 37.0145 23.8836C39.6796 21.2196 44.0165 21.2196 46.6806 23.8836C46.8187 24.0218 46.958 24.1757 47.1003 24.3495C49.3216 23.0336 51.7156 22.0423 54.2217 21.4017C54.1997 21.1777 54.1892 20.9715 54.1892 20.7747C54.1892 17.0073 57.2553 13.9423 61.0248 13.9423C64.7943 13.9423 67.8603 17.0073 67.8603 20.7747C67.8603 20.9704 67.8498 21.1766 67.8279 21.4017C70.3339 22.0434 72.7279 23.0336 74.9492 24.3495C75.0926 24.1757 75.2308 24.0218 75.3689 23.8836C78.0341 21.2196 82.3699 21.2196 85.035 23.8836C86.3257 25.1743 87.0375 26.89 87.0375 28.7146C87.0375 30.5391 86.3268 32.2548 85.035 33.5455C84.8968 33.6837 84.743 33.8219 84.5692 33.9653C85.8861 36.1866 86.8774 38.5796 87.5191 41.0835C87.7441 41.0615 87.9503 41.051 88.1461 41.051C91.9145 41.051 94.9816 44.116 94.9816 47.8834C94.9816 51.6508 91.9156 54.7159 88.1461 54.7159C87.9482 54.7159 87.7452 54.7054 87.5191 54.6834C86.8774 57.1894 85.8861 59.5824 84.5692 61.8016C84.744 61.945 84.8968 62.0832 85.035 62.2214C86.3257 63.5121 87.0375 65.2277 87.0375 67.0523C87.0375 68.8769 86.3268 70.5925 85.035 71.8832C82.3699 74.5473 78.033 74.5473 75.3689 71.8832C75.2297 71.744 75.0915 71.5912 74.9492 71.4174C72.7279 72.7332 70.3339 73.7245 67.8279 74.3662C67.8498 74.5913 67.8603 74.7975 67.8603 74.9922C67.8603 78.7596 64.7943 81.8246 61.0248 81.8246ZM47.0469 70.8856C47.0878 70.8856 47.1286 70.8961 47.1663 70.9191C49.4546 72.2978 51.9313 73.3236 54.5294 73.9674C54.6425 73.9957 54.7168 74.1035 54.7032 74.2186C54.6686 74.5044 54.6519 74.7567 54.6519 74.9922C54.6519 78.5052 57.5107 81.363 61.0258 81.363C64.5409 81.363 67.3997 78.5052 67.3997 74.9922C67.3997 74.7588 67.383 74.5055 67.3484 74.2186C67.3348 74.1035 67.4091 73.9946 67.5222 73.9674C70.1203 73.3226 72.5981 72.2967 74.8853 70.9191C74.9848 70.8584 75.1135 70.8825 75.1858 70.9746C75.3627 71.2007 75.5302 71.3913 75.6966 71.5577C78.1817 74.0417 82.2254 74.0417 84.7105 71.5577C85.9143 70.3539 86.5769 68.7544 86.5769 67.0523C86.5769 65.3502 85.9143 63.7507 84.7105 62.5469C84.543 62.3794 84.3577 62.2172 84.1275 62.0371C84.0353 61.9649 84.0123 61.8361 84.072 61.7367C85.4506 59.4505 86.4775 56.9738 87.1223 54.3767C87.1506 54.2636 87.2584 54.1893 87.3736 54.2029C87.6646 54.2385 87.9106 54.2542 88.1471 54.2542C91.6623 54.2542 94.521 51.3965 94.521 47.8834C94.521 44.3704 91.6623 41.5127 88.1471 41.5127C87.9095 41.5127 87.6646 41.5294 87.3736 41.564C87.2574 41.5776 87.1495 41.5032 87.1223 41.3902C86.4775 38.7941 85.4516 36.3174 84.072 34.0302C84.0123 33.9308 84.0353 33.801 84.1275 33.7298C84.3546 33.5518 84.5451 33.3854 84.7116 33.22C85.9154 32.0162 86.578 30.4167 86.578 28.7146C86.578 27.0125 85.9154 25.413 84.7116 24.2092C82.2265 21.7252 78.1827 21.7252 75.6976 24.2092C75.5312 24.3756 75.3648 24.5662 75.1868 24.7923C75.1146 24.8844 74.9858 24.9074 74.8864 24.8477C72.5981 23.4691 70.1214 22.4433 67.5232 21.7995C67.4102 21.7712 67.3359 21.6634 67.3495 21.5483C67.384 21.2614 67.4008 21.0081 67.4008 20.7747C67.4008 17.2616 64.542 14.4039 61.0268 14.4039C57.5117 14.4039 54.6529 17.2616 54.6529 20.7747C54.6529 21.0092 54.6697 21.2625 54.7042 21.5483C54.7178 21.6644 54.6435 21.7723 54.5305 21.7995C51.9323 22.4433 49.4546 23.4691 47.1673 24.8477C47.0679 24.9085 46.9391 24.8844 46.8669 24.7923C46.69 24.5662 46.5225 24.3756 46.3561 24.2092C43.871 21.7252 39.8272 21.7252 37.3421 24.2092C36.1383 25.413 35.4757 27.0125 35.4757 28.7146C35.4757 30.4167 36.1383 32.0162 37.3421 33.22C37.5086 33.3864 37.6991 33.5529 37.9252 33.7298C38.0173 33.802 38.0403 33.9308 37.9807 34.0302C36.601 36.3185 35.5751 38.7941 34.9303 41.3902C34.9021 41.5032 34.7932 41.5776 34.6791 41.564C34.3881 41.5284 34.1421 41.5127 33.9055 41.5127C30.3904 41.5127 27.5316 44.3704 27.5316 47.8834C27.5316 51.3965 30.3904 54.2542 33.9055 54.2542C34.1421 54.2542 34.3881 54.2375 34.6791 54.2029C34.7942 54.1883 34.9021 54.2636 34.9303 54.3767C35.5751 56.9738 36.601 59.4505 37.9807 61.7367C38.0403 61.8361 38.0173 61.9659 37.9252 62.0371C37.698 62.2151 37.5075 62.3815 37.3411 62.5469C36.1373 63.7507 35.4747 65.3502 35.4747 67.0523C35.4747 68.7544 36.1373 70.3539 37.3411 71.5577C39.8262 74.0417 43.8699 74.0417 46.355 71.5577C46.5215 71.3913 46.6889 71.2007 46.8658 70.9746C46.9109 70.9171 46.9789 70.8867 47.048 70.8867L47.0469 70.8856ZM61.0248 60.3727C54.1348 60.3727 48.5292 54.7692 48.5292 47.8824C48.5292 40.9956 54.1348 35.3921 61.0248 35.3921C67.9147 35.3921 73.5203 40.9956 73.5203 47.8824C73.5203 54.7692 67.9147 60.3727 61.0248 60.3727ZM61.0248 35.8527C54.3891 35.8527 48.9898 41.2489 48.9898 47.8824C48.9898 54.5159 54.3881 59.9121 61.0248 59.9121C67.6614 59.9121 73.0597 54.5159 73.0597 47.8824C73.0597 41.2489 67.6614 35.8527 61.0248 35.8527Z" fill="black"/>
<path d="M204.476 179.541H116.172C112.872 179.541 110.042 177.192 109.435 173.95L78.2895 7.61145C77.5714 3.776 80.5149 0.231567 84.4195 0.231567H172.724C176.023 0.231567 178.854 2.58057 179.461 5.82248L210.606 172.161C211.324 175.996 208.381 179.541 204.476 179.541Z" fill="white"/>
<path d="M204.477 179.771H116.173C112.765 179.771 109.837 177.34 109.209 173.991L78.0625 7.6531C77.7076 5.75736 78.2101 3.81974 79.4422 2.33644C80.6742 0.852089 82.4883 0 84.4186 0H172.723C176.131 0 179.059 2.43065 179.687 5.77934L210.832 172.118C211.187 174.013 210.685 175.951 209.453 177.434C208.221 178.919 206.407 179.771 204.476 179.771H204.477ZM84.4197 0.461635C82.6276 0.461635 80.9433 1.25196 79.7981 2.63163C78.6539 4.00921 78.1871 5.80865 78.5168 7.56935L109.662 173.908C110.248 177.038 112.987 179.31 116.172 179.31H204.476C206.268 179.31 207.953 178.52 209.098 177.14C210.242 175.763 210.709 173.963 210.379 172.203L179.234 5.86413C178.648 2.73422 175.909 0.461635 172.724 0.461635H84.4197Z" fill="black"/>
<path d="M203.164 166.489L173.929 11.0468C173.398 8.21421 170.925 6.1604 168.041 6.1604H158.351L156.649 13.6491C156.209 15.5847 154.487 16.9591 152.501 16.9591H113.168C110.911 16.9591 108.819 15.7762 107.656 13.8439L103.032 6.16145H90.866C87.4545 6.16145 84.8815 9.2589 85.5086 12.6118L114.743 168.053C115.274 170.886 117.748 172.939 120.632 172.939H197.806C201.218 172.939 203.791 169.842 203.164 166.489Z" fill="white"/>
<path d="M197.806 173.17H120.632C117.639 173.17 115.067 171.036 114.517 168.096L85.2824 12.6541C84.9705 10.9886 85.4122 9.28656 86.4946 7.9833C87.577 6.679 89.1702 5.93054 90.866 5.93054H103.032C103.112 5.93054 103.188 5.97241 103.23 6.04255L107.853 13.725C108.968 15.5778 111.005 16.7292 113.168 16.7292H152.501C154.392 16.7292 156.005 15.4417 156.423 13.5993L158.126 6.11059C158.15 6.00591 158.243 5.93054 158.351 5.93054H168.041C171.034 5.93054 173.604 8.06495 174.155 11.0043L203.39 166.446C203.702 168.111 203.26 169.813 202.178 171.116C201.095 172.421 199.501 173.169 197.806 173.169V173.17ZM90.866 6.39218C89.3084 6.39218 87.8439 7.07992 86.8495 8.27745C85.855 9.47498 85.4499 11.0389 85.7357 12.5682L114.97 168.01C115.48 170.732 117.861 172.708 120.632 172.708H197.806C199.364 172.708 200.828 172.02 201.823 170.822C202.817 169.625 203.222 168.061 202.937 166.531L173.703 11.0902C173.193 8.36747 170.812 6.39218 168.042 6.39218H158.535L156.874 13.7019C156.407 15.7557 154.608 17.1909 152.501 17.1909H113.168C110.844 17.1909 108.656 15.9546 107.458 13.9636L102.902 6.39218H90.8671H90.866Z" fill="black"/>
<path d="M254.202 85.7521C253.972 85.7521 253.748 85.7709 253.528 85.7992C252.968 83.5705 252.081 81.4717 250.92 79.5571C251.096 79.419 251.267 79.2724 251.428 79.1112C253.593 76.9349 253.582 73.4156 251.405 71.2519C249.227 69.0882 245.707 69.0986 243.542 71.2749C243.381 71.4372 243.236 71.6088 243.098 71.7847C241.178 70.6353 239.072 69.7613 236.839 69.2148C236.865 68.9929 236.883 68.7689 236.882 68.5407C236.872 65.4715 234.377 62.9906 231.305 63C228.235 63.0094 225.753 65.504 225.763 68.5731C225.763 68.8024 225.781 69.0264 225.81 69.2473C223.58 69.8073 221.48 70.6929 219.566 71.8538C219.427 71.679 219.281 71.5083 219.119 71.3471C216.941 69.1834 213.421 69.1939 211.256 71.3702C209.091 73.5465 209.102 77.0658 211.279 79.2295C211.441 79.3907 211.613 79.5362 211.789 79.6733C210.638 81.5942 209.764 83.6982 209.218 85.93C208.996 85.9038 208.772 85.886 208.543 85.8871C205.473 85.8965 202.991 88.391 203 91.4602C203.009 94.5294 205.505 97.0103 208.576 97.0009C208.806 97.0009 209.03 96.981 209.25 96.9538C209.81 99.1824 210.696 101.281 211.858 103.196C211.682 103.334 211.511 103.481 211.35 103.642C209.186 105.818 209.196 109.337 211.373 111.501C213.551 113.665 217.071 113.654 219.236 111.478C219.397 111.316 219.542 111.144 219.68 110.968C221.6 112.118 223.706 112.992 225.939 113.538C225.913 113.76 225.895 113.984 225.897 114.212C225.906 117.281 228.401 119.762 231.473 119.753C234.543 119.743 237.025 117.249 237.016 114.18C237.016 113.951 236.997 113.727 236.968 113.506C239.198 112.946 241.298 112.06 243.213 110.899C243.351 111.074 243.497 111.245 243.66 111.406C245.837 113.569 249.357 113.559 251.522 111.383C253.687 109.206 253.676 105.687 251.499 103.523C251.337 103.362 251.165 103.217 250.989 103.08C252.14 101.159 253.014 99.0547 253.56 96.8229C253.782 96.8491 254.006 96.8669 254.235 96.8658C257.305 96.8564 259.787 94.3619 259.778 91.2927C259.769 88.2235 257.273 85.7426 254.202 85.7521ZM231.418 101.696C225.716 101.712 221.08 97.1056 221.063 91.4058C221.047 85.706 225.656 81.0718 231.358 81.0551C237.059 81.0383 241.696 85.6453 241.712 91.3451C241.729 97.0448 237.12 101.679 231.418 101.696Z" fill="#ABE7FD"/>
<path d="M176.747 141.212H116.631V158.429H176.747V141.212Z" fill="white"/>
<path d="M176.747 158.66H116.631C116.503 158.66 116.4 158.557 116.4 158.43V141.212C116.4 141.085 116.504 140.982 116.631 140.982H176.747C176.875 140.982 176.977 141.086 176.977 141.212V158.43C176.977 158.558 176.874 158.66 176.747 158.66ZM116.862 158.2H176.517V141.443H116.862V158.2Z" fill="black"/>
<path d="M34.4596 160.095C48.9989 160.095 60.7853 148.314 60.7853 133.781C60.7853 119.248 48.9989 107.467 34.4596 107.467C19.9202 107.467 8.13379 119.248 8.13379 133.781C8.13379 148.314 19.9202 160.095 34.4596 160.095Z" fill="white"/>
<path d="M34.4594 160.327C19.8158 160.327 7.90332 148.418 7.90332 133.781C7.90332 119.144 19.8169 107.235 34.4594 107.235C49.1019 107.235 61.0154 119.144 61.0154 133.781C61.0154 148.418 49.1019 160.327 34.4594 160.327ZM34.4594 107.697C20.0702 107.697 8.36391 119.398 8.36391 133.781C8.36391 148.164 20.0702 159.865 34.4594 159.865C48.8486 159.865 60.5549 148.164 60.5549 133.781C60.5549 119.398 48.8486 107.697 34.4594 107.697Z" fill="black"/>
<path d="M35.7983 150.588C35.7931 150.588 35.7868 150.588 35.7816 150.588C23.4766 149.697 20.578 143.528 20.4607 143.266C20.4084 143.15 20.4607 143.014 20.5769 142.961C20.6931 142.909 20.8292 142.961 20.8816 143.077C20.9098 143.138 23.8094 149.259 35.8151 150.128C35.9418 150.137 36.0381 150.247 36.0286 150.375C36.0203 150.496 35.9187 150.588 35.7983 150.588Z" fill="black"/>
<path d="M2.79592 186.762C2.76347 186.762 2.73102 186.756 2.70066 186.741C2.58447 186.689 2.53318 186.552 2.58656 186.435L17.3809 153.89C17.4332 153.773 17.5703 153.722 17.6865 153.776C17.8027 153.828 17.854 153.965 17.8006 154.081L3.00633 186.627C2.96759 186.712 2.88385 186.762 2.79592 186.762Z" fill="black"/>
<path d="M3.79025 188.978C3.7919 187.932 2.94542 187.084 1.89959 187.082C0.853756 187.08 0.00461477 187.926 0.00297289 188.972C0.00133101 190.017 0.84781 190.866 1.89364 190.867C2.93947 190.869 3.78861 190.023 3.79025 188.978Z" fill="black"/>
<path d="M66.1229 186.762C66.035 186.762 65.9512 186.712 65.9125 186.627L51.1182 154.081C51.0658 153.965 51.1171 153.829 51.2323 153.776C51.3474 153.723 51.4846 153.775 51.5379 153.89L66.3323 186.436C66.3846 186.552 66.3333 186.688 66.2181 186.741C66.1867 186.755 66.1543 186.762 66.1229 186.762Z" fill="black"/>
<path d="M67.0173 190.878C68.0631 190.877 68.9096 190.028 68.9079 188.983C68.9063 187.937 68.0571 187.091 67.0113 187.093C65.9655 187.095 65.119 187.943 65.1206 188.989C65.1223 190.034 65.9714 190.88 67.0173 190.878Z" fill="black"/>
<path d="M91.5798 191.018H61.4772C57.4481 191.018 54.6751 186.975 56.1291 183.219L73.0473 139.508H104.255L87.3842 183.098L92.6046 188.649C93.4493 189.547 92.8118 191.018 91.5798 191.018Z" fill="white"/>
<path d="M91.5795 191.25H61.4769C59.5079 191.25 57.6687 190.28 56.5559 188.657C55.4442 187.034 55.2045 184.97 55.9142 183.136L72.8325 139.425C72.867 139.336 72.9518 139.277 73.0481 139.277H104.256C104.333 139.277 104.404 139.315 104.447 139.378C104.49 139.441 104.499 139.52 104.472 139.591L87.653 183.047L92.7739 188.491C93.2282 188.975 93.3475 189.653 93.0837 190.262C92.8199 190.872 92.2442 191.251 91.5805 191.251L91.5795 191.25ZM73.2052 139.738L56.3445 183.302C55.6798 185.02 55.8954 186.876 56.937 188.396C57.9785 189.917 59.6335 190.789 61.4779 190.789H91.5805C92.0579 190.789 92.4714 190.517 92.6608 190.079C92.8503 189.642 92.7645 189.155 92.4379 188.807L87.2175 183.257C87.1568 183.192 87.138 183.099 87.1704 183.016L103.92 139.74H73.2073L73.2052 139.738Z" fill="black"/>
<path d="M87.3242 183.282H60.9754C60.8477 183.282 60.7451 183.178 60.7451 183.051C60.7451 182.925 60.8488 182.821 60.9754 182.821H87.3242C87.4519 182.821 87.5545 182.925 87.5545 183.051C87.5545 183.178 87.4509 183.282 87.3242 183.282Z" fill="black"/>
<path d="M89.7998 122.181L89.1999 126.914C89.1999 126.914 48.1238 127.628 48.3028 126.914C48.4818 126.2 50.0855 119.196 50.8465 119.304C51.6065 119.413 89.7998 122.181 89.7998 122.181Z" fill="white"/>
<path d="M31.2535 125.432L28.2 134.291C25.917 140.915 30.84 147.815 37.8494 147.815H81.4556L100.853 187.526C101.99 189.855 104.356 191.332 106.949 191.332H138.566C139.46 191.332 139.833 190.189 139.11 189.663L130.658 183.512L112.175 140.199C108.353 131.243 99.5525 125.433 89.8121 125.433H31.2535V125.432Z" fill="white"/>
<path d="M138.568 191.563H106.95C104.288 191.563 101.814 190.018 100.647 187.627L81.3135 148.045H37.8507C34.4329 148.045 31.3354 146.45 29.3518 143.668C27.3691 140.887 26.8709 137.442 27.9836 134.214L31.0371 125.356C31.0696 125.263 31.1564 125.2 31.2548 125.2H89.8155C99.6648 125.2 108.526 131.052 112.39 140.107L130.848 183.361L139.248 189.475C139.66 189.775 139.824 190.281 139.667 190.765C139.509 191.249 139.079 191.562 138.569 191.562L138.568 191.563ZM31.4181 125.663L28.4191 134.366C27.3555 137.451 27.8329 140.744 29.7276 143.401C31.6233 146.06 34.5847 147.585 37.8507 147.585H81.4569C81.5448 147.585 81.6254 147.635 81.6642 147.715L101.061 187.426C102.152 189.66 104.464 191.103 106.95 191.103H138.568C138.939 191.103 139.152 190.856 139.227 190.625C139.303 190.393 139.276 190.069 138.976 189.851L130.524 183.7C130.491 183.676 130.465 183.643 130.448 183.604L111.965 140.291C108.173 131.406 99.4785 125.664 89.8145 125.664H31.4181V125.663Z" fill="black"/>
<path d="M130.659 183.742H104.255C104.127 183.742 104.024 183.638 104.024 183.512C104.024 183.385 104.128 183.281 104.255 183.281H130.659C130.787 183.281 130.889 183.385 130.889 183.512C130.889 183.638 130.786 183.742 130.659 183.742Z" fill="black"/>
<path d="M76.9786 96.7152L76.6112 92.0454L65.5686 89.6724L49.6553 121.702L69.112 121.045L76.9786 96.7152Z" fill="white"/>
<path d="M64.2916 123.258L76.6626 91.9146C76.6626 91.9146 94.9165 101.714 88.3887 123.258H64.2905H64.2916Z" fill="#ABE7FD"/>
<path d="M76.0522 118.866C76.0239 118.866 75.9956 118.861 75.9674 118.851C75.8491 118.804 75.7905 118.67 75.8376 118.551L81.5018 104.202C81.5489 104.084 81.6829 104.025 81.8011 104.072C81.9194 104.119 81.9781 104.253 81.931 104.371L76.2668 118.721C76.2312 118.812 76.1443 118.867 76.0522 118.867V118.866Z" fill="black"/>
<path d="M65.5689 89.6724L45.3061 141.008L31.6193 140.049C28.3617 139.821 26.0975 136.713 26.8815 133.544C27.5891 130.685 28.6496 127.186 30.1705 123.891C32.4389 118.973 38.1094 107.837 42.6954 99.5698C47.093 91.6435 56.2074 87.4542 65.0318 89.5384C65.2108 89.5803 65.3899 89.6253 65.5689 89.6724Z" fill="#ABE7FD"/>
<path d="M111.115 123.052H85.3823L93.9325 99.5413H119.665L111.115 123.052Z" fill="black"/>
<path d="M77.6037 120.245H112.229L111.115 123.258H76.3057L77.6037 120.245Z" fill="black"/>
<path d="M53.0053 111.326L58.4737 97.9438L43.5161 102.666L39.0892 113.953C37.3285 118.443 40.6196 123.302 45.4432 123.336C52.4787 123.384 61.2299 123.436 67.877 123.43C68.5836 118.737 70.7421 114.037 72.0056 111.586C62.305 111.445 53.0053 111.327 53.0053 111.327V111.326Z" fill="#ABE7FD"/>
<path d="M56.4607 111.556H53.0052C52.9288 111.556 52.8566 111.517 52.8137 111.455C52.7708 111.391 52.7624 111.31 52.7917 111.239L58.2601 97.8568C58.3083 97.7385 58.4433 97.683 58.5606 97.7301C58.6789 97.7783 58.7354 97.9133 58.6872 98.0305L53.3486 111.096H56.4607C56.5884 111.096 56.691 111.199 56.691 111.326C56.691 111.453 56.5874 111.556 56.4607 111.556Z" fill="black"/>
<path d="M86.3152 111.841C83.447 111.762 77.8592 111.669 72.0045 111.585C70.741 114.036 68.5826 118.736 67.876 123.429C73.3319 123.423 77.3704 123.378 77.8802 123.257C79.5226 122.87 79.4901 121.02 79.4901 121.02C81.8925 120.561 80.56 118.636 80.56 118.636C84.2164 116.642 80.987 115.277 80.987 115.277L86.4534 114.555C87.0605 114.475 87.541 114 87.6258 113.393C87.7389 112.588 87.1286 111.864 86.3152 111.842V111.841Z" fill="white"/>
<path d="M52.9579 123.584C49.9494 123.584 47.3021 123.578 45.4409 123.566C43.0637 123.549 40.9366 122.411 39.604 120.443C38.2725 118.476 38.0066 116.08 38.8733 113.869L43.3002 102.582C43.3463 102.464 43.4803 102.405 43.5996 102.451C43.7179 102.497 43.7765 102.631 43.7305 102.75L39.3036 114.038C38.4923 116.105 38.7415 118.346 39.9871 120.185C41.2328 122.025 43.2217 123.09 45.4451 123.104C50.6058 123.14 61.8201 123.114 70.0081 123.095C72.9914 123.087 75.5833 123.082 77.3545 123.08C77.4822 123.08 77.5848 123.183 77.5848 123.31C77.5848 123.438 77.4822 123.541 77.3545 123.542C75.5843 123.544 72.9925 123.55 70.0091 123.556C64.772 123.569 58.2966 123.584 52.959 123.584H52.9579Z" fill="black"/>
<path d="M49.6553 111.777C49.5318 111.777 49.4302 111.68 49.425 111.555C49.4198 111.428 49.5192 111.321 49.6469 111.316L52.0294 111.222C52.0294 111.222 52.0357 111.222 52.0388 111.222C52.1624 111.222 52.265 111.32 52.2691 111.444C52.2744 111.572 52.1749 111.679 52.0472 111.684L49.6647 111.777C49.6647 111.777 49.6584 111.777 49.6553 111.777Z" fill="black"/>
<path d="M70.5423 68.2277C69.2746 68.8369 68.3137 70.0501 68.0112 71.4235C67.8562 72.1291 67.8657 72.8618 67.7244 73.5695C67.583 74.2781 67.247 75.0015 66.6147 75.349C66.2976 75.5228 65.9333 75.5887 65.6004 75.73C64.9326 76.0158 64.4039 76.6533 64.3411 77.3766C64.2783 78.1 64.7431 78.861 65.4434 79.0536C65.2958 79.6942 65.5418 80.4081 66.0516 80.8227C66.5614 81.2372 67.3109 81.3314 67.9075 81.0572C68.1514 82.4494 69.3657 83.5265 70.7129 83.9557C72.0602 84.3849 73.5204 84.2666 74.9116 84.0123C77.5464 83.5297 80.1184 82.5551 82.2664 80.9546C82.8222 80.5411 83.3561 80.0763 83.7172 79.4859C84.0784 78.8955 84.248 78.1576 84.0355 77.4981C84.8739 76.7569 85.68 75.9132 86.0401 74.8539C86.4012 73.7945 86.2034 72.4756 85.3125 71.7983C84.5924 71.2508 83.5822 71.2142 82.8578 70.673C82.2287 70.203 81.9168 69.4346 81.5232 68.7553C81.0312 67.9053 80.3528 67.1348 79.4756 66.692C78.4058 66.1508 77.0942 66.2126 76.0285 66.7329C75.4497 67.0155 75.1042 67.4321 74.6457 67.8561C74.2029 68.2664 73.4922 67.8341 72.9437 67.7901C72.123 67.7242 71.2845 67.8697 70.5413 68.2266L70.5423 68.2277Z" fill="black"/>
<path d="M76.1206 91.8632L75.1126 91.412L77.539 85.5133C77.539 85.5133 78.4539 77.6635 70.9976 81.3335L66.9036 89.9434L66.2148 89.8042C66.2148 89.8042 71.0552 97.3254 76.1206 91.8642V91.8632Z" fill="white"/>
<path d="M72.2254 94.0772C69.755 94.0772 67.7001 92.0266 66.779 90.9306C66.6973 90.8332 66.7099 90.6877 66.8072 90.605C66.9046 90.5234 67.0501 90.5359 67.1328 90.6333C68.5606 92.3322 71.4246 94.8864 74.5535 92.8975C74.6613 92.8294 74.8037 92.8609 74.8717 92.9687C74.9398 93.0765 74.9083 93.2189 74.8005 93.2869C73.9139 93.8501 73.0461 94.0772 72.2254 94.0772Z" fill="black"/>
<path d="M76.1205 92.0936C76.0891 92.0936 76.0567 92.0874 76.0263 92.0738L75.0183 91.6226C74.9042 91.5713 74.8518 91.4394 74.8989 91.3243L77.3128 85.4559C77.3442 85.1241 77.5766 82.1711 75.9698 81.0374C74.9314 80.3047 73.3172 80.4617 71.1713 81.5043L67.1108 90.0409C67.0658 90.1361 66.9611 90.1895 66.8564 90.1675L65.9771 89.9896C65.8526 89.9645 65.7719 89.843 65.7971 89.7174C65.8222 89.5929 65.9436 89.5112 66.0692 89.5374L66.7716 89.6797L70.7892 81.2332C70.8112 81.1861 70.8489 81.1484 70.896 81.1254C73.2408 79.9707 75.0381 79.8148 76.2367 80.6606C78.1544 82.0151 77.7849 85.3952 77.7682 85.5386C77.7661 85.5596 77.7609 85.5805 77.7525 85.5993L75.4108 91.2918L76.2147 91.6519C76.3309 91.7042 76.3833 91.8403 76.3309 91.9565C76.2922 92.0424 76.2085 92.0926 76.1205 92.0926V92.0936Z" fill="black"/>
<path d="M73.5329 82.465C74.1474 83.4688 74.9764 84.3597 76.0086 84.9239C77.0407 85.4881 78.2874 85.7038 79.4201 85.3866C81.3169 84.8559 82.5625 82.9392 82.887 80.9974C83.2115 79.0556 82.7886 77.075 82.3511 75.1563C82.3511 75.1563 81.0593 72.3729 78.7417 71.7552C79.0013 76.0597 71.2122 74.0886 74.0846 79.7465C74.0846 79.7465 72.4955 78.3406 71.6654 78.5657C70.7694 78.8096 70.1329 79.7538 70.2282 80.6781C70.3234 81.6014 71.0876 82.398 71.9952 82.5948C72.5081 82.7068 72.9949 82.7581 73.5319 82.465H73.5329Z" fill="white"/>
<path d="M78.3274 85.7633C77.5119 85.7633 76.6682 85.5466 75.8988 85.1258C74.9609 84.6139 74.1172 83.7985 73.4472 82.7611C72.8935 82.9935 72.3858 82.915 71.9472 82.8197C70.9224 82.5968 70.1038 81.7049 70.0001 80.701C69.8923 79.6522 70.5978 78.6169 71.6059 78.3426C72.1597 78.1919 72.9364 78.6116 73.5048 79.0031C73.1866 78.1427 73.1342 77.4267 73.3415 76.829C73.7068 75.7801 74.8091 75.2724 75.8758 74.7814C77.2858 74.1324 78.6173 73.519 78.5116 71.7688C78.5074 71.6944 78.5388 71.6233 78.5953 71.5762C78.6519 71.5291 78.7293 71.5133 78.8005 71.5322C81.1956 72.1697 82.5051 74.9405 82.5595 75.0588C82.5658 75.0735 82.5721 75.0892 82.5752 75.1049C82.9678 76.83 83.4577 78.9759 83.1133 81.035C82.7344 83.3023 81.3086 85.0976 79.4809 85.6084C79.1104 85.712 78.721 85.7633 78.3253 85.7633H78.3274ZM73.5331 82.2335C73.6105 82.2335 73.6869 82.2733 73.7299 82.3435C74.3736 83.3965 75.2006 84.2183 76.1197 84.7207C77.157 85.2881 78.3378 85.4493 79.3585 85.1635C81.2427 84.637 82.3743 82.6722 82.66 80.9586C82.9866 78.999 82.5156 76.9127 82.1325 75.2316C82.0152 74.9918 80.8815 72.7622 78.9774 72.0702C78.9198 73.8875 77.4104 74.5825 76.0694 75.2001C75.0457 75.6712 74.0784 76.1171 73.778 76.9807C73.5488 77.6392 73.7162 78.5101 74.2909 79.6417C74.3412 79.7401 74.314 79.8605 74.226 79.9285C74.1381 79.9965 74.0156 79.9924 73.9319 79.9191C73.353 79.4072 72.2424 78.6483 71.7263 78.7885C70.9433 79.001 70.3738 79.8385 70.4586 80.6539C70.5424 81.4662 71.2092 82.1875 72.0456 82.3696C72.5805 82.4858 72.9772 82.5057 73.4221 82.2629C73.4566 82.244 73.4954 82.2346 73.532 82.2346L73.5331 82.2335Z" fill="black"/>
<path d="M73.1487 81.4809C73.1079 81.4809 73.067 81.4705 73.0304 81.4485C72.6159 81.1993 72.2453 80.8884 71.9302 80.5231C71.8475 80.4268 71.858 80.2813 71.9543 80.1976C72.0506 80.1149 72.1961 80.1253 72.2798 80.2216C72.5635 80.5503 72.8954 80.8298 73.268 81.0528C73.3769 81.1187 73.4125 81.2601 73.3476 81.3689C73.3047 81.4411 73.2282 81.4809 73.1497 81.4809H73.1487Z" fill="black"/>
<path d="M133.968 72.1833H116.744C116.617 72.1833 116.514 72.0796 116.514 71.953C116.514 71.8263 116.618 71.7227 116.744 71.7227H133.737V31.6546C133.737 31.5269 133.841 31.4243 133.967 31.4243H154.873C155.001 31.4243 155.103 31.5279 155.103 31.6546C155.103 31.7813 154.999 31.8849 154.873 31.8849H134.198V71.953C134.198 72.0807 134.094 72.1833 133.967 72.1833H133.968Z" fill="black"/>
<path d="M154.874 35.487C156.991 35.487 158.707 33.7712 158.707 31.6547C158.707 29.5382 156.991 27.8224 154.874 27.8224C152.757 27.8224 151.041 29.5382 151.041 31.6547C151.041 33.7712 152.757 35.487 154.874 35.487Z" fill="#ABE7FD"/>
<path d="M116.744 75.7038C118.862 75.7038 120.578 73.988 120.578 71.8715C120.578 69.755 118.862 68.0392 116.744 68.0392C114.627 68.0392 112.911 69.755 112.911 71.8715C112.911 73.988 114.627 75.7038 116.744 75.7038Z" fill="#ABE7FD"/>
<path d="M116.762 41.8481C118.856 41.8481 120.554 40.1497 120.554 38.0546C120.554 35.9594 118.856 34.261 116.762 34.261C114.668 34.261 112.971 35.9594 112.971 38.0546C112.971 40.1497 114.668 41.8481 116.762 41.8481Z" fill="#ABE7FD"/>
<path d="M116.762 52.9168C118.856 52.9168 120.554 51.2189 120.554 49.1243C120.554 47.0298 118.856 45.3318 116.762 45.3318C114.668 45.3318 112.971 47.0298 112.971 49.1243C112.971 51.2189 114.668 52.9168 116.762 52.9168Z" fill="#ABE7FD"/>
<path d="M116.762 63.9857C118.856 63.9857 120.554 62.2877 120.554 60.1932C120.554 58.0986 118.856 56.4006 116.762 56.4006C114.668 56.4006 112.971 58.0986 112.971 60.1932C112.971 62.2877 114.668 63.9857 116.762 63.9857Z" fill="#ABE7FD"/>
<path d="M174.31 123.028C174.182 123.028 174.079 122.925 174.079 122.798V102.132H133.994C133.867 102.132 133.764 102.028 133.764 101.902V84.6853C133.764 84.5575 133.868 84.455 133.994 84.455C134.121 84.455 134.225 84.5586 134.225 84.6853V101.67H174.31C174.437 101.67 174.54 101.774 174.54 101.901V122.797C174.54 122.925 174.436 123.027 174.31 123.027V123.028Z" fill="black"/>
<path d="M174.309 126.63C176.427 126.63 178.143 124.915 178.143 122.798C178.143 120.681 176.427 118.966 174.309 118.966C172.192 118.966 170.476 120.681 170.476 122.798C170.476 124.915 172.192 126.63 174.309 126.63Z" fill="#ABE7FD"/>
<path d="M134.075 88.5162C136.192 88.5162 137.908 86.8004 137.908 84.6839C137.908 82.5673 136.192 80.8516 134.075 80.8516C131.958 80.8516 130.242 82.5673 130.242 84.6839C130.242 86.8004 131.958 88.5162 134.075 88.5162Z" fill="#ABE7FD"/>
<path d="M163.521 126.553C165.617 126.553 167.316 124.856 167.316 122.763C167.316 120.67 165.617 118.974 163.521 118.974C161.425 118.974 159.727 120.67 159.727 122.763C159.727 124.856 161.425 126.553 163.521 126.553Z" fill="#ABE7FD"/>
<path d="M152.447 126.553C154.543 126.553 156.242 124.856 156.242 122.763C156.242 120.67 154.543 118.974 152.447 118.974C150.351 118.974 148.652 120.67 148.652 122.763C148.652 124.856 150.351 126.553 152.447 126.553Z" fill="#ABE7FD"/>
<path d="M141.373 126.553C143.469 126.553 145.168 124.856 145.168 122.763C145.168 120.67 143.469 118.974 141.373 118.974C139.278 118.974 137.579 120.67 137.579 122.763C137.579 124.856 139.278 126.553 141.373 126.553Z" fill="#ABE7FD"/>
<path d="M148.062 64.7352C150.156 64.7352 151.854 63.0368 151.854 60.9416C151.854 58.8465 150.156 57.1481 148.062 57.1481C145.968 57.1481 144.271 58.8465 144.271 60.9416C144.271 63.0368 145.968 64.7352 148.062 64.7352Z" fill="#ABE7FD"/>
<path d="M148.062 75.803C150.156 75.803 151.854 74.105 151.854 72.0104C151.854 69.9159 150.156 68.2179 148.062 68.2179C145.968 68.2179 144.271 69.9159 144.271 72.0104C144.271 74.105 145.968 75.803 148.062 75.803Z" fill="#ABE7FD"/>
</svg>
