<svg width="49" height="49" viewBox="0 0 49 49" fill="none" xmlns="http://www.w3.org/2000/svg">
<rect x="0.5" y="0.5" width="48" height="48" rx="7.5" fill="#E5E4FF" stroke="#BBB9FA"/>
<path d="M34.2432 25.427H32.1245C32.3405 26.0183 32.4584 26.6563 32.4584 27.3214V35.3287C32.4584 35.606 32.4102 35.8721 32.3224 36.1197H35.825C37.1334 36.1197 38.1978 35.0552 38.1978 33.7468V29.3817C38.1979 27.2011 36.4238 25.427 34.2432 25.427Z" fill="#BBB9FA"/>
<path d="M16.5427 27.3214C16.5427 26.6563 16.6607 26.0183 16.8766 25.427H14.7579C12.5773 25.427 10.8032 27.2011 10.8032 29.3817V33.7469C10.8032 35.0552 11.8676 36.1197 13.1761 36.1197H16.6787C16.5909 35.8721 16.5427 35.606 16.5427 35.3287V27.3214Z" fill="#BBB9FA"/>
<path d="M26.9228 23.3665H22.0792C19.8986 23.3665 18.1245 25.1405 18.1245 27.3212V35.3285C18.1245 35.7653 18.4786 36.1195 18.9155 36.1195H30.0866C30.5234 36.1195 30.8775 35.7654 30.8775 35.3285V27.3212C30.8775 25.1405 29.1034 23.3665 26.9228 23.3665Z" fill="#BBB9FA"/>
<path d="M24.5002 12.8806C21.8777 12.8806 19.7441 15.0142 19.7441 17.6367C19.7441 19.4156 20.7259 20.9691 22.1759 21.7848C22.8636 22.1717 23.6565 22.3928 24.5002 22.3928C25.3439 22.3928 26.1368 22.1717 26.8245 21.7848C28.2745 20.9691 29.2562 19.4155 29.2562 17.6367C29.2562 15.0142 27.1227 12.8806 24.5002 12.8806Z" fill="#BBB9FA"/>
<path d="M16.1482 17.3135C14.1869 17.3135 12.5913 18.9091 12.5913 20.8704C12.5913 22.8317 14.1869 24.4273 16.1482 24.4273C16.6457 24.4273 17.1195 24.3242 17.5498 24.139C18.2939 23.8186 18.9074 23.2515 19.287 22.5412C19.5535 22.0427 19.7051 21.474 19.7051 20.8704C19.7051 18.9091 18.1095 17.3135 16.1482 17.3135Z" fill="#BBB9FA"/>
<path d="M32.8513 17.3137C30.89 17.3137 29.2944 18.9093 29.2944 20.8706C29.2944 21.4743 29.446 22.043 29.7125 22.5415C30.0921 23.2518 30.7056 23.8189 31.4497 24.1392C31.8801 24.3244 32.3538 24.4275 32.8513 24.4275C34.8126 24.4275 36.4082 22.8319 36.4082 20.8706C36.4082 18.9093 34.8126 17.3137 32.8513 17.3137Z" fill="#BBB9FA"/>
</svg>
