<svg width="68" height="68" viewBox="0 0 68 68" fill="none" xmlns="http://www.w3.org/2000/svg">
<circle opacity="0.6" cx="34" cy="34" r="34" fill="white"/>
<circle cx="34" cy="34" r="25" fill="white"/>
<path d="M41.7473 38.9445C41.5004 37.2664 40.6601 35.7324 39.3789 34.6208C38.0978 33.5092 36.4606 32.8936 34.7645 32.8857H33.1837C31.4875 32.8936 29.8504 33.5092 28.5692 34.6208C27.288 35.7324 26.4478 37.2664 26.2008 38.9445L25.4431 44.2425C25.4189 44.4138 25.4349 44.5883 25.4898 44.7524C25.5447 44.9164 25.6371 45.0653 25.7596 45.1875C26.0567 45.4846 27.8797 47 33.9756 47C40.0714 47 41.89 45.4905 42.1916 45.1875C42.314 45.0653 42.4064 44.9164 42.4613 44.7524C42.5162 44.5883 42.5322 44.4138 42.508 44.2425L41.7473 38.9445Z" fill="url(#paint0_linear_2_966)"/>
<path d="M27.3761 33.7028C25.9402 35.0265 25.0059 36.8058 24.7315 38.7394L24.1818 42.5428C19.7692 42.5131 18.4321 40.9085 18.2092 40.5817C18.1231 40.4629 18.0616 40.3281 18.0284 40.1852C17.9953 40.0423 17.9911 39.8942 18.0161 39.7497L18.3429 37.9074C18.5132 36.9446 18.9132 36.037 19.5089 35.2617C20.1046 34.4863 20.8785 33.8661 21.7649 33.4535C22.6514 33.0409 23.6242 32.8481 24.601 32.8915C25.5778 32.9349 26.5297 33.2132 27.3761 33.7028Z" fill="url(#paint1_linear_2_966)"/>
<path d="M49.9293 39.7497C49.9544 39.8942 49.9502 40.0423 49.917 40.1852C49.8838 40.3281 49.8223 40.4629 49.7362 40.5817C49.5133 40.9085 48.1762 42.5131 43.7636 42.5428L43.2139 38.7394C42.9395 36.8058 42.0052 35.0265 40.5693 33.7028C41.4157 33.2132 42.3676 32.9349 43.3444 32.8915C44.3212 32.8481 45.2941 33.0409 46.1805 33.4535C47.067 33.8661 47.8408 34.4863 48.4365 35.2617C49.0322 36.037 49.4322 36.9446 49.6025 37.9074L49.9293 39.7497Z" fill="url(#paint2_linear_2_966)"/>
<path d="M27.6286 30.4343C27.2546 30.9647 26.7581 31.397 26.1813 31.6944C25.6045 31.9919 24.9644 32.1457 24.3155 32.1429C23.6681 32.1429 23.0299 31.989 22.4537 31.694C21.8774 31.399 21.3795 30.9713 21.0009 30.4461C20.6224 29.9209 20.3741 29.3133 20.2765 28.6733C20.1788 28.0333 20.2347 27.3793 20.4394 26.7651C20.6441 26.151 20.9919 25.5942 21.454 25.1408C21.9161 24.6874 22.4793 24.3503 23.0972 24.1573C23.7152 23.9643 24.3701 23.9208 25.0082 24.0306C25.6462 24.1403 26.249 24.4001 26.7669 24.7886C26.6179 25.3711 26.543 25.9701 26.544 26.5714C26.5452 27.9341 26.9203 29.2702 27.6286 30.4343Z" fill="url(#paint3_linear_2_966)"/>
<path d="M47.7155 28.0572C47.7159 28.5938 47.6105 29.1253 47.4053 29.6212C47.2001 30.117 46.8992 30.5676 46.5197 30.9471C46.1402 31.3265 45.6897 31.6275 45.1938 31.8327C44.6979 32.0378 44.1664 32.1433 43.6298 32.1429C42.9808 32.1457 42.3407 31.9919 41.7639 31.6944C41.1871 31.397 40.6906 30.9647 40.3167 30.4343C41.0249 29.2702 41.4001 27.9341 41.4012 26.5714C41.4022 25.9701 41.3273 25.3711 41.1784 24.7886C41.7854 24.3333 42.5072 24.0561 43.2629 23.9879C44.0186 23.9198 44.7783 24.0634 45.457 24.4028C46.1356 24.7421 46.7064 25.2637 47.1053 25.9092C47.5042 26.5546 47.7155 27.2984 47.7155 28.0572Z" fill="url(#paint4_linear_2_966)"/>
<path d="M33.9726 32.1429C37.0496 32.1429 39.544 29.6484 39.544 26.5714C39.544 23.4944 37.0496 21 33.9726 21C30.8955 21 28.4011 23.4944 28.4011 26.5714C28.4011 29.6484 30.8955 32.1429 33.9726 32.1429Z" fill="url(#paint5_linear_2_966)"/>
<defs>
<linearGradient id="paint0_linear_2_966" x1="39.6029" y1="54.5902" x2="19.9886" y2="47.0545" gradientUnits="userSpaceOnUse">
<stop stop-color="#FA781A"/>
<stop offset="1" stop-color="#FAA41A"/>
</linearGradient>
<linearGradient id="paint1_linear_2_966" x1="25.776" y1="47.7362" x2="14.4952" y2="44.2604" gradientUnits="userSpaceOnUse">
<stop stop-color="#FA781A"/>
<stop offset="1" stop-color="#FAA41A"/>
</linearGradient>
<linearGradient id="paint2_linear_2_966" x1="48.3453" y1="47.7362" x2="37.0646" y2="44.2604" gradientUnits="userSpaceOnUse">
<stop stop-color="#FA781A"/>
<stop offset="1" stop-color="#FAA41A"/>
</linearGradient>
<linearGradient id="paint3_linear_2_966" x1="26.3659" y1="36.5372" x2="17.3624" y2="33.9501" gradientUnits="userSpaceOnUse">
<stop stop-color="#FA781A"/>
<stop offset="1" stop-color="#FAA41A"/>
</linearGradient>
<linearGradient id="paint4_linear_2_966" x1="46.4528" y1="36.5372" x2="37.4493" y2="33.9501" gradientUnits="userSpaceOnUse">
<stop stop-color="#FA781A"/>
<stop offset="1" stop-color="#FAA41A"/>
</linearGradient>
<linearGradient id="paint5_linear_2_966" x1="37.6423" y1="38.1351" x2="24.3063" y2="33.9028" gradientUnits="userSpaceOnUse">
<stop stop-color="#FA781A"/>
<stop offset="1" stop-color="#FAA41A"/>
</linearGradient>
</defs>
</svg>
