<svg width="241" height="53" viewBox="0 0 241 53" fill="none" xmlns="http://www.w3.org/2000/svg">
<rect width="241" height="53" rx="20" fill="white"/>
<path d="M23.984 32V22.56H20.352V21.024H29.44V22.56H25.776V32H23.984ZM31.7156 32.192C31.449 32.192 31.161 32.16 30.8516 32.096C30.5423 32.032 30.249 31.9147 29.9716 31.744C29.705 31.5733 29.4863 31.3387 29.3156 31.04C29.145 30.7307 29.0596 30.3307 29.0596 29.84C29.0596 29.264 29.193 28.7893 29.4596 28.416C29.7263 28.0427 30.0996 27.7493 30.5796 27.536C31.0596 27.3227 31.6303 27.1733 32.2916 27.088C32.9636 27.0027 33.6943 26.96 34.4836 26.96V26.128C34.4836 25.8507 34.4356 25.6053 34.3396 25.392C34.2543 25.1787 34.089 25.0133 33.8436 24.896C33.609 24.7787 33.2676 24.72 32.8196 24.72C32.3716 24.72 32.0196 24.7787 31.7636 24.896C31.5183 25.0027 31.3423 25.1413 31.2356 25.312C31.1396 25.472 31.0916 25.648 31.0916 25.84V26.08H29.4916C29.481 26.0267 29.4756 25.9733 29.4756 25.92C29.4756 25.8667 29.4756 25.8027 29.4756 25.728C29.4756 25.2267 29.6143 24.8053 29.8916 24.464C30.1796 24.112 30.5796 23.8453 31.0916 23.664C31.6036 23.4827 32.1956 23.392 32.8676 23.392C33.593 23.392 34.1956 23.4987 34.6756 23.712C35.1663 23.9147 35.5343 24.208 35.7796 24.592C36.025 24.976 36.1476 25.44 36.1476 25.984V30.256C36.1476 30.4587 36.1956 30.6027 36.2916 30.688C36.3983 30.7733 36.521 30.816 36.6596 30.816H37.2356V31.936C37.1076 31.9893 36.9476 32.0427 36.7556 32.096C36.5636 32.1493 36.3396 32.176 36.0836 32.176C35.7956 32.176 35.5503 32.1227 35.3476 32.016C35.1556 31.92 34.9956 31.7813 34.8676 31.6C34.7503 31.408 34.6703 31.1947 34.6276 30.96H34.5316C34.3396 31.2053 34.105 31.424 33.8276 31.616C33.561 31.7973 33.2516 31.936 32.8996 32.032C32.5476 32.1387 32.153 32.192 31.7156 32.192ZM32.1796 30.816C32.5103 30.816 32.8143 30.768 33.0916 30.672C33.3796 30.5653 33.625 30.4213 33.8276 30.24C34.0303 30.048 34.1903 29.824 34.3076 29.568C34.425 29.3013 34.4836 29.0133 34.4836 28.704V28.144C33.7476 28.144 33.1023 28.1867 32.5476 28.272C31.993 28.3573 31.561 28.5173 31.2516 28.752C30.9423 28.976 30.7876 29.2907 30.7876 29.696C30.7876 29.9413 30.841 30.1493 30.9476 30.32C31.0543 30.48 31.2143 30.6027 31.4276 30.688C31.641 30.7733 31.8916 30.816 32.1796 30.816ZM38.3845 32V20.432H40.0485V32H38.3845ZM45.685 32.192C44.821 32.192 44.0957 32.0373 43.509 31.728C42.933 31.408 42.4957 30.9227 42.197 30.272C41.8983 29.6213 41.749 28.7947 41.749 27.792C41.749 26.7787 41.8983 25.952 42.197 25.312C42.4957 24.6613 42.9383 24.1813 43.525 23.872C44.1117 23.552 44.8423 23.392 45.717 23.392C46.517 23.392 47.1837 23.5467 47.717 23.856C48.261 24.1547 48.6717 24.6133 48.949 25.232C49.2263 25.8507 49.365 26.6293 49.365 27.568V28.208H43.461C43.4823 28.8053 43.573 29.3067 43.733 29.712C43.893 30.1067 44.133 30.4 44.453 30.592C44.7837 30.7733 45.1997 30.864 45.701 30.864C46.0103 30.864 46.2877 30.8267 46.533 30.752C46.7783 30.6667 46.9863 30.5493 47.157 30.4C47.3277 30.24 47.461 30.0533 47.557 29.84C47.653 29.616 47.701 29.3653 47.701 29.088H49.333C49.333 29.5893 49.2477 30.032 49.077 30.416C48.9063 30.8 48.6557 31.1253 48.325 31.392C48.005 31.648 47.621 31.8453 47.173 31.984C46.725 32.1227 46.229 32.192 45.685 32.192ZM43.493 26.992H47.621C47.621 26.576 47.573 26.2293 47.477 25.952C47.3917 25.664 47.2637 25.4293 47.093 25.248C46.9223 25.0667 46.7197 24.9387 46.485 24.864C46.2503 24.7787 45.9837 24.736 45.685 24.736C45.237 24.736 44.853 24.816 44.533 24.976C44.2237 25.136 43.9837 25.3867 43.813 25.728C43.6423 26.0587 43.5357 26.48 43.493 26.992ZM51.0564 32V23.584H52.4324L52.5764 24.784H52.6884C52.891 24.4747 53.131 24.2187 53.4084 24.016C53.6857 23.8133 53.9897 23.6587 54.3204 23.552C54.6617 23.4453 55.035 23.392 55.4404 23.392C55.9737 23.392 56.443 23.488 56.8484 23.68C57.2537 23.8613 57.5684 24.16 57.7924 24.576C58.027 24.992 58.1444 25.552 58.1444 26.256V32H56.4804V26.512C56.4804 26.192 56.4377 25.9253 56.3524 25.712C56.2777 25.4987 56.1657 25.328 56.0164 25.2C55.867 25.072 55.691 24.9813 55.4884 24.928C55.2857 24.8747 55.0617 24.848 54.8164 24.848C54.4324 24.848 54.0804 24.944 53.7604 25.136C53.451 25.3173 53.2004 25.5733 53.0084 25.904C52.8164 26.2347 52.7204 26.624 52.7204 27.072V32H51.0564ZM62.3243 32.192C61.8443 32.192 61.4656 32.1013 61.1883 31.92C60.9216 31.728 60.7296 31.488 60.6123 31.2C60.5056 30.9013 60.4523 30.5867 60.4523 30.256V24.96H59.3963V23.584H60.4843L60.7883 21.232H62.1163V23.584H63.6363V24.96H62.1163V30.064C62.1163 30.3093 62.1696 30.496 62.2763 30.624C62.3829 30.752 62.5589 30.816 62.8043 30.816H63.6363V31.936C63.5296 31.9787 63.3963 32.016 63.2363 32.048C63.0869 32.0907 62.9323 32.1227 62.7723 32.144C62.6123 32.176 62.4629 32.192 62.3243 32.192ZM68.5913 32.192C67.7273 32.192 67.0019 32.0373 66.4153 31.728C65.8393 31.408 65.4019 30.9227 65.1033 30.272C64.8046 29.6213 64.6553 28.7947 64.6553 27.792C64.6553 26.7787 64.8046 25.952 65.1033 25.312C65.4019 24.6613 65.8446 24.1813 66.4313 23.872C67.0179 23.552 67.7486 23.392 68.6233 23.392C69.4233 23.392 70.0899 23.5467 70.6233 23.856C71.1673 24.1547 71.5779 24.6133 71.8553 25.232C72.1326 25.8507 72.2713 26.6293 72.2713 27.568V28.208H66.3673C66.3886 28.8053 66.4793 29.3067 66.6393 29.712C66.7993 30.1067 67.0393 30.4 67.3593 30.592C67.6899 30.7733 68.1059 30.864 68.6073 30.864C68.9166 30.864 69.1939 30.8267 69.4393 30.752C69.6846 30.6667 69.8926 30.5493 70.0633 30.4C70.2339 30.24 70.3673 30.0533 70.4633 29.84C70.5593 29.616 70.6073 29.3653 70.6073 29.088H72.2393C72.2393 29.5893 72.1539 30.032 71.9833 30.416C71.8126 30.8 71.5619 31.1253 71.2313 31.392C70.9113 31.648 70.5273 31.8453 70.0793 31.984C69.6313 32.1227 69.1353 32.192 68.5913 32.192ZM66.3993 26.992H70.5273C70.5273 26.576 70.4793 26.2293 70.3833 25.952C70.2979 25.664 70.1699 25.4293 69.9993 25.248C69.8286 25.0667 69.6259 24.9387 69.3913 24.864C69.1566 24.7787 68.8899 24.736 68.5913 24.736C68.1433 24.736 67.7593 24.816 67.4393 24.976C67.1299 25.136 66.8899 25.3867 66.7193 25.728C66.5486 26.0587 66.4419 26.48 66.3993 26.992ZM76.8586 32.192C76.176 32.192 75.584 32.0373 75.0826 31.728C74.5813 31.4187 74.192 30.9387 73.9146 30.288C73.648 29.6373 73.5146 28.7947 73.5146 27.76C73.5146 26.7467 73.6533 25.92 73.9306 25.28C74.208 24.64 74.592 24.1653 75.0826 23.856C75.5733 23.5467 76.1386 23.392 76.7786 23.392C77.152 23.392 77.4986 23.4347 77.8186 23.52C78.1386 23.6053 78.4213 23.7387 78.6666 23.92C78.9226 24.1013 79.136 24.3307 79.3066 24.608H79.4186V20.432H81.0826V32H79.7226L79.5626 30.848H79.4506C79.1733 31.296 78.8053 31.632 78.3466 31.856C77.8986 32.08 77.4026 32.192 76.8586 32.192ZM77.3226 30.752C77.8133 30.752 78.208 30.6453 78.5066 30.432C78.816 30.208 79.0453 29.888 79.1946 29.472C79.344 29.0453 79.4186 28.528 79.4186 27.92V27.696C79.4186 27.184 79.3706 26.7467 79.2746 26.384C79.1786 26.0213 79.04 25.728 78.8586 25.504C78.6773 25.2693 78.4586 25.0987 78.2026 24.992C77.9466 24.8853 77.6586 24.832 77.3386 24.832C76.848 24.832 76.448 24.9333 76.1386 25.136C75.8293 25.328 75.6 25.632 75.4506 26.048C75.312 26.464 75.2426 27.0027 75.2426 27.664V27.952C75.2426 28.6133 75.3173 29.152 75.4666 29.568C75.616 29.9733 75.84 30.272 76.1386 30.464C76.448 30.656 76.8426 30.752 77.3226 30.752ZM90.4935 32.192C89.6615 32.192 88.9255 32.0693 88.2855 31.824C87.6562 31.568 87.1602 31.2053 86.7975 30.736C86.4348 30.2667 86.2535 29.7067 86.2535 29.056C86.2535 28.3093 86.4455 27.7173 86.8295 27.28C87.2242 26.8427 87.7148 26.5387 88.3015 26.368V26.304C87.7895 26.0693 87.3628 25.7653 87.0215 25.392C86.6802 25.0187 86.5095 24.5013 86.5095 23.84C86.5095 23.1893 86.6802 22.64 87.0215 22.192C87.3735 21.744 87.8588 21.408 88.4775 21.184C89.1068 20.9493 89.8375 20.832 90.6695 20.832C91.4695 20.832 92.1735 20.9547 92.7815 21.2C93.4002 21.4453 93.8802 21.7973 94.2215 22.256C94.5735 22.704 94.7495 23.232 94.7495 23.84V24.176H93.0855V23.968C93.0748 23.5627 92.9682 23.232 92.7655 22.976C92.5628 22.72 92.2802 22.5333 91.9175 22.416C91.5548 22.288 91.1282 22.224 90.6375 22.224C90.2962 22.224 89.9762 22.2613 89.6775 22.336C89.3788 22.4 89.1175 22.5067 88.8935 22.656C88.6802 22.7947 88.5148 22.976 88.3975 23.2C88.2802 23.424 88.2215 23.6853 88.2215 23.984C88.2215 24.3787 88.3175 24.7093 88.5095 24.976C88.7015 25.232 88.9575 25.424 89.2775 25.552C89.5975 25.68 89.9388 25.744 90.3015 25.744H91.3415V27.104H90.3495C89.9442 27.104 89.5602 27.1573 89.1975 27.264C88.8348 27.36 88.5415 27.5413 88.3175 27.808C88.0935 28.064 87.9815 28.432 87.9815 28.912C87.9815 29.36 88.0882 29.7227 88.3015 30C88.5148 30.2773 88.8135 30.48 89.1975 30.608C89.5922 30.736 90.0508 30.8 90.5735 30.8C91.1388 30.8 91.6028 30.7307 91.9655 30.592C92.3388 30.4533 92.6162 30.24 92.7975 29.952C92.9895 29.664 93.0855 29.312 93.0855 28.896V25.744H96.1575V27.12H94.7495V28.848C94.7495 29.5413 94.5895 30.1387 94.2695 30.64C93.9495 31.1413 93.4748 31.5253 92.8455 31.792C92.2162 32.0587 91.4322 32.192 90.4935 32.192ZM101.374 32V21.024H106.846C107.625 21.024 108.27 21.168 108.782 21.456C109.294 21.744 109.678 22.144 109.934 22.656C110.201 23.1573 110.334 23.7547 110.334 24.448C110.334 25.1413 110.195 25.7547 109.918 26.288C109.641 26.8107 109.235 27.216 108.702 27.504C108.179 27.792 107.539 27.936 106.782 27.936H103.166V32H101.374ZM103.166 26.4H106.702C107.267 26.4 107.71 26.2293 108.03 25.888C108.361 25.5467 108.526 25.072 108.526 24.464C108.526 24.0587 108.457 23.7173 108.318 23.44C108.179 23.152 107.977 22.9333 107.71 22.784C107.443 22.6347 107.107 22.56 106.702 22.56H103.166V26.4ZM113.794 32.192C113.527 32.192 113.239 32.16 112.93 32.096C112.62 32.032 112.327 31.9147 112.05 31.744C111.783 31.5733 111.564 31.3387 111.394 31.04C111.223 30.7307 111.138 30.3307 111.138 29.84C111.138 29.264 111.271 28.7893 111.538 28.416C111.804 28.0427 112.178 27.7493 112.658 27.536C113.138 27.3227 113.708 27.1733 114.37 27.088C115.042 27.0027 115.772 26.96 116.562 26.96V26.128C116.562 25.8507 116.514 25.6053 116.418 25.392C116.332 25.1787 116.167 25.0133 115.922 24.896C115.687 24.7787 115.346 24.72 114.898 24.72C114.45 24.72 114.098 24.7787 113.842 24.896C113.596 25.0027 113.42 25.1413 113.314 25.312C113.218 25.472 113.17 25.648 113.17 25.84V26.08H111.57C111.559 26.0267 111.554 25.9733 111.554 25.92C111.554 25.8667 111.554 25.8027 111.554 25.728C111.554 25.2267 111.692 24.8053 111.97 24.464C112.258 24.112 112.658 23.8453 113.17 23.664C113.682 23.4827 114.274 23.392 114.946 23.392C115.671 23.392 116.274 23.4987 116.754 23.712C117.244 23.9147 117.612 24.208 117.858 24.592C118.103 24.976 118.226 25.44 118.226 25.984V30.256C118.226 30.4587 118.274 30.6027 118.37 30.688C118.476 30.7733 118.599 30.816 118.738 30.816H119.314V31.936C119.186 31.9893 119.026 32.0427 118.834 32.096C118.642 32.1493 118.418 32.176 118.162 32.176C117.874 32.176 117.628 32.1227 117.426 32.016C117.234 31.92 117.074 31.7813 116.946 31.6C116.828 31.408 116.748 31.1947 116.706 30.96H116.61C116.418 31.2053 116.183 31.424 115.906 31.616C115.639 31.7973 115.33 31.936 114.978 32.032C114.626 32.1387 114.231 32.192 113.794 32.192ZM114.258 30.816C114.588 30.816 114.892 30.768 115.17 30.672C115.458 30.5653 115.703 30.4213 115.906 30.24C116.108 30.048 116.268 29.824 116.386 29.568C116.503 29.3013 116.562 29.0133 116.562 28.704V28.144C115.826 28.144 115.18 28.1867 114.626 28.272C114.071 28.3573 113.639 28.5173 113.33 28.752C113.02 28.976 112.866 29.2907 112.866 29.696C112.866 29.9413 112.919 30.1493 113.026 30.32C113.132 30.48 113.292 30.6027 113.506 30.688C113.719 30.7733 113.97 30.816 114.258 30.816ZM123.567 32.192C122.98 32.192 122.463 32.128 122.015 32C121.567 31.872 121.193 31.696 120.895 31.472C120.596 31.248 120.367 30.9813 120.207 30.672C120.057 30.352 119.983 30 119.983 29.616C119.983 29.5627 119.983 29.5147 119.983 29.472C119.993 29.4293 119.999 29.392 119.999 29.36H121.647C121.647 29.392 121.647 29.424 121.647 29.456C121.647 29.4773 121.647 29.504 121.647 29.536C121.647 29.8667 121.737 30.1333 121.919 30.336C122.1 30.528 122.34 30.6667 122.639 30.752C122.948 30.8267 123.284 30.864 123.647 30.864C123.967 30.864 124.26 30.8267 124.527 30.752C124.804 30.6667 125.028 30.544 125.199 30.384C125.38 30.224 125.471 30.0213 125.471 29.776C125.471 29.456 125.359 29.2107 125.135 29.04C124.911 28.8693 124.617 28.736 124.255 28.64C123.892 28.5333 123.513 28.4213 123.119 28.304C122.767 28.208 122.415 28.1067 122.063 28C121.721 27.8827 121.412 27.7333 121.135 27.552C120.857 27.3707 120.633 27.1413 120.463 26.864C120.292 26.5867 120.207 26.24 120.207 25.824C120.207 25.4293 120.292 25.0827 120.463 24.784C120.633 24.4853 120.868 24.2347 121.167 24.032C121.476 23.8293 121.839 23.6747 122.255 23.568C122.681 23.4613 123.145 23.408 123.647 23.408C124.169 23.408 124.633 23.4667 125.039 23.584C125.444 23.6907 125.785 23.8453 126.063 24.048C126.351 24.2507 126.569 24.496 126.719 24.784C126.868 25.0613 126.943 25.36 126.943 25.68C126.943 25.744 126.937 25.8133 126.927 25.888C126.927 25.952 126.927 25.9947 126.927 26.016H125.295V25.872C125.295 25.6587 125.236 25.4667 125.119 25.296C125.001 25.1253 124.815 24.9867 124.559 24.88C124.313 24.7733 123.983 24.72 123.567 24.72C123.289 24.72 123.044 24.7467 122.831 24.8C122.617 24.8427 122.441 24.9067 122.303 24.992C122.164 25.0773 122.057 25.1787 121.983 25.296C121.919 25.4133 121.887 25.5467 121.887 25.696C121.887 25.9413 121.972 26.1333 122.143 26.272C122.324 26.4 122.559 26.512 122.847 26.608C123.135 26.6933 123.444 26.7893 123.775 26.896C124.159 27.0027 124.548 27.1147 124.943 27.232C125.337 27.3387 125.7 27.4773 126.031 27.648C126.372 27.8187 126.644 28.0533 126.847 28.352C127.06 28.6507 127.167 29.0507 127.167 29.552C127.167 30.0107 127.076 30.4107 126.895 30.752C126.713 31.0933 126.457 31.3707 126.127 31.584C125.807 31.7867 125.428 31.936 124.991 32.032C124.553 32.1387 124.079 32.192 123.567 32.192ZM131.957 32.192C131.371 32.192 130.853 32.128 130.405 32C129.957 31.872 129.584 31.696 129.285 31.472C128.987 31.248 128.757 30.9813 128.597 30.672C128.448 30.352 128.373 30 128.373 29.616C128.373 29.5627 128.373 29.5147 128.373 29.472C128.384 29.4293 128.389 29.392 128.389 29.36H130.037C130.037 29.392 130.037 29.424 130.037 29.456C130.037 29.4773 130.037 29.504 130.037 29.536C130.037 29.8667 130.128 30.1333 130.309 30.336C130.491 30.528 130.731 30.6667 131.029 30.752C131.339 30.8267 131.675 30.864 132.037 30.864C132.357 30.864 132.651 30.8267 132.917 30.752C133.195 30.6667 133.419 30.544 133.589 30.384C133.771 30.224 133.861 30.0213 133.861 29.776C133.861 29.456 133.749 29.2107 133.525 29.04C133.301 28.8693 133.008 28.736 132.645 28.64C132.283 28.5333 131.904 28.4213 131.509 28.304C131.157 28.208 130.805 28.1067 130.453 28C130.112 27.8827 129.803 27.7333 129.525 27.552C129.248 27.3707 129.024 27.1413 128.853 26.864C128.683 26.5867 128.597 26.24 128.597 25.824C128.597 25.4293 128.683 25.0827 128.853 24.784C129.024 24.4853 129.259 24.2347 129.557 24.032C129.867 23.8293 130.229 23.6747 130.645 23.568C131.072 23.4613 131.536 23.408 132.037 23.408C132.56 23.408 133.024 23.4667 133.429 23.584C133.835 23.6907 134.176 23.8453 134.453 24.048C134.741 24.2507 134.96 24.496 135.109 24.784C135.259 25.0613 135.333 25.36 135.333 25.68C135.333 25.744 135.328 25.8133 135.317 25.888C135.317 25.952 135.317 25.9947 135.317 26.016H133.685V25.872C133.685 25.6587 133.627 25.4667 133.509 25.296C133.392 25.1253 133.205 24.9867 132.949 24.88C132.704 24.7733 132.373 24.72 131.957 24.72C131.68 24.72 131.435 24.7467 131.221 24.8C131.008 24.8427 130.832 24.9067 130.693 24.992C130.555 25.0773 130.448 25.1787 130.373 25.296C130.309 25.4133 130.277 25.5467 130.277 25.696C130.277 25.9413 130.363 26.1333 130.533 26.272C130.715 26.4 130.949 26.512 131.237 26.608C131.525 26.6933 131.835 26.7893 132.165 26.896C132.549 27.0027 132.939 27.1147 133.333 27.232C133.728 27.3387 134.091 27.4773 134.421 27.648C134.763 27.8187 135.035 28.0533 135.237 28.352C135.451 28.6507 135.557 29.0507 135.557 29.552C135.557 30.0107 135.467 30.4107 135.285 30.752C135.104 31.0933 134.848 31.3707 134.517 31.584C134.197 31.7867 133.819 31.936 133.381 32.032C132.944 32.1387 132.469 32.192 131.957 32.192ZM137.244 22.128V20.432H138.908V22.128H137.244ZM137.244 32V23.584H138.908V32H137.244ZM144.64 32.192C143.766 32.192 143.024 32.0373 142.416 31.728C141.819 31.408 141.366 30.9227 141.056 30.272C140.758 29.6213 140.608 28.7947 140.608 27.792C140.608 26.7787 140.758 25.952 141.056 25.312C141.366 24.6613 141.819 24.1813 142.416 23.872C143.024 23.552 143.766 23.392 144.64 23.392C145.536 23.392 146.283 23.552 146.88 23.872C147.478 24.1813 147.926 24.6613 148.224 25.312C148.534 25.952 148.688 26.7787 148.688 27.792C148.688 28.7947 148.534 29.6213 148.224 30.272C147.926 30.9227 147.478 31.408 146.88 31.728C146.283 32.0373 145.536 32.192 144.64 32.192ZM144.64 30.816C145.174 30.816 145.611 30.7147 145.952 30.512C146.294 30.2987 146.544 29.9787 146.704 29.552C146.875 29.1253 146.96 28.5867 146.96 27.936V27.648C146.96 26.9973 146.875 26.4587 146.704 26.032C146.544 25.6053 146.294 25.2907 145.952 25.088C145.611 24.8747 145.174 24.768 144.64 24.768C144.118 24.768 143.686 24.8747 143.344 25.088C143.003 25.2907 142.747 25.6053 142.576 26.032C142.416 26.4587 142.336 26.9973 142.336 27.648V27.936C142.336 28.5867 142.416 29.1253 142.576 29.552C142.747 29.9787 143.003 30.2987 143.344 30.512C143.686 30.7147 144.118 30.816 144.64 30.816ZM150.385 32V23.584H151.761L151.905 24.784H152.017C152.219 24.4747 152.459 24.2187 152.737 24.016C153.014 23.8133 153.318 23.6587 153.649 23.552C153.99 23.4453 154.363 23.392 154.769 23.392C155.302 23.392 155.771 23.488 156.177 23.68C156.582 23.8613 156.897 24.16 157.121 24.576C157.355 24.992 157.473 25.552 157.473 26.256V32H155.809V26.512C155.809 26.192 155.766 25.9253 155.681 25.712C155.606 25.4987 155.494 25.328 155.345 25.2C155.195 25.072 155.019 24.9813 154.817 24.928C154.614 24.8747 154.39 24.848 154.145 24.848C153.761 24.848 153.409 24.944 153.089 25.136C152.779 25.3173 152.529 25.5733 152.337 25.904C152.145 26.2347 152.049 26.624 152.049 27.072V32H150.385ZM161.684 32.192C161.418 32.192 161.13 32.16 160.82 32.096C160.511 32.032 160.218 31.9147 159.94 31.744C159.674 31.5733 159.455 31.3387 159.284 31.04C159.114 30.7307 159.028 30.3307 159.028 29.84C159.028 29.264 159.162 28.7893 159.428 28.416C159.695 28.0427 160.068 27.7493 160.548 27.536C161.028 27.3227 161.599 27.1733 162.26 27.088C162.932 27.0027 163.663 26.96 164.452 26.96V26.128C164.452 25.8507 164.404 25.6053 164.308 25.392C164.223 25.1787 164.058 25.0133 163.812 24.896C163.578 24.7787 163.236 24.72 162.788 24.72C162.34 24.72 161.988 24.7787 161.732 24.896C161.487 25.0027 161.311 25.1413 161.204 25.312C161.108 25.472 161.06 25.648 161.06 25.84V26.08H159.46C159.45 26.0267 159.444 25.9733 159.444 25.92C159.444 25.8667 159.444 25.8027 159.444 25.728C159.444 25.2267 159.583 24.8053 159.86 24.464C160.148 24.112 160.548 23.8453 161.06 23.664C161.572 23.4827 162.164 23.392 162.836 23.392C163.562 23.392 164.164 23.4987 164.644 23.712C165.135 23.9147 165.503 24.208 165.748 24.592C165.994 24.976 166.116 25.44 166.116 25.984V30.256C166.116 30.4587 166.164 30.6027 166.26 30.688C166.367 30.7733 166.49 30.816 166.628 30.816H167.204V31.936C167.076 31.9893 166.916 32.0427 166.724 32.096C166.532 32.1493 166.308 32.176 166.052 32.176C165.764 32.176 165.519 32.1227 165.316 32.016C165.124 31.92 164.964 31.7813 164.836 31.6C164.719 31.408 164.639 31.1947 164.596 30.96H164.5C164.308 31.2053 164.074 31.424 163.796 31.616C163.53 31.7973 163.22 31.936 162.868 32.032C162.516 32.1387 162.122 32.192 161.684 32.192ZM162.148 30.816C162.479 30.816 162.783 30.768 163.06 30.672C163.348 30.5653 163.594 30.4213 163.796 30.24C163.999 30.048 164.159 29.824 164.276 29.568C164.394 29.3013 164.452 29.0133 164.452 28.704V28.144C163.716 28.144 163.071 28.1867 162.516 28.272C161.962 28.3573 161.53 28.5173 161.22 28.752C160.911 28.976 160.756 29.2907 160.756 29.696C160.756 29.9413 160.81 30.1493 160.916 30.32C161.023 30.48 161.183 30.6027 161.396 30.688C161.61 30.7733 161.86 30.816 162.148 30.816ZM170.449 32.192C169.969 32.192 169.591 32.1013 169.313 31.92C169.047 31.728 168.855 31.488 168.737 31.2C168.631 30.9013 168.577 30.5867 168.577 30.256V24.96H167.521V23.584H168.609L168.913 21.232H170.241V23.584H171.761V24.96H170.241V30.064C170.241 30.3093 170.295 30.496 170.401 30.624C170.508 30.752 170.684 30.816 170.929 30.816H171.761V31.936C171.655 31.9787 171.521 32.016 171.361 32.048C171.212 32.0907 171.057 32.1227 170.897 32.144C170.737 32.176 170.588 32.192 170.449 32.192ZM176.716 32.192C175.852 32.192 175.127 32.0373 174.54 31.728C173.964 31.408 173.527 30.9227 173.228 30.272C172.93 29.6213 172.78 28.7947 172.78 27.792C172.78 26.7787 172.93 25.952 173.228 25.312C173.527 24.6613 173.97 24.1813 174.556 23.872C175.143 23.552 175.874 23.392 176.748 23.392C177.548 23.392 178.215 23.5467 178.748 23.856C179.292 24.1547 179.703 24.6133 179.98 25.232C180.258 25.8507 180.396 26.6293 180.396 27.568V28.208H174.492C174.514 28.8053 174.604 29.3067 174.764 29.712C174.924 30.1067 175.164 30.4 175.484 30.592C175.815 30.7733 176.231 30.864 176.732 30.864C177.042 30.864 177.319 30.8267 177.564 30.752C177.81 30.6667 178.018 30.5493 178.188 30.4C178.359 30.24 178.492 30.0533 178.588 29.84C178.684 29.616 178.732 29.3653 178.732 29.088H180.364C180.364 29.5893 180.279 30.032 180.108 30.416C179.938 30.8 179.687 31.1253 179.356 31.392C179.036 31.648 178.652 31.8453 178.204 31.984C177.756 32.1227 177.26 32.192 176.716 32.192ZM174.524 26.992H178.652C178.652 26.576 178.604 26.2293 178.508 25.952C178.423 25.664 178.295 25.4293 178.124 25.248C177.954 25.0667 177.751 24.9387 177.516 24.864C177.282 24.7787 177.015 24.736 176.716 24.736C176.268 24.736 175.884 24.816 175.564 24.976C175.255 25.136 175.015 25.3867 174.844 25.728C174.674 26.0587 174.567 26.48 174.524 26.992ZM187.465 32.192C186.985 32.192 186.606 32.1013 186.329 31.92C186.062 31.728 185.87 31.488 185.753 31.2C185.646 30.9013 185.593 30.5867 185.593 30.256V24.96H184.537V23.584H185.625L185.929 21.232H187.257V23.584H188.777V24.96H187.257V30.064C187.257 30.3093 187.31 30.496 187.417 30.624C187.524 30.752 187.7 30.816 187.945 30.816H188.777V31.936C188.67 31.9787 188.537 32.016 188.377 32.048C188.228 32.0907 188.073 32.1227 187.913 32.144C187.753 32.176 187.604 32.192 187.465 32.192ZM193.732 32.192C192.868 32.192 192.143 32.0373 191.556 31.728C190.98 31.408 190.543 30.9227 190.244 30.272C189.945 29.6213 189.796 28.7947 189.796 27.792C189.796 26.7787 189.945 25.952 190.244 25.312C190.543 24.6613 190.985 24.1813 191.572 23.872C192.159 23.552 192.889 23.392 193.764 23.392C194.564 23.392 195.231 23.5467 195.764 23.856C196.308 24.1547 196.719 24.6133 196.996 25.232C197.273 25.8507 197.412 26.6293 197.412 27.568V28.208H191.508C191.529 28.8053 191.62 29.3067 191.78 29.712C191.94 30.1067 192.18 30.4 192.5 30.592C192.831 30.7733 193.247 30.864 193.748 30.864C194.057 30.864 194.335 30.8267 194.58 30.752C194.825 30.6667 195.033 30.5493 195.204 30.4C195.375 30.24 195.508 30.0533 195.604 29.84C195.7 29.616 195.748 29.3653 195.748 29.088H197.38C197.38 29.5893 197.295 30.032 197.124 30.416C196.953 30.8 196.703 31.1253 196.372 31.392C196.052 31.648 195.668 31.8453 195.22 31.984C194.772 32.1227 194.276 32.192 193.732 32.192ZM191.54 26.992H195.668C195.668 26.576 195.62 26.2293 195.524 25.952C195.439 25.664 195.311 25.4293 195.14 25.248C194.969 25.0667 194.767 24.9387 194.532 24.864C194.297 24.7787 194.031 24.736 193.732 24.736C193.284 24.736 192.9 24.816 192.58 24.976C192.271 25.136 192.031 25.3867 191.86 25.728C191.689 26.0587 191.583 26.48 191.54 26.992ZM201.231 32.192C200.965 32.192 200.677 32.16 200.367 32.096C200.058 32.032 199.765 31.9147 199.487 31.744C199.221 31.5733 199.002 31.3387 198.831 31.04C198.661 30.7307 198.575 30.3307 198.575 29.84C198.575 29.264 198.709 28.7893 198.975 28.416C199.242 28.0427 199.615 27.7493 200.095 27.536C200.575 27.3227 201.146 27.1733 201.807 27.088C202.479 27.0027 203.21 26.96 203.999 26.96V26.128C203.999 25.8507 203.951 25.6053 203.855 25.392C203.77 25.1787 203.605 25.0133 203.359 24.896C203.125 24.7787 202.783 24.72 202.335 24.72C201.887 24.72 201.535 24.7787 201.279 24.896C201.034 25.0027 200.858 25.1413 200.751 25.312C200.655 25.472 200.607 25.648 200.607 25.84V26.08H199.007C198.997 26.0267 198.991 25.9733 198.991 25.92C198.991 25.8667 198.991 25.8027 198.991 25.728C198.991 25.2267 199.13 24.8053 199.407 24.464C199.695 24.112 200.095 23.8453 200.607 23.664C201.119 23.4827 201.711 23.392 202.383 23.392C203.109 23.392 203.711 23.4987 204.191 23.712C204.682 23.9147 205.05 24.208 205.295 24.592C205.541 24.976 205.663 25.44 205.663 25.984V30.256C205.663 30.4587 205.711 30.6027 205.807 30.688C205.914 30.7733 206.037 30.816 206.175 30.816H206.751V31.936C206.623 31.9893 206.463 32.0427 206.271 32.096C206.079 32.1493 205.855 32.176 205.599 32.176C205.311 32.176 205.066 32.1227 204.863 32.016C204.671 31.92 204.511 31.7813 204.383 31.6C204.266 31.408 204.186 31.1947 204.143 30.96H204.047C203.855 31.2053 203.621 31.424 203.343 31.616C203.077 31.7973 202.767 31.936 202.415 32.032C202.063 32.1387 201.669 32.192 201.231 32.192ZM201.695 30.816C202.026 30.816 202.33 30.768 202.607 30.672C202.895 30.5653 203.141 30.4213 203.343 30.24C203.546 30.048 203.706 29.824 203.823 29.568C203.941 29.3013 203.999 29.0133 203.999 28.704V28.144C203.263 28.144 202.618 28.1867 202.063 28.272C201.509 28.3573 201.077 28.5173 200.767 28.752C200.458 28.976 200.303 29.2907 200.303 29.696C200.303 29.9413 200.357 30.1493 200.463 30.32C200.57 30.48 200.73 30.6027 200.943 30.688C201.157 30.7733 201.407 30.816 201.695 30.816ZM207.9 32V23.584H209.276L209.42 24.784H209.532C209.724 24.4747 209.943 24.2187 210.188 24.016C210.444 23.8133 210.727 23.6587 211.036 23.552C211.356 23.4453 211.697 23.392 212.06 23.392C212.583 23.392 213.036 23.4987 213.42 23.712C213.815 23.9253 214.113 24.2827 214.316 24.784H214.428C214.62 24.4853 214.844 24.2347 215.1 24.032C215.356 23.8187 215.644 23.6587 215.964 23.552C216.295 23.4453 216.647 23.392 217.02 23.392C217.521 23.392 217.964 23.4827 218.348 23.664C218.732 23.8347 219.036 24.128 219.26 24.544C219.484 24.9493 219.596 25.4933 219.596 26.176V32H217.932V26.48C217.932 26.16 217.895 25.8987 217.82 25.696C217.745 25.4827 217.644 25.3173 217.516 25.2C217.388 25.072 217.233 24.9813 217.052 24.928C216.871 24.8747 216.673 24.848 216.46 24.848C216.108 24.848 215.793 24.944 215.516 25.136C215.239 25.3173 215.015 25.5733 214.844 25.904C214.673 26.2347 214.588 26.624 214.588 27.072V32H212.924V26.48C212.924 26.16 212.887 25.8987 212.812 25.696C212.737 25.4827 212.636 25.3173 212.508 25.2C212.38 25.072 212.225 24.9813 212.044 24.928C211.863 24.8747 211.671 24.848 211.468 24.848C211.116 24.848 210.796 24.944 210.508 25.136C210.22 25.3173 209.991 25.5733 209.82 25.904C209.649 26.2347 209.564 26.624 209.564 27.072V32H207.9Z" fill="#9F9F9F"/>
</svg>
