<svg width="49" height="49" viewBox="0 0 49 49" fill="none" xmlns="http://www.w3.org/2000/svg">
<rect x="0.5" y="0.5" width="48" height="48" rx="7.5" fill="#FFEAFE" stroke="#F5A9F2"/>
<path d="M34.3905 27.0797C34.3047 28.7994 32.7994 30.1095 31.0796 30.1095H25.2297C22.2475 30.1095 19.1605 30.1047 18.4936 30.1047C18.4079 30.1095 18.3173 30.1142 18.2268 30.1142C16.0069 30.1142 14.2109 28.3135 14.2109 26.0983C14.2109 24.8836 14.754 23.7926 15.6067 23.059C15.602 23.1257 15.602 23.1876 15.602 23.2543C15.602 24.0642 15.783 24.8407 16.1355 25.56L16.993 25.1408C16.7024 24.5501 16.5547 23.9165 16.5547 23.2543C16.5547 22.9685 16.5833 22.6874 16.6405 22.4111C17.0692 19.9149 19.232 18.0618 21.8045 18.0618C22.9859 18.0618 24.1244 18.4667 25.0391 19.186C24.3722 19.591 23.8243 20.1912 23.4909 20.9296L24.3579 21.325C24.6532 20.6866 25.1534 20.1769 25.7632 19.872C25.7965 19.853 25.8299 19.8339 25.8632 19.8196C26.2586 19.5862 26.6921 19.429 27.1399 19.3575C27.3686 19.3099 27.602 19.2908 27.8402 19.2908C29.8839 19.2908 31.5798 20.8295 31.8228 22.8113C30.8414 22.7541 29.8506 23.1638 29.2027 23.926L29.922 24.5453C30.1316 24.3024 30.3889 24.1071 30.6747 23.9737C31.4179 23.6211 32.2896 23.7831 32.9756 24.2357C33.8807 24.8407 34.4524 25.8887 34.3905 27.0797Z" fill="#F593F2"/>
<path d="M15.8446 18.4617C15.6397 18.7046 15.4587 18.9667 15.292 19.243L13.7533 18.3616C13.3436 18.8333 12.7338 19.1334 12.0621 19.1334C10.8235 19.1334 9.81836 18.1282 9.81836 16.8944C9.81836 15.6558 10.8235 14.6506 12.0621 14.6506C13.2959 14.6506 14.3059 15.6558 14.3059 16.8944C14.3059 17.1183 14.2725 17.3279 14.2154 17.5327L15.8446 18.4617Z" fill="#F593F2"/>
<path d="M26.265 12.131C26.265 13.1981 25.5123 14.0984 24.5024 14.3176V17.8809C24.1975 17.7094 23.8783 17.5665 23.5496 17.4522V14.3176C22.5397 14.0984 21.7822 13.2028 21.7822 12.131C21.7822 10.8924 22.7874 9.88721 24.026 9.88721C25.2598 9.88721 26.265 10.8876 26.265 12.131Z" fill="#F593F2"/>
<path d="M26.265 38.6301C26.265 39.8687 25.2598 40.8739 24.026 40.8739C22.7874 40.8739 21.7822 39.8687 21.7822 38.6301C21.7822 37.5582 22.5397 36.6579 23.5496 36.4387V32.823H24.5024V36.4387C25.5123 36.6579 26.265 37.563 26.265 38.6301Z" fill="#F593F2"/>
<path d="M12.7483 31.6625C12.8483 31.9102 12.9007 32.1818 12.9007 32.4676C12.9007 33.7062 11.8956 34.7113 10.657 34.7113C9.42313 34.7113 8.41797 33.7062 8.41797 32.4676C8.41797 31.2338 9.42313 30.2286 10.657 30.2286C11.2667 30.2286 11.8193 30.4715 12.2195 30.8669L13.5248 30.1143C13.7296 30.3715 13.9583 30.6049 14.2108 30.8145L12.7483 31.6625Z" fill="#F593F2"/>
<path d="M40.8833 32.42C40.8833 33.6586 39.8782 34.6638 38.6396 34.6638C37.401 34.6638 36.3958 33.6586 36.3958 32.42C36.3958 32.1294 36.453 31.8531 36.553 31.5959L35 30.7098C35.2525 30.4954 35.4811 30.262 35.6765 30L37.0866 30.8051C37.4867 30.4145 38.0346 30.1763 38.6396 30.1763C39.8782 30.1715 40.8833 31.1814 40.8833 32.42Z" fill="#F593F2"/>
<path d="M38.377 16.7611C38.377 17.9949 37.3719 19.0001 36.1333 19.0001C35.4949 19.0001 34.9185 18.7333 34.5088 18.2998L32.8748 19.2431C32.6747 18.9811 32.4508 18.7476 32.2031 18.5333L34.0134 17.4852C33.9372 17.2565 33.8943 17.0136 33.8943 16.7611C33.8943 15.5225 34.8994 14.5174 36.1333 14.5174C37.3719 14.5126 38.377 15.5178 38.377 16.7611Z" fill="#F593F2"/>
</svg>
