<svg width="475" height="214" viewBox="0 0 475 214" fill="none" xmlns="http://www.w3.org/2000/svg">
<path d="M242.603 158.983L231.104 194.757C229.789 198.844 231.761 203.291 235.598 204.894L255.895 213.374H188.644C182.118 213.374 177.516 206.697 179.597 200.245L192.91 158.938L242.604 158.983H242.603Z" fill="white"/>
<path d="M255.894 213.653H188.643C185.543 213.653 182.691 212.178 180.818 209.608C178.85 206.906 178.294 203.374 179.33 200.159L192.643 158.853C192.68 158.737 192.788 158.659 192.908 158.659L242.603 158.703C242.692 158.703 242.775 158.746 242.828 158.817C242.88 158.889 242.896 158.982 242.869 159.067L231.37 194.841C230.101 198.787 232.005 203.09 235.706 204.636L256.003 213.116C256.126 213.166 256.194 213.297 256.169 213.427C256.142 213.558 256.028 213.651 255.895 213.651L255.894 213.653ZM193.11 159.217L179.86 200.33C178.879 203.375 179.406 206.721 181.269 209.28C183.035 211.704 185.723 213.095 188.643 213.095H254.505L235.489 205.151C231.524 203.495 229.481 198.892 230.838 194.672L242.221 159.262L193.112 159.217H193.11Z" fill="black"/>
<path d="M192.287 213.651C189.188 213.651 186.337 212.178 184.464 209.606C182.496 206.903 181.94 203.372 182.976 200.158L196.282 158.872C196.328 158.725 196.487 158.645 196.632 158.692C196.779 158.739 196.859 158.896 196.812 159.042L183.506 200.329C182.525 203.374 183.052 206.72 184.915 209.278C186.681 211.703 189.369 213.094 192.289 213.094C192.443 213.094 192.567 213.218 192.567 213.373C192.567 213.527 192.443 213.651 192.289 213.651H192.287Z" fill="black"/>
<path d="M334.177 162.969H125.472C122.568 162.969 120.139 160.966 119.857 158.34L105.754 26.1161C105.432 23.1055 108.038 20.5 111.369 20.5H320.072C322.976 20.5 325.406 22.5029 325.687 25.1286L339.79 157.352C340.112 160.363 337.506 162.969 334.176 162.969H334.177Z" fill="white"/>
<path d="M334.178 163.247H125.473C122.411 163.247 119.879 161.15 119.582 158.369L105.479 26.1464C105.326 24.7133 105.793 23.3105 106.793 22.1989C107.922 20.943 109.591 20.2227 111.371 20.2227H320.074C323.137 20.2227 325.669 22.3192 325.965 25.1007L340.068 157.325C340.222 158.758 339.756 160.16 338.756 161.272C337.626 162.528 335.958 163.248 334.178 163.248V163.247ZM111.37 20.7784C109.748 20.7784 108.23 21.4317 107.206 22.5711C106.313 23.5637 105.895 24.8133 106.032 26.0869L120.137 158.311C120.403 160.807 122.698 162.69 125.474 162.69H334.178C335.799 162.69 337.317 162.037 338.342 160.897C339.234 159.905 339.652 158.655 339.515 157.381L325.412 25.1576C325.146 22.661 322.85 20.7784 320.074 20.7784H111.37Z" fill="black"/>
<path d="M328.962 145.373C329.196 147.466 327.558 149.297 325.452 149.297H132.964C131.166 149.297 129.654 147.945 129.454 146.157L117.326 37.5464C117.092 35.4536 118.73 33.6227 120.836 33.6227H313.324C315.123 33.6227 316.634 34.9747 316.834 36.7625L328.962 145.373Z" fill="white"/>
<path fill-rule="evenodd" clip-rule="evenodd" d="M132.964 148.732H325.452C327.221 148.732 328.597 147.194 328.401 145.436L316.272 36.8252C316.105 35.3235 314.835 34.1878 313.324 34.1878H120.836C119.067 34.1878 117.691 35.7258 117.888 37.4837L130.016 146.095C130.184 147.596 131.453 148.732 132.964 148.732ZM325.452 149.297C327.558 149.297 329.196 147.466 328.962 145.373L316.834 36.7625C316.634 34.9747 315.123 33.6227 313.324 33.6227H120.836C118.73 33.6227 117.092 35.4536 117.326 37.5464L129.454 146.157C129.654 147.945 131.166 149.297 132.964 149.297H325.452Z" fill="black"/>
<path d="M214.867 30.3559C213.039 30.3559 211.551 28.9456 211.551 27.2111C211.551 25.4766 213.039 24.0663 214.867 24.0663C216.695 24.0663 218.183 25.4766 218.183 27.2111C218.183 28.9456 216.695 30.3559 214.867 30.3559ZM214.867 24.6233C213.346 24.6233 212.108 25.7843 212.108 27.2111C212.108 28.6379 213.345 29.7989 214.867 29.7989C216.389 29.7989 217.626 28.6379 217.626 27.2111C217.626 25.7843 216.387 24.6233 214.867 24.6233Z" fill="black"/>
<path d="M146.162 125.616H186.637C188.098 125.616 189.171 124.42 189.021 122.959L180.974 44.8603C180.823 43.3993 179.504 42.2029 178.043 42.2029H137.568C136.107 42.2029 135.033 43.3993 135.184 44.8603L143.231 122.959C143.382 124.42 144.701 125.616 146.162 125.616Z" fill="white"/>
<path d="M186.636 125.895H146.161C144.557 125.895 143.118 124.591 142.953 122.988L134.908 44.8895C134.827 44.1008 135.062 43.3563 135.57 42.7929C136.075 42.2334 136.785 41.9257 137.569 41.9257H178.043C179.647 41.9257 181.086 43.2297 181.251 44.8325L189.296 122.931C189.377 123.72 189.142 124.464 188.634 125.028C188.129 125.587 187.419 125.895 186.635 125.895H186.636ZM137.568 42.4815C136.944 42.4815 136.38 42.7246 135.983 43.1652C135.581 43.6095 135.396 44.202 135.461 44.8313L143.507 122.93C143.643 124.258 144.833 125.338 146.161 125.338H186.636C187.26 125.338 187.824 125.095 188.221 124.654C188.623 124.21 188.808 123.617 188.743 122.988L180.697 44.8895C180.561 43.5627 179.371 42.4815 178.043 42.4815H137.569H137.568Z" fill="black"/>
<path d="M148.077 120.655H183.698C184.803 120.655 185.615 119.751 185.501 118.645L178.167 47.4587C178.053 46.3535 177.055 45.4482 175.95 45.4482H140.329C139.224 45.4482 138.412 46.3522 138.526 47.4587L145.86 118.645C145.974 119.75 146.972 120.655 148.077 120.655Z" fill="white"/>
<path d="M183.699 120.934H148.078C146.831 120.934 145.713 119.92 145.584 118.674L138.25 47.488C138.187 46.8714 138.37 46.2903 138.768 45.8497C139.163 45.4117 139.717 45.1711 140.33 45.1711H175.951C177.198 45.1711 178.316 46.1852 178.445 47.431L185.779 118.617C185.843 119.234 185.659 119.815 185.261 120.255C184.866 120.693 184.312 120.934 183.699 120.934ZM140.329 45.7282C139.876 45.7282 139.468 45.9042 139.181 46.2232C138.891 46.5448 138.756 46.974 138.803 47.431L146.137 118.617C146.237 119.588 147.107 120.377 148.077 120.377H183.698C184.151 120.377 184.559 120.201 184.846 119.882C185.136 119.56 185.27 119.131 185.223 118.674L177.889 47.488C177.789 46.5169 176.92 45.7282 175.95 45.7282H140.329Z" fill="black"/>
<path d="M162.827 49.5745H153.727C153.572 49.5745 153.448 49.4504 153.448 49.296C153.448 49.1415 153.572 49.0175 153.727 49.0175H162.827C162.981 49.0175 163.105 49.1415 163.105 49.296C163.105 49.4504 162.981 49.5745 162.827 49.5745Z" fill="black"/>
<path d="M179.495 98.0459H147.621L143.604 59.0535H175.478L179.495 98.0459Z" fill="white"/>
<path d="M179.496 98.3241H147.621C147.478 98.3241 147.359 98.2165 147.344 98.0747L143.327 59.0823C143.319 59.0038 143.344 58.9253 143.397 58.8671C143.451 58.8088 143.525 58.7747 143.604 58.7747H175.48C175.623 58.7747 175.742 58.8823 175.757 59.0241L179.774 98.0164C179.782 98.0949 179.756 98.1734 179.703 98.2317C179.65 98.2899 179.575 98.3241 179.497 98.3241H179.496ZM147.872 97.767H179.187L175.227 59.3317H143.911L147.872 97.767Z" fill="black"/>
<path d="M161.718 55.1411H143.172C143.017 55.1411 142.893 55.017 142.893 54.8626C142.893 54.7081 143.017 54.584 143.172 54.584H161.718C161.872 54.584 161.996 54.7081 161.996 54.8626C161.996 55.017 161.872 55.1411 161.718 55.1411Z" fill="black"/>
<path d="M179.175 101.044H171.83C171.676 101.044 171.552 100.92 171.552 100.766C171.552 100.611 171.676 100.487 171.83 100.487H179.175C179.329 100.487 179.453 100.611 179.453 100.766C179.453 100.92 179.329 101.044 179.175 101.044Z" fill="black"/>
<path d="M175.48 111.513C175.234 109.134 173.108 107.205 170.727 107.205H158.279C155.898 107.205 154.168 109.134 154.413 111.513C154.659 113.892 156.786 115.822 159.166 115.822H171.615C173.995 115.822 175.726 113.892 175.48 111.513Z" fill="#F5A9F1"/>
<path d="M267.504 126.353H307.978C309.439 126.353 310.513 125.157 310.362 123.696L302.315 45.5969C302.165 44.1359 300.846 42.9395 299.385 42.9395H258.91C257.449 42.9395 256.375 44.1359 256.526 45.5969L264.573 123.696C264.723 125.157 266.043 126.353 267.504 126.353Z" fill="white"/>
<path d="M307.977 126.632H267.502C265.898 126.632 264.459 125.328 264.294 123.725L256.247 45.6262C256.166 44.8374 256.402 44.093 256.909 43.5296C257.414 42.9701 258.125 42.6624 258.908 42.6624H299.383C300.987 42.6624 302.425 43.9664 302.591 45.5692L310.638 123.668C310.719 124.457 310.484 125.202 309.976 125.764C309.471 126.324 308.762 126.632 307.978 126.632H307.977ZM258.91 43.2182C258.285 43.2182 257.722 43.4613 257.324 43.9019C256.923 44.3462 256.738 44.9387 256.803 45.5679L264.85 123.667C264.986 124.995 266.177 126.075 267.503 126.075H307.978C308.602 126.075 309.166 125.832 309.563 125.391C309.965 124.947 310.149 124.354 310.085 123.724L302.038 45.6249C301.901 44.2981 300.711 43.2169 299.384 43.2169H258.91V43.2182Z" fill="black"/>
<path d="M269.42 121.392H305.041C306.146 121.392 306.958 120.488 306.844 119.382L299.51 48.1956C299.396 47.0904 298.398 46.1852 297.293 46.1852H261.672C260.567 46.1852 259.755 47.0891 259.869 48.1956L267.203 119.382C267.317 120.487 268.315 121.392 269.42 121.392Z" fill="white"/>
<path d="M305.04 121.671H269.42C268.172 121.671 267.055 120.656 266.925 119.411L259.591 48.2245C259.528 47.608 259.712 47.0269 260.109 46.5863C260.504 46.1483 261.059 45.9077 261.67 45.9077H297.291C298.538 45.9077 299.656 46.9218 299.785 48.1676L307.119 119.354C307.183 119.97 306.999 120.551 306.601 120.992C306.206 121.43 305.652 121.671 305.039 121.671H305.04ZM261.67 46.4635C261.218 46.4635 260.809 46.6395 260.522 46.9585C260.232 47.2801 260.098 47.7093 260.145 48.1663L267.479 119.352C267.579 120.324 268.448 121.112 269.418 121.112H305.039C305.492 121.112 305.9 120.936 306.187 120.617C306.477 120.296 306.612 119.866 306.565 119.409L299.231 48.2233C299.131 47.2522 298.261 46.4635 297.291 46.4635H261.67Z" fill="black"/>
<path d="M284.168 50.3124H275.068C274.913 50.3124 274.789 50.1884 274.789 50.0339C274.789 49.8794 274.913 49.7554 275.068 49.7554H284.168C284.322 49.7554 284.446 49.8794 284.446 50.0339C284.446 50.1884 284.322 50.3124 284.168 50.3124Z" fill="black"/>
<path d="M296.82 112.251C296.575 109.87 294.448 107.942 292.068 107.942H279.619C277.239 107.942 275.508 109.872 275.754 112.251C275.999 114.629 278.126 116.559 280.506 116.559H292.955C295.335 116.559 297.066 114.629 296.82 112.251Z" fill="#F5A9F1"/>
<path d="M279.805 67.8046H267.601L266.344 55.6014H278.547L279.805 67.8046Z" fill="#F5A9F1"/>
<path d="M295.815 67.8046H283.612L282.354 55.6014H294.558L295.815 67.8046Z" fill="#F5A9F1"/>
<path d="M281.395 83.2394H269.192L267.935 71.0362H280.138L281.395 83.2394Z" fill="#F5A9F1"/>
<path d="M297.405 83.2394H285.203L283.945 71.0362H296.148L297.405 83.2394Z" fill="#F5A9F1"/>
<path d="M298.235 91.5801H270.021C269.867 91.5801 269.743 91.456 269.743 91.3015C269.743 91.1471 269.867 91.023 270.021 91.023H298.235C298.389 91.023 298.513 91.1471 298.513 91.3015C298.513 91.456 298.389 91.5801 298.235 91.5801Z" fill="black"/>
<path d="M282.817 97.3277H270.615C270.461 97.3277 270.336 97.2036 270.336 97.0492C270.336 96.8947 270.461 96.7706 270.615 96.7706H282.817C282.971 96.7706 283.095 96.8947 283.095 97.0492C283.095 97.2036 282.971 97.3277 282.817 97.3277Z" fill="black"/>
<path d="M287.216 103.076H271.206C271.052 103.076 270.928 102.952 270.928 102.797C270.928 102.643 271.052 102.519 271.206 102.519H287.216C287.371 102.519 287.495 102.643 287.495 102.797C287.495 102.952 287.371 103.076 287.216 103.076Z" fill="black"/>
<path d="M206.883 125.616H247.358C248.819 125.616 249.892 124.42 249.742 122.959L241.695 44.8603C241.544 43.3993 240.225 42.2029 238.764 42.2029H198.289C196.828 42.2029 195.755 43.3993 195.905 44.8603L203.952 122.959C204.103 124.42 205.422 125.616 206.883 125.616Z" fill="white"/>
<path d="M247.357 125.895H206.882C205.278 125.895 203.84 124.591 203.674 122.988L195.627 44.8895C195.546 44.1008 195.782 43.3563 196.29 42.7929C196.795 42.2334 197.504 41.9257 198.287 41.9257H238.762C240.366 41.9257 241.806 43.2297 241.97 44.8325L250.017 122.931C250.098 123.72 249.863 124.464 249.355 125.028C248.85 125.587 248.14 125.895 247.356 125.895H247.357ZM198.289 42.4815C197.665 42.4815 197.101 42.7246 196.704 43.1652C196.302 43.6095 196.117 44.202 196.182 44.8325L204.229 122.931C204.366 124.259 205.556 125.339 206.882 125.339H247.357C247.981 125.339 248.545 125.096 248.942 124.656C249.344 124.211 249.529 123.619 249.464 122.989L241.417 44.8908C241.28 43.5627 240.09 42.4828 238.764 42.4828H198.289V42.4815Z" fill="black"/>
<path d="M208.798 120.655H244.419C245.524 120.655 246.336 119.751 246.222 118.645L238.888 47.4587C238.774 46.3535 237.776 45.4482 236.671 45.4482H201.05C199.945 45.4482 199.133 46.3522 199.247 47.4587L206.581 118.645C206.695 119.75 207.693 120.655 208.798 120.655Z" fill="white"/>
<path d="M244.419 120.934H208.798C207.551 120.934 206.433 119.92 206.304 118.674L198.97 47.488C198.906 46.8714 199.09 46.2903 199.488 45.8497C199.883 45.4117 200.437 45.1711 201.05 45.1711H236.671C237.918 45.1711 239.036 46.1852 239.165 47.431L246.499 118.617C246.562 119.234 246.379 119.815 245.981 120.255C245.586 120.693 245.032 120.934 244.42 120.934H244.419ZM201.05 45.7282C200.597 45.7282 200.189 45.9042 199.902 46.2232C199.612 46.5448 199.477 46.974 199.524 47.431L206.858 118.617C206.958 119.588 207.828 120.377 208.798 120.377H244.419C244.871 120.377 245.28 120.201 245.567 119.882C245.857 119.56 245.991 119.131 245.944 118.674L238.61 47.488C238.51 46.5169 237.641 45.7282 236.671 45.7282H201.05Z" fill="black"/>
<path d="M223.547 49.5745H214.447C214.293 49.5745 214.168 49.4504 214.168 49.296C214.168 49.1415 214.293 49.0175 214.447 49.0175H223.547C223.702 49.0175 223.826 49.1415 223.826 49.296C223.826 49.4504 223.702 49.5745 223.547 49.5745Z" fill="black"/>
<path d="M236.201 111.513C235.956 109.134 233.829 107.205 231.449 107.205H219C216.62 107.205 214.889 109.134 215.135 111.513C215.38 113.892 217.507 115.822 219.887 115.822H232.336C234.716 115.822 236.447 113.892 236.201 111.513Z" fill="#F5A9F1"/>
<path d="M214.746 74.723C216.301 73.0866 216.091 70.3633 214.277 68.6402C212.463 66.9172 209.732 66.8469 208.178 68.4833C206.623 70.1197 206.834 72.843 208.647 74.5661C210.461 76.2891 213.192 76.3594 214.746 74.723Z" fill="#F5A9F1"/>
<path d="M235.58 69.6339H232.633C232.479 69.6339 232.354 69.5098 232.354 69.3554C232.354 69.2009 232.479 69.0768 232.633 69.0768H235.58C235.735 69.0768 235.859 69.2009 235.859 69.3554C235.859 69.5098 235.735 69.6339 235.58 69.6339Z" fill="black"/>
<path d="M228.652 69.6338H217.809C217.654 69.6338 217.53 69.5098 217.53 69.3553C217.53 69.2009 217.654 69.0768 217.809 69.0768H228.652C228.807 69.0768 228.931 69.2009 228.931 69.3553C228.931 69.5098 228.807 69.6338 228.652 69.6338Z" fill="black"/>
<path d="M234.243 74.1886H218.278C218.123 74.1886 217.999 74.0645 217.999 73.9101C217.999 73.7556 218.123 73.6315 218.278 73.6315H234.243C234.398 73.6315 234.522 73.7556 234.522 73.9101C234.522 74.0645 234.398 74.1886 234.243 74.1886Z" fill="black"/>
<path d="M213.307 61.0896C214.862 59.4532 214.652 56.7298 212.838 55.0068C211.024 53.2837 208.293 53.2135 206.739 54.8499C205.184 56.4862 205.395 59.2096 207.209 60.9327C209.022 62.6557 211.753 62.726 213.307 61.0896Z" fill="#F5A9F1"/>
<path d="M234.139 55.9985H231.192C231.037 55.9985 230.913 55.8744 230.913 55.7199C230.913 55.5655 231.037 55.4414 231.192 55.4414H234.139C234.293 55.4414 234.417 55.5655 234.417 55.7199C234.417 55.8744 234.293 55.9985 234.139 55.9985Z" fill="black"/>
<path d="M227.213 55.9983H216.369C216.215 55.9983 216.091 55.8743 216.091 55.7198C216.091 55.5654 216.215 55.4413 216.369 55.4413H227.213C227.367 55.4413 227.491 55.5654 227.491 55.7198C227.491 55.8743 227.367 55.9983 227.213 55.9983Z" fill="black"/>
<path d="M232.803 60.5532H216.838C216.683 60.5532 216.559 60.4291 216.559 60.2747C216.559 60.1202 216.683 59.9962 216.838 59.9962H232.803C232.958 59.9962 233.082 60.1202 233.082 60.2747C233.082 60.4291 232.958 60.5532 232.803 60.5532Z" fill="black"/>
<path d="M238.94 90.4222H224.149L223.554 84.6465H238.345L238.94 90.4222Z" fill="#F5A9F1"/>
<path d="M224.148 90.4222H209.357L208.762 84.6465H223.553L224.148 90.4222Z" fill="white"/>
<path d="M224.148 90.6994H209.358C209.214 90.6994 209.095 90.5918 209.08 90.45L208.485 84.6756C208.478 84.5971 208.503 84.5186 208.556 84.4604C208.609 84.4022 208.684 84.368 208.762 84.368H223.553C223.697 84.368 223.816 84.4756 223.831 84.6174L224.426 90.3917C224.433 90.4702 224.408 90.5487 224.355 90.607C224.302 90.6652 224.227 90.6994 224.148 90.6994ZM209.609 90.1436H223.84L223.302 84.925H209.071L209.609 90.1436Z" fill="black"/>
<path d="M239.892 99.6615H225.101L224.506 93.8859H239.297L239.892 99.6615Z" fill="#F5A9F1"/>
<path d="M225.101 99.6615H210.31L209.715 93.8859H224.506L225.101 99.6615Z" fill="white"/>
<path d="M225.101 99.9399H210.31C210.167 99.9399 210.048 99.8323 210.033 99.6905L209.438 93.9161C209.43 93.8376 209.456 93.7591 209.509 93.7009C209.562 93.6426 209.637 93.6085 209.715 93.6085H224.506C224.649 93.6085 224.768 93.7161 224.783 93.8579L225.378 99.6322C225.386 99.7107 225.361 99.7892 225.307 99.8474C225.254 99.9057 225.18 99.9399 225.101 99.9399ZM210.562 99.3828H224.792L224.254 94.1642H210.024L210.562 99.3828Z" fill="black"/>
<path d="M0.277176 169.313H96.4648V140.184H0.277176V169.313Z" fill="white"/>
<path d="M96.4649 169.591H41.2104C41.056 169.591 40.9319 169.467 40.9319 169.313C40.9319 169.158 41.056 169.034 41.2104 169.034H96.1864V140.462H0.557051V169.034H10.3206C10.4751 169.034 10.5992 169.158 10.5992 169.313C10.5992 169.467 10.4751 169.591 10.3206 169.591H0.278524C0.124068 169.591 0 169.467 0 169.313V140.184C0 140.031 0.124068 139.905 0.278524 139.905H96.4649C96.6194 139.905 96.7434 140.029 96.7434 140.184V169.313C96.7434 169.466 96.6194 169.591 96.4649 169.591Z" fill="black"/>
<path d="M23.5087 146.366H9.23682V163.131H23.5087V146.366Z" fill="black"/>
<path d="M23.5075 163.41H9.23555C9.0811 163.41 8.95703 163.286 8.95703 163.131V146.366C8.95703 146.213 9.0811 146.088 9.23555 146.088H23.5075C23.6619 146.088 23.786 146.212 23.786 146.366V163.131C23.786 163.284 23.6619 163.41 23.5075 163.41ZM9.51535 162.853H23.2302V146.645H9.51535V162.853Z" fill="black"/>
<path d="M45.0039 146.367H30.7319V163.131H45.0039V146.367Z" fill="#F5A9F1"/>
<path d="M66.4985 146.367H52.2266V163.131H66.4985V146.367Z" fill="#FFDBFD"/>
<path d="M88.1621 146.366H73.8901V163.131H88.1621V146.366Z" fill="white"/>
<path d="M88.1623 163.41H73.8903C73.7359 163.41 73.6118 163.286 73.6118 163.131V146.366C73.6118 146.213 73.7359 146.088 73.8903 146.088H88.1623C88.3167 146.088 88.4408 146.212 88.4408 146.366V163.131C88.4408 163.284 88.3167 163.41 88.1623 163.41ZM74.1689 162.853H87.8837V146.645H74.1689V162.853Z" fill="black"/>
<path d="M410.393 121.42L405.237 209.161C405.055 211.596 403.027 213.478 400.586 213.478H379.907C377.615 213.478 375.822 211.505 376.043 209.223L376.462 204.876L381.023 114.265L410.393 121.42Z" fill="white"/>
<path d="M400.587 213.756H379.908C378.737 213.756 377.615 213.258 376.828 212.392C376.041 211.526 375.654 210.36 375.767 209.196L376.186 204.848L380.746 114.25C380.75 114.168 380.792 114.091 380.857 114.041C380.923 113.992 381.009 113.974 381.089 113.994L410.458 121.15C410.589 121.182 410.679 121.303 410.671 121.437L405.516 209.178C405.323 211.748 403.159 213.757 400.586 213.757L400.587 213.756ZM381.285 114.615L376.74 204.889L376.32 209.249C376.223 210.258 376.558 211.267 377.239 212.018C377.922 212.768 378.893 213.199 379.907 213.199H400.586C402.869 213.199 404.789 211.416 404.96 209.14L410.101 121.636L381.285 114.615Z" fill="black"/>
<path d="M403.839 206.714C403.839 206.714 403.835 206.714 403.832 206.714C394.141 206.49 388.159 206.014 379.104 205.294L376.716 205.104C376.563 205.091 376.449 204.957 376.461 204.804C376.473 204.651 376.605 204.535 376.761 204.548L379.149 204.738C388.194 205.457 394.17 205.933 403.846 206.157C403.999 206.161 404.122 206.289 404.118 206.442C404.115 206.594 403.99 206.714 403.84 206.714H403.839Z" fill="black"/>
<path d="M398.074 192.12C391.071 192.12 384.839 191.506 377.169 190.14C377.018 190.113 376.917 189.968 376.943 189.817C376.97 189.667 377.113 189.565 377.266 189.592C387.494 191.414 395.155 191.892 405.53 191.357C405.677 191.349 405.815 191.467 405.823 191.62C405.83 191.773 405.712 191.905 405.559 191.913C402.918 192.049 400.451 192.119 398.074 192.119V192.12Z" fill="black"/>
<path d="M396.471 121.421L362.296 209.162C362.113 211.597 360.085 213.479 357.644 213.479H325.644C324.357 213.479 323.787 211.86 324.791 211.053L332.477 204.876L370.86 114.266L396.471 121.421Z" fill="white"/>
<path d="M357.644 213.758H325.644C324.938 213.758 324.33 213.327 324.096 212.661C323.862 211.995 324.065 211.279 324.616 210.837L332.246 204.704L370.603 114.158C370.658 114.029 370.799 113.961 370.935 113.999L396.545 121.154C396.621 121.176 396.685 121.228 396.719 121.299C396.753 121.369 396.758 121.45 396.729 121.524L362.569 209.225C362.356 211.77 360.202 213.758 357.643 213.758H357.644ZM371.021 114.6L332.733 204.985C332.715 205.027 332.686 205.065 332.65 205.094L324.964 211.271C324.522 211.626 324.497 212.127 324.621 212.477C324.744 212.827 325.078 213.201 325.644 213.201H357.644C359.927 213.201 361.847 211.418 362.018 209.142C362.02 209.114 362.026 209.087 362.036 209.062L396.098 121.609L371.02 114.601L371.021 114.6Z" fill="black"/>
<path d="M360.897 206.716C360.897 206.716 360.893 206.716 360.89 206.716C350.377 206.473 343.341 205.945 332.73 205.106C332.577 205.093 332.463 204.959 332.474 204.806C332.487 204.653 332.616 204.538 332.774 204.55C343.375 205.388 350.405 205.915 360.904 206.158C361.057 206.162 361.18 206.29 361.177 206.443C361.173 206.595 361.049 206.715 360.898 206.715L360.897 206.716Z" fill="black"/>
<path d="M361.827 191.208C354.187 191.208 348.076 190.417 340.546 189.076C340.396 189.05 340.295 188.904 340.321 188.754C340.348 188.603 340.49 188.502 340.644 188.528C350.177 190.226 357.43 191.039 368.426 190.472C368.575 190.465 368.711 190.582 368.718 190.735C368.726 190.888 368.608 191.02 368.455 191.027C366.094 191.149 363.903 191.207 361.827 191.207V191.208Z" fill="black"/>
<path d="M425.967 93.83C427.09 90.7358 427.912 87.2011 428.159 83.2333C429.059 68.7525 410.394 54.0096 410.394 54.0096L405.304 53.7387L410.394 87.3986L409.592 90.1496C412.657 91.8259 419.541 94.9985 425.968 93.83H425.967Z" fill="#F5A9F1"/>
<path d="M409.591 90.1488L405.303 104.871C405.303 104.871 412.649 111.313 415.689 108.882C417.896 107.117 422.993 102.025 425.966 93.8291C419.538 94.9977 412.655 91.825 409.589 90.1488H409.591Z" fill="white"/>
<path d="M413.971 109.706C410.443 109.706 405.375 105.305 405.119 105.081C405.004 104.979 404.991 104.803 405.094 104.688C405.195 104.572 405.371 104.562 405.487 104.663C405.559 104.726 412.693 110.923 415.516 108.666C416.639 107.768 422.406 102.831 425.705 93.7359C425.757 93.5915 425.918 93.5168 426.062 93.5687C426.206 93.6206 426.281 93.7814 426.229 93.9258C422.879 103.161 417.007 108.188 415.864 109.102C415.33 109.528 414.682 109.707 413.971 109.707V109.706Z" fill="black"/>
<path d="M386.474 104.87H417.577L423.667 77.2819H392.564L386.474 104.87Z" fill="black"/>
<path d="M410.393 54.008C410.393 54.008 398.908 53.3927 388.029 53.7497C387.85 54.2637 387.672 54.7777 387.493 55.2905C378.2 82.0429 368.909 108.797 359.618 135.549C360.041 135.674 363.223 136.623 365.982 134.608C367.573 133.447 368.884 131.258 369.061 127.245C369.061 127.245 371.972 138.546 391.028 137.213C410.084 135.879 412.177 132.228 412.177 132.228L410.393 54.0054V54.008Z" fill="#F5A9F1"/>
<path d="M410.986 77.3293C410.971 77.3293 410.955 77.328 410.938 77.3255C410.786 77.2989 410.685 77.1546 410.712 77.0027L412.084 69.1596C412.101 69.0647 412.165 68.9849 412.255 68.9495C412.344 68.914 412.446 68.9267 412.523 68.9837L413.413 69.642C413.538 69.7331 413.564 69.9079 413.472 70.0319C413.381 70.156 413.206 70.1826 413.082 70.0902L412.553 69.7002L411.257 77.0989C411.233 77.2344 411.116 77.3293 410.983 77.3293H410.986Z" fill="black"/>
<path d="M388.029 53.751L362.348 56.9743C362.348 56.9743 362.694 55.7906 363.15 53.9637C356.723 57.3592 351.943 55.0423 349.741 53.1078C347.162 56.8907 344.8 61.6662 345.824 65.4795C347.844 72.9997 363.959 77.646 387.29 70.8677L390.619 55.4576L388.029 53.7523V53.751Z" fill="#F5A9F1"/>
<path d="M363.152 53.9619C364.011 50.5196 365.263 44.7946 365.336 40.4015C365.446 33.6776 362.273 30.7556 361.121 31.2C359.969 31.6444 360.645 32.9952 361.121 34.1726C361.597 35.35 361.845 36.3755 361.845 36.3755C361.845 36.3755 360.117 34.4562 358.817 36.6262C358.817 36.6262 356.808 34.5803 355.862 36.8515C355.862 36.8515 353.701 35.2057 352.79 37.8213C351.88 40.4369 354.112 40.4027 354.112 40.4027C354.112 40.4027 354.15 44.6515 354.962 46.6886C354.962 46.6886 352.251 49.4283 349.743 53.1061C351.945 55.0405 356.725 57.3574 363.152 53.9619Z" fill="white"/>
<path d="M363.333 53.503C363.311 53.503 363.288 53.5005 363.267 53.4954C363.118 53.4587 363.025 53.308 363.062 53.1586C363.935 49.5555 364.991 44.4155 365.057 40.3971C365.142 35.2355 363.259 32.5275 362.134 31.7413C361.768 31.4855 361.427 31.3804 361.221 31.4602C361.017 31.5387 360.886 31.6514 360.821 31.8033C360.629 32.2502 360.964 33.0617 361.259 33.777L361.379 34.0682C361.858 35.2507 362.106 36.2673 362.115 36.3104C362.145 36.4344 362.087 36.5623 361.974 36.6218C361.862 36.6813 361.722 36.6572 361.638 36.5623C361.631 36.5547 360.936 35.8014 360.185 35.8761C359.766 35.9179 359.385 36.2179 359.055 36.7699C359.011 36.8434 358.935 36.8927 358.85 36.9029C358.762 36.913 358.679 36.8826 358.618 36.8218C358.372 36.5724 357.595 35.9533 356.97 36.0749C356.622 36.1432 356.335 36.4395 356.119 36.9586C356.086 37.0383 356.018 37.0978 355.934 37.1206C355.851 37.1434 355.762 37.1257 355.694 37.0738C355.686 37.0674 354.843 36.4408 354.087 36.6699C353.641 36.8054 353.293 37.2232 353.054 37.9131C352.783 38.6918 352.782 39.2754 353.051 39.6489C353.394 40.1236 354.101 40.1236 354.107 40.1249C354.184 40.1224 354.253 40.1527 354.306 40.2034C354.359 40.2553 354.39 40.3262 354.39 40.3996C354.39 40.4414 354.436 44.6193 355.22 46.5854C355.261 46.688 355.238 46.8057 355.159 46.8842C355.133 46.9121 352.436 49.6492 349.974 53.2625C349.888 53.3891 349.714 53.422 349.586 53.3359C349.46 53.2498 349.427 53.0763 349.513 52.9485C351.702 49.7366 354.074 47.2083 354.638 46.6209C353.979 44.7902 353.858 41.5884 353.836 40.6579C353.503 40.6098 352.949 40.4579 352.598 39.973C352.216 39.4438 352.192 38.6892 352.526 37.7283C352.829 36.8598 353.3 36.323 353.926 36.1331C354.643 35.9166 355.359 36.2255 355.744 36.4446C356.027 35.9242 356.401 35.6153 356.863 35.5254C357.619 35.3798 358.378 35.8875 358.761 36.2015C359.151 35.6659 359.612 35.3697 360.134 35.3191C360.593 35.2747 361.012 35.4317 361.343 35.6242C361.225 35.2482 361.064 34.7734 360.863 34.2746L360.745 33.9872C360.391 33.1301 360.025 32.2439 360.31 31.5805C360.435 31.2868 360.674 31.0715 361.021 30.9373C361.41 30.7879 361.919 30.9095 362.453 31.2817C363.963 32.3363 365.698 35.3583 365.615 40.4034C365.548 44.4737 364.485 49.6568 363.605 53.2878C363.575 53.4156 363.461 53.5005 363.334 53.5005L363.333 53.503Z" fill="black"/>
<path d="M354.23 40.0207C354.211 40.0207 354.193 40.0194 354.174 40.0156C354.023 39.9852 353.926 39.8384 353.956 39.6877L354.188 38.547C354.218 38.3964 354.366 38.2989 354.516 38.3293C354.666 38.3597 354.764 38.5065 354.734 38.6572L354.502 39.7979C354.475 39.9295 354.359 40.0207 354.23 40.0207Z" fill="black"/>
<path d="M361.474 60.5735C361.453 60.5735 361.433 60.571 361.412 60.5672C361.261 60.533 361.167 60.3849 361.201 60.2342L361.856 57.33C361.89 57.1793 362.039 57.0856 362.189 57.1198C362.34 57.154 362.433 57.3021 362.399 57.4528L361.744 60.3571C361.715 60.4862 361.6 60.5748 361.474 60.5748V60.5735Z" fill="black"/>
<path d="M392.91 45.4885L394.128 53.1847L391.109 53.7861C391.109 53.7861 391.608 54.9812 402.605 54.4241C410.625 54.0177 398.219 41.1802 398.219 41.1802C398.219 41.1802 395.667 42.9122 392.908 45.4898L392.91 45.4885Z" fill="white"/>
<path d="M391.11 54.0175C390.978 54.0175 390.86 53.9238 390.836 53.7896C390.808 53.639 390.908 53.4934 391.06 53.4655L393.811 52.9617L392.761 46.2441C392.747 46.153 392.778 46.0605 392.845 45.9972C395.51 43.5082 396.226 40.3647 396.233 40.333C396.266 40.1824 396.414 40.0874 396.565 40.1203C396.716 40.1533 396.811 40.3014 396.778 40.452C396.749 40.5862 396.035 43.7133 393.334 46.3011L394.405 53.1427C394.428 53.2921 394.329 53.4326 394.18 53.4592L391.162 54.0125C391.144 54.015 391.127 54.0175 391.111 54.0175H391.11Z" fill="black"/>
<path d="M385.64 38.7747C386.704 39.7153 387.751 39.6571 389.249 39.9863C392.895 40.7876 396.768 43.3514 396.864 45.7201C396.888 46.3075 396.691 46.3227 396.579 47.5685C396.476 48.7256 396.584 49.9106 397.097 50.9678C397.326 51.44 397.643 51.8818 398.037 52.2313C398.44 52.5908 398.925 52.8276 399.363 53.1365C399.872 53.496 400.107 53.9999 400.359 54.5506C400.584 55.0406 400.862 55.4951 401.202 55.9141C401.88 56.7472 402.823 57.3916 403.887 57.6043C404.381 57.703 404.782 57.66 405.582 57.584C407.28 57.4232 407.352 57.046 408.176 57.1688C408.594 57.2308 408.536 57.322 410.489 58.2829C411.089 58.5779 411.416 58.7386 411.744 58.8817C412.377 59.1577 413.632 59.7046 414.779 59.7603C416.841 59.8603 419.188 58.4044 419.89 56.4066C420.164 55.6267 420.143 54.8912 420.129 54.6494C420.076 53.6859 419.722 52.9099 419.17 51.6945C418.802 50.8842 418.611 50.6133 418.451 49.9372C418.261 49.1295 418.312 48.5661 418.327 48.4205C418.407 47.6584 418.687 47.5951 418.758 46.9621C418.877 45.8986 418.55 44.8301 417.888 43.9945C417.565 43.5868 417.166 43.2387 416.716 42.9791C416.269 42.7234 415.772 42.5639 415.284 42.4082C414.828 42.2626 414.365 42.122 413.947 41.8815C413.492 41.6182 413.177 41.2384 412.945 40.7699C412.483 39.8356 412.307 38.7202 411.454 38.029C409.65 36.568 407.303 37.8429 405.272 37.6099C404.148 37.4808 403.298 36.8123 402.674 35.94C402.487 35.5514 402.364 35.1981 402.288 34.9437C402.323 34.9373 402.358 34.9323 402.393 34.9259C403.702 34.6981 405.13 34.1828 405.739 32.899C406.335 31.6431 406.035 30.1885 405.129 29.1655C404.259 28.1831 402.784 27.6121 401.503 28.0603C400.614 28.3717 399.933 29.1921 399.823 30.11C398.987 29.2807 397.911 28.706 396.717 28.5224C395.813 28.3831 394.879 28.4464 394.009 28.7325C393.293 28.968 392.647 29.3972 391.934 29.6226C391.284 29.6327 390.635 29.6555 390.018 29.7365C389.514 29.7276 387.627 29.7568 386.03 31.1684C385.78 31.3887 383.819 33.1814 384.131 35.7868C384.174 36.1489 384.399 37.6796 385.636 38.7734L385.64 38.7747Z" fill="black"/>
<path d="M401.941 34.724C401.903 34.724 401.864 34.7164 401.826 34.6987C401.768 34.6721 400.394 34.0378 399.809 32.9199C399.224 31.8007 399.409 30.7866 399.418 30.7448C399.447 30.5942 399.591 30.4954 399.745 30.5246C399.895 30.5537 399.994 30.6993 399.965 30.8499C399.961 30.8715 399.814 31.7298 400.303 32.6629C400.798 33.6099 402.044 34.1872 402.056 34.1935C402.196 34.2568 402.258 34.4227 402.194 34.5619C402.147 34.6645 402.046 34.7252 401.941 34.7252V34.724Z" fill="white"/>
<path d="M385.814 36.7444C385.814 36.7444 389.912 35.5378 390.8 37.3698C391.687 39.2017 392.278 40.0234 393.539 40.1525C393.539 40.1525 395.707 37.1951 397.456 38.9194C399.206 40.6437 397.666 42.9314 395.693 43.5062C395.693 43.5062 395.322 46.4826 391.774 47.1156C388.228 47.7487 386.55 42.444 385.814 36.7431V36.7444Z" fill="white"/>
<path d="M391.209 47.4459C390.527 47.4459 389.889 47.2307 389.306 46.804C387.491 45.4722 386.224 42.0995 385.538 36.7796C385.52 36.6442 385.603 36.515 385.735 36.4771C385.911 36.4252 390.07 35.2262 391.05 37.2481C391.863 38.9256 392.391 39.689 393.417 39.8548C393.752 39.4408 394.843 38.2065 396.078 38.1064C396.66 38.0596 397.191 38.266 397.652 38.7205C398.375 39.4332 398.647 40.3207 398.421 41.2209C398.142 42.3223 397.155 43.3098 395.934 43.7225C395.78 44.4075 395.011 46.8218 391.823 47.3902C391.614 47.4269 391.411 47.4459 391.209 47.4459ZM386.121 36.948C386.785 41.9033 387.999 45.1531 389.636 46.3546C390.27 46.8205 390.955 46.9788 391.725 46.842C395.03 46.2521 395.411 43.4997 395.415 43.4719C395.429 43.3617 395.506 43.2706 395.614 43.2389C396.708 42.9199 397.639 42.0337 397.88 41.0841C398.06 40.3739 397.846 39.694 397.261 39.1167C396.915 38.7762 396.542 38.628 396.123 38.661C394.918 38.7572 393.776 40.2992 393.764 40.3157C393.706 40.3954 393.61 40.4385 393.511 40.4283C392.127 40.2853 391.479 39.4066 390.55 37.4899C389.947 36.2479 387.338 36.6328 386.122 36.948H386.121Z" fill="black"/>
<path d="M394.567 42.2469C394.543 42.2469 394.519 42.2443 394.496 42.238C394.347 42.1987 394.258 42.0456 394.299 41.8974C394.527 41.0403 395.259 40.3314 396.122 40.1326C396.271 40.0984 396.421 40.1921 396.456 40.3415C396.49 40.4909 396.397 40.6415 396.247 40.6757C395.579 40.8302 395.013 41.3784 394.837 42.0418C394.804 42.1671 394.691 42.2494 394.569 42.2494L394.567 42.2469Z" fill="black"/>
<path d="M87.8476 49.359H22.9081L20.2861 24.1841H85.227L87.8476 49.359Z" fill="white"/>
<path d="M87.8475 49.6374H22.9079C22.7649 49.6374 22.6459 49.5298 22.6307 49.388L20.01 24.213C20.0011 24.1345 20.0277 24.0561 20.0796 23.9978C20.1328 23.9396 20.2075 23.9054 20.286 23.9054H85.2268C85.3699 23.9054 85.4889 24.013 85.5041 24.1548L88.126 49.3298C88.1336 49.4082 88.1083 49.4867 88.0564 49.545C88.0032 49.6032 87.9285 49.6374 87.85 49.6374H87.8475ZM23.1586 49.0803H87.5398L84.9761 24.4624H20.5949L23.1586 49.0803Z" fill="black"/>
<path d="M48.215 45.0156H28.684L26.9673 28.5306H46.4983L48.215 45.0156Z" fill="white"/>
<path d="M48.2151 45.2938H28.6842C28.5411 45.2938 28.4221 45.1861 28.4069 45.0444L26.6902 28.5594C26.6813 28.4809 26.7079 28.4024 26.7598 28.3442C26.813 28.286 26.8877 28.2518 26.9662 28.2518H46.4972C46.6402 28.2518 46.7592 28.3594 46.7744 28.5012L48.4911 44.9861C48.5 45.0646 48.4734 45.1431 48.4215 45.2013C48.3683 45.2596 48.2936 45.2938 48.2151 45.2938ZM28.9348 44.7367H47.9062L46.2477 28.8088H27.2776L28.9361 44.7367H28.9348Z" fill="black"/>
<path d="M43.3733 33.7951C43.2328 33.7951 43.1112 33.6888 43.0973 33.5457L42.9568 32.1911H31.2726L31.4081 33.4875C31.4245 33.6407 31.3131 33.7774 31.1599 33.7939C31.0055 33.8103 30.87 33.6989 30.8548 33.5457L30.6877 31.9417C30.6789 31.8632 30.7054 31.7847 30.7574 31.7265C30.8105 31.6682 30.8852 31.634 30.9637 31.634H43.2075C43.3505 31.634 43.4695 31.7416 43.4847 31.8834L43.6518 33.4875C43.6683 33.6407 43.5569 33.7774 43.4037 33.7939C43.3936 33.7939 43.3847 33.7951 43.3746 33.7951H43.3733Z" fill="black"/>
<path d="M38.0967 41.9107C37.9562 41.9107 37.8347 41.8044 37.8207 41.6613L36.8927 32.7421C36.8763 32.5889 36.9877 32.4522 37.1409 32.4358C37.2966 32.4193 37.4308 32.5307 37.446 32.6839L38.374 41.6031C38.3904 41.7562 38.279 41.893 38.1258 41.9094C38.1157 41.9094 38.1068 41.9107 38.0967 41.9107Z" fill="black"/>
<path d="M40.1094 41.9116H36.0847C35.9302 41.9116 35.8062 41.7875 35.8062 41.6331C35.8062 41.4786 35.9302 41.3546 36.0847 41.3546H40.1094C40.2638 41.3546 40.3879 41.4786 40.3879 41.6331C40.3879 41.7875 40.2638 41.9116 40.1094 41.9116Z" fill="black"/>
<path d="M79.5266 32.3779H51.736C51.5816 32.3779 51.4575 32.2538 51.4575 32.0993C51.4575 31.9449 51.5816 31.8208 51.736 31.8208H79.5266C79.6811 31.8208 79.8051 31.9449 79.8051 32.0993C79.8051 32.2538 79.6811 32.3779 79.5266 32.3779Z" fill="black"/>
<path d="M79.8787 35.7584H52.0881C51.9336 35.7584 51.8096 35.6343 51.8096 35.4799C51.8096 35.3254 51.9336 35.2014 52.0881 35.2014H79.8787C80.0331 35.2014 80.1572 35.3254 80.1572 35.4799C80.1572 35.6343 80.0331 35.7584 79.8787 35.7584Z" fill="black"/>
<path d="M80.2302 39.1425H52.4397C52.2852 39.1425 52.1611 39.0184 52.1611 38.864C52.1611 38.7095 52.2852 38.5854 52.4397 38.5854H80.2302C80.3847 38.5854 80.5087 38.7095 80.5087 38.864C80.5087 39.0184 80.3847 39.1425 80.2302 39.1425Z" fill="black"/>
<path d="M80.5828 42.5232H52.7922C52.6377 42.5232 52.5137 42.3991 52.5137 42.2447C52.5137 42.0902 52.6377 41.9661 52.7922 41.9661H80.5828C80.7372 41.9661 80.8613 42.0902 80.8613 42.2447C80.8613 42.3991 80.7372 42.5232 80.5828 42.5232Z" fill="black"/>
<path d="M471.166 26.3263C471.038 26.3339 470.913 26.3529 470.79 26.3757C470.4 25.1451 469.831 23.9968 469.116 22.9638C469.21 22.8802 469.301 22.7929 469.386 22.6966C470.525 21.4028 470.4 19.429 469.106 18.2896C467.812 17.1502 465.838 17.2755 464.699 18.5694C464.614 18.6656 464.538 18.7669 464.467 18.8707C463.351 18.2909 462.142 17.8731 460.87 17.6414C460.878 17.5161 460.879 17.3895 460.87 17.2616C460.762 15.5411 459.278 14.2332 457.556 14.3434C455.836 14.4523 454.528 15.9361 454.638 17.6578C454.645 17.7857 454.664 17.9111 454.687 18.0339C453.457 18.4238 452.308 18.991 451.275 19.7075C451.192 19.6139 451.104 19.5227 451.008 19.4379C449.714 18.2985 447.741 18.4238 446.601 19.7177C445.462 21.0116 445.587 22.9853 446.881 24.1247C446.977 24.2095 447.078 24.2855 447.182 24.3564C446.602 25.473 446.185 26.6821 445.953 27.9532C445.828 27.9456 445.701 27.9443 445.573 27.9532C443.853 28.0621 442.545 29.5458 442.655 31.2676C442.764 32.9882 444.248 34.296 445.969 34.1858C446.097 34.1782 446.223 34.1592 446.345 34.1365C446.735 35.367 447.302 36.5153 448.019 37.5484C447.925 37.632 447.834 37.7193 447.749 37.8155C446.61 39.1094 446.735 41.0831 448.029 42.2226C449.323 43.362 451.297 43.2367 452.436 41.9428C452.521 41.8466 452.597 41.7453 452.668 41.6415C453.785 42.2213 454.994 42.6391 456.265 42.8708C456.257 42.9961 456.256 43.1227 456.265 43.2506C456.374 44.9711 457.857 46.2777 459.579 46.1688C461.3 46.0599 462.607 44.5761 462.497 42.8543C462.49 42.7264 462.471 42.6011 462.448 42.4783C463.679 42.0884 464.827 41.5212 465.86 40.8046C465.943 40.8983 466.031 40.9895 466.127 41.0743C467.421 42.2137 469.395 42.0884 470.534 40.7945C471.674 39.5006 471.548 37.5269 470.254 36.3874C470.158 36.3026 470.057 36.2267 469.953 36.1558C470.533 35.0391 470.951 33.8301 471.182 32.559C471.308 32.5666 471.434 32.5678 471.562 32.559C473.283 32.4501 474.59 30.9663 474.48 29.2445C474.371 27.524 472.888 26.2162 471.166 26.3263ZM458.935 36.0418C455.738 36.2444 452.983 33.8187 452.781 30.622C452.578 27.4252 455.004 24.6704 458.2 24.4678C461.397 24.2652 464.152 26.691 464.355 29.8877C464.557 33.0844 462.131 35.8393 458.935 36.0418Z" fill="white"/>
<path d="M459.377 46.4519C457.6 46.4519 456.099 45.0643 455.985 43.2666C455.982 43.2121 455.98 43.1564 455.979 43.0982C454.859 42.8728 453.775 42.5032 452.752 41.9955C452.717 42.0411 452.68 42.0841 452.644 42.1246C452.044 42.807 451.214 43.2134 450.307 43.2716C449.401 43.3286 448.526 43.0298 447.844 42.4297C447.161 41.8296 446.755 40.9991 446.697 40.0926C446.64 39.1862 446.938 38.3113 447.538 37.629C447.575 37.5884 447.613 37.5467 447.654 37.5061C447.021 36.5566 446.517 35.5286 446.152 34.4449C446.094 34.4525 446.038 34.4576 445.984 34.4601C444.111 34.5791 442.493 33.1535 442.374 31.2811C442.316 30.3746 442.616 29.4998 443.216 28.8174C443.816 28.135 444.647 27.7286 445.553 27.6704C445.608 27.6666 445.663 27.6653 445.722 27.6653C445.947 26.5436 446.317 25.4612 446.824 24.4382C446.779 24.4028 446.736 24.3673 446.695 24.3306C446.013 23.7305 445.606 22.9 445.548 21.9935C445.491 21.087 445.79 20.2122 446.39 19.5298C446.99 18.8474 447.821 18.4411 448.727 18.3828C449.634 18.3246 450.509 18.6246 451.191 19.2247C451.231 19.2602 451.272 19.2981 451.314 19.3399C452.265 18.7069 453.293 18.203 454.375 17.8384C454.367 17.7815 454.362 17.7257 454.36 17.6713C454.241 15.8001 455.668 14.1809 457.539 14.0619C458.447 14.0049 459.32 14.3037 460.002 14.9038C460.685 15.5039 461.091 16.3344 461.15 17.2409C461.153 17.2953 461.155 17.351 461.156 17.4092C462.278 17.6346 463.36 18.0043 464.383 18.5119C464.418 18.4664 464.455 18.4233 464.491 18.3815C465.091 17.7004 465.92 17.2928 466.828 17.2358C467.734 17.1776 468.609 17.4776 469.291 18.0777C469.974 18.6778 470.38 19.5083 470.438 20.4148C470.495 21.3213 470.197 22.1961 469.596 22.8785C469.561 22.919 469.523 22.9595 469.481 23.0013C470.114 23.9521 470.618 24.9801 470.983 26.0625C471.041 26.0549 471.097 26.0499 471.151 26.0473C473.024 25.9283 474.642 27.3539 474.761 29.2263C474.88 31.0975 473.453 32.7168 471.582 32.8358C471.527 32.8396 471.471 32.8408 471.413 32.8408C471.188 33.9625 470.818 35.045 470.31 36.0679C470.356 36.1034 470.399 36.1401 470.44 36.1756C471.122 36.7757 471.528 37.6062 471.587 38.5126C471.644 39.4191 471.345 40.2939 470.745 40.9763C470.145 41.6587 469.314 42.0651 468.408 42.1233C467.502 42.1816 466.626 41.8815 465.945 41.2814C465.905 41.246 465.864 41.208 465.822 41.1662C464.872 41.7992 463.845 42.3031 462.761 42.6677C462.769 42.7247 462.774 42.7804 462.776 42.8349C462.835 43.7413 462.535 44.6162 461.934 45.2985C461.334 45.9809 460.504 46.3873 459.597 46.4456C459.524 46.4506 459.452 46.4519 459.38 46.4519H459.377ZM452.667 41.3612C452.71 41.3612 452.754 41.3713 452.795 41.3928C453.902 41.9676 455.085 42.3715 456.313 42.5943C456.451 42.6196 456.55 42.7437 456.541 42.8842C456.534 43.0159 456.534 43.126 456.541 43.2311C456.64 44.7959 458 45.9885 459.559 45.8898C460.318 45.8417 461.012 45.5011 461.514 44.9314C462.017 44.3617 462.266 43.6299 462.218 42.8716C462.212 42.7678 462.197 42.6589 462.172 42.5285C462.147 42.3905 462.228 42.255 462.362 42.212C463.552 41.8347 464.675 41.284 465.7 40.575C465.815 40.4952 465.972 40.513 466.065 40.618C466.153 40.7168 466.231 40.794 466.31 40.8637C466.881 41.3663 467.611 41.6157 468.37 41.5676C469.128 41.5195 469.822 41.1789 470.324 40.6092C470.827 40.0395 471.076 39.3077 471.028 38.5494C470.98 37.791 470.64 37.0972 470.07 36.5946C469.991 36.5262 469.903 36.4566 469.795 36.3844C469.679 36.3047 469.641 36.1515 469.705 36.0262C470.28 34.9209 470.684 33.7372 470.908 32.5079C470.933 32.3699 471.059 32.2724 471.198 32.28C471.328 32.2876 471.439 32.2876 471.544 32.2813C473.108 32.1825 474.301 30.8279 474.202 29.263C474.104 27.6982 472.744 26.5056 471.184 26.6044C471.08 26.6107 470.968 26.6259 470.841 26.65C470.703 26.6753 470.566 26.5943 470.524 26.4601C470.147 25.27 469.596 24.147 468.887 23.1228C468.808 23.0076 468.827 22.8494 468.932 22.7569C469.031 22.6696 469.108 22.5924 469.177 22.5139C469.68 21.9441 469.929 21.2124 469.881 20.454C469.833 19.6957 469.493 19.0019 468.923 18.4993C468.353 17.9967 467.624 17.7473 466.863 17.7954C466.105 17.8435 465.411 18.184 464.91 18.7538C464.84 18.8323 464.773 18.9196 464.698 19.0285C464.618 19.1437 464.465 19.1829 464.34 19.1184C463.235 18.5436 462.051 18.1397 460.822 17.9169C460.684 17.8916 460.585 17.7675 460.594 17.627C460.601 17.4991 460.601 17.3865 460.594 17.2814C460.546 16.523 460.205 15.8292 459.635 15.3266C459.066 14.824 458.336 14.5746 457.576 14.6227C456.011 14.7215 454.818 16.0761 454.917 17.6409C454.923 17.7447 454.938 17.8536 454.962 17.984C454.988 18.122 454.907 18.2575 454.773 18.3005C453.582 18.6778 452.459 19.2285 451.435 19.9375C451.32 20.0173 451.163 19.9995 451.069 19.8944C450.982 19.7957 450.904 19.7185 450.825 19.6488C450.255 19.1462 449.524 18.8968 448.765 18.9449C448.007 18.993 447.313 19.3336 446.81 19.9033C446.308 20.473 446.058 21.2048 446.107 21.9631C446.155 22.7215 446.495 23.4153 447.065 23.9179C447.143 23.9875 447.231 24.0546 447.34 24.128C447.456 24.2078 447.494 24.361 447.43 24.4863C446.855 25.5916 446.451 26.7753 446.227 28.0046C446.202 28.1426 446.08 28.2414 445.937 28.2325C445.807 28.2249 445.695 28.2249 445.591 28.2325C444.833 28.2806 444.139 28.6212 443.637 29.1909C443.134 29.7606 442.885 30.4924 442.933 31.2507C443.031 32.8155 444.385 34.0094 445.951 33.9094C446.056 33.903 446.165 33.8878 446.294 33.8638C446.432 33.8385 446.567 33.9195 446.61 34.0537C446.988 35.245 447.538 36.368 448.249 37.3909C448.328 37.5061 448.309 37.6644 448.204 37.7581C448.109 37.8429 448.028 37.9227 447.959 38.0024C447.456 38.5721 447.207 39.3039 447.255 40.0623C447.303 40.8206 447.644 41.5144 448.213 42.017C448.783 42.5196 449.512 42.769 450.273 42.7209C451.031 42.6728 451.725 42.3322 452.228 41.7625C452.297 41.684 452.365 41.5967 452.438 41.4878C452.491 41.4093 452.579 41.3675 452.668 41.3675L452.667 41.3612ZM458.558 36.3325C457.079 36.3325 455.669 35.8021 454.55 34.8158C453.332 33.7435 452.604 32.2597 452.501 30.6405C452.399 29.02 452.933 27.4577 454.005 26.2385C455.078 25.0206 456.561 24.2926 458.181 24.1901C461.524 23.9787 464.418 26.5259 464.631 29.8707C464.844 33.2156 462.295 36.1085 458.95 36.3211C458.819 36.33 458.687 36.3338 458.557 36.3338L458.558 36.3325ZM458.571 24.7332C458.453 24.7332 458.335 24.737 458.217 24.7446C456.746 24.8383 455.399 25.4991 454.424 26.6057C453.45 27.7122 452.965 29.1326 453.058 30.6038C453.152 32.0749 453.813 33.4219 454.919 34.3968C456.026 35.3716 457.441 35.8565 458.918 35.7628C461.956 35.5704 464.27 32.9421 464.078 29.9037C463.892 26.9842 461.457 24.7332 458.572 24.7332H458.571Z" fill="black"/>
<path d="M440.682 13.6526C440.606 13.6716 440.533 13.6969 440.46 13.7247C440.087 13.0272 439.616 12.3992 439.068 11.8573C439.115 11.7966 439.16 11.7333 439.199 11.6662C439.74 10.7584 439.443 9.58356 438.535 9.0417C437.627 8.50111 436.452 8.79863 435.91 9.70637C435.87 9.77347 435.836 9.8431 435.805 9.914C435.067 9.68991 434.291 9.5747 433.5 9.5785C433.49 9.50254 433.477 9.42531 433.458 9.34935C433.198 8.32513 432.158 7.70478 431.132 7.96432C430.108 8.22385 429.488 9.26452 429.747 10.29C429.766 10.366 429.792 10.4394 429.819 10.5116C429.122 10.885 428.494 11.356 427.952 11.9042C427.891 11.8573 427.828 11.8118 427.761 11.7725C426.853 11.2319 425.678 11.5294 425.136 12.4372C424.596 13.3449 424.893 14.5198 425.801 15.0617C425.868 15.1022 425.938 15.1364 426.009 15.1667C425.785 15.9048 425.669 16.6809 425.673 17.4722C425.597 17.4823 425.521 17.495 425.444 17.514C424.42 17.7735 423.8 18.8142 424.059 19.8396C424.319 20.8639 425.359 21.4842 426.385 21.2247C426.461 21.2057 426.534 21.1804 426.606 21.1525C426.98 21.8501 427.451 22.478 427.999 23.0199C427.952 23.0807 427.907 23.144 427.867 23.2111C427.327 24.1188 427.624 25.2937 428.532 25.8356C429.44 26.3761 430.615 26.0786 431.156 25.1709C431.197 25.1038 431.231 25.0342 431.261 24.9633C432 25.1873 432.776 25.3026 433.567 25.2988C433.577 25.3747 433.59 25.4519 433.609 25.5279C433.868 26.5521 434.909 27.1725 435.934 26.9129C436.959 26.6534 437.579 25.6127 437.319 24.5872C437.3 24.5113 437.275 24.4379 437.247 24.3657C437.945 23.9922 438.573 23.5213 439.115 22.9731C439.175 23.0199 439.239 23.0655 439.306 23.1047C440.214 23.6453 441.388 23.3478 441.93 22.4401C442.471 21.5323 442.173 20.3575 441.266 19.8156C441.199 19.7751 441.129 19.7409 441.058 19.7105C441.282 18.9724 441.397 18.1963 441.393 17.4051C441.469 17.3949 441.545 17.3823 441.623 17.3633C442.647 17.1038 443.267 16.0631 443.008 15.0376C442.748 14.0134 441.707 13.393 440.682 13.6526ZM434.406 20.8841C432.503 21.3665 430.57 20.2144 430.088 18.3116C429.606 16.4087 430.758 14.4755 432.66 13.9931C434.563 13.5108 436.496 14.6629 436.979 16.5657C437.461 18.4685 436.309 20.4018 434.406 20.8841Z" fill="#F5A9F1"/>
<path d="M344.195 1.18384L344.195 13.8504C344.195 14.0049 344.071 14.129 343.916 14.129C343.762 14.129 343.638 14.0049 343.638 13.8504L343.638 1.46236L299.279 1.46236C299.125 1.46236 299 1.3383 299 1.18384C299 1.02939 299.124 0.905292 299.279 0.905292L343.915 0.90529C344.068 0.90529 344.193 1.02938 344.193 1.18384L344.195 1.18384Z" fill="black"/>
<path d="M18.0111 97.2711C19.3369 95.8775 19.1677 93.5643 17.6332 92.1046C16.0987 90.6449 13.78 90.5913 12.4542 91.9849C11.1285 93.3786 11.2977 95.6917 12.8321 97.1515C14.3666 98.6112 16.6853 98.6648 18.0111 97.2711Z" fill="#F5A9F1"/>
<path d="M16.9852 86.6049C18.311 85.2112 18.1418 82.8981 16.6073 81.4383C15.0728 79.9786 12.7541 79.925 11.4283 81.3187C10.1026 82.7123 10.2718 85.0255 11.8063 86.4852C13.3408 87.9449 15.6594 87.9985 16.9852 86.6049Z" fill="#F5A9F1"/>
<path d="M15.9574 75.9393C17.2832 74.5456 17.114 72.2325 15.5795 70.7727C14.045 69.313 11.7263 69.2594 10.4005 70.6531C9.07475 72.0467 9.24395 74.3599 10.7784 75.8196C12.3129 77.2794 14.6316 77.3329 15.9574 75.9393Z" fill="#F5A9F1"/>
<path d="M31.5591 121.441H18.1683C18.0252 121.441 17.905 121.332 17.891 121.189L15.9882 101.444C15.973 101.291 16.0857 101.155 16.2389 101.14C16.3895 101.125 16.5275 101.238 16.5427 101.391L18.4215 120.884H31.5591C31.7135 120.884 31.8376 121.008 31.8376 121.162C31.8376 121.317 31.7135 121.441 31.5591 121.441Z" fill="black"/>
<path d="M12.8798 66.5604C12.738 66.5604 12.6164 66.4527 12.6025 66.3084L10.3832 43.2819C10.3756 43.2034 10.4009 43.1262 10.4541 43.068C10.5072 43.0097 10.5819 42.9768 10.6604 42.9768H28.9406C29.095 42.9768 29.2191 43.1021 29.2191 43.2553C29.2191 43.4085 29.095 43.5339 28.9406 43.5339H10.9668L13.157 66.2552C13.1722 66.4084 13.0595 66.5439 12.9063 66.5591C12.8975 66.5591 12.8886 66.5604 12.8798 66.5604Z" fill="black"/>
</svg>
