<svg width="466" height="428" viewBox="0 0 466 428" fill="none" xmlns="http://www.w3.org/2000/svg">
<path d="M272.854 296.447L256.574 347.093C254.714 352.879 257.505 359.175 262.937 361.444L291.672 373.45H196.462C187.225 373.45 180.709 363.997 183.654 354.863L202.503 296.384L272.856 296.447H272.854Z" fill="white"/>
<path d="M291.671 373.845H196.461C192.073 373.845 188.035 371.756 185.384 368.118C182.597 364.293 181.81 359.292 183.276 354.742L202.125 296.263C202.177 296.099 202.329 295.988 202.499 295.988L272.855 296.051C272.98 296.051 273.098 296.112 273.174 296.212C273.247 296.314 273.269 296.445 273.231 296.565L256.951 347.212C255.155 352.799 257.851 358.891 263.09 361.079L291.825 373.085C291.999 373.156 292.095 373.341 292.06 373.525C292.022 373.71 291.861 373.843 291.672 373.843L291.671 373.845ZM202.786 296.779L184.027 354.984C182.638 359.294 183.384 364.031 186.022 367.654C188.522 371.086 192.328 373.056 196.461 373.056H289.704L262.783 361.809C257.17 359.464 254.277 352.947 256.198 346.974L272.313 296.841L202.788 296.779H202.786Z" fill="black"/>
<path d="M201.621 373.842C197.233 373.842 193.197 371.756 190.546 368.116C187.759 364.289 186.972 359.29 188.438 354.74L207.276 296.289C207.342 296.081 207.566 295.968 207.773 296.035C207.98 296.101 208.093 296.323 208.027 296.531L189.189 354.982C187.8 359.292 188.546 364.029 191.184 367.652C193.685 371.084 197.49 373.054 201.623 373.054C201.842 373.054 202.017 373.229 202.017 373.448C202.017 373.667 201.842 373.842 201.623 373.842H201.621Z" fill="black"/>
<path d="M402.498 302.09H107.029C102.917 302.09 99.4777 299.254 99.0798 295.537L79.113 108.343C78.6577 104.081 82.3464 100.393 87.0621 100.393H382.53C386.641 100.393 390.081 103.228 390.479 106.945L410.446 294.139C410.901 298.401 407.212 302.09 402.497 302.09H402.498Z" fill="white"/>
<path d="M402.499 302.484H107.03C102.694 302.484 99.1092 299.516 98.6898 295.578L78.723 108.386C78.5061 106.357 79.1675 104.372 80.5835 102.798C82.1823 101.02 84.5446 100 87.0646 100H382.532C386.868 100 390.453 102.968 390.872 106.906L410.839 294.099C411.056 296.128 410.396 298.114 408.98 299.688C407.381 301.466 405.019 302.486 402.499 302.486V302.484ZM87.0628 100.787C84.7668 100.787 82.6178 101.712 81.1678 103.325C79.9042 104.73 79.3127 106.499 79.5063 108.302L99.4749 295.496C99.8513 299.03 103.101 301.695 107.031 301.695H402.499C404.795 301.695 406.944 300.77 408.394 299.157C409.658 297.752 410.249 295.983 410.056 294.18L390.089 106.987C389.712 103.452 386.463 100.787 382.532 100.787H87.0628Z" fill="black"/>
<path d="M395.116 277.18C395.446 280.142 393.128 282.734 390.146 282.734H117.635C115.088 282.734 112.949 280.82 112.666 278.289L95.4954 124.526C95.1645 121.563 97.4833 118.971 100.464 118.971H372.976C375.522 118.971 377.662 120.885 377.945 123.416L395.116 277.18Z" fill="white"/>
<path fill-rule="evenodd" clip-rule="evenodd" d="M117.635 281.934H390.146C392.651 281.934 394.598 279.757 394.32 277.268L377.15 123.505C376.912 121.379 375.115 119.771 372.976 119.771H100.464C97.9603 119.771 96.0125 121.948 96.2904 124.437L113.461 278.201C113.699 280.327 115.496 281.934 117.635 281.934ZM390.146 282.734C393.128 282.734 395.446 280.142 395.116 277.18L377.945 123.416C377.662 120.885 375.522 118.971 372.976 118.971H100.464C97.4833 118.971 95.1645 121.563 95.4954 124.526L112.666 278.289C112.949 280.82 115.088 282.734 117.635 282.734H390.146Z" fill="black"/>
<path d="M233.587 114.346C230.999 114.346 228.893 112.349 228.893 109.894C228.893 107.438 230.999 105.441 233.587 105.441C236.176 105.441 238.282 107.438 238.282 109.894C238.282 112.349 236.176 114.346 233.587 114.346ZM233.587 106.23C231.435 106.23 229.682 107.874 229.682 109.894C229.682 111.914 231.433 113.557 233.587 113.557C235.742 113.557 237.493 111.914 237.493 109.894C237.493 107.874 235.74 106.23 233.587 106.23Z" fill="black"/>
<path d="M136.319 249.209H193.621C195.689 249.209 197.209 247.515 196.996 245.447L185.603 134.88C185.39 132.812 183.522 131.118 181.454 131.118H124.153C122.084 131.118 120.564 132.812 120.778 134.88L132.17 245.447C132.383 247.515 134.251 249.209 136.319 249.209Z" fill="white"/>
<path d="M193.62 249.603H136.319C134.048 249.603 132.01 247.757 131.777 245.488L120.387 134.921C120.272 133.805 120.605 132.751 121.324 131.953C122.039 131.161 123.045 130.726 124.154 130.726H181.454C183.725 130.726 185.763 132.572 185.996 134.841L197.386 245.408C197.501 246.524 197.167 247.578 196.449 248.376C195.734 249.168 194.728 249.603 193.619 249.603H193.62ZM124.152 131.512C123.269 131.512 122.471 131.857 121.908 132.48C121.34 133.109 121.079 133.948 121.17 134.839L132.56 245.406C132.754 247.286 134.439 248.815 136.319 248.815H193.62C194.504 248.815 195.302 248.471 195.864 247.847C196.433 247.218 196.694 246.379 196.603 245.488L185.212 134.921C185.019 133.043 183.334 131.512 181.454 131.512H124.154H124.152Z" fill="black"/>
<path d="M139.031 242.186H189.46C191.025 242.186 192.174 240.906 192.013 239.34L181.63 138.559C181.468 136.994 180.056 135.713 178.491 135.713H128.062C126.497 135.713 125.348 136.993 125.509 138.559L135.892 239.34C136.054 240.904 137.466 242.186 139.031 242.186Z" fill="white"/>
<path d="M189.462 242.58H139.032C137.267 242.58 135.684 241.144 135.501 239.381L125.118 138.6C125.029 137.727 125.288 136.905 125.851 136.281C126.41 135.661 127.195 135.32 128.063 135.32H178.493C180.258 135.32 181.841 136.756 182.024 138.52L192.407 239.3C192.496 240.173 192.236 240.996 191.674 241.619C191.114 242.24 190.329 242.58 189.462 242.58ZM128.061 136.109C127.42 136.109 126.842 136.358 126.436 136.81C126.025 137.265 125.835 137.873 125.901 138.52L136.285 239.3C136.426 240.675 137.657 241.791 139.03 241.791H189.46C190.102 241.791 190.679 241.542 191.086 241.091C191.496 240.635 191.686 240.028 191.62 239.381L181.237 138.6C181.095 137.226 179.864 136.109 178.491 136.109H128.061Z" fill="black"/>
<path d="M159.913 141.554H147.029C146.811 141.554 146.635 141.379 146.635 141.16C146.635 140.941 146.811 140.766 147.029 140.766H159.913C160.131 140.766 160.307 140.941 160.307 141.16C160.307 141.379 160.131 141.554 159.913 141.554Z" fill="black"/>
<path d="M183.511 210.176H138.385L132.698 154.974H177.824L183.511 210.176Z" fill="white"/>
<path d="M183.511 210.57H138.385C138.182 210.57 138.014 210.418 137.992 210.217L132.305 155.015C132.295 154.904 132.33 154.792 132.406 154.71C132.481 154.627 132.587 154.579 132.698 154.579H177.826C178.028 154.579 178.197 154.731 178.218 154.932L183.905 210.135C183.916 210.246 183.88 210.357 183.805 210.44C183.73 210.522 183.624 210.57 183.513 210.57H183.511ZM138.74 209.782H183.074L177.467 155.368H133.133L138.74 209.782Z" fill="black"/>
<path d="M158.342 149.435H132.086C131.868 149.435 131.692 149.259 131.692 149.041C131.692 148.822 131.868 148.646 132.086 148.646H158.342C158.561 148.646 158.737 148.822 158.737 149.041C158.737 149.259 158.561 149.435 158.342 149.435Z" fill="black"/>
<path d="M183.057 214.421H172.659C172.441 214.421 172.265 214.246 172.265 214.027C172.265 213.808 172.441 213.633 172.659 213.633H183.057C183.276 213.633 183.451 213.808 183.451 214.027C183.451 214.246 183.276 214.421 183.057 214.421Z" fill="black"/>
<path d="M177.826 229.243C177.478 225.875 174.467 223.144 171.097 223.144H153.473C150.104 223.144 147.653 225.875 148.001 229.243C148.349 232.611 151.36 235.342 154.73 235.342H172.354C175.723 235.342 178.174 232.611 177.826 229.243Z" fill="#F5A9F1"/>
<path d="M308.106 250.252H365.408C367.476 250.252 368.996 248.558 368.783 246.49L357.391 135.923C357.177 133.855 355.31 132.161 353.241 132.161H295.94C293.872 132.161 292.352 133.855 292.565 135.923L303.957 246.49C304.17 248.558 306.038 250.252 308.106 250.252Z" fill="white"/>
<path d="M365.406 250.646H308.104C305.833 250.646 303.796 248.8 303.563 246.531L292.17 135.964C292.056 134.848 292.389 133.794 293.108 132.996C293.823 132.204 294.828 131.769 295.938 131.769H353.239C355.51 131.769 357.546 133.615 357.781 135.884L369.173 246.45C369.288 247.567 368.955 248.623 368.236 249.419C367.521 250.211 366.517 250.646 365.408 250.646H365.406ZM295.94 132.555C295.056 132.555 294.258 132.9 293.696 133.523C293.127 134.152 292.866 134.991 292.957 135.882L304.349 246.449C304.543 248.329 306.228 249.858 308.106 249.858H365.408C366.291 249.858 367.089 249.514 367.652 248.89C368.22 248.261 368.482 247.422 368.39 246.529L356.998 135.963C356.804 134.084 355.12 132.554 353.241 132.554H295.94V132.555Z" fill="black"/>
<path d="M310.819 243.229H361.249C362.813 243.229 363.962 241.949 363.801 240.383L353.418 139.602C353.257 138.037 351.844 136.756 350.28 136.756H299.85C298.285 136.756 297.136 138.036 297.298 139.602L307.681 240.383C307.842 241.947 309.254 243.229 310.819 243.229Z" fill="white"/>
<path d="M361.248 243.623H310.819C309.053 243.623 307.471 242.187 307.288 240.424L296.905 139.643C296.815 138.77 297.075 137.948 297.638 137.324C298.197 136.704 298.982 136.363 299.848 136.363H350.278C352.043 136.363 353.626 137.799 353.808 139.563L364.192 240.343C364.281 241.216 364.021 242.039 363.458 242.662C362.899 243.283 362.114 243.623 361.247 243.623H361.248ZM299.848 137.15C299.208 137.15 298.629 137.399 298.222 137.851C297.812 138.306 297.622 138.914 297.688 139.561L308.071 240.341C308.213 241.716 309.444 242.833 310.817 242.833H361.247C361.888 242.833 362.465 242.583 362.872 242.132C363.283 241.677 363.473 241.069 363.406 240.422L353.023 139.641C352.882 138.267 351.65 137.15 350.278 137.15H299.848Z" fill="black"/>
<path d="M331.699 142.599H318.815C318.597 142.599 318.421 142.424 318.421 142.205C318.421 141.986 318.597 141.811 318.815 141.811H331.699C331.917 141.811 332.093 141.986 332.093 142.205C332.093 142.424 331.917 142.599 331.699 142.599Z" fill="black"/>
<path d="M349.612 230.287C349.264 226.917 346.253 224.188 342.883 224.188H325.259C321.889 224.188 319.439 226.919 319.787 230.287C320.134 233.655 323.146 236.386 326.515 236.386H344.139C347.509 236.386 349.959 233.655 349.612 230.287Z" fill="#F5A9F1"/>
<path d="M325.521 167.363H308.245L306.465 150.087H323.742L325.521 167.363Z" fill="#F5A9F1"/>
<path d="M348.187 167.363H330.911L329.131 150.087H346.407L348.187 167.363Z" fill="#F5A9F1"/>
<path d="M327.773 189.215H310.497L308.717 171.938H325.993L327.773 189.215Z" fill="#F5A9F1"/>
<path d="M350.439 189.215H333.164L331.383 171.938H348.659L350.439 189.215Z" fill="#F5A9F1"/>
<path d="M351.614 201.023H311.671C311.452 201.023 311.277 200.847 311.277 200.629C311.277 200.41 311.452 200.234 311.671 200.234H351.614C351.832 200.234 352.008 200.41 352.008 200.629C352.008 200.847 351.832 201.023 351.614 201.023Z" fill="black"/>
<path d="M329.786 209.16H312.512C312.293 209.16 312.117 208.984 312.117 208.765C312.117 208.547 312.293 208.371 312.512 208.371H329.786C330.005 208.371 330.181 208.547 330.181 208.765C330.181 208.984 330.005 209.16 329.786 209.16Z" fill="black"/>
<path d="M336.015 217.297H313.349C313.13 217.297 312.955 217.122 312.955 216.903C312.955 216.684 313.13 216.509 313.349 216.509H336.015C336.234 216.509 336.41 216.684 336.41 216.903C336.41 217.122 336.234 217.297 336.015 217.297Z" fill="black"/>
<path d="M222.284 249.209H279.585C281.654 249.209 283.173 247.515 282.96 245.447L271.568 134.88C271.355 132.812 269.487 131.118 267.419 131.118H210.117C208.049 131.118 206.529 132.812 206.742 134.88L218.134 245.447C218.348 247.515 220.215 249.209 222.284 249.209Z" fill="white"/>
<path d="M279.585 249.603H222.283C220.012 249.603 217.976 247.757 217.741 245.488L206.349 134.921C206.234 133.805 206.568 132.751 207.286 131.953C208.002 131.161 209.005 130.726 210.115 130.726H267.416C269.687 130.726 271.725 132.572 271.958 134.841L283.35 245.408C283.465 246.524 283.132 247.578 282.413 248.376C281.698 249.168 280.692 249.603 279.583 249.603H279.585ZM210.117 131.512C209.233 131.512 208.435 131.857 207.873 132.48C207.304 133.109 207.043 133.948 207.134 134.841L218.526 245.408C218.72 247.288 220.405 248.817 222.283 248.817H279.585C280.468 248.817 281.266 248.472 281.829 247.849C282.397 247.22 282.658 246.381 282.567 245.49L271.175 134.923C270.981 133.043 269.296 131.514 267.418 131.514H210.117V131.512Z" fill="black"/>
<path d="M224.995 242.186H275.425C276.989 242.186 278.138 240.906 277.977 239.34L267.594 138.559C267.432 136.994 266.02 135.713 264.455 135.713H214.026C212.461 135.713 211.312 136.993 211.473 138.559L221.856 239.34C222.018 240.904 223.43 242.186 224.995 242.186Z" fill="white"/>
<path d="M275.424 242.58H224.995C223.229 242.58 221.647 241.144 221.464 239.381L211.081 138.6C210.991 137.727 211.251 136.905 211.814 136.281C212.373 135.661 213.158 135.32 214.026 135.32H264.455C266.221 135.32 267.803 136.756 267.986 138.52L278.369 239.3C278.459 240.173 278.199 240.996 277.636 241.619C277.077 242.24 276.292 242.58 275.426 242.58H275.424ZM214.026 136.109C213.384 136.109 212.807 136.358 212.4 136.81C211.99 137.265 211.8 137.873 211.866 138.52L222.249 239.3C222.391 240.675 223.622 241.791 224.995 241.791H275.424C276.064 241.791 276.643 241.542 277.05 241.091C277.461 240.635 277.651 240.028 277.584 239.381L267.201 138.6C267.06 137.226 265.828 136.109 264.455 136.109H214.026Z" fill="black"/>
<path d="M245.876 141.554H232.992C232.774 141.554 232.598 141.379 232.598 141.16C232.598 140.941 232.774 140.766 232.992 140.766H245.876C246.094 140.766 246.27 140.941 246.27 141.16C246.27 141.379 246.094 141.554 245.876 141.554Z" fill="black"/>
<path d="M263.79 229.243C263.443 225.875 260.431 223.144 257.062 223.144H239.438C236.068 223.144 233.618 225.875 233.965 229.243C234.313 232.611 237.324 235.342 240.694 235.342H258.318C261.688 235.342 264.138 232.611 263.79 229.243Z" fill="#F5A9F1"/>
<path d="M233.416 177.158C235.617 174.841 235.32 170.985 232.752 168.546C230.184 166.107 226.318 166.007 224.117 168.324C221.917 170.641 222.214 174.496 224.782 176.935C227.35 179.375 231.216 179.474 233.416 177.158Z" fill="#F5A9F1"/>
<path d="M262.912 169.953H258.739C258.521 169.953 258.345 169.777 258.345 169.558C258.345 169.34 258.521 169.164 258.739 169.164H262.912C263.131 169.164 263.306 169.34 263.306 169.558C263.306 169.777 263.131 169.953 262.912 169.953Z" fill="black"/>
<path d="M253.104 169.953H237.752C237.534 169.953 237.358 169.777 237.358 169.558C237.358 169.34 237.534 169.164 237.752 169.164H253.104C253.322 169.164 253.498 169.34 253.498 169.558C253.498 169.777 253.322 169.953 253.104 169.953Z" fill="black"/>
<path d="M261.019 176.401H238.416C238.197 176.401 238.021 176.225 238.021 176.007C238.021 175.788 238.197 175.612 238.416 175.612H261.019C261.238 175.612 261.413 175.788 261.413 176.007C261.413 176.225 261.238 176.401 261.019 176.401Z" fill="black"/>
<path d="M231.379 157.857C233.58 155.54 233.282 151.685 230.714 149.245C228.146 146.806 224.281 146.706 222.08 149.023C219.879 151.34 220.177 155.195 222.745 157.635C225.312 160.074 229.178 160.173 231.379 157.857Z" fill="#F5A9F1"/>
<path d="M260.871 150.649H256.698C256.479 150.649 256.304 150.473 256.304 150.255C256.304 150.036 256.479 149.86 256.698 149.86H260.871C261.089 149.86 261.265 150.036 261.265 150.255C261.265 150.473 261.089 150.649 260.871 150.649Z" fill="black"/>
<path d="M251.065 150.649H235.714C235.495 150.649 235.319 150.473 235.319 150.255C235.319 150.036 235.495 149.86 235.714 149.86H251.065C251.284 149.86 251.459 150.036 251.459 150.255C251.459 150.473 251.284 150.649 251.065 150.649Z" fill="black"/>
<path d="M258.98 157.097H236.376C236.158 157.097 235.982 156.922 235.982 156.703C235.982 156.484 236.158 156.309 236.376 156.309H258.98C259.198 156.309 259.374 156.484 259.374 156.703C259.374 156.922 259.198 157.097 258.98 157.097Z" fill="black"/>
<path d="M267.667 199.384H246.727L245.885 191.207H266.825L267.667 199.384Z" fill="#F5A9F1"/>
<path d="M246.727 199.384H225.787L224.945 191.207H245.885L246.727 199.384Z" fill="white"/>
<path d="M246.727 199.776H225.787C225.585 199.776 225.416 199.624 225.395 199.423L224.552 191.248C224.541 191.137 224.577 191.026 224.653 190.943C224.728 190.861 224.834 190.812 224.945 190.812H245.885C246.087 190.812 246.256 190.965 246.277 191.166L247.12 199.341C247.13 199.452 247.095 199.563 247.019 199.645C246.944 199.728 246.838 199.776 246.727 199.776ZM226.144 198.989H246.29L245.528 191.601H225.382L226.144 198.989Z" fill="black"/>
<path d="M269.016 212.464H248.076L247.233 204.287H268.173L269.016 212.464Z" fill="#F5A9F1"/>
<path d="M248.076 212.464H227.136L226.293 204.287H247.233L248.076 212.464Z" fill="white"/>
<path d="M248.076 212.858H227.136C226.933 212.858 226.765 212.706 226.743 212.505L225.901 204.33C225.89 204.219 225.926 204.108 226.001 204.025C226.076 203.943 226.182 203.895 226.293 203.895H247.233C247.436 203.895 247.604 204.047 247.626 204.248L248.468 212.423C248.479 212.534 248.443 212.645 248.368 212.727C248.293 212.81 248.187 212.858 248.076 212.858ZM227.492 212.069H247.638L246.877 204.681H226.731L227.492 212.069Z" fill="black"/>
<path d="M20.3923 361.633H156.568V320.394H20.3923V361.633Z" fill="white"/>
<path d="M156.568 362.027H78.3429C78.1242 362.027 77.9486 361.851 77.9486 361.633C77.9486 361.414 78.1242 361.238 78.3429 361.238H156.174V320.789H20.7886V361.238H34.6113C34.8299 361.238 35.0056 361.414 35.0056 361.633C35.0056 361.851 34.8299 362.027 34.6113 362.027H20.3943C20.1756 362.027 20 361.851 20 361.633V320.394C20 320.177 20.1756 320 20.3943 320H156.568C156.787 320 156.963 320.176 156.963 320.394V361.633C156.963 361.85 156.787 362.027 156.568 362.027Z" fill="black"/>
<path d="M53.2819 329.146H33.0767V352.881H53.2819V329.146Z" fill="black"/>
<path d="M53.2804 353.276H33.0752C32.8566 353.276 32.6809 353.1 32.6809 352.882V329.147C32.6809 328.93 32.8566 328.753 33.0752 328.753H53.2804C53.4991 328.753 53.6747 328.929 53.6747 329.147V352.882C53.6747 353.098 53.4991 353.276 53.2804 353.276ZM33.4713 352.487H52.8879V329.542H33.4713V352.487Z" fill="black"/>
<path d="M83.713 329.147H63.5078V352.882H83.713V329.147Z" fill="#F5A9F1"/>
<path d="M114.144 329.147H93.9387V352.882H114.144V329.147Z" fill="#FFDBFD"/>
<path d="M144.814 329.146H124.609V352.881H144.814V329.146Z" fill="white"/>
<path d="M144.814 353.276H124.609C124.39 353.276 124.215 353.1 124.215 352.882V329.147C124.215 328.93 124.39 328.753 124.609 328.753H144.814C145.033 328.753 145.208 328.929 145.208 329.147V352.882C145.208 353.098 145.033 353.276 144.814 353.276ZM125.003 352.487H144.42V329.542H125.003V352.487Z" fill="black"/>
<path d="M413.572 297.275L406.274 421.492C406.016 424.939 403.144 427.604 399.689 427.604H370.412C367.168 427.604 364.63 424.81 364.942 421.58L365.535 415.425L371.993 287.145L413.572 297.275Z" fill="white"/>
<path d="M399.69 427.997H370.414C368.756 427.997 367.168 427.293 366.053 426.067C364.94 424.841 364.391 423.19 364.551 421.541L365.144 415.386L371.6 287.124C371.606 287.007 371.665 286.898 371.758 286.828C371.851 286.758 371.973 286.733 372.086 286.762L413.665 296.892C413.85 296.937 413.977 297.109 413.966 297.299L406.668 421.516C406.395 425.155 403.33 427.999 399.688 427.999L399.69 427.997ZM372.364 287.64L365.929 415.444L365.334 421.617C365.196 423.045 365.671 424.474 366.635 425.536C367.601 426.599 368.976 427.209 370.412 427.209H399.688C402.92 427.209 405.639 424.685 405.881 421.462L413.159 297.58L372.364 287.64Z" fill="black"/>
<path d="M404.293 418.028C404.293 418.028 404.287 418.028 404.284 418.028C390.563 417.711 382.094 417.037 369.276 416.017L365.895 415.748C365.678 415.73 365.517 415.54 365.533 415.323C365.551 415.106 365.737 414.943 365.958 414.961L369.338 415.23C382.145 416.248 390.605 416.922 404.303 417.239C404.52 417.245 404.694 417.426 404.689 417.643C404.683 417.858 404.508 418.028 404.295 418.028H404.293Z" fill="black"/>
<path d="M396.133 397.367C386.217 397.367 377.395 396.497 366.535 394.563C366.322 394.526 366.179 394.32 366.216 394.106C366.254 393.893 366.457 393.75 366.674 393.787C381.154 396.366 391.999 397.044 406.688 396.286C406.896 396.275 407.091 396.442 407.102 396.659C407.113 396.875 406.946 397.062 406.729 397.073C402.99 397.266 399.497 397.365 396.133 397.365V397.367Z" fill="black"/>
<path d="M393.862 297.276L345.479 421.493C345.221 424.94 342.35 427.605 338.894 427.605H293.591C291.768 427.605 290.961 425.313 292.383 424.171L303.264 415.426L357.605 287.146L393.862 297.276Z" fill="white"/>
<path d="M338.894 428H293.59C292.59 428 291.73 427.39 291.398 426.448C291.067 425.505 291.355 424.49 292.135 423.865L302.937 415.183L357.24 286.994C357.317 286.811 357.518 286.714 357.71 286.768L393.967 296.898C394.075 296.929 394.165 297.002 394.213 297.102C394.261 297.203 394.269 297.318 394.227 297.421L345.866 421.583C345.565 425.186 342.514 428 338.892 428H338.894ZM357.832 287.619L303.626 415.581C303.601 415.64 303.559 415.693 303.509 415.735L292.628 424.48C292.002 424.981 291.966 425.691 292.142 426.186C292.316 426.682 292.789 427.211 293.59 427.211H338.894C342.125 427.211 344.844 424.688 345.086 421.465C345.088 421.425 345.097 421.388 345.111 421.352L393.335 297.542L357.83 287.621L357.832 287.619Z" fill="black"/>
<path d="M343.498 418.031C343.498 418.031 343.493 418.031 343.489 418.031C328.606 417.687 318.644 416.939 303.622 415.751C303.405 415.733 303.244 415.543 303.26 415.326C303.278 415.109 303.461 414.946 303.685 414.964C318.692 416.151 328.645 416.896 343.509 417.241C343.726 417.246 343.9 417.427 343.895 417.644C343.889 417.859 343.714 418.029 343.5 418.029L343.498 418.031Z" fill="black"/>
<path d="M344.816 396.076C333.999 396.076 325.347 394.956 314.688 393.057C314.475 393.02 314.331 392.814 314.369 392.6C314.407 392.387 314.607 392.244 314.826 392.281C328.322 394.685 338.591 395.836 354.157 395.033C354.369 395.024 354.561 395.189 354.572 395.405C354.582 395.622 354.416 395.809 354.199 395.819C350.856 395.992 347.755 396.074 344.816 396.074V396.076Z" fill="black"/>
<path d="M435.62 258.214C437.21 253.833 438.373 248.829 438.723 243.212C439.997 222.711 413.573 201.839 413.573 201.839L406.367 201.455L413.573 249.108L412.438 253.003C416.777 255.376 426.522 259.868 435.622 258.214H435.62Z" fill="#F5A9F1"/>
<path d="M412.436 253.002L406.366 273.845C406.366 273.845 416.767 282.965 421.07 279.523C424.194 277.025 431.41 269.816 435.619 258.212C426.519 259.867 416.774 255.375 412.435 253.002H412.436Z" fill="white"/>
<path d="M418.638 280.689C413.643 280.689 406.468 274.459 406.106 274.142C405.943 273.998 405.925 273.749 406.07 273.586C406.213 273.421 406.463 273.407 406.626 273.55C406.728 273.64 416.828 282.413 420.825 279.217C422.414 277.947 430.579 270.957 435.249 258.08C435.323 257.876 435.551 257.77 435.755 257.844C435.959 257.917 436.065 258.145 435.992 258.349C431.249 271.424 422.936 278.54 421.318 279.834C420.561 280.438 419.643 280.691 418.638 280.691V280.689Z" fill="black"/>
<path d="M379.708 273.843H423.743L432.364 234.786H388.331L379.708 273.843Z" fill="black"/>
<path d="M413.572 201.837C413.572 201.837 397.312 200.966 381.91 201.471C381.657 202.199 381.405 202.927 381.152 203.652C367.996 241.527 354.842 279.403 341.688 317.277C342.286 317.454 346.792 318.797 350.698 315.945C352.951 314.302 354.806 311.203 355.057 305.521C355.057 305.521 359.178 321.519 386.156 319.632C413.135 317.745 416.097 312.576 416.097 312.576L413.572 201.833V201.837Z" fill="#F5A9F1"/>
<path d="M414.412 234.854C414.391 234.854 414.367 234.852 414.344 234.848C414.129 234.81 413.985 234.606 414.023 234.391L415.966 223.287C415.989 223.153 416.081 223.04 416.208 222.99C416.333 222.94 416.479 222.958 416.588 223.038L417.848 223.97C418.024 224.099 418.061 224.347 417.93 224.522C417.801 224.698 417.554 224.736 417.378 224.605L416.629 224.053L414.796 234.527C414.762 234.719 414.595 234.854 414.407 234.854H414.412Z" fill="black"/>
<path d="M381.91 201.473L345.554 206.036C345.554 206.036 346.043 204.36 346.688 201.774C337.59 206.581 330.823 203.301 327.706 200.562C324.055 205.918 320.71 212.679 322.16 218.077C325.019 228.724 347.834 235.302 380.865 225.706L385.577 203.889L381.91 201.475V201.473Z" fill="#F5A9F1"/>
<path d="M346.691 201.771C347.908 196.898 349.68 188.793 349.783 182.573C349.939 173.054 345.447 168.917 343.816 169.546C342.185 170.176 343.142 172.088 343.816 173.755C344.49 175.422 344.841 176.874 344.841 176.874C344.841 176.874 342.395 174.156 340.554 177.229C340.554 177.229 337.709 174.332 336.37 177.548C336.37 177.548 333.311 175.217 332.022 178.92C330.734 182.623 333.893 182.575 333.893 182.575C333.893 182.575 333.947 188.59 335.096 191.474C335.096 191.474 331.259 195.353 327.708 200.56C330.825 203.298 337.593 206.578 346.691 201.771Z" fill="white"/>
<path d="M346.947 201.122C346.917 201.122 346.884 201.118 346.854 201.111C346.643 201.059 346.512 200.846 346.564 200.634C347.8 195.533 349.295 188.256 349.388 182.567C349.508 175.26 346.843 171.426 345.25 170.313C344.732 169.951 344.25 169.802 343.958 169.915C343.669 170.026 343.483 170.186 343.391 170.401C343.119 171.034 343.594 172.183 344.011 173.195L344.182 173.607C344.859 175.282 345.21 176.721 345.223 176.782C345.266 176.957 345.184 177.138 345.024 177.223C344.865 177.307 344.667 177.273 344.547 177.138C344.538 177.128 343.554 176.061 342.491 176.167C341.898 176.226 341.359 176.651 340.891 177.432C340.828 177.536 340.721 177.606 340.601 177.621C340.477 177.635 340.359 177.592 340.273 177.506C339.925 177.153 338.824 176.276 337.939 176.448C337.446 176.545 337.041 176.965 336.734 177.699C336.688 177.812 336.591 177.897 336.473 177.929C336.354 177.961 336.229 177.936 336.132 177.863C336.121 177.854 334.928 176.966 333.858 177.291C333.227 177.483 332.734 178.074 332.395 179.051C332.012 180.153 332.01 180.979 332.392 181.508C332.877 182.18 333.877 182.18 333.886 182.182C333.996 182.179 334.092 182.222 334.168 182.293C334.243 182.367 334.286 182.467 334.286 182.571C334.286 182.63 334.352 188.545 335.462 191.328C335.519 191.474 335.487 191.64 335.376 191.751C335.338 191.791 331.52 195.666 328.034 200.781C327.912 200.961 327.667 201.007 327.486 200.885C327.307 200.763 327.26 200.518 327.382 200.337C330.481 195.79 333.84 192.21 334.637 191.379C333.705 188.787 333.533 184.254 333.503 182.937C333.031 182.869 332.246 182.653 331.75 181.967C331.209 181.218 331.175 180.15 331.648 178.789C332.076 177.56 332.743 176.8 333.63 176.531C334.645 176.224 335.659 176.662 336.204 176.972C336.604 176.235 337.134 175.798 337.788 175.67C338.858 175.464 339.932 176.183 340.475 176.628C341.027 175.869 341.679 175.45 342.418 175.378C343.069 175.316 343.662 175.538 344.13 175.81C343.963 175.278 343.735 174.606 343.45 173.9L343.284 173.493C342.782 172.279 342.264 171.025 342.667 170.086C342.845 169.67 343.183 169.365 343.674 169.175C344.225 168.963 344.945 169.136 345.702 169.663C347.84 171.156 350.295 175.434 350.179 182.576C350.084 188.339 348.578 195.677 347.333 200.817C347.29 200.998 347.128 201.118 346.949 201.118L346.947 201.122Z" fill="black"/>
<path d="M334.06 182.034C334.033 182.034 334.008 182.032 333.981 182.027C333.768 181.984 333.63 181.776 333.673 181.563L334.001 179.948C334.044 179.735 334.254 179.597 334.465 179.64C334.678 179.683 334.816 179.891 334.773 180.104L334.445 181.719C334.408 181.905 334.243 182.034 334.06 182.034Z" fill="black"/>
<path d="M344.315 211.132C344.287 211.132 344.258 211.128 344.227 211.123C344.014 211.075 343.881 210.865 343.93 210.652L344.857 206.54C344.905 206.327 345.116 206.194 345.328 206.242C345.541 206.291 345.674 206.5 345.625 206.714L344.699 210.825C344.658 211.008 344.494 211.134 344.315 211.134V211.132Z" fill="black"/>
<path d="M388.82 189.776L390.544 200.672L386.271 201.523C386.271 201.523 386.977 203.215 402.546 202.427C413.9 201.851 396.337 183.677 396.337 183.677C396.337 183.677 392.723 186.129 388.818 189.778L388.82 189.776Z" fill="white"/>
<path d="M386.271 201.851C386.085 201.851 385.918 201.718 385.884 201.528C385.845 201.315 385.986 201.109 386.202 201.069L390.096 200.356L388.609 190.846C388.589 190.717 388.634 190.586 388.729 190.496C392.502 186.973 393.514 182.522 393.525 182.477C393.572 182.264 393.781 182.13 393.995 182.176C394.208 182.223 394.342 182.433 394.296 182.646C394.255 182.836 393.244 187.263 389.421 190.926L390.937 200.612C390.969 200.824 390.829 201.023 390.618 201.06L386.345 201.844C386.32 201.847 386.297 201.851 386.273 201.851H386.271Z" fill="black"/>
<path d="M378.528 180.271C380.035 181.603 381.517 181.52 383.638 181.986C388.8 183.121 394.283 186.75 394.419 190.104C394.453 190.935 394.173 190.957 394.015 192.721C393.869 194.359 394.023 196.036 394.749 197.533C395.073 198.202 395.521 198.827 396.078 199.322C396.65 199.831 397.337 200.166 397.957 200.603C398.677 201.112 399.009 201.826 399.366 202.605C399.685 203.299 400.079 203.943 400.559 204.536C401.52 205.715 402.855 206.627 404.361 206.929C405.06 207.068 405.628 207.007 406.761 206.9C409.164 206.672 409.267 206.138 410.433 206.312C411.025 206.4 410.942 206.529 413.708 207.889C414.558 208.307 415.02 208.535 415.484 208.737C416.38 209.128 418.157 209.902 419.781 209.981C422.7 210.123 426.023 208.061 427.016 205.233C427.405 204.129 427.375 203.088 427.355 202.745C427.28 201.381 426.78 200.283 425.998 198.562C425.477 197.415 425.206 197.031 424.98 196.074C424.711 194.931 424.783 194.133 424.805 193.927C424.917 192.848 425.314 192.758 425.414 191.862C425.582 190.357 425.12 188.844 424.183 187.661C423.726 187.084 423.161 186.591 422.523 186.223C421.89 185.861 421.188 185.635 420.496 185.415C419.85 185.209 419.195 185.01 418.603 184.669C417.96 184.297 417.513 183.759 417.185 183.096C416.531 181.773 416.282 180.194 415.074 179.215C412.52 177.147 409.197 178.952 406.322 178.622C404.73 178.439 403.528 177.493 402.644 176.258C402.379 175.708 402.205 175.208 402.097 174.847C402.147 174.838 402.196 174.831 402.246 174.822C404.099 174.5 406.121 173.77 406.983 171.953C407.827 170.175 407.403 168.115 406.119 166.667C404.888 165.276 402.8 164.468 400.986 165.102C399.728 165.543 398.763 166.705 398.608 168.004C397.425 166.83 395.901 166.016 394.211 165.756C392.931 165.559 391.608 165.649 390.377 166.054C389.363 166.387 388.448 166.995 387.439 167.314C386.518 167.328 385.6 167.361 384.726 167.475C384.012 167.463 381.342 167.504 379.08 169.502C378.727 169.814 375.95 172.352 376.391 176.041C376.452 176.554 376.771 178.721 378.522 180.269L378.528 180.271Z" fill="black"/>
<path d="M401.606 174.536C401.552 174.536 401.497 174.526 401.443 174.501C401.36 174.463 399.416 173.565 398.588 171.982C397.76 170.398 398.021 168.962 398.034 168.903C398.075 168.69 398.279 168.55 398.496 168.591C398.71 168.632 398.849 168.839 398.808 169.052C398.803 169.082 398.595 170.298 399.287 171.618C399.988 172.959 401.751 173.776 401.769 173.785C401.966 173.875 402.054 174.11 401.964 174.307C401.898 174.452 401.755 174.538 401.606 174.538V174.536Z" fill="white"/>
<path d="M378.774 177.397C378.774 177.397 384.576 175.689 385.832 178.282C387.088 180.876 387.925 182.039 389.711 182.222C389.711 182.222 392.779 178.035 395.256 180.476C397.733 182.917 395.554 186.156 392.759 186.97C392.759 186.97 392.234 191.183 387.212 192.08C382.192 192.976 379.815 185.466 378.774 177.395V177.397Z" fill="white"/>
<path d="M386.412 192.547C385.446 192.547 384.543 192.243 383.719 191.639C381.148 189.753 379.354 184.978 378.383 177.447C378.358 177.255 378.476 177.072 378.662 177.018C378.911 176.945 384.799 175.247 386.187 178.11C387.337 180.485 388.085 181.566 389.538 181.8C390.012 181.214 391.557 179.467 393.306 179.325C394.129 179.259 394.881 179.551 395.534 180.194C396.557 181.203 396.943 182.46 396.622 183.734C396.227 185.294 394.829 186.692 393.102 187.276C392.883 188.246 391.795 191.664 387.282 192.468C386.986 192.52 386.697 192.547 386.412 192.547ZM379.209 177.685C380.148 184.7 381.867 189.301 384.185 191.002C385.083 191.662 386.052 191.886 387.142 191.692C391.822 190.857 392.361 186.96 392.367 186.921C392.386 186.765 392.496 186.636 392.648 186.591C394.197 186.14 395.516 184.885 395.856 183.541C396.111 182.535 395.808 181.573 394.98 180.755C394.491 180.273 393.962 180.064 393.369 180.11C391.662 180.246 390.046 182.429 390.029 182.453C389.947 182.566 389.811 182.627 389.671 182.612C387.712 182.41 386.794 181.166 385.479 178.452C384.626 176.694 380.931 177.239 379.211 177.685H379.209Z" fill="black"/>
<path d="M391.166 185.187C391.132 185.187 391.098 185.183 391.066 185.174C390.854 185.119 390.729 184.902 390.786 184.692C391.109 183.479 392.145 182.475 393.367 182.194C393.579 182.145 393.79 182.278 393.84 182.489C393.889 182.701 393.756 182.914 393.545 182.962C392.598 183.181 391.797 183.957 391.548 184.896C391.502 185.074 391.342 185.19 391.168 185.19L391.166 185.187Z" fill="black"/>
<path d="M150.042 86.0355H58.1053L54.3933 50.3945H146.332L150.042 86.0355Z" fill="white"/>
<path d="M150.042 86.4296H58.1051C57.9025 86.4296 57.7341 86.2772 57.7126 86.0765L54.0024 50.4355C53.9898 50.3244 54.0275 50.2133 54.101 50.1308C54.1762 50.0484 54.282 50 54.3931 50H146.332C146.534 50 146.703 50.1524 146.724 50.3531L150.436 85.994C150.447 86.1052 150.411 86.2163 150.338 86.2987C150.262 86.3812 150.157 86.4296 150.046 86.4296H150.042ZM58.46 85.6409H149.606L145.977 50.7886H54.8304L58.46 85.6409Z" fill="black"/>
<path d="M93.9331 79.8861H66.2825L63.8521 56.5479H91.5027L93.9331 79.8861Z" fill="white"/>
<path d="M93.933 80.2802H66.2824C66.0798 80.2802 65.9114 80.1278 65.8898 79.9271L63.4594 56.5889C63.4469 56.4777 63.4845 56.3666 63.558 56.2842C63.6333 56.2017 63.739 56.1533 63.8501 56.1533H91.5008C91.7033 56.1533 91.8718 56.3057 91.8933 56.5064L94.3237 79.8446C94.3363 79.9558 94.2986 80.0669 94.2252 80.1493C94.1499 80.2318 94.0441 80.2802 93.933 80.2802ZM66.6373 79.4915H93.4957L91.1477 56.942H64.2911L66.639 79.4915H66.6373Z" fill="black"/>
<path d="M87.078 64.001C86.879 64.001 86.707 63.8504 86.6872 63.6479L86.4883 61.73H69.9467L70.1384 63.5654C70.1617 63.7823 70.004 63.9759 69.7871 63.9992C69.5685 64.0225 69.3767 63.8647 69.3552 63.6479L69.1186 61.3769C69.106 61.2658 69.1437 61.1547 69.2172 61.0722C69.2925 60.9898 69.3982 60.9414 69.5093 60.9414H86.8432C87.0457 60.9414 87.2142 61.0938 87.2357 61.2945L87.4723 63.5654C87.4956 63.7823 87.3379 63.9759 87.121 63.9992C87.1066 63.9992 87.0941 64.001 87.0798 64.001H87.078Z" fill="black"/>
<path d="M79.6077 75.4905C79.4087 75.4905 79.2367 75.3399 79.217 75.1374L77.9032 62.5103C77.8799 62.2934 78.0376 62.0998 78.2545 62.0765C78.4749 62.0532 78.6649 62.2109 78.6864 62.4278L80.0002 75.0549C80.0235 75.2718 79.8658 75.4654 79.6489 75.4887C79.6346 75.4887 79.622 75.4905 79.6077 75.4905Z" fill="black"/>
<path d="M82.457 75.4918H76.7591C76.5404 75.4918 76.3647 75.3161 76.3647 75.0974C76.3647 74.8788 76.5404 74.7031 76.7591 74.7031H82.457C82.6756 74.7031 82.8513 74.8788 82.8513 75.0974C82.8513 75.3161 82.6756 75.4918 82.457 75.4918Z" fill="black"/>
<path d="M138.262 61.9947H98.9178C98.6991 61.9947 98.5234 61.819 98.5234 61.6004C98.5234 61.3817 98.6991 61.2061 98.9178 61.2061H138.262C138.48 61.2061 138.656 61.3817 138.656 61.6004C138.656 61.819 138.48 61.9947 138.262 61.9947Z" fill="black"/>
<path d="M138.76 66.7808H99.4158C99.1971 66.7808 99.0215 66.6052 99.0215 66.3865C99.0215 66.1678 99.1971 65.9922 99.4158 65.9922H138.76C138.978 65.9922 139.154 66.1678 139.154 66.3865C139.154 66.6052 138.978 66.7808 138.76 66.7808Z" fill="black"/>
<path d="M139.258 71.5718H99.9138C99.6952 71.5718 99.5195 71.3962 99.5195 71.1775C99.5195 70.9589 99.6952 70.7832 99.9138 70.7832H139.258C139.476 70.7832 139.652 70.9589 139.652 71.1775C139.652 71.3962 139.476 71.5718 139.258 71.5718Z" fill="black"/>
<path d="M139.757 76.358H100.413C100.194 76.358 100.018 76.1823 100.018 75.9637C100.018 75.745 100.194 75.5693 100.413 75.5693H139.757C139.975 75.5693 140.151 75.745 140.151 75.9637C140.151 76.1823 139.975 76.358 139.757 76.358Z" fill="black"/>
<path d="M440.774 80.0793C440.593 80.09 440.416 80.1169 440.242 80.1492C439.69 78.407 438.885 76.7813 437.872 75.3188C438.005 75.2005 438.134 75.0768 438.254 74.9406C439.867 73.1088 439.69 70.3145 437.858 68.7014C436.026 67.0883 433.232 67.2657 431.619 69.0975C431.499 69.2337 431.391 69.3771 431.291 69.5241C429.71 68.7032 427.998 68.1117 426.199 67.7837C426.209 67.6063 426.211 67.427 426.199 67.246C426.045 64.8102 423.944 62.9587 421.506 63.1146C419.07 63.2688 417.219 65.3694 417.375 67.807C417.386 67.988 417.413 68.1655 417.445 68.3393C415.703 68.8914 414.077 69.6944 412.614 70.7088C412.496 70.5762 412.372 70.4472 412.236 70.3271C410.404 68.7139 407.61 68.8914 405.997 70.7232C404.384 72.555 404.561 75.3492 406.393 76.9624C406.529 77.0824 406.673 77.19 406.82 77.2904C405.999 78.8712 405.407 80.5829 405.079 82.3824C404.902 82.3717 404.723 82.3699 404.542 82.3824C402.106 82.5366 400.254 84.6372 400.41 87.0748C400.564 89.5106 402.665 91.3621 405.103 91.2062C405.284 91.1954 405.461 91.1685 405.635 91.1363C406.187 92.8785 406.99 94.5041 408.004 95.9667C407.872 96.085 407.743 96.2086 407.623 96.3449C406.01 98.1766 406.187 100.971 408.019 102.584C409.851 104.197 412.645 104.02 414.258 102.188C414.378 102.052 414.486 101.908 414.586 101.761C416.167 102.582 417.879 103.174 419.678 103.502C419.667 103.679 419.666 103.858 419.678 104.039C419.832 106.475 421.933 108.325 424.37 108.171C426.806 108.017 428.658 105.916 428.502 103.478C428.491 103.297 428.464 103.12 428.432 102.946C430.174 102.394 431.8 101.591 433.262 100.577C433.381 100.709 433.504 100.838 433.641 100.958C435.472 102.571 438.267 102.394 439.88 100.562C441.493 98.7305 441.315 95.9362 439.484 94.3231C439.347 94.203 439.204 94.0955 439.057 93.9951C439.878 92.4142 440.469 90.7025 440.797 88.903C440.975 88.9138 441.154 88.9156 441.335 88.903C443.771 88.7489 445.622 86.6482 445.466 84.2106C445.312 81.7748 443.212 79.9233 440.774 80.0793ZM423.458 93.8338C418.932 94.1206 415.032 90.6864 414.746 86.1607C414.459 81.635 417.893 77.7349 422.419 77.4481C426.944 77.1613 430.844 80.5955 431.131 85.1211C431.418 89.6468 427.984 93.547 423.458 93.8338Z" fill="white"/>
<path d="M424.085 108.571C421.568 108.571 419.444 106.607 419.283 104.062C419.277 103.985 419.276 103.906 419.274 103.823C417.688 103.504 416.153 102.981 414.705 102.262C414.655 102.327 414.603 102.388 414.553 102.445C413.703 103.411 412.528 103.987 411.244 104.069C409.961 104.15 408.722 103.727 407.756 102.877C406.79 102.027 406.215 100.852 406.132 99.5684C406.052 98.285 406.475 97.0465 407.324 96.0804C407.376 96.0231 407.43 95.9639 407.487 95.9066C406.591 94.5623 405.878 93.1069 405.362 91.5727C405.279 91.5834 405.2 91.5906 405.123 91.5942C402.472 91.7627 400.182 89.7445 400.013 87.0936C399.931 85.8103 400.356 84.5717 401.205 83.6057C402.055 82.6396 403.231 82.0642 404.514 81.9818C404.591 81.9764 404.67 81.9746 404.752 81.9746C405.071 80.3866 405.595 78.8541 406.313 77.4059C406.249 77.3557 406.188 77.3055 406.131 77.2536C405.165 76.404 404.589 75.2282 404.507 73.9449C404.426 72.6615 404.849 71.423 405.699 70.457C406.548 69.4909 407.724 68.9155 409.007 68.8331C410.291 68.7506 411.529 69.1754 412.495 70.025C412.553 70.0752 412.61 70.129 412.669 70.1881C414.015 69.2919 415.471 68.5786 417.003 68.0624C416.992 67.9817 416.985 67.9029 416.982 67.8258C416.813 65.1767 418.833 62.8843 421.482 62.7158C422.767 62.6351 424.004 63.0581 424.97 63.9077C425.936 64.7573 426.511 65.9331 426.594 67.2164C426.599 67.2935 426.601 67.3723 426.603 67.4548C428.191 67.7738 429.723 68.2972 431.172 69.0159C431.222 68.9514 431.274 68.8904 431.324 68.8313C432.173 67.867 433.347 67.2899 434.633 67.2092C435.916 67.1268 437.154 67.5516 438.121 68.4011C439.087 69.2507 439.662 70.4265 439.744 71.7098C439.825 72.9931 439.402 74.2317 438.552 75.1977C438.502 75.2551 438.449 75.3124 438.389 75.3716C439.286 76.7176 439.999 78.173 440.515 79.7055C440.598 79.6947 440.676 79.6876 440.753 79.684C443.404 79.5155 445.695 81.5337 445.863 84.1846C446.032 86.8337 444.012 89.1261 441.363 89.2946C441.286 89.3 441.207 89.3018 441.124 89.3018C440.805 90.8898 440.282 92.4222 439.563 93.8705C439.628 93.9206 439.689 93.9726 439.746 94.0228C440.712 94.8724 441.288 96.0482 441.37 97.3315C441.451 98.6148 441.028 99.8533 440.178 100.819C439.329 101.785 438.153 102.361 436.869 102.443C435.588 102.526 434.348 102.101 433.383 101.251C433.326 101.201 433.269 101.147 433.209 101.088C431.863 101.984 430.41 102.698 428.876 103.214C428.886 103.295 428.893 103.374 428.897 103.451C428.98 104.734 428.555 105.972 427.705 106.939C426.856 107.905 425.68 108.48 424.396 108.562C424.292 108.57 424.19 108.571 424.088 108.571H424.085ZM414.585 101.364C414.646 101.364 414.709 101.379 414.766 101.409C416.333 102.223 418.009 102.795 419.747 103.11C419.942 103.146 420.082 103.322 420.07 103.52C420.059 103.707 420.059 103.863 420.07 104.012C420.21 106.227 422.134 107.915 424.343 107.776C425.416 107.707 426.399 107.225 427.11 106.419C427.822 105.612 428.175 104.576 428.107 103.503C428.098 103.356 428.076 103.201 428.042 103.017C428.006 102.821 428.121 102.63 428.311 102.569C429.996 102.035 431.586 101.255 433.036 100.251C433.199 100.138 433.421 100.163 433.554 100.312C433.677 100.452 433.788 100.561 433.9 100.66C434.708 101.371 435.742 101.725 436.816 101.656C437.889 101.588 438.871 101.106 439.583 100.3C440.295 99.4931 440.648 98.4571 440.58 97.3835C440.511 96.3099 440.029 95.3276 439.223 94.6161C439.112 94.5193 438.986 94.4207 438.834 94.3186C438.669 94.2056 438.615 93.9888 438.707 93.8113C439.52 92.2466 440.092 90.5707 440.409 88.8304C440.445 88.635 440.623 88.497 440.82 88.5077C441.004 88.5185 441.16 88.5185 441.309 88.5095C443.524 88.3697 445.213 86.4519 445.073 84.2366C444.933 82.0212 443.008 80.3328 440.8 80.4726C440.653 80.4816 440.494 80.5031 440.314 80.5371C440.119 80.573 439.925 80.4583 439.866 80.2683C439.332 78.5835 438.552 76.9937 437.549 75.5437C437.436 75.3805 437.463 75.1565 437.611 75.0257C437.751 74.902 437.861 74.7927 437.959 74.6815C438.671 73.875 439.024 72.839 438.956 71.7654C438.888 70.6918 438.406 69.7095 437.599 68.998C436.792 68.2864 435.76 67.9333 434.683 68.0014C433.609 68.0695 432.627 68.5517 431.917 69.3582C431.819 69.4694 431.724 69.593 431.618 69.7472C431.505 69.9103 431.288 69.9658 431.111 69.8744C429.546 69.0607 427.87 68.489 426.13 68.1735C425.934 68.1376 425.795 67.962 425.807 67.763C425.818 67.582 425.818 67.4225 425.807 67.2737C425.739 66.2001 425.257 65.2179 424.45 64.5063C423.644 63.7948 422.611 63.4417 421.534 63.5098C419.319 63.6496 417.63 65.5674 417.77 67.7828C417.779 67.9297 417.801 68.0839 417.835 68.2685C417.871 68.4639 417.756 68.6556 417.566 68.7166C415.881 69.2507 414.291 70.0304 412.841 71.0341C412.678 71.147 412.456 71.1219 412.323 70.9732C412.2 70.8333 412.088 70.724 411.977 70.6254C411.171 69.9139 410.135 69.5608 409.061 69.6289C407.987 69.697 407.005 70.1791 406.294 70.9857C405.582 71.7923 405.229 72.8282 405.297 73.9019C405.365 74.9755 405.847 75.9577 406.654 76.6692C406.765 76.7678 406.889 76.8628 407.043 76.9668C407.208 77.0797 407.262 77.2966 407.17 77.474C406.356 79.0387 405.785 80.7146 405.467 82.455C405.432 82.6503 405.26 82.7901 405.057 82.7776C404.872 82.7668 404.715 82.7668 404.568 82.7776C403.494 82.8457 402.512 83.3278 401.8 84.1344C401.089 84.941 400.736 85.9769 400.804 87.0506C400.944 89.2659 402.86 90.9561 405.077 90.8145C405.225 90.8055 405.38 90.784 405.562 90.75C405.758 90.7141 405.95 90.8288 406.011 91.0188C406.545 92.7054 407.324 94.2953 408.33 95.7435C408.443 95.9066 408.416 96.1306 408.267 96.2633C408.133 96.3833 408.018 96.4963 407.919 96.6092C407.208 97.4157 406.855 98.4517 406.923 99.5253C406.991 100.599 407.473 101.581 408.28 102.293C409.086 103.004 410.119 103.357 411.196 103.289C412.269 103.221 413.252 102.739 413.963 101.932C414.062 101.821 414.157 101.698 414.261 101.544C414.336 101.432 414.46 101.373 414.587 101.373L414.585 101.364ZM422.925 94.2451C420.831 94.2451 418.835 93.4941 417.25 92.0978C415.526 90.5797 414.495 88.4791 414.35 86.1866C414.205 83.8924 414.962 81.6807 416.48 79.9546C417.998 78.2304 420.098 77.1998 422.391 77.0546C427.124 76.7553 431.222 80.3615 431.523 85.0969C431.824 89.8323 428.216 93.9278 423.481 94.2289C423.294 94.2415 423.108 94.2469 422.923 94.2469L422.925 94.2451ZM422.943 77.8235C422.776 77.8235 422.609 77.8289 422.443 77.8397C420.36 77.9723 418.453 78.9079 417.073 80.4744C415.693 82.0409 415.006 84.052 415.139 86.1347C415.272 88.2174 416.207 90.1244 417.774 91.5046C419.34 92.8847 421.344 93.5711 423.434 93.4385C427.736 93.1661 431.012 89.4451 430.74 85.1435C430.476 81.0103 427.029 77.8235 422.945 77.8235H422.943Z" fill="black"/>
<path d="M397.617 62.1366C397.51 62.1635 397.406 62.1994 397.304 62.2388C396.775 61.2512 396.108 60.3622 395.332 59.5951C395.398 59.509 395.463 59.4194 395.518 59.3244C396.284 58.0393 395.862 56.376 394.577 55.6089C393.292 54.8435 391.629 55.2647 390.862 56.5499C390.804 56.6449 390.756 56.7434 390.713 56.8438C389.668 56.5266 388.569 56.3635 387.449 56.3688C387.435 56.2613 387.417 56.152 387.39 56.0444C387.023 54.5944 385.549 53.7162 384.097 54.0836C382.647 54.451 381.769 55.9243 382.137 57.3761C382.164 57.4837 382.199 57.5876 382.239 57.6898C381.251 58.2185 380.362 58.8853 379.595 59.6614C379.509 59.5951 379.419 59.5305 379.324 59.475C378.039 58.7097 376.376 59.1309 375.609 60.416C374.844 61.7011 375.265 63.3644 376.55 64.1315C376.645 64.1889 376.743 64.2373 376.844 64.2803C376.527 65.3252 376.363 66.4239 376.369 67.5442C376.261 67.5585 376.154 67.5764 376.044 67.6033C374.594 67.9707 373.716 69.4441 374.084 70.8959C374.451 72.3459 375.924 73.2241 377.376 72.8567C377.484 72.8298 377.588 72.794 377.69 72.7545C378.219 73.7421 378.885 74.6311 379.661 75.3983C379.595 75.4843 379.531 75.5739 379.475 75.6689C378.71 76.954 379.131 78.6173 380.416 79.3844C381.701 80.1498 383.364 79.7286 384.132 78.4435C384.189 78.3485 384.237 78.2499 384.28 78.1495C385.325 78.4668 386.424 78.6299 387.544 78.6245C387.559 78.732 387.576 78.8414 387.603 78.9489C387.971 80.3989 389.444 81.2772 390.896 80.9097C392.346 80.5423 393.224 79.069 392.857 77.6172C392.83 77.5096 392.794 77.4057 392.755 77.3035C393.742 76.7748 394.631 76.108 395.398 75.3319C395.484 75.3983 395.574 75.4628 395.669 75.5183C396.954 76.2837 398.617 75.8625 399.384 74.5774C400.15 73.2922 399.729 71.6289 398.443 70.8618C398.348 70.8044 398.25 70.7561 398.15 70.713C398.467 69.6681 398.63 68.5694 398.624 67.4492C398.732 67.4348 398.84 67.4169 398.949 67.39C400.399 67.0226 401.277 65.5493 400.91 64.0975C400.542 62.6475 399.069 61.7692 397.617 62.1366ZM388.732 72.3746C386.039 73.0574 383.302 71.4264 382.619 68.7325C381.936 66.0386 383.567 63.3017 386.261 62.6188C388.955 61.9359 391.692 63.5669 392.375 66.2608C393.057 68.9547 391.426 71.6917 388.732 72.3746Z" fill="#F5A9F1"/>
<path d="M438.148 170.104H420.216C419.997 170.104 419.821 169.928 419.821 169.709C419.821 169.491 419.997 169.315 420.216 169.315H437.754V106.514C437.754 106.298 437.929 106.12 438.148 106.12C438.367 106.12 438.542 106.296 438.542 106.514V169.707C438.542 169.924 438.367 170.102 438.148 170.102V170.104Z" fill="black"/>
<path d="M51.1722 153.866C53.0492 151.893 52.8096 148.619 50.6372 146.552C48.4648 144.485 45.1821 144.41 43.3052 146.383C41.4283 148.356 41.6678 151.63 43.8403 153.697C46.0127 155.764 49.2953 155.839 51.1722 153.866Z" fill="#F5A9F1"/>
<path d="M49.7203 138.766C51.5973 136.793 51.3577 133.518 49.1853 131.451C47.0129 129.385 43.7302 129.309 41.8533 131.282C39.9764 133.255 40.2159 136.53 42.3884 138.596C44.5608 140.663 47.8434 140.739 49.7203 138.766Z" fill="#F5A9F1"/>
<path d="M48.265 123.666C50.142 121.693 49.9024 118.418 47.73 116.352C45.5576 114.285 42.2749 114.209 40.398 116.182C38.5211 118.155 38.7606 121.43 40.933 123.497C43.1054 125.563 46.3881 125.639 48.265 123.666Z" fill="#F5A9F1"/>
<path d="M70.3525 188.084H51.3948C51.1922 188.084 51.022 187.93 51.0022 187.727L48.3083 159.774C48.2868 159.557 48.4464 159.365 48.6632 159.344C48.8765 159.322 49.0719 159.482 49.0934 159.699L51.7532 187.295H70.3525C70.5712 187.295 70.7468 187.471 70.7468 187.69C70.7468 187.908 70.5712 188.084 70.3525 188.084Z" fill="black"/>
<path d="M43.908 110.388C43.7072 110.388 43.5352 110.236 43.5154 110.031L40.3735 77.432C40.3627 77.3208 40.3985 77.2115 40.4738 77.129C40.5491 77.0466 40.6549 77 40.766 77H66.6458C66.8644 77 67.0401 77.1774 67.0401 77.3943C67.0401 77.6112 66.8644 77.7886 66.6458 77.7886H41.1997L44.3005 109.956C44.322 110.173 44.1625 110.365 43.9456 110.386C43.9331 110.386 43.9205 110.388 43.908 110.388Z" fill="black"/>
</svg>
