<svg width="466" height="429" viewBox="0 0 466 429" fill="none" xmlns="http://www.w3.org/2000/svg">
<path d="M234.827 148.491C237.08 148.491 238.907 146.666 238.907 144.415C238.907 142.164 237.08 140.339 234.827 140.339C232.574 140.339 230.747 142.164 230.747 144.415C230.747 146.666 232.574 148.491 234.827 148.491Z" fill="#BBB9FA"/>
<path d="M222.919 148.491C225.172 148.491 226.999 146.666 226.999 144.415C226.999 142.164 225.172 140.339 222.919 140.339C220.666 140.339 218.839 142.164 218.839 144.415C218.839 146.666 220.666 148.491 222.919 148.491Z" fill="#BBB9FA"/>
<path d="M211.01 148.491C213.263 148.491 215.09 146.666 215.09 144.415C215.09 142.164 213.263 140.339 211.01 140.339C208.756 140.339 206.93 142.164 206.93 144.415C206.93 146.666 208.756 148.491 211.01 148.491Z" fill="#BBB9FA"/>
<path d="M168.787 165.469C168.622 165.469 168.49 165.336 168.49 165.173V144.416C168.49 144.252 168.623 144.12 168.787 144.12H202.663C202.827 144.12 202.96 144.253 202.96 144.416C202.96 144.58 202.826 144.713 202.663 144.713H169.084V165.173C169.084 165.337 168.951 165.469 168.788 165.469H168.787Z" fill="black"/>
<path d="M362.248 336.126C364.502 336.126 366.328 334.301 366.328 332.05C366.328 329.799 364.502 327.974 362.248 327.974C359.995 327.974 358.168 329.799 358.168 332.05C358.168 334.301 359.995 336.126 362.248 336.126Z" fill="#BBB9FA"/>
<path d="M350.34 336.126C352.593 336.126 354.42 334.301 354.42 332.05C354.42 329.799 352.593 327.974 350.34 327.974C348.087 327.974 346.26 329.799 346.26 332.05C346.26 334.301 348.087 336.126 350.34 336.126Z" fill="#BBB9FA"/>
<path d="M338.431 336.126C340.684 336.126 342.511 334.301 342.511 332.05C342.511 329.799 340.684 327.974 338.431 327.974C336.178 327.974 334.351 329.799 334.351 332.05C334.351 334.301 336.178 336.126 338.431 336.126Z" fill="#BBB9FA"/>
<path d="M330.085 332.347H305.762C305.598 332.347 305.466 332.213 305.466 332.05V311.759C305.466 311.595 305.599 311.462 305.762 311.462C305.925 311.462 306.059 311.596 306.059 311.759V331.752H330.085C330.249 331.752 330.381 331.886 330.381 332.049C330.381 332.212 330.248 332.345 330.085 332.345V332.347Z" fill="black"/>
<path d="M338.598 265.197C340.851 265.197 342.678 263.373 342.678 261.121C342.678 258.87 340.851 257.045 338.598 257.045C336.345 257.045 334.518 258.87 334.518 261.121C334.518 263.373 336.345 265.197 338.598 265.197Z" fill="#BBB9FA"/>
<path d="M350.507 265.197C352.76 265.197 354.587 263.373 354.587 261.121C354.587 258.87 352.76 257.045 350.507 257.045C348.253 257.045 346.427 258.87 346.427 261.121C346.427 263.373 348.253 265.197 350.507 265.197Z" fill="#BBB9FA"/>
<path d="M362.416 265.197C364.669 265.197 366.496 263.373 366.496 261.121C366.496 258.87 364.669 257.045 362.416 257.045C360.162 257.045 358.336 258.87 358.336 261.121C358.336 263.373 360.162 265.197 362.416 265.197Z" fill="#BBB9FA"/>
<path d="M379.165 261.418H370.761C370.597 261.418 370.465 261.285 370.465 261.122C370.465 260.959 370.598 260.825 370.761 260.825H379.165C379.33 260.825 379.462 260.959 379.462 261.122C379.462 261.285 379.328 261.418 379.165 261.418Z" fill="black"/>
<path d="M252.263 302.018H189.047V321.98H252.263V302.018Z" fill="white"/>
<path d="M252.263 322.277H189.047C188.882 322.277 188.75 322.144 188.75 321.981V302.019C188.75 301.854 188.883 301.722 189.047 301.722C189.21 301.722 189.343 301.856 189.343 302.019V321.684H251.965V302.019C251.965 301.854 252.098 301.722 252.261 301.722C252.424 301.722 252.558 301.856 252.558 302.019V321.981C252.558 322.145 252.424 322.277 252.261 322.277H252.263Z" fill="black"/>
<path d="M320.857 290.775H119.341L117.615 293.033V295.443C117.615 299.074 120.552 302.018 124.174 302.018H317.138C320.76 302.018 323.697 299.074 323.697 295.443V293.033L320.858 290.775H320.857Z" fill="white"/>
<path d="M317.136 302.316H124.173C120.392 302.316 117.317 299.233 117.317 295.443V293.033C117.317 292.968 117.339 292.905 117.378 292.852L119.103 290.594C119.16 290.52 119.246 290.477 119.339 290.477H320.855C320.923 290.477 320.987 290.5 321.04 290.542L323.879 292.799C323.95 292.856 323.99 292.941 323.99 293.033V295.443C323.99 299.233 320.915 302.316 317.135 302.316H317.136ZM117.912 293.134V295.443C117.912 298.904 120.721 301.721 124.174 301.721H317.138C320.591 301.721 323.4 298.905 323.4 295.443V293.177L320.754 291.073H119.487L117.912 293.134Z" fill="black"/>
<path d="M125.237 169.808H316.072C320.28 169.808 323.695 173.223 323.695 177.431V293.032H117.614V177.431C117.614 173.223 121.029 169.808 125.237 169.808Z" fill="white"/>
<path d="M323.697 293.329H117.614C117.449 293.329 117.317 293.196 117.317 293.033V177.431C117.317 173.064 120.87 169.511 125.238 169.511H316.072C320.439 169.511 323.992 173.064 323.992 177.431V293.031C323.992 293.196 323.859 293.328 323.696 293.328L323.697 293.329ZM117.912 292.735H323.399V177.431C323.399 173.391 320.113 170.104 316.072 170.104H125.238C121.198 170.104 117.91 173.39 117.91 177.431V292.735H117.912Z" fill="black"/>
<path d="M316.657 177.626V285.975H124.652V177.626C124.652 177.205 124.995 176.863 125.415 176.863H315.894C316.314 176.863 316.657 177.205 316.657 177.626Z" fill="white"/>
<path d="M316.657 286.272H124.654C124.489 286.272 124.357 286.139 124.357 285.976V177.627C124.357 177.042 124.833 176.567 125.418 176.567H315.896C316.481 176.567 316.956 177.043 316.956 177.627V285.976C316.956 286.14 316.822 286.272 316.659 286.272H316.657ZM124.95 285.678H316.36V177.627C316.36 177.371 316.151 177.162 315.895 177.162H125.417C125.159 177.162 124.95 177.371 124.95 177.627V285.679V285.678Z" fill="black"/>
<path d="M157.516 200.227V196.027H231.039V200.227H157.516Z" stroke="#BBB9FA" stroke-width="0.5"/>
<path d="M239.764 200.227V196.027H285.087V200.227H239.764Z" stroke="#BBB9FA" stroke-width="0.5"/>
<path d="M157.516 209.627V205.427H285.087V209.627H157.516Z" stroke="#BBB9FA" stroke-width="0.5"/>
<path d="M157.516 219.027V214.827H265.113V219.027H157.516Z" stroke="#BBB9FA" stroke-width="0.5"/>
<path d="M157.516 237.826V233.626H285.087V237.826H157.516Z" stroke="#BBB9FA" stroke-width="0.5"/>
<path d="M157.516 247.226V243.026H204.014V247.226H157.516Z" stroke="#BBB9FA" stroke-width="0.5"/>
<path d="M157.516 255.45V251.25H182.865V255.45H157.516Z" stroke="#BBB9FA" stroke-width="0.5"/>
<path d="M157.516 263.675V259.476H168.766V263.675H157.516Z" stroke="#BBB9FA" stroke-width="0.5"/>
<path d="M157.516 228.426V224.226H188.74V228.426H157.516Z" stroke="#BBB9FA" stroke-width="0.5"/>
<path d="M267.962 219.027V214.827H285.087V219.027H267.962Z" stroke="#BBB9FA" stroke-width="0.5"/>
<path d="M193.94 228.426V224.226H285.087V228.426H193.94Z" stroke="#BBB9FA" stroke-width="0.5"/>
<path d="M109.634 159.496C111.727 159.499 113.425 157.803 113.428 155.709C113.428 155.552 113.416 155.4 113.398 155.249C114.92 154.873 116.354 154.275 117.663 153.487C117.757 153.607 117.856 153.725 117.966 153.835C119.445 155.318 121.845 155.32 123.327 153.84C124.808 152.362 124.811 149.961 123.332 148.479C123.222 148.368 123.106 148.268 122.986 148.174C123.776 146.867 124.377 145.434 124.756 143.912C124.907 143.931 125.059 143.943 125.215 143.943C127.308 143.946 129.007 142.25 129.009 140.155C129.012 138.061 127.317 136.362 125.223 136.36C125.067 136.36 124.915 136.372 124.764 136.389C124.388 134.868 123.789 133.432 123.003 132.123C123.123 132.029 123.241 131.931 123.351 131.82C124.832 130.341 124.835 127.941 123.356 126.458C121.878 124.975 119.479 124.973 117.996 126.453C117.885 126.563 117.786 126.679 117.693 126.799C116.385 126.009 114.954 125.408 113.432 125.028C113.451 124.877 113.463 124.725 113.463 124.568C113.466 122.474 111.77 120.775 109.677 120.773C107.583 120.77 105.885 122.466 105.882 124.56C105.882 124.717 105.895 124.869 105.912 125.02C104.39 125.396 102.956 125.994 101.647 126.782C101.553 126.662 101.455 126.544 101.344 126.434C99.8654 124.951 97.4662 124.948 95.9835 126.428C94.5021 127.907 94.4994 130.308 95.9781 131.79C96.0886 131.901 96.2045 132.001 96.3245 132.095C95.5346 133.402 94.9335 134.835 94.5547 136.357C94.4038 136.338 94.2514 136.326 94.0951 136.326C92.0018 136.323 90.3035 138.019 90.3008 140.114C90.2981 142.208 91.9937 143.907 94.087 143.909C94.2433 143.909 94.3957 143.897 94.5466 143.88C94.9227 145.401 95.5212 146.837 96.307 148.146C96.187 148.24 96.0698 148.338 95.9592 148.449C94.4779 149.928 94.4752 152.328 95.9538 153.811C97.4325 155.294 99.8317 155.296 101.314 153.816C101.425 153.706 101.525 153.59 101.618 153.47C102.925 154.26 104.357 154.861 105.878 155.241C105.859 155.392 105.847 155.544 105.847 155.701C105.845 157.795 107.54 159.494 109.634 159.496ZM109.647 147.175C105.76 147.171 102.611 144.014 102.615 140.126C102.619 136.237 105.775 133.087 109.662 133.092C113.549 133.098 116.698 136.253 116.694 140.142C116.69 144.031 113.534 147.181 109.647 147.175Z" fill="#BBB9FA"/>
<path d="M78.3099 137.375C79.8855 137.229 81.0447 135.834 80.9005 134.257C80.8897 134.14 80.8695 134.025 80.8452 133.913C81.964 133.524 83.0019 132.972 83.9319 132.288C84.0114 132.371 84.0936 132.452 84.1839 132.528C85.4011 133.54 87.2073 133.373 88.2195 132.156C89.2305 130.938 89.0647 129.131 87.8475 128.119C87.7572 128.043 87.6615 127.976 87.5658 127.914C88.0686 126.875 88.4204 125.753 88.5983 124.582C88.7129 124.584 88.8288 124.583 88.946 124.572C90.5217 124.427 91.6809 123.032 91.5367 121.455C91.3911 119.878 89.9961 118.718 88.4204 118.864C88.3031 118.875 88.1885 118.895 88.0767 118.919C87.6871 117.799 87.1358 116.763 86.4511 115.833C86.5347 115.753 86.6155 115.671 86.691 115.581C87.7019 114.363 87.5362 112.556 86.319 111.544C85.1019 110.531 83.2957 110.698 82.2834 111.916C82.208 112.006 82.1419 112.102 82.0786 112.197C81.0393 111.695 79.9192 111.343 78.7466 111.164C78.7493 111.049 78.7479 110.933 78.7371 110.814C78.5916 109.237 77.1965 108.078 75.6208 108.224C74.0451 108.369 72.8859 109.764 73.0301 111.341C73.0409 111.459 73.0612 111.573 73.0854 111.685C71.9667 112.075 70.9288 112.626 69.9987 113.311C69.9192 113.227 69.837 113.146 69.7467 113.071C68.5296 112.059 66.7234 112.226 65.7111 113.443C64.7002 114.66 64.866 116.467 66.0831 117.48C66.1734 117.555 66.2691 117.623 66.3648 117.685C65.8621 118.724 65.5103 119.845 65.3324 121.017C65.2178 121.014 65.1019 121.015 64.9846 121.026C63.4089 121.172 62.2497 122.567 62.394 124.144C62.5395 125.719 63.9346 126.88 65.5103 126.734C65.6275 126.724 65.7421 126.703 65.854 126.679C66.2435 127.799 66.7948 128.836 67.4795 129.766C67.396 129.845 67.3151 129.927 67.2396 130.019C66.2287 131.236 66.3945 133.044 67.6116 134.056C68.8288 135.068 70.6349 134.901 71.6472 133.684C71.7227 133.594 71.7887 133.498 71.8521 133.402C72.8913 133.905 74.0114 134.257 75.1841 134.436C75.1814 134.551 75.1827 134.667 75.1935 134.785C75.3391 136.362 76.7342 137.522 78.3099 137.376V137.375ZM77.4539 128.101C74.5277 128.371 71.9357 126.217 71.6661 123.289C71.3965 120.362 73.5491 117.77 76.4754 117.5C79.4016 117.23 81.9936 119.384 82.2632 122.312C82.5328 125.24 80.3802 127.832 77.4539 128.101Z" fill="#BBB9FA"/>
<path d="M411.238 288.111H347.091V318.956H411.238V288.111Z" fill="white"/>
<path d="M411.238 319.254H347.091C346.927 319.254 346.794 319.12 346.794 318.957V288.112C346.794 287.948 346.928 287.815 347.091 287.815H411.238C411.403 287.815 411.535 287.949 411.535 288.112V318.957C411.535 319.122 411.402 319.254 411.238 319.254ZM347.389 318.659H410.942V288.409H347.389V318.659Z" fill="black"/>
<path d="M386.776 312.293C386.701 312.293 386.624 312.264 386.566 312.206C386.45 312.09 386.45 311.901 386.566 311.785L394.055 304.296L386.566 296.807C386.45 296.691 386.45 296.503 386.566 296.387C386.682 296.271 386.871 296.271 386.986 296.387L394.686 304.086C394.802 304.202 394.802 304.391 394.686 304.506L386.986 312.206C386.929 312.264 386.853 312.293 386.776 312.293Z" fill="black"/>
<path d="M370.514 312.293C370.438 312.293 370.361 312.264 370.303 312.206L362.604 304.506C362.488 304.391 362.488 304.202 362.604 304.086L370.303 296.387C370.419 296.271 370.608 296.271 370.724 296.387C370.84 296.503 370.84 296.691 370.724 296.807L363.235 304.296L370.724 311.785C370.84 311.901 370.84 312.09 370.724 312.206C370.666 312.264 370.591 312.293 370.514 312.293Z" fill="black"/>
<path d="M374.444 314.636C374.405 314.636 374.366 314.628 374.33 314.613C374.179 314.549 374.107 314.376 374.171 314.223L382.629 294.14C382.692 293.989 382.869 293.917 383.018 293.981C383.169 294.044 383.241 294.218 383.177 294.37L374.719 314.454C374.671 314.567 374.562 314.636 374.446 314.636H374.444Z" fill="black"/>
<path d="M118.449 206.286C118.449 206.286 128.753 209.269 127.952 198.529C127.233 188.87 123.847 196.266 122.48 195.837C121.005 195.375 122.222 192.401 120.32 192.159C118.449 191.921 117.008 194.649 115.135 194.174C113.264 193.699 109.531 190.826 105.919 192.908C102.894 194.651 102.751 198.212 102.751 198.212C102.751 198.212 99.0063 198.529 98.1433 204.229C97.2802 209.929 105.056 220.537 105.056 220.537L118.449 206.286Z" fill="black"/>
<path d="M102.548 215.997L97.0511 232.07C96.7003 233.098 95.8258 233.858 94.7605 234.065L92.3132 234.542C92.3132 234.542 98.676 248.357 109.397 246.042C120.119 243.729 117.761 234.542 117.761 234.542L115.493 234.359C114.136 234.25 113.204 232.941 113.545 231.621L116.095 221.744C116.095 221.744 105.706 213.368 102.548 215.998V215.997Z" fill="white"/>
<path d="M107.016 246.66C97.6171 246.66 92.0488 234.82 91.9885 234.691C91.9428 234.591 91.9444 234.474 91.995 234.376C92.0456 234.278 92.1386 234.208 92.2462 234.187L94.6935 233.71C95.6299 233.528 96.4033 232.854 96.7116 231.952L102.208 215.88C102.229 215.818 102.267 215.763 102.319 215.72C105.61 212.979 115.237 220.585 116.324 221.463C116.433 221.551 116.482 221.696 116.446 221.833L113.896 231.71C113.761 232.236 113.863 232.792 114.178 233.234C114.493 233.676 114.984 233.955 115.526 233.999L117.794 234.182C117.947 234.195 118.074 234.303 118.113 234.451C118.154 234.608 119.074 238.326 116.984 241.71C115.536 244.056 113.01 245.632 109.478 246.394C108.633 246.576 107.811 246.661 107.019 246.661L107.016 246.66ZM92.8483 234.802C94.0131 237.058 100.05 247.689 109.325 245.689C112.658 244.969 115.028 243.503 116.371 241.33C118.007 238.682 117.627 235.735 117.467 234.877L115.467 234.715C114.715 234.655 114.031 234.267 113.593 233.652C113.154 233.035 113.01 232.263 113.199 231.531L115.691 221.879C112.756 219.548 105.293 214.421 102.854 216.214L97.3936 232.187C97.002 233.332 96.0199 234.189 94.8321 234.419L92.8483 234.805V234.802Z" fill="black"/>
<path d="M106.293 218.496C106.293 218.496 108.956 224.645 115.931 223.509C122.905 222.374 123.081 213.5 122.458 204.072C121.445 204.564 120.212 204.907 118.43 204.853C115.404 204.762 109.113 203.55 108.817 202.854C109.951 205.519 110.384 208.256 108.967 209.965C108.413 210.71 107.365 211.247 105.512 211.279C105.512 211.279 104.628 208.326 101.998 210.04C99.3661 211.754 100.345 218.988 106.292 218.496H106.293Z" fill="white"/>
<path d="M114.265 224.009C109.074 224.009 106.612 219.903 106.077 218.872C103.467 218.996 101.426 217.656 100.6 215.245C99.8464 213.044 100.364 210.677 101.803 209.74C102.687 209.165 103.501 209.006 104.222 209.271C105.108 209.595 105.575 210.47 105.76 210.914C107.17 210.85 108.152 210.46 108.679 209.752C110.144 207.982 109.382 205.104 108.487 202.998C108.408 202.815 108.495 202.603 108.676 202.526C108.849 202.453 109.048 202.526 109.134 202.689C109.656 203.223 115.355 204.402 118.439 204.497C119.938 204.544 121.16 204.306 122.299 203.753C122.407 203.701 122.534 203.706 122.637 203.766C122.741 203.826 122.806 203.934 122.814 204.053C123.405 213.007 123.415 222.66 115.985 223.869C115.38 223.967 114.805 224.013 114.262 224.013L114.265 224.009ZM106.294 218.136C106.436 218.136 106.566 218.221 106.624 218.353C106.728 218.593 109.268 224.233 115.872 223.155C122.571 222.063 122.669 213.1 122.132 204.611C121.023 205.063 119.83 205.256 118.419 205.213C116.644 205.159 111.691 204.463 109.515 203.644C110.291 205.804 110.714 208.424 109.245 210.196C108.558 211.119 107.301 211.61 105.519 211.64H105.513C105.354 211.64 105.214 211.535 105.168 211.383C105.165 211.374 104.814 210.251 103.971 209.944C103.475 209.763 102.878 209.899 102.194 210.343C101.042 211.093 100.639 213.145 101.279 215.012C101.633 216.046 102.834 218.422 106.261 218.139C106.271 218.139 106.281 218.139 106.291 218.139L106.294 218.136Z" fill="black"/>
<path d="M104.557 215.08C104.407 215.08 104.268 214.985 104.216 214.837C104.066 214.4 103.912 213.949 103.653 213.589C103.397 213.23 103.043 213.003 102.707 212.979C102.508 212.966 102.359 212.793 102.372 212.595C102.387 212.396 102.558 212.249 102.756 212.261C103.312 212.298 103.852 212.63 104.239 213.168C104.559 213.613 104.74 214.139 104.898 214.602C104.962 214.79 104.862 214.995 104.674 215.059C104.635 215.072 104.596 215.078 104.559 215.078L104.557 215.08Z" fill="black"/>
<path d="M88.1728 303.573L120.688 299.497L123.795 306.924L98.6111 319.187C98.6111 319.187 86.1384 310.591 88.1728 303.573Z" fill="#BBB9FA"/>
<path d="M80.0653 329.513C80.0653 329.513 161.209 271.877 185.761 278.605C210.313 285.334 204.776 316.975 190.328 329.18C180.284 337.665 164.384 351.226 119.456 361.692C74.5264 372.158 80.0653 329.511 80.0653 329.511V329.513Z" fill="white"/>
<path d="M106.455 363.707C98.8442 363.707 92.7425 361.66 88.2298 357.576C77.4636 347.833 79.6857 329.649 79.7102 329.466C79.7232 329.366 79.7771 329.277 79.8586 329.22C80.061 329.076 100.425 314.645 123.527 301.225C154.607 283.169 175.578 275.441 185.858 278.258C197.107 281.342 201.047 289.154 202.373 295.166C203.631 300.868 203.07 307.55 200.796 313.981C198.575 320.261 194.94 325.756 190.561 329.456L190.421 329.575C180.668 337.816 164.343 351.608 119.538 362.045C114.777 363.154 110.411 363.707 106.455 363.707ZM80.4052 329.714C80.2159 331.491 78.7492 348.031 88.716 357.046C95.3887 363.083 105.705 364.528 119.376 361.343C164.012 350.946 179.626 337.754 189.958 329.025L190.098 328.906C199.07 321.328 204.152 306.575 201.672 295.321C200.389 289.503 196.572 281.941 185.669 278.952C162.015 272.47 84.1119 327.1 80.4068 329.712L80.4052 329.714Z" fill="black"/>
<path d="M150.546 351.745C150.404 351.745 150.269 351.659 150.212 351.519C146.108 341.262 127.408 321.289 127.221 321.088C127.084 320.943 127.092 320.716 127.237 320.579C127.381 320.444 127.609 320.45 127.746 320.596C128.519 321.418 146.728 340.867 150.882 351.251C150.956 351.435 150.866 351.644 150.681 351.719C150.637 351.737 150.593 351.745 150.548 351.745H150.546Z" fill="black"/>
<path d="M97.7261 337.493C97.6233 337.493 97.5206 337.449 97.4504 337.364C97.3232 337.212 97.3427 336.986 97.4945 336.857C109.926 326.428 166.129 296.18 166.697 295.877C166.872 295.782 167.09 295.849 167.185 296.024C167.28 296.198 167.213 296.417 167.038 296.512C166.472 296.815 110.333 327.029 97.9578 337.41C97.8909 337.467 97.8077 337.495 97.7278 337.495L97.7261 337.493Z" fill="black"/>
<path d="M148.927 359.162C149.553 359.929 149.684 360.987 149.259 361.883C148.835 362.779 147.935 363.35 146.944 363.35H76.8314C69.5696 363.35 62.5771 360.601 57.2601 355.652C49.7128 348.627 38.3316 337.925 28.7352 328.436C17.8565 317.68 14.4255 301.489 19.9921 287.236C20.0753 287.024 20.1569 286.814 20.2401 286.601C24.9518 274.63 39.6286 270.234 50.1109 277.69C71.2386 292.719 104.691 317.417 117.953 332.17C117.953 332.17 140.606 348.986 148.925 359.16L148.927 359.162Z" fill="white"/>
<path d="M146.945 363.708H76.8319C69.4527 363.708 62.4161 360.939 57.0159 355.914C49.2533 348.69 38.0026 338.102 28.4845 328.691C17.4997 317.831 14.0344 301.506 19.6582 287.105L19.9078 286.47C22.2 280.647 26.9493 276.288 32.9401 274.508C38.9113 272.735 45.2464 273.787 50.3235 277.399C69.8687 291.303 104.667 316.865 118.2 331.905C119.135 332.602 141.091 349.008 149.208 358.934C149.919 359.804 150.068 361.021 149.588 362.037C149.107 363.054 148.071 363.71 146.948 363.71L146.945 363.708ZM38.7008 274.384C36.8458 274.384 34.9762 274.652 33.1424 275.197C27.3653 276.913 22.7841 281.117 20.5751 286.733L20.3271 287.366C14.8078 301.499 18.2078 317.519 28.9886 328.179C38.5002 337.583 49.746 348.166 57.5053 355.387C62.7718 360.288 69.6354 362.988 76.8319 362.988H146.945C147.792 362.988 148.573 362.494 148.935 361.727C149.298 360.962 149.185 360.044 148.65 359.388C140.453 349.364 117.968 332.627 117.741 332.46C117.722 332.445 117.704 332.429 117.688 332.411C104.218 317.426 69.438 291.879 49.9042 277.983C46.5695 275.611 42.6702 274.383 38.7025 274.383L38.7008 274.384Z" fill="black"/>
<path d="M90.3931 363.708C90.3311 363.708 90.2691 363.692 90.2104 363.659C73.212 353.66 53.763 336.349 40.6606 319.56C38.9002 317.304 37.0909 314.871 36.0223 312.115C35.9505 311.929 36.0419 311.722 36.2278 311.65C36.4122 311.579 36.621 311.67 36.6928 311.856C37.7272 314.52 39.5006 316.905 41.2267 319.119C54.2786 335.844 73.6492 353.084 90.5742 363.041C90.7455 363.142 90.8026 363.362 90.7015 363.533C90.6346 363.647 90.5139 363.711 90.3915 363.711L90.3931 363.708Z" fill="black"/>
<path d="M86.8397 358.102C86.7565 358.102 86.6717 358.072 86.6031 358.014C86.453 357.883 86.4384 357.656 86.5689 357.506C95.3397 347.443 105.494 338.703 116.751 331.528C116.918 331.422 117.141 331.471 117.247 331.638C117.353 331.806 117.304 332.027 117.136 332.133C105.938 339.271 95.8357 347.967 87.1105 357.978C87.0387 358.059 86.9392 358.102 86.8397 358.102Z" fill="black"/>
<path d="M78.1076 350.429C78.0178 350.429 77.9265 350.394 77.8563 350.328C77.7144 350.189 77.7111 349.962 77.8498 349.819C86.9763 340.426 97.0148 331.82 107.69 324.235C107.851 324.119 108.076 324.159 108.191 324.32C108.305 324.482 108.267 324.707 108.106 324.821C97.4668 332.38 87.4609 340.958 78.3654 350.318C78.2952 350.39 78.2006 350.427 78.1076 350.427V350.429Z" fill="black"/>
<path d="M140.726 241.846C137.555 237.56 132.707 234.836 127.399 234.346C124.375 234.067 120.586 233.771 116.357 233.555C116.123 234.317 115.799 235.053 115.376 235.748C114.151 237.764 112.232 239.318 110.093 240.282C107.953 241.246 105.558 241.683 103.22 241.401C100.929 241.125 98.7514 240.15 97.1688 238.443C95.8783 237.053 94.3317 235.373 93.9352 233.55C90.0996 233.767 87.0765 234.085 83.4774 234.65C76.6072 235.727 70.5724 239.815 66.9374 245.746C60.2761 256.615 48.7398 275.943 48.1231 291.492C47.1296 316.554 87.8123 305.921 87.8123 305.921L133.507 301.724L159.979 281.234C159.979 281.234 151.74 256.722 140.728 241.845L140.726 241.846Z" fill="#BBB9FA"/>
<path d="M88.3313 300.856C88.0181 302.967 90.1553 304.597 92.1065 303.733C96.0939 301.966 100.412 301.075 104.773 301.119L123.635 301.308C123.635 301.308 125.108 276.997 98.44 279.934C98.44 279.934 90.3935 286.936 88.3313 300.856Z" fill="white"/>
<path d="M109.744 301.763C109.726 301.763 109.709 301.763 109.692 301.759C109.496 301.73 109.359 301.547 109.388 301.352C109.581 300.03 109.269 298.558 108.512 297.209C107.872 296.069 106.923 294.992 105.611 293.918C105.366 293.719 105.105 293.514 104.818 293.388C104.636 293.308 104.554 293.096 104.634 292.915C104.714 292.732 104.924 292.649 105.107 292.729C105.477 292.891 105.784 293.13 106.066 293.362C107.448 294.494 108.453 295.638 109.138 296.858C109.974 298.346 110.315 299.979 110.099 301.458C110.073 301.637 109.92 301.766 109.744 301.766V301.763Z" fill="black"/>
<path d="M115.84 301.412C115.664 301.412 115.51 301.283 115.484 301.102C115.258 299.499 114.931 297.623 114.233 295.873C113.515 294.075 112.464 292.606 111.192 291.631C111.035 291.51 111.004 291.283 111.127 291.127C111.247 290.97 111.472 290.939 111.631 291.061C113.004 292.117 114.135 293.688 114.9 295.607C115.626 297.429 115.964 299.356 116.196 301.002C116.223 301.199 116.086 301.381 115.891 301.408C115.873 301.41 115.856 301.412 115.84 301.412Z" fill="black"/>
<path d="M120.725 301.412C120.711 301.412 120.698 301.412 120.683 301.409C120.485 301.386 120.345 301.207 120.368 301.01C121.18 294.198 116.73 289.968 116.686 289.925C116.541 289.79 116.532 289.561 116.668 289.416C116.803 289.271 117.03 289.263 117.177 289.398C117.371 289.579 121.939 293.924 121.084 301.094C121.063 301.277 120.906 301.411 120.727 301.411L120.725 301.412Z" fill="black"/>
<path d="M169.696 304.995H100.893C100.485 304.995 100.077 304.891 99.743 304.659C98.9566 304.117 98.6826 303.15 98.9942 302.318C99.805 300.616 101.482 300.018 103.962 300.018H174.212L173.3 302.496C172.737 304 171.302 304.995 169.698 304.995H169.696Z" fill="black"/>
<path d="M170.086 304.995C171.462 304.995 172.7 304.157 173.209 302.878L185.389 272.3C185.713 271.489 185.613 270.569 185.124 269.846C184.634 269.124 183.817 268.691 182.944 268.691H140.657C138.109 268.691 135.838 270.297 134.986 272.7L123.553 304.995H170.086Z" fill="black"/>
<path d="M158.297 286.221C159.294 286.221 160.103 285.413 160.103 284.415C160.103 283.418 159.294 282.609 158.297 282.609C157.299 282.609 156.49 283.418 156.49 284.415C156.49 285.413 157.299 286.221 158.297 286.221Z" fill="#BBB9FA"/>
<path d="M66.2962 280.736C66.1005 280.736 65.9406 280.579 65.9373 280.383C65.934 280.184 66.0923 280.021 66.2897 280.016L97.0513 279.432C97.2422 279.435 97.4135 279.587 97.4184 279.785C97.4217 279.984 97.2634 280.147 97.066 280.152L66.3044 280.736H66.2979H66.2962Z" fill="black"/>
<path d="M76.5705 278.991C76.5362 278.991 76.502 278.986 76.4677 278.976C76.2768 278.919 76.1691 278.718 76.2262 278.527C77.3503 274.785 78.9002 271.168 80.8319 267.774C81.2479 267.043 81.9103 266.081 82.9626 266.112C83.1617 266.118 83.3167 266.285 83.3101 266.484C83.3036 266.683 83.1421 266.838 82.9382 266.831C82.4487 266.813 81.9707 267.228 81.4568 268.13C79.5512 271.476 78.0241 275.044 76.9147 278.734C76.8674 278.889 76.7255 278.991 76.5705 278.991Z" fill="black"/>
<path d="M226.134 155.09H206.928C206.763 155.09 206.631 154.956 206.631 154.793C206.631 154.63 206.765 154.497 206.928 154.497H226.134C226.298 154.497 226.431 154.63 226.431 154.793C226.431 154.956 226.297 155.09 226.134 155.09Z" fill="black"/>
<path d="M354.248 341.95H335.041C334.877 341.95 334.745 341.817 334.745 341.654C334.745 341.491 334.878 341.357 335.041 341.357H354.248C354.412 341.357 354.544 341.491 354.544 341.654C354.544 341.817 354.411 341.95 354.248 341.95Z" fill="black"/>
<path d="M354.247 271.245H335.041C334.876 271.245 334.744 271.112 334.744 270.949C334.744 270.786 334.878 270.652 335.041 270.652H354.247C354.411 270.652 354.543 270.786 354.543 270.949C354.543 271.112 354.41 271.245 354.247 271.245Z" fill="black"/>
<path d="M403.087 64.7283H283.196C281.686 64.7283 280.462 65.9523 280.462 67.4623V150.351C280.462 151.861 281.686 153.085 283.196 153.085H403.087C404.597 153.085 405.821 151.861 405.821 150.351V67.4623C405.821 65.9523 404.597 64.7283 403.087 64.7283Z" fill="white"/>
<path d="M362.486 153.312H283.568C281.731 153.312 280.235 151.814 280.235 149.972V67.8402C280.235 65.9979 281.73 64.5 283.568 64.5H402.718C404.555 64.5 406.051 65.9989 406.051 67.8402V126.935C406.051 127.061 405.948 127.163 405.823 127.163C405.698 127.163 405.595 127.06 405.595 126.935V67.8402C405.595 66.2492 404.304 64.9552 402.719 64.9552H283.569C281.983 64.9552 280.692 66.2492 280.692 67.8402V149.973C280.692 151.564 281.983 152.858 283.569 152.858H362.487C362.613 152.858 362.715 152.96 362.715 153.086C362.715 153.212 362.612 153.313 362.487 153.313L362.486 153.312Z" fill="black"/>
<path d="M337.202 72.7131H288.595V87.6867H337.202V72.7131Z" fill="white"/>
<path d="M337.202 87.9141H288.596C288.47 87.9141 288.368 87.8117 288.368 87.6865V72.7129C288.368 72.5867 288.471 72.4854 288.596 72.4854H337.202C337.328 72.4854 337.43 72.5878 337.43 72.7129V87.6865C337.43 87.8127 337.327 87.9141 337.202 87.9141ZM288.824 87.4579H336.975V72.9395H288.824V87.4579Z" fill="black"/>
<path d="M397.688 72.7131H344.6V106.648H397.688V72.7131Z" fill="#BBB9FA"/>
<path d="M397.688 111.013H344.6V144.948H397.688V111.013Z" fill="white"/>
<path d="M397.688 145.176H344.6C344.474 145.176 344.372 145.073 344.372 144.948V111.013C344.372 110.887 344.475 110.786 344.6 110.786H397.688C397.814 110.786 397.915 110.888 397.915 111.013V144.948C397.915 145.074 397.813 145.176 397.688 145.176ZM344.827 144.721H397.46V111.241H344.827V144.721Z" fill="black"/>
<path d="M337.202 91.8633H288.595V100.034H337.202V91.8633Z" fill="white"/>
<path d="M337.202 100.262H288.596C288.47 100.262 288.368 100.16 288.368 100.035V91.8638C288.368 91.7376 288.471 91.6362 288.596 91.6362H337.202C337.328 91.6362 337.43 91.7386 337.43 91.8638V100.035C337.43 100.161 337.327 100.262 337.202 100.262ZM288.824 99.8063H336.975V92.0904H288.824V99.8063Z" fill="black"/>
<path d="M337.202 106.116H288.595V145.1H337.202V106.116Z" fill="white"/>
<path d="M337.202 145.328H288.596C288.47 145.328 288.368 145.225 288.368 145.1V106.116C288.368 105.99 288.471 105.888 288.596 105.888H337.202C337.328 105.888 337.43 105.991 337.43 106.116V145.1C337.43 145.226 337.327 145.328 337.202 145.328ZM288.824 144.873H336.975V106.344H288.824V144.873Z" fill="black"/>
<path d="M320.937 133.852C320.879 133.852 320.82 133.829 320.776 133.784C320.687 133.695 320.687 133.552 320.776 133.463L328.671 125.568L320.776 117.673C320.687 117.584 320.687 117.44 320.776 117.351C320.865 117.262 321.008 117.262 321.097 117.351L329.153 125.406C329.242 125.495 329.242 125.639 329.153 125.728L321.097 133.783C321.053 133.828 320.995 133.851 320.936 133.851L320.937 133.852Z" fill="black"/>
<path d="M304.125 133.852C304.067 133.852 304.008 133.83 303.964 133.785L295.909 125.73C295.82 125.641 295.82 125.497 295.909 125.408L303.964 117.353C304.053 117.264 304.196 117.264 304.285 117.353C304.374 117.442 304.374 117.586 304.285 117.675L296.391 125.569L304.285 133.464C304.374 133.553 304.374 133.697 304.285 133.786C304.241 133.831 304.183 133.853 304.124 133.853L304.125 133.852Z" fill="black"/>
<path d="M308.24 134.048C308.205 134.048 308.17 134.04 308.137 134.023C308.025 133.966 307.979 133.829 308.037 133.717L316.436 117.212C316.493 117.1 316.63 117.055 316.742 117.112C316.854 117.169 316.9 117.307 316.842 117.418L308.443 133.923C308.403 134.003 308.323 134.047 308.24 134.047V134.048Z" fill="black"/>
<path d="M447.983 72.4626H417.139C416.15 72.4626 415.348 73.2643 415.348 74.2533V105.108C415.348 106.097 416.15 106.898 417.139 106.898H447.983C448.972 106.898 449.774 106.097 449.774 105.108V74.2533C449.774 73.2643 448.972 72.4626 447.983 72.4626Z" fill="white"/>
<path d="M447.982 107.126H417.139C416.026 107.126 415.12 106.219 415.12 105.106V74.2518C415.12 73.1388 416.025 72.2336 417.139 72.2336H447.982C449.095 72.2336 450 73.1388 450 74.2518V105.106C450 106.219 449.095 107.126 447.982 107.126ZM417.139 72.6898C416.277 72.6898 415.576 73.3912 415.576 74.2529V105.107C415.576 105.969 416.277 106.67 417.139 106.67H447.982C448.844 106.67 449.545 105.969 449.545 105.107V74.2529C449.545 73.3912 448.844 72.6898 447.982 72.6898H417.139Z" fill="black"/>
<path d="M446.941 97.4351C446.941 97.4351 441.531 83.3635 436.583 83.3635C431.635 83.3635 429.008 94.188 427.153 94.188C425.298 94.188 424.989 90.0129 422.979 90.0129C420.969 90.0129 418.187 97.4351 418.187 97.4351C418.187 97.4351 446.94 97.1775 446.94 97.4351H446.941Z" fill="white"/>
<path d="M446.941 97.6625C446.906 97.6625 446.871 97.6542 446.84 97.6387C445.874 97.4773 429.236 97.5632 418.19 97.6625C418.117 97.6676 418.044 97.6263 418.001 97.5652C417.958 97.5042 417.949 97.4245 417.975 97.3552C418.265 96.5804 420.873 89.7852 422.98 89.7852C424.142 89.7852 424.76 90.9396 425.359 92.0558C425.885 93.0354 426.381 93.9602 427.154 93.9602C427.721 93.9602 428.618 92.244 429.485 90.5848C431.128 87.4411 433.377 83.1357 436.584 83.1357C441.629 83.1357 446.931 96.7728 447.154 97.3542C447.165 97.3801 447.17 97.408 447.17 97.4359C447.17 97.5456 447.091 97.6397 446.983 97.6604C446.969 97.6625 446.956 97.6645 446.942 97.6645L446.941 97.6625ZM422.98 90.2403C421.534 90.2403 419.377 95.0029 418.52 97.2042C420.012 97.1918 426.264 97.139 432.467 97.1111C442.478 97.0656 445.589 97.107 446.591 97.1732C445.724 95.0267 440.896 83.5909 436.583 83.5909C433.654 83.5909 431.477 87.7545 429.888 90.7948C428.79 92.8968 427.996 94.4153 427.153 94.4153C426.108 94.4153 425.523 93.325 424.957 92.2709C424.397 91.2272 423.868 90.2403 422.979 90.2403H422.98Z" fill="black"/>
<path d="M425.903 85.5213C427.098 85.519 428.065 84.5478 428.063 83.3521C428.06 82.1563 427.09 81.1889 425.895 81.1912C424.699 81.1935 423.732 82.1647 423.735 83.3604C423.737 84.5562 424.708 85.5236 425.903 85.5213Z" fill="white"/>
<path d="M425.898 85.7558C424.579 85.7558 423.506 84.6821 423.506 83.3631C423.506 82.0442 424.579 80.9705 425.898 80.9705C427.217 80.9705 428.289 82.0442 428.289 83.3631C428.289 84.6821 427.217 85.7558 425.898 85.7558ZM425.898 81.4256C424.83 81.4256 423.961 82.2946 423.961 83.3631C423.961 84.4317 424.83 85.3007 425.898 85.3007C426.965 85.3007 427.834 84.4317 427.834 83.3631C427.834 82.2946 426.965 81.4256 425.898 81.4256Z" fill="black"/>
<path d="M412.178 87.9825H381.803C381.677 87.9825 381.575 87.8801 381.575 87.7549C381.575 87.6298 381.678 87.5273 381.803 87.5273H412.178C412.304 87.5273 412.406 87.6298 412.406 87.7549C412.406 87.8801 412.303 87.9825 412.178 87.9825Z" fill="black"/>
<path d="M262.762 105.143C262.636 105.143 262.535 105.042 262.535 104.915V81.3611C262.535 81.2349 262.637 81.1335 262.762 81.1335H291.875C292.001 81.1335 292.102 81.236 292.102 81.3611C292.102 81.4863 292 81.5887 291.875 81.5887H262.99V104.915C262.99 105.042 262.887 105.143 262.762 105.143Z" fill="black"/>
<path d="M432.694 119.56C434.401 119.56 435.786 118.175 435.786 116.467C435.786 114.759 434.401 113.374 432.694 113.374C430.986 113.374 429.602 114.759 429.602 116.467C429.602 118.175 430.986 119.56 432.694 119.56Z" fill="#BBB9FA"/>
<path d="M432.693 128.588C434.401 128.588 435.785 127.204 435.785 125.495C435.785 123.787 434.401 122.402 432.693 122.402C430.986 122.402 429.601 123.787 429.601 125.495C429.601 127.204 430.986 128.588 432.693 128.588Z" fill="#BBB9FA"/>
<path d="M432.693 137.614C434.401 137.614 435.785 136.229 435.785 134.521C435.785 132.813 434.401 131.428 432.693 131.428C430.986 131.428 429.601 132.813 429.601 134.521C429.601 136.229 430.986 137.614 432.693 137.614Z" fill="#BBB9FA"/>
<path d="M432.702 160.08H418.191C418.065 160.08 417.963 159.979 417.963 159.853C417.963 159.726 418.066 159.625 418.191 159.625H432.474V142.199C432.474 142.073 432.577 141.971 432.702 141.971C432.827 141.971 432.93 142.073 432.93 142.199V159.854C432.93 159.98 432.827 160.081 432.702 160.081V160.08Z" fill="black"/>
</svg>
