<svg width="535" height="221" viewBox="0 0 535 221" fill="none" xmlns="http://www.w3.org/2000/svg">
<path d="M364.865 89.749H507.628C510.324 89.749 512.511 91.9373 512.511 94.6317V191.812H359.981V94.6329C359.981 91.9373 362.169 89.7502 364.864 89.7502L364.865 89.749Z" fill="white"/>
<path d="M512.419 191.6H360.303C360.156 191.6 360.038 191.481 360.038 191.335V94.609C360.038 91.7831 362.342 89.4836 365.173 89.4836H507.55C510.381 89.4836 512.685 91.7831 512.685 94.609V191.334C512.685 191.481 512.566 191.598 512.42 191.598L512.419 191.6ZM360.568 191.07H512.153V94.609C512.153 92.0752 510.087 90.0137 507.548 90.0137H365.172C362.633 90.0137 360.568 92.0752 360.568 94.609V191.07Z" fill="black"/>
<path d="M507.794 182.894H364.701C364.553 182.894 364.435 182.774 364.435 182.628V98.9359C364.435 98.7885 364.555 98.6702 364.701 98.6702H507.794C507.941 98.6702 508.06 98.7897 508.06 98.9359V182.628C508.06 182.775 507.94 182.894 507.794 182.894ZM364.966 182.361H507.527V99.2028H364.966V182.362V182.361Z" fill="black"/>
<path d="M515.164 204.423H357.56C350.347 204.423 343.717 201.34 340.296 196.397L338.65 194.018C337.494 192.347 338.692 190.07 340.726 190.07H531.772C533.713 190.07 534.927 192.165 533.958 193.842L533.055 195.408C529.891 200.893 522.887 204.423 515.165 204.423H515.164Z" fill="white"/>
<path d="M515.37 204.232H357.582C350.265 204.232 343.558 201.144 340.08 196.172L338.432 193.816C337.832 192.959 337.766 191.896 338.255 190.973C338.746 190.047 339.671 189.494 340.729 189.494H531.997C533.007 189.494 533.911 190.009 534.415 190.874C534.918 191.734 534.918 192.763 534.415 193.625L533.511 195.174C530.302 200.677 523.182 204.232 515.37 204.232ZM340.728 190.02C339.872 190.02 339.123 190.467 338.726 191.215C338.33 191.962 338.383 192.821 338.868 193.515L340.516 195.87C343.898 200.702 350.437 203.704 357.581 203.704H515.369C522.993 203.704 529.933 200.252 533.048 194.91L533.952 193.361C534.359 192.663 534.359 191.832 533.952 191.137C533.544 190.438 532.812 190.021 531.995 190.021H340.728V190.02Z" fill="black"/>
<path d="M376.336 140.818V112.894H430.579V140.818H376.336Z" stroke="#BBB9FA" stroke-width="0.5"/>
<path d="M439.501 140.818V112.894H463.214V140.818H439.501Z" stroke="#BBB9FA" stroke-width="0.5"/>
<path d="M439.501 177.664V149.74H463.214V177.664H439.501Z" stroke="#BBB9FA" stroke-width="0.5"/>
<path d="M432.823 106.859H407.677C407.529 106.859 407.411 106.739 407.411 106.593C407.411 106.447 407.53 106.327 407.677 106.327H432.823C432.97 106.327 433.089 106.447 433.089 106.593C433.089 106.739 432.969 106.859 432.823 106.859Z" fill="black"/>
<path d="M191.61 28.1668C193.629 28.1668 195.266 26.5318 195.266 24.5148C195.266 22.4979 193.629 20.8628 191.61 20.8628C189.591 20.8628 187.955 22.4979 187.955 24.5148C187.955 26.5318 189.591 28.1668 191.61 28.1668Z" fill="#BBB9FA"/>
<path d="M180.94 28.1668C182.959 28.1668 184.596 26.5318 184.596 24.5148C184.596 22.4979 182.959 20.8628 180.94 20.8628C178.921 20.8628 177.285 22.4979 177.285 24.5148C177.285 26.5318 178.921 28.1668 180.94 28.1668Z" fill="#BBB9FA"/>
<path d="M170.271 28.1668C172.29 28.1668 173.926 26.5318 173.926 24.5148C173.926 22.4979 172.29 20.8628 170.271 20.8628C168.252 20.8628 166.615 22.4979 166.615 24.5148C166.615 26.5318 168.252 28.1668 170.271 28.1668Z" fill="#BBB9FA"/>
<path d="M131.864 43.1624C131.714 43.1624 131.593 43.0439 131.593 42.8992V24.4762C131.593 24.3303 131.715 24.213 131.864 24.213H162.903C163.054 24.213 163.175 24.3315 163.175 24.4762C163.175 24.621 163.053 24.7394 162.903 24.7394H132.137V42.8992C132.137 43.0451 132.015 43.1624 131.866 43.1624H131.864Z" fill="black"/>
<path d="M305.777 196.284C307.796 196.284 309.433 194.649 309.433 192.632C309.433 190.615 307.796 188.98 305.777 188.98C303.758 188.98 302.122 190.615 302.122 192.632C302.122 194.649 303.758 196.284 305.777 196.284Z" fill="#BBB9FA"/>
<path d="M295.108 196.284C297.127 196.284 298.763 194.649 298.763 192.632C298.763 190.615 297.127 188.98 295.108 188.98C293.089 188.98 291.452 190.615 291.452 192.632C291.452 194.649 293.089 196.284 295.108 196.284Z" fill="#BBB9FA"/>
<path d="M284.438 196.284C286.457 196.284 288.093 194.649 288.093 192.632C288.093 190.615 286.457 188.98 284.438 188.98C282.419 188.98 280.782 190.615 280.782 192.632C280.782 194.649 282.419 196.284 284.438 196.284Z" fill="#BBB9FA"/>
<path d="M276.96 192.898H255.167C255.02 192.898 254.901 192.778 254.901 192.632V174.452C254.901 174.304 255.021 174.186 255.167 174.186C255.313 174.186 255.433 174.305 255.433 174.452V192.365H276.96C277.107 192.365 277.225 192.485 277.225 192.631C277.225 192.777 277.106 192.896 276.96 192.896V192.898Z" fill="black"/>
<path d="M284.587 132.734C286.606 132.734 288.243 131.099 288.243 129.082C288.243 127.065 286.606 125.43 284.587 125.43C282.568 125.43 280.931 127.065 280.931 129.082C280.931 131.099 282.568 132.734 284.587 132.734Z" fill="#BBB9FA"/>
<path d="M295.257 132.733C297.276 132.733 298.912 131.098 298.912 129.081C298.912 127.065 297.276 125.429 295.257 125.429C293.238 125.429 291.601 127.065 291.601 129.081C291.601 131.098 293.238 132.733 295.257 132.733Z" fill="#BBB9FA"/>
<path d="M305.927 132.733C307.946 132.733 309.582 131.098 309.582 129.081C309.582 127.065 307.946 125.429 305.927 125.429C303.908 125.429 302.271 127.065 302.271 129.081C302.271 131.098 303.908 132.733 305.927 132.733Z" fill="#BBB9FA"/>
<path d="M320.934 129.347H313.404C313.257 129.347 313.139 129.228 313.139 129.081C313.139 128.935 313.258 128.816 313.404 128.816H320.934C321.082 128.816 321.2 128.935 321.2 129.081C321.2 129.228 321.08 129.347 320.934 129.347Z" fill="black"/>
<path d="M207.233 165.723H150.593V183.608H207.233V165.723Z" fill="white"/>
<path d="M207.233 183.875H150.593C150.445 183.875 150.327 183.755 150.327 183.609V165.723C150.327 165.576 150.447 165.458 150.593 165.458C150.739 165.458 150.859 165.577 150.859 165.723V183.343H206.966V165.723C206.966 165.576 207.086 165.458 207.232 165.458C207.378 165.458 207.497 165.577 207.497 165.723V183.609C207.497 183.756 207.378 183.875 207.232 183.875H207.233Z" fill="black"/>
<path d="M268.692 155.649H88.1376L86.5918 157.672V159.831C86.5918 163.085 89.2233 165.722 92.4684 165.722H265.36C268.605 165.722 271.236 163.085 271.236 159.831V157.672L268.693 155.649H268.692Z" fill="white"/>
<path d="M265.359 165.989H92.4672C89.0797 165.989 86.325 163.227 86.325 159.831V157.672C86.325 157.614 86.3443 157.557 86.3793 157.51L87.9251 155.487C87.9758 155.421 88.0531 155.382 88.1365 155.382H268.691C268.751 155.382 268.809 155.403 268.856 155.44L271.399 157.463C271.463 157.514 271.5 157.59 271.5 157.672V159.831C271.5 163.227 268.744 165.989 265.357 165.989H265.359ZM86.8575 157.762V159.831C86.8575 162.932 89.3743 165.457 92.4684 165.457H265.36C268.454 165.457 270.971 162.934 270.971 159.831V157.801L268.6 155.916H88.2693L86.8575 157.762Z" fill="black"/>
<path d="M93.4215 47.2659H264.405C268.175 47.2659 271.235 50.3261 271.235 54.0965V157.672H86.5908V54.0965C86.5908 50.3261 89.6511 47.2659 93.4215 47.2659Z" fill="white"/>
<path d="M271.236 157.939H86.5906C86.4433 157.939 86.325 157.819 86.325 157.673V54.0963C86.325 50.1834 89.5084 47 93.4213 47H264.405C268.317 47 271.501 50.1834 271.501 54.0963V157.672C271.501 157.819 271.381 157.937 271.235 157.937L271.236 157.939ZM86.8575 157.406H270.969V54.0963C270.969 50.4769 268.025 47.5314 264.405 47.5314H93.4213C89.8019 47.5314 86.8563 50.4757 86.8563 54.0963V157.406H86.8575Z" fill="black"/>
<path d="M264.929 54.2707V151.349H92.8972V54.2707C92.8972 53.8939 93.2039 53.5872 93.5807 53.5872L264.245 53.5872C264.622 53.5872 264.929 53.8939 264.929 54.2707Z" fill="white"/>
<path d="M264.929 151.615H92.8983C92.7509 151.615 92.6326 151.496 92.6326 151.35V54.2715C92.6326 53.7474 93.0589 53.3223 93.583 53.3223H264.247C264.772 53.3223 265.197 53.7486 265.197 54.2715V151.35C265.197 151.497 265.077 151.615 264.931 151.615H264.929ZM93.1639 151.083H264.663V54.2715C264.663 54.042 264.476 53.8549 264.246 53.8549H93.5818C93.3511 53.8549 93.1639 54.042 93.1639 54.2715V151.084V151.083Z" fill="black"/>
<path d="M122.368 74.4947V70.7837H188.191V74.4947H122.368Z" stroke="#BBB9FA" stroke-width="0.5"/>
<path d="M196.06 74.4947V70.7837H236.617V74.4947H196.06Z" stroke="#BBB9FA" stroke-width="0.5"/>
<path d="M122.368 82.9164V79.2054H236.617V82.9164H122.368Z" stroke="#BBB9FA" stroke-width="0.5"/>
<path d="M122.368 91.3387V87.6277H218.72V91.3387H122.368Z" stroke="#BBB9FA" stroke-width="0.5"/>
<path d="M122.368 108.183V104.472H236.617V108.183H122.368Z" stroke="#BBB9FA" stroke-width="0.5"/>
<path d="M122.368 116.604V112.893H163.978V116.604H122.368Z" stroke="#BBB9FA" stroke-width="0.5"/>
<path d="M122.368 123.974V120.263H145.028V123.974H122.368Z" stroke="#BBB9FA" stroke-width="0.5"/>
<path d="M122.368 131.343V127.632H132.395V131.343H122.368Z" stroke="#BBB9FA" stroke-width="0.5"/>
<path d="M122.368 99.7604V96.0494H150.292V99.7604H122.368Z" stroke="#BBB9FA" stroke-width="0.5"/>
<path d="M221.326 91.3387V87.6277H236.617V91.3387H221.326Z" stroke="#BBB9FA" stroke-width="0.5"/>
<path d="M155.003 99.7604V96.0494H236.617V99.7604H155.003Z" stroke="#BBB9FA" stroke-width="0.5"/>
<path d="M493.963 74.374C495.838 74.3764 497.36 72.8572 497.362 70.9804C497.362 70.8403 497.352 70.7039 497.336 70.5686C498.699 70.2317 499.984 69.6955 501.157 68.9902C501.242 69.0977 501.33 69.2027 501.429 69.3018C502.754 70.6302 504.904 70.6326 506.232 69.3066C507.559 67.9818 507.561 65.8309 506.237 64.5024C506.137 64.4034 506.034 64.314 505.926 64.2295C506.634 63.0581 507.172 61.7743 507.512 60.4108C507.647 60.4277 507.784 60.4386 507.924 60.4386C509.799 60.441 511.321 58.9218 511.323 57.045C511.326 55.1683 509.806 53.6466 507.931 53.6442C507.791 53.6442 507.654 53.6551 507.519 53.6708C507.182 52.3073 506.646 51.0211 505.942 49.8485C506.049 49.7639 506.154 49.6758 506.253 49.5767C507.581 48.2519 507.583 46.101 506.258 44.7726C504.933 43.4441 502.784 43.4417 501.455 44.7678C501.356 44.8668 501.267 44.9706 501.184 45.0781C500.012 44.3704 498.73 43.8318 497.366 43.4912C497.383 43.356 497.394 43.2195 497.394 43.0794C497.396 41.2027 495.877 39.681 494.002 39.6786C492.126 39.6762 490.604 41.1954 490.602 43.0722C490.602 43.2123 490.613 43.3487 490.628 43.484C489.265 43.8209 487.98 44.3571 486.807 45.0624C486.723 44.9549 486.635 44.8499 486.536 44.7508C485.211 43.4224 483.061 43.42 481.733 44.746C480.405 46.0708 480.403 48.2217 481.728 49.5502C481.827 49.6492 481.931 49.7386 482.038 49.8231C481.331 50.9945 480.792 52.2783 480.453 53.6418C480.317 53.6249 480.181 53.614 480.041 53.614C478.165 53.6116 476.644 55.1308 476.641 57.0076C476.639 58.8843 478.158 60.406 480.033 60.4084C480.174 60.4084 480.31 60.3975 480.445 60.3818C480.782 61.7453 481.318 63.0315 482.023 64.2041C481.915 64.2887 481.81 64.3768 481.711 64.4759C480.384 65.8007 480.381 67.9516 481.706 69.28C483.031 70.6085 485.181 70.6109 486.509 69.2848C486.608 69.1858 486.697 69.082 486.781 68.9745C487.952 69.6822 489.235 70.2208 490.598 70.5614C490.581 70.6966 490.57 70.8331 490.57 70.9732C490.568 72.8499 492.087 74.3716 493.963 74.374ZM493.975 63.3346C490.492 63.331 487.671 60.5026 487.674 57.0184C487.678 53.5343 490.505 50.7119 493.988 50.7168C497.471 50.7216 500.292 53.5488 500.289 57.0329C500.285 60.5171 497.458 63.3394 493.975 63.3346Z" fill="#BBB9FA"/>
<path d="M465.897 54.5535C467.309 54.4231 468.348 53.1731 468.219 51.7601C468.209 51.6551 468.191 51.5524 468.169 51.4522C469.171 51.1031 470.101 50.6092 470.935 49.9957C471.006 50.0706 471.08 50.143 471.16 50.2107C472.251 51.1176 473.869 50.9679 474.776 49.8774C475.682 48.7868 475.533 47.1673 474.443 46.2604C474.362 46.1927 474.276 46.1323 474.19 46.0768C474.641 45.1457 474.956 44.1409 475.116 43.0914C475.218 43.0938 475.322 43.0926 475.427 43.083C476.839 42.9525 477.878 41.7026 477.748 40.2896C477.618 38.8766 476.368 37.838 474.956 37.9684C474.851 37.9781 474.748 37.9962 474.648 38.0179C474.299 37.0144 473.805 36.0857 473.192 35.2524C473.267 35.1811 473.339 35.1074 473.407 35.0265C474.312 33.936 474.164 32.3165 473.073 31.4095C471.983 30.5026 470.365 30.6523 469.458 31.7428C469.39 31.8238 469.331 31.9095 469.274 31.9952C468.343 31.5448 467.339 31.2296 466.289 31.069C466.291 30.9663 466.29 30.8624 466.28 30.7562C466.15 29.3432 464.9 28.3046 463.488 28.435C462.076 28.5654 461.038 29.8154 461.167 31.2284C461.177 31.3334 461.195 31.4361 461.216 31.5363C460.214 31.8853 459.284 32.3793 458.451 32.9928C458.38 32.9179 458.306 32.8455 458.225 32.7778C457.134 31.8709 455.516 32.0206 454.609 33.1111C453.703 34.2017 453.852 35.8212 454.942 36.7281C455.023 36.7958 455.109 36.8562 455.195 36.9117C454.744 37.8428 454.429 38.8476 454.27 39.8971C454.167 39.8947 454.063 39.8959 453.958 39.9055C452.546 40.036 451.508 41.2859 451.637 42.6989C451.768 44.1107 453.017 45.1505 454.429 45.0201C454.534 45.0104 454.637 44.9923 454.737 44.9706C455.086 45.9741 455.58 46.9028 456.194 47.7361C456.119 47.8074 456.046 47.8811 455.979 47.9632C455.073 49.0537 455.221 50.6732 456.312 51.5802C457.403 52.4872 459.021 52.3374 459.928 51.2469C459.995 51.166 460.055 51.0802 460.111 50.9945C461.042 51.4449 462.046 51.7601 463.097 51.9207C463.094 52.0234 463.096 52.1273 463.105 52.2335C463.236 53.6465 464.486 54.6851 465.897 54.5547V54.5535ZM465.13 46.2447C462.509 46.4862 460.186 44.5563 459.945 41.9332C459.703 39.3102 461.632 36.9878 464.254 36.7463C466.876 36.5047 469.198 38.4346 469.439 41.0577C469.681 43.6808 467.752 46.0031 465.13 46.2447Z" fill="#BBB9FA"/>
<path d="M349.671 153.262H292.197V180.899H349.671V153.262Z" fill="white"/>
<path d="M350.293 181.072H291.879C291.73 181.072 291.609 180.951 291.609 180.804V152.916C291.609 152.767 291.731 152.648 291.879 152.648H350.293C350.443 152.648 350.563 152.768 350.563 152.916V180.804C350.563 180.952 350.441 181.072 350.293 181.072ZM292.151 180.534H350.023V153.184H292.151V180.534Z" fill="black"/>
<path d="M327.753 174.93C327.685 174.93 327.617 174.904 327.565 174.852C327.461 174.748 327.461 174.579 327.565 174.475L334.275 167.765L327.565 161.055C327.461 160.951 327.461 160.782 327.565 160.678C327.669 160.574 327.838 160.574 327.942 160.678L334.84 167.577C334.944 167.68 334.944 167.85 334.84 167.953L327.942 174.852C327.89 174.904 327.822 174.93 327.753 174.93Z" fill="black"/>
<path d="M313.183 174.93C313.115 174.93 313.046 174.904 312.994 174.852L306.096 167.953C305.992 167.85 305.992 167.68 306.096 167.577L312.994 160.678C313.098 160.574 313.267 160.574 313.371 160.678C313.475 160.782 313.475 160.951 313.371 161.055L306.661 167.765L313.371 174.475C313.475 174.579 313.475 174.748 313.371 174.852C313.319 174.904 313.251 174.93 313.183 174.93Z" fill="black"/>
<path d="M316.704 177.029C316.669 177.029 316.634 177.022 316.601 177.009C316.466 176.952 316.402 176.796 316.459 176.66L324.037 158.665C324.094 158.53 324.252 158.466 324.386 158.523C324.521 158.579 324.585 158.735 324.529 158.872L316.95 176.866C316.907 176.968 316.809 177.029 316.705 177.029H316.704Z" fill="black"/>
<path d="M75.0949 104.468C75.0949 104.468 82.7226 106.676 82.1297 98.7257C81.5971 91.5763 79.0911 97.0507 78.0791 96.733C76.9874 96.3913 77.8883 94.1897 76.4801 94.0109C75.0949 93.8346 74.0285 95.8539 72.6421 95.5024C71.2569 95.151 68.4938 93.0243 65.8199 94.5653C63.5809 95.8551 63.4746 98.4914 63.4746 98.4914C63.4746 98.4914 60.703 98.7257 60.0642 102.945C59.4253 107.165 65.1811 115.017 65.1811 115.017L75.0949 104.468Z" fill="black"/>
<path d="M63.325 111.657L59.2564 123.555C58.9967 124.316 58.3494 124.878 57.5608 125.032L55.7493 125.384C55.7493 125.384 60.4592 135.611 68.3949 133.897C76.3317 132.185 74.5867 125.384 74.5867 125.384L72.908 125.249C71.9032 125.168 71.2136 124.2 71.466 123.223L73.3536 115.911C73.3536 115.911 65.6631 109.711 63.325 111.658V111.657Z" fill="white"/>
<path d="M66.6327 134.355C59.6752 134.355 55.5534 125.59 55.5087 125.495C55.4749 125.421 55.4761 125.334 55.5136 125.262C55.551 125.189 55.6198 125.138 55.6995 125.122L57.5111 124.769C58.2043 124.634 58.7767 124.135 59.005 123.467L63.0736 111.57C63.0893 111.525 63.1171 111.484 63.1558 111.452C65.5916 109.423 72.7182 115.053 73.5225 115.703C73.6034 115.768 73.6396 115.876 73.6131 115.977L71.7255 123.289C71.6252 123.677 71.7013 124.089 71.9344 124.417C72.1675 124.744 72.531 124.95 72.9319 124.983L74.6106 125.118C74.7241 125.128 74.8183 125.208 74.8473 125.318C74.8775 125.433 75.5586 128.186 74.0116 130.69C72.9392 132.427 71.0697 133.594 68.4551 134.158C67.8295 134.293 67.2208 134.356 66.6351 134.356L66.6327 134.355ZM56.1452 125.577C57.0075 127.247 61.4759 135.117 68.3415 133.636C70.8088 133.103 72.5636 132.018 73.5575 130.409C74.7688 128.449 74.4874 126.268 74.3691 125.633L72.8884 125.513C72.3317 125.468 71.8257 125.181 71.5008 124.726C71.176 124.269 71.0697 123.698 71.2098 123.156L73.0539 116.011C70.8813 114.285 65.3574 110.491 63.5519 111.818L59.5098 123.641C59.2199 124.489 58.4929 125.123 57.6137 125.293L56.1452 125.58V125.577Z" fill="black"/>
<path d="M66.0977 113.507C66.0977 113.507 68.0686 118.059 73.2315 117.218C78.3943 116.378 78.5247 109.809 78.0634 102.83C77.3134 103.194 76.4004 103.448 75.0816 103.408C72.8414 103.341 68.1846 102.443 67.966 101.929C68.8053 103.901 69.1253 105.927 68.0771 107.192C67.6665 107.744 66.8911 108.141 65.5192 108.165C65.5192 108.165 64.8646 105.979 62.9179 107.247C60.9699 108.517 61.6945 113.872 66.0965 113.507H66.0977Z" fill="white"/>
<path d="M71.9983 117.588C68.1555 117.588 66.3331 114.548 65.937 113.785C64.0047 113.876 62.4939 112.885 61.8828 111.1C61.3249 109.471 61.7077 107.718 62.7729 107.025C63.4274 106.599 64.0301 106.482 64.5638 106.677C65.2196 106.918 65.565 107.565 65.7027 107.894C66.7461 107.846 67.4731 107.558 67.8632 107.034C68.9477 105.723 68.3837 103.593 67.7207 102.034C67.6628 101.899 67.7268 101.742 67.8608 101.685C67.9888 101.631 68.1362 101.685 68.2002 101.806C68.5866 102.201 72.8051 103.074 75.0876 103.144C76.1974 103.179 77.102 103.002 77.9449 102.593C78.0246 102.554 78.1188 102.558 78.1949 102.603C78.2722 102.647 78.3205 102.727 78.3266 102.815C78.7637 109.443 78.771 116.589 73.2712 117.484C72.8232 117.556 72.3981 117.59 71.9959 117.59L71.9983 117.588ZM66.0976 113.24C66.2027 113.24 66.2993 113.303 66.3416 113.401C66.4188 113.578 68.2992 117.753 73.1879 116.955C78.1466 116.147 78.2191 109.512 77.8218 103.228C77.0005 103.563 76.1177 103.705 75.0731 103.674C73.7591 103.634 70.0926 103.118 68.4816 102.512C69.0564 104.111 69.3692 106.051 68.2823 107.362C67.7739 108.046 66.8427 108.409 65.524 108.431H65.5191C65.402 108.431 65.2981 108.354 65.2643 108.241C65.2619 108.234 65.0022 107.403 64.3779 107.176C64.0107 107.042 63.5687 107.142 63.0627 107.471C62.2101 108.026 61.9118 109.546 62.3852 110.927C62.6473 111.693 63.5361 113.451 66.0734 113.242C66.0807 113.242 66.0879 113.242 66.0952 113.242L66.0976 113.24Z" fill="black"/>
<path d="M64.8115 110.979C64.7004 110.979 64.5978 110.909 64.5591 110.799C64.448 110.475 64.3345 110.142 64.1425 109.875C63.9529 109.61 63.6908 109.442 63.442 109.424C63.2947 109.414 63.1848 109.286 63.1944 109.14C63.2053 108.992 63.3321 108.884 63.4782 108.892C63.8901 108.92 64.2898 109.165 64.576 109.564C64.8127 109.893 64.9468 110.282 65.0639 110.625C65.111 110.764 65.0374 110.916 64.8985 110.963C64.8695 110.973 64.8405 110.978 64.8127 110.978L64.8115 110.979Z" fill="black"/>
<path d="M52.6841 176.483L76.7532 173.466L79.0526 178.964L60.4109 188.042C60.4109 188.042 51.1781 181.679 52.6841 176.483Z" fill="#BBB9FA"/>
<path d="M46.6829 195.685C46.6829 195.685 106.748 153.022 124.922 158.002C143.097 162.983 138.998 186.404 128.303 195.439C120.868 201.72 109.098 211.758 75.8411 219.506C42.5828 227.253 46.6829 195.684 46.6829 195.684V195.685Z" fill="white"/>
<path d="M66.2172 220.997C60.5834 220.997 56.0667 219.482 52.7262 216.459C44.7568 209.247 46.4016 195.786 46.4197 195.651C46.4294 195.577 46.4692 195.511 46.5296 195.468C46.6794 195.362 61.7536 184.68 78.8544 174.746C101.861 161.38 117.384 155.66 124.994 157.745C133.321 160.028 136.237 165.81 137.219 170.26C138.15 174.481 137.735 179.428 136.051 184.189C134.408 188.837 131.717 192.904 128.476 195.643L128.372 195.732C121.152 201.832 109.068 212.041 75.9016 219.767C72.3776 220.588 69.1458 220.997 66.2172 220.997ZM46.9342 195.834C46.7941 197.149 45.7084 209.393 53.0861 216.066C58.0255 220.535 65.6617 221.605 75.782 219.247C108.823 211.551 120.38 201.786 128.029 195.325L128.133 195.236C134.774 189.627 138.535 178.706 136.7 170.375C135.751 166.069 132.925 160.471 124.854 158.258C107.345 153.46 49.678 193.9 46.9354 195.833L46.9342 195.834Z" fill="black"/>
<path d="M98.8548 212.142C98.7497 212.142 98.6495 212.078 98.6072 211.974C95.5699 204.382 81.7275 189.597 81.5886 189.449C81.4871 189.341 81.4932 189.173 81.6006 189.072C81.7069 188.972 81.876 188.977 81.9774 189.084C82.5499 189.693 96.0288 204.089 99.1035 211.776C99.1579 211.913 99.0915 212.067 98.955 212.123C98.9224 212.136 98.8898 212.142 98.856 212.142H98.8548Z" fill="black"/>
<path d="M59.756 201.592C59.6799 201.592 59.6038 201.559 59.5519 201.497C59.4577 201.384 59.4722 201.216 59.5845 201.121C68.787 193.401 110.39 171.011 110.811 170.787C110.94 170.716 111.102 170.766 111.172 170.895C111.242 171.024 111.192 171.186 111.063 171.256C110.644 171.481 69.0877 193.846 59.9275 201.53C59.878 201.573 59.8164 201.593 59.7572 201.593L59.756 201.592Z" fill="black"/>
<path d="M97.6567 217.631C98.1204 218.199 98.217 218.982 97.903 219.645C97.589 220.308 96.9224 220.731 96.1893 220.731H44.2893C38.9139 220.731 33.7378 218.696 29.802 215.033C24.2153 209.833 15.7905 201.911 8.68692 194.887C0.634109 186.925 -1.90564 174.94 2.21496 164.389C2.27655 164.232 2.33694 164.076 2.39853 163.919C5.88631 155.058 16.7506 151.804 24.5099 157.323C40.1494 168.448 64.9116 186.73 74.7289 197.651C74.7289 197.651 91.4975 210.099 97.6554 217.63L97.6567 217.631Z" fill="white"/>
<path d="M96.1896 220.997H44.2896C38.8272 220.997 33.6185 218.947 29.6211 215.228C23.875 209.88 15.5468 202.042 8.5012 195.076C0.369898 187.037 -2.19521 174.953 1.96766 164.293L2.15243 163.823C3.84922 159.513 7.36478 156.286 11.7994 154.968C16.2195 153.655 20.9089 154.434 24.6672 157.108C39.1352 167.4 64.8938 186.322 74.9115 197.456C75.6035 197.971 91.8564 210.116 97.8646 217.463C98.3912 218.107 98.5011 219.008 98.146 219.76C97.7898 220.513 97.0229 220.998 96.192 220.998L96.1896 220.997ZM16.0637 154.876C14.6906 154.876 13.3066 155.075 11.9491 155.478C7.67274 156.748 4.28157 159.861 2.64637 164.017L2.46281 164.486C-1.62277 174.948 0.894031 186.806 8.87438 194.697C15.9151 201.658 24.2397 209.493 29.9834 214.838C33.8818 218.466 38.9625 220.464 44.2896 220.464H96.1896C96.8164 220.464 97.3949 220.098 97.663 219.531C97.9311 218.964 97.8477 218.284 97.4516 217.799C91.3842 210.379 74.74 197.989 74.5721 197.866C74.5576 197.855 74.5444 197.843 74.5323 197.83C64.5617 186.737 38.8164 167.826 24.3568 157.541C21.8883 155.785 19.002 154.875 16.0649 154.875L16.0637 154.876Z" fill="black"/>
<path d="M54.3277 220.997C54.2818 220.997 54.236 220.985 54.1925 220.961C41.6097 213.559 27.2129 200.746 17.514 188.318C16.211 186.647 14.8716 184.847 14.0806 182.807C14.0275 182.669 14.0951 182.516 14.2328 182.463C14.3693 182.41 14.5238 182.477 14.577 182.615C15.3426 184.587 16.6554 186.353 17.9331 187.991C27.5945 200.371 41.9333 213.133 54.4618 220.503C54.5886 220.578 54.6309 220.741 54.556 220.868C54.5065 220.953 54.4171 221 54.3265 221L54.3277 220.997Z" fill="black"/>
<path d="M51.6972 216.847C51.6356 216.847 51.5728 216.826 51.5221 216.782C51.411 216.685 51.4001 216.518 51.4967 216.406C57.9892 208.958 65.5058 202.488 73.8388 197.177C73.962 197.098 74.1274 197.134 74.2059 197.258C74.2844 197.382 74.2482 197.546 74.1238 197.625C65.8343 202.908 58.3563 209.345 51.8977 216.756C51.8445 216.816 51.7709 216.847 51.6972 216.847Z" fill="black"/>
<path d="M45.2338 211.168C45.1674 211.168 45.0998 211.142 45.0479 211.093C44.9428 210.99 44.9404 210.822 45.043 210.716C51.7988 203.763 59.2296 197.393 67.1315 191.778C67.251 191.693 67.4177 191.722 67.5022 191.841C67.5868 191.961 67.559 192.127 67.4394 192.212C59.5642 197.807 52.1575 204.157 45.4247 211.086C45.3727 211.139 45.3027 211.166 45.2338 211.166V211.168Z" fill="black"/>
<path d="M91.586 130.792C89.2383 127.619 85.6503 125.602 81.7205 125.24C79.4827 125.033 76.6772 124.814 73.5469 124.654C73.3742 125.218 73.1339 125.763 72.8211 126.277C71.9141 127.77 70.4939 128.92 68.9107 129.634C67.3262 130.347 65.5533 130.671 63.8227 130.462C62.1271 130.258 60.5149 129.536 59.3434 128.272C58.3881 127.244 57.2433 126 56.9498 124.651C54.1105 124.811 51.8727 125.047 49.2086 125.465C44.123 126.262 39.6558 129.288 36.9651 133.678C32.0342 141.724 23.4947 156.031 23.0382 167.541C22.3027 186.093 52.4174 178.222 52.4174 178.222L86.2421 175.115L105.838 159.947C105.838 159.947 99.7391 141.803 91.5872 130.79L91.586 130.792Z" fill="#BBB9FA"/>
<path d="M52.8013 174.472C52.5695 176.035 54.1515 177.242 55.5959 176.601C58.5475 175.294 61.7442 174.634 64.9723 174.667L78.9343 174.807C78.9343 174.807 80.0248 156.811 60.2841 158.985C60.2841 158.985 54.3278 164.168 52.8013 174.472Z" fill="white"/>
<path d="M68.6509 175.143C68.6376 175.143 68.6255 175.143 68.6122 175.14C68.4673 175.118 68.3658 174.983 68.3876 174.838C68.5301 173.86 68.2994 172.771 67.7391 171.772C67.2656 170.928 66.5628 170.131 65.5918 169.336C65.4106 169.189 65.2174 169.037 65.0049 168.944C64.8696 168.884 64.8092 168.727 64.8684 168.593C64.9276 168.458 65.0834 168.397 65.2186 168.456C65.4928 168.575 65.7198 168.753 65.9287 168.924C66.9516 169.762 67.6956 170.609 68.2028 171.512C68.8211 172.614 69.0735 173.823 68.9141 174.917C68.8948 175.05 68.7813 175.145 68.6509 175.145V175.143Z" fill="black"/>
<path d="M73.1637 174.884C73.0333 174.884 72.9198 174.789 72.9004 174.655C72.7326 173.469 72.491 172.08 71.9741 170.784C71.4428 169.453 70.665 168.366 69.723 167.644C69.6071 167.555 69.5841 167.387 69.6747 167.271C69.7641 167.155 69.9308 167.132 70.0479 167.223C71.0648 168.004 71.9017 169.167 72.4681 170.587C73.0055 171.936 73.2555 173.363 73.427 174.581C73.4475 174.727 73.3461 174.861 73.2011 174.882C73.1879 174.883 73.1758 174.884 73.1637 174.884Z" fill="black"/>
<path d="M76.7798 174.884C76.7689 174.884 76.7592 174.884 76.7484 174.882C76.6022 174.865 76.4984 174.732 76.5153 174.586C77.1167 169.544 73.8221 166.412 73.7895 166.381C73.6821 166.281 73.676 166.112 73.7763 166.004C73.8765 165.897 74.0444 165.89 74.1531 165.991C74.2968 166.125 77.6783 169.341 77.0454 174.649C77.0297 174.784 76.9138 174.883 76.781 174.883L76.7798 174.884Z" fill="black"/>
<path d="M113.031 177.537H62.1004C61.7985 177.537 61.4966 177.459 61.249 177.288C60.6669 176.887 60.464 176.171 60.6947 175.555C61.2949 174.295 62.5364 173.852 64.372 173.852H116.374L115.698 175.686C115.282 176.8 114.219 177.537 113.032 177.537H113.031Z" fill="black"/>
<path d="M113.319 177.537C114.337 177.537 115.254 176.916 115.631 175.969L124.647 153.335C124.886 152.734 124.813 152.053 124.45 151.518C124.088 150.983 123.483 150.663 122.837 150.663H91.5351C89.6487 150.663 87.9676 151.852 87.3372 153.631L78.8738 177.537H113.319Z" fill="black"/>
<path d="M104.593 163.639C105.331 163.639 105.93 163.04 105.93 162.302C105.93 161.564 105.331 160.965 104.593 160.965C103.854 160.965 103.256 161.564 103.256 162.302C103.256 163.04 103.854 163.639 104.593 163.639Z" fill="#BBB9FA"/>
<path d="M36.4903 159.578C36.3454 159.578 36.2271 159.462 36.2246 159.317C36.2222 159.17 36.3394 159.049 36.4855 159.046L59.2563 158.613C59.3976 158.616 59.5244 158.728 59.528 158.874C59.5304 159.021 59.4133 159.142 59.2672 159.146L36.4964 159.578H36.4915H36.4903Z" fill="black"/>
<path d="M44.095 158.286C44.0696 158.286 44.0443 158.282 44.0189 158.275C43.8776 158.233 43.7979 158.084 43.8402 157.943C44.6723 155.173 45.8196 152.495 47.2495 149.983C47.5574 149.442 48.0477 148.73 48.8267 148.753C48.974 148.757 49.0888 148.881 49.0839 149.028C49.0791 149.175 48.9595 149.29 48.8086 149.285C48.4463 149.272 48.0924 149.579 47.712 150.247C46.3014 152.723 45.171 155.365 44.3498 158.096C44.3148 158.211 44.2097 158.286 44.095 158.286Z" fill="black"/>
<path d="M393.781 0.203979H286.362C285.009 0.203979 283.912 1.30072 283.912 2.65362V76.9204C283.912 78.2733 285.009 79.37 286.362 79.37H393.781C395.134 79.37 396.231 78.2733 396.231 76.9204V2.65362C396.231 1.30072 395.134 0.203979 393.781 0.203979Z" fill="white"/>
<path d="M357.404 79.5739H286.695C285.049 79.5739 283.709 78.2318 283.709 76.5811V2.99277C283.709 1.34206 285.048 0 286.695 0H393.45C395.096 0 396.437 1.34299 396.437 2.99277V55.9404C396.437 56.0534 396.345 56.1443 396.233 56.1443C396.121 56.1443 396.029 56.0525 396.029 55.9404V2.99277C396.029 1.56729 394.872 0.407809 393.451 0.407809H286.696C285.275 0.407809 284.118 1.56729 284.118 2.99277V76.582C284.118 78.0075 285.275 79.167 286.696 79.167H357.405C357.518 79.167 357.608 79.2578 357.608 79.3709C357.608 79.484 357.517 79.5748 357.405 79.5748L357.404 79.5739Z" fill="black"/>
<path d="M334.75 7.35852H291.199V20.7745H334.75V7.35852Z" fill="white"/>
<path d="M334.75 20.978H291.2C291.086 20.978 290.996 20.8862 290.996 20.7741V7.35808C290.996 7.24501 291.087 7.15417 291.2 7.15417H334.75C334.863 7.15417 334.954 7.24593 334.954 7.35808V20.7741C334.954 20.8872 334.862 20.978 334.75 20.978ZM291.404 20.5693H334.546V7.56106H291.404V20.5693Z" fill="black"/>
<path d="M388.944 7.35852H341.379V37.7635H388.944V7.35852Z" fill="#BBB9FA"/>
<path d="M388.944 41.6747H341.379V72.0797H388.944V41.6747Z" fill="white"/>
<path d="M388.944 72.2831H341.379C341.266 72.2831 341.175 72.1914 341.175 72.0792V41.6742C341.175 41.5612 341.267 41.4703 341.379 41.4703H388.944C389.057 41.4703 389.148 41.5621 389.148 41.6742V72.0792C389.148 72.1923 389.056 72.2831 388.944 72.2831ZM341.583 71.8753H388.74V41.8781H341.583V71.8753Z" fill="black"/>
<path d="M334.75 24.5166H291.199V31.8377H334.75V24.5166Z" fill="white"/>
<path d="M334.75 32.0419H291.2C291.086 32.0419 290.996 31.9501 290.996 31.838V24.5169C290.996 24.4038 291.087 24.313 291.2 24.313H334.75C334.863 24.313 334.954 24.4047 334.954 24.5169V31.838C334.954 31.9511 334.862 32.0419 334.75 32.0419ZM291.404 31.6332H334.546V24.7199H291.404V31.6332Z" fill="black"/>
<path d="M334.75 37.2866H291.199V72.2155H334.75V37.2866Z" fill="white"/>
<path d="M334.75 72.4195H291.2C291.086 72.4195 290.996 72.3277 290.996 72.2156V37.2867C290.996 37.1736 291.087 37.0828 291.2 37.0828H334.75C334.863 37.0828 334.954 37.1745 334.954 37.2867V72.2156C334.954 72.3286 334.862 72.4195 334.75 72.4195ZM291.404 72.0117H334.546V37.4906H291.404V72.0117Z" fill="black"/>
<path d="M320.177 62.1369C320.125 62.1369 320.072 62.1165 320.032 62.0767C319.953 61.9969 319.953 61.8681 320.032 61.7884L327.106 54.7148L320.032 47.6411C319.953 47.5614 319.953 47.4326 320.032 47.3529C320.112 47.2732 320.241 47.2732 320.321 47.3529L327.538 54.5702C327.618 54.6499 327.618 54.7787 327.538 54.8584L320.321 62.0757C320.281 62.1156 320.229 62.136 320.176 62.136L320.177 62.1369Z" fill="black"/>
<path d="M305.114 62.1376C305.062 62.1376 305.009 62.1172 304.969 62.0773L297.752 54.86C297.672 54.7803 297.672 54.6515 297.752 54.5718L304.969 47.3545C305.049 47.2748 305.178 47.2748 305.258 47.3545C305.337 47.4342 305.337 47.563 305.258 47.6427L298.184 54.7164L305.258 61.79C305.337 61.8697 305.337 61.9985 305.258 62.0782C305.218 62.1181 305.166 62.1385 305.113 62.1385L305.114 62.1376Z" fill="black"/>
<path d="M308.801 62.3132C308.77 62.3132 308.738 62.3058 308.708 62.291C308.608 62.24 308.568 62.1167 308.62 62.0166L316.145 47.2289C316.196 47.1279 316.318 47.088 316.419 47.139C316.519 47.19 316.56 47.3132 316.508 47.4133L308.983 62.2011C308.947 62.2724 308.875 62.3123 308.801 62.3123V62.3132Z" fill="black"/>
<path d="M434.007 7.13452H406.371C405.485 7.13452 404.767 7.85282 404.767 8.73888V36.3837C404.767 37.2698 405.485 37.9881 406.371 37.9881H434.007C434.893 37.9881 435.611 37.2698 435.611 36.3837V8.73888C435.611 7.85282 434.893 7.13452 434.007 7.13452Z" fill="white"/>
<path d="M434.006 38.1918H406.371C405.374 38.1918 404.562 37.3799 404.562 36.3826V8.73771C404.562 7.74043 405.373 6.92944 406.371 6.92944H434.006C435.003 6.92944 435.814 7.74043 435.814 8.73771V36.3826C435.814 37.3799 435.003 38.1918 434.006 38.1918ZM406.371 7.33818C405.599 7.33818 404.971 7.96658 404.971 8.73863V36.3835C404.971 37.1556 405.599 37.784 406.371 37.784H434.006C434.778 37.784 435.406 37.1556 435.406 36.3835V8.73863C435.406 7.96658 434.778 7.33818 434.006 7.33818H406.371Z" fill="black"/>
<path d="M433.073 29.5092C433.073 29.5092 428.226 16.9014 423.793 16.9014C419.36 16.9014 417.005 26.5998 415.344 26.5998C413.682 26.5998 413.405 22.8591 411.604 22.8591C409.803 22.8591 407.31 29.5092 407.31 29.5092C407.31 29.5092 433.072 29.2784 433.072 29.5092H433.073Z" fill="white"/>
<path d="M433.073 29.7132C433.042 29.7132 433.01 29.7058 432.983 29.6919C432.117 29.5473 417.21 29.6243 407.313 29.7132C407.248 29.7179 407.182 29.6808 407.144 29.6261C407.105 29.5714 407.097 29.5001 407.12 29.438C407.38 28.7438 409.717 22.6554 411.605 22.6554C412.646 22.6554 413.2 23.6897 413.737 24.6898C414.208 25.5675 414.652 26.3961 415.345 26.3961C415.853 26.3961 416.656 24.8585 417.433 23.3718C418.905 20.5551 420.921 16.6976 423.794 16.6976C428.314 16.6976 433.064 28.9162 433.264 29.4371C433.274 29.4602 433.278 29.4852 433.278 29.5103C433.278 29.6085 433.208 29.6929 433.111 29.7114C433.098 29.7133 433.086 29.7151 433.074 29.7151L433.073 29.7132ZM411.605 23.0632C410.309 23.0632 408.377 27.3303 407.608 29.3027C408.946 29.2915 414.547 29.2443 420.105 29.2192C429.075 29.1785 431.862 29.2155 432.76 29.2749C431.982 27.3517 427.657 17.1054 423.793 17.1054C421.168 17.1054 419.218 20.836 417.794 23.56C416.81 25.4433 416.099 26.8039 415.344 26.8039C414.408 26.8039 413.883 25.827 413.376 24.8826C412.875 23.9474 412.4 23.0632 411.604 23.0632H411.605Z" fill="black"/>
<path d="M414.223 18.8351C415.294 18.8331 416.161 17.9629 416.158 16.8915C416.156 15.8202 415.287 14.9533 414.216 14.9554C413.145 14.9574 412.279 15.8276 412.281 16.899C412.283 17.9703 413.152 18.8372 414.223 18.8351Z" fill="white"/>
<path d="M414.219 19.0451C413.037 19.0451 412.076 18.0831 412.076 16.9014C412.076 15.7196 413.037 14.7576 414.219 14.7576C415.4 14.7576 416.361 15.7196 416.361 16.9014C416.361 18.0831 415.4 19.0451 414.219 19.0451ZM414.219 15.1654C413.262 15.1654 412.483 15.9439 412.483 16.9014C412.483 17.8588 413.262 18.6373 414.219 18.6373C415.175 18.6373 415.954 17.8588 415.954 16.9014C415.954 15.9439 415.175 15.1654 414.219 15.1654Z" fill="black"/>
<path d="M401.927 21.0399H374.711C374.598 21.0399 374.507 20.9481 374.507 20.836C374.507 20.7238 374.599 20.6321 374.711 20.6321H401.927C402.04 20.6321 402.131 20.7238 402.131 20.836C402.131 20.9481 402.039 21.0399 401.927 21.0399Z" fill="black"/>
<path d="M268.053 36.4154C267.94 36.4154 267.849 36.3246 267.849 36.2115V15.1073C267.849 14.9943 267.941 14.9034 268.053 14.9034H294.137C294.25 14.9034 294.341 14.9952 294.341 15.1073C294.341 15.2195 294.249 15.3113 294.137 15.3113H268.257V36.2115C268.257 36.3246 268.165 36.4154 268.053 36.4154Z" fill="black"/>
<path d="M420.308 49.3316C421.838 49.3316 423.078 48.0908 423.078 46.5603C423.078 45.0298 421.838 43.7891 420.308 43.7891C418.778 43.7891 417.538 45.0298 417.538 46.5603C417.538 48.0908 418.778 49.3316 420.308 49.3316Z" fill="#BBB9FA"/>
<path d="M420.308 57.4203C421.838 57.4203 423.078 56.1796 423.078 54.6491C423.078 53.1185 421.838 51.8778 420.308 51.8778C418.778 51.8778 417.538 53.1185 417.538 54.6491C417.538 56.1796 418.778 57.4203 420.308 57.4203Z" fill="#BBB9FA"/>
<path d="M420.308 65.5078C421.838 65.5078 423.078 64.2671 423.078 62.7366C423.078 61.2061 421.838 59.9653 420.308 59.9653C418.778 59.9653 417.538 61.2061 417.538 62.7366C417.538 64.2671 418.778 65.5078 420.308 65.5078Z" fill="#BBB9FA"/>
<path d="M419.852 86.3236H407.603C407.496 86.3236 407.411 86.2293 407.411 86.112C407.411 85.9946 407.497 85.9003 407.603 85.9003H419.66V69.6924C419.66 69.575 419.746 69.4807 419.852 69.4807C419.957 69.4807 420.044 69.575 420.044 69.6924V86.1129C420.044 86.2303 419.957 86.3246 419.852 86.3246V86.3236Z" fill="black"/>
</svg>
