<svg width="466" height="429" viewBox="0 0 466 429" fill="none" xmlns="http://www.w3.org/2000/svg">
<path d="M16.4377 42.1782H136.458C140.391 42.1782 143.585 45.3722 143.585 49.3051V127.443C143.585 131.376 140.391 134.57 136.458 134.57H16.4377C12.5048 134.57 9.31079 131.376 9.31079 127.443V49.3051C9.31079 45.3722 12.5048 42.1782 16.4377 42.1782Z" fill="white"/>
<path d="M136.458 134.881H16.4376C12.3367 134.881 9 131.544 9 127.443V49.3048C9 45.2039 12.3367 41.8672 16.4376 41.8672H136.458C140.559 41.8672 143.896 45.2039 143.896 49.3048V127.443C143.896 131.544 140.559 134.881 136.458 134.881ZM16.4376 42.4888C12.68 42.4888 9.62157 45.5457 9.62157 49.3048V127.443C9.62157 131.202 12.68 134.259 16.4376 134.259H136.458C140.218 134.259 143.275 131.201 143.275 127.443V49.3048C143.275 45.5457 140.216 42.4888 136.458 42.4888H16.4376Z" fill="black"/>
<path d="M138.429 57.1455H14.4685C14.2976 57.1455 14.1577 57.0071 14.1577 56.8347C14.1577 56.6624 14.2962 56.5239 14.4685 56.5239H138.429C138.602 56.5239 138.74 56.6624 138.74 56.8347C138.74 57.0071 138.602 57.1455 138.429 57.1455Z" fill="black"/>
<path d="M22.7774 50.9891C23.015 49.9823 22.3915 48.9734 21.3846 48.7358C20.3777 48.4981 19.3689 49.1217 19.1312 50.1286C18.8936 51.1354 19.5172 52.1443 20.524 52.3819C21.5309 52.6196 22.5398 51.996 22.7774 50.9891Z" fill="#F9DC95"/>
<path d="M31.532 50.8592C31.6978 49.838 31.0043 48.8758 29.9832 48.7101C28.962 48.5443 27.9998 49.2378 27.8341 50.2589C27.6683 51.2801 28.3618 52.2423 29.3829 52.408C30.4041 52.5738 31.3663 51.8804 31.532 50.8592Z" fill="#F9DC95"/>
<path d="M40.2593 50.8592C40.4251 49.838 39.7316 48.8758 38.7105 48.7101C37.6893 48.5443 36.7271 49.2378 36.5614 50.2589C36.3956 51.2801 37.089 52.2423 38.1102 52.408C39.1314 52.5738 40.0936 51.8804 40.2593 50.8592Z" fill="#F9DC95"/>
<path d="M162.136 67.855H42.1142C38.1781 67.855 34.9873 71.0458 34.9873 74.9818V153.12C34.9873 157.056 38.1781 160.247 42.1142 160.247H162.136C166.072 160.247 169.263 157.056 169.263 153.12V74.9818C169.263 71.0458 166.072 67.855 162.136 67.855Z" fill="white"/>
<path d="M162.136 160.559H42.1139C38.013 160.559 34.6763 157.222 34.6763 153.121V74.9816C34.6763 70.8806 38.013 67.5439 42.1139 67.5439H162.135C166.236 67.5439 169.572 70.8806 169.572 74.9816V153.12C169.572 157.221 166.236 160.558 162.135 160.558L162.136 160.559ZM42.1139 68.1655C38.3548 68.1655 35.2978 71.2239 35.2978 74.9816V153.12C35.2978 156.879 38.3548 159.936 42.1139 159.936H162.135C165.894 159.936 168.951 156.878 168.951 153.12V74.9816C168.951 71.2225 165.892 68.1655 162.135 68.1655H42.1139Z" fill="black"/>
<path d="M164.105 82.8218H40.1448C39.9724 82.8218 39.834 82.6833 39.834 82.511C39.834 82.3386 39.9724 82.2002 40.1448 82.2002H164.105C164.278 82.2002 164.416 82.3386 164.416 82.511C164.416 82.6833 164.278 82.8218 164.105 82.8218Z" fill="black"/>
<path d="M48.5049 76.235C48.5049 77.2691 47.6658 78.1082 46.6317 78.1082C45.5977 78.1082 44.7585 77.2691 44.7585 76.235C44.7585 75.2009 45.5977 74.3618 46.6317 74.3618C47.6658 74.3618 48.5049 75.2009 48.5049 76.235Z" fill="#F9DC95"/>
<path d="M57.2327 76.235C57.2327 77.2691 56.3936 78.1082 55.3595 78.1082C54.3254 78.1082 53.4863 77.2691 53.4863 76.235C53.4863 75.2009 54.3254 74.3618 55.3595 74.3618C56.3936 74.3618 57.2327 75.2009 57.2327 76.235Z" fill="#F9DC95"/>
<path d="M65.9585 76.235C65.9585 77.2691 65.1194 78.1082 64.0853 78.1082C63.0513 78.1082 62.2122 77.2691 62.2122 76.235C62.2122 75.2009 63.0513 74.3618 64.0853 74.3618C65.1194 74.3618 65.9585 75.2009 65.9585 76.235Z" fill="#F9DC95"/>
<path d="M67.7921 93.5322H187.813C191.746 93.5322 194.94 96.7262 194.94 100.659V178.797C194.94 182.73 191.746 185.924 187.813 185.924H67.7921C63.8593 185.924 60.6653 182.73 60.6653 178.797V100.659C60.6653 96.7262 63.8593 93.5322 67.7921 93.5322Z" fill="white"/>
<path d="M187.813 186.235H67.7919C63.6909 186.235 60.3542 182.898 60.3542 178.797V100.659C60.3542 96.5579 63.6909 93.2212 67.7919 93.2212H187.813C191.914 93.2212 195.25 96.5579 195.25 100.659V178.797C195.25 182.898 191.914 186.235 187.813 186.235ZM67.7919 93.8428C64.0328 93.8428 60.9758 96.9012 60.9758 100.659V178.797C60.9758 182.556 64.0328 185.613 67.7919 185.613H187.813C191.572 185.613 194.629 182.555 194.629 178.797V100.659C194.629 96.8998 191.57 93.8428 187.813 93.8428H67.7919Z" fill="black"/>
<path d="M189.783 108.498H65.8213C65.6489 108.498 65.5105 108.36 65.5105 108.187C65.5105 108.015 65.6489 107.876 65.8213 107.876H189.782C189.954 107.876 190.093 108.015 190.093 108.187C190.093 108.36 189.954 108.498 189.782 108.498H189.783Z" fill="black"/>
<path d="M74.1817 101.912C74.1817 102.946 73.3425 103.785 72.3085 103.785C71.2744 103.785 70.4353 102.946 70.4353 101.912C70.4353 100.878 71.2744 100.039 72.3085 100.039C73.3425 100.039 74.1817 100.878 74.1817 101.912Z" fill="#F9DC95"/>
<path d="M82.909 101.912C82.909 102.946 82.0698 103.785 81.0358 103.785C80.0017 103.785 79.1626 102.946 79.1626 101.912C79.1626 100.878 80.0017 100.039 81.0358 100.039C82.0698 100.039 82.909 100.878 82.909 101.912Z" fill="#F9DC95"/>
<path d="M91.6363 101.912C91.6363 102.946 90.7971 103.785 89.7631 103.785C88.729 103.785 87.8899 102.946 87.8899 101.912C87.8899 100.878 88.729 100.039 89.7631 100.039C90.7971 100.039 91.6363 100.878 91.6363 101.912Z" fill="#F9DC95"/>
<path d="M209.943 309.689L155.313 283.842V220.385L209.943 246.233V309.689Z" fill="white"/>
<path d="M209.943 310C209.898 310 209.853 309.99 209.81 309.971L155.179 284.124C155.069 284.073 155 283.962 155 283.842V220.386C155 220.214 155.139 220.074 155.312 220.074C155.485 220.074 155.624 220.213 155.624 220.386V283.645L209.631 309.196V246.232C209.631 246.061 209.77 245.92 209.943 245.92C210.116 245.92 210.255 246.059 210.255 246.232V309.688C210.255 309.795 210.2 309.895 210.111 309.952C210.06 309.985 210.001 310 209.943 310Z" fill="black"/>
<path d="M209.943 309.689L264.575 283.842V220.385L209.943 246.233V309.689Z" fill="white"/>
<path d="M209.944 310C209.885 310 209.827 309.985 209.776 309.952C209.685 309.895 209.632 309.796 209.632 309.688V246.232C209.632 246.061 209.771 245.92 209.944 245.92C210.117 245.92 210.256 246.059 210.256 246.232V309.196L264.263 283.645V220.386C264.263 220.214 264.402 220.074 264.575 220.074C264.748 220.074 264.887 220.213 264.887 220.386V283.842C264.887 283.962 264.817 284.072 264.708 284.124L210.077 309.971C210.034 309.99 209.989 310 209.944 310Z" fill="black"/>
<path d="M209.943 194L155.313 219.848L209.943 245.694L264.575 219.848L209.943 194Z" fill="#F9DC95"/>
<path d="M282.759 25.0078L266.852 40.8754V80.5273H337.632V25.0078H282.759Z" fill="white"/>
<path d="M337.903 80.798H266.582V40.7636L282.648 24.7373H337.903V80.798ZM267.122 80.2568H337.36V25.2784H282.869L267.121 40.9874V80.2568H267.122Z" fill="black"/>
<path d="M283.029 41.146H266.852V40.6049H282.488V25.0078H283.029V41.146Z" fill="black"/>
<path d="M335.294 65.7569V62.392C335.294 60.6764 333.901 59.2866 332.182 59.2866H313.736C312.017 59.2866 310.623 60.6764 310.623 62.392V65.7569H260.504V118.102C260.504 121.326 263.124 123.938 266.355 123.938H343.98V65.7569H335.294Z" fill="#F9DC95"/>
<path d="M409.048 107.344H345.766C345.616 107.344 345.495 107.223 345.495 107.073C345.495 106.923 345.616 106.802 345.766 106.802H408.777V34.8507H339.092C338.942 34.8507 338.822 34.7302 338.822 34.5801C338.822 34.4301 338.942 34.3096 339.092 34.3096H409.048C409.198 34.3096 409.319 34.4301 409.319 34.5801V107.073C409.319 107.222 409.198 107.344 409.048 107.344Z" fill="black"/>
<path d="M246.525 28.9251C246.375 28.9251 246.255 28.8046 246.255 28.6545V20.2706C246.255 20.1218 246.375 20 246.525 20H255.196C255.346 20 255.467 20.1205 255.467 20.2706C255.467 20.4206 255.346 20.5411 255.196 20.5411H246.796V28.6545C246.796 28.8033 246.675 28.9251 246.525 28.9251Z" fill="black"/>
<path d="M359.867 28.9251C359.717 28.9251 359.596 28.8046 359.596 28.6545V20.5411H351.196C351.046 20.5411 350.926 20.4206 350.926 20.2706C350.926 20.1205 351.046 20 351.196 20H359.867C360.017 20 360.137 20.1205 360.137 20.2706V28.6545C360.137 28.8033 360.017 28.9251 359.867 28.9251Z" fill="black"/>
<path d="M359.867 128.304H351.196C351.046 128.304 350.926 128.184 350.926 128.034C350.926 127.884 351.046 127.763 351.196 127.763H359.596V119.65C359.596 119.501 359.717 119.379 359.867 119.379C360.017 119.379 360.137 119.5 360.137 119.65V128.034C360.137 128.183 360.017 128.304 359.867 128.304Z" fill="black"/>
<path d="M255.197 128.304H246.527C246.377 128.304 246.256 128.184 246.256 128.034V119.65C246.256 119.501 246.377 119.379 246.527 119.379C246.677 119.379 246.797 119.5 246.797 119.65V127.763H255.197C255.347 127.763 255.468 127.884 255.468 128.034C255.468 128.184 255.347 128.304 255.197 128.304Z" fill="black"/>
<path d="M406.956 48.5597H339.092C338.942 48.5597 338.822 48.4392 338.822 48.2891C338.822 48.1391 338.942 48.0186 339.092 48.0186H406.956C407.106 48.0186 407.226 48.1391 407.226 48.2891C407.226 48.4392 407.106 48.5597 406.956 48.5597Z" fill="black"/>
<path d="M406.956 77.9523H346.898C346.748 77.9523 346.627 77.8317 346.627 77.6817C346.627 77.5317 346.748 77.4111 346.898 77.4111H406.956C407.106 77.4111 407.226 77.5317 407.226 77.6817C407.226 77.8317 407.106 77.9523 406.956 77.9523Z" fill="black"/>
<path d="M406.956 92.6481H346.898C346.748 92.6481 346.627 92.5275 346.627 92.3775C346.627 92.2275 346.748 92.1069 346.898 92.1069H406.956C407.106 92.1069 407.226 92.2275 407.226 92.3775C407.226 92.5275 407.106 92.6481 406.956 92.6481Z" fill="black"/>
<path d="M406.956 63.2555H339.092C338.942 63.2555 338.822 63.135 338.822 62.9849C338.822 62.8349 338.942 62.7144 339.092 62.7144H406.956C407.106 62.7144 407.226 62.8349 407.226 62.9849C407.226 63.135 407.106 63.2555 406.956 63.2555Z" fill="black"/>
<path d="M381.857 107.344C381.707 107.344 381.586 107.223 381.586 107.073V34.5801C381.586 34.4313 381.707 34.3096 381.857 34.3096C382.007 34.3096 382.127 34.4301 382.127 34.5801V107.073C382.127 107.222 382.007 107.344 381.857 107.344Z" fill="black"/>
<path d="M359.867 107.344C359.717 107.344 359.596 107.223 359.596 107.073V34.5801C359.596 34.4313 359.717 34.3096 359.867 34.3096C360.017 34.3096 360.137 34.4301 360.137 34.5801V107.073C360.137 107.222 360.017 107.344 359.867 107.344Z" fill="black"/>
<path d="M286.073 197.847H283.137C282.967 197.847 282.83 197.711 282.83 197.541C282.83 197.371 282.967 197.234 283.137 197.234H285.767V196.803C285.767 196.634 285.903 196.497 286.073 196.497C286.243 196.497 286.379 196.633 286.379 196.803V197.541C286.379 197.709 286.243 197.847 286.073 197.847ZM279.461 197.847H275.786C275.616 197.847 275.48 197.711 275.48 197.541C275.48 197.371 275.616 197.234 275.786 197.234H279.461C279.631 197.234 279.767 197.371 279.767 197.541C279.767 197.711 279.631 197.847 279.461 197.847ZM272.111 197.847H268.436C268.266 197.847 268.13 197.711 268.13 197.541C268.13 197.371 268.266 197.234 268.436 197.234H272.111C272.28 197.234 272.417 197.371 272.417 197.541C272.417 197.711 272.28 197.847 272.111 197.847ZM264.76 197.847H262.993C262.823 197.847 262.687 197.711 262.687 197.541C262.687 197.371 262.823 197.234 262.993 197.234H264.76C264.93 197.234 265.067 197.371 265.067 197.541C265.067 197.711 264.93 197.847 264.76 197.847ZM286.073 193.433C285.903 193.433 285.767 193.297 285.767 193.127V189.453C285.767 189.284 285.903 189.146 286.073 189.146C286.243 189.146 286.379 189.283 286.379 189.453V193.127C286.379 193.295 286.243 193.433 286.073 193.433ZM286.073 186.083C285.903 186.083 285.767 185.947 285.767 185.777V182.102C285.767 181.934 285.903 181.796 286.073 181.796C286.243 181.796 286.379 181.932 286.379 182.102V185.777C286.379 185.945 286.243 186.083 286.073 186.083ZM286.073 178.733C285.903 178.733 285.767 178.596 285.767 178.426V174.752C285.767 174.584 285.903 174.446 286.073 174.446C286.243 174.446 286.379 174.582 286.379 174.752V178.426C286.379 178.595 286.243 178.733 286.073 178.733ZM286.073 171.384C285.903 171.384 285.767 171.247 285.767 171.078V167.403C285.767 167.235 285.903 167.097 286.073 167.097C286.243 167.097 286.379 167.233 286.379 167.403V171.078C286.379 171.246 286.243 171.384 286.073 171.384ZM286.073 164.034C285.903 164.034 285.767 163.897 285.767 163.727V160.053C285.767 159.884 285.903 159.747 286.073 159.747C286.243 159.747 286.379 159.883 286.379 160.053V163.727C286.379 163.896 286.243 164.034 286.073 164.034ZM286.073 156.683C285.903 156.683 285.767 156.547 285.767 156.377V152.703C285.767 152.534 285.903 152.396 286.073 152.396C286.243 152.396 286.379 152.533 286.379 152.703V156.377C286.379 156.546 286.243 156.683 286.073 156.683ZM286.073 149.333C285.903 149.333 285.767 149.197 285.767 149.027V145.352C285.767 145.184 285.903 145.046 286.073 145.046C286.243 145.046 286.379 145.183 286.379 145.352V149.027C286.379 149.195 286.243 149.333 286.073 149.333ZM286.073 141.983C285.903 141.983 285.767 141.846 285.767 141.677V138.002C285.767 137.834 285.903 137.696 286.073 137.696C286.243 137.696 286.379 137.832 286.379 138.002V141.677C286.379 141.845 286.243 141.983 286.073 141.983Z" fill="black"/>
<path d="M284.125 141.622L284.7 141.831L286.073 138.062L287.444 141.831L288.019 141.622L286.073 136.271L284.125 141.622Z" fill="black"/>
<path d="M134.41 244.758H130.682C130.51 244.758 130.371 244.619 130.371 244.447C130.371 244.275 130.51 244.136 130.682 244.136H134.41C134.582 244.136 134.721 244.275 134.721 244.447C134.721 244.619 134.582 244.758 134.41 244.758ZM126.952 244.758H123.224C123.052 244.758 122.914 244.619 122.914 244.447C122.914 244.275 123.052 244.136 123.224 244.136H126.952C127.125 244.136 127.263 244.275 127.263 244.447C127.263 244.619 127.125 244.758 126.952 244.758ZM119.495 244.758H115.767C115.595 244.758 115.456 244.619 115.456 244.447C115.456 244.275 115.595 244.136 115.767 244.136H119.495C119.667 244.136 119.806 244.275 119.806 244.447C119.806 244.619 119.667 244.758 119.495 244.758ZM112.038 244.758H108.31C108.137 244.758 107.999 244.619 107.999 244.447C107.999 244.275 108.137 244.136 108.31 244.136H112.038C112.21 244.136 112.348 244.275 112.348 244.447C112.348 244.619 112.21 244.758 112.038 244.758ZM104.58 244.758H100.852C100.68 244.758 100.541 244.619 100.541 244.447C100.541 244.275 100.68 244.136 100.852 244.136H104.58C104.753 244.136 104.891 244.275 104.891 244.447C104.891 244.619 104.753 244.758 104.58 244.758ZM97.1228 244.758H93.3948C93.2224 244.758 93.084 244.619 93.084 244.447C93.084 244.275 93.2224 244.136 93.3948 244.136H97.1228C97.2951 244.136 97.4336 244.275 97.4336 244.447C97.4336 244.619 97.2951 244.758 97.1228 244.758ZM89.6654 244.758H85.9373C85.765 244.758 85.6266 244.619 85.6266 244.447C85.6266 244.275 85.765 244.136 85.9373 244.136H89.6654C89.8377 244.136 89.9761 244.275 89.9761 244.447C89.9761 244.619 89.8377 244.758 89.6654 244.758ZM82.2093 244.758H78.4813C78.309 244.758 78.1706 244.619 78.1706 244.447C78.1706 244.275 78.309 244.136 78.4813 244.136H82.2093C82.3817 244.136 82.5201 244.275 82.5201 244.447C82.5201 244.619 82.3817 244.758 82.2093 244.758ZM74.7519 244.758H71.0239C70.8516 244.758 70.7131 244.619 70.7131 244.447C70.7131 244.275 70.8516 244.136 71.0239 244.136H74.7519C74.9243 244.136 75.0627 244.275 75.0627 244.447C75.0627 244.619 74.9243 244.758 74.7519 244.758ZM67.2945 244.758H63.5665C63.3941 244.758 63.2557 244.619 63.2557 244.447C63.2557 244.275 63.3941 244.136 63.5665 244.136H67.2945C67.4668 244.136 67.6053 244.275 67.6053 244.447C67.6053 244.619 67.4668 244.758 67.2945 244.758ZM59.8371 244.758H56.1091C55.9367 244.758 55.7983 244.619 55.7983 244.447C55.7983 244.275 55.9367 244.136 56.1091 244.136H59.8371C60.0094 244.136 60.1479 244.275 60.1479 244.447C60.1479 244.619 60.0094 244.758 59.8371 244.758ZM52.3797 244.758H48.6516C48.4793 244.758 48.3409 244.619 48.3409 244.447C48.3409 244.275 48.4793 244.136 48.6516 244.136H52.3797C52.552 244.136 52.6904 244.275 52.6904 244.447C52.6904 244.619 52.552 244.758 52.3797 244.758ZM44.9222 244.758H41.1942C41.0219 244.758 40.8834 244.619 40.8834 244.447C40.8834 244.275 41.0219 244.136 41.1942 244.136H44.9222C45.0946 244.136 45.233 244.275 45.233 244.447C45.233 244.619 45.0946 244.758 44.9222 244.758ZM37.4662 244.758H33.7382C33.5659 244.758 33.4274 244.619 33.4274 244.447C33.4274 244.275 33.5659 244.136 33.7382 244.136H37.4662C37.6386 244.136 37.777 244.275 37.777 244.447C37.777 244.619 37.6386 244.758 37.4662 244.758ZM30.0088 244.758H26.2808C26.1084 244.758 25.97 244.619 25.97 244.447C25.97 244.275 26.1084 244.136 26.2808 244.136H30.0088C30.1811 244.136 30.3196 244.275 30.3196 244.447C30.3196 244.619 30.1811 244.758 30.0088 244.758ZM22.5514 244.758H20.9551C20.7827 244.758 20.6443 244.619 20.6443 244.447V242.315C20.6443 242.144 20.7827 242.005 20.9551 242.005C21.1274 242.005 21.2659 242.143 21.2659 242.315V244.136H22.5514C22.7237 244.136 22.8622 244.275 22.8622 244.447C22.8622 244.619 22.7237 244.758 22.5514 244.758ZM20.9551 238.898C20.7827 238.898 20.6443 238.76 20.6443 238.587V234.859C20.6443 234.688 20.7827 234.549 20.9551 234.549C21.1274 234.549 21.2659 234.687 21.2659 234.859V238.587C21.2659 238.758 21.1274 238.898 20.9551 238.898ZM20.9551 231.441C20.7827 231.441 20.6443 231.302 20.6443 231.13V227.402C20.6443 227.231 20.7827 227.091 20.9551 227.091C21.1274 227.091 21.2659 227.23 21.2659 227.402V231.13C21.2659 231.301 21.1274 231.441 20.9551 231.441ZM20.9551 223.983C20.7827 223.983 20.6443 223.845 20.6443 223.673V219.945C20.6443 219.774 20.7827 219.634 20.9551 219.634C21.1274 219.634 21.2659 219.772 21.2659 219.945V223.673C21.2659 223.844 21.1274 223.983 20.9551 223.983ZM20.9551 216.526C20.7827 216.526 20.6443 216.388 20.6443 216.215V212.487C20.6443 212.316 20.7827 212.176 20.9551 212.176C21.1274 212.176 21.2659 212.315 21.2659 212.487V216.215C21.2659 216.386 21.1274 216.526 20.9551 216.526ZM20.9551 209.069C20.7827 209.069 20.6443 208.93 20.6443 208.758V205.03C20.6443 204.859 20.7827 204.719 20.9551 204.719C21.1274 204.719 21.2659 204.857 21.2659 205.03V208.758C21.2659 208.929 21.1274 209.069 20.9551 209.069ZM20.9551 201.613C20.7827 201.613 20.6443 201.474 20.6443 201.302V197.574C20.6443 197.403 20.7827 197.263 20.9551 197.263C21.1274 197.263 21.2659 197.401 21.2659 197.574V201.302C21.2659 201.473 21.1274 201.613 20.9551 201.613ZM20.9551 194.155C20.7827 194.155 20.6443 194.017 20.6443 193.844V190.116C20.6443 189.945 20.7827 189.806 20.9551 189.806C21.1274 189.806 21.2659 189.944 21.2659 190.116V193.844C21.2659 194.015 21.1274 194.155 20.9551 194.155ZM20.9551 186.698C20.7827 186.698 20.6443 186.559 20.6443 186.387V182.659C20.6443 182.488 20.7827 182.348 20.9551 182.348C21.1274 182.348 21.2659 182.487 21.2659 182.659V186.387C21.2659 186.558 21.1274 186.698 20.9551 186.698ZM20.9551 179.24C20.7827 179.24 20.6443 179.102 20.6443 178.929V175.201C20.6443 175.031 20.7827 174.891 20.9551 174.891C21.1274 174.891 21.2659 175.029 21.2659 175.201V178.929C21.2659 179.1 21.1274 179.24 20.9551 179.24ZM20.9551 171.783C20.7827 171.783 20.6443 171.644 20.6443 171.472V167.744C20.6443 167.573 20.7827 167.433 20.9551 167.433C21.1274 167.433 21.2659 167.572 21.2659 167.744V171.472C21.2659 171.643 21.1274 171.783 20.9551 171.783ZM20.9551 164.325C20.7827 164.325 20.6443 164.187 20.6443 164.015V160.287C20.6443 160.116 20.7827 159.976 20.9551 159.976C21.1274 159.976 21.2659 160.114 21.2659 160.287V164.015C21.2659 164.186 21.1274 164.325 20.9551 164.325ZM20.9551 156.869C20.7827 156.869 20.6443 156.731 20.6443 156.559V152.831C20.6443 152.66 20.7827 152.52 20.9551 152.52C21.1274 152.52 21.2659 152.658 21.2659 152.831V156.559C21.2659 156.73 21.1274 156.869 20.9551 156.869ZM20.9551 149.412C20.7827 149.412 20.6443 149.274 20.6443 149.101V145.373C20.6443 145.202 20.7827 145.062 20.9551 145.062C21.1274 145.062 21.2659 145.201 21.2659 145.373V149.101C21.2659 149.272 21.1274 149.412 20.9551 149.412ZM20.9551 141.955C20.7827 141.955 20.6443 141.816 20.6443 141.644V137.916C20.6443 137.745 20.7827 137.605 20.9551 137.605C21.1274 137.605 21.2659 137.743 21.2659 137.916V141.644C21.2659 141.815 21.1274 141.955 20.9551 141.955Z" fill="black"/>
<path d="M130.736 242.47L130.524 243.055L134.349 244.447L130.524 245.839L130.736 246.423L136.166 244.447L130.736 242.47Z" fill="black"/>
<path d="M134.41 232.212H130.682C130.51 232.212 130.371 232.074 130.371 231.902C130.371 231.729 130.51 231.591 130.682 231.591H134.41C134.582 231.591 134.721 231.729 134.721 231.902C134.721 232.074 134.582 232.212 134.41 232.212ZM126.952 232.212H123.224C123.052 232.212 122.914 232.074 122.914 231.902C122.914 231.729 123.052 231.591 123.224 231.591H126.952C127.125 231.591 127.263 231.729 127.263 231.902C127.263 232.074 127.125 232.212 126.952 232.212ZM119.495 232.212H115.767C115.595 232.212 115.456 232.074 115.456 231.902C115.456 231.729 115.595 231.591 115.767 231.591H119.495C119.667 231.591 119.806 231.729 119.806 231.902C119.806 232.074 119.667 232.212 119.495 232.212ZM112.038 232.212H108.31C108.137 232.212 107.999 232.074 107.999 231.902C107.999 231.729 108.137 231.591 108.31 231.591H112.038C112.21 231.591 112.348 231.729 112.348 231.902C112.348 232.074 112.21 232.212 112.038 232.212ZM104.58 232.212H100.852C100.68 232.212 100.541 232.074 100.541 231.902C100.541 231.729 100.68 231.591 100.852 231.591H104.58C104.753 231.591 104.891 231.729 104.891 231.902C104.891 232.074 104.753 232.212 104.58 232.212ZM97.1228 232.212H93.3948C93.2225 232.212 93.084 232.074 93.084 231.902C93.084 231.729 93.2225 231.591 93.3948 231.591H97.1228C97.2952 231.591 97.4336 231.729 97.4336 231.902C97.4336 232.074 97.2952 232.212 97.1228 232.212ZM89.6654 232.212H85.9374C85.765 232.212 85.6266 232.074 85.6266 231.902C85.6266 231.729 85.765 231.591 85.9374 231.591H89.6654C89.8377 231.591 89.9762 231.729 89.9762 231.902C89.9762 232.074 89.8377 232.212 89.6654 232.212ZM82.2094 232.212H78.4814C78.309 232.212 78.1706 232.074 78.1706 231.902C78.1706 231.729 78.309 231.591 78.4814 231.591H82.2094C82.3817 231.591 82.5202 231.729 82.5202 231.902C82.5202 232.074 82.3817 232.212 82.2094 232.212ZM74.752 232.212H71.024C70.8516 232.212 70.7132 232.074 70.7132 231.902C70.7132 231.729 70.8516 231.591 71.024 231.591H74.752C74.9243 231.591 75.0627 231.729 75.0627 231.902C75.0627 232.074 74.9243 232.212 74.752 232.212ZM67.2945 232.212H63.5665C63.3942 232.212 63.2557 232.074 63.2557 231.902C63.2557 231.729 63.3942 231.591 63.5665 231.591H67.2945C67.4669 231.591 67.6053 231.729 67.6053 231.902C67.6053 232.074 67.4669 232.212 67.2945 232.212ZM59.8371 232.212H56.1091C55.9368 232.212 55.7983 232.074 55.7983 231.902C55.7983 231.729 55.9368 231.591 56.1091 231.591H59.8371C60.0095 231.591 60.1479 231.729 60.1479 231.902C60.1479 232.074 60.0095 232.212 59.8371 232.212ZM52.3797 232.212H48.6517C48.4793 232.212 48.3409 232.074 48.3409 231.902C48.3409 231.729 48.4793 231.591 48.6517 231.591H52.3797C52.552 231.591 52.6905 231.729 52.6905 231.902C52.6905 232.074 52.552 232.212 52.3797 232.212ZM46.6316 230.504C46.4592 230.504 46.3208 230.366 46.3208 230.194V226.466C46.3208 226.295 46.4592 226.155 46.6316 226.155C46.8039 226.155 46.9424 226.293 46.9424 226.466V230.194C46.9424 230.365 46.8039 230.504 46.6316 230.504ZM46.6316 223.047C46.4592 223.047 46.3208 222.909 46.3208 222.736V219.008C46.3208 218.837 46.4592 218.697 46.6316 218.697C46.8039 218.697 46.9424 218.836 46.9424 219.008V222.736C46.9424 222.907 46.8039 223.047 46.6316 223.047ZM46.6316 215.59C46.4592 215.59 46.3208 215.451 46.3208 215.279V211.551C46.3208 211.38 46.4592 211.24 46.6316 211.24C46.8039 211.24 46.9424 211.378 46.9424 211.551V215.279C46.9424 215.45 46.8039 215.59 46.6316 215.59ZM46.6316 208.132C46.4592 208.132 46.3208 207.994 46.3208 207.821V204.093C46.3208 203.922 46.4592 203.783 46.6316 203.783C46.8039 203.783 46.9424 203.921 46.9424 204.093V207.821C46.9424 207.992 46.8039 208.132 46.6316 208.132ZM46.6316 200.675C46.4592 200.675 46.3208 200.536 46.3208 200.364V196.636C46.3208 196.465 46.4592 196.325 46.6316 196.325C46.8039 196.325 46.9424 196.464 46.9424 196.636V200.364C46.9424 200.535 46.8039 200.675 46.6316 200.675ZM46.6316 193.217C46.4592 193.217 46.3208 193.079 46.3208 192.907V189.179C46.3208 189.008 46.4592 188.868 46.6316 188.868C46.8039 188.868 46.9424 189.006 46.9424 189.179V192.907C46.9424 193.077 46.8039 193.217 46.6316 193.217ZM46.6316 185.76C46.4592 185.76 46.3208 185.621 46.3208 185.449V181.721C46.3208 181.55 46.4592 181.41 46.6316 181.41C46.8039 181.41 46.9424 181.549 46.9424 181.721V185.449C46.9424 185.62 46.8039 185.76 46.6316 185.76ZM46.6316 178.304C46.4592 178.304 46.3208 178.165 46.3208 177.993V174.265C46.3208 174.094 46.4592 173.954 46.6316 173.954C46.8039 173.954 46.9424 174.093 46.9424 174.265V177.993C46.9424 178.164 46.8039 178.304 46.6316 178.304ZM46.6316 170.846C46.4592 170.846 46.3208 170.708 46.3208 170.536V166.808C46.3208 166.637 46.4592 166.497 46.6316 166.497C46.8039 166.497 46.9424 166.635 46.9424 166.808V170.536C46.9424 170.707 46.8039 170.846 46.6316 170.846ZM46.6316 163.389C46.4592 163.389 46.3208 163.251 46.3208 163.078V161.146C46.3208 160.975 46.4592 160.835 46.6316 160.835C46.8039 160.835 46.9424 160.973 46.9424 161.146V163.078C46.9424 163.249 46.8039 163.389 46.6316 163.389Z" fill="black"/>
<path d="M130.736 229.925L130.524 230.509L134.349 231.902L130.524 233.293L130.736 233.878L136.166 231.902L130.736 229.925Z" fill="black"/>
<path d="M134.41 219.665H130.682C130.51 219.665 130.371 219.526 130.371 219.354C130.371 219.181 130.51 219.043 130.682 219.043H134.41C134.582 219.043 134.721 219.181 134.721 219.354C134.721 219.526 134.582 219.665 134.41 219.665ZM126.953 219.665H123.225C123.052 219.665 122.914 219.526 122.914 219.354C122.914 219.181 123.052 219.043 123.225 219.043H126.953C127.125 219.043 127.263 219.181 127.263 219.354C127.263 219.526 127.125 219.665 126.953 219.665ZM119.495 219.665H115.767C115.595 219.665 115.456 219.526 115.456 219.354C115.456 219.181 115.595 219.043 115.767 219.043H119.495C119.667 219.043 119.806 219.181 119.806 219.354C119.806 219.526 119.667 219.665 119.495 219.665ZM112.038 219.665H108.31C108.137 219.665 107.999 219.526 107.999 219.354C107.999 219.181 108.137 219.043 108.31 219.043H112.038C112.21 219.043 112.348 219.181 112.348 219.354C112.348 219.526 112.21 219.665 112.038 219.665ZM104.58 219.665H100.852C100.68 219.665 100.541 219.526 100.541 219.354C100.541 219.181 100.68 219.043 100.852 219.043H104.58C104.753 219.043 104.891 219.181 104.891 219.354C104.891 219.526 104.753 219.665 104.58 219.665ZM97.1228 219.665H93.3948C93.2225 219.665 93.0841 219.526 93.0841 219.354C93.0841 219.181 93.2225 219.043 93.3948 219.043H97.1228C97.2952 219.043 97.4336 219.181 97.4336 219.354C97.4336 219.526 97.2952 219.665 97.1228 219.665ZM89.6654 219.665H85.9374C85.7651 219.665 85.6266 219.526 85.6266 219.354C85.6266 219.181 85.7651 219.043 85.9374 219.043H89.6654C89.8378 219.043 89.9762 219.181 89.9762 219.354C89.9762 219.526 89.8378 219.665 89.6654 219.665ZM82.2094 219.665H78.4814C78.3091 219.665 78.1706 219.526 78.1706 219.354C78.1706 219.181 78.3091 219.043 78.4814 219.043H82.2094C82.3818 219.043 82.5202 219.181 82.5202 219.354C82.5202 219.526 82.3818 219.665 82.2094 219.665ZM74.752 219.665H72.3081C72.1358 219.665 71.9973 219.526 71.9973 219.354V218.068C71.9973 217.897 72.1358 217.757 72.3081 217.757C72.4804 217.757 72.6189 217.896 72.6189 218.068V219.043H74.752C74.9243 219.043 75.0628 219.181 75.0628 219.354C75.0628 219.526 74.9243 219.665 74.752 219.665ZM72.3081 214.651C72.1358 214.651 71.9973 214.513 71.9973 214.34V210.612C71.9973 210.441 72.1358 210.301 72.3081 210.301C72.4804 210.301 72.6189 210.44 72.6189 210.612V214.34C72.6189 214.511 72.4804 214.651 72.3081 214.651ZM72.3081 207.194C72.1358 207.194 71.9973 207.055 71.9973 206.883V203.155C71.9973 202.984 72.1358 202.844 72.3081 202.844C72.4804 202.844 72.6189 202.982 72.6189 203.155V206.883C72.6189 207.054 72.4804 207.194 72.3081 207.194ZM72.3081 199.736C72.1358 199.736 71.9973 199.598 71.9973 199.425V195.697C71.9973 195.526 72.1358 195.387 72.3081 195.387C72.4804 195.387 72.6189 195.525 72.6189 195.697V199.425C72.6189 199.596 72.4804 199.736 72.3081 199.736ZM72.3081 192.279C72.1358 192.279 71.9973 192.14 71.9973 191.968V188.24C71.9973 188.069 72.1358 187.929 72.3081 187.929C72.4804 187.929 72.6189 188.068 72.6189 188.24V191.968C72.6189 192.139 72.4804 192.279 72.3081 192.279Z" fill="black"/>
<path d="M130.736 217.377L130.524 217.962L134.349 219.354L130.524 220.747L130.736 221.33L136.166 219.354L130.736 217.377Z" fill="black"/>
<path d="M132.968 179.1H71.2812C71.1089 179.1 70.9705 178.962 70.9705 178.789V117.103C70.9705 116.932 71.1089 116.792 71.2812 116.792H132.968C133.14 116.792 133.279 116.93 133.279 117.103V178.789C133.279 178.96 133.14 179.1 132.968 179.1ZM71.5934 178.479H132.658V117.414H71.5934V178.479Z" fill="black"/>
<path d="M76.4487 161.091C76.4487 162.354 77.4729 163.379 78.7372 163.379C78.8319 163.379 78.9237 163.371 79.0155 163.36C79.243 164.278 79.606 165.143 80.0821 165.933C80.01 165.989 79.9394 166.05 79.873 166.116C78.9788 167.009 78.9788 168.458 79.873 169.351C80.7672 170.244 82.2152 170.244 83.1094 169.351C83.1758 169.285 83.2365 169.214 83.2931 169.142C84.0827 169.618 84.9473 169.98 85.8669 170.207C85.8556 170.299 85.8486 170.391 85.8486 170.486C85.8486 171.749 86.8727 172.773 88.1371 172.773C89.4014 172.773 90.4256 171.749 90.4256 170.486C90.4256 170.391 90.4185 170.299 90.4072 170.207C91.3254 169.98 92.1914 169.617 92.9811 169.142C93.0376 169.214 93.0983 169.285 93.1647 169.351C94.0589 170.244 95.5069 170.244 96.4011 169.351C97.2953 168.458 97.2953 167.009 96.4011 166.116C96.3347 166.05 96.2641 165.989 96.192 165.933C96.6681 165.143 97.0298 164.278 97.2586 163.36C97.3504 163.371 97.4422 163.379 97.5369 163.379C98.8012 163.379 99.8254 162.354 99.8254 161.091C99.8254 159.829 98.8012 158.804 97.5369 158.804C97.4422 158.804 97.3504 158.811 97.2586 158.823C97.0312 157.904 96.6681 157.04 96.192 156.25C96.2641 156.194 96.3347 156.133 96.4011 156.067C97.2953 155.174 97.2953 153.724 96.4011 152.832C95.5069 151.939 94.0589 151.939 93.1647 152.832C93.0983 152.898 93.0376 152.969 92.9811 153.041C92.1914 152.565 91.3268 152.203 90.4072 151.976C90.4185 151.884 90.4256 151.792 90.4256 151.697C90.4256 150.434 89.4014 149.41 88.1371 149.41C86.8727 149.41 85.8486 150.434 85.8486 151.697C85.8486 151.792 85.8556 151.884 85.8669 151.976C84.9487 152.203 84.0827 152.566 83.2931 153.041C83.2365 152.969 83.1758 152.898 83.1094 152.832C82.2152 151.939 80.7672 151.939 79.873 152.832C78.9788 153.724 78.9788 155.174 79.873 156.067C79.9394 156.133 80.01 156.194 80.0821 156.25C79.606 157.04 79.2444 157.904 79.0155 158.823C78.9237 158.811 78.8319 158.804 78.7372 158.804C77.4729 158.804 76.4487 159.829 76.4487 161.091ZM83.885 161.091C83.885 158.745 85.7878 156.844 88.1342 156.844C90.4807 156.844 92.3835 158.745 92.3835 161.091C92.3835 163.438 90.4807 165.339 88.1342 165.339C85.7878 165.339 83.885 163.438 83.885 161.091Z" fill="#F9DC95"/>
<path d="M93.107 146.352C93.6282 148.14 95.5014 149.169 97.2912 148.647C97.424 148.608 97.5526 148.56 97.6769 148.506C98.379 149.713 99.2478 150.788 100.248 151.709C100.169 151.819 100.094 151.933 100.028 152.055C99.1305 153.688 99.7281 155.739 101.363 156.636C102.997 157.533 105.048 156.935 105.945 155.301C106.012 155.179 106.068 155.055 106.119 154.929C107.433 155.277 108.807 155.432 110.203 155.377C110.226 155.511 110.252 155.644 110.292 155.778C110.813 157.567 112.686 158.595 114.476 158.074C116.266 157.553 117.294 155.68 116.773 153.891C116.735 153.758 116.686 153.63 116.632 153.506C117.838 152.803 118.915 151.935 119.836 150.936C119.946 151.015 120.06 151.09 120.182 151.156C121.816 152.053 123.868 151.456 124.765 149.821C125.662 148.188 125.064 146.137 123.43 145.24C123.308 145.174 123.184 145.117 123.058 145.068C123.407 143.754 123.562 142.379 123.506 140.985C123.64 140.963 123.773 140.936 123.907 140.896C125.697 140.375 126.725 138.502 126.204 136.713C125.683 134.925 123.81 133.896 122.02 134.418C121.887 134.457 121.758 134.505 121.634 134.559C120.932 133.353 120.063 132.277 119.063 131.356C119.142 131.246 119.217 131.132 119.284 131.01C120.181 129.377 119.583 127.326 117.949 126.429C116.314 125.532 114.263 126.13 113.366 127.764C113.299 127.886 113.243 128.01 113.192 128.136C111.878 127.788 110.504 127.633 109.108 127.688C109.086 127.554 109.059 127.421 109.019 127.287C108.498 125.498 106.625 124.47 104.835 124.991C103.045 125.512 102.017 127.385 102.538 129.174C102.577 129.307 102.625 129.435 102.679 129.56C101.473 130.262 100.396 131.13 99.4752 132.129C99.365 132.05 99.2506 131.975 99.1291 131.909C97.4947 131.012 95.4435 131.609 94.5465 133.244C93.6494 134.877 94.247 136.928 95.8814 137.825C96.0029 137.891 96.1272 137.948 96.2529 137.997C95.904 139.311 95.7486 140.686 95.8051 142.08C95.6709 142.103 95.5381 142.129 95.4039 142.169C93.6141 142.69 92.5857 144.563 93.107 146.352ZM103.635 143.285C102.668 139.962 104.578 136.484 107.9 135.517C111.224 134.549 114.702 136.458 115.67 139.78C116.638 143.103 114.728 146.581 111.405 147.548C108.081 148.516 104.603 146.607 103.635 143.285Z" fill="#F9DC95"/>
<path d="M453.206 406.382C453.23 406.382 453.255 406.38 453.281 406.375C453.485 406.334 453.617 406.135 453.576 405.931L425.65 267.325C425.609 267.12 425.411 266.988 425.205 267.029C425.001 267.071 424.869 267.27 424.91 267.474L452.835 406.08C452.871 406.259 453.029 406.384 453.204 406.384L453.206 406.382Z" fill="black"/>
<path d="M450.256 406.378C450.055 404.748 451.214 403.263 452.844 403.063C454.474 402.862 455.958 404.021 456.159 405.651C456.359 407.281 455.201 408.765 453.571 408.965C451.941 409.166 450.456 408.008 450.256 406.378Z" fill="black"/>
<path d="M382.412 406.382C382.589 406.382 382.745 406.258 382.781 406.078L410.708 267.472C410.749 267.268 410.617 267.069 410.412 267.028C410.208 266.986 410.009 267.118 409.968 267.323L382.042 405.929C382 406.133 382.132 406.332 382.337 406.373C382.362 406.378 382.386 406.38 382.412 406.38V406.382Z" fill="black"/>
<path d="M379.518 406.674C379.14 405.075 380.13 403.474 381.729 403.096C383.327 402.719 384.929 403.709 385.306 405.308C385.683 406.906 384.693 408.507 383.095 408.885C381.496 409.262 379.895 408.272 379.518 406.674Z" fill="black"/>
<path d="M413.446 362.148H442.951C443.159 362.148 443.329 361.979 443.329 361.77C443.329 361.561 443.161 361.393 442.951 361.393H413.445C413.237 361.393 413.067 361.561 413.067 361.77C413.067 361.979 413.235 362.148 413.445 362.148H413.446Z" fill="black"/>
<path d="M413.096 368.585H440.449C440.657 368.585 440.827 368.417 440.827 368.208C440.827 367.998 440.659 367.83 440.449 367.83H413.098C412.89 367.83 412.72 367.998 412.72 368.208C412.72 368.417 412.888 368.585 413.098 368.585H413.096Z" fill="black"/>
<path d="M425.052 285.809L352.567 405.393C351.217 407.62 348.803 408.979 346.199 408.979H305.598C304.299 408.979 303.786 407.295 304.865 406.571L320.816 395.88C320.816 395.88 372.022 311.021 389.578 275.809L425.052 285.809Z" fill="white"/>
<path d="M305.596 409.356H346.198C348.916 409.356 351.479 407.911 352.888 405.588L425.373 286.004C425.435 285.903 425.446 285.78 425.403 285.67C425.36 285.56 425.267 285.478 425.154 285.445L389.679 275.445C389.504 275.395 389.319 275.477 389.238 275.64C372.11 309.996 322.283 392.712 320.535 395.612L304.652 406.257C304.019 406.681 303.753 407.427 303.976 408.157C304.198 408.886 304.834 409.356 305.596 409.356ZM424.473 286.037L352.245 405.197C350.972 407.297 348.655 408.601 346.2 408.601H305.598C305.085 408.601 304.798 408.258 304.7 407.937C304.602 407.616 304.649 407.17 305.074 406.885L321.025 396.193C321.072 396.162 321.11 396.121 321.139 396.075C321.65 395.229 372.283 311.251 389.775 276.258L424.473 286.039V286.037Z" fill="black"/>
<path d="M351.819 402.287C352.001 402.287 352.161 402.156 352.192 401.971C352.226 401.765 352.087 401.571 351.881 401.537L322.603 396.67C322.395 396.638 322.203 396.775 322.169 396.981C322.134 397.187 322.273 397.381 322.479 397.415L351.758 402.281C351.778 402.285 351.799 402.287 351.819 402.287Z" fill="black"/>
<path d="M352.337 308.669C367.712 292.672 390.012 270.128 393.959 266.142C399.376 269.138 427.194 282.079 427.194 282.079L379.763 326.4L408.242 363.628C410.174 366.154 409.944 369.72 407.701 371.974L385.837 393.966C384.525 395.285 382.275 394.304 382.352 392.443L382.994 376.832C377.307 371.696 361.5 351.155 350.652 336.755C344.243 328.248 344.957 316.35 352.337 308.671V308.669Z" fill="white"/>
<path d="M384.409 394.952C385.032 394.952 385.635 394.705 386.106 394.231L407.971 372.24C410.335 369.862 410.581 366.061 408.544 363.398L380.272 326.442L427.455 282.356C427.546 282.27 427.59 282.144 427.57 282.021C427.551 281.897 427.47 281.791 427.357 281.738C427.079 281.609 399.489 268.767 394.146 265.812C393.998 265.73 393.813 265.758 393.694 265.878C389.418 270.197 367.316 292.545 352.07 308.408C344.521 316.264 343.801 328.28 350.355 336.982C361.958 352.384 376.926 371.765 382.615 376.991L381.98 392.426C381.939 393.445 382.493 394.332 383.428 394.741C383.751 394.882 384.085 394.95 384.415 394.95L384.409 394.952ZM426.528 282.184L379.505 326.122C379.363 326.254 379.346 326.473 379.462 326.626L407.941 363.854C409.75 366.219 409.532 369.594 407.434 371.705L385.569 393.696C384.977 394.291 384.229 394.267 383.725 394.048C383.22 393.828 382.695 393.294 382.73 392.455L383.371 376.844C383.376 376.732 383.33 376.624 383.248 376.549C377.707 371.543 362.628 352.022 350.954 336.525C344.624 328.121 345.319 316.514 352.61 308.928C367.628 293.301 389.303 271.379 394.027 266.607C399.496 269.567 422.784 280.437 426.528 282.182V282.184Z" fill="black"/>
<path d="M385.4 376.775C385.441 376.775 385.484 376.768 385.525 376.753C393.574 373.906 400.328 367.864 404.05 360.18C404.141 359.993 404.062 359.767 403.875 359.676C403.688 359.585 403.461 359.664 403.37 359.851C399.733 367.358 393.137 373.259 385.273 376.041C385.077 376.111 384.972 376.325 385.043 376.523C385.098 376.677 385.243 376.775 385.398 376.775H385.4Z" fill="black"/>
<path d="M385.626 234.113C385.295 240.475 386.565 244.336 388.428 251.61C389.895 257.338 391.445 263.108 391.666 269.042C398.883 271.755 406.101 274.466 413.318 277.179C413.403 266.198 412.168 255.136 408.844 244.744C406.219 236.536 403.973 235.154 400.347 226.837C400.347 226.837 399.577 225.07 395.724 219.951C394.997 218.985 394.439 218.292 393.595 218.203C391.548 217.983 389.65 221.501 388.804 223.069C385.98 228.304 385.669 233.272 385.626 234.111V234.113Z" fill="white"/>
<path d="M413.318 277.557C413.393 277.557 413.467 277.534 413.531 277.49C413.632 277.419 413.694 277.304 413.694 277.181C413.788 265.195 412.276 254.243 409.201 244.628C407.672 239.846 406.276 237.373 404.658 234.508C403.511 232.478 402.212 230.177 400.69 226.685C400.658 226.611 399.858 224.82 396.023 219.724C395.332 218.806 394.68 217.939 393.633 217.826C391.335 217.582 389.4 221.165 388.47 222.888C385.759 227.914 385.318 232.734 385.245 234.091C384.95 239.772 385.939 243.559 387.435 249.294C387.634 250.057 387.843 250.857 388.06 251.701L388.272 252.534C389.65 257.899 391.076 263.448 391.284 269.054C391.289 269.207 391.385 269.339 391.529 269.394L413.181 277.531C413.223 277.546 413.268 277.555 413.313 277.555L413.318 277.557ZM393.408 218.571C393.458 218.571 393.506 218.574 393.556 218.579C394.228 218.651 394.71 219.231 395.424 220.18C399.182 225.175 399.994 226.973 400.002 226.99C401.54 230.517 402.849 232.837 404.004 234.882C405.601 237.71 406.979 240.153 408.486 244.86C411.49 254.253 412.988 264.94 412.945 276.635L392.035 268.776C391.792 263.177 390.378 257.673 389.01 252.348L388.797 251.516C388.58 250.668 388.372 249.869 388.171 249.105C386.641 243.238 385.716 239.697 386.006 234.132C386.074 232.814 386.503 228.135 389.139 223.25C389.902 221.834 391.663 218.571 393.41 218.571H393.408Z" fill="black"/>
<path d="M400.045 213.422C400.045 213.422 392.421 216.628 390.704 222.862C388.986 229.096 413.321 320.99 413.321 320.99L440.798 298.158C446.054 293.789 447.78 286.467 445.026 280.213L418.706 220.434C418.706 220.434 407.212 210.855 400.045 213.422Z" fill="#F9DC95"/>
<path d="M346.737 245.004C357.067 245.376 368.016 245.615 369.474 244.638C372.261 242.775 381.28 236.405 385.381 227.359C389.482 218.313 400.047 213.422 400.047 213.422L412.245 236.882C412.245 236.882 385.089 262.717 369.476 262.394C361.957 262.238 353.842 261.533 347.255 260.8C348.37 255.599 348.182 250.124 346.738 245.005L346.737 245.004Z" fill="#F9DC95"/>
<path d="M316.133 253.065C316.423 251.973 317.118 251.04 317.796 250.137C319.73 247.565 321.863 244.847 324.933 243.876C326.935 243.243 329.094 243.44 331.184 243.646C333.675 243.89 344.568 245.123 346.737 245.352C348.621 245.551 349.546 255.429 348.516 259.057C348.343 259.669 348.116 260.302 347.638 260.721C346.771 261.48 345.446 261.269 344.341 260.944C340.293 259.753 336.529 257.615 333.431 254.75C332.675 254.05 331.855 253.26 330.825 253.216C329.502 253.157 328.497 254.328 327.651 255.349C326.911 256.243 326.093 257.13 325.02 257.576C323.949 258.022 322.561 257.907 321.818 257.015C321.429 256.548 321.345 255.869 321.514 255.292C321.072 255.7 320.596 256.066 320.056 256.325C319.064 256.802 317.788 256.857 316.93 256.167C316.049 255.46 315.842 254.156 316.133 253.065Z" fill="white"/>
<path d="M344.342 260.943C340.294 259.752 336.529 257.614 333.432 254.749C332.675 254.049 331.855 253.259 330.826 253.215C329.503 253.156 328.497 254.327 327.651 255.348C326.912 256.242 326.093 257.129 325.021 257.575C323.95 258.021 322.562 257.906 321.819 257.014C321.429 256.547 321.345 255.868 321.515 255.291C321.072 255.699 320.597 256.065 320.057 256.324C319.065 256.801 317.788 256.856 316.93 256.166C316.05 255.459 315.842 254.155 316.134 253.064C316.424 251.972 317.119 251.039 317.797 250.136C319.731 247.564 321.863 244.846 324.933 243.875C326.936 243.242 329.094 243.439 331.184 243.645C333.676 243.889 344.568 245.123 346.737 245.351L344.342 260.943Z" fill="white"/>
<path d="M344.341 261.32C344.504 261.32 344.655 261.214 344.703 261.049C344.762 260.848 344.649 260.639 344.448 260.581C340.46 259.407 336.74 257.295 333.687 254.472L333.613 254.405C332.846 253.695 331.977 252.888 330.841 252.839C329.293 252.768 328.176 254.122 327.359 255.107C326.695 255.908 325.902 256.799 324.874 257.228C323.992 257.595 322.76 257.557 322.107 256.775C321.822 256.432 321.731 255.893 321.875 255.4C321.923 255.237 321.856 255.062 321.712 254.973C321.568 254.884 321.381 254.901 321.257 255.016C320.772 255.464 320.337 255.773 319.891 255.987C319.085 256.375 317.93 256.49 317.165 255.876C316.374 255.241 316.259 254.057 316.496 253.165C316.772 252.128 317.444 251.232 318.097 250.366C320.217 247.545 322.204 245.136 325.044 244.237C327.004 243.616 329.204 243.832 331.144 244.022C332.683 244.173 337.498 244.709 341.366 245.139C343.777 245.407 345.869 245.64 346.694 245.728C346.903 245.752 347.087 245.599 347.109 245.391C347.131 245.184 346.98 244.999 346.773 244.976C345.947 244.889 343.857 244.657 341.45 244.388C337.579 243.957 332.762 243.42 331.218 243.269C329.205 243.072 326.923 242.849 324.816 243.514C321.763 244.48 319.692 246.982 317.492 249.909C316.83 250.79 316.08 251.788 315.766 252.967C315.466 254.095 315.636 255.613 316.691 256.461C317.59 257.183 318.973 257.262 320.217 256.665C320.504 256.528 320.782 256.36 321.067 256.152C321.115 256.564 321.271 256.952 321.527 257.257C322.455 258.369 324.063 258.383 325.164 257.924C326.35 257.43 327.218 256.459 327.941 255.589C328.867 254.469 329.717 253.547 330.808 253.594C331.666 253.631 332.395 254.307 333.1 254.959L333.174 255.028C336.311 257.93 340.136 260.1 344.235 261.307C344.271 261.317 344.307 261.322 344.341 261.322V261.32Z" fill="black"/>
<path d="M321.992 254.923C322.122 254.923 322.251 254.855 322.319 254.733C323.649 252.404 325.158 249.765 327.591 248.291C328.2 247.922 329.76 247.135 331.079 247.809C331.266 247.903 331.493 247.83 331.587 247.644C331.681 247.459 331.608 247.231 331.422 247.136C329.765 246.291 327.917 247.21 327.2 247.646C324.6 249.221 322.973 252.07 321.666 254.359C321.563 254.539 321.625 254.771 321.806 254.874C321.865 254.908 321.93 254.923 321.993 254.923H321.992Z" fill="black"/>
<path d="M423.222 217.714C424.881 219.401 426.35 221.395 426.835 223.711C427.323 226.028 426.626 228.706 424.68 230.053C423.27 231.03 421.418 231.186 419.733 230.858C418.048 230.53 416.487 229.765 414.941 229.018C410.86 227.045 406.718 225.127 402.331 223.991C397.943 222.853 393.257 222.527 388.892 223.747C388.19 223.943 387.442 224.178 386.75 223.946C385.923 223.668 385.432 222.762 385.401 221.891C385.372 221.019 385.717 220.178 386.119 219.404C391.398 209.229 405.752 207.981 415.226 212.206C418.198 213.532 420.936 215.394 423.218 217.716L423.222 217.714Z" fill="white"/>
<path d="M423.244 231.117C423.28 231.117 423.318 231.112 423.354 231.1C423.919 230.928 424.438 230.679 424.897 230.362C426.841 229.015 427.769 226.311 427.206 223.632C426.774 221.575 425.559 219.552 423.491 217.448C421.199 215.116 418.471 213.236 415.384 211.858C405.277 207.348 390.971 209.234 385.788 219.226C385.415 219.941 384.993 220.894 385.027 221.899C385.065 223.008 385.724 223.996 386.632 224.3C386.807 224.36 386.997 224.396 387.195 224.41C387.407 224.423 387.582 224.267 387.598 224.059C387.612 223.852 387.455 223.672 387.248 223.656C387.112 223.648 386.99 223.624 386.874 223.584C386.155 223.342 385.805 222.527 385.782 221.873C385.755 221.048 386.108 220.248 386.458 219.574C391.447 209.96 405.284 208.179 415.076 212.547C418.078 213.886 420.729 215.713 422.954 217.977C424.917 219.974 426.067 221.873 426.468 223.787C426.961 226.134 426.139 228.583 424.468 229.741C424.073 230.014 423.625 230.228 423.136 230.377C422.937 230.438 422.824 230.649 422.886 230.848C422.935 231.011 423.085 231.115 423.246 231.115L423.244 231.117Z" fill="black"/>
<path d="M391.407 198.58L400.045 213.423C396.174 215.164 393.041 217.108 391.313 219.437L384.042 206.097C384.209 205.154 387.478 193.957 391.405 198.58H391.407Z" fill="white"/>
<path d="M391.314 219.812C391.433 219.812 391.546 219.756 391.618 219.659C393.14 217.607 395.947 215.68 400.203 213.765C400.301 213.721 400.374 213.638 400.407 213.537C400.44 213.436 400.428 213.324 400.374 213.232L391.737 198.389C391.724 198.37 391.712 198.351 391.699 198.334C390.815 197.294 389.875 196.901 388.904 197.164C385.897 197.979 383.818 205.232 383.677 206.028C383.661 206.112 383.677 206.2 383.718 206.275L390.987 219.615C391.048 219.728 391.163 219.802 391.292 219.81C391.301 219.81 391.309 219.81 391.318 219.81L391.314 219.812ZM399.51 213.251C395.652 215.025 392.979 216.83 391.371 218.752L384.44 206.035C384.744 204.645 386.729 198.535 389.097 197.893C389.767 197.713 390.42 198.008 391.098 198.797L399.51 213.249V213.251Z" fill="black"/>
<path d="M390.424 220.848C390.535 220.848 390.647 220.798 390.72 220.702C395.449 214.648 402.835 212.843 402.91 212.826C403.113 212.778 403.238 212.575 403.19 212.371C403.142 212.169 402.939 212.043 402.735 212.09C402.423 212.163 395.022 213.967 390.125 220.235C389.996 220.4 390.025 220.637 390.19 220.765C390.259 220.819 390.341 220.846 390.422 220.846L390.424 220.848Z" fill="black"/>
<path d="M373.29 186.821C374.96 182.74 379.783 180.233 384.082 181.211C390.446 182.66 393.989 190.22 400.352 191.679C400.014 192.59 399.161 193.288 398.202 193.439C399.873 194.304 400.68 196.44 400.223 198.266C399.767 200.092 398.212 201.533 396.421 202.108C394.629 202.683 392.644 202.458 390.899 201.754L377.053 198.386C373.302 196.071 371.619 190.901 373.289 186.821H373.29Z" fill="black"/>
<path d="M390.999 199.824C391.007 199.824 391.017 199.824 391.026 199.824C391.234 199.808 391.39 199.628 391.374 199.421C391.349 199.076 391.481 198.712 391.733 198.418C391.987 198.127 392.33 197.945 392.673 197.921C392.881 197.907 393.039 197.727 393.023 197.518C393.01 197.31 392.833 197.152 392.62 197.168C392.076 197.205 391.546 197.48 391.162 197.924C390.777 198.367 390.58 198.933 390.619 199.475C390.633 199.674 390.8 199.826 390.995 199.826L390.999 199.824Z" fill="black"/>
<path d="M388.725 197.384C388.831 196.679 388.891 195.969 389.259 195.322C389.796 194.375 390.789 193.721 391.894 193.7C393.2 193.676 394.458 194.519 395.017 195.701C395.577 196.882 395.453 198.335 394.787 199.459C394.121 200.583 392.951 201.372 391.678 201.669C391.671 201.748 391.659 201.827 391.65 201.906C391.059 201.446 390.556 200.866 390.14 200.24C389.554 199.352 389.128 198.371 388.725 197.386V197.384Z" fill="white"/>
<path d="M391.65 202.281C391.7 202.281 391.752 202.271 391.798 202.25C391.916 202.201 392.001 202.093 392.021 201.967C393.336 201.595 394.451 200.761 395.11 199.649C395.861 198.381 395.956 196.806 395.357 195.536C394.717 194.184 393.322 193.286 391.887 193.321C390.684 193.343 389.552 194.038 388.931 195.133C388.574 195.761 388.481 196.423 388.39 197.063L388.353 197.327C388.342 197.394 388.351 197.463 388.377 197.526C388.771 198.493 389.21 199.514 389.826 200.445C390.295 201.154 390.832 201.744 391.419 202.201C391.486 202.254 391.568 202.28 391.65 202.28V202.281ZM391.947 194.077C393.058 194.077 394.175 194.805 394.674 195.862C395.168 196.907 395.086 198.211 394.461 199.266C393.873 200.258 392.8 201.02 391.592 201.301C391.575 201.305 391.556 201.312 391.541 201.317C391.149 200.958 390.786 200.528 390.456 200.03C389.897 199.186 389.485 198.239 389.114 197.336L389.138 197.17C389.222 196.572 389.303 196.01 389.588 195.507C390.079 194.642 390.964 194.095 391.901 194.077C391.916 194.077 391.932 194.077 391.947 194.077Z" fill="black"/>
<path d="M376.754 195.198C376.921 194.1 384.411 194.728 384.023 197.065C383.567 199.811 386.231 199.655 386.19 199.821C385.5 202.596 386.746 206.496 384.253 207.893C382.827 208.692 378.232 207.738 376.624 207.498C376.519 206.82 376.447 206.137 376.391 205.456C376.137 202.405 376.295 198.224 376.754 195.197V195.198Z" fill="white"/>
<path d="M378.65 195.427C378.019 195.427 377.647 195.494 377.465 195.549C377.038 198.523 376.904 202.529 377.142 205.393C377.187 205.935 377.237 206.407 377.291 206.841C377.396 206.859 377.508 206.877 377.624 206.898C378.932 207.119 380.909 207.452 382.4 207.452C383.352 207.452 383.738 207.317 383.882 207.236C385.059 206.575 385.157 205.158 385.18 202.9C385.188 202.054 385.197 201.184 385.317 200.359C383.278 199.743 383.069 198.186 383.277 196.944C383.285 196.896 383.299 196.807 383.168 196.654C382.607 195.992 380.538 195.432 378.649 195.432L378.65 195.427ZM378.65 194.672C380.891 194.672 384.286 195.472 384.021 197.064C383.565 199.81 386.23 199.653 386.188 199.82C385.499 202.594 386.744 206.495 384.251 207.892C383.845 208.12 383.179 208.206 382.4 208.206C380.447 208.206 377.772 207.67 376.622 207.497C376.518 206.819 376.446 206.136 376.389 205.455C376.135 202.404 376.293 198.222 376.753 195.195C376.806 194.845 377.602 194.67 378.649 194.67L378.65 194.672Z" fill="black"/>
<path d="M383.15 205.913C385.643 204.516 385.5 202.596 386.19 199.821C386.231 199.656 386.26 199.488 386.295 199.322C386.384 199.42 386.49 199.502 386.621 199.562C387.355 199.905 388.201 199.224 388.477 198.462C388.604 198.11 388.671 197.748 388.725 197.383C389.128 198.368 389.553 199.349 390.14 200.236C390.555 200.863 391.058 201.444 391.65 201.903C391.413 204.174 390.844 206.412 389.96 208.519C389.25 210.209 388.313 211.85 386.925 213.046C385.536 214.242 383.635 214.945 381.84 214.575C379.975 214.188 377.997 214.065 377.163 212.352C376.627 211.254 376.619 207.1 376.432 205.889C378.376 205.454 381.725 206.709 383.151 205.911L383.15 205.913Z" fill="black"/>
<path d="M391.251 199.469C391.429 199.469 391.589 199.342 391.621 199.16C391.752 198.451 392.196 197.801 392.81 197.423C392.989 197.313 393.044 197.082 392.934 196.903C392.824 196.725 392.592 196.67 392.414 196.78C391.62 197.267 391.046 198.106 390.878 199.022C390.841 199.227 390.976 199.424 391.182 199.462C391.204 199.465 391.228 199.469 391.251 199.469Z" fill="black"/>
<path d="M303.787 260.901H248.511V265.85H397.08V260.901H379.49H303.787Z" fill="white"/>
<path d="M248.511 266.228H397.08C397.288 266.228 397.458 266.06 397.458 265.851V260.902C397.458 260.694 397.289 260.524 397.08 260.524H379.49C379.283 260.524 379.113 260.693 379.113 260.902C379.113 261.111 379.281 261.279 379.49 261.279H396.703V265.473H248.889V261.279H303.788C303.995 261.279 304.165 261.111 304.165 260.902C304.165 260.693 303.997 260.524 303.788 260.524H248.511C248.304 260.524 248.134 260.693 248.134 260.902V265.851C248.134 266.058 248.302 266.228 248.511 266.228Z" fill="black"/>
<path d="M415.306 406.382C415.33 406.382 415.356 406.381 415.382 406.375C415.586 406.334 415.718 406.135 415.677 405.931L409.419 374.87C409.378 374.665 409.179 374.533 408.975 374.574C408.771 374.616 408.638 374.815 408.68 375.019L414.937 406.08C414.974 406.259 415.131 406.384 415.306 406.384V406.382Z" fill="black"/>
<path d="M405.062 355.537C405.086 355.537 405.112 355.535 405.138 355.53C405.342 355.489 405.474 355.29 405.433 355.085L387.44 265.777C387.399 265.573 387.2 265.441 386.995 265.482C386.791 265.523 386.659 265.722 386.7 265.927L404.693 355.235C404.729 355.413 404.887 355.538 405.062 355.538V355.537Z" fill="black"/>
<path d="M418.28 406.005C418.28 407.647 416.948 408.979 415.306 408.979C413.664 408.979 412.333 407.647 412.333 406.005C412.333 404.363 413.664 403.031 415.306 403.031C416.948 403.031 418.28 404.363 418.28 406.005Z" fill="black"/>
<path d="M242.974 406.382C243.15 406.382 243.307 406.258 243.343 406.078L271.571 265.979C271.612 265.775 271.48 265.576 271.276 265.535C271.073 265.494 270.873 265.626 270.832 265.83L242.603 405.929C242.562 406.133 242.694 406.332 242.898 406.373C242.924 406.379 242.948 406.38 242.974 406.38V406.382Z" fill="black"/>
<path d="M240 406.005C240 407.647 241.332 408.979 242.974 408.979C244.616 408.979 245.948 407.647 245.948 406.005C245.948 404.363 244.616 403.031 242.974 403.031C241.332 403.031 240 404.363 240 406.005Z" fill="black"/>
<path d="M308.721 260.943H345.076C345.076 259.038 343.531 257.494 341.627 257.494H305.272C305.272 259.399 306.816 260.943 308.721 260.943Z" fill="black"/>
<path d="M309.383 258.924L292.7 222.783C290.971 223.581 290.216 225.632 291.014 227.361L305.582 258.924H309.381H309.383Z" fill="black"/>
</svg>
