<svg width="457" height="222" viewBox="0 0 457 222" fill="none" xmlns="http://www.w3.org/2000/svg">
<path d="M5.70202 16.8838H97.0734C100.067 16.8838 102.499 19.3154 102.499 22.3094V81.7959C102.499 84.7899 100.067 87.2215 97.0734 87.2215H5.70202C2.70796 87.2215 0.276367 84.7899 0.276367 81.7959V22.3094C0.276367 19.3154 2.70796 16.8838 5.70202 16.8838Z" fill="white"/>
<path d="M97.0737 87.4579H5.70229C2.58026 87.4579 0.0400391 84.9177 0.0400391 81.7957V22.3092C0.0400391 19.1872 2.58026 16.647 5.70229 16.647H97.0737C100.196 16.647 102.736 19.1872 102.736 22.3092V81.7957C102.736 84.9177 100.196 87.4579 97.0737 87.4579ZM5.70229 17.1202C2.84159 17.1202 0.513238 19.4474 0.513238 22.3092V81.7957C0.513238 84.6574 2.84159 86.9847 5.70229 86.9847H97.0737C99.9355 86.9847 102.263 84.6564 102.263 81.7957V22.3092C102.263 19.4474 99.9344 17.1202 97.0737 17.1202H5.70229Z" fill="black"/>
<path d="M98.5742 28.2779H4.2034C4.07327 28.2779 3.9668 28.1725 3.9668 28.0413C3.9668 27.9101 4.07219 27.8047 4.2034 27.8047H98.5742C98.7055 27.8047 98.8108 27.9101 98.8108 28.0413C98.8108 28.1725 98.7055 28.2779 98.5742 28.2779Z" fill="black"/>
<path d="M10.5287 23.5913C10.7096 22.8248 10.2349 22.0568 9.46836 21.8758C8.70184 21.6949 7.93379 22.1697 7.75287 22.9362C7.57195 23.7027 8.04668 24.4708 8.81321 24.6517C9.57973 24.8326 10.3478 24.3579 10.5287 23.5913Z" fill="#F9DC95"/>
<path d="M17.1936 23.4925C17.3198 22.7151 16.7919 21.9825 16.0145 21.8564C15.2371 21.7302 14.5046 22.2581 14.3784 23.0355C14.2522 23.8129 14.7801 24.5454 15.5575 24.6716C16.3349 24.7978 17.0674 24.2699 17.1936 23.4925Z" fill="#F9DC95"/>
<path d="M23.8377 23.4925C23.9639 22.7151 23.436 21.9825 22.6585 21.8564C21.8811 21.7302 21.1486 22.2581 21.0224 23.0355C20.8962 23.8129 21.4242 24.5454 22.2016 24.6716C22.979 24.7978 23.7115 24.2699 23.8377 23.4925Z" fill="#F9DC95"/>
<path d="M116.622 36.431H25.2494C22.2529 36.431 19.8237 38.8602 19.8237 41.8567V101.343C19.8237 104.34 22.2529 106.769 25.2494 106.769H116.622C119.618 106.769 122.048 104.34 122.048 101.343V41.8567C122.048 38.8602 119.618 36.431 116.622 36.431Z" fill="white"/>
<path d="M116.622 107.007H25.2492C22.1271 107.007 19.5869 104.467 19.5869 101.344V41.857C19.5869 38.7349 22.1271 36.1947 25.2492 36.1947H116.621C119.743 36.1947 122.283 38.7349 122.283 41.857V101.343C122.283 104.465 119.743 107.006 116.621 107.006L116.622 107.007ZM25.2492 36.6679C22.3874 36.6679 20.0601 38.9963 20.0601 41.857V101.343C20.0601 104.205 22.3874 106.532 25.2492 106.532H116.621C119.482 106.532 121.81 104.204 121.81 101.343V41.857C121.81 38.9952 119.481 36.6679 116.621 36.6679H25.2492Z" fill="black"/>
<path d="M118.121 47.8256H23.7498C23.6186 47.8256 23.5132 47.7202 23.5132 47.589C23.5132 47.4578 23.6186 47.3524 23.7498 47.3524H118.121C118.252 47.3524 118.357 47.4578 118.357 47.589C118.357 47.7202 118.252 47.8256 118.121 47.8256Z" fill="black"/>
<path d="M30.1148 42.8115C30.1148 43.5988 29.476 44.2376 28.6887 44.2376C27.9015 44.2376 27.2627 43.5988 27.2627 42.8115C27.2627 42.0243 27.9015 41.3855 28.6887 41.3855C29.476 41.3855 30.1148 42.0243 30.1148 42.8115Z" fill="#F9DC95"/>
<path d="M36.7593 42.8114C36.7593 43.5987 36.1205 44.2375 35.3333 44.2375C34.546 44.2375 33.9072 43.5987 33.9072 42.8114C33.9072 42.0242 34.546 41.3854 35.3333 41.3854C36.1205 41.3854 36.7593 42.0242 36.7593 42.8114Z" fill="#F9DC95"/>
<path d="M43.4024 42.8114C43.4024 43.5987 42.7636 44.2375 41.9763 44.2375C41.1891 44.2375 40.5503 43.5987 40.5503 42.8114C40.5503 42.0242 41.1891 41.3854 41.9763 41.3854C42.7636 41.3854 43.4024 42.0242 43.4024 42.8114Z" fill="#F9DC95"/>
<path d="M44.7982 55.9795H136.17C139.164 55.9795 141.595 58.4111 141.595 61.4051V120.892C141.595 123.886 139.164 126.317 136.17 126.317H44.7982C41.8042 126.317 39.3726 123.886 39.3726 120.892V61.4051C39.3726 58.4111 41.8042 55.9795 44.7982 55.9795Z" fill="white"/>
<path d="M136.169 126.554H44.798C41.676 126.554 39.1357 124.013 39.1357 120.891V61.4048C39.1357 58.2828 41.676 55.7426 44.798 55.7426H136.169C139.291 55.7426 141.832 58.2828 141.832 61.4048V120.891C141.832 124.013 139.291 126.554 136.169 126.554ZM44.798 56.2158C41.9362 56.2158 39.6089 58.5441 39.6089 61.4048V120.891C39.6089 123.753 41.9362 126.08 44.798 126.08H136.169C139.031 126.08 141.358 123.752 141.358 120.891V61.4048C141.358 58.543 139.03 56.2158 136.169 56.2158H44.798Z" fill="black"/>
<path d="M137.67 67.373H43.2981C43.1669 67.373 43.0615 67.2676 43.0615 67.1364C43.0615 67.0052 43.1669 66.8998 43.2981 66.8998H137.669C137.8 66.8998 137.906 67.0052 137.906 67.1364C137.906 67.2676 137.8 67.373 137.669 67.373H137.67Z" fill="black"/>
<path d="M49.6626 62.3588C49.6626 63.146 49.0238 63.7848 48.2366 63.7848C47.4494 63.7848 46.8105 63.146 46.8105 62.3588C46.8105 61.5716 47.4494 60.9327 48.2366 60.9327C49.0238 60.9327 49.6626 61.5716 49.6626 62.3588Z" fill="#F9DC95"/>
<path d="M56.3072 62.3585C56.3072 63.1458 55.6684 63.7846 54.8811 63.7846C54.0939 63.7846 53.4551 63.1458 53.4551 62.3585C53.4551 61.5713 54.0939 60.9325 54.8811 60.9325C55.6684 60.9325 56.3072 61.5713 56.3072 62.3585Z" fill="#F9DC95"/>
<path d="M62.9507 62.3585C62.9507 63.1458 62.3119 63.7846 61.5247 63.7846C60.7375 63.7846 60.0986 63.1458 60.0986 62.3585C60.0986 61.5713 60.7375 60.9325 61.5247 60.9325C62.3119 60.9325 62.9507 61.5713 62.9507 62.3585Z" fill="#F9DC95"/>
<path d="M153.017 220.539L111.428 200.862V152.552L153.017 172.23V220.539Z" fill="white"/>
<path d="M153.017 220.776C152.983 220.776 152.948 220.768 152.916 220.753L111.325 201.076C111.242 201.037 111.189 200.953 111.189 200.862V152.553C111.189 152.422 111.295 152.315 111.427 152.315C111.558 152.315 111.664 152.421 111.664 152.553V200.711L152.78 220.164V172.229C152.78 172.099 152.886 171.992 153.017 171.992C153.149 171.992 153.255 172.098 153.255 172.229V220.538C153.255 220.619 153.213 220.696 153.145 220.739C153.106 220.764 153.062 220.776 153.017 220.776Z" fill="black"/>
<path d="M153.018 220.539L194.608 200.862V152.552L153.018 172.23V220.539Z" fill="white"/>
<path d="M153.018 220.776C152.974 220.776 152.929 220.764 152.89 220.739C152.821 220.696 152.78 220.62 152.78 220.538V172.229C152.78 172.099 152.886 171.992 153.018 171.992C153.149 171.992 153.255 172.098 153.255 172.229V220.164L194.371 200.711V152.553C194.371 152.422 194.477 152.315 194.608 152.315C194.74 152.315 194.846 152.421 194.846 152.553V200.862C194.846 200.953 194.793 201.036 194.71 201.076L153.119 220.753C153.087 220.768 153.052 220.776 153.018 220.776Z" fill="black"/>
<path d="M153.017 132.466L111.428 152.143L153.017 171.82L194.608 152.143L153.017 132.466Z" fill="#F9DC95"/>
<path d="M208.452 3.81226L196.342 15.8922V46.0791H250.227V3.81226H208.452Z" fill="white"/>
<path d="M250.433 46.285H196.136V15.807L208.367 3.6062H250.433V46.285ZM196.548 45.873H250.02V4.01817H208.536L196.547 15.9774V45.873H196.548Z" fill="black"/>
<path d="M208.658 16.0982H196.342V15.6862H208.246V3.81226H208.658V16.0982Z" fill="black"/>
<path d="M248.447 34.8343V32.2726C248.447 30.9665 247.386 29.9084 246.078 29.9084H232.035C230.726 29.9084 229.665 30.9665 229.665 32.2726V34.8343H191.51V74.6845C191.51 77.1385 193.504 79.1272 195.964 79.1272H255.059V34.8343H248.447Z" fill="#F9DC95"/>
<path d="M304.595 66.4945H256.419C256.305 66.4945 256.213 66.4028 256.213 66.2885C256.213 66.1743 256.305 66.0825 256.419 66.0825H304.389V11.306H251.339C251.224 11.306 251.133 11.2143 251.133 11.1C251.133 10.9858 251.224 10.894 251.339 10.894H304.595C304.71 10.894 304.801 10.9858 304.801 11.1V66.2885C304.801 66.4018 304.71 66.4945 304.595 66.4945Z" fill="black"/>
<path d="M180.868 6.79463C180.753 6.79463 180.662 6.70288 180.662 6.58865V0.205983C180.662 0.0926924 180.753 0 180.868 0H187.468C187.583 0 187.674 0.0917561 187.674 0.205983C187.674 0.32021 187.583 0.411966 187.468 0.411966H181.074V6.58865C181.074 6.70194 180.982 6.79463 180.868 6.79463Z" fill="black"/>
<path d="M267.154 6.79439C267.04 6.79439 266.948 6.70263 266.948 6.58841V0.411722H260.553C260.439 0.411722 260.347 0.319966 260.347 0.205739C260.347 0.091512 260.439 -0.000244141 260.553 -0.000244141H267.154C267.268 -0.000244141 267.36 0.091512 267.36 0.205739V6.58841C267.36 6.7017 267.268 6.79439 267.154 6.79439Z" fill="black"/>
<path d="M267.154 82.4511H260.553C260.439 82.4511 260.347 82.3594 260.347 82.2451C260.347 82.1309 260.439 82.0392 260.553 82.0392H266.948V75.8625C266.948 75.7492 267.04 75.6565 267.154 75.6565C267.268 75.6565 267.36 75.7483 267.36 75.8625V82.2451C267.36 82.3584 267.268 82.4511 267.154 82.4511Z" fill="black"/>
<path d="M187.47 82.4511H180.869C180.755 82.4511 180.663 82.3594 180.663 82.2451V75.8625C180.663 75.7492 180.755 75.6565 180.869 75.6565C180.983 75.6565 181.075 75.7483 181.075 75.8625V82.0392H187.47C187.584 82.0392 187.676 82.1309 187.676 82.2451C187.676 82.3594 187.584 82.4511 187.47 82.4511Z" fill="black"/>
<path d="M303.003 21.7423H251.338C251.224 21.7423 251.132 21.6505 251.132 21.5363C251.132 21.4221 251.224 21.3303 251.338 21.3303H303.003C303.117 21.3303 303.209 21.4221 303.209 21.5363C303.209 21.6505 303.117 21.7423 303.003 21.7423Z" fill="black"/>
<path d="M303.003 44.1186H257.281C257.167 44.1186 257.075 44.0269 257.075 43.9126C257.075 43.7984 257.167 43.7067 257.281 43.7067H303.003C303.117 43.7067 303.209 43.7984 303.209 43.9126C303.209 44.0269 303.117 44.1186 303.003 44.1186Z" fill="black"/>
<path d="M303.003 55.3066H257.281C257.167 55.3066 257.075 55.2149 257.075 55.1006C257.075 54.9864 257.167 54.8947 257.281 54.8947H303.003C303.117 54.8947 303.209 54.9864 303.209 55.1006C303.209 55.2149 303.117 55.3066 303.003 55.3066Z" fill="black"/>
<path d="M303.003 32.9302H251.338C251.224 32.9302 251.132 32.8384 251.132 32.7242C251.132 32.6099 251.224 32.5182 251.338 32.5182H303.003C303.117 32.5182 303.209 32.6099 303.209 32.7242C303.209 32.8384 303.117 32.9302 303.003 32.9302Z" fill="black"/>
<path d="M283.895 66.4944C283.781 66.4944 283.689 66.4026 283.689 66.2884V11.0999C283.689 10.9866 283.781 10.8939 283.895 10.8939C284.009 10.8939 284.101 10.9857 284.101 11.0999V66.2884C284.101 66.4017 284.009 66.4944 283.895 66.4944Z" fill="black"/>
<path d="M267.154 66.4944C267.04 66.4944 266.948 66.4026 266.948 66.2884V11.0999C266.948 10.9866 267.04 10.8939 267.154 10.8939C267.268 10.8939 267.36 10.9857 267.36 11.0999V66.2884C267.36 66.4017 267.268 66.4944 267.154 66.4944Z" fill="black"/>
<path d="M210.975 135.394H208.739C208.61 135.394 208.506 135.29 208.506 135.161C208.506 135.032 208.61 134.928 208.739 134.928H210.742V134.599C210.742 134.471 210.846 134.366 210.975 134.366C211.104 134.366 211.208 134.47 211.208 134.599V135.161C211.208 135.289 211.104 135.394 210.975 135.394ZM205.941 135.394H203.144C203.014 135.394 202.91 135.29 202.91 135.161C202.91 135.032 203.014 134.928 203.144 134.928H205.941C206.07 134.928 206.174 135.032 206.174 135.161C206.174 135.29 206.07 135.394 205.941 135.394ZM200.345 135.394H197.548C197.419 135.394 197.315 135.29 197.315 135.161C197.315 135.032 197.419 134.928 197.548 134.928H200.345C200.475 134.928 200.578 135.032 200.578 135.161C200.578 135.29 200.475 135.394 200.345 135.394ZM194.749 135.394H193.404C193.275 135.394 193.171 135.29 193.171 135.161C193.171 135.032 193.275 134.928 193.404 134.928H194.749C194.879 134.928 194.983 135.032 194.983 135.161C194.983 135.29 194.879 135.394 194.749 135.394ZM210.975 132.034C210.846 132.034 210.742 131.93 210.742 131.801V129.004C210.742 128.875 210.846 128.77 210.975 128.77C211.104 128.77 211.208 128.874 211.208 129.004V131.801C211.208 131.929 211.104 132.034 210.975 132.034ZM210.975 126.438C210.846 126.438 210.742 126.334 210.742 126.205V123.408C210.742 123.28 210.846 123.175 210.975 123.175C211.104 123.175 211.208 123.279 211.208 123.408V126.205C211.208 126.333 211.104 126.438 210.975 126.438ZM210.975 120.843C210.846 120.843 210.742 120.739 210.742 120.609V117.812C210.742 117.684 210.846 117.579 210.975 117.579C211.104 117.579 211.208 117.683 211.208 117.812V120.609C211.208 120.738 211.104 120.843 210.975 120.843ZM210.975 115.248C210.846 115.248 210.742 115.144 210.742 115.015V112.217C210.742 112.089 210.846 111.984 210.975 111.984C211.104 111.984 211.208 112.088 211.208 112.217V115.015C211.208 115.143 211.104 115.248 210.975 115.248ZM210.975 109.652C210.846 109.652 210.742 109.548 210.742 109.419V106.622C210.742 106.493 210.846 106.389 210.975 106.389C211.104 106.389 211.208 106.492 211.208 106.622V109.419C211.208 109.547 211.104 109.652 210.975 109.652ZM210.975 104.057C210.846 104.057 210.742 103.953 210.742 103.823V101.026C210.742 100.898 210.846 100.793 210.975 100.793C211.104 100.793 211.208 100.897 211.208 101.026V103.823C211.208 103.952 211.104 104.057 210.975 104.057ZM210.975 98.4608C210.846 98.4608 210.742 98.3569 210.742 98.2276V95.4303C210.742 95.302 210.846 95.197 210.975 95.197C211.104 95.197 211.208 95.3009 211.208 95.4303V98.2276C211.208 98.3558 211.104 98.4608 210.975 98.4608ZM210.975 92.8651C210.846 92.8651 210.742 92.7612 210.742 92.6319V89.8345C210.742 89.7063 210.846 89.6013 210.975 89.6013C211.104 89.6013 211.208 89.7052 211.208 89.8345V92.6319C211.208 92.7601 211.104 92.8651 210.975 92.8651Z" fill="black"/>
<path d="M209.492 92.5899L209.929 92.7489L210.975 89.8795L212.019 92.7489L212.457 92.5899L210.975 88.5164L209.492 92.5899Z" fill="black"/>
<path d="M95.5141 171.107H92.676C92.5448 171.107 92.4394 171.002 92.4394 170.871C92.4394 170.739 92.5448 170.634 92.676 170.634H95.5141C95.6453 170.634 95.7507 170.739 95.7507 170.871C95.7507 171.002 95.6453 171.107 95.5141 171.107ZM89.8368 171.107H86.9987C86.8675 171.107 86.7621 171.002 86.7621 170.871C86.7621 170.739 86.8675 170.634 86.9987 170.634H89.8368C89.968 170.634 90.0734 170.739 90.0734 170.871C90.0734 171.002 89.968 171.107 89.8368 171.107ZM84.1595 171.107H81.3214C81.1902 171.107 81.0848 171.002 81.0848 170.871C81.0848 170.739 81.1902 170.634 81.3214 170.634H84.1595C84.2907 170.634 84.3961 170.739 84.3961 170.871C84.3961 171.002 84.2907 171.107 84.1595 171.107ZM78.4822 171.107H75.6441C75.5129 171.107 75.4075 171.002 75.4075 170.871C75.4075 170.739 75.5129 170.634 75.6441 170.634H78.4822C78.6134 170.634 78.7188 170.739 78.7188 170.871C78.7188 171.002 78.6134 171.107 78.4822 171.107ZM72.8049 171.107H69.9668C69.8356 171.107 69.7302 171.002 69.7302 170.871C69.7302 170.739 69.8356 170.634 69.9668 170.634H72.8049C72.9361 170.634 73.0415 170.739 73.0415 170.871C73.0415 171.002 72.9361 171.107 72.8049 171.107ZM67.1276 171.107H64.2895C64.1583 171.107 64.0529 171.002 64.0529 170.871C64.0529 170.739 64.1583 170.634 64.2895 170.634H67.1276C67.2588 170.634 67.3642 170.739 67.3642 170.871C67.3642 171.002 67.2588 171.107 67.1276 171.107ZM61.4503 171.107H58.6122C58.4809 171.107 58.3756 171.002 58.3756 170.871C58.3756 170.739 58.4809 170.634 58.6122 170.634H61.4503C61.5815 170.634 61.6869 170.739 61.6869 170.871C61.6869 171.002 61.5815 171.107 61.4503 171.107ZM55.774 171.107H52.9359C52.8047 171.107 52.6993 171.002 52.6993 170.871C52.6993 170.739 52.8047 170.634 52.9359 170.634H55.774C55.9052 170.634 56.0106 170.739 56.0106 170.871C56.0106 171.002 55.9052 171.107 55.774 171.107ZM50.0967 171.107H47.2586C47.1274 171.107 47.022 171.002 47.022 170.871C47.022 170.739 47.1274 170.634 47.2586 170.634H50.0967C50.2279 170.634 50.3333 170.739 50.3333 170.871C50.3333 171.002 50.2279 171.107 50.0967 171.107ZM44.4194 171.107H41.5813C41.4501 171.107 41.3447 171.002 41.3447 170.871C41.3447 170.739 41.4501 170.634 41.5813 170.634H44.4194C44.5506 170.634 44.656 170.739 44.656 170.871C44.656 171.002 44.5506 171.107 44.4194 171.107ZM38.7421 171.107H35.904C35.7728 171.107 35.6674 171.002 35.6674 170.871C35.6674 170.739 35.7728 170.634 35.904 170.634H38.7421C38.8733 170.634 38.9787 170.739 38.9787 170.871C38.9787 171.002 38.8733 171.107 38.7421 171.107ZM33.0648 171.107H30.2267C30.0955 171.107 29.9901 171.002 29.9901 170.871C29.9901 170.739 30.0955 170.634 30.2267 170.634H33.0648C33.196 170.634 33.3014 170.739 33.3014 170.871C33.3014 171.002 33.196 171.107 33.0648 171.107ZM27.3875 171.107H24.5494C24.4182 171.107 24.3128 171.002 24.3128 170.871C24.3128 170.739 24.4182 170.634 24.5494 170.634H27.3875C27.5187 170.634 27.6241 170.739 27.6241 170.871C27.6241 171.002 27.5187 171.107 27.3875 171.107ZM21.7113 171.107H18.8731C18.7419 171.107 18.6365 171.002 18.6365 170.871C18.6365 170.739 18.7419 170.634 18.8731 170.634H21.7113C21.8425 170.634 21.9479 170.739 21.9479 170.871C21.9479 171.002 21.8425 171.107 21.7113 171.107ZM16.034 171.107H13.1958C13.0646 171.107 12.9592 171.002 12.9592 170.871C12.9592 170.739 13.0646 170.634 13.1958 170.634H16.034C16.1652 170.634 16.2706 170.739 16.2706 170.871C16.2706 171.002 16.1652 171.107 16.034 171.107ZM10.3566 171.107H9.14138C9.01018 171.107 8.90479 171.002 8.90479 170.871V169.248C8.90479 169.118 9.01018 169.011 9.14138 169.011C9.27259 169.011 9.37798 169.116 9.37798 169.248V170.634H10.3566C10.4878 170.634 10.5932 170.739 10.5932 170.871C10.5932 171.002 10.4878 171.107 10.3566 171.107ZM9.14138 166.646C9.01018 166.646 8.90479 166.541 8.90479 166.41V163.571C8.90479 163.441 9.01018 163.335 9.14138 163.335C9.27259 163.335 9.37798 163.44 9.37798 163.571V166.41C9.37798 166.54 9.27259 166.646 9.14138 166.646ZM9.14138 160.969C9.01018 160.969 8.90479 160.863 8.90479 160.732V157.894C8.90479 157.764 9.01018 157.658 9.14138 157.658C9.27259 157.658 9.37798 157.763 9.37798 157.894V160.732C9.37798 160.862 9.27259 160.969 9.14138 160.969ZM9.14138 155.292C9.01018 155.292 8.90479 155.186 8.90479 155.055V152.217C8.90479 152.087 9.01018 151.98 9.14138 151.98C9.27259 151.98 9.37798 152.086 9.37798 152.217V155.055C9.37798 155.185 9.27259 155.292 9.14138 155.292ZM9.14138 149.614C9.01018 149.614 8.90479 149.509 8.90479 149.378V146.54C8.90479 146.409 9.01018 146.303 9.14138 146.303C9.27259 146.303 9.37798 146.408 9.37798 146.54V149.378C9.37798 149.508 9.27259 149.614 9.14138 149.614ZM9.14138 143.937C9.01018 143.937 8.90479 143.832 8.90479 143.7V140.862C8.90479 140.732 9.01018 140.626 9.14138 140.626C9.27259 140.626 9.37798 140.731 9.37798 140.862V143.7C9.37798 143.83 9.27259 143.937 9.14138 143.937ZM9.14138 138.261C9.01018 138.261 8.90479 138.155 8.90479 138.024V135.186C8.90479 135.056 9.01018 134.949 9.14138 134.949C9.27259 134.949 9.37798 135.055 9.37798 135.186V138.024C9.37798 138.154 9.27259 138.261 9.14138 138.261ZM9.14138 132.583C9.01018 132.583 8.90479 132.478 8.90479 132.347V129.509C8.90479 129.379 9.01018 129.272 9.14138 129.272C9.27259 129.272 9.37798 129.377 9.37798 129.509V132.347C9.37798 132.477 9.27259 132.583 9.14138 132.583ZM9.14138 126.906C9.01018 126.906 8.90479 126.801 8.90479 126.669V123.831C8.90479 123.701 9.01018 123.595 9.14138 123.595C9.27259 123.595 9.37798 123.7 9.37798 123.831V126.669C9.37798 126.8 9.27259 126.906 9.14138 126.906ZM9.14138 121.229C9.01018 121.229 8.90479 121.123 8.90479 120.992V118.154C8.90479 118.024 9.01018 117.917 9.14138 117.917C9.27259 117.917 9.37798 118.023 9.37798 118.154V120.992C9.37798 121.122 9.27259 121.229 9.14138 121.229ZM9.14138 115.551C9.01018 115.551 8.90479 115.446 8.90479 115.315V112.477C8.90479 112.347 9.01018 112.24 9.14138 112.24C9.27259 112.24 9.37798 112.346 9.37798 112.477V115.315C9.37798 115.445 9.27259 115.551 9.14138 115.551ZM9.14138 109.874C9.01018 109.874 8.90479 109.769 8.90479 109.638V106.799C8.90479 106.669 9.01018 106.563 9.14138 106.563C9.27259 106.563 9.37798 106.668 9.37798 106.799V109.638C9.37798 109.768 9.27259 109.874 9.14138 109.874ZM9.14138 104.198C9.01018 104.198 8.90479 104.093 8.90479 103.961V101.123C8.90479 100.993 9.01018 100.887 9.14138 100.887C9.27259 100.887 9.37798 100.992 9.37798 101.123V103.961C9.37798 104.091 9.27259 104.198 9.14138 104.198ZM9.14138 98.5206C9.01018 98.5206 8.90479 98.4152 8.90479 98.284V95.4459C8.90479 95.3158 9.01018 95.2093 9.14138 95.2093C9.27259 95.2093 9.37798 95.3147 9.37798 95.4459V98.284C9.37798 98.4141 9.27259 98.5206 9.14138 98.5206ZM9.14138 92.8433C9.01018 92.8433 8.90479 92.7379 8.90479 92.6067V89.7686C8.90479 89.6384 9.01018 89.532 9.14138 89.532C9.27259 89.532 9.37798 89.6374 9.37798 89.7686V92.6067C9.37798 92.7368 9.27259 92.8433 9.14138 92.8433Z" fill="black"/>
<path d="M92.7175 169.366L92.5562 169.811L95.4685 170.871L92.5562 171.931L92.7175 172.375L96.8515 170.871L92.7175 169.366Z" fill="black"/>
<path d="M95.5146 161.556H92.6765C92.5452 161.556 92.4398 161.451 92.4398 161.32C92.4398 161.189 92.5452 161.083 92.6765 161.083H95.5146C95.6458 161.083 95.7512 161.189 95.7512 161.32C95.7512 161.451 95.6458 161.556 95.5146 161.556ZM89.8373 161.556H86.9991C86.8679 161.556 86.7625 161.451 86.7625 161.32C86.7625 161.189 86.8679 161.083 86.9991 161.083H89.8373C89.9685 161.083 90.0739 161.189 90.0739 161.32C90.0739 161.451 89.9685 161.556 89.8373 161.556ZM84.16 161.556H81.3218C81.1906 161.556 81.0852 161.451 81.0852 161.32C81.0852 161.189 81.1906 161.083 81.3218 161.083H84.16C84.2912 161.083 84.3965 161.189 84.3965 161.32C84.3965 161.451 84.2912 161.556 84.16 161.556ZM78.4826 161.556H75.6445C75.5133 161.556 75.4079 161.451 75.4079 161.32C75.4079 161.189 75.5133 161.083 75.6445 161.083H78.4826C78.6138 161.083 78.7192 161.189 78.7192 161.32C78.7192 161.451 78.6138 161.556 78.4826 161.556ZM72.8053 161.556H69.9672C69.836 161.556 69.7306 161.451 69.7306 161.32C69.7306 161.189 69.836 161.083 69.9672 161.083H72.8053C72.9365 161.083 73.0419 161.189 73.0419 161.32C73.0419 161.451 72.9365 161.556 72.8053 161.556ZM67.128 161.556H64.2899C64.1587 161.556 64.0533 161.451 64.0533 161.32C64.0533 161.189 64.1587 161.083 64.2899 161.083H67.128C67.2592 161.083 67.3646 161.189 67.3646 161.32C67.3646 161.451 67.2592 161.556 67.128 161.556ZM61.4507 161.556H58.6126C58.4814 161.556 58.376 161.451 58.376 161.32C58.376 161.189 58.4814 161.083 58.6126 161.083H61.4507C61.5819 161.083 61.6873 161.189 61.6873 161.32C61.6873 161.451 61.5819 161.556 61.4507 161.556ZM55.7745 161.556H52.9364C52.8052 161.556 52.6998 161.451 52.6998 161.32C52.6998 161.189 52.8052 161.083 52.9364 161.083H55.7745C55.9057 161.083 56.0111 161.189 56.0111 161.32C56.0111 161.451 55.9057 161.556 55.7745 161.556ZM50.0972 161.556H47.2591C47.1279 161.556 47.0225 161.451 47.0225 161.32C47.0225 161.189 47.1279 161.083 47.2591 161.083H50.0972C50.2284 161.083 50.3338 161.189 50.3338 161.32C50.3338 161.451 50.2284 161.556 50.0972 161.556ZM44.4199 161.556H41.5817C41.4505 161.556 41.3451 161.451 41.3451 161.32C41.3451 161.189 41.4505 161.083 41.5817 161.083H44.4199C44.5511 161.083 44.6565 161.189 44.6565 161.32C44.6565 161.451 44.5511 161.556 44.4199 161.556ZM38.7426 161.556H35.9044C35.7732 161.556 35.6678 161.451 35.6678 161.32C35.6678 161.189 35.7732 161.083 35.9044 161.083H38.7426C38.8738 161.083 38.9792 161.189 38.9792 161.32C38.9792 161.451 38.8738 161.556 38.7426 161.556ZM33.0652 161.556H30.2271C30.0959 161.556 29.9905 161.451 29.9905 161.32C29.9905 161.189 30.0959 161.083 30.2271 161.083H33.0652C33.1965 161.083 33.3018 161.189 33.3018 161.32C33.3018 161.451 33.1965 161.556 33.0652 161.556ZM28.6892 160.256C28.558 160.256 28.4526 160.151 28.4526 160.02V157.182C28.4526 157.051 28.558 156.945 28.6892 156.945C28.8204 156.945 28.9258 157.05 28.9258 157.182V160.02C28.9258 160.15 28.8204 160.256 28.6892 160.256ZM28.6892 154.579C28.558 154.579 28.4526 154.474 28.4526 154.342V151.504C28.4526 151.374 28.558 151.268 28.6892 151.268C28.8204 151.268 28.9258 151.373 28.9258 151.504V154.342C28.9258 154.472 28.8204 154.579 28.6892 154.579ZM28.6892 148.902C28.558 148.902 28.4526 148.796 28.4526 148.665V145.827C28.4526 145.697 28.558 145.59 28.6892 145.59C28.8204 145.59 28.9258 145.696 28.9258 145.827V148.665C28.9258 148.795 28.8204 148.902 28.6892 148.902ZM28.6892 143.224C28.558 143.224 28.4526 143.119 28.4526 142.988V140.15C28.4526 140.02 28.558 139.913 28.6892 139.913C28.8204 139.913 28.9258 140.018 28.9258 140.15V142.988C28.9258 143.118 28.8204 143.224 28.6892 143.224ZM28.6892 137.547C28.558 137.547 28.4526 137.442 28.4526 137.31V134.472C28.4526 134.342 28.558 134.236 28.6892 134.236C28.8204 134.236 28.9258 134.341 28.9258 134.472V137.31C28.9258 137.441 28.8204 137.547 28.6892 137.547ZM28.6892 131.87C28.558 131.87 28.4526 131.764 28.4526 131.633V128.795C28.4526 128.665 28.558 128.558 28.6892 128.558C28.8204 128.558 28.9258 128.664 28.9258 128.795V131.633C28.9258 131.763 28.8204 131.87 28.6892 131.87ZM28.6892 126.192C28.558 126.192 28.4526 126.087 28.4526 125.956V123.118C28.4526 122.988 28.558 122.881 28.6892 122.881C28.8204 122.881 28.9258 122.987 28.9258 123.118V125.956C28.9258 126.086 28.8204 126.192 28.6892 126.192ZM28.6892 120.516C28.558 120.516 28.4526 120.411 28.4526 120.28V117.441C28.4526 117.311 28.558 117.205 28.6892 117.205C28.8204 117.205 28.9258 117.31 28.9258 117.441V120.28C28.9258 120.41 28.8204 120.516 28.6892 120.516ZM28.6892 114.839C28.558 114.839 28.4526 114.733 28.4526 114.602V111.764C28.4526 111.634 28.558 111.528 28.6892 111.528C28.8204 111.528 28.9258 111.633 28.9258 111.764V114.602C28.9258 114.732 28.8204 114.839 28.6892 114.839ZM28.6892 109.162C28.558 109.162 28.4526 109.056 28.4526 108.925V107.454C28.4526 107.324 28.558 107.217 28.6892 107.217C28.8204 107.217 28.9258 107.323 28.9258 107.454V108.925C28.9258 109.055 28.8204 109.162 28.6892 109.162Z" fill="black"/>
<path d="M92.7175 159.816L92.5562 160.26L95.4685 161.32L92.5562 162.379L92.7175 162.825L96.8515 161.32L92.7175 159.816Z" fill="black"/>
<path d="M95.5145 152.004H92.6764C92.5452 152.004 92.4398 151.898 92.4398 151.767C92.4398 151.636 92.5452 151.531 92.6764 151.531H95.5145C95.6457 151.531 95.7511 151.636 95.7511 151.767C95.7511 151.898 95.6457 152.004 95.5145 152.004ZM89.8372 152.004H86.9991C86.8679 152.004 86.7625 151.898 86.7625 151.767C86.7625 151.636 86.8679 151.531 86.9991 151.531H89.8372C89.9684 151.531 90.0738 151.636 90.0738 151.767C90.0738 151.898 89.9684 152.004 89.8372 152.004ZM84.1599 152.004H81.3218C81.1906 152.004 81.0852 151.898 81.0852 151.767C81.0852 151.636 81.1906 151.531 81.3218 151.531H84.1599C84.2911 151.531 84.3965 151.636 84.3965 151.767C84.3965 151.898 84.2911 152.004 84.1599 152.004ZM78.4826 152.004H75.6445C75.5133 152.004 75.4079 151.898 75.4079 151.767C75.4079 151.636 75.5133 151.531 75.6445 151.531H78.4826C78.6138 151.531 78.7192 151.636 78.7192 151.767C78.7192 151.898 78.6138 152.004 78.4826 152.004ZM72.8053 152.004H69.9672C69.836 152.004 69.7306 151.898 69.7306 151.767C69.7306 151.636 69.836 151.531 69.9672 151.531H72.8053C72.9365 151.531 73.0419 151.636 73.0419 151.767C73.0419 151.898 72.9365 152.004 72.8053 152.004ZM67.128 152.004H64.2899C64.1587 152.004 64.0533 151.898 64.0533 151.767C64.0533 151.636 64.1587 151.531 64.2899 151.531H67.128C67.2592 151.531 67.3646 151.636 67.3646 151.767C67.3646 151.898 67.2592 152.004 67.128 152.004ZM61.4507 152.004H58.6126C58.4813 152.004 58.376 151.898 58.376 151.767C58.376 151.636 58.4813 151.531 58.6126 151.531H61.4507C61.5819 151.531 61.6873 151.636 61.6873 151.767C61.6873 151.898 61.5819 152.004 61.4507 152.004ZM55.7744 152.004H52.9363C52.8051 152.004 52.6997 151.898 52.6997 151.767C52.6997 151.636 52.8051 151.531 52.9363 151.531H55.7744C55.9056 151.531 56.011 151.636 56.011 151.767C56.011 151.898 55.9056 152.004 55.7744 152.004ZM50.0971 152.004H48.2366C48.1054 152.004 48 151.898 48 151.767V150.789C48 150.659 48.1054 150.552 48.2366 150.552C48.3678 150.552 48.4732 150.657 48.4732 150.789V151.531H50.0971C50.2283 151.531 50.3337 151.636 50.3337 151.767C50.3337 151.898 50.2283 152.004 50.0971 152.004ZM48.2366 148.187C48.1054 148.187 48 148.082 48 147.951V145.112C48 144.982 48.1054 144.876 48.2366 144.876C48.3678 144.876 48.4732 144.981 48.4732 145.112V147.951C48.4732 148.081 48.3678 148.187 48.2366 148.187ZM48.2366 142.51C48.1054 142.51 48 142.404 48 142.273V139.435C48 139.305 48.1054 139.198 48.2366 139.198C48.3678 139.198 48.4732 139.304 48.4732 139.435V142.273C48.4732 142.403 48.3678 142.51 48.2366 142.51ZM48.2366 136.833C48.1054 136.833 48 136.727 48 136.596V133.758C48 133.628 48.1054 133.521 48.2366 133.521C48.3678 133.521 48.4732 133.627 48.4732 133.758V136.596C48.4732 136.726 48.3678 136.833 48.2366 136.833ZM48.2366 131.155C48.1054 131.155 48 131.05 48 130.919V128.08C48 127.95 48.1054 127.844 48.2366 127.844C48.3678 127.844 48.4732 127.949 48.4732 128.08V130.919C48.4732 131.049 48.3678 131.155 48.2366 131.155Z" fill="black"/>
<path d="M92.7175 150.262L92.5562 150.708L95.4685 151.767L92.5562 152.827L92.7175 153.272L96.8515 151.767L92.7175 150.262Z" fill="black"/>
<path d="M94.4161 121.122H47.4544C47.3232 121.122 47.2178 121.017 47.2178 120.886V73.9239C47.2178 73.7937 47.3232 73.6873 47.4544 73.6873H94.4161C94.5473 73.6873 94.6527 73.7927 94.6527 73.9239V120.886C94.6527 121.016 94.5473 121.122 94.4161 121.122ZM47.692 120.649H94.1806V74.1605H47.692V120.649Z" fill="black"/>
<path d="M51.3882 107.413C51.3882 108.374 52.1679 109.154 53.1304 109.154C53.2025 109.154 53.2724 109.149 53.3423 109.14C53.5154 109.839 53.7918 110.497 54.1542 111.098C54.0994 111.142 54.0456 111.188 53.9951 111.238C53.3143 111.918 53.3143 113.021 53.9951 113.701C54.6758 114.381 55.7782 114.381 56.4589 113.701C56.5095 113.651 56.5557 113.597 56.5987 113.542C57.1999 113.904 57.8581 114.18 58.5582 114.353C58.5496 114.423 58.5442 114.493 58.5442 114.565C58.5442 115.526 59.3239 116.306 60.2865 116.306C61.249 116.306 62.0287 115.526 62.0287 114.565C62.0287 114.493 62.0233 114.423 62.0147 114.353C62.7138 114.18 63.373 113.903 63.9742 113.542C64.0172 113.597 64.0635 113.651 64.114 113.701C64.7948 114.381 65.8971 114.381 66.5779 113.701C67.2586 113.021 67.2586 111.918 66.5779 111.238C66.5273 111.188 66.4735 111.142 66.4187 111.098C66.7811 110.497 67.0564 109.839 67.2307 109.14C67.3006 109.149 67.3705 109.154 67.4425 109.154C68.4051 109.154 69.1848 108.374 69.1848 107.413C69.1848 106.451 68.4051 105.672 67.4425 105.672C67.3705 105.672 67.3006 105.677 67.2307 105.686C67.0575 104.987 66.7811 104.329 66.4187 103.727C66.4735 103.684 66.5273 103.638 66.5779 103.588C67.2586 102.908 67.2586 101.804 66.5779 101.125C65.8971 100.445 64.7948 100.445 64.114 101.125C64.0635 101.175 64.0172 101.229 63.9742 101.284C63.373 100.921 62.7148 100.646 62.0147 100.473C62.0233 100.403 62.0287 100.333 62.0287 100.261C62.0287 99.2997 61.249 98.52 60.2865 98.52C59.3239 98.52 58.5442 99.2997 58.5442 100.261C58.5442 100.333 58.5496 100.403 58.5582 100.473C57.8592 100.646 57.1999 100.923 56.5987 101.284C56.5557 101.229 56.5095 101.175 56.4589 101.125C55.7782 100.445 54.6758 100.445 53.9951 101.125C53.3143 101.804 53.3143 102.908 53.9951 103.588C54.0456 103.638 54.0994 103.684 54.1542 103.727C53.7918 104.329 53.5165 104.987 53.3423 105.686C53.2724 105.677 53.2025 105.672 53.1304 105.672C52.1679 105.672 51.3882 106.451 51.3882 107.413ZM57.0494 107.413C57.0494 105.627 58.498 104.179 60.2843 104.179C62.0706 104.179 63.5193 105.627 63.5193 107.413C63.5193 109.199 62.0706 110.647 60.2843 110.647C58.498 110.647 57.0494 109.199 57.0494 107.413Z" fill="#F9DC95"/>
<path d="M64.0705 96.1913C64.4673 97.5528 65.8933 98.3357 67.2559 97.9389C67.357 97.9087 67.4549 97.8722 67.5495 97.8313C68.084 98.7498 68.7454 99.5682 69.5069 100.269C69.4466 100.353 69.3896 100.44 69.3391 100.533C68.6562 101.776 69.1111 103.338 70.3554 104.021C71.5997 104.703 73.1612 104.249 73.8442 103.004C73.8947 102.912 73.9377 102.817 73.9764 102.721C74.9766 102.986 76.023 103.104 77.0856 103.062C77.1028 103.164 77.1232 103.266 77.1533 103.368C77.5502 104.729 78.9762 105.512 80.3388 105.115C81.7014 104.719 82.4843 103.292 82.0875 101.931C82.0585 101.83 82.0208 101.732 81.9799 101.637C82.8984 101.103 83.7179 100.441 84.4191 99.6811C84.503 99.7413 84.5901 99.7983 84.6826 99.8489C85.9268 100.532 87.4884 100.077 88.1713 98.8326C88.8542 97.5893 88.3993 96.0278 87.155 95.3449C87.0625 95.2943 86.9679 95.2513 86.8722 95.2137C87.1378 94.2135 87.2561 93.1671 87.2131 92.1056C87.3153 92.0884 87.4163 92.068 87.5185 92.0379C88.8811 91.641 89.664 90.215 89.2672 88.8534C88.8704 87.4919 87.4443 86.709 86.0817 87.1058C85.9806 87.136 85.8828 87.1725 85.7881 87.2134C85.2536 86.2949 84.5922 85.4765 83.8308 84.7753C83.891 84.6914 83.948 84.6043 83.9986 84.5119C84.6815 83.2686 84.2266 81.7071 82.9823 81.0242C81.738 80.3412 80.1764 80.7962 79.4935 82.0405C79.443 82.1329 79.3999 82.2276 79.3612 82.3233C78.3611 82.0587 77.3146 81.9404 76.2521 81.9824C76.2349 81.8802 76.2145 81.7791 76.1843 81.677C75.7875 80.3154 74.3615 79.5325 72.9989 79.9293C71.6363 80.3262 70.8533 81.7522 71.2502 83.1138C71.2803 83.2149 71.3168 83.3127 71.3577 83.4074C70.4393 83.9419 69.6198 84.6033 68.9186 85.3636C68.8347 85.3034 68.7476 85.2464 68.6551 85.1958C67.4108 84.5129 65.8493 84.9678 65.1663 86.2121C64.4834 87.4554 64.9383 89.0169 66.1826 89.6998C66.2751 89.7504 66.3698 89.7934 66.4655 89.831C66.1999 90.8312 66.0815 91.8776 66.1246 92.9391C66.0224 92.9563 65.9213 92.9767 65.8191 93.0068C64.4565 93.4037 63.6736 94.8297 64.0705 96.1913ZM72.0858 93.8564C71.3491 91.327 72.8031 88.6792 75.3326 87.9425C77.8631 87.2059 80.5109 88.6588 81.2476 91.1882C81.9842 93.7177 80.5302 96.3655 78.0008 97.1022C75.4702 97.8388 72.8225 96.3859 72.0858 93.8564Z" fill="#F9DC95"/>
<path d="M454.475 219.021C454.493 219.021 454.513 219.02 454.533 219.016C454.688 218.984 454.789 218.833 454.757 218.677L433.497 113.157C433.466 113.001 433.315 112.901 433.159 112.932C433.003 112.964 432.903 113.115 432.934 113.271L454.193 218.791C454.22 218.927 454.341 219.022 454.474 219.022L454.475 219.021Z" fill="black"/>
<path d="M452.229 219.017C452.077 217.776 452.959 216.646 454.2 216.493C455.44 216.341 456.57 217.223 456.723 218.464C456.876 219.705 455.994 220.834 454.753 220.987C453.512 221.14 452.382 220.258 452.229 219.017Z" fill="black"/>
<path d="M400.581 219.02C400.715 219.02 400.834 218.926 400.861 218.789L422.122 113.269C422.153 113.113 422.052 112.962 421.897 112.93C421.742 112.899 421.59 113 421.559 113.155L400.298 218.675C400.267 218.831 400.368 218.982 400.523 219.014C400.543 219.018 400.561 219.019 400.581 219.019V219.02Z" fill="black"/>
<path d="M398.377 219.243C398.089 218.026 398.843 216.806 400.06 216.519C401.277 216.232 402.496 216.986 402.783 218.203C403.07 219.419 402.317 220.639 401.1 220.926C399.883 221.213 398.664 220.459 398.377 219.243Z" fill="black"/>
<path d="M424.207 185.345H446.669C446.827 185.345 446.956 185.217 446.956 185.058C446.956 184.898 446.828 184.77 446.669 184.77H424.205C424.047 184.77 423.918 184.898 423.918 185.058C423.918 185.217 424.046 185.345 424.205 185.345H424.207Z" fill="black"/>
<path d="M423.94 190.246H444.764C444.922 190.246 445.051 190.118 445.051 189.959C445.051 189.799 444.923 189.671 444.764 189.671H423.941C423.783 189.671 423.654 189.799 423.654 189.959C423.654 190.118 423.782 190.246 423.941 190.246H423.94Z" fill="black"/>
<path d="M433.042 127.229L377.859 218.268C376.831 219.963 374.993 220.998 373.011 220.998H342.101C341.113 220.998 340.722 219.716 341.544 219.165L353.687 211.025C353.687 211.025 392.67 146.423 406.035 119.616L433.042 127.229Z" fill="white"/>
<path d="M342.1 221.285H373.01C375.08 221.285 377.031 220.185 378.104 218.417L433.287 127.378C433.334 127.301 433.341 127.207 433.309 127.123C433.276 127.04 433.206 126.977 433.119 126.952L406.113 119.339C405.979 119.301 405.838 119.364 405.777 119.488C392.737 145.643 354.804 208.614 353.473 210.822L341.382 218.926C340.9 219.249 340.697 219.817 340.867 220.372C341.036 220.927 341.52 221.285 342.1 221.285ZM432.601 127.403L377.614 218.119C376.645 219.718 374.881 220.71 373.012 220.71H342.102C341.711 220.71 341.493 220.449 341.419 220.205C341.344 219.961 341.379 219.621 341.703 219.404L353.847 211.264C353.882 211.241 353.911 211.21 353.933 211.174C354.322 210.53 392.869 146.598 406.186 119.958L432.601 127.404V127.403Z" fill="black"/>
<path d="M377.29 215.903C377.428 215.903 377.55 215.804 377.573 215.663C377.6 215.506 377.494 215.359 377.337 215.333L355.047 211.628C354.889 211.603 354.743 211.707 354.717 211.864C354.691 212.021 354.796 212.169 354.953 212.195L377.243 215.899C377.259 215.902 377.274 215.903 377.29 215.903Z" fill="black"/>
<path d="M377.685 144.633C389.389 132.454 406.366 115.292 409.371 112.257C413.495 114.538 434.673 124.39 434.673 124.39L398.563 158.131L420.244 186.473C421.715 188.396 421.54 191.11 419.833 192.827L403.188 209.569C402.188 210.573 400.476 209.826 400.535 208.41L401.023 196.525C396.694 192.615 384.66 176.977 376.402 166.015C371.523 159.538 372.066 150.48 377.685 144.634V144.633Z" fill="white"/>
<path d="M402.101 210.319C402.575 210.319 403.033 210.131 403.393 209.771L420.038 193.029C421.838 191.218 422.025 188.325 420.474 186.297L398.951 158.163L434.871 124.6C434.94 124.535 434.974 124.439 434.958 124.345C434.944 124.251 434.883 124.17 434.796 124.13C434.585 124.032 413.581 114.255 409.513 112.006C409.4 111.943 409.259 111.964 409.169 112.055C405.914 115.343 389.087 132.357 377.48 144.434C371.734 150.414 371.185 159.562 376.175 166.187C385.009 177.912 396.404 192.667 400.734 196.646L400.251 208.396C400.219 209.172 400.641 209.848 401.353 210.158C401.599 210.266 401.854 210.318 402.105 210.318L402.101 210.319ZM434.165 124.469L398.367 157.919C398.259 158.019 398.246 158.187 398.334 158.303L420.015 186.645C421.392 188.445 421.226 191.014 419.629 192.621L402.984 209.363C402.533 209.816 401.963 209.798 401.579 209.631C401.195 209.464 400.796 209.057 400.822 208.418L401.31 196.534C401.314 196.449 401.279 196.366 401.216 196.309C396.998 192.498 385.518 177.636 376.631 165.839C371.812 159.441 372.341 150.605 377.892 144.83C389.325 132.933 405.826 116.243 409.423 112.611C413.586 114.864 431.315 123.139 434.165 124.468V124.469Z" fill="black"/>
<path d="M402.854 196.481C402.886 196.481 402.918 196.476 402.95 196.464C409.078 194.297 414.219 189.698 417.053 183.848C417.122 183.706 417.062 183.533 416.92 183.464C416.777 183.395 416.605 183.455 416.535 183.597C413.766 189.312 408.745 193.805 402.758 195.922C402.609 195.976 402.529 196.139 402.583 196.289C402.624 196.407 402.736 196.481 402.853 196.481H402.854Z" fill="black"/>
<path d="M403.027 87.8727C402.775 92.7165 403.741 95.6558 405.16 101.193C406.277 105.554 407.457 109.947 407.625 114.464C413.119 116.529 418.614 118.593 424.108 120.659C424.173 112.3 423.233 103.878 420.703 95.9667C418.704 89.7172 416.994 88.6656 414.234 82.3339C414.234 82.3339 413.647 80.9884 410.714 77.0917C410.161 76.3562 409.736 75.8285 409.093 75.7605C407.535 75.5933 406.09 78.2713 405.446 79.4652C403.296 83.4508 403.059 87.2326 403.027 87.8714V87.8727Z" fill="white"/>
<path d="M424.108 120.946C424.166 120.946 424.222 120.929 424.27 120.895C424.348 120.842 424.395 120.754 424.395 120.66C424.466 111.535 423.316 103.197 420.975 95.8778C419.811 92.2371 418.747 90.3547 417.515 88.1731C416.643 86.6278 415.654 84.876 414.495 82.2176C414.47 82.1615 413.862 80.7977 410.942 76.9179C410.416 76.219 409.919 75.5593 409.122 75.4731C407.373 75.2876 405.9 78.0152 405.192 79.3268C403.128 83.153 402.792 86.8224 402.737 87.8557C402.512 92.1809 403.265 95.064 404.404 99.4297C404.555 100.011 404.715 100.62 404.879 101.262L405.041 101.896C406.09 105.981 407.176 110.205 407.334 114.473C407.338 114.589 407.411 114.69 407.521 114.732L424.004 120.926C424.037 120.938 424.071 120.945 424.105 120.945L424.108 120.946ZM408.951 76.0401C408.989 76.0401 409.026 76.0427 409.064 76.0466C409.576 76.1015 409.943 76.543 410.486 77.2654C413.347 81.0681 413.965 82.4371 413.971 82.4502C415.142 85.1346 416.139 86.9008 417.018 88.4579C418.234 90.6107 419.283 92.4709 420.43 96.0541C422.717 103.205 423.858 111.341 423.825 120.245L407.906 114.262C407.721 109.999 406.644 105.808 405.603 101.755L405.441 101.121C405.275 100.476 405.117 99.8673 404.964 99.286C403.799 94.8197 403.095 92.1234 403.316 87.8871C403.368 86.8838 403.695 83.3215 405.701 79.6024C406.282 78.5247 407.623 76.0401 408.953 76.0401H408.951Z" fill="black"/>
<path d="M414.004 72.1197C414.004 72.1197 408.2 74.5599 406.892 79.3058C405.585 84.0516 424.111 154.01 424.111 154.01L445.029 136.628C449.03 133.302 450.344 127.728 448.248 122.967L428.21 77.4573C428.21 77.4573 419.461 70.1655 414.004 72.1197Z" fill="#F9DC95"/>
<path d="M373.42 96.1625C381.285 96.446 389.62 96.6276 390.73 95.8843C392.852 94.4656 399.718 89.6166 402.84 82.7297C405.962 75.8428 414.005 72.1198 414.005 72.1198L423.292 89.9797C423.292 89.9797 402.618 109.648 390.732 109.402C385.008 109.283 378.83 108.746 373.815 108.188C374.664 104.229 374.52 100.061 373.422 96.1638L373.42 96.1625Z" fill="#F9DC95"/>
<path d="M350.122 102.299C350.343 101.468 350.872 100.758 351.388 100.07C352.86 98.1123 354.484 96.0431 356.821 95.3037C358.345 94.8217 359.989 94.9719 361.58 95.1287C363.477 95.3142 371.769 96.2534 373.42 96.4272C374.855 96.5787 375.559 104.099 374.775 106.861C374.643 107.327 374.471 107.809 374.106 108.128C373.446 108.705 372.438 108.545 371.597 108.298C368.515 107.391 365.649 105.763 363.291 103.582C362.715 103.049 362.091 102.448 361.307 102.414C360.3 102.37 359.534 103.26 358.89 104.038C358.327 104.718 357.704 105.394 356.888 105.733C356.072 106.073 355.016 105.985 354.45 105.306C354.153 104.951 354.089 104.434 354.219 103.995C353.882 104.306 353.52 104.584 353.108 104.781C352.353 105.144 351.381 105.186 350.728 104.661C350.058 104.123 349.9 103.13 350.122 102.299Z" fill="white"/>
<path d="M371.597 108.296C368.516 107.39 365.65 105.762 363.292 103.581C362.716 103.048 362.091 102.447 361.307 102.413C360.3 102.368 359.535 103.259 358.891 104.037C358.328 104.717 357.705 105.392 356.888 105.732C356.073 106.072 355.016 105.984 354.451 105.305C354.154 104.95 354.09 104.432 354.219 103.993C353.882 104.304 353.52 104.583 353.109 104.78C352.354 105.143 351.382 105.185 350.729 104.66C350.059 104.121 349.901 103.129 350.123 102.298C350.343 101.467 350.873 100.756 351.389 100.069C352.861 98.1111 354.485 96.0419 356.822 95.3025C358.346 94.8205 359.989 94.9707 361.58 95.1275C363.477 95.313 371.77 96.2522 373.421 96.4259L371.597 108.296Z" fill="white"/>
<path d="M371.597 108.584C371.721 108.584 371.836 108.503 371.873 108.377C371.917 108.225 371.831 108.065 371.678 108.021C368.642 107.127 365.81 105.519 363.486 103.37L363.43 103.319C362.846 102.779 362.184 102.165 361.319 102.127C360.141 102.073 359.29 103.104 358.668 103.854C358.163 104.464 357.559 105.142 356.777 105.468C356.105 105.748 355.168 105.719 354.67 105.123C354.453 104.862 354.384 104.452 354.493 104.077C354.53 103.953 354.479 103.82 354.369 103.752C354.26 103.684 354.117 103.697 354.023 103.784C353.653 104.125 353.323 104.361 352.983 104.524C352.369 104.819 351.49 104.907 350.908 104.439C350.305 103.956 350.218 103.054 350.398 102.375C350.608 101.586 351.121 100.904 351.617 100.244C353.232 98.0967 354.744 96.2627 356.906 95.5782C358.398 95.1053 360.073 95.2699 361.55 95.4149C362.722 95.5298 366.387 95.9374 369.332 96.2653C371.167 96.4691 372.76 96.6467 373.388 96.7133C373.547 96.7316 373.687 96.6154 373.704 96.4573C373.721 96.2992 373.606 96.1582 373.448 96.1412C372.82 96.0746 371.229 95.8982 369.396 95.6931C366.449 95.3652 362.782 94.9564 361.606 94.8414C360.074 94.6912 358.337 94.5214 356.732 95.0282C354.409 95.7637 352.832 97.6683 351.157 99.8968C350.653 100.567 350.082 101.327 349.843 102.225C349.614 103.083 349.744 104.239 350.547 104.884C351.232 105.434 352.284 105.494 353.232 105.04C353.45 104.935 353.661 104.807 353.878 104.649C353.915 104.963 354.034 105.258 354.228 105.49C354.935 106.337 356.159 106.347 356.998 105.999C357.9 105.622 358.561 104.883 359.111 104.221C359.817 103.368 360.463 102.666 361.294 102.702C361.947 102.73 362.502 103.245 363.039 103.741L363.096 103.794C365.483 106.003 368.395 107.655 371.516 108.573C371.543 108.581 371.571 108.585 371.597 108.585V108.584Z" fill="black"/>
<path d="M354.582 103.714C354.682 103.714 354.78 103.662 354.832 103.569C355.844 101.796 356.992 99.7873 358.845 98.6652C359.309 98.3843 360.496 97.7847 361.501 98.2981C361.643 98.37 361.815 98.3138 361.887 98.1727C361.959 98.0316 361.903 97.8579 361.762 97.7861C360.5 97.142 359.093 97.8422 358.547 98.174C356.568 99.3732 355.329 101.542 354.334 103.284C354.256 103.422 354.303 103.598 354.441 103.676C354.486 103.702 354.535 103.714 354.584 103.714H354.582Z" fill="black"/>
<path d="M431.648 75.3868C432.911 76.6709 434.03 78.1888 434.399 79.9523C434.77 81.7159 434.24 83.755 432.759 84.7805C431.685 85.5238 430.275 85.6427 428.992 85.3932C427.71 85.1437 426.521 84.561 425.344 83.9928C422.238 82.4905 419.084 81.0301 415.744 80.1653C412.404 79.2992 408.836 79.051 405.513 79.9798C404.978 80.1287 404.409 80.3077 403.882 80.1313C403.253 79.9197 402.879 79.23 402.856 78.5663C402.833 77.9027 403.096 77.2626 403.402 76.6735C407.421 68.927 418.349 67.9773 425.561 71.1935C427.823 72.2033 429.908 73.6206 431.646 75.3881L431.648 75.3868Z" fill="white"/>
<path d="M431.665 85.5907C431.692 85.5907 431.721 85.5868 431.749 85.5777C432.178 85.447 432.574 85.2576 432.923 85.016C434.403 83.9905 435.11 81.9318 434.681 79.8926C434.352 78.3263 433.427 76.7862 431.853 75.1846C430.108 73.4093 428.031 71.9776 425.681 70.9286C417.987 67.4956 407.096 68.9313 403.149 76.538C402.866 77.0827 402.545 77.8077 402.571 78.5732C402.599 79.4171 403.101 80.1695 403.792 80.4007C403.925 80.4465 404.07 80.4739 404.221 80.4843C404.383 80.4948 404.516 80.3759 404.528 80.2179C404.538 80.0598 404.419 79.9226 404.261 79.9109C404.158 79.9043 404.065 79.8861 403.976 79.856C403.429 79.6718 403.163 79.0513 403.146 78.5536C403.125 77.9253 403.394 77.3165 403.66 76.8031C407.458 69.4839 417.992 68.1279 425.447 71.4538C427.732 72.4727 429.75 73.8639 431.444 75.587C432.939 77.1075 433.814 78.5536 434.12 80.0102C434.495 81.7972 433.869 83.6613 432.596 84.5431C432.296 84.7508 431.955 84.9141 431.583 85.0277C431.431 85.0734 431.345 85.2341 431.392 85.3857C431.43 85.5098 431.544 85.5894 431.666 85.5894L431.665 85.5907Z" fill="black"/>
<path d="M407.428 60.8212L414.004 72.1209C411.057 73.4468 408.672 74.9268 407.356 76.6995L401.821 66.5442C401.948 65.8257 404.436 57.302 407.427 60.8212H407.428Z" fill="white"/>
<path d="M407.358 76.9855C407.448 76.9855 407.534 76.9424 407.589 76.8693C408.747 75.3069 410.885 73.8399 414.124 72.3821C414.199 72.3481 414.255 72.2854 414.28 72.2083C414.305 72.1312 414.295 72.0463 414.255 71.9758L407.679 60.6762C407.67 60.6618 407.661 60.6474 407.65 60.6343C406.977 59.8427 406.262 59.5436 405.522 59.7434C403.234 60.3639 401.65 65.8857 401.543 66.4919C401.531 66.5559 401.543 66.6225 401.574 66.68L407.108 76.8353C407.155 76.9215 407.243 76.9777 407.341 76.9842C407.347 76.9842 407.354 76.9842 407.36 76.9842L407.358 76.9855ZM413.597 71.9902C410.66 73.3409 408.625 74.7151 407.401 76.1782L402.124 66.4971C402.356 65.439 403.867 60.7872 405.67 60.2986C406.179 60.1615 406.677 60.3861 407.193 60.987L413.597 71.9889V71.9902Z" fill="black"/>
<path d="M406.679 77.7741C406.764 77.7741 406.849 77.7363 406.905 77.6631C410.506 73.0544 416.128 71.6802 416.186 71.6671C416.34 71.6305 416.435 71.4764 416.398 71.3209C416.362 71.1668 416.208 71.0714 416.052 71.1067C415.815 71.1629 410.18 72.5358 406.452 77.3078C406.354 77.4332 406.376 77.6135 406.502 77.7114C406.554 77.7519 406.617 77.7728 406.678 77.7728L406.679 77.7741Z" fill="black"/>
<path d="M393.636 51.8691C394.907 48.7627 398.579 46.8541 401.852 47.5987C406.697 48.7013 409.394 54.4569 414.238 55.5673C413.981 56.2609 413.331 56.7926 412.601 56.9076C413.874 57.5659 414.488 59.1923 414.14 60.5822C413.793 61.9722 412.609 63.0695 411.245 63.5071C409.881 63.9447 408.37 63.7736 407.042 63.238L396.501 60.6737C393.645 58.9115 392.364 54.9755 393.635 51.8691H393.636Z" fill="black"/>
<path d="M407.117 61.7685C407.123 61.7685 407.131 61.7685 407.138 61.7685C407.296 61.7567 407.415 61.6195 407.403 61.4615C407.383 61.1989 407.484 60.922 407.676 60.6986C407.869 60.4765 408.131 60.338 408.392 60.3198C408.55 60.3093 408.67 60.1721 408.658 60.0128C408.648 59.8547 408.513 59.7345 408.351 59.7463C407.937 59.775 407.534 59.984 407.241 60.3224C406.948 60.6594 406.798 61.0905 406.828 61.5033C406.839 61.6548 406.965 61.7698 407.114 61.7698L407.117 61.7685Z" fill="black"/>
<path d="M405.386 59.9112C405.467 59.3743 405.513 58.8335 405.792 58.3411C406.201 57.62 406.958 57.1223 407.799 57.1066C408.793 57.0883 409.75 57.7297 410.176 58.6297C410.602 59.5285 410.508 60.6349 410.001 61.4906C409.494 62.3462 408.604 62.9471 407.634 63.1731C407.629 63.2332 407.62 63.2933 407.613 63.3534C407.163 63.0033 406.78 62.5618 406.464 62.085C406.017 61.4096 405.693 60.6624 405.386 59.9125V59.9112Z" fill="white"/>
<path d="M407.613 63.6391C407.651 63.6391 407.69 63.6313 407.726 63.6156C407.816 63.5777 407.88 63.4954 407.896 63.4C408.896 63.1166 409.745 62.4817 410.247 61.6352C410.819 60.6698 410.891 59.4706 410.435 58.504C409.948 57.4746 408.886 56.7914 407.794 56.8175C406.878 56.8345 406.016 57.3635 405.543 58.197C405.271 58.6751 405.201 59.1793 405.131 59.6666L405.103 59.8678C405.095 59.9187 405.101 59.9709 405.121 60.0193C405.421 60.7547 405.756 61.532 406.225 62.2413C406.581 62.7808 406.99 63.2302 407.437 63.5777C407.488 63.6182 407.551 63.6378 407.613 63.6378V63.6391ZM407.839 57.3936C408.685 57.3936 409.535 57.9475 409.915 58.7522C410.291 59.5477 410.229 60.5405 409.753 61.3439C409.305 62.0989 408.489 62.6789 407.569 62.8932C407.556 62.8958 407.542 62.901 407.53 62.9049C407.232 62.6319 406.955 62.304 406.704 61.9252C406.278 61.2825 405.965 60.5614 405.683 59.8743L405.701 59.7476C405.765 59.293 405.826 58.8645 406.043 58.4817C406.417 57.8234 407.091 57.4066 407.804 57.3936C407.816 57.3936 407.828 57.3936 407.839 57.3936Z" fill="black"/>
<path d="M396.273 58.2463C396.4 57.4102 402.102 57.8883 401.807 59.6675C401.459 61.7576 403.488 61.6388 403.456 61.7655C402.931 63.8778 403.88 66.847 401.982 67.9104C400.896 68.5191 397.398 67.7928 396.174 67.6099C396.094 67.0939 396.039 66.574 395.996 66.0554C395.803 63.7328 395.923 60.5493 396.273 58.2449V58.2463Z" fill="white"/>
<path d="M397.716 58.4203C397.236 58.4203 396.952 58.4713 396.814 58.5131C396.488 60.7769 396.386 63.8272 396.568 66.0074C396.602 66.4202 396.64 66.7794 396.682 67.1099C396.761 67.123 396.846 67.1374 396.935 67.1531C397.931 67.3216 399.435 67.575 400.571 67.575C401.296 67.575 401.59 67.4718 401.699 67.4104C402.595 66.9075 402.67 65.8285 402.687 64.1093C402.693 63.4653 402.7 62.803 402.791 62.1747C401.239 61.7057 401.08 60.5209 401.238 59.5751C401.245 59.5385 401.255 59.4706 401.156 59.3543C400.729 58.8501 399.153 58.4242 397.715 58.4242L397.716 58.4203ZM397.716 57.8455C399.422 57.8455 402.006 58.4543 401.805 59.6666C401.458 61.7567 403.486 61.6378 403.455 61.7645C402.93 63.8768 403.878 66.8461 401.98 67.9094C401.671 68.0832 401.164 68.1485 400.571 68.1485C399.084 68.1485 397.047 67.7409 396.172 67.609C396.093 67.093 396.038 66.5731 395.995 66.0544C395.801 63.7318 395.921 60.5483 396.272 58.244C396.312 57.9775 396.918 57.8442 397.715 57.8442L397.716 57.8455Z" fill="black"/>
<path d="M401.142 66.4034C403.04 65.34 402.931 63.8783 403.457 61.7659C403.488 61.6405 403.51 61.5125 403.536 61.3858C403.604 61.4603 403.685 61.523 403.784 61.5687C404.344 61.83 404.988 61.3114 405.198 60.7313C405.295 60.4636 405.346 60.1879 405.386 59.9097C405.693 60.6595 406.017 61.4067 406.464 62.0821C406.78 62.5589 407.163 63.0017 407.613 63.3505C407.433 65.0801 406.999 66.7835 406.327 68.3877C405.786 69.6744 405.072 70.9232 404.016 71.8337C402.959 72.7442 401.511 73.2798 400.145 72.9977C398.725 72.7037 397.219 72.6097 396.584 71.306C396.176 70.4699 396.17 67.3073 396.028 66.3851C397.508 66.0546 400.058 67.0095 401.143 66.4021L401.142 66.4034Z" fill="black"/>
<path d="M407.309 61.4978C407.445 61.4978 407.566 61.4011 407.591 61.2626C407.69 60.7231 408.029 60.228 408.496 59.9406C408.632 59.857 408.674 59.6807 408.591 59.5448C408.507 59.409 408.331 59.3672 408.195 59.4508C407.59 59.8218 407.154 60.4605 407.026 61.1581C406.997 61.3136 407.1 61.4638 407.257 61.4925C407.274 61.4951 407.292 61.4978 407.309 61.4978Z" fill="black"/>
<path d="M340.723 108.267H298.641V112.034H411.746V108.267H398.355H340.723Z" fill="white"/>
<path d="M298.642 112.322H411.747C411.905 112.322 412.034 112.194 412.034 112.035V108.267C412.034 108.109 411.906 107.98 411.747 107.98H398.356C398.198 107.98 398.069 108.108 398.069 108.267C398.069 108.427 398.197 108.555 398.356 108.555H411.46V111.747H298.93V108.555H340.724C340.882 108.555 341.011 108.427 341.011 108.267C341.011 108.108 340.883 107.98 340.724 107.98H298.642C298.484 107.98 298.355 108.108 298.355 108.267V112.035C298.355 112.193 298.483 112.322 298.642 112.322Z" fill="black"/>
<path d="M425.623 219.021C425.641 219.021 425.66 219.02 425.68 219.016C425.835 218.985 425.936 218.833 425.905 218.678L421.141 195.031C421.109 194.875 420.958 194.775 420.802 194.806C420.647 194.837 420.546 194.989 420.578 195.144L425.342 218.791C425.369 218.927 425.489 219.023 425.623 219.023V219.021Z" fill="black"/>
<path d="M417.824 180.312C417.842 180.312 417.862 180.311 417.881 180.307C418.037 180.276 418.137 180.124 418.106 179.969L404.408 111.979C404.377 111.823 404.225 111.723 404.07 111.754C403.914 111.785 403.814 111.937 403.845 112.092L417.543 180.082C417.571 180.218 417.691 180.313 417.824 180.313V180.312Z" fill="black"/>
<path d="M427.886 218.733C427.886 219.984 426.873 220.997 425.622 220.997C424.372 220.997 423.359 219.984 423.359 218.733C423.359 217.483 424.372 216.47 425.622 216.47C426.873 216.47 427.886 217.483 427.886 218.733Z" fill="black"/>
<path d="M294.426 219.02C294.561 219.02 294.68 218.926 294.707 218.789L316.197 112.132C316.229 111.977 316.128 111.825 315.972 111.794C315.818 111.763 315.665 111.863 315.634 112.019L294.144 218.676C294.113 218.831 294.213 218.983 294.369 219.014C294.388 219.018 294.406 219.019 294.426 219.019V219.02Z" fill="black"/>
<path d="M292.163 218.733C292.163 219.984 293.176 220.997 294.427 220.997C295.677 220.997 296.69 219.984 296.69 218.733C296.69 217.483 295.677 216.47 294.427 216.47C293.176 216.47 292.163 217.483 292.163 218.733Z" fill="black"/>
<path d="M344.479 108.299H372.156C372.156 106.849 370.98 105.673 369.53 105.673H341.853C341.853 107.123 343.029 108.299 344.479 108.299Z" fill="black"/>
<path d="M344.983 106.761L332.283 79.2478C330.966 79.8552 330.391 81.4163 330.999 82.7331L342.089 106.761H344.982H344.983Z" fill="black"/>
</svg>
