<svg width="27" height="27" viewBox="0 0 27 27" fill="none" xmlns="http://www.w3.org/2000/svg">
<path fill-rule="evenodd" clip-rule="evenodd" d="M0.633299 3.03202C0 4.25117 0 5.85286 0 9.05625V17.9438C0 21.1471 0 22.7488 0.633299 23.968C1.16697 24.9953 2.00465 25.833 3.03202 26.3667C4.25117 27 5.85286 27 9.05625 27H17.9438C21.1471 27 22.7488 27 23.968 26.3667C24.9953 25.833 25.833 24.9953 26.3667 23.968C27 22.7488 27 21.1471 27 17.9438V9.05625C27 5.85286 27 4.25117 26.3667 3.03202C25.833 2.00465 24.9953 1.16697 23.968 0.633299C22.7488 0 21.1471 0 17.9438 0H9.05625C5.85286 0 4.25117 0 3.03202 0.633299C2.00465 1.16697 1.16697 2.00465 0.633299 3.03202ZM20.6018 6.51326C18.9009 4.81121 16.6739 3.82568 14.284 3.70823L13.804 3.69635C8.50726 3.69635 4.19636 8.00488 4.19424 13.3006C4.19354 14.9935 4.63605 16.6458 5.477 18.1024L4.11366 23.0796L9.20791 21.744C10.6115 22.5092 12.1918 22.9125 13.8002 22.913H13.8041C19.1003 22.913 23.4116 18.6041 23.4138 13.3082C23.4147 10.7419 22.4161 8.32869 20.6018 6.51326ZM9.73561 20.1781L9.44391 20.0051L6.42095 20.7977L7.22783 17.8518L7.03792 17.5497C6.23839 16.2787 5.81613 14.8096 5.81673 13.3012C5.81849 8.89957 9.40156 5.3186 13.8073 5.3186C15.9407 5.31929 17.946 6.15082 19.4541 7.65986C20.962 9.16881 21.792 11.1746 21.7912 13.3077C21.7894 17.7096 18.2064 21.2909 13.8041 21.2909H13.8009C12.3676 21.2904 10.9619 20.9055 9.73561 20.1781ZM18.3165 15.3761C18.484 15.457 18.5971 15.5116 18.6454 15.5922C18.7054 15.6923 18.7054 16.1728 18.5053 16.7335C18.3053 17.2941 17.346 17.8057 16.8846 17.8746C16.4709 17.9365 15.9475 17.9622 15.3723 17.7795C15.0236 17.6689 14.5763 17.5213 14.0034 17.274C11.7525 16.3024 10.2313 14.1219 9.94373 13.7097C9.92358 13.6808 9.90948 13.6606 9.90162 13.6502L9.89952 13.6473C9.77189 13.4771 8.92115 12.3422 8.92115 11.1675C8.92115 10.0619 9.46457 9.48242 9.71462 9.21578C9.73173 9.19754 9.74746 9.18077 9.76155 9.16539C9.98164 8.92507 10.2418 8.86505 10.4019 8.86505C10.5619 8.86505 10.7221 8.86658 10.862 8.87351C10.8793 8.87437 10.8972 8.87427 10.9158 8.87416C11.0557 8.87335 11.2302 8.87234 11.4023 9.28548C11.4685 9.44438 11.5653 9.67991 11.6674 9.92836C11.874 10.4312 12.1024 10.9871 12.1426 11.0675C12.2026 11.1876 12.2427 11.3277 12.1626 11.4879C12.1506 11.512 12.1395 11.5347 12.1288 11.5565C12.0687 11.6791 12.0245 11.7693 11.9225 11.8883C11.8825 11.935 11.8412 11.9853 11.7998 12.0357C11.7171 12.1364 11.6343 12.2371 11.5623 12.3088C11.4421 12.4284 11.317 12.5583 11.457 12.7986C11.5971 13.0388 12.079 13.8247 12.7928 14.4611C13.5602 15.1452 14.2272 15.4344 14.5652 15.5809C14.6311 15.6095 14.6846 15.6327 14.7238 15.6523C14.9638 15.7724 15.1039 15.7524 15.2439 15.5922C15.3841 15.432 15.8442 14.8914 16.0043 14.6512C16.1643 14.411 16.3244 14.451 16.5445 14.531C16.7646 14.6112 17.9451 15.1918 18.1852 15.3119C18.2321 15.3354 18.2759 15.3565 18.3165 15.3761Z" fill="#494949"/>
</svg>
